<?xml version="1.0" encoding="us-ascii" standalone="no"?><svg xmlns="http://www.w3.org/2000/svg" xmlns:xlink="http://www.w3.org/1999/xlink" contentStyleType="text/css" height="813px" preserveAspectRatio="none" style="width:1285px;height:813px;background:#FFFFFF;" version="1.1" viewBox="0 0 1285 813" width="1285px" zoomAndPan="magnify"><defs/><g><!--cluster derivedMeasurement--><g id="cluster_derivedMeasurement"><path d="M420.5,6 L637.5,6 A3.75,3.75 0 0 1 640,8.5 L647,29.6094 L841.5,29.6094 A2.5,2.5 0 0 1 844,32.1094 L844,177.5 A2.5,2.5 0 0 1 841.5,180 L420.5,180 A2.5,2.5 0 0 1 418,177.5 L418,8.5 A2.5,2.5 0 0 1 420.5,6 " fill="none" style="stroke:#000000;stroke-width:1.5;"/><line style="stroke:#000000;stroke-width:1.5;" x1="418" x2="647" y1="29.6094" y2="29.6094"/><text fill="#000000" font-family="sans-serif" font-size="14" font-weight="bold" lengthAdjust="spacing" textLength="216" x="422" y="22.5332">Derived Imaging Measurement</text></g><!--cluster Measurement Groups--><g id="cluster_Measurement Groups"><path d="M638.5,58 L792.5,58 A3.75,3.75 0 0 1 795,60.5 L802,81.6094 L809.5,81.6094 A2.5,2.5 0 0 1 812,84.1094 L812,145.5 A2.5,2.5 0 0 1 809.5,148 L638.5,148 A2.5,2.5 0 0 1 636,145.5 L636,60.5 A2.5,2.5 0 0 1 638.5,58 " fill="none" style="stroke:#000000;stroke-width:1.5;"/><line style="stroke:#000000;stroke-width:1.5;" x1="636" x2="802" y1="81.6094" y2="81.6094"/><text fill="#000000" font-family="sans-serif" font-size="14" font-weight="bold" lengthAdjust="spacing" textLength="153" x="640" y="74.5332">Measurement Groups</text></g><g id="elem_algorithm"><rect fill="#F1F1F1" height="37.6094" style="stroke:#181818;stroke-width:0.5;" width="156" x="461" y="94"/><text fill="#000000" font-family="sans-serif" font-size="14" lengthAdjust="spacing" textLength="142" x="468" y="110.5332">Algorithm Identification</text><line style="stroke:#181818;stroke-width:0.5;" x1="462" x2="616" y1="115.6094" y2="115.6094"/></g><g id="elem_measurementGroup"><rect fill="#F1F1F1" height="37.6094" style="stroke:#181818;stroke-width:0.5;" width="144" x="652" y="94"/><text fill="#000000" font-family="sans-serif" font-size="14" lengthAdjust="spacing" textLength="130" x="659" y="110.5332">Measurement Group</text><line style="stroke:#181818;stroke-width:0.5;" x1="653" x2="795" y1="115.6094" y2="115.6094"/></g><g id="elem_inputs"><rect fill="#F1F1F1" height="108.0469" style="stroke:#181818;stroke-width:0.5;" width="358" x="7" y="256"/><a href="mapping.html#imaging-measurements-container-mapping" target="_top" title="mapping.html#imaging-measurements-container-mapping" xlink:actuate="onRequest" xlink:href="mapping.html#imaging-measurements-container-mapping" xlink:show="new" xlink:title="mapping.html#imaging-measurements-container-mapping" xlink:type="simple"><text fill="#0000FF" font-family="sans-serif" font-size="14" lengthAdjust="spacing" text-decoration="underline" textLength="344" x="14" y="272.5332">Inputs from Imaging Measurements Container Mapping</text></a><line style="stroke:#181818;stroke-width:1.0;" x1="7" x2="365" y1="277.6094" y2="277.6094"/><text fill="#000000" font-family="sans-serif" font-size="14" lengthAdjust="spacing" textLength="45" x="18.5" y="294.1426">subject</text><text fill="#000000" font-family="sans-serif" font-size="14" lengthAdjust="spacing" textLength="44" x="80" y="294.1426">Patient</text><line style="stroke:#181818;stroke-width:1.0;" x1="75" x2="75" y1="277.6094" y2="299.2188"/><line style="stroke:#181818;stroke-width:1.0;" x1="7" x2="365" y1="299.2188" y2="299.2188"/><text fill="#000000" font-family="sans-serif" font-size="14" lengthAdjust="spacing" textLength="40" x="21" y="315.752">partOf</text><text fill="#000000" font-family="sans-serif" font-size="14" lengthAdjust="spacing" textLength="85" x="80" y="315.752">ImagingStudy</text><line style="stroke:#181818;stroke-width:1.0;" x1="75" x2="75" y1="299.2188" y2="320.8281"/><line style="stroke:#181818;stroke-width:1.0;" x1="7" x2="365" y1="320.8281" y2="320.8281"/><text fill="#000000" font-family="sans-serif" font-size="14" lengthAdjust="spacing" textLength="58" x="12" y="337.3613">basedOn</text><text fill="#000000" font-family="sans-serif" font-size="14" lengthAdjust="spacing" textLength="100" x="80" y="337.3613">ServiceRequest</text><line style="stroke:#181818;stroke-width:1.0;" x1="75" x2="75" y1="320.8281" y2="342.4375"/><line style="stroke:#181818;stroke-width:1.0;" x1="7" x2="365" y1="342.4375" y2="342.4375"/><text fill="#000000" font-family="sans-serif" font-size="14" lengthAdjust="spacing" textLength="41" x="20.5" y="358.9707">device</text><text fill="#000000" font-family="sans-serif" font-size="14" lengthAdjust="spacing" textLength="110" x="80" y="358.9707">EquipmentDevice</text><line style="stroke:#181818;stroke-width:1.0;" x1="75" x2="75" y1="342.4375" y2="364.0469"/></g><g id="elem_AlgorithmIdentification"><rect fill="#F1F1F1" height="47.2188" style="stroke:#181818;stroke-width:0.5;" width="208" x="479" y="286.5"/><text fill="#000000" font-family="sans-serif" font-size="14" lengthAdjust="spacing" textLength="194" x="486" y="303.0332">Device - AlgorithmIdentification</text><line style="stroke:#181818;stroke-width:0.5;" x1="480" x2="686" y1="308.1094" y2="308.1094"/><text fill="#000000" font-family="sans-serif" font-size="14" lengthAdjust="spacing" textLength="167" x="485" y="326.6426">parent = EquipmentDevice</text></g><g id="elem_derivedImagingMeasurement"><rect fill="#F1F1F1" height="170.4844" style="stroke:#181818;stroke-width:0.5;" width="338" x="257" y="446"/><text fill="#000000" font-family="sans-serif" font-size="14" lengthAdjust="spacing" textLength="282" x="285" y="462.5332">Observation - Derived Imaging Measurement</text><line style="stroke:#181818;stroke-width:0.5;" x1="258" x2="594" y1="467.6094" y2="467.6094"/><text fill="#000000" font-family="sans-serif" font-size="14" lengthAdjust="spacing" textLength="105" x="263" y="486.1426">subject = Patient</text><text fill="#000000" font-family="sans-serif" font-size="14" lengthAdjust="spacing" textLength="141" x="263" y="503.752">partOf = ImagingStudy</text><text fill="#000000" font-family="sans-serif" font-size="14" lengthAdjust="spacing" textLength="174" x="263" y="521.3613">basedOn = ServiceRequest</text><text fill="#000000" font-family="sans-serif" font-size="14" lengthAdjust="spacing" textLength="326" x="263" y="538.9707">device = EquipmentDevice or AlgorithmIdentification</text><text fill="#000000" font-family="sans-serif" font-size="14" lengthAdjust="spacing" textLength="246" x="263" y="556.5801">code = Concept Name Code Sequence</text><text fill="#000000" font-family="sans-serif" font-size="14" lengthAdjust="spacing" textLength="211" x="263" y="574.1895">valueCodeableConcept = Finding</text><text fill="#000000" font-family="sans-serif" font-size="14" lengthAdjust="spacing" textLength="274" x="263" y="591.7988">valueQuantity = Measured Value Sequence</text><text fill="#000000" font-family="sans-serif" font-size="14" lengthAdjust="spacing" textLength="271" x="263" y="609.4082">derivedFrom = ImagingMeasurementGroup</text></g><g id="elem_imagingMeasurementGroupMap"><rect fill="#F1F1F1" height="108.0469" style="stroke:#181818;stroke-width:0.5;" width="347" x="252.5" y="698"/><a href="mapping.html#imaging-measurement-group-mapping" target="_top" title="mapping.html#imaging-measurement-group-mapping" xlink:actuate="onRequest" xlink:href="mapping.html#imaging-measurement-group-mapping" xlink:show="new" xlink:title="mapping.html#imaging-measurement-group-mapping" xlink:type="simple"><text fill="#0000FF" font-family="sans-serif" font-size="14" lengthAdjust="spacing" text-decoration="underline" textLength="241" x="305.5" y="714.5332">Imaging Measurement Group Mapping</text></a><line style="stroke:#181818;stroke-width:1.0;" x1="252.5" x2="599.5" y1="719.6094" y2="719.6094"/><text fill="#000000" font-family="sans-serif" font-size="14" lengthAdjust="spacing" textLength="45" x="264" y="736.1426">subject</text><text fill="#000000" font-family="sans-serif" font-size="14" lengthAdjust="spacing" textLength="44" x="325.5" y="736.1426">Patient</text><line style="stroke:#181818;stroke-width:1.0;" x1="320.5" x2="320.5" y1="719.6094" y2="741.2188"/><line style="stroke:#181818;stroke-width:1.0;" x1="252.5" x2="599.5" y1="741.2188" y2="741.2188"/><text fill="#000000" font-family="sans-serif" font-size="14" lengthAdjust="spacing" textLength="40" x="266.5" y="757.752">partOf</text><text fill="#000000" font-family="sans-serif" font-size="14" lengthAdjust="spacing" textLength="85" x="325.5" y="757.752">ImagingStudy</text><line style="stroke:#181818;stroke-width:1.0;" x1="320.5" x2="320.5" y1="741.2188" y2="762.8281"/><line style="stroke:#181818;stroke-width:1.0;" x1="252.5" x2="599.5" y1="762.8281" y2="762.8281"/><text fill="#000000" font-family="sans-serif" font-size="14" lengthAdjust="spacing" textLength="58" x="257.5" y="779.3613">basedOn</text><text fill="#000000" font-family="sans-serif" font-size="14" lengthAdjust="spacing" textLength="100" x="325.5" y="779.3613">ServiceRequest</text><line style="stroke:#181818;stroke-width:1.0;" x1="320.5" x2="320.5" y1="762.8281" y2="784.4375"/><line style="stroke:#181818;stroke-width:1.0;" x1="252.5" x2="599.5" y1="784.4375" y2="784.4375"/><text fill="#000000" font-family="sans-serif" font-size="14" lengthAdjust="spacing" textLength="41" x="266" y="800.9707">device</text><text fill="#000000" font-family="sans-serif" font-size="14" lengthAdjust="spacing" textLength="269" x="325.5" y="800.9707">AlgorithmIdentification or EquipmentDevice</text><line style="stroke:#181818;stroke-width:1.0;" x1="320.5" x2="320.5" y1="784.4375" y2="806.0469"/></g><!--link algorithm to AlgorithmIdentification--><g id="link_algorithm_AlgorithmIdentification"><path codeLine="38" d="M526.71,132.23 C513.71,153.93 496.52,191.1 508,222 C516.78,245.64 535.18,267.15 551.56,282.87 " fill="none" id="algorithm-to-AlgorithmIdentification" style="stroke:#181818;stroke-width:1.0;"/><polygon fill="#181818" points="555.24,286.33,551.4455,277.2415,551.6057,282.896,545.9511,283.0563,555.24,286.33" style="stroke:#181818;stroke-width:1.0;"/><text fill="#000000" font-family="sans-serif" font-size="13" lengthAdjust="spacing" textLength="409" x="509" y="218.4951">Create AlgorithmIdentification from Algorithm Identification content item</text></g><!--link inputs to derivedImagingMeasurement--><g id="link_inputs_derivedImagingMeasurement"><path codeLine="40" d="M248.74,368.25 C273.5,390.84 302.5,417.3 329.79,442.21 " fill="none" id="inputs-to-derivedImagingMeasurement" style="stroke:#181818;stroke-width:1.0;"/><polygon fill="#181818" points="333.8,445.87,329.859,436.844,330.1107,442.4953,324.4594,442.7469,333.8,445.87" style="stroke:#181818;stroke-width:1.0;"/></g><!--link AlgorithmIdentification to derivedImagingMeasurement--><g id="link_AlgorithmIdentification_derivedImagingMeasurement"><path codeLine="41" d="M566.79,333.61 C548.5,359.13 517.61,402.22 489.42,441.54 " fill="none" id="AlgorithmIdentification-to-derivedImagingMeasurement" style="stroke:#181818;stroke-width:1.0;"/><polygon fill="#181818" points="486.35,445.82,494.8493,440.8439,489.267,441.7591,488.3519,436.1767,486.35,445.82" style="stroke:#181818;stroke-width:1.0;"/></g><!--link derivedMeasurement to derivedImagingMeasurement--><g id="link_derivedMeasurement_derivedImagingMeasurement"><path codeLine="42" d="M426,180.9809 C426,181.408 426,181.8365 426,182.2666 C426,183.9868 426,185.7307 426,187.4973 C426,201.6301 426,217.2134 426,233.7063 C426,299.6775 426,380.2 426,440.64 " fill="none" id="derivedMeasurement-to-derivedImagingMeasurement" style="stroke:#181818;stroke-width:1.0;"/><polygon fill="#181818" points="426,445.98,430,436.98,426,440.98,422,436.98,426,445.98" style="stroke:#181818;stroke-width:1.0;"/></g><!--link inputs to imagingMeasurementGroupMap--><g id="link_inputs_imagingMeasurementGroupMap"><path codeLine="44" d="M183.51,368.07 C183.34,432.97 191.35,539.78 239,616 C257.51,645.61 285.11,670.71 313.46,690.94 " fill="none" id="inputs-to-imagingMeasurementGroupMap" style="stroke:#181818;stroke-width:1.0;"/><polygon fill="#181818" points="317.65,693.89,312.5866,685.4424,313.5592,691.015,307.9866,691.9876,317.65,693.89" style="stroke:#181818;stroke-width:1.0;"/></g><!--link measurementGroup to imagingMeasurementGroupMap--><g id="link_measurementGroup_imagingMeasurementGroupMap"><path codeLine="45" d="M796.26,123.21 C861.22,135.41 943.51,162.75 923,222 C850.11,432.51 640.9,604.54 518.39,690.85 " fill="none" id="measurementGroup-to-imagingMeasurementGroupMap" style="stroke:#181818;stroke-width:1.0;"/><polygon fill="#181818" points="514.07,693.89,523.7365,692.0035,518.1655,691.0217,519.1473,685.4507,514.07,693.89" style="stroke:#181818;stroke-width:1.0;"/><text fill="#000000" font-family="sans-serif" font-size="13" lengthAdjust="spacing" textLength="450" x="827" y="412.4951">Map measurement group children to ImagingMeasurementGroup Observations</text></g><!--reverse link derivedImagingMeasurement to imagingMeasurementGroupMap--><g id="link_derivedImagingMeasurement_imagingMeasurementGroupMap"><path codeLine="46" d="M426,621.26 C426,645.81 426,671.77 426,693.96 " fill="none" id="derivedImagingMeasurement-backto-imagingMeasurementGroupMap" style="stroke:#181818;stroke-width:1.0;"/><polygon fill="#181818" points="426,616.04,422,625.04,426,621.04,430,625.04,426,616.04" style="stroke:#181818;stroke-width:1.0;"/><text fill="#000000" font-family="sans-serif" font-size="13" lengthAdjust="spacing" textLength="70" x="427" y="660.4951">derivedFrom</text></g><!--SRC=[ZLJ1Rjim3BtxAmZlh7r0iHWOshNe8Sks0BiKFIWMusYpR5MI0nH3_tsYP3kUOtazYkIZ7lb8AguXVtfIN6lPL1zFJjKVfEALVp25t7O65JREih9j79SD6jR7mcEZEsVXQ5e5Zn42sma4RWS8R2Fa-Ja7Ra56u9yC06nt-8MbWqq1txYJ7aTMpOtR7SdO9zwxJhoIvy0jYbr3hZsQiopn1xvqQ0DC81d8z-MbavfOt0LJzfPbcfU_UOMGtw6HPnHBd0Cz4VqJSwJQHgRvvxfgZNGdNxNmJdcKfMVUDW7C1sSie_zockl1j9ssUSmv9hsA2Dac2WGZGTwec04MomC68wa5JWbVpy3tcZxTBFLi-6PtiBxP4SNWdGtitLTzl6W-bNpK_4hoY-OBae-Qp-b3QrA51rpP2aBv6IrHE_ZA5Vg7j-qfkJU6g3ElEoGpFzGun6xWNZR2Kxo4VE-u_y2zUbzVhu2VvFWtNT-PUrgPiT3jN6JVUFM-jMGL0IuRUIr87ARv0Yv_x8Fc2XMB4XKh6XLh8XN9MVHgBSpVk4t0M19x0xS6kSDaxd2XKbiBTDYeKTAXohB-Dj5toJ7EKX-jenRkoZfWIYOjMJO_4l-9lw5Xc5uM24C4vKdMmfy2S6rgCc5o1soMNlDFZAqIcAp1Nm00]--></g></svg>