<?xml version="1.0" encoding="us-ascii" standalone="no"?><svg xmlns="http://www.w3.org/2000/svg" xmlns:xlink="http://www.w3.org/1999/xlink" contentStyleType="text/css" height="882px" preserveAspectRatio="none" style="width:1251px;height:882px;background:#FFFFFF;" version="1.1" viewBox="0 0 1251 882" width="1251px" zoomAndPan="magnify"><defs/><g><!--cluster measurementReport--><g id="cluster_measurementReport"><path d="M8.5,6 L233.5,6 A3.75,3.75 0 0 1 236,8.5 L243,29.6094 L556.5,29.6094 A2.5,2.5 0 0 1 559,32.1094 L559,872.5 A2.5,2.5 0 0 1 556.5,875 L8.5,875 A2.5,2.5 0 0 1 6,872.5 L6,8.5 A2.5,2.5 0 0 1 8.5,6 " fill="none" style="stroke:#000000;stroke-width:1.5;"/><line style="stroke:#000000;stroke-width:1.5;" x1="6" x2="243" y1="29.6094" y2="29.6094"/><text fill="#000000" font-family="sans-serif" font-size="14" font-weight="bold" lengthAdjust="spacing" textLength="224" x="10" y="22.5332">DICOM SR Measurement Report</text></g><!--cluster documentIE--><g id="cluster_documentIE"><path d="M48.5,74 L137.5,74 A3.75,3.75 0 0 1 140,76.5 L147,97.6094 L516.5,97.6094 A2.5,2.5 0 0 1 519,100.1094 L519,832.5 A2.5,2.5 0 0 1 516.5,835 L48.5,835 A2.5,2.5 0 0 1 46,832.5 L46,76.5 A2.5,2.5 0 0 1 48.5,74 " fill="none" style="stroke:#000000;stroke-width:1.5;"/><line style="stroke:#000000;stroke-width:1.5;" x1="46" x2="147" y1="97.6094" y2="97.6094"/><text fill="#000000" font-family="sans-serif" font-size="14" font-weight="bold" lengthAdjust="spacing" textLength="88" x="50" y="90.5332">Document IE</text></g><!--cluster srContentSequence--><g id="cluster_srContentSequence"><path d="M80.5,134 L235.5,134 A3.75,3.75 0 0 1 238,136.5 L245,157.6094 L484.5,157.6094 A2.5,2.5 0 0 1 487,160.1094 L487,800.5 A2.5,2.5 0 0 1 484.5,803 L80.5,803 A2.5,2.5 0 0 1 78,800.5 L78,136.5 A2.5,2.5 0 0 1 80.5,134 " fill="none" style="stroke:#000000;stroke-width:1.5;"/><line style="stroke:#000000;stroke-width:1.5;" x1="78" x2="245" y1="157.6094" y2="157.6094"/><text fill="#000000" font-family="sans-serif" font-size="14" font-weight="bold" lengthAdjust="spacing" textLength="154" x="82" y="150.5332">SR Content Sequence</text></g><!--cluster imagingMeasurementsContainer--><g id="cluster_imagingMeasurementsContainer"><path d="M112.5,186 L350.5,186 A3.75,3.75 0 0 1 353,188.5 L360,209.6094 L452.5,209.6094 A2.5,2.5 0 0 1 455,212.1094 L455,768.5 A2.5,2.5 0 0 1 452.5,771 L112.5,771 A2.5,2.5 0 0 1 110,768.5 L110,188.5 A2.5,2.5 0 0 1 112.5,186 " fill="none" style="stroke:#000000;stroke-width:1.5;"/><line style="stroke:#000000;stroke-width:1.5;" x1="110" x2="360" y1="209.6094" y2="209.6094"/><text fill="#000000" font-family="sans-serif" font-size="14" font-weight="bold" lengthAdjust="spacing" textLength="237" x="114" y="202.5332">Imaging Measurements Container</text></g><!--cluster measurementsGroup--><g id="cluster_measurementsGroup"><path d="M165,254 L344,254 A3.75,3.75 0 0 1 346.5,256.5 L353.5,277.6094 L399,277.6094 A2.5,2.5 0 0 1 401.5,280.1094 L401.5,449.5 A2.5,2.5 0 0 1 399,452 L165,452 A2.5,2.5 0 0 1 162.5,449.5 L162.5,256.5 A2.5,2.5 0 0 1 165,254 " fill="none" style="stroke:#000000;stroke-width:1.5;"/><line style="stroke:#000000;stroke-width:1.5;" x1="162.5" x2="353.5" y1="277.6094" y2="277.6094"/><text fill="#000000" font-family="sans-serif" font-size="14" font-weight="bold" lengthAdjust="spacing" textLength="178" x="166.5" y="270.5332">0..* Measurements Group</text></g><!--cluster derivedImagingMeasurements--><g id="cluster_derivedImagingMeasurements"><path d="M152.5,492 L402.5,492 A3.75,3.75 0 0 1 405,494.5 L412,515.6094 L412.5,515.6094 A2.5,2.5 0 0 1 415,518.1094 L415,614.5 A2.5,2.5 0 0 1 412.5,617 L152.5,617 A2.5,2.5 0 0 1 150,614.5 L150,494.5 A2.5,2.5 0 0 1 152.5,492 " fill="none" style="stroke:#000000;stroke-width:1.5;"/><line style="stroke:#000000;stroke-width:1.5;" x1="150" x2="412" y1="515.6094" y2="515.6094"/><text fill="#000000" font-family="sans-serif" font-size="14" font-weight="bold" lengthAdjust="spacing" textLength="249" x="154" y="508.5332">0..* Derived Imaging Measurements</text></g><!--cluster qualitativeEvaluations--><g id="cluster_qualitativeEvaluations"><path d="M180.5,649 L343.5,649 A3.75,3.75 0 0 1 346,651.5 L353,672.6094 L383.5,672.6094 A2.5,2.5 0 0 1 386,675.1094 L386,736.5 A2.5,2.5 0 0 1 383.5,739 L180.5,739 A2.5,2.5 0 0 1 178,736.5 L178,651.5 A2.5,2.5 0 0 1 180.5,649 " fill="none" style="stroke:#000000;stroke-width:1.5;"/><line style="stroke:#000000;stroke-width:1.5;" x1="178" x2="353" y1="672.6094" y2="672.6094"/><text fill="#000000" font-family="sans-serif" font-size="14" font-weight="bold" lengthAdjust="spacing" textLength="162" x="182" y="665.5332">Qualitative Evaluations</text></g><g id="elem_numericalMeasurement"><rect fill="#F1F1F1" height="37.6094" style="stroke:#181818;stroke-width:0.5;" width="191" x="186.5" y="317"/><text fill="#000000" font-family="sans-serif" font-size="14" lengthAdjust="spacing" textLength="177" x="193.5" y="333.5332">0..* Numerical Measurement</text><line style="stroke:#181818;stroke-width:0.5;" x1="187.5" x2="376.5" y1="338.6094" y2="338.6094"/></g><g id="elem_measurementGroupQualitativeEvaluation"><rect fill="#F1F1F1" height="37.6094" style="stroke:#181818;stroke-width:0.5;" width="176" x="194" y="390"/><text fill="#000000" font-family="sans-serif" font-size="14" lengthAdjust="spacing" textLength="162" x="201" y="406.5332">0..* Qualitative Evaluation</text><line style="stroke:#181818;stroke-width:0.5;" x1="195" x2="369" y1="411.6094" y2="411.6094"/></g><g id="elem_derivedMeasurementsGroup"><rect fill="#F1F1F1" height="37.6094" style="stroke:#181818;stroke-width:0.5;" width="176" x="194" y="536"/><text fill="#000000" font-family="sans-serif" font-size="14" lengthAdjust="spacing" textLength="162" x="201" y="552.5332">0..* Measurements Group</text><line style="stroke:#181818;stroke-width:0.5;" x1="195" x2="369" y1="557.6094" y2="557.6094"/></g><g id="elem_qualitativeEvaluation"><rect fill="#F1F1F1" height="37.6094" style="stroke:#181818;stroke-width:0.5;" width="176" x="194" y="685"/><text fill="#000000" font-family="sans-serif" font-size="14" lengthAdjust="spacing" textLength="162" x="201" y="701.5332">0..* Qualitative Evaluation</text><line style="stroke:#181818;stroke-width:0.5;" x1="195" x2="369" y1="706.6094" y2="706.6094"/></g><!--entity measurementReportInstanceMapping--><g id="elem_measurementReportInstanceMapping"><rect fill="#F1F1F1" height="37.6094" rx="2.5" ry="2.5" style="stroke:#181818;stroke-width:0.5;" width="340" x="905.5" y="13"/><a href="mapping.html#sr_instance" target="_top" title="mapping.html#sr_instance" xlink:actuate="onRequest" xlink:href="mapping.html#sr_instance" xlink:show="new" xlink:title="mapping.html#sr_instance" xlink:type="simple"><text fill="#0000FF" font-family="sans-serif" font-size="14" lengthAdjust="spacing" text-decoration="underline" textLength="320" x="915.5" y="37.5332">DICOM SR Measurement Report Instance Mapping</text></a></g><!--entity documentIEMapping--><g id="elem_documentIEMapping"><rect fill="#F1F1F1" height="37.6094" rx="2.5" ry="2.5" style="stroke:#181818;stroke-width:0.5;" width="158" x="996.5" y="86"/><a href="mapping.html#sr_document" target="_top" title="mapping.html#sr_document" xlink:actuate="onRequest" xlink:href="mapping.html#sr_document" xlink:show="new" xlink:title="mapping.html#sr_document" xlink:type="simple"><text fill="#0000FF" font-family="sans-serif" font-size="14" lengthAdjust="spacing" text-decoration="underline" textLength="138" x="1006.5" y="110.5332">Document IE Mapping</text></a></g><!--entity imagingMeasurementsContainerMapping--><g id="elem_imagingMeasurementsContainerMapping"><rect fill="#F1F1F1" height="37.6094" rx="2.5" ry="2.5" style="stroke:#181818;stroke-width:0.5;" width="290" x="930.5" y="194"/><a href="mapping.html#imaging_measurements_container" target="_top" title="mapping.html#imaging_measurements_container" xlink:actuate="onRequest" xlink:href="mapping.html#imaging_measurements_container" xlink:show="new" xlink:title="mapping.html#imaging_measurements_container" xlink:type="simple"><text fill="#0000FF" font-family="sans-serif" font-size="14" lengthAdjust="spacing" text-decoration="underline" textLength="270" x="940.5" y="218.5332">Imaging Measurements Container Mapping</text></a></g><!--entity imagingMeasurementGroupMapping--><g id="elem_imagingMeasurementGroupMapping"><rect fill="#F1F1F1" height="37.6094" rx="2.5" ry="2.5" style="stroke:#181818;stroke-width:0.5;" width="268" x="941.5" y="267"/><a href="mapping.html#imaging_measurement_group" target="_top" title="mapping.html#imaging_measurement_group" xlink:actuate="onRequest" xlink:href="mapping.html#imaging_measurement_group" xlink:show="new" xlink:title="mapping.html#imaging_measurement_group" xlink:type="simple"><text fill="#0000FF" font-family="sans-serif" font-size="14" lengthAdjust="spacing" text-decoration="underline" textLength="248" x="951.5" y="291.5332">Imaging Measurements Group Mapping</text></a></g><!--entity imagingMeasurementMapping--><g id="elem_imagingMeasurementMapping"><rect fill="#F1F1F1" height="37.6094" rx="2.5" ry="2.5" style="stroke:#181818;stroke-width:0.5;" width="217" x="967" y="340"/><a href="mapping.html#imaging_measurement" target="_top" title="mapping.html#imaging_measurement" xlink:actuate="onRequest" xlink:href="mapping.html#imaging_measurement" xlink:show="new" xlink:title="mapping.html#imaging_measurement" xlink:type="simple"><text fill="#0000FF" font-family="sans-serif" font-size="14" lengthAdjust="spacing" text-decoration="underline" textLength="197" x="977" y="364.5332">Imaging Measurement Mapping</text></a></g><!--entity qualitativeEvaluationMapping--><g id="elem_qualitativeEvaluationMapping"><rect fill="#F1F1F1" height="37.6094" rx="2.5" ry="2.5" style="stroke:#181818;stroke-width:0.5;" width="215" x="968" y="668"/><a href="mapping.html#qualitative_evaluation" target="_top" title="mapping.html#qualitative_evaluation" xlink:actuate="onRequest" xlink:href="mapping.html#qualitative_evaluation" xlink:show="new" xlink:title="mapping.html#qualitative_evaluation" xlink:type="simple"><text fill="#0000FF" font-family="sans-serif" font-size="14" lengthAdjust="spacing" text-decoration="underline" textLength="195" x="978" y="692.5332">Qualitative Evaluation Mapping</text></a></g><!--entity derivedImagingMeasurementsMapping--><g id="elem_derivedImagingMeasurementsMapping"><rect fill="#F1F1F1" height="37.6094" rx="2.5" ry="2.5" style="stroke:#181818;stroke-width:0.5;" width="277" x="937" y="590"/><a href="mapping.html#derived_imaging_measurements" target="_top" title="mapping.html#derived_imaging_measurements" xlink:actuate="onRequest" xlink:href="mapping.html#derived_imaging_measurements" xlink:show="new" xlink:title="mapping.html#derived_imaging_measurements" xlink:type="simple"><text fill="#0000FF" font-family="sans-serif" font-size="14" lengthAdjust="spacing" text-decoration="underline" textLength="257" x="947" y="614.5332">Derived Imaging Measurements Mapping</text></a></g><!--link measurementReport to measurementReportInstanceMapping--><g id="link_measurementReport_measurementReportInstanceMapping"><path codeLine="31" d="M559.1957,33.3012 C560.216,33.2986 561.2374,33.296 562.2599,33.2934 C564.3049,33.2882 566.3546,33.283 568.4085,33.2778 C572.5164,33.2674 576.6414,33.257 580.7818,33.2465 C589.0625,33.2256 597.4043,33.2044 605.7914,33.1832 C639.3396,33.0983 673.6123,33.0116 707.5997,32.9256 C775.5744,32.7538 842.4075,32.585 900.02,32.44 " fill="none" id="measurementReport-to-measurementReportInstanceMapping" style="stroke:#181818;stroke-width:1.0;"/><polygon fill="#181818" points="905.1,32.43,896.0886,28.4557,900.1,32.4443,896.1115,36.4557,905.1,32.43" style="stroke:#181818;stroke-width:1.0;"/><text fill="#000000" font-family="sans-serif" font-size="13" lengthAdjust="spacing" textLength="271" x="593.5" y="29.4951">Map contents of Measurement Report Instance</text></g><!--link documentIE to documentIEMapping--><g id="link_documentIE_documentIEMapping"><path codeLine="32" d="M520.2772,102.8995 C521.4082,102.9038 522.5413,102.9081 523.6764,102.9124 C528.2168,102.9295 532.7895,102.9469 537.3916,102.9643 C546.5957,102.9991 555.9173,103.0344 565.3325,103.07 C715.975,103.64 890.565,104.3 991.21,104.68 " fill="none" id="documentIE-to-documentIEMapping" style="stroke:#181818;stroke-width:1.0;"/><polygon fill="#181818" points="996.49,104.7,987.513,100.6486,991.4901,104.6714,987.4673,108.6485,996.49,104.7" style="stroke:#181818;stroke-width:1.0;"/><text fill="#000000" font-family="sans-serif" font-size="13" lengthAdjust="spacing" textLength="172" x="643" y="100.4951">Map contents of Document IE</text></g><!--link imagingMeasurementsContainer to imagingMeasurementsContainerMapping--><g id="link_imagingMeasurementsContainer_imagingMeasurementsContainerMapping"><path codeLine="33" d="M457.5408,213.7815 C459.4085,213.7792 461.2858,213.7768 463.1725,213.7744 C466.9459,213.7697 470.757,213.7649 474.6035,213.7601 C489.9895,213.7407 505.9423,213.7206 522.3213,213.7 C653.3525,213.535 811.65,213.335 925.1,213.19 " fill="none" id="imagingMeasurementsContainer-to-imagingMeasurementsContainerMapping" style="stroke:#181818;stroke-width:1.0;"/><polygon fill="#181818" points="930.43,213.18,921.4186,209.2057,925.43,213.1943,921.4415,217.2057,930.43,213.18" style="stroke:#181818;stroke-width:1.0;"/><text fill="#000000" font-family="sans-serif" font-size="13" lengthAdjust="spacing" textLength="291" x="583.5" y="210.4951">Map contents of Imaging Measurements Container</text></g><!--link measurementsGroup to imagingMeasurementGroupMapping--><g id="link_measurementsGroup_imagingMeasurementGroupMapping"><path codeLine="34" d="M403.1067,282.6097 C406.4365,282.6266 409.8181,282.6437 413.249,282.6611 C420.1109,282.6958 427.1704,282.7315 434.4091,282.7682 C463.3638,282.9147 495.1853,283.0756 528.6913,283.245 C662.715,283.9225 823.69,284.735 935.95,285.3 " fill="none" id="measurementsGroup-to-imagingMeasurementGroupMapping" style="stroke:#181818;stroke-width:1.0;"/><polygon fill="#181818" points="941.22,285.33,932.243,281.2786,936.2201,285.3014,932.1973,289.2785,941.22,285.33" style="stroke:#181818;stroke-width:1.0;"/><text fill="#000000" font-family="sans-serif" font-size="13" lengthAdjust="spacing" textLength="222" x="618" y="280.4951">Map contents of Measurements Group</text></g><!--link numericalMeasurement to imagingMeasurementMapping--><g id="link_numericalMeasurement_imagingMeasurementMapping"><path codeLine="35" d="M377.69,338.75 C524.12,343.01 804.96,351.17 961.69,355.72 " fill="none" id="numericalMeasurement-to-imagingMeasurementMapping" style="stroke:#181818;stroke-width:1.0;"/><polygon fill="#181818" points="966.75,355.87,957.8679,351.6146,961.752,355.7272,957.6394,359.6113,966.75,355.87" style="stroke:#181818;stroke-width:1.0;"/><text fill="#000000" font-family="sans-serif" font-size="13" lengthAdjust="spacing" textLength="225" x="616.5" y="341.4951">Map contents of Imaging Measurement</text></g><!--link measurementGroupQualitativeEvaluation to qualitativeEvaluationMapping--><g id="link_measurementGroupQualitativeEvaluation_qualitativeEvaluationMapping"><path codeLine="36" d="M370.02,406.42 C516.74,404.02 804.36,408.25 875.5,475 C931.45,527.5 853.15,588.91 905.5,645 C920.75,661.34 941.28,671.74 962.77,678.27 " fill="none" id="measurementGroupQualitativeEvaluation-to-qualitativeEvaluationMapping" style="stroke:#181818;stroke-width:1.0;"/><polygon fill="#181818" points="967.66,679.69,960.1226,673.3507,962.8562,678.3032,957.9037,681.0368,967.66,679.69" style="stroke:#181818;stroke-width:1.0;"/><text fill="#000000" font-family="sans-serif" font-size="13" lengthAdjust="spacing" textLength="220" x="619" y="407.4951">Map contents of Qualitative Evaluation</text></g><!--link derivedImagingMeasurements to derivedImagingMeasurementsMapping--><g id="link_derivedImagingMeasurements_derivedImagingMeasurementsMapping"><path codeLine="37" d="M416.8789,609 C418.6001,609 420.3333,609 422.0782,609 C425.5679,609 429.1046,609 432.6857,609 C461.3351,609 492.8366,609 526.0313,609 C658.81,609 818.68,609 931.47,609 " fill="none" id="derivedImagingMeasurements-to-derivedImagingMeasurementsMapping" style="stroke:#181818;stroke-width:1.0;"/><polygon fill="#181818" points="936.76,609,927.76,605,931.76,609,927.76,613,936.76,609" style="stroke:#181818;stroke-width:1.0;"/><text fill="#000000" font-family="sans-serif" font-size="13" lengthAdjust="spacing" textLength="278" x="590" y="605.4951">Map contents of Derived Imaging Measurements</text></g><!--link derivedMeasurementsGroup to imagingMeasurementGroupMapping--><g id="link_derivedMeasurementsGroup_imagingMeasurementGroupMapping"><path codeLine="38" d="M370.27,558.88 C517.03,563.44 804.22,563.31 875.5,497 C933.28,443.25 850.83,378.91 905.5,322 C914.4,312.74 925.05,305.57 936.61,300.05 " fill="none" id="derivedMeasurementsGroup-to-imagingMeasurementGroupMapping" style="stroke:#181818;stroke-width:1.0;"/><polygon fill="#181818" points="941.27,297.93,931.4216,298.0244,936.7206,300.0044,934.7406,305.3034,941.27,297.93" style="stroke:#181818;stroke-width:1.0;"/><text fill="#000000" font-family="sans-serif" font-size="13" lengthAdjust="spacing" textLength="222" x="618" y="493.4951">Map contents of Measurements Group</text></g><!--link qualitativeEvaluation to qualitativeEvaluationMapping--><g id="link_qualitativeEvaluation_qualitativeEvaluationMapping"><path codeLine="39" d="M370.35,702.12 C514.82,699.02 803.36,692.82 962.57,689.4 " fill="none" id="qualitativeEvaluation-to-qualitativeEvaluationMapping" style="stroke:#181818;stroke-width:1.0;"/><polygon fill="#181818" points="967.71,689.29,958.6209,685.4967,962.7113,689.4043,958.8038,693.4946,967.71,689.29" style="stroke:#181818;stroke-width:1.0;"/><text fill="#000000" font-family="sans-serif" font-size="13" lengthAdjust="spacing" textLength="220" x="619" y="687.4951">Map contents of Qualitative Evaluation</text></g><!--SRC=[jLMnRjim5Dpv5G_E5Y16vWnT4gFGu1QDno0GM9bHs52aJ55kYiB_NegaB5gYICTeD5dqyUxvtZk_veto6ajSGI6gMd32rKRzOGGaAHJc9IC8CoP-L_ITyX8nyg902P2qV5MmfHsA2evgNBpXai3Y8Rl_leRD8wm9Rbf9Aaq8ZwGMKYq0Dr0Dn_OK_YBGpq0WYjPSobRcmjQzPok7F45heNl1LOVVa5rBU47ChKQwu_xKktn2a5Mur3_CBxSnb9Xo8WqNjH0VSGICQ4-eRvVBwrFUhrAqzTY6nfm6YBf7_Fob7NPStxGHaXQO-Qo6ZlVVU5-a-Nwqc5655TqJMEqnQt7Not5zfZmFEY0d2eU46G-wo3tPGiXqssmBoAQEd-FFZDUET3ss_2FbXwsoHUz2tfnLSAG1kmiC7zxifmCw87ICDIoUdYfSrzhOvQkgs5KZSyeR7NATZaXi8Uj1Qtlx-JcSv1xdO77bFjRWvNqaC2G_pUWoclkvoejZIkCf7-d6ydvH9Nbf4XuimeO_LO11NQGTKatAfPMyySp9SJvd1dga5npjjAIBSHvgTVIVPJnMi_ynVGrekgHkRhua1_wk4uB2xfq6n4iiJCZRQntvPDYdR5vIK7GdTNnd3F5K8HuJD5rQOIL_MgEckF57eVKrm_sHsj5PMym8nMPogXKUSnJPNgR5gS4Bj3morcXkh_slhkm-rwr_]--></g></svg>