<?xml version="1.0" encoding="UTF-8" standalone="no"?><svg xmlns="http://www.w3.org/2000/svg" xmlns:xlink="http://www.w3.org/1999/xlink" contentStyleType="text/css" height="371px" preserveAspectRatio="none" style="width:1067px;height:371px;background:#FFFFFF;" version="1.1" viewBox="0 0 1067 371" width="1067px" zoomAndPan="magnify"><defs/><g><!--MD5=[48464ec1e048da07a8f73c06b516feb6]
cluster Document IE--><g id="cluster_Document IE"><path d="M8.5,132.5 L97.5,132.5 A3.75,3.75 0 0 1 100,135 L107,156.1094 L309.5,156.1094 A2.5,2.5 0 0 1 312,158.6094 L312,362 A2.5,2.5 0 0 1 309.5,364.5 L8.5,364.5 A2.5,2.5 0 0 1 6,362 L6,135 A2.5,2.5 0 0 1 8.5,132.5 " fill="none" style="stroke:#000000;stroke-width:1.5;"/><line style="stroke:#000000;stroke-width:1.5;" x1="6" x2="107" y1="156.1094" y2="156.1094"/><text fill="#000000" font-family="sans-serif" font-size="14" font-weight="bold" lengthAdjust="spacing" textLength="88" x="10" y="149.0332">Document IE</text></g><!--MD5=[94ac58a734b8040d00703f4c36e8944a]
cluster srContentSequence--><g id="cluster_srContentSequence"><path d="M32.5,250.5 L187.5,250.5 A3.75,3.75 0 0 1 190,253 L197,274.1094 L285.5,274.1094 A2.5,2.5 0 0 1 288,276.6094 L288,338 A2.5,2.5 0 0 1 285.5,340.5 L32.5,340.5 A2.5,2.5 0 0 1 30,338 L30,253 A2.5,2.5 0 0 1 32.5,250.5 " fill="none" style="stroke:#000000;stroke-width:1.5;"/><line style="stroke:#000000;stroke-width:1.5;" x1="30" x2="197" y1="274.1094" y2="274.1094"/><text fill="#000000" font-family="sans-serif" font-size="14" font-weight="bold" lengthAdjust="spacing" textLength="154" x="34" y="267.0332">SR Content Sequence</text></g><g id="elem_documentGeneralModule"><rect fill="#F1F1F1" height="64.8281" style="stroke:#181818;stroke-width:0.5;" width="173" x="72.5" y="169"/><text fill="#000000" font-family="sans-serif" font-size="14" lengthAdjust="spacing" textLength="159" x="79.5" y="185.5332">documentGeneralModule</text><line style="stroke:#181818;stroke-width:0.5;" x1="73.5" x2="244.5" y1="190.6094" y2="190.6094"/><text fill="#000000" font-family="sans-serif" font-size="14" lengthAdjust="spacing" textLength="98" x="78.5" y="209.1426">PreliminaryFlag</text><text fill="#000000" font-family="sans-serif" font-size="14" lengthAdjust="spacing" textLength="131" x="78.5" y="226.752">ParticipantSequence</text></g><g id="elem_imagingMeasurements"><rect fill="#F1F1F1" height="37.6094" style="stroke:#181818;stroke-width:0.5;" width="226" x="46" y="286.5"/><text fill="#000000" font-family="sans-serif" font-size="14" lengthAdjust="spacing" textLength="212" x="53" y="303.0332">Imaging Measurements Container</text><line style="stroke:#181818;stroke-width:0.5;" x1="47" x2="271" y1="308.1094" y2="308.1094"/></g><g id="elem_inputs"><rect fill="#F1F1F1" height="108.0469" style="stroke:#181818;stroke-width:0.5;" width="188" x="65" y="7"/><text fill="#000000" font-family="sans-serif" font-size="14" lengthAdjust="spacing" textLength="38" x="140" y="23.5332">inputs</text><line style="stroke:#181818;stroke-width:1.0;" x1="65" x2="253" y1="28.6094" y2="28.6094"/><text fill="#000000" font-family="sans-serif" font-size="14" lengthAdjust="spacing" textLength="45" x="76.5" y="45.1426">subject</text><text fill="#000000" font-family="sans-serif" font-size="14" lengthAdjust="spacing" textLength="44" x="138" y="45.1426">Patient</text><line style="stroke:#181818;stroke-width:1.0;" x1="133" x2="133" y1="28.6094" y2="50.2188"/><line style="stroke:#181818;stroke-width:1.0;" x1="65" x2="253" y1="50.2188" y2="50.2188"/><text fill="#000000" font-family="sans-serif" font-size="14" lengthAdjust="spacing" textLength="40" x="79" y="66.752">partOf</text><text fill="#000000" font-family="sans-serif" font-size="14" lengthAdjust="spacing" textLength="85" x="138" y="66.752">ImagingStudy</text><line style="stroke:#181818;stroke-width:1.0;" x1="133" x2="133" y1="50.2188" y2="71.8281"/><line style="stroke:#181818;stroke-width:1.0;" x1="65" x2="253" y1="71.8281" y2="71.8281"/><text fill="#000000" font-family="sans-serif" font-size="14" lengthAdjust="spacing" textLength="58" x="70" y="88.3613">basedOn</text><text fill="#000000" font-family="sans-serif" font-size="14" lengthAdjust="spacing" textLength="100" x="138" y="88.3613">ServiceRequest</text><line style="stroke:#181818;stroke-width:1.0;" x1="133" x2="133" y1="71.8281" y2="93.4375"/><line style="stroke:#181818;stroke-width:1.0;" x1="65" x2="253" y1="93.4375" y2="93.4375"/><text fill="#000000" font-family="sans-serif" font-size="14" lengthAdjust="spacing" textLength="41" x="78.5" y="109.9707">device</text><text fill="#000000" font-family="sans-serif" font-size="14" lengthAdjust="spacing" textLength="110" x="138" y="109.9707">EquipmentDevice</text><line style="stroke:#181818;stroke-width:1.0;" x1="133" x2="133" y1="93.4375" y2="115.0469"/></g><g id="elem_imagingMeasurementsMapping"><rect fill="#F1F1F1" height="151.2656" style="stroke:#181818;stroke-width:0.5;" width="401" x="659" y="128"/><text fill="#000000" font-family="sans-serif" font-size="14" lengthAdjust="spacing" textLength="196" x="761.5" y="144.5332">imagingMeasurementsMapping</text><line style="stroke:#181818;stroke-width:1.0;" x1="659" x2="1060" y1="149.6094" y2="149.6094"/><text fill="#000000" font-family="sans-serif" font-size="14" lengthAdjust="spacing" textLength="45" x="672.5" y="166.1426">subject</text><text fill="#000000" font-family="sans-serif" font-size="14" lengthAdjust="spacing" textLength="44" x="736" y="166.1426">Patient</text><line style="stroke:#181818;stroke-width:1.0;" x1="731" x2="731" y1="149.6094" y2="171.2188"/><line style="stroke:#181818;stroke-width:1.0;" x1="659" x2="1060" y1="171.2188" y2="171.2188"/><text fill="#000000" font-family="sans-serif" font-size="14" lengthAdjust="spacing" textLength="40" x="675" y="187.752">partOf</text><text fill="#000000" font-family="sans-serif" font-size="14" lengthAdjust="spacing" textLength="85" x="736" y="187.752">ImagingStudy</text><line style="stroke:#181818;stroke-width:1.0;" x1="731" x2="731" y1="171.2188" y2="192.8281"/><line style="stroke:#181818;stroke-width:1.0;" x1="659" x2="1060" y1="192.8281" y2="192.8281"/><text fill="#000000" font-family="sans-serif" font-size="14" lengthAdjust="spacing" textLength="58" x="666" y="209.3613">basedOn</text><text fill="#000000" font-family="sans-serif" font-size="14" lengthAdjust="spacing" textLength="100" x="736" y="209.3613">ServiceRequest</text><line style="stroke:#181818;stroke-width:1.0;" x1="731" x2="731" y1="192.8281" y2="214.4375"/><line style="stroke:#181818;stroke-width:1.0;" x1="659" x2="1060" y1="214.4375" y2="214.4375"/><text fill="#000000" font-family="sans-serif" font-size="14" lengthAdjust="spacing" textLength="41" x="674.5" y="230.9707">device</text><text fill="#000000" font-family="sans-serif" font-size="14" lengthAdjust="spacing" textLength="319" x="736" y="230.9707">EquipmentDevice or ParticipantSequence (Device)</text><line style="stroke:#181818;stroke-width:1.0;" x1="731" x2="731" y1="214.4375" y2="236.0469"/><line style="stroke:#181818;stroke-width:1.0;" x1="659" x2="1060" y1="236.0469" y2="236.0469"/><text fill="#000000" font-family="sans-serif" font-size="14" lengthAdjust="spacing" textLength="62" x="664" y="252.5801">performer</text><text fill="#000000" font-family="sans-serif" font-size="14" lengthAdjust="spacing" textLength="187" x="736" y="252.5801">ParticpantSequence (Person)</text><line style="stroke:#181818;stroke-width:1.0;" x1="731" x2="731" y1="236.0469" y2="257.6563"/><line style="stroke:#181818;stroke-width:1.0;" x1="659" x2="1060" y1="257.6563" y2="257.6563"/><text fill="#000000" font-family="sans-serif" font-size="14" lengthAdjust="spacing" textLength="38" x="676" y="274.1895">stauts</text><text fill="#000000" font-family="sans-serif" font-size="14" lengthAdjust="spacing" textLength="98" x="736" y="274.1895">PreliminaryFlag</text><line style="stroke:#181818;stroke-width:1.0;" x1="731" x2="731" y1="257.6563" y2="279.2656"/></g><!--MD5=[479d4e5dcf1e9b94f62fc88cb37458df]
link imagingMeasurements to imagingMeasurementsMapping--><g id="link_imagingMeasurements_imagingMeasurementsMapping"><path codeLine="29" d="M272.34,289.45 C288.34,287.13 304.59,284.77 320,282.5 C427.39,266.7 546.77,248.79 645.78,233.82 " fill="none" id="imagingMeasurements-to-imagingMeasurementsMapping" style="stroke:#181818;stroke-width:1.0;"/><polygon fill="#181818" points="650.78,233.07,641.2855,230.452,645.8355,233.8131,642.4744,238.3632,650.78,233.07" style="stroke:#181818;stroke-width:1.0;"/><text fill="#000000" font-family="sans-serif" font-size="13" lengthAdjust="spacing" textLength="291" x="329" y="235.9951">Map contents of Imaging Measurements Container</text></g><!--MD5=[b942aa65918da383b05e617f648da6ab]
link inputs to imagingMeasurementsMapping--><g id="link_inputs_imagingMeasurementsMapping"><path codeLine="30" d="M261.19,80.07 C361.52,100.47 518.28,132.33 646.03,158.31 " fill="none" id="inputs-to-imagingMeasurementsMapping" style="stroke:#181818;stroke-width:1.0;"/><polygon fill="#181818" points="650.95,159.31,642.9316,153.5911,646.051,158.3102,641.3319,161.4296,650.95,159.31" style="stroke:#181818;stroke-width:1.0;"/></g><!--MD5=[d78ab5bda0c4f5ae11a21e3e06c3e807]
link documentGeneralModule to imagingMeasurementsMapping--><g id="link_documentGeneralModule_imagingMeasurementsMapping"><path codeLine="31" d="M245.65,201.5 C344.65,201.5 511.21,201.5 645.72,201.5 " fill="none" id="documentGeneralModule-to-imagingMeasurementsMapping" style="stroke:#181818;stroke-width:1.0;"/><polygon fill="#181818" points="650.89,201.5,641.89,197.5,645.89,201.5,641.89,205.5,650.89,201.5" style="stroke:#181818;stroke-width:1.0;"/></g><!--MD5=[97f91ee67b2563187b95bbf82872346c]
@startuml dicom_sr_document_ie_mapping
left to right direction

    map inputs {
        subject => Patient
        partOf => ImagingStudy
        basedOn => ServiceRequest
        device => EquipmentDevice
    }

package "Document IE" {
    object documentGeneralModule {
        PreliminaryFlag
        ParticipantSequence
    }
    package "SR Content Sequence" as srContentSequence {
        object "Imaging Measurements Container" as imagingMeasurements
    }
}

map imagingMeasurementsMapping {
    subject => Patient
    partOf => ImagingStudy
    basedOn => ServiceRequest
    device => EquipmentDevice or ParticipantSequence (Device)
    performer => ParticpantSequence (Person)
    stauts => PreliminaryFlag
}

imagingMeasurements - -> imagingMeasurementsMapping: Map contents of Imaging Measurements Container
inputs - -> imagingMeasurementsMapping
documentGeneralModule - -> imagingMeasurementsMapping
@enduml

PlantUML version 1.2022.7(Mon Aug 22 13:01:30 EDT 2022)
(GPL source distribution)
Java Runtime: Java(TM) SE Runtime Environment
JVM: Java HotSpot(TM) 64-Bit Server VM
Default Encoding: Cp1252
Language: en
Country: US
--></g></svg>