<?xml version="1.0" encoding="us-ascii" standalone="no"?><svg xmlns="http://www.w3.org/2000/svg" xmlns:xlink="http://www.w3.org/1999/xlink" contentStyleType="text/css" height="882px" preserveAspectRatio="none" style="width:1245px;height:882px;background:#FFFFFF;" version="1.1" viewBox="0 0 1245 882" width="1245px" zoomAndPan="magnify"><defs/><g><!--cluster measurementReport--><g id="cluster_measurementReport"><path d="M8.5,6 L233.5,6 A3.75,3.75 0 0 1 236,8.5 L243,29.6094 L556.5,29.6094 A2.5,2.5 0 0 1 559,32.1094 L559,872.5 A2.5,2.5 0 0 1 556.5,875 L8.5,875 A2.5,2.5 0 0 1 6,872.5 L6,8.5 A2.5,2.5 0 0 1 8.5,6 " fill="none" style="stroke:#000000;stroke-width:1.5;"/><line style="stroke:#000000;stroke-width:1.5;" x1="6" x2="243" y1="29.6094" y2="29.6094"/><text fill="#000000" font-family="sans-serif" font-size="14" font-weight="bold" lengthAdjust="spacing" textLength="224" x="10" y="22.5332">DICOM SR Measurement Report</text></g><!--cluster documentIE--><g id="cluster_documentIE"><path d="M48.5,74 L137.5,74 A3.75,3.75 0 0 1 140,76.5 L147,97.6094 L516.5,97.6094 A2.5,2.5 0 0 1 519,100.1094 L519,832.5 A2.5,2.5 0 0 1 516.5,835 L48.5,835 A2.5,2.5 0 0 1 46,832.5 L46,76.5 A2.5,2.5 0 0 1 48.5,74 " fill="none" style="stroke:#000000;stroke-width:1.5;"/><line style="stroke:#000000;stroke-width:1.5;" x1="46" x2="147" y1="97.6094" y2="97.6094"/><text fill="#000000" font-family="sans-serif" font-size="14" font-weight="bold" lengthAdjust="spacing" textLength="88" x="50" y="90.5332">Document IE</text></g><!--cluster srContentSequence--><g id="cluster_srContentSequence"><path d="M80.5,134 L235.5,134 A3.75,3.75 0 0 1 238,136.5 L245,157.6094 L484.5,157.6094 A2.5,2.5 0 0 1 487,160.1094 L487,800.5 A2.5,2.5 0 0 1 484.5,803 L80.5,803 A2.5,2.5 0 0 1 78,800.5 L78,136.5 A2.5,2.5 0 0 1 80.5,134 " fill="none" style="stroke:#000000;stroke-width:1.5;"/><line style="stroke:#000000;stroke-width:1.5;" x1="78" x2="245" y1="157.6094" y2="157.6094"/><text fill="#000000" font-family="sans-serif" font-size="14" font-weight="bold" lengthAdjust="spacing" textLength="154" x="82" y="150.5332">SR Content Sequence</text></g><!--cluster imagingMeasurementsContainer--><g id="cluster_imagingMeasurementsContainer"><path d="M112.5,186 L350.5,186 A3.75,3.75 0 0 1 353,188.5 L360,209.6094 L452.5,209.6094 A2.5,2.5 0 0 1 455,212.1094 L455,768.5 A2.5,2.5 0 0 1 452.5,771 L112.5,771 A2.5,2.5 0 0 1 110,768.5 L110,188.5 A2.5,2.5 0 0 1 112.5,186 " fill="none" style="stroke:#000000;stroke-width:1.5;"/><line style="stroke:#000000;stroke-width:1.5;" x1="110" x2="360" y1="209.6094" y2="209.6094"/><text fill="#000000" font-family="sans-serif" font-size="14" font-weight="bold" lengthAdjust="spacing" textLength="237" x="114" y="202.5332">Imaging Measurements Container</text></g><!--cluster measurementsGroup--><g id="cluster_measurementsGroup"><path d="M165,254 L344,254 A3.75,3.75 0 0 1 346.5,256.5 L353.5,277.6094 L399,277.6094 A2.5,2.5 0 0 1 401.5,280.1094 L401.5,449.5 A2.5,2.5 0 0 1 399,452 L165,452 A2.5,2.5 0 0 1 162.5,449.5 L162.5,256.5 A2.5,2.5 0 0 1 165,254 " fill="none" style="stroke:#000000;stroke-width:1.5;"/><line style="stroke:#000000;stroke-width:1.5;" x1="162.5" x2="353.5" y1="277.6094" y2="277.6094"/><text fill="#000000" font-family="sans-serif" font-size="14" font-weight="bold" lengthAdjust="spacing" textLength="178" x="166.5" y="270.5332">0..* Measurements Group</text></g><!--cluster derivedImagingMeasurements--><g id="cluster_derivedImagingMeasurements"><path d="M152.5,492 L402.5,492 A3.75,3.75 0 0 1 405,494.5 L412,515.6094 L412.5,515.6094 A2.5,2.5 0 0 1 415,518.1094 L415,614.5 A2.5,2.5 0 0 1 412.5,617 L152.5,617 A2.5,2.5 0 0 1 150,614.5 L150,494.5 A2.5,2.5 0 0 1 152.5,492 " fill="none" style="stroke:#000000;stroke-width:1.5;"/><line style="stroke:#000000;stroke-width:1.5;" x1="150" x2="412" y1="515.6094" y2="515.6094"/><text fill="#000000" font-family="sans-serif" font-size="14" font-weight="bold" lengthAdjust="spacing" textLength="249" x="154" y="508.5332">0..* Derived Imaging Measurements</text></g><!--cluster qualitativeEvaluations--><g id="cluster_qualitativeEvaluations"><path d="M180.5,649 L343.5,649 A3.75,3.75 0 0 1 346,651.5 L353,672.6094 L383.5,672.6094 A2.5,2.5 0 0 1 386,675.1094 L386,736.5 A2.5,2.5 0 0 1 383.5,739 L180.5,739 A2.5,2.5 0 0 1 178,736.5 L178,651.5 A2.5,2.5 0 0 1 180.5,649 " fill="none" style="stroke:#000000;stroke-width:1.5;"/><line style="stroke:#000000;stroke-width:1.5;" x1="178" x2="353" y1="672.6094" y2="672.6094"/><text fill="#000000" font-family="sans-serif" font-size="14" font-weight="bold" lengthAdjust="spacing" textLength="162" x="182" y="665.5332">Qualitative Evaluations</text></g><g id="elem_numericalMeasurement"><rect fill="#F1F1F1" height="37.6094" style="stroke:#181818;stroke-width:0.5;" width="191" x="186.5" y="317"/><text fill="#000000" font-family="sans-serif" font-size="14" lengthAdjust="spacing" textLength="177" x="193.5" y="333.5332">0..* Numerical Measurement</text><line style="stroke:#181818;stroke-width:0.5;" x1="187.5" x2="376.5" y1="338.6094" y2="338.6094"/></g><g id="elem_measurementGroupQualitativeEvaluation"><rect fill="#F1F1F1" height="37.6094" style="stroke:#181818;stroke-width:0.5;" width="176" x="194" y="390"/><text fill="#000000" font-family="sans-serif" font-size="14" lengthAdjust="spacing" textLength="162" x="201" y="406.5332">0..* Qualitative Evaluation</text><line style="stroke:#181818;stroke-width:0.5;" x1="195" x2="369" y1="411.6094" y2="411.6094"/></g><g id="elem_derivedMeasurementsGroup"><rect fill="#F1F1F1" height="37.6094" style="stroke:#181818;stroke-width:0.5;" width="176" x="194" y="536"/><text fill="#000000" font-family="sans-serif" font-size="14" lengthAdjust="spacing" textLength="162" x="201" y="552.5332">0..* Measurements Group</text><line style="stroke:#181818;stroke-width:0.5;" x1="195" x2="369" y1="557.6094" y2="557.6094"/></g><g id="elem_qualitativeEvaluation"><rect fill="#F1F1F1" height="37.6094" style="stroke:#181818;stroke-width:0.5;" width="176" x="194" y="685"/><text fill="#000000" font-family="sans-serif" font-size="14" lengthAdjust="spacing" textLength="162" x="201" y="701.5332">0..* Qualitative Evaluation</text><line style="stroke:#181818;stroke-width:0.5;" x1="195" x2="369" y1="706.6094" y2="706.6094"/></g><g id="elem_measurementReportInstanceMapping"><rect fill="#F1F1F1" height="37.6094" style="stroke:#181818;stroke-width:0.5;" width="334" x="905.5" y="13"/><text fill="#000000" font-family="sans-serif" font-size="14" lengthAdjust="spacing" textLength="320" x="912.5" y="29.5332">DICOM SR Measurement Report Instance Mapping</text><line style="stroke:#181818;stroke-width:0.5;" x1="906.5" x2="1238.5" y1="34.6094" y2="34.6094"/></g><g id="elem_documentIEMapping"><rect fill="#F1F1F1" height="37.6094" style="stroke:#181818;stroke-width:0.5;" width="152" x="996.5" y="86"/><text fill="#000000" font-family="sans-serif" font-size="14" lengthAdjust="spacing" textLength="138" x="1003.5" y="102.5332">Document IE Mapping</text><line style="stroke:#181818;stroke-width:0.5;" x1="997.5" x2="1147.5" y1="107.6094" y2="107.6094"/></g><g id="elem_imagingMeasurementsContainerMapping"><rect fill="#F1F1F1" height="37.6094" style="stroke:#181818;stroke-width:0.5;" width="284" x="930.5" y="194"/><text fill="#000000" font-family="sans-serif" font-size="14" lengthAdjust="spacing" textLength="270" x="937.5" y="210.5332">Imaging Measurements Container Mapping</text><line style="stroke:#181818;stroke-width:0.5;" x1="931.5" x2="1213.5" y1="215.6094" y2="215.6094"/></g><g id="elem_imagingMeasurementsGroupMapping"><rect fill="#F1F1F1" height="37.6094" style="stroke:#181818;stroke-width:0.5;" width="262" x="941.5" y="267"/><text fill="#000000" font-family="sans-serif" font-size="14" lengthAdjust="spacing" textLength="248" x="948.5" y="283.5332">Imaging Measurements Group Mapping</text><line style="stroke:#181818;stroke-width:0.5;" x1="942.5" x2="1202.5" y1="288.6094" y2="288.6094"/></g><g id="elem_imagingMeasurementsMapping"><rect fill="#F1F1F1" height="37.6094" style="stroke:#181818;stroke-width:0.5;" width="218" x="963.5" y="340"/><text fill="#000000" font-family="sans-serif" font-size="14" lengthAdjust="spacing" textLength="204" x="970.5" y="356.5332">Imaging Measurements Mapping</text><line style="stroke:#181818;stroke-width:0.5;" x1="964.5" x2="1180.5" y1="361.6094" y2="361.6094"/></g><g id="elem_qualitativeEvaluationsMapping"><rect fill="#F1F1F1" height="37.6094" style="stroke:#181818;stroke-width:0.5;" width="216" x="964.5" y="668"/><text fill="#000000" font-family="sans-serif" font-size="14" lengthAdjust="spacing" textLength="202" x="971.5" y="684.5332">Qualitative Evaluations Mapping</text><line style="stroke:#181818;stroke-width:0.5;" x1="965.5" x2="1179.5" y1="689.6094" y2="689.6094"/></g><g id="elem_derivedImagingMeasurementsMapping"><rect fill="#F1F1F1" height="37.6094" style="stroke:#181818;stroke-width:0.5;" width="271" x="937" y="590"/><text fill="#000000" font-family="sans-serif" font-size="14" lengthAdjust="spacing" textLength="257" x="944" y="606.5332">Derived Imaging Measurements Mapping</text><line style="stroke:#181818;stroke-width:0.5;" x1="938" x2="1207" y1="611.6094" y2="611.6094"/></g><!--link measurementReport to measurementReportInstanceMapping--><g id="link_measurementReport_measurementReportInstanceMapping"><path codeLine="29" d="M559.6949,33.2994 C560.716,33.2968 561.7382,33.2942 562.7616,33.2916 C564.8083,33.2864 566.8595,33.2811 568.915,33.2759 C573.026,33.2655 577.154,33.255 581.2971,33.2444 C589.5832,33.2233 597.9295,33.2021 606.3202,33.1808 C639.8828,33.0954 674.1545,33.008 708.1186,32.9214 C776.0469,32.7481 842.745,32.5775 900.08,32.43 " fill="none" id="measurementReport-to-measurementReportInstanceMapping" style="stroke:#181818;stroke-width:1.0;"/><polygon fill="#181818" points="905.13,32.42,896.1186,28.4457,900.13,32.4343,896.1415,36.4457,905.13,32.42" style="stroke:#181818;stroke-width:1.0;"/><text fill="#000000" font-family="sans-serif" font-size="13" lengthAdjust="spacing" textLength="271" x="593.5" y="29.4951">Map contents of Measurement Report Instance</text></g><!--link documentIE to documentIEMapping--><g id="link_documentIE_documentIEMapping"><path codeLine="30" d="M521.0305,102.9071 C522.164,102.9114 523.2996,102.9157 524.4372,102.92 C528.9875,102.9373 533.57,102.9548 538.1816,102.9723 C547.4047,103.0074 556.7443,103.0429 566.1763,103.0788 C717.0875,103.6525 891.64,104.315 991.06,104.69 " fill="none" id="documentIE-to-documentIEMapping" style="stroke:#181818;stroke-width:1.0;"/><polygon fill="#181818" points="996.28,104.71,987.303,100.6586,991.2801,104.6814,987.2573,108.6585,996.28,104.71" style="stroke:#181818;stroke-width:1.0;"/><text fill="#000000" font-family="sans-serif" font-size="13" lengthAdjust="spacing" textLength="172" x="643" y="100.4951">Map contents of Document IE</text></g><!--link imagingMeasurementsContainer to imagingMeasurementsContainerMapping--><g id="link_imagingMeasurementsContainer_imagingMeasurementsContainerMapping"><path codeLine="31" d="M455.0737,213.7821 C456.004,213.7809 456.9367,213.7797 457.8718,213.7785 C459.742,213.7761 461.6219,213.7737 463.5112,213.7714 C467.2898,213.7666 471.1059,213.7617 474.9574,213.7568 C490.3632,213.7373 506.3342,213.717 522.7288,213.6963 C653.885,213.53 812.145,213.33 924.94,213.19 " fill="none" id="imagingMeasurementsContainer-to-imagingMeasurementsContainerMapping" style="stroke:#181818;stroke-width:1.0;"/><polygon fill="#181818" points="930.24,213.18,921.2286,209.2057,925.24,213.1943,921.2515,217.2057,930.24,213.18" style="stroke:#181818;stroke-width:1.0;"/><text fill="#000000" font-family="sans-serif" font-size="13" lengthAdjust="spacing" textLength="291" x="583.5" y="210.4951">Map contents of Imaging Measurements Container</text></g><!--link measurementsGroup to imagingMeasurementsGroupMapping--><g id="link_measurementsGroup_imagingMeasurementsGroupMapping"><path codeLine="32" d="M403.482,282.6122 C406.821,282.6292 410.2117,282.6464 413.6518,282.6638 C420.532,282.6987 427.6099,282.7346 434.8668,282.7713 C463.8945,282.9184 495.7866,283.08 529.3513,283.25 C663.61,283.93 824.63,284.745 936.13,285.31 " fill="none" id="measurementsGroup-to-imagingMeasurementsGroupMapping" style="stroke:#181818;stroke-width:1.0;"/><polygon fill="#181818" points="941.36,285.34,932.3715,281.3143,936.36,285.3257,932.3486,289.3143,941.36,285.34" style="stroke:#181818;stroke-width:1.0;"/><text fill="#000000" font-family="sans-serif" font-size="13" lengthAdjust="spacing" textLength="222" x="618" y="280.4951">Map contents of Measurements Group</text></g><!--link numericalMeasurement to imagingMeasurementsMapping--><g id="link_numericalMeasurement_imagingMeasurementsMapping"><path codeLine="33" d="M377.72,338.76 C523.45,343.01 802.11,351.14 958.27,355.7 " fill="none" id="numericalMeasurement-to-imagingMeasurementsMapping" style="stroke:#181818;stroke-width:1.0;"/><polygon fill="#181818" points="963.32,355.84,954.4379,351.5846,958.322,355.6972,954.2094,359.5813,963.32,355.84" style="stroke:#181818;stroke-width:1.0;"/><text fill="#000000" font-family="sans-serif" font-size="13" lengthAdjust="spacing" textLength="238" x="610" y="341.4951">Map contents of Numerical Measurement</text></g><!--link measurementGroupQualitativeEvaluation to qualitativeEvaluationsMapping--><g id="link_measurementGroupQualitativeEvaluation_qualitativeEvaluationsMapping"><path codeLine="34" d="M370.02,406.42 C516.74,404.02 804.36,408.25 875.5,475 C931.45,527.5 853.27,588.8 905.5,645 C919.93,660.52 939.19,670.66 959.48,677.2 " fill="none" id="measurementGroupQualitativeEvaluation-to-qualitativeEvaluationsMapping" style="stroke:#181818;stroke-width:1.0;"/><polygon fill="#181818" points="964.38,678.71,956.953,672.2417,959.6008,677.2406,954.6019,679.8884,964.38,678.71" style="stroke:#181818;stroke-width:1.0;"/><text fill="#000000" font-family="sans-serif" font-size="13" lengthAdjust="spacing" textLength="220" x="619" y="407.4951">Map contents of Qualitative Evaluation</text></g><!--link derivedImagingMeasurements to derivedImagingMeasurementsMapping--><g id="link_derivedImagingMeasurements_derivedImagingMeasurementsMapping"><path codeLine="35" d="M417.2972,609 C419.023,609 420.7608,609 422.5103,609 C426.0094,609 429.5552,609 433.1456,609 C461.8685,609 493.4416,609 526.6963,609 C659.715,609 819.64,609 931.69,609 " fill="none" id="derivedImagingMeasurements-to-derivedImagingMeasurementsMapping" style="stroke:#181818;stroke-width:1.0;"/><polygon fill="#181818" points="936.95,609,927.95,605,931.95,609,927.95,613,936.95,609" style="stroke:#181818;stroke-width:1.0;"/><text fill="#000000" font-family="sans-serif" font-size="13" lengthAdjust="spacing" textLength="278" x="590" y="605.4951">Map contents of Derived Imaging Measurements</text></g><!--link derivedMeasurementsGroup to imagingMeasurementsGroupMapping--><g id="link_derivedMeasurementsGroup_imagingMeasurementsGroupMapping"><path codeLine="36" d="M370.27,558.88 C517.03,563.44 804.22,563.31 875.5,497 C933.28,443.25 850.94,379.01 905.5,322 C914.41,312.69 925.12,305.51 936.74,300 " fill="none" id="derivedMeasurementsGroup-to-imagingMeasurementsGroupMapping" style="stroke:#181818;stroke-width:1.0;"/><polygon fill="#181818" points="941.42,297.9,931.5712,297.9456,936.8604,299.9518,934.8542,305.241,941.42,297.9" style="stroke:#181818;stroke-width:1.0;"/><text fill="#000000" font-family="sans-serif" font-size="13" lengthAdjust="spacing" textLength="222" x="618" y="493.4951">Map contents of Measurements Group</text></g><!--link qualitativeEvaluation to qualitativeEvaluationsMapping--><g id="link_qualitativeEvaluation_qualitativeEvaluationsMapping"><path codeLine="37" d="M370.02,702.12 C513.74,699.03 800.59,692.84 959.34,689.42 " fill="none" id="qualitativeEvaluation-to-qualitativeEvaluationsMapping" style="stroke:#181818;stroke-width:1.0;"/><polygon fill="#181818" points="964.46,689.31,955.3818,685.4908,959.461,689.41,955.5418,693.4892,964.46,689.31" style="stroke:#181818;stroke-width:1.0;"/><text fill="#000000" font-family="sans-serif" font-size="13" lengthAdjust="spacing" textLength="220" x="619" y="687.4951">Map contents of Qualitative Evaluation</text></g><!--SRC=[jPJ1KeCm48RlUOeTZywquzc3bxRZS437zWaYJJ5A4mYX5wVlBYH14X82Eie9mkRRdN__tOAS94WEWkPl4evKa4nIpb29im-S4xZP9fld50vxI0ck6q7EX4dOav8BUGEuXlDmh4_X4q7x302UDUfIibCNZkOxsPb89xfDjE5CTl47KZM4PKJTgeKvxa-jomuWEUESijmkjrP8J1aHYaLrY1tn7J32EkYxzVhMvJuAtfHZ6Mfr6W1r3tzzRnKshATM244pNDXKXMFz7-l7FE-bmGMLMD8BWTq55mtkUZckJvLdXGwHNeRhZ1ZRjiWBEK98TDri7P3uYY_HPq9h0qt7al-a_B1KkkWgfCsYWYCDg7uX-F2btwxeYb2VC3AOaB1Qucv8KboMhV3XIUsZJD107YRM0GoJExuH7pe74Xk-HLWzNJD85RG8DmCQCoPyus32_l5KZioEA_la3FL8v2_XrUfXjk7tNHh8z5wjWPzYLaBMtkxWdXbyckKZ5Dsv7M-1B_mCSTyXVobFPBBj4bN5s0-5zlCKV98RNFzeqQPMkQ8-yzE5hOiYArhrUSvzWRv7d8scblUVjQRwPxs-0000]--></g></svg>