<?xml version="1.0" encoding="UTF-8" standalone="no"?><svg xmlns="http://www.w3.org/2000/svg" xmlns:xlink="http://www.w3.org/1999/xlink" contentStyleType="text/css" height="396px" preserveAspectRatio="none" style="width:2397px;height:396px;background:#FFFFFF;" version="1.1" viewBox="0 0 2397 396" width="2397px" zoomAndPan="magnify"><defs/><g><!--MD5=[37f8d2e1ac809d77d56477875277c7a0]
cluster DICOM.equipment.ie--><g id="cluster_DICOM.equipment.ie"><path d="M8.5,6 L153.5,6 A3.75,3.75 0 0 1 156,8.5 L163,29.6094 L428.5,29.6094 A2.5,2.5 0 0 1 431,32.1094 L431,386.5 A2.5,2.5 0 0 1 428.5,389 L8.5,389 A2.5,2.5 0 0 1 6,386.5 L6,8.5 A2.5,2.5 0 0 1 8.5,6 " fill="#EEEEEE" style="stroke:#000000;stroke-width:1.5;"/><line style="stroke:#000000;stroke-width:1.5;" x1="6" x2="163" y1="29.6094" y2="29.6094"/><text fill="#000000" font-family="sans-serif" font-size="14" font-weight="bold" lengthAdjust="spacing" textLength="144" x="10" y="22.5332">DICOM.equipment.ie</text></g><!--MD5=[235c92d487e9a0a6932c6cf95f2b8380]
cluster DICOM.document.ie--><g id="cluster_DICOM.document.ie"><path d="M48.5,74 L188.5,74 A3.75,3.75 0 0 1 191,76.5 L198,97.6094 L388.5,97.6094 A2.5,2.5 0 0 1 391,100.1094 L391,346.5 A2.5,2.5 0 0 1 388.5,349 L48.5,349 A2.5,2.5 0 0 1 46,346.5 L46,76.5 A2.5,2.5 0 0 1 48.5,74 " fill="#EEEEEE" style="stroke:#000000;stroke-width:1.5;"/><line style="stroke:#000000;stroke-width:1.5;" x1="46" x2="198" y1="97.6094" y2="97.6094"/><text fill="#000000" font-family="sans-serif" font-size="14" font-weight="bold" lengthAdjust="spacing" textLength="139" x="50" y="90.5332">DICOM.document.ie</text></g><!--MD5=[e0204f941a3444903cfced0c56fac560]
cluster TID.1500.measurement.report--><g id="cluster_TID.1500.measurement.report"><path d="M80.5,209 L287.5,209 A3.75,3.75 0 0 1 290,211.5 L297,232.6094 L356.5,232.6094 A2.5,2.5 0 0 1 359,235.1094 L359,314.5 A2.5,2.5 0 0 1 356.5,317 L80.5,317 A2.5,2.5 0 0 1 78,314.5 L78,211.5 A2.5,2.5 0 0 1 80.5,209 " fill="#EEEEEE" style="stroke:#000000;stroke-width:1.5;"/><line style="stroke:#000000;stroke-width:1.5;" x1="78" x2="297" y1="232.6094" y2="232.6094"/><text fill="#000000" font-family="sans-serif" font-size="14" font-weight="bold" lengthAdjust="spacing" textLength="206" x="82" y="225.5332">TID.1500.measurement.report</text></g><path d="M96.5,245.5 L326.5,245.5 A3.75,3.75 0 0 1 329,248 L336,269.1094 L340.5,269.1094 A2.5,2.5 0 0 1 343,271.6094 L343,298.2188 A2.5,2.5 0 0 1 340.5,300.7188 L96.5,300.7188 A2.5,2.5 0 0 1 94,298.2188 L94,248 A2.5,2.5 0 0 1 96.5,245.5 " fill="#F1F1F1" style="stroke:#181818;stroke-width:0.5;"/><line style="stroke:#181818;stroke-width:0.5;" x1="94" x2="336" y1="269.1094" y2="269.1094"/><text fill="#000000" font-family="sans-serif" font-size="14" lengthAdjust="spacing" textLength="229" x="98" y="262.0332">CONTAINER.imaging.measurements</text><path d="M99.5,137.5 L323.5,137.5 A3.75,3.75 0 0 1 326,140 L333,161.1094 L337.5,161.1094 A2.5,2.5 0 0 1 340,163.6094 L340,190.2188 A2.5,2.5 0 0 1 337.5,192.7188 L99.5,192.7188 A2.5,2.5 0 0 1 97,190.2188 L97,140 A2.5,2.5 0 0 1 99.5,137.5 " fill="#F1F1F1" style="stroke:#181818;stroke-width:0.5;"/><line style="stroke:#181818;stroke-width:0.5;" x1="97" x2="333" y1="161.1094" y2="161.1094"/><text fill="#000000" font-family="sans-serif" font-size="14" lengthAdjust="spacing" textLength="223" x="101" y="154.0332">CONTAINER.qualitative.evaluations</text><!--MD5=[86834a223ba9a9219c98db6abda42caa]
class EquipmentDevice--><g id="elem_EquipmentDevice"><rect codeLine="3" fill="#D5E8D4" height="58.7031" id="EquipmentDevice" rx="2.5" ry="2.5" style="stroke:#008000;stroke-width:0.5;" width="116" x="2274" y="43.5"/><ellipse cx="2289" cy="64.8516" fill="#ADD1B2" rx="11" ry="11" style="stroke:#181818;stroke-width:1.0;"/><path d="M2291,61.3516 Q2291.2031,60.8516 2291.4375,60.6016 Q2291.6719,60.3516 2291.9375,60.3516 Q2292.4063,60.3516 2292.7031,60.6328 Q2293,60.9141 2293,61.5703 L2293,63.1328 Q2293,63.7891 2292.7188,64.0703 Q2292.4375,64.3516 2292,64.3516 Q2291.6094,64.3516 2291.3594,64.1797 Q2291.1094,64.0078 2291,63.5547 Q2290.9531,63.2422 2290.7813,63.0703 Q2290.4688,62.7422 2289.9063,62.5547 Q2289.3438,62.3516 2288.7813,62.3516 Q2288.0781,62.3516 2287.4844,62.6328 Q2286.9063,62.9141 2286.4531,63.5391 Q2286,64.1641 2286,65.0234 L2286,65.9453 Q2286,66.9766 2286.8438,67.6641 Q2287.6875,68.3516 2289.1875,68.3516 Q2290.0781,68.3516 2290.7031,68.1484 Q2291.0625,68.0391 2291.4688,67.6797 Q2291.7344,67.4766 2291.875,67.4141 Q2292.0156,67.3516 2292.1875,67.3516 Q2292.5156,67.3516 2292.75,67.6172 Q2293,67.8672 2293,68.2266 Q2293,68.5703 2292.6563,68.9766 Q2292.1563,69.5703 2291.3594,69.8984 Q2290.3125,70.3516 2289.0313,70.3516 Q2287.5313,70.3516 2286.3281,69.7578 Q2285.3594,69.2891 2284.6719,68.2734 Q2284,67.2578 2284,66.0547 L2284,64.9609 Q2284,63.7109 2284.5938,62.6172 Q2285.2031,61.5234 2286.25,60.9453 Q2287.3125,60.3516 2288.5,60.3516 Q2289.2188,60.3516 2289.8438,60.6016 Q2290.4688,60.8516 2291,61.3516 Z " fill="#000000"/><text fill="#000000" font-family="sans-serif" font-size="12" font-style="italic" lengthAdjust="spacing" textLength="52" x="2319" y="60.957">«Device»</text><text fill="#000000" font-family="sans-serif" font-size="14" lengthAdjust="spacing" textLength="84" x="2303" y="78.127">Manufacturer</text><line style="stroke:#008000;stroke-width:0.5;" x1="2275" x2="2389" y1="86.2031" y2="86.2031"/><line style="stroke:#008000;stroke-width:0.5;" x1="2275" x2="2389" y1="94.2031" y2="94.2031"/></g><!--MD5=[252cec93695bd628a11a050167483ba6]
class DocumentDevice--><g id="elem_DocumentDevice"><rect codeLine="4" fill="#D5E8D4" height="58.7031" id="DocumentDevice" rx="2.5" ry="2.5" style="stroke:#008000;stroke-width:0.5;" width="146" x="2000" y="113.5"/><ellipse cx="2015" cy="134.8516" fill="#ADD1B2" rx="11" ry="11" style="stroke:#181818;stroke-width:1.0;"/><path d="M2017,131.3516 Q2017.2031,130.8516 2017.4375,130.6016 Q2017.6719,130.3516 2017.9375,130.3516 Q2018.4063,130.3516 2018.7031,130.6328 Q2019,130.9141 2019,131.5703 L2019,133.1328 Q2019,133.7891 2018.7188,134.0703 Q2018.4375,134.3516 2018,134.3516 Q2017.6094,134.3516 2017.3594,134.1797 Q2017.1094,134.0078 2017,133.5547 Q2016.9531,133.2422 2016.7813,133.0703 Q2016.4688,132.7422 2015.9063,132.5547 Q2015.3438,132.3516 2014.7813,132.3516 Q2014.0781,132.3516 2013.4844,132.6328 Q2012.9063,132.9141 2012.4531,133.5391 Q2012,134.1641 2012,135.0234 L2012,135.9453 Q2012,136.9766 2012.8438,137.6641 Q2013.6875,138.3516 2015.1875,138.3516 Q2016.0781,138.3516 2016.7031,138.1484 Q2017.0625,138.0391 2017.4688,137.6797 Q2017.7344,137.4766 2017.875,137.4141 Q2018.0156,137.3516 2018.1875,137.3516 Q2018.5156,137.3516 2018.75,137.6172 Q2019,137.8672 2019,138.2266 Q2019,138.5703 2018.6563,138.9766 Q2018.1563,139.5703 2017.3594,139.8984 Q2016.3125,140.3516 2015.0313,140.3516 Q2013.5313,140.3516 2012.3281,139.7578 Q2011.3594,139.2891 2010.6719,138.2734 Q2010,137.2578 2010,136.0547 L2010,134.9609 Q2010,133.7109 2010.5938,132.6172 Q2011.2031,131.5234 2012.25,130.9453 Q2013.3125,130.3516 2014.5,130.3516 Q2015.2188,130.3516 2015.8438,130.6016 Q2016.4688,130.8516 2017,131.3516 Z " fill="#000000"/><text fill="#000000" font-family="sans-serif" font-size="12" font-style="italic" lengthAdjust="spacing" textLength="52" x="2060" y="130.957">«Device»</text><text fill="#000000" font-family="sans-serif" font-size="14" lengthAdjust="spacing" textLength="114" x="2029" y="148.127">Participant Device</text><line style="stroke:#008000;stroke-width:0.5;" x1="2001" x2="2145" y1="156.2031" y2="156.2031"/><line style="stroke:#008000;stroke-width:0.5;" x1="2001" x2="2145" y1="164.2031" y2="164.2031"/></g><!--MD5=[33b864f02e9b639d2c6824111c42001b]
class MeasurementGroupDevice--><g id="elem_MeasurementGroupDevice"><rect codeLine="5" fill="#D5E8D4" height="58.7031" id="MeasurementGroupDevice" rx="2.5" ry="2.5" style="stroke:#008000;stroke-width:0.5;" width="225" x="1647" y="243.5"/><ellipse cx="1662" cy="264.8516" fill="#ADD1B2" rx="11" ry="11" style="stroke:#181818;stroke-width:1.0;"/><path d="M1664,261.3516 Q1664.2031,260.8516 1664.4375,260.6016 Q1664.6719,260.3516 1664.9375,260.3516 Q1665.4063,260.3516 1665.7031,260.6328 Q1666,260.9141 1666,261.5703 L1666,263.1328 Q1666,263.7891 1665.7188,264.0703 Q1665.4375,264.3516 1665,264.3516 Q1664.6094,264.3516 1664.3594,264.1797 Q1664.1094,264.0078 1664,263.5547 Q1663.9531,263.2422 1663.7813,263.0703 Q1663.4688,262.7422 1662.9063,262.5547 Q1662.3438,262.3516 1661.7813,262.3516 Q1661.0781,262.3516 1660.4844,262.6328 Q1659.9063,262.9141 1659.4531,263.5391 Q1659,264.1641 1659,265.0234 L1659,265.9453 Q1659,266.9766 1659.8438,267.6641 Q1660.6875,268.3516 1662.1875,268.3516 Q1663.0781,268.3516 1663.7031,268.1484 Q1664.0625,268.0391 1664.4688,267.6797 Q1664.7344,267.4766 1664.875,267.4141 Q1665.0156,267.3516 1665.1875,267.3516 Q1665.5156,267.3516 1665.75,267.6172 Q1666,267.8672 1666,268.2266 Q1666,268.5703 1665.6563,268.9766 Q1665.1563,269.5703 1664.3594,269.8984 Q1663.3125,270.3516 1662.0313,270.3516 Q1660.5313,270.3516 1659.3281,269.7578 Q1658.3594,269.2891 1657.6719,268.2734 Q1657,267.2578 1657,266.0547 L1657,264.9609 Q1657,263.7109 1657.5938,262.6172 Q1658.2031,261.5234 1659.25,260.9453 Q1660.3125,260.3516 1661.5,260.3516 Q1662.2188,260.3516 1662.8438,260.6016 Q1663.4688,260.8516 1664,261.3516 Z " fill="#000000"/><text fill="#000000" font-family="sans-serif" font-size="12" font-style="italic" lengthAdjust="spacing" textLength="52" x="1746.5" y="260.957">«Device»</text><text fill="#000000" font-family="sans-serif" font-size="14" lengthAdjust="spacing" textLength="193" x="1676" y="278.127">Measurement Group Algorithm</text><line style="stroke:#008000;stroke-width:0.5;" x1="1648" x2="1871" y1="286.2031" y2="286.2031"/><line style="stroke:#008000;stroke-width:0.5;" x1="1648" x2="1871" y1="294.2031" y2="294.2031"/></g><!--MD5=[124b376d539705b4c6689a150f31c56d]
class MeasurementDevice--><g id="elem_MeasurementDevice"><rect codeLine="6" fill="#D5E8D4" height="58.7031" id="MeasurementDevice" rx="2.5" ry="2.5" style="stroke:#008000;stroke-width:0.5;" width="181" x="1312.5" y="325.5"/><ellipse cx="1327.5" cy="346.8516" fill="#ADD1B2" rx="11" ry="11" style="stroke:#181818;stroke-width:1.0;"/><path d="M1329.5,343.3516 Q1329.7031,342.8516 1329.9375,342.6016 Q1330.1719,342.3516 1330.4375,342.3516 Q1330.9063,342.3516 1331.2031,342.6328 Q1331.5,342.9141 1331.5,343.5703 L1331.5,345.1328 Q1331.5,345.7891 1331.2188,346.0703 Q1330.9375,346.3516 1330.5,346.3516 Q1330.1094,346.3516 1329.8594,346.1797 Q1329.6094,346.0078 1329.5,345.5547 Q1329.4531,345.2422 1329.2813,345.0703 Q1328.9688,344.7422 1328.4063,344.5547 Q1327.8438,344.3516 1327.2813,344.3516 Q1326.5781,344.3516 1325.9844,344.6328 Q1325.4063,344.9141 1324.9531,345.5391 Q1324.5,346.1641 1324.5,347.0234 L1324.5,347.9453 Q1324.5,348.9766 1325.3438,349.6641 Q1326.1875,350.3516 1327.6875,350.3516 Q1328.5781,350.3516 1329.2031,350.1484 Q1329.5625,350.0391 1329.9688,349.6797 Q1330.2344,349.4766 1330.375,349.4141 Q1330.5156,349.3516 1330.6875,349.3516 Q1331.0156,349.3516 1331.25,349.6172 Q1331.5,349.8672 1331.5,350.2266 Q1331.5,350.5703 1331.1563,350.9766 Q1330.6563,351.5703 1329.8594,351.8984 Q1328.8125,352.3516 1327.5313,352.3516 Q1326.0313,352.3516 1324.8281,351.7578 Q1323.8594,351.2891 1323.1719,350.2734 Q1322.5,349.2578 1322.5,348.0547 L1322.5,346.9609 Q1322.5,345.7109 1323.0938,344.6172 Q1323.7031,343.5234 1324.75,342.9453 Q1325.8125,342.3516 1327,342.3516 Q1327.7188,342.3516 1328.3438,342.6016 Q1328.9688,342.8516 1329.5,343.3516 Z " fill="#000000"/><text fill="#000000" font-family="sans-serif" font-size="12" font-style="italic" lengthAdjust="spacing" textLength="52" x="1390" y="342.957">«Device»</text><text fill="#000000" font-family="sans-serif" font-size="14" lengthAdjust="spacing" textLength="149" x="1341.5" y="360.127">Measurement Algorithm</text><line style="stroke:#008000;stroke-width:0.5;" x1="1313.5" x2="1492.5" y1="368.2031" y2="368.2031"/><line style="stroke:#008000;stroke-width:0.5;" x1="1313.5" x2="1492.5" y1="376.2031" y2="376.2031"/></g><!--MD5=[83b48e2a95eae41a78b130f01f01b4b2]
class QualitativeDevice--><g id="elem_QualitativeDevice"><rect codeLine="7" fill="#D5E8D4" height="58.7031" id="QualitativeDevice" rx="2.5" ry="2.5" style="stroke:#008000;stroke-width:0.5;" width="232" x="1287" y="157.5"/><ellipse cx="1302" cy="178.8516" fill="#ADD1B2" rx="11" ry="11" style="stroke:#181818;stroke-width:1.0;"/><path d="M1304,175.3516 Q1304.2031,174.8516 1304.4375,174.6016 Q1304.6719,174.3516 1304.9375,174.3516 Q1305.4063,174.3516 1305.7031,174.6328 Q1306,174.9141 1306,175.5703 L1306,177.1328 Q1306,177.7891 1305.7188,178.0703 Q1305.4375,178.3516 1305,178.3516 Q1304.6094,178.3516 1304.3594,178.1797 Q1304.1094,178.0078 1304,177.5547 Q1303.9531,177.2422 1303.7813,177.0703 Q1303.4688,176.7422 1302.9063,176.5547 Q1302.3438,176.3516 1301.7813,176.3516 Q1301.0781,176.3516 1300.4844,176.6328 Q1299.9063,176.9141 1299.4531,177.5391 Q1299,178.1641 1299,179.0234 L1299,179.9453 Q1299,180.9766 1299.8438,181.6641 Q1300.6875,182.3516 1302.1875,182.3516 Q1303.0781,182.3516 1303.7031,182.1484 Q1304.0625,182.0391 1304.4688,181.6797 Q1304.7344,181.4766 1304.875,181.4141 Q1305.0156,181.3516 1305.1875,181.3516 Q1305.5156,181.3516 1305.75,181.6172 Q1306,181.8672 1306,182.2266 Q1306,182.5703 1305.6563,182.9766 Q1305.1563,183.5703 1304.3594,183.8984 Q1303.3125,184.3516 1302.0313,184.3516 Q1300.5313,184.3516 1299.3281,183.7578 Q1298.3594,183.2891 1297.6719,182.2734 Q1297,181.2578 1297,180.0547 L1297,178.9609 Q1297,177.7109 1297.5938,176.6172 Q1298.2031,175.5234 1299.25,174.9453 Q1300.3125,174.3516 1301.5,174.3516 Q1302.2188,174.3516 1302.8438,174.6016 Q1303.4688,174.8516 1304,175.3516 Z " fill="#000000"/><text fill="#000000" font-family="sans-serif" font-size="12" font-style="italic" lengthAdjust="spacing" textLength="52" x="1390" y="174.957">«Device»</text><text fill="#000000" font-family="sans-serif" font-size="14" lengthAdjust="spacing" textLength="200" x="1316" y="192.127">Qualitative Evaluation Algorithm</text><line style="stroke:#008000;stroke-width:0.5;" x1="1288" x2="1518" y1="200.2031" y2="200.2031"/><line style="stroke:#008000;stroke-width:0.5;" x1="1288" x2="1518" y1="208.2031" y2="208.2031"/></g><!--MD5=[3d7640cd87099f783353155cb7e37f56]
class ImagingMeasurementGroup--><g id="elem_ImagingMeasurementGroup"><rect codeLine="9" fill="#D5E8D4" height="58.7031" id="ImagingMeasurementGroup" rx="2.5" ry="2.5" style="stroke:#008000;stroke-width:0.5;" width="215" x="564" y="243.5"/><ellipse cx="579" cy="264.8516" fill="#ADD1B2" rx="11" ry="11" style="stroke:#181818;stroke-width:1.0;"/><path d="M581,261.3516 Q581.2031,260.8516 581.4375,260.6016 Q581.6719,260.3516 581.9375,260.3516 Q582.4063,260.3516 582.7031,260.6328 Q583,260.9141 583,261.5703 L583,263.1328 Q583,263.7891 582.7188,264.0703 Q582.4375,264.3516 582,264.3516 Q581.6094,264.3516 581.3594,264.1797 Q581.1094,264.0078 581,263.5547 Q580.9531,263.2422 580.7813,263.0703 Q580.4688,262.7422 579.9063,262.5547 Q579.3438,262.3516 578.7813,262.3516 Q578.0781,262.3516 577.4844,262.6328 Q576.9063,262.9141 576.4531,263.5391 Q576,264.1641 576,265.0234 L576,265.9453 Q576,266.9766 576.8438,267.6641 Q577.6875,268.3516 579.1875,268.3516 Q580.0781,268.3516 580.7031,268.1484 Q581.0625,268.0391 581.4688,267.6797 Q581.7344,267.4766 581.875,267.4141 Q582.0156,267.3516 582.1875,267.3516 Q582.5156,267.3516 582.75,267.6172 Q583,267.8672 583,268.2266 Q583,268.5703 582.6563,268.9766 Q582.1563,269.5703 581.3594,269.8984 Q580.3125,270.3516 579.0313,270.3516 Q577.5313,270.3516 576.3281,269.7578 Q575.3594,269.2891 574.6719,268.2734 Q574,267.2578 574,266.0547 L574,264.9609 Q574,263.7109 574.5938,262.6172 Q575.2031,261.5234 576.25,260.9453 Q577.3125,260.3516 578.5,260.3516 Q579.2188,260.3516 579.8438,260.6016 Q580.4688,260.8516 581,261.3516 Z " fill="#000000"/><text fill="#000000" font-family="sans-serif" font-size="12" font-style="italic" lengthAdjust="spacing" textLength="81" x="644" y="260.957">«Observation»</text><text fill="#000000" font-family="sans-serif" font-size="14" lengthAdjust="spacing" textLength="183" x="593" y="278.127">Imaging Measurement Group</text><line style="stroke:#008000;stroke-width:0.5;" x1="565" x2="778" y1="286.2031" y2="286.2031"/><line style="stroke:#008000;stroke-width:0.5;" x1="565" x2="778" y1="294.2031" y2="294.2031"/></g><!--MD5=[bb88d34a80cd9044150c6a92244c01f2]
class ImagingMeasurement--><g id="elem_ImagingMeasurement"><rect codeLine="10" fill="#D5E8D4" height="58.7031" id="ImagingMeasurement" rx="2.5" ry="2.5" style="stroke:#008000;stroke-width:0.5;" width="171" x="962.5" y="325.5"/><ellipse cx="977.5" cy="346.8516" fill="#ADD1B2" rx="11" ry="11" style="stroke:#181818;stroke-width:1.0;"/><path d="M979.5,343.3516 Q979.7031,342.8516 979.9375,342.6016 Q980.1719,342.3516 980.4375,342.3516 Q980.9063,342.3516 981.2031,342.6328 Q981.5,342.9141 981.5,343.5703 L981.5,345.1328 Q981.5,345.7891 981.2188,346.0703 Q980.9375,346.3516 980.5,346.3516 Q980.1094,346.3516 979.8594,346.1797 Q979.6094,346.0078 979.5,345.5547 Q979.4531,345.2422 979.2813,345.0703 Q978.9688,344.7422 978.4063,344.5547 Q977.8438,344.3516 977.2813,344.3516 Q976.5781,344.3516 975.9844,344.6328 Q975.4063,344.9141 974.9531,345.5391 Q974.5,346.1641 974.5,347.0234 L974.5,347.9453 Q974.5,348.9766 975.3438,349.6641 Q976.1875,350.3516 977.6875,350.3516 Q978.5781,350.3516 979.2031,350.1484 Q979.5625,350.0391 979.9688,349.6797 Q980.2344,349.4766 980.375,349.4141 Q980.5156,349.3516 980.6875,349.3516 Q981.0156,349.3516 981.25,349.6172 Q981.5,349.8672 981.5,350.2266 Q981.5,350.5703 981.1563,350.9766 Q980.6563,351.5703 979.8594,351.8984 Q978.8125,352.3516 977.5313,352.3516 Q976.0313,352.3516 974.8281,351.7578 Q973.8594,351.2891 973.1719,350.2734 Q972.5,349.2578 972.5,348.0547 L972.5,346.9609 Q972.5,345.7109 973.0938,344.6172 Q973.7031,343.5234 974.75,342.9453 Q975.8125,342.3516 977,342.3516 Q977.7188,342.3516 978.3438,342.6016 Q978.9688,342.8516 979.5,343.3516 Z " fill="#000000"/><text fill="#000000" font-family="sans-serif" font-size="12" font-style="italic" lengthAdjust="spacing" textLength="81" x="1020.5" y="342.957">«Observation»</text><text fill="#000000" font-family="sans-serif" font-size="14" lengthAdjust="spacing" textLength="139" x="991.5" y="360.127">Imaging Measurement</text><line style="stroke:#008000;stroke-width:0.5;" x1="963.5" x2="1132.5" y1="368.2031" y2="368.2031"/><line style="stroke:#008000;stroke-width:0.5;" x1="963.5" x2="1132.5" y1="376.2031" y2="376.2031"/></g><!--MD5=[57f4290ba0ded235bd39bc1042cc846f]
class ImagingQualitativeEvaluation--><g id="elem_ImagingQualitativeEvaluation"><rect codeLine="11" fill="#D5E8D4" height="58.7031" id="ImagingQualitativeEvaluation" rx="2.5" ry="2.5" style="stroke:#008000;stroke-width:0.5;" width="222" x="937" y="157.5"/><ellipse cx="952" cy="178.8516" fill="#ADD1B2" rx="11" ry="11" style="stroke:#181818;stroke-width:1.0;"/><path d="M954,175.3516 Q954.2031,174.8516 954.4375,174.6016 Q954.6719,174.3516 954.9375,174.3516 Q955.4063,174.3516 955.7031,174.6328 Q956,174.9141 956,175.5703 L956,177.1328 Q956,177.7891 955.7188,178.0703 Q955.4375,178.3516 955,178.3516 Q954.6094,178.3516 954.3594,178.1797 Q954.1094,178.0078 954,177.5547 Q953.9531,177.2422 953.7813,177.0703 Q953.4688,176.7422 952.9063,176.5547 Q952.3438,176.3516 951.7813,176.3516 Q951.0781,176.3516 950.4844,176.6328 Q949.9063,176.9141 949.4531,177.5391 Q949,178.1641 949,179.0234 L949,179.9453 Q949,180.9766 949.8438,181.6641 Q950.6875,182.3516 952.1875,182.3516 Q953.0781,182.3516 953.7031,182.1484 Q954.0625,182.0391 954.4688,181.6797 Q954.7344,181.4766 954.875,181.4141 Q955.0156,181.3516 955.1875,181.3516 Q955.5156,181.3516 955.75,181.6172 Q956,181.8672 956,182.2266 Q956,182.5703 955.6563,182.9766 Q955.1563,183.5703 954.3594,183.8984 Q953.3125,184.3516 952.0313,184.3516 Q950.5313,184.3516 949.3281,183.7578 Q948.3594,183.2891 947.6719,182.2734 Q947,181.2578 947,180.0547 L947,178.9609 Q947,177.7109 947.5938,176.6172 Q948.2031,175.5234 949.25,174.9453 Q950.3125,174.3516 951.5,174.3516 Q952.2188,174.3516 952.8438,174.6016 Q953.4688,174.8516 954,175.3516 Z " fill="#000000"/><text fill="#000000" font-family="sans-serif" font-size="12" font-style="italic" lengthAdjust="spacing" textLength="81" x="1020.5" y="174.957">«Observation»</text><text fill="#000000" font-family="sans-serif" font-size="14" lengthAdjust="spacing" textLength="190" x="966" y="192.127">Imaging Qualitative Evaluation</text><line style="stroke:#008000;stroke-width:0.5;" x1="938" x2="1158" y1="200.2031" y2="200.2031"/><line style="stroke:#008000;stroke-width:0.5;" x1="938" x2="1158" y1="208.2031" y2="208.2031"/></g><!--MD5=[a389552badd889caa0a4c45f48655bf2]
link DICOM.equipment.ie to EquipmentDevice--><g id="link_DICOM.equipment.ie_EquipmentDevice"><path codeLine="25" d="M432.3607,32.0017 C435.3702,31.9797 438.3956,31.9578 441.4359,31.936 C465.7583,31.7623 491.0306,31.6004 516.6794,31.4617 C567.9769,31.1844 620.78,31 670.5,31 C670.5,31 670.5,31 2074,31 C2141.23,31 2217.07,45.17 2268.83,57.05 " fill="none" id="DICOM.equipment.ie-to-EquipmentDevice" style="stroke:#181818;stroke-width:1.0;"/><polygon fill="#181818" points="2273.77,58.19,2265.905,52.262,2268.899,57.0615,2264.0994,60.0555,2273.77,58.19" style="stroke:#181818;stroke-width:1.0;"/></g><!--MD5=[c1a13e78cd6f2217d4beccedf8427660]
link DICOM.document.ie to DocumentDevice--><g id="link_DICOM.document.ie_DocumentDevice"><path codeLine="26" d="M392.8046,102 C394.2261,102 395.6529,102 397.0849,102 C399.9487,102 402.833,102 405.7366,102 C417.3511,102 429.2748,102 441.4359,102 C465.7583,102 491.0306,102 516.6794,102 C567.9769,102 620.78,102 670.5,102 C670.5,102 670.5,102 1760.5,102 C1840.88,102 1931.93,115.58 1994.74,127.11 " fill="none" id="DICOM.document.ie-to-DocumentDevice" style="stroke:#181818;stroke-width:1.0;"/><polygon fill="#181818" points="1999.97,128.08,1991.8535,122.5013,1995.0543,127.1655,1990.3902,130.3663,1999.97,128.08" style="stroke:#181818;stroke-width:1.0;"/></g><!--MD5=[358a5e4a5453c2da20320eff1a589528]
link CONTAINER.imaging.measurements to ImagingMeasurementGroup--><g id="link_CONTAINER.imaging.measurements_ImagingMeasurementGroup"><path codeLine="28" d="M343.04,273 C410.39,273 493.12,273 558.57,273 " fill="none" id="CONTAINER.imaging.measurements-to-ImagingMeasurementGroup" style="stroke:#181818;stroke-width:1.0;"/><polygon fill="#181818" points="563.65,273,554.65,269,558.65,273,554.65,277,563.65,273" style="stroke:#181818;stroke-width:1.0;"/><text fill="#000000" font-family="sans-serif" font-size="13" lengthAdjust="spacing" textLength="77" x="456" y="269.4951">contains[0..*]</text></g><!--MD5=[6e5918a2413ce01f9ec27cf331e0b876]
link CONTAINER.qualitative.evaluations to ImagingQualitativeEvaluation--><g id="link_CONTAINER.qualitative.evaluations_ImagingQualitativeEvaluation"><path codeLine="29" d="M340.27,168.21 C499.03,172.43 775.98,179.79 931.88,183.94 " fill="none" id="CONTAINER.qualitative.evaluations-to-ImagingQualitativeEvaluation" style="stroke:#181818;stroke-width:1.0;"/><polygon fill="#181818" points="936.91,184.07,928.0158,179.84,931.9117,183.9415,927.8102,187.8373,936.91,184.07" style="stroke:#181818;stroke-width:1.0;"/><text fill="#000000" font-family="sans-serif" font-size="13" lengthAdjust="spacing" textLength="77" x="633" y="171.4951">contains[0..*]</text></g><!--MD5=[a64112a2c3201709622cfcb5af043e04]
link ImagingMeasurementGroup to ImagingMeasurement--><g id="link_ImagingMeasurementGroup_ImagingMeasurement"><path codeLine="31" d="M759.73,302.51 C775.99,307.43 792.93,312.17 809,316 C857.53,327.56 912.45,336.81 957.29,343.39 " fill="none" id="ImagingMeasurementGroup-to-ImagingMeasurement" style="stroke:#181818;stroke-width:1.0;"/><polygon fill="#181818" points="962.43,344.14,954.1095,338.8703,957.4834,343.4109,952.9429,346.7848,962.43,344.14" style="stroke:#181818;stroke-width:1.0;"/><text fill="#000000" font-family="sans-serif" font-size="13" lengthAdjust="spacing" textLength="96" x="810" y="312.4951">hasMember[0..*]</text></g><!--MD5=[b39ee382287a633ec7edf15e3d3826dd]
link ImagingMeasurementGroup to ImagingQualitativeEvaluation--><g id="link_ImagingMeasurementGroup_ImagingQualitativeEvaluation"><path codeLine="32" d="M779.07,248.53 C826.83,237.56 883.26,224.6 931.98,213.41 " fill="none" id="ImagingMeasurementGroup-to-ImagingQualitativeEvaluation" style="stroke:#181818;stroke-width:1.0;"/><polygon fill="#181818" points="936.97,212.27,927.3047,210.3775,932.0959,213.3849,929.0885,218.1761,936.97,212.27" style="stroke:#181818;stroke-width:1.0;"/><text fill="#000000" font-family="sans-serif" font-size="13" lengthAdjust="spacing" textLength="96" x="810" y="216.4951">hasMember[0..*]</text></g><!--MD5=[1d17ebbef82e4b37c72f6c221302950d]
link ImagingMeasurementGroup to MeasurementGroupDevice--><g id="link_ImagingMeasurementGroup_MeasurementGroupDevice"><path codeLine="33" d="M779.1,273 C983.55,273 1429.24,273 1641.54,273 " fill="none" id="ImagingMeasurementGroup-to-MeasurementGroupDevice" style="stroke:#181818;stroke-width:1.0;"/><polygon fill="#181818" points="1646.82,273,1637.82,269,1641.82,273,1637.82,277,1646.82,273" style="stroke:#181818;stroke-width:1.0;"/><text fill="#000000" font-family="sans-serif" font-size="13" lengthAdjust="spacing" textLength="66" x="1190" y="269.4951">device[0..1]</text></g><!--MD5=[71397c9dcca28f36268cd4da157193a9]
link ImagingMeasurement to MeasurementDevice--><g id="link_ImagingMeasurement_MeasurementDevice"><path codeLine="35" d="M1133.55,355 C1185.82,355 1253,355 1307.09,355 " fill="none" id="ImagingMeasurement-to-MeasurementDevice" style="stroke:#181818;stroke-width:1.0;"/><polygon fill="#181818" points="1312.28,355,1303.28,351,1307.28,355,1303.28,359,1312.28,355" style="stroke:#181818;stroke-width:1.0;"/><text fill="#000000" font-family="sans-serif" font-size="13" lengthAdjust="spacing" textLength="66" x="1190" y="351.4951">device[0..1]</text></g><!--MD5=[ff0d3198f57b283d362657f31da9af4a]
link ImagingQualitativeEvaluation to QualitativeDevice--><g id="link_ImagingQualitativeEvaluation_QualitativeDevice"><path codeLine="37" d="M1159.24,187 C1198.06,187 1241.88,187 1281.5,187 " fill="none" id="ImagingQualitativeEvaluation-to-QualitativeDevice" style="stroke:#181818;stroke-width:1.0;"/><polygon fill="#181818" points="1286.81,187,1277.81,183,1281.81,187,1277.81,191,1286.81,187" style="stroke:#181818;stroke-width:1.0;"/><text fill="#000000" font-family="sans-serif" font-size="13" lengthAdjust="spacing" textLength="66" x="1190" y="183.4951">device[0..1]</text></g><!--MD5=[1d1dbc04e1a00e35e5253851e6727d96]
link MeasurementDevice to MeasurementGroupDevice--><g id="link_MeasurementDevice_MeasurementGroupDevice"><path codeLine="39" d="M1493.6,340.93 C1531.84,334.32 1576.81,325.75 1617,316 C1631.57,312.46 1646.86,308.3 1661.78,303.99 " fill="none" id="MeasurementDevice-to-MeasurementGroupDevice" style="stroke:#181818;stroke-width:1.0;"/><polygon fill="#181818" points="1666.82,302.52,1657.06,301.2,1662.02,303.92,1659.3,308.88,1666.82,302.52" style="stroke:#181818;stroke-width:1.0;"/><text fill="#000000" font-family="sans-serif" font-size="13" lengthAdjust="spacing" textLength="66" x="1550" y="312.4951">parent[0..1]</text></g><!--MD5=[8ad0bed07474fa536852250f463816ad]
link MeasurementGroupDevice to DocumentDevice--><g id="link_MeasurementGroupDevice_DocumentDevice"><path codeLine="40" d="M1872.21,251.2 C1904.63,242.75 1939.49,231.53 1970,217 C1992.59,206.24 2015.35,190.33 2033.62,176.02 " fill="none" id="MeasurementGroupDevice-to-DocumentDevice" style="stroke:#181818;stroke-width:1.0;"/><polygon fill="#181818" points="2037.69,172.8,2028.1512,175.2519,2033.7704,175.9042,2033.118,181.5234,2037.69,172.8" style="stroke:#181818;stroke-width:1.0;"/><text fill="#000000" font-family="sans-serif" font-size="13" lengthAdjust="spacing" textLength="66" x="1903" y="213.4951">parent[0..1]</text></g><!--MD5=[204f17bd7e3b2bc67cbf54a4e6ecd55e]
link QualitativeDevice to DocumentDevice--><g id="link_QualitativeDevice_DocumentDevice"><path codeLine="41" d="M1519.21,179.41 C1655.28,170.45 1877.86,155.79 1994.75,148.09 " fill="none" id="QualitativeDevice-to-DocumentDevice" style="stroke:#181818;stroke-width:1.0;"/><polygon fill="#181818" points="1999.89,147.75,1990.6464,144.3505,1994.9008,148.0788,1991.1725,152.3332,1999.89,147.75" style="stroke:#181818;stroke-width:1.0;"/><text fill="#000000" font-family="sans-serif" font-size="13" lengthAdjust="spacing" textLength="66" x="1726.5" y="153.4951">parent[0..1]</text></g><!--MD5=[a1e94ffadfdcddc8086dceb6f62be24a]
link QualitativeDevice to MeasurementGroupDevice--><g id="link_QualitativeDevice_MeasurementGroupDevice"><path codeLine="42" d="M1519.1,214.92 C1558.28,224.43 1602.1,235.06 1641.43,244.6 " fill="none" id="QualitativeDevice-to-MeasurementGroupDevice" style="stroke:#181818;stroke-width:1.0;"/><polygon fill="#181818" points="1646.7,245.88,1638.8887,239.8814,1641.8394,244.7077,1637.013,247.6584,1646.7,245.88" style="stroke:#181818;stroke-width:1.0;"/><text fill="#000000" font-family="sans-serif" font-size="13" lengthAdjust="spacing" textLength="66" x="1550" y="219.4951">parent[0..1]</text></g><!--MD5=[61d56686581c0d0e1ee3a2ae45492065]
link DocumentDevice to EquipmentDevice--><g id="link_DocumentDevice_EquipmentDevice"><path codeLine="43" d="M2146.27,123.31 C2184.92,112.79 2232.02,99.96 2268.99,89.89 " fill="none" id="DocumentDevice-to-EquipmentDevice" style="stroke:#181818;stroke-width:1.0;"/><polygon fill="#181818" points="2273.9,88.55,2264.1643,87.0614,2269.0765,89.8668,2266.2712,94.779,2273.9,88.55" style="stroke:#181818;stroke-width:1.0;"/><text fill="#000000" font-family="sans-serif" font-size="13" lengthAdjust="spacing" textLength="66" x="2177" y="94.4951">parent[0..1]</text></g><!--MD5=[8061514b6accecff7d51bb11fdcec553]
@startuml dicom_sr_device
left to right direction

class "Manufacturer" as EquipmentDevice <<Device>> #d5e8d4 ##green
class "Participant Device" as DocumentDevice <<Device>> #d5e8d4 ##green
class "Measurement Group Algorithm" as MeasurementGroupDevice <<Device>> #d5e8d4 ##green
class "Measurement Algorithm" as MeasurementDevice <<Device>> #d5e8d4 ##green
class "Qualitative Evaluation Algorithm" as QualitativeDevice <<Device>> #d5e8d4 ##green

class "Imaging Measurement Group" as ImagingMeasurementGroup <<Observation>> #d5e8d4 ##green
class "Imaging Measurement" as ImagingMeasurement <<Observation>> #d5e8d4 ##green
class "Imaging Qualitative Evaluation" as ImagingQualitativeEvaluation <<Observation>> #d5e8d4 ##green


package DICOM.equipment.ie #EEEEEE {
    package DICOM.document.ie #EEEEEE {
        package TID.1500.measurement.report #EEEEEE {
            package CONTAINER.imaging.measurements {
            }
        }
            package CONTAINER.qualitative.evaluations {
            }
    }
}

DICOM.equipment.ie - -> EquipmentDevice
DICOM.document.ie - -> DocumentDevice

CONTAINER.imaging.measurements - -> ImagingMeasurementGroup : contains[0..*]
CONTAINER.qualitative.evaluations - -> ImagingQualitativeEvaluation : contains[0..*]

ImagingMeasurementGroup - -> ImagingMeasurement : hasMember[0..*]
ImagingMeasurementGroup - -> ImagingQualitativeEvaluation : hasMember[0..*]
ImagingMeasurementGroup - -> MeasurementGroupDevice : device[0..1]

ImagingMeasurement - -> MeasurementDevice : device[0..1]

ImagingQualitativeEvaluation - -> QualitativeDevice : device[0..1]

MeasurementDevice - -> MeasurementGroupDevice : parent[0..1]
MeasurementGroupDevice - -> DocumentDevice : parent[0..1]
QualitativeDevice - -> DocumentDevice : parent[0..1]
QualitativeDevice - -> MeasurementGroupDevice : parent[0..1]
DocumentDevice - -> EquipmentDevice : parent[0..1]

@enduml

PlantUML version 1.2022.5(Sat Apr 30 06:55:52 EDT 2022)
(GPL source distribution)
Java Runtime: OpenJDK Runtime Environment
JVM: OpenJDK 64-Bit Server VM
Default Encoding: Cp1252
Language: en
Country: US
--></g></svg>