<?xml version="1.0" encoding="UTF-8" standalone="no"?><svg xmlns="http://www.w3.org/2000/svg" xmlns:xlink="http://www.w3.org/1999/xlink" contentStyleType="text/css" height="835px" preserveAspectRatio="none" style="width:2621px;height:835px;background:#FFFFFF;" version="1.1" viewBox="0 0 2621 835" width="2621px" zoomAndPan="magnify"><defs/><g><!--MD5=[37f8d2e1ac809d77d56477875277c7a0]
cluster DICOM.equipment.ie--><g id="cluster_DICOM.equipment.ie"><path d="M8.5,6 L153.5,6 A3.75,3.75 0 0 1 156,8.5 L163,29.6094 L574.5,29.6094 A2.5,2.5 0 0 1 577,32.1094 L577,667.5 A2.5,2.5 0 0 1 574.5,670 L8.5,670 A2.5,2.5 0 0 1 6,667.5 L6,8.5 A2.5,2.5 0 0 1 8.5,6 " fill="#EEEEEE" style="stroke:#000000;stroke-width:1.5;"/><line style="stroke:#000000;stroke-width:1.5;" x1="6" x2="163" y1="29.6094" y2="29.6094"/><text fill="#000000" font-family="sans-serif" font-size="14" font-weight="bold" lengthAdjust="spacing" textLength="144" x="10" y="22.5332">DICOM.equipment.ie</text></g><!--MD5=[235c92d487e9a0a6932c6cf95f2b8380]
cluster DICOM.document.ie--><g id="cluster_DICOM.document.ie"><path d="M40.5,66 L180.5,66 A3.75,3.75 0 0 1 183,68.5 L190,89.6094 L542.5,89.6094 A2.5,2.5 0 0 1 545,92.1094 L545,635.5 A2.5,2.5 0 0 1 542.5,638 L40.5,638 A2.5,2.5 0 0 1 38,635.5 L38,68.5 A2.5,2.5 0 0 1 40.5,66 " fill="#EEEEEE" style="stroke:#000000;stroke-width:1.5;"/><line style="stroke:#000000;stroke-width:1.5;" x1="38" x2="190" y1="89.6094" y2="89.6094"/><text fill="#000000" font-family="sans-serif" font-size="14" font-weight="bold" lengthAdjust="spacing" textLength="139" x="42" y="82.5332">DICOM.document.ie</text></g><!--MD5=[e0204f941a3444903cfced0c56fac560]
cluster TID.1500.measurement.report--><g id="cluster_TID.1500.measurement.report"><path d="M64.5,110 L271.5,110 A3.75,3.75 0 0 1 274,112.5 L281,133.6094 L518.5,133.6094 A2.5,2.5 0 0 1 521,136.1094 L521,611.5 A2.5,2.5 0 0 1 518.5,614 L64.5,614 A2.5,2.5 0 0 1 62,611.5 L62,112.5 A2.5,2.5 0 0 1 64.5,110 " fill="#EEEEEE" style="stroke:#000000;stroke-width:1.5;"/><line style="stroke:#000000;stroke-width:1.5;" x1="62" x2="281" y1="133.6094" y2="133.6094"/><text fill="#000000" font-family="sans-serif" font-size="14" font-weight="bold" lengthAdjust="spacing" textLength="206" x="66" y="126.5332">TID.1500.measurement.report</text></g><!--MD5=[5f6923eedeb01734c40a826d2e9be5f8]
cluster CONTAINER.imaging.measurements--><g id="cluster_CONTAINER.imaging.measurements"><path d="M96.5,327 L345.5,327 A3.75,3.75 0 0 1 348,329.5 L355,350.6094 L486.5,350.6094 A2.5,2.5 0 0 1 489,353.1094 L489,579.5 A2.5,2.5 0 0 1 486.5,582 L96.5,582 A2.5,2.5 0 0 1 94,579.5 L94,329.5 A2.5,2.5 0 0 1 96.5,327 " fill="none" style="stroke:#000000;stroke-width:1.5;"/><line style="stroke:#000000;stroke-width:1.5;" x1="94" x2="355" y1="350.6094" y2="350.6094"/><text fill="#000000" font-family="sans-serif" font-size="14" font-weight="bold" lengthAdjust="spacing" textLength="248" x="98" y="343.5332">CONTAINER.imaging.measurements</text></g><!--MD5=[ffaea171d990c4d55aebe993500dd3d0]
cluster 0..n.CONTAINER.imaging.measurement.group--><g id="cluster_0..n.CONTAINER.imaging.measurement.group"><path d="M128.5,379 L444.5,379 A3.75,3.75 0 0 1 447,381.5 L454,402.6094 L454.5,402.6094 A2.5,2.5 0 0 1 457,405.1094 L457,539.5 A2.5,2.5 0 0 1 454.5,542 L128.5,542 A2.5,2.5 0 0 1 126,539.5 L126,381.5 A2.5,2.5 0 0 1 128.5,379 " fill="none" style="stroke:#000000;stroke-width:1.5;"/><line style="stroke:#000000;stroke-width:1.5;" x1="126" x2="454" y1="402.6094" y2="402.6094"/><text fill="#000000" font-family="sans-serif" font-size="14" font-weight="bold" lengthAdjust="spacing" textLength="315" x="130" y="395.5332">0..n.CONTAINER.imaging.measurement.group</text></g><!--MD5=[ec19ba83de06623e9bbe12325e2c634c]
cluster CONTAINER.qualitative.evaluations--><g id="cluster_CONTAINER.qualitative.evaluations"><path d="M163,162 L409,162 A3.75,3.75 0 0 1 411.5,164.5 L418.5,185.6094 L419,185.6094 A2.5,2.5 0 0 1 421.5,188.1094 L421.5,284.5 A2.5,2.5 0 0 1 419,287 L163,287 A2.5,2.5 0 0 1 160.5,284.5 L160.5,164.5 A2.5,2.5 0 0 1 163,162 " fill="none" style="stroke:#000000;stroke-width:1.5;"/><line style="stroke:#000000;stroke-width:1.5;" x1="160.5" x2="418.5" y1="185.6094" y2="185.6094"/><text fill="#000000" font-family="sans-serif" font-size="14" font-weight="bold" lengthAdjust="spacing" textLength="245" x="164.5" y="178.5332">CONTAINER.qualitative.evaluations</text></g><g id="elem_0..n.imaging.measurement"><rect fill="#F1F1F1" height="37.6094" style="stroke:#181818;stroke-width:0.5;" width="181" x="200.5" y="415"/><text fill="#000000" font-family="sans-serif" font-size="14" lengthAdjust="spacing" textLength="167" x="207.5" y="431.5332">0..n.imaging.measurement</text><line style="stroke:#181818;stroke-width:0.5;" x1="201.5" x2="380.5" y1="436.6094" y2="436.6094"/></g><g id="elem_0..n.imaging.qualitative.evaluation"><rect fill="#F1F1F1" height="37.6094" style="stroke:#181818;stroke-width:0.5;" width="228" x="177" y="488"/><text fill="#000000" font-family="sans-serif" font-size="14" lengthAdjust="spacing" textLength="214" x="184" y="504.5332">0..n.imaging.qualitative.evaluation</text><line style="stroke:#181818;stroke-width:0.5;" x1="178" x2="404" y1="509.6094" y2="509.6094"/></g><g id="elem_0..n.qualitative.evaluation"><rect fill="#F1F1F1" height="37.6094" style="stroke:#181818;stroke-width:0.5;" width="175" x="203.5" y="206"/><text fill="#000000" font-family="sans-serif" font-size="14" lengthAdjust="spacing" textLength="161" x="210.5" y="222.5332">0..n.qualitative.evaluation</text><line style="stroke:#181818;stroke-width:0.5;" x1="204.5" x2="377.5" y1="227.6094" y2="227.6094"/></g><!--MD5=[86834a223ba9a9219c98db6abda42caa]
class EquipmentDevice--><g id="elem_EquipmentDevice"><rect codeLine="3" fill="#D5E8D4" height="58.7031" id="EquipmentDevice" rx="2.5" ry="2.5" style="stroke:#008000;stroke-width:0.5;" width="99" x="2515" y="328.5"/><ellipse cx="2530" cy="349.8516" fill="#ADD1B2" rx="11" ry="11" style="stroke:#181818;stroke-width:1.0;"/><path d="M2532.7656,345.7266 Q2532.9219,345.5078 2533.1094,345.3984 Q2533.2969,345.2891 2533.5156,345.2891 Q2533.8906,345.2891 2534.125,345.5469 Q2534.3594,345.8047 2534.3594,346.4141 L2534.3594,347.8672 Q2534.3594,348.4766 2534.125,348.7422 Q2533.8906,349.0078 2533.5156,349.0078 Q2533.1719,349.0078 2532.9688,348.8047 Q2532.7656,348.6172 2532.6563,348.1016 Q2532.6094,347.7422 2532.4219,347.5547 Q2532.0938,347.1797 2531.4844,346.9609 Q2530.875,346.7422 2530.25,346.7422 Q2529.4844,346.7422 2528.8516,347.0703 Q2528.2188,347.3984 2527.7266,348.1484 Q2527.2344,348.8984 2527.2344,349.9297 L2527.2344,351.0234 Q2527.2344,352.2578 2528.125,353.0781 Q2529.0156,353.8984 2530.6094,353.8984 Q2531.5469,353.8984 2532.2031,353.6484 Q2532.5938,353.4922 2533.0156,353.0547 Q2533.2813,352.7891 2533.4297,352.7109 Q2533.5781,352.6328 2533.7813,352.6328 Q2534.1094,352.6328 2534.3672,352.8906 Q2534.625,353.1484 2534.625,353.4922 Q2534.625,353.8359 2534.2813,354.2422 Q2533.7813,354.8203 2532.9844,355.1484 Q2531.9063,355.6016 2530.6094,355.6016 Q2529.0938,355.6016 2527.8906,354.9766 Q2526.9063,354.4766 2526.2188,353.4062 Q2525.5313,352.3359 2525.5313,351.0547 L2525.5313,349.8984 Q2525.5313,348.5703 2526.1484,347.4219 Q2526.7656,346.2734 2527.8594,345.6562 Q2528.9531,345.0391 2530.1875,345.0391 Q2530.9219,345.0391 2531.5703,345.2031 Q2532.2188,345.3672 2532.7656,345.7266 Z " fill="#000000"/><text fill="#000000" font-family="sans-serif" font-size="12" font-style="italic" lengthAdjust="spacing" textLength="52" x="2551.5" y="345.957">«Device»</text><text fill="#000000" font-family="sans-serif" font-size="14" lengthAdjust="spacing" textLength="67" x="2544" y="363.127">Equipment</text><line style="stroke:#008000;stroke-width:0.5;" x1="2516" x2="2613" y1="371.2031" y2="371.2031"/><line style="stroke:#008000;stroke-width:0.5;" x1="2516" x2="2613" y1="379.2031" y2="379.2031"/></g><!--MD5=[33b864f02e9b639d2c6824111c42001b]
class MeasurementGroupDevice--><g id="elem_MeasurementGroupDevice"><rect codeLine="4" fill="#D5E8D4" height="58.7031" id="MeasurementGroupDevice" rx="2.5" ry="2.5" style="stroke:#008000;stroke-width:0.5;" width="225" x="1704.5" y="715.5"/><ellipse cx="1719.5" cy="736.8516" fill="#ADD1B2" rx="11" ry="11" style="stroke:#181818;stroke-width:1.0;"/><path d="M1722.2656,732.7266 Q1722.4219,732.5078 1722.6094,732.3984 Q1722.7969,732.2891 1723.0156,732.2891 Q1723.3906,732.2891 1723.625,732.5469 Q1723.8594,732.8047 1723.8594,733.4141 L1723.8594,734.8672 Q1723.8594,735.4766 1723.625,735.7422 Q1723.3906,736.0078 1723.0156,736.0078 Q1722.6719,736.0078 1722.4688,735.8047 Q1722.2656,735.6172 1722.1563,735.1016 Q1722.1094,734.7422 1721.9219,734.5547 Q1721.5938,734.1797 1720.9844,733.9609 Q1720.375,733.7422 1719.75,733.7422 Q1718.9844,733.7422 1718.3516,734.0703 Q1717.7188,734.3984 1717.2266,735.1484 Q1716.7344,735.8984 1716.7344,736.9297 L1716.7344,738.0234 Q1716.7344,739.2578 1717.625,740.0781 Q1718.5156,740.8984 1720.1094,740.8984 Q1721.0469,740.8984 1721.7031,740.6484 Q1722.0938,740.4922 1722.5156,740.0547 Q1722.7813,739.7891 1722.9297,739.7109 Q1723.0781,739.6328 1723.2813,739.6328 Q1723.6094,739.6328 1723.8672,739.8906 Q1724.125,740.1484 1724.125,740.4922 Q1724.125,740.8359 1723.7813,741.2422 Q1723.2813,741.8203 1722.4844,742.1484 Q1721.4063,742.6016 1720.1094,742.6016 Q1718.5938,742.6016 1717.3906,741.9766 Q1716.4063,741.4766 1715.7188,740.4063 Q1715.0313,739.3359 1715.0313,738.0547 L1715.0313,736.8984 Q1715.0313,735.5703 1715.6484,734.4219 Q1716.2656,733.2734 1717.3594,732.6563 Q1718.4531,732.0391 1719.6875,732.0391 Q1720.4219,732.0391 1721.0703,732.2031 Q1721.7188,732.3672 1722.2656,732.7266 Z " fill="#000000"/><text fill="#000000" font-family="sans-serif" font-size="12" font-style="italic" lengthAdjust="spacing" textLength="52" x="1804" y="732.957">«Device»</text><text fill="#000000" font-family="sans-serif" font-size="14" lengthAdjust="spacing" textLength="193" x="1733.5" y="750.127">Measurement Group Algorithm</text><line style="stroke:#008000;stroke-width:0.5;" x1="1705.5" x2="1928.5" y1="758.2031" y2="758.2031"/><line style="stroke:#008000;stroke-width:0.5;" x1="1705.5" x2="1928.5" y1="766.2031" y2="766.2031"/></g><!--MD5=[124b376d539705b4c6689a150f31c56d]
class MeasurementDevice--><g id="elem_MeasurementDevice"><rect codeLine="5" fill="#D5E8D4" height="58.7031" id="MeasurementDevice" rx="2.5" ry="2.5" style="stroke:#008000;stroke-width:0.5;" width="181" x="2180.5" y="82.5"/><ellipse cx="2195.5" cy="103.8516" fill="#ADD1B2" rx="11" ry="11" style="stroke:#181818;stroke-width:1.0;"/><path d="M2198.2656,99.7266 Q2198.4219,99.5078 2198.6094,99.3984 Q2198.7969,99.2891 2199.0156,99.2891 Q2199.3906,99.2891 2199.625,99.5469 Q2199.8594,99.8047 2199.8594,100.4141 L2199.8594,101.8672 Q2199.8594,102.4766 2199.625,102.7422 Q2199.3906,103.0078 2199.0156,103.0078 Q2198.6719,103.0078 2198.4688,102.8047 Q2198.2656,102.6172 2198.1563,102.1016 Q2198.1094,101.7422 2197.9219,101.5547 Q2197.5938,101.1797 2196.9844,100.9609 Q2196.375,100.7422 2195.75,100.7422 Q2194.9844,100.7422 2194.3516,101.0703 Q2193.7188,101.3984 2193.2266,102.1484 Q2192.7344,102.8984 2192.7344,103.9297 L2192.7344,105.0234 Q2192.7344,106.2578 2193.625,107.0781 Q2194.5156,107.8984 2196.1094,107.8984 Q2197.0469,107.8984 2197.7031,107.6484 Q2198.0938,107.4922 2198.5156,107.0547 Q2198.7813,106.7891 2198.9297,106.7109 Q2199.0781,106.6328 2199.2813,106.6328 Q2199.6094,106.6328 2199.8672,106.8906 Q2200.125,107.1484 2200.125,107.4922 Q2200.125,107.8359 2199.7813,108.2422 Q2199.2813,108.8203 2198.4844,109.1484 Q2197.4063,109.6016 2196.1094,109.6016 Q2194.5938,109.6016 2193.3906,108.9766 Q2192.4063,108.4766 2191.7188,107.4063 Q2191.0313,106.3359 2191.0313,105.0547 L2191.0313,103.8984 Q2191.0313,102.5703 2191.6484,101.4219 Q2192.2656,100.2734 2193.3594,99.6563 Q2194.4531,99.0391 2195.6875,99.0391 Q2196.4219,99.0391 2197.0703,99.2031 Q2197.7188,99.3672 2198.2656,99.7266 Z " fill="#000000"/><text fill="#000000" font-family="sans-serif" font-size="12" font-style="italic" lengthAdjust="spacing" textLength="52" x="2258" y="99.957">«Device»</text><text fill="#000000" font-family="sans-serif" font-size="14" lengthAdjust="spacing" textLength="149" x="2209.5" y="117.127">Measurement Algorithm</text><line style="stroke:#008000;stroke-width:0.5;" x1="2181.5" x2="2360.5" y1="125.2031" y2="125.2031"/><line style="stroke:#008000;stroke-width:0.5;" x1="2181.5" x2="2360.5" y1="133.2031" y2="133.2031"/></g><!--MD5=[83b48e2a95eae41a78b130f01f01b4b2]
class QualitativeDevice--><g id="elem_QualitativeDevice"><rect codeLine="6" fill="#D5E8D4" height="58.7031" id="QualitativeDevice" rx="2.5" ry="2.5" style="stroke:#008000;stroke-width:0.5;" width="232" x="2155" y="390.5"/><ellipse cx="2170" cy="411.8516" fill="#ADD1B2" rx="11" ry="11" style="stroke:#181818;stroke-width:1.0;"/><path d="M2172.7656,407.7266 Q2172.9219,407.5078 2173.1094,407.3984 Q2173.2969,407.2891 2173.5156,407.2891 Q2173.8906,407.2891 2174.125,407.5469 Q2174.3594,407.8047 2174.3594,408.4141 L2174.3594,409.8672 Q2174.3594,410.4766 2174.125,410.7422 Q2173.8906,411.0078 2173.5156,411.0078 Q2173.1719,411.0078 2172.9688,410.8047 Q2172.7656,410.6172 2172.6563,410.1016 Q2172.6094,409.7422 2172.4219,409.5547 Q2172.0938,409.1797 2171.4844,408.9609 Q2170.875,408.7422 2170.25,408.7422 Q2169.4844,408.7422 2168.8516,409.0703 Q2168.2188,409.3984 2167.7266,410.1484 Q2167.2344,410.8984 2167.2344,411.9297 L2167.2344,413.0234 Q2167.2344,414.2578 2168.125,415.0781 Q2169.0156,415.8984 2170.6094,415.8984 Q2171.5469,415.8984 2172.2031,415.6484 Q2172.5938,415.4922 2173.0156,415.0547 Q2173.2813,414.7891 2173.4297,414.7109 Q2173.5781,414.6328 2173.7813,414.6328 Q2174.1094,414.6328 2174.3672,414.8906 Q2174.625,415.1484 2174.625,415.4922 Q2174.625,415.8359 2174.2813,416.2422 Q2173.7813,416.8203 2172.9844,417.1484 Q2171.9063,417.6016 2170.6094,417.6016 Q2169.0938,417.6016 2167.8906,416.9766 Q2166.9063,416.4766 2166.2188,415.4062 Q2165.5313,414.3359 2165.5313,413.0547 L2165.5313,411.8984 Q2165.5313,410.5703 2166.1484,409.4219 Q2166.7656,408.2734 2167.8594,407.6562 Q2168.9531,407.0391 2170.1875,407.0391 Q2170.9219,407.0391 2171.5703,407.2031 Q2172.2188,407.3672 2172.7656,407.7266 Z " fill="#000000"/><text fill="#000000" font-family="sans-serif" font-size="12" font-style="italic" lengthAdjust="spacing" textLength="52" x="2258" y="407.957">«Device»</text><text fill="#000000" font-family="sans-serif" font-size="14" lengthAdjust="spacing" textLength="200" x="2184" y="425.127">Qualitative Evaluation Algorithm</text><line style="stroke:#008000;stroke-width:0.5;" x1="2156" x2="2386" y1="433.2031" y2="433.2031"/><line style="stroke:#008000;stroke-width:0.5;" x1="2156" x2="2386" y1="441.2031" y2="441.2031"/></g><!--MD5=[3d7640cd87099f783353155cb7e37f56]
class ImagingMeasurementGroup--><g id="elem_ImagingMeasurementGroup"><rect codeLine="8" fill="#D5E8D4" height="58.7031" id="ImagingMeasurementGroup" rx="2.5" ry="2.5" style="stroke:#008000;stroke-width:0.5;" width="215" x="710" y="544.5"/><ellipse cx="725" cy="565.8516" fill="#ADD1B2" rx="11" ry="11" style="stroke:#181818;stroke-width:1.0;"/><path d="M727.7656,561.7266 Q727.9219,561.5078 728.1094,561.3984 Q728.2969,561.2891 728.5156,561.2891 Q728.8906,561.2891 729.125,561.5469 Q729.3594,561.8047 729.3594,562.4141 L729.3594,563.8672 Q729.3594,564.4766 729.125,564.7422 Q728.8906,565.0078 728.5156,565.0078 Q728.1719,565.0078 727.9688,564.8047 Q727.7656,564.6172 727.6563,564.1016 Q727.6094,563.7422 727.4219,563.5547 Q727.0938,563.1797 726.4844,562.9609 Q725.875,562.7422 725.25,562.7422 Q724.4844,562.7422 723.8516,563.0703 Q723.2188,563.3984 722.7266,564.1484 Q722.2344,564.8984 722.2344,565.9297 L722.2344,567.0234 Q722.2344,568.2578 723.125,569.0781 Q724.0156,569.8984 725.6094,569.8984 Q726.5469,569.8984 727.2031,569.6484 Q727.5938,569.4922 728.0156,569.0547 Q728.2813,568.7891 728.4297,568.7109 Q728.5781,568.6328 728.7813,568.6328 Q729.1094,568.6328 729.3672,568.8906 Q729.625,569.1484 729.625,569.4922 Q729.625,569.8359 729.2813,570.2422 Q728.7813,570.8203 727.9844,571.1484 Q726.9063,571.6016 725.6094,571.6016 Q724.0938,571.6016 722.8906,570.9766 Q721.9063,570.4766 721.2188,569.4063 Q720.5313,568.3359 720.5313,567.0547 L720.5313,565.8984 Q720.5313,564.5703 721.1484,563.4219 Q721.7656,562.2734 722.8594,561.6563 Q723.9531,561.0391 725.1875,561.0391 Q725.9219,561.0391 726.5703,561.2031 Q727.2188,561.3672 727.7656,561.7266 Z " fill="#000000"/><text fill="#000000" font-family="sans-serif" font-size="12" font-style="italic" lengthAdjust="spacing" textLength="81" x="790" y="561.957">«Observation»</text><text fill="#000000" font-family="sans-serif" font-size="14" lengthAdjust="spacing" textLength="183" x="739" y="579.127">Imaging Measurement Group</text><line style="stroke:#008000;stroke-width:0.5;" x1="711" x2="924" y1="587.2031" y2="587.2031"/><line style="stroke:#008000;stroke-width:0.5;" x1="711" x2="924" y1="595.2031" y2="595.2031"/></g><!--MD5=[bb88d34a80cd9044150c6a92244c01f2]
class ImagingMeasurement--><g id="elem_ImagingMeasurement"><rect codeLine="9" fill="#D5E8D4" height="58.7031" id="ImagingMeasurement" rx="2.5" ry="2.5" style="stroke:#008000;stroke-width:0.5;" width="171" x="1205" y="201.5"/><ellipse cx="1220" cy="222.8516" fill="#ADD1B2" rx="11" ry="11" style="stroke:#181818;stroke-width:1.0;"/><path d="M1222.7656,218.7266 Q1222.9219,218.5078 1223.1094,218.3984 Q1223.2969,218.2891 1223.5156,218.2891 Q1223.8906,218.2891 1224.125,218.5469 Q1224.3594,218.8047 1224.3594,219.4141 L1224.3594,220.8672 Q1224.3594,221.4766 1224.125,221.7422 Q1223.8906,222.0078 1223.5156,222.0078 Q1223.1719,222.0078 1222.9688,221.8047 Q1222.7656,221.6172 1222.6563,221.1016 Q1222.6094,220.7422 1222.4219,220.5547 Q1222.0938,220.1797 1221.4844,219.9609 Q1220.875,219.7422 1220.25,219.7422 Q1219.4844,219.7422 1218.8516,220.0703 Q1218.2188,220.3984 1217.7266,221.1484 Q1217.2344,221.8984 1217.2344,222.9297 L1217.2344,224.0234 Q1217.2344,225.2578 1218.125,226.0781 Q1219.0156,226.8984 1220.6094,226.8984 Q1221.5469,226.8984 1222.2031,226.6484 Q1222.5938,226.4922 1223.0156,226.0547 Q1223.2813,225.7891 1223.4297,225.7109 Q1223.5781,225.6328 1223.7813,225.6328 Q1224.1094,225.6328 1224.3672,225.8906 Q1224.625,226.1484 1224.625,226.4922 Q1224.625,226.8359 1224.2813,227.2422 Q1223.7813,227.8203 1222.9844,228.1484 Q1221.9063,228.6016 1220.6094,228.6016 Q1219.0938,228.6016 1217.8906,227.9766 Q1216.9063,227.4766 1216.2188,226.4063 Q1215.5313,225.3359 1215.5313,224.0547 L1215.5313,222.8984 Q1215.5313,221.5703 1216.1484,220.4219 Q1216.7656,219.2734 1217.8594,218.6563 Q1218.9531,218.0391 1220.1875,218.0391 Q1220.9219,218.0391 1221.5703,218.2031 Q1222.2188,218.3672 1222.7656,218.7266 Z " fill="#000000"/><text fill="#000000" font-family="sans-serif" font-size="12" font-style="italic" lengthAdjust="spacing" textLength="81" x="1263" y="218.957">«Observation»</text><text fill="#000000" font-family="sans-serif" font-size="14" lengthAdjust="spacing" textLength="139" x="1234" y="236.127">Imaging Measurement</text><line style="stroke:#008000;stroke-width:0.5;" x1="1206" x2="1375" y1="244.2031" y2="244.2031"/><line style="stroke:#008000;stroke-width:0.5;" x1="1206" x2="1375" y1="252.2031" y2="252.2031"/></g><!--MD5=[57f4290ba0ded235bd39bc1042cc846f]
class ImagingQualitativeEvaluation--><g id="elem_ImagingQualitativeEvaluation"><rect codeLine="10" fill="#D5E8D4" height="58.7031" id="ImagingQualitativeEvaluation" rx="2.5" ry="2.5" style="stroke:#008000;stroke-width:0.5;" width="222" x="1179.5" y="385.5"/><ellipse cx="1194.5" cy="406.8516" fill="#ADD1B2" rx="11" ry="11" style="stroke:#181818;stroke-width:1.0;"/><path d="M1197.2656,402.7266 Q1197.4219,402.5078 1197.6094,402.3984 Q1197.7969,402.2891 1198.0156,402.2891 Q1198.3906,402.2891 1198.625,402.5469 Q1198.8594,402.8047 1198.8594,403.4141 L1198.8594,404.8672 Q1198.8594,405.4766 1198.625,405.7422 Q1198.3906,406.0078 1198.0156,406.0078 Q1197.6719,406.0078 1197.4688,405.8047 Q1197.2656,405.6172 1197.1563,405.1016 Q1197.1094,404.7422 1196.9219,404.5547 Q1196.5938,404.1797 1195.9844,403.9609 Q1195.375,403.7422 1194.75,403.7422 Q1193.9844,403.7422 1193.3516,404.0703 Q1192.7188,404.3984 1192.2266,405.1484 Q1191.7344,405.8984 1191.7344,406.9297 L1191.7344,408.0234 Q1191.7344,409.2578 1192.625,410.0781 Q1193.5156,410.8984 1195.1094,410.8984 Q1196.0469,410.8984 1196.7031,410.6484 Q1197.0938,410.4922 1197.5156,410.0547 Q1197.7813,409.7891 1197.9297,409.7109 Q1198.0781,409.6328 1198.2813,409.6328 Q1198.6094,409.6328 1198.8672,409.8906 Q1199.125,410.1484 1199.125,410.4922 Q1199.125,410.8359 1198.7813,411.2422 Q1198.2813,411.8203 1197.4844,412.1484 Q1196.4063,412.6016 1195.1094,412.6016 Q1193.5938,412.6016 1192.3906,411.9766 Q1191.4063,411.4766 1190.7188,410.4062 Q1190.0313,409.3359 1190.0313,408.0547 L1190.0313,406.8984 Q1190.0313,405.5703 1190.6484,404.4219 Q1191.2656,403.2734 1192.3594,402.6562 Q1193.4531,402.0391 1194.6875,402.0391 Q1195.4219,402.0391 1196.0703,402.2031 Q1196.7188,402.3672 1197.2656,402.7266 Z " fill="#000000"/><text fill="#000000" font-family="sans-serif" font-size="12" font-style="italic" lengthAdjust="spacing" textLength="81" x="1263" y="402.957">«Observation»</text><text fill="#000000" font-family="sans-serif" font-size="14" lengthAdjust="spacing" textLength="190" x="1208.5" y="420.127">Imaging Qualitative Evaluation</text><line style="stroke:#008000;stroke-width:0.5;" x1="1180.5" x2="1400.5" y1="428.2031" y2="428.2031"/><line style="stroke:#008000;stroke-width:0.5;" x1="1180.5" x2="1400.5" y1="436.2031" y2="436.2031"/></g><g id="elem_MGNote"><path d="M1083,649 L1083,675.3516 L1498,675.3516 L1498,659 L1488,649 L1083,649 " fill="#FEFFDD" style="stroke:#181818;stroke-width:0.5;"/><path d="M1488,649 L1488,659 L1498,659 L1488,649 " fill="#FEFFDD" style="stroke:#181818;stroke-width:1.0;"/><text fill="#000000" font-family="sans-serif" font-size="13" lengthAdjust="spacing" textLength="394" x="1089" y="667.4951">If Measurement Group Algorithm is not present device is Equipment.</text></g><g id="elem_MNote"><path d="M1629,182 L1629,208.3516 L2005,208.3516 L2005,192 L1995,182 L1629,182 " fill="#FEFFDD" style="stroke:#181818;stroke-width:0.5;"/><path d="M1995,182 L1995,192 L2005,192 L1995,182 " fill="#FEFFDD" style="stroke:#181818;stroke-width:1.0;"/><text fill="#000000" font-family="sans-serif" font-size="13" lengthAdjust="spacing" textLength="355" x="1635" y="200.4951">If Measurement Algorithm is not present device is Equipment.</text></g><g id="elem_QENote"><path d="M1607,336 L1607,362.3516 L2027,362.3516 L2027,346 L2017,336 L1607,336 " fill="#FEFFDD" style="stroke:#181818;stroke-width:0.5;"/><path d="M2017,336 L2017,346 L2027,346 L2017,336 " fill="#FEFFDD" style="stroke:#181818;stroke-width:1.0;"/><text fill="#000000" font-family="sans-serif" font-size="13" lengthAdjust="spacing" textLength="399" x="1613" y="354.4951">If Qualitative Evaluation Algorithm is not present device is Equipment.</text></g><!--MD5=[a389552badd889caa0a4c45f48655bf2]
link DICOM.equipment.ie to EquipmentDevice--><g id="link_DICOM.equipment.ie_EquipmentDevice"><path codeLine="31" d="M579.6364,30.2722 C580.5416,30.2636 581.4477,30.255 582.3546,30.2465 C585.9822,30.2124 589.6232,30.1788 593.2762,30.1456 C607.8884,30.0127 622.6934,29.8872 637.6078,29.7714 C697.2656,29.3081 758.675,29 816.5,29 C816.5,29 816.5,29 2272,29 C2372.66,29 2417.25,31.55 2485,106 C2541.47,168.06 2557.32,270.25 2561.77,323.43 " fill="none" id="DICOM.equipment.ie-to-EquipmentDevice" style="stroke:#181818;stroke-width:1.0;"/><polygon fill="#181818" points="2562.16,328.42,2565.4274,319.1289,2561.7601,323.436,2557.4531,319.7687,2562.16,328.42" style="stroke:#181818;stroke-width:1.0;"/><text fill="#000000" font-family="sans-serif" font-size="13" lengthAdjust="spacing" textLength="47" x="1529" y="25.4951">maps to</text></g><!--MD5=[358a5e4a5453c2da20320eff1a589528]
link CONTAINER.imaging.measurements to ImagingMeasurementGroup--><g id="link_CONTAINER.imaging.measurements_ImagingMeasurementGroup"><path codeLine="33" d="M489.7838,574 C490.4755,574 491.1679,574 491.8608,574 C497.4047,574 502.9881,574 508.6003,574 C531.0489,574 553.958,574 576.642,574 C622.01,574 666.4775,574 704.56,574 " fill="none" id="CONTAINER.imaging.measurements-to-ImagingMeasurementGroup" style="stroke:#181818;stroke-width:1.0;"/><polygon fill="#181818" points="709.94,574,700.94,570,704.94,574,700.94,578,709.94,574" style="stroke:#181818;stroke-width:1.0;"/><text fill="#000000" font-family="sans-serif" font-size="13" lengthAdjust="spacing" textLength="77" x="602" y="570.4951">contains[0..*]</text></g><!--MD5=[6e5918a2413ce01f9ec27cf331e0b876]
link CONTAINER.qualitative.evaluations to ImagingQualitativeEvaluation--><g id="link_CONTAINER.qualitative.evaluations_ImagingQualitativeEvaluation"><path codeLine="34" d="M351.0149,287.0498 C351.7852,287.1549 352.5622,287.2608 353.3457,287.3677 C365.8818,289.0769 380.0914,291.0143 395.7394,293.1478 C458.3313,301.6819 543.9375,313.3537 637.515,326.1125 C824.67,351.63 1043.71,381.495 1174.29,399.3 " fill="none" id="CONTAINER.qualitative.evaluations-to-ImagingQualitativeEvaluation" style="stroke:#181818;stroke-width:1.0;"/><polygon fill="#181818" points="1179.26,399.97,1170.893,394.7745,1174.3072,399.2849,1169.7968,402.6991,1179.26,399.97" style="stroke:#181818;stroke-width:1.0;"/><text fill="#000000" font-family="sans-serif" font-size="13" lengthAdjust="spacing" textLength="77" x="779" y="334.4951">contains[0..*]</text></g><!--MD5=[a64112a2c3201709622cfcb5af043e04]
link ImagingMeasurementGroup to ImagingMeasurement--><g id="link_ImagingMeasurementGroup_ImagingMeasurement"><path codeLine="36" d="M854.63,544.45 C904.95,503.62 999.38,428.17 1083,368 C1134.83,330.71 1195.96,290.62 1238.19,263.5 " fill="none" id="ImagingMeasurementGroup-to-ImagingMeasurement" style="stroke:#181818;stroke-width:1.0;"/><polygon fill="#181818" points="1242.48,260.75,1232.7441,262.2371,1238.2699,263.4473,1237.0597,268.9732,1242.48,260.75" style="stroke:#181818;stroke-width:1.0;"/><text fill="#000000" font-family="sans-serif" font-size="13" lengthAdjust="spacing" textLength="96" x="956" y="391.4951">hasMember[0..*]</text></g><!--MD5=[b39ee382287a633ec7edf15e3d3826dd]
link ImagingMeasurementGroup to ImagingQualitativeEvaluation--><g id="link_ImagingMeasurementGroup_ImagingQualitativeEvaluation"><path codeLine="37" d="M905.99,544.47 C988.89,516.48 1112.93,474.61 1197.34,446.11 " fill="none" id="ImagingMeasurementGroup-to-ImagingQualitativeEvaluation" style="stroke:#181818;stroke-width:1.0;"/><polygon fill="#181818" points="1202.08,444.51,1192.2761,443.5702,1197.338,446.0954,1194.8128,451.1574,1202.08,444.51" style="stroke:#181818;stroke-width:1.0;"/><text fill="#000000" font-family="sans-serif" font-size="13" lengthAdjust="spacing" textLength="96" x="956" y="496.4951">hasMember[0..*]</text></g><!--MD5=[1d17ebbef82e4b37c72f6c221302950d]
link ImagingMeasurementGroup to MeasurementGroupDevice--><g id="link_ImagingMeasurementGroup_MeasurementGroupDevice"><path codeLine="38" d="M861.48,603.75 C911.92,636.83 999.34,688.56 1083,711 C1294.58,767.77 1552.65,763.62 1699.29,754.77 " fill="none" id="ImagingMeasurementGroup-to-MeasurementGroupDevice" style="stroke:#181818;stroke-width:1.0;"/><polygon fill="#181818" points="1704.46,754.45,1695.2268,751.0225,1699.4698,754.7637,1695.7287,759.0067,1704.46,754.45" style="stroke:#181818;stroke-width:1.0;"/><text fill="#000000" font-family="sans-serif" font-size="13" lengthAdjust="spacing" textLength="66" x="1257.5" y="707.4951">device[1..1]</text></g><!--MD5=[bc36325619add84f371ee2cb6de84d6e]
link ImagingMeasurementGroup to EquipmentDevice--><g id="link_ImagingMeasurementGroup_EquipmentDevice"><path codeLine="39" d="M925.12,574 C1020.59,574 1164.39,574 1289.5,574 C1289.5,574 1289.5,574 2272,574 C2378.34,574 2404.27,534.23 2485,465 C2509.1,444.33 2530,414.91 2544.17,392.15 " fill="none" id="ImagingMeasurementGroup-to-EquipmentDevice" style="stroke:#181818;stroke-width:1.0;"/><polygon fill="#181818" points="2546.91,387.69,2538.7917,393.2661,2544.2935,391.9507,2545.6089,397.4525,2546.91,387.69" style="stroke:#181818;stroke-width:1.0;"/><text fill="#000000" font-family="sans-serif" font-size="13" lengthAdjust="spacing" textLength="66" x="1784" y="570.4951">device[1..1]</text></g><!--MD5=[1681e20475c1e61869680025b27d2bb1]
link ImagingMeasurementGroup to MGNote--><g id="link_ImagingMeasurementGroup_MGNote"><path codeLine="40" d="M925.05,594.35 C935.17,596.27 945.28,598.18 955,600 C1045.99,617.1 1150.96,636.51 1218.68,648.98 " fill="none" id="ImagingMeasurementGroup-MGNote" style="stroke:#181818;stroke-width:1.0;stroke-dasharray:7.0,7.0;"/></g><!--MD5=[92688b8a14069fa3f574a804da3cd391]
link MGNote to MeasurementGroupDevice--><g id="link_MGNote_MeasurementGroupDevice"><path codeLine="41" d="M1373.74,675.02 C1462.68,689.09 1605.01,711.61 1704.09,727.29 " fill="none" id="MGNote-MeasurementGroupDevice" style="stroke:#181818;stroke-width:1.0;stroke-dasharray:7.0,7.0;"/></g><!--MD5=[cd3ecb346ef66a729f61c7a7457706e0]
link MGNote to EquipmentDevice--><g id="link_MGNote_EquipmentDevice"><path codeLine="42" d="M1447.8,675.01 C1733.87,695.47 2326.87,721.34 2485,600 C2551.58,548.91 2562.57,440.36 2563.81,387.78 " fill="none" id="MGNote-EquipmentDevice" style="stroke:#181818;stroke-width:1.0;stroke-dasharray:7.0,7.0;"/></g><!--MD5=[71397c9dcca28f36268cd4da157193a9]
link ImagingMeasurement to MeasurementDevice--><g id="link_ImagingMeasurement_MeasurementDevice"><path codeLine="45" d="M1376.32,209.83 C1439.53,194.83 1528.17,175.41 1607,164 C1808.04,134.9 2045.89,121.24 2175.01,115.54 " fill="none" id="ImagingMeasurement-to-MeasurementDevice" style="stroke:#181818;stroke-width:1.0;"/><polygon fill="#181818" points="2180.31,115.31,2171.147,111.699,2175.3146,115.5241,2171.4895,119.6917,2180.31,115.31" style="stroke:#181818;stroke-width:1.0;"/><text fill="#000000" font-family="sans-serif" font-size="13" lengthAdjust="spacing" textLength="66" x="1784" y="120.4951">device[1..1]</text></g><!--MD5=[c15f990741282015ff23868adae8c9d4]
link ImagingMeasurement to EquipmentDevice--><g id="link_ImagingMeasurement_EquipmentDevice"><path codeLine="46" d="M1376.1,230.95 C1572.88,232.36 2075.76,244.87 2485,331 C2493.06,332.7 2501.43,334.98 2509.57,337.51 " fill="none" id="ImagingMeasurement-to-EquipmentDevice" style="stroke:#181818;stroke-width:1.0;"/><polygon fill="#181818" points="2514.61,339.11,2507.2473,332.5686,2509.8456,337.5934,2504.8207,340.1917,2514.61,339.11" style="stroke:#181818;stroke-width:1.0;"/><text fill="#000000" font-family="sans-serif" font-size="13" lengthAdjust="spacing" textLength="66" x="2058" y="264.4951">device[1..1]</text></g><!--MD5=[c0ff61b2b6a21b043b6e628e2fc29f61]
link ImagingMeasurement to MNote--><g id="link_ImagingMeasurement_MNote"><path codeLine="47" d="M1376.06,225.2 C1444.15,220.53 1542.42,213.78 1628.82,207.85 " fill="none" id="ImagingMeasurement-MNote" style="stroke:#181818;stroke-width:1.0;stroke-dasharray:7.0,7.0;"/></g><!--MD5=[a33eeef74a9be50ce632b26c7d8bf44e]
link MNote to MeasurementDevice--><g id="link_MNote_MeasurementDevice"><path codeLine="48" d="M1889.12,181.94 C1967.81,167.49 2094.76,144.18 2180.23,128.49 " fill="none" id="MNote-MeasurementDevice" style="stroke:#181818;stroke-width:1.0;stroke-dasharray:7.0,7.0;"/></g><!--MD5=[14638918f9503b0050ce107ec351c173]
link MNote to EquipmentDevice--><g id="link_MNote_EquipmentDevice"><path codeLine="49" d="M2005.14,189.48 C2173.55,187.73 2406.25,194.33 2485,240 C2518.84,259.63 2540.93,300.4 2552.81,328.47 " fill="none" id="MNote-EquipmentDevice" style="stroke:#181818;stroke-width:1.0;stroke-dasharray:7.0,7.0;"/></g><!--MD5=[ff0d3198f57b283d362657f31da9af4a]
link ImagingQualitativeEvaluation to QualitativeDevice--><g id="link_ImagingQualitativeEvaluation_QualitativeDevice"><path codeLine="51" d="M1401.84,415.57 C1586.88,416.51 1958.24,418.41 2149.72,419.39 " fill="none" id="ImagingQualitativeEvaluation-to-QualitativeDevice" style="stroke:#181818;stroke-width:1.0;"/><polygon fill="#181818" points="2154.77,419.41,2145.793,415.3586,2149.7701,419.3814,2145.7473,423.3585,2154.77,419.41" style="stroke:#181818;stroke-width:1.0;"/><text fill="#000000" font-family="sans-serif" font-size="13" lengthAdjust="spacing" textLength="66" x="1784" y="413.4951">device[1..1]</text></g><!--MD5=[82f6b3faefe02a02359de90c542560d3]
link ImagingQualitativeEvaluation to EquipmentDevice--><g id="link_ImagingQualitativeEvaluation_EquipmentDevice"><path codeLine="52" d="M1401.82,443.02 C1602.39,489 2038.3,566 2387,467 C2439.1,452.21 2490.9,417.18 2524.77,390.8 " fill="none" id="ImagingQualitativeEvaluation-to-EquipmentDevice" style="stroke:#181818;stroke-width:1.0;"/><polygon fill="#181818" points="2528.81,387.63,2519.2615,390.0436,2524.8779,390.7185,2524.203,396.3349,2528.81,387.63" style="stroke:#181818;stroke-width:1.0;"/><text fill="#000000" font-family="sans-serif" font-size="13" lengthAdjust="spacing" textLength="66" x="2058" y="508.4951">device[1..1]</text></g><!--MD5=[820be60ad2765c09d0b741ba3ce0e047]
link ImagingQualitativeEvaluation to QENote--><g id="link_ImagingQualitativeEvaluation_QENote"><path codeLine="53" d="M1401.77,401.13 C1493.42,389.59 1622.87,373.31 1712.56,362.02 " fill="none" id="ImagingQualitativeEvaluation-QENote" style="stroke:#181818;stroke-width:1.0;stroke-dasharray:7.0,7.0;"/></g><!--MD5=[a33ef0eb02e426bd041a44b866957b13]
link QENote to QualitativeDevice--><g id="link_QENote_QualitativeDevice"><path codeLine="54" d="M1900.9,362.03 C1972.14,373.21 2075.59,389.47 2154.86,401.92 " fill="none" id="QENote-QualitativeDevice" style="stroke:#181818;stroke-width:1.0;stroke-dasharray:7.0,7.0;"/></g><!--MD5=[fb09988c4351e87e123d07ba674cb7b5]
link QENote to EquipmentDevice--><g id="link_QENote_EquipmentDevice"><path codeLine="55" d="M2027.15,351.53 C2194.91,353.55 2417.83,356.24 2514.89,357.42 " fill="none" id="QENote-EquipmentDevice" style="stroke:#181818;stroke-width:1.0;stroke-dasharray:7.0,7.0;"/></g><!--MD5=[2fe49f83a11d0643f2a3d140c9ce4634]
link MeasurementDevice to EquipmentDevice--><g id="link_MeasurementDevice_EquipmentDevice"><path codeLine="58" d="M2361.6,117.94 C2403.31,124.87 2451.09,139.3 2485,169 C2530.97,209.27 2550.61,280.75 2558.54,323.32 " fill="none" id="MeasurementDevice-to-EquipmentDevice" style="stroke:#181818;stroke-width:1.0;"/><polygon fill="#181818" points="2559.45,328.37,2561.7682,318.7979,2558.5518,323.4513,2553.8983,320.235,2559.45,328.37" style="stroke:#181818;stroke-width:1.0;"/><text fill="#000000" font-family="sans-serif" font-size="13" lengthAdjust="spacing" textLength="66" x="2418" y="128.4951">parent[1..1]</text></g><!--MD5=[503e3dab9ac8522f3a9b2157c8f68d87]
link MeasurementGroupDevice to EquipmentDevice--><g id="link_MeasurementGroupDevice_EquipmentDevice"><path codeLine="60" d="M1929.56,773.11 C2077.39,803 2336.76,828.74 2485,688 C2527.65,647.51 2551.53,469.37 2559.97,392.98 " fill="none" id="MeasurementGroupDevice-to-EquipmentDevice" style="stroke:#181818;stroke-width:1.0;"/><polygon fill="#181818" points="2560.55,387.66,2555.5967,396.1726,2560.0072,392.6305,2563.5494,397.041,2560.55,387.66" style="stroke:#181818;stroke-width:1.0;"/><text fill="#000000" font-family="sans-serif" font-size="13" lengthAdjust="spacing" textLength="66" x="2238" y="752.4951">parent[1..1]</text></g><!--MD5=[f07342a9d6b0f4632be0a71d9f3f5cee]
link QualitativeDevice to EquipmentDevice--><g id="link_QualitativeDevice_EquipmentDevice"><path codeLine="62" d="M2387.14,401.18 C2418.98,395.36 2453.45,388.49 2485,381 C2493.01,379.1 2501.42,376.88 2509.63,374.59 " fill="none" id="QualitativeDevice-to-EquipmentDevice" style="stroke:#181818;stroke-width:1.0;"/><polygon fill="#181818" points="2514.72,373.15,2504.9723,371.742,2509.9076,374.5066,2507.1429,379.4419,2514.72,373.15" style="stroke:#181818;stroke-width:1.0;"/><text fill="#000000" font-family="sans-serif" font-size="13" lengthAdjust="spacing" textLength="66" x="2418" y="377.4951">parent[1..1]</text></g><!--MD5=[d006242a1ffd5da714926f072d82542e]
@startuml dicom_sr_device
left to right direction

class "Equipment" as EquipmentDevice <<Device>> #d5e8d4 ##green
class "Measurement Group Algorithm" as MeasurementGroupDevice <<Device>> #d5e8d4 ##green
class "Measurement Algorithm" as MeasurementDevice <<Device>> #d5e8d4 ##green
class "Qualitative Evaluation Algorithm" as QualitativeDevice <<Device>> #d5e8d4 ##green

class "Imaging Measurement Group" as ImagingMeasurementGroup <<Observation>> #d5e8d4 ##green
class "Imaging Measurement" as ImagingMeasurement <<Observation>> #d5e8d4 ##green
class "Imaging Qualitative Evaluation" as ImagingQualitativeEvaluation <<Observation>> #d5e8d4 ##green
note "If Measurement Group Algorithm is not present device is Equipment." as MGNote
note "If Measurement Algorithm is not present device is Equipment." as MNote
note "If Qualitative Evaluation Algorithm is not present device is Equipment." as QENote

package DICOM.equipment.ie #EEEEEE {
    package DICOM.document.ie #EEEEEE {
        package TID.1500.measurement.report #EEEEEE {
            package CONTAINER.imaging.measurements {
                package 0..n.CONTAINER.imaging.measurement.group {
                    Object 0..n.imaging.measurement
                    Object 0..n.imaging.qualitative.evaluation
                    }
            }
            package CONTAINER.qualitative.evaluations {
                Object 0..n.qualitative.evaluation
            }
        }
    }
}

DICOM.equipment.ie - -> EquipmentDevice: maps to

CONTAINER.imaging.measurements - -> ImagingMeasurementGroup : contains[0..*]
CONTAINER.qualitative.evaluations - -> ImagingQualitativeEvaluation : contains[0..*]

ImagingMeasurementGroup - -> ImagingMeasurement : hasMember[0..*]
ImagingMeasurementGroup - -> ImagingQualitativeEvaluation : hasMember[0..*]
ImagingMeasurementGroup - -> MeasurementGroupDevice : device[1..1]
ImagingMeasurementGroup - -> EquipmentDevice : device[1..1]
ImagingMeasurementGroup .. MGNote
MGNote .. MeasurementGroupDevice
MGNote .. EquipmentDevice


ImagingMeasurement - -> MeasurementDevice : device[1..1]
ImagingMeasurement - -> EquipmentDevice : device[1..1]
ImagingMeasurement .. MNote
MNote .. MeasurementDevice
MNote .. EquipmentDevice

ImagingQualitativeEvaluation - -> QualitativeDevice : device[1..1]
ImagingQualitativeEvaluation - -> EquipmentDevice : device[1..1]
ImagingQualitativeEvaluation .. QENote
QENote .. QualitativeDevice
QENote .. EquipmentDevice


MeasurementDevice - -> EquipmentDevice : parent[1..1]

MeasurementGroupDevice - -> EquipmentDevice : parent[1..1]

QualitativeDevice - -> EquipmentDevice : parent[1..1]

@enduml

PlantUML version 1.2022.7(Mon Aug 22 13:01:30 EDT 2022)
(GPL source distribution)
Java Runtime: Java(TM) SE Runtime Environment
JVM: Java HotSpot(TM) 64-Bit Server VM
Default Encoding: Cp1252
Language: en
Country: US
--></g></svg>