<svg xmlns="http://www.w3.org/2000/svg" xmlns:xlink="http://www.w3.org/1999/xlink" contentStyleType="text/css" data-diagram-type="CLASS" height="1759px" preserveAspectRatio="none" style="width:2176px;height:1759px;background:#FFFFFF;" version="1.1" viewBox="0 0 2176 1759" width="2176px" zoomAndPan="magnify"><defs/><g><!--cluster Resource Profiles in this IG--><g class="cluster" data-entity="Resource Profiles in this IG" data-source-line="12" data-uid="ent0010" id="cluster_Resource Profiles in this IG"><path d="M8.5,6.0137 L192.3271,6.0137 A3.75,3.75 0 0 1 194.8271,8.5137 L201.8271,30.6348 L1980.5,30.6348 A2.5,2.5 0 0 1 1983,33.1348 L1983,1270.5137 A2.5,2.5 0 0 1 1980.5,1273.0137 L8.5,1273.0137 A2.5,2.5 0 0 1 6,1270.5137 L6,8.5137 A2.5,2.5 0 0 1 8.5,6.0137" fill="none" style="stroke:#000000;stroke-width:1.5;"/><line style="stroke:#000000;stroke-width:1.5;" x1="6" x2="201.8271" y1="30.6348" y2="30.6348"/><text fill="#000000" font-family="sans-serif" font-size="14" font-weight="bold" lengthAdjust="spacing" textLength="182.8271" x="10" y="23.1211">Resource Profiles in this IG</text></g><!--cluster Device - - One per observation--><g class="cluster" data-entity="Device -- One per observation" data-source-line="13" data-uid="ent0011" id="cluster_Device -- One per observation"><path d="M1340,982.0137 L1539.3926,982.0137 A3.75,3.75 0 0 1 1541.8926,984.5137 L1548.8926,1006.6348 L1559,1006.6348 A2.5,2.5 0 0 1 1561.5,1009.1348 L1561.5,1246.5137 A2.5,2.5 0 0 1 1559,1249.0137 L1340,1249.0137 A2.5,2.5 0 0 1 1337.5,1246.5137 L1337.5,984.5137 A2.5,2.5 0 0 1 1340,982.0137" fill="none" style="stroke:#000000;stroke-width:1.5;"/><line style="stroke:#000000;stroke-width:1.5;" x1="1337.5" x2="1548.8926" y1="1006.6348" y2="1006.6348"/><text fill="#000000" font-family="sans-serif" font-size="14" font-weight="bold" lengthAdjust="spacing" textLength="198.3926" x="1341.5" y="999.1211">Device -- One per observation</text></g><!--cluster ImagingSelection - - Only one per observation--><g class="cluster" data-entity="ImagingSelection -- Only one per observation" data-source-line="22" data-uid="ent0017" id="cluster_ImagingSelection -- Only one per observation"><path d="M1293.5,51.0137 L1596.3271,51.0137 A3.75,3.75 0 0 1 1598.8271,53.5137 L1605.8271,75.6348 L1605.5,75.6348 A2.5,2.5 0 0 1 1608,78.1348 L1608,813.5137 A2.5,2.5 0 0 1 1605.5,816.0137 L1293.5,816.0137 A2.5,2.5 0 0 1 1291,813.5137 L1291,53.5137 A2.5,2.5 0 0 1 1293.5,51.0137" fill="none" style="stroke:#000000;stroke-width:1.5;"/><line style="stroke:#000000;stroke-width:1.5;" x1="1291" x2="1605.8271" y1="75.6348" y2="75.6348"/><text fill="#000000" font-family="sans-serif" font-size="14" font-weight="bold" lengthAdjust="spacing" textLength="301.8271" x="1295" y="68.1211">ImagingSelection -- Only one per observation</text></g><!--class ParticipantPractitioner--><g class="entity" data-entity="ParticipantPractitioner" data-source-line="19" data-uid="ent0015" id="entity_ParticipantPractitioner"><rect fill="#F1F1F1" height="48" rx="2.5" ry="2.5" style="stroke:#181818;stroke-width:0.5;" width="168.9512" x="1365" y="918.0137"/><ellipse cx="1380" cy="934.0137" fill="#ADD1B2" rx="11" ry="11" style="stroke:#181818;stroke-width:1;"/><path d="M1382.7656,929.8887 Q1382.9219,929.6699 1383.1094,929.5605 Q1383.2969,929.4512 1383.5156,929.4512 Q1383.8906,929.4512 1384.125,929.7168 Q1384.3594,929.9668 1384.3594,930.5762 L1384.3594,932.0293 Q1384.3594,932.6387 1384.125,932.9043 Q1383.8906,933.1699 1383.5156,933.1699 Q1383.1719,933.1699 1382.9688,932.9668 Q1382.7656,932.7793 1382.6563,932.2637 Q1382.6094,931.9043 1382.4219,931.7168 Q1382.0938,931.3418 1381.4844,931.123 Q1380.875,930.9043 1380.25,930.9043 Q1379.4844,930.9043 1378.8438,931.2324 Q1378.2188,931.5605 1377.7188,932.3105 Q1377.2344,933.0605 1377.2344,934.0918 L1377.2344,935.1855 Q1377.2344,936.4199 1378.125,937.248 Q1379.0156,938.0605 1380.6094,938.0605 Q1381.5469,938.0605 1382.2031,937.8105 Q1382.5938,937.6543 1383.0156,937.2168 Q1383.2813,936.9512 1383.4219,936.873 Q1383.5781,936.7949 1383.7813,936.7949 Q1384.1094,936.7949 1384.3594,937.0605 Q1384.625,937.3105 1384.625,937.6543 Q1384.625,937.998 1384.2813,938.4043 Q1383.7813,938.9824 1382.9844,939.3105 Q1381.9063,939.7637 1380.6094,939.7637 Q1379.0938,939.7637 1377.8906,939.1387 Q1376.9063,938.6387 1376.2188,937.5762 Q1375.5313,936.498 1375.5313,935.2168 L1375.5313,934.0605 Q1375.5313,932.7324 1376.1406,931.5918 Q1376.7656,930.4355 1377.8594,929.8262 Q1378.9531,929.2012 1380.1875,929.2012 Q1380.9219,929.2012 1381.5625,929.373 Q1382.2188,929.5293 1382.7656,929.8887 Z " fill="#000000"/><text fill="#000000" font-family="sans-serif" font-size="14" lengthAdjust="spacing" textLength="136.9512" x="1394" y="939.8105">ParticipantPractitioner</text><line style="stroke:#181818;stroke-width:0.5;" x1="1366" x2="1532.9512" y1="950.0137" y2="950.0137"/><line style="stroke:#181818;stroke-width:0.5;" x1="1366" x2="1532.9512" y1="958.0137" y2="958.0137"/></g><!--class ObservationImagingSelection--><g class="entity" data-entity="ObservationImagingSelection" data-source-line="21" data-uid="ent0016" id="entity_ObservationImagingSelection"><rect fill="#F1F1F1" height="48" rx="2.5" ry="2.5" style="stroke:#181818;stroke-width:0.5;" width="214.8818" x="1752" y="420.0137"/><ellipse cx="1767" cy="436.0137" fill="#A9DCDF" rx="11" ry="11" style="stroke:#181818;stroke-width:1;"/><path d="M1769.1875,437.7793 L1765.0469,437.7793 L1764.625,438.8105 L1765.0469,438.8105 Q1765.6563,438.8105 1765.9219,439.0449 Q1766.1875,439.2793 1766.1875,439.6699 Q1766.1875,440.0449 1765.9219,440.2793 Q1765.6563,440.5137 1765.0469,440.5137 L1762.75,440.5137 Q1762.1406,440.5137 1761.8906,440.2793 Q1761.625,440.0449 1761.625,439.6543 Q1761.625,439.2793 1761.9063,439.0449 Q1762.1719,438.7949 1762.7969,438.8105 L1765.4688,432.1543 L1764.3594,432.1543 Q1763.75,432.1543 1763.4844,431.9199 Q1763.2188,431.6855 1763.2188,431.2949 Q1763.2188,430.9199 1763.4844,430.6855 Q1763.75,430.4512 1764.3594,430.4512 L1768.0313,430.4512 L1771.4219,438.8105 Q1772.0156,438.8105 1772.2031,438.9512 Q1772.5938,439.2168 1772.5938,439.6699 Q1772.5938,440.0449 1772.3281,440.2793 Q1772.0781,440.5137 1771.4688,440.5137 L1769.1719,440.5137 Q1768.5625,440.5137 1768.2969,440.2793 Q1768.0313,440.0449 1768.0313,439.6543 Q1768.0313,439.2793 1768.2969,439.0449 Q1768.5625,438.8105 1769.1719,438.8105 L1769.5938,438.8105 L1769.1875,437.7793 Z M1768.4688,436.0762 L1767.1094,432.7012 L1765.7344,436.0762 L1768.4688,436.0762 Z " fill="#000000"/><text fill="#000000" font-family="sans-serif" font-size="14" font-style="italic" lengthAdjust="spacing" textLength="182.8818" x="1781" y="441.8105">ObservationImagingSelection</text><line style="stroke:#181818;stroke-width:0.5;" x1="1753" x2="1965.8818" y1="452.0137" y2="452.0137"/><line style="stroke:#181818;stroke-width:0.5;" x1="1753" x2="1965.8818" y1="460.0137" y2="460.0137"/></g><!--class FindingSite--><g class="entity" data-entity="FindingSite" data-source-line="34" data-uid="ent0027" id="entity_FindingSite"><rect fill="#F1F1F1" height="48" rx="2.5" ry="2.5" style="stroke:#181818;stroke-width:0.5;" width="102.041" x="1398.5" y="835.0137"/><ellipse cx="1413.5" cy="851.0137" fill="#ADD1B2" rx="11" ry="11" style="stroke:#181818;stroke-width:1;"/><path d="M1416.2656,846.8887 Q1416.4219,846.6699 1416.6094,846.5605 Q1416.7969,846.4512 1417.0156,846.4512 Q1417.3906,846.4512 1417.625,846.7168 Q1417.8594,846.9668 1417.8594,847.5762 L1417.8594,849.0293 Q1417.8594,849.6387 1417.625,849.9043 Q1417.3906,850.1699 1417.0156,850.1699 Q1416.6719,850.1699 1416.4688,849.9668 Q1416.2656,849.7793 1416.1563,849.2637 Q1416.1094,848.9043 1415.9219,848.7168 Q1415.5938,848.3418 1414.9844,848.123 Q1414.375,847.9043 1413.75,847.9043 Q1412.9844,847.9043 1412.3438,848.2324 Q1411.7188,848.5605 1411.2188,849.3105 Q1410.7344,850.0605 1410.7344,851.0918 L1410.7344,852.1855 Q1410.7344,853.4199 1411.625,854.248 Q1412.5156,855.0605 1414.1094,855.0605 Q1415.0469,855.0605 1415.7031,854.8105 Q1416.0938,854.6543 1416.5156,854.2168 Q1416.7813,853.9512 1416.9219,853.873 Q1417.0781,853.7949 1417.2813,853.7949 Q1417.6094,853.7949 1417.8594,854.0605 Q1418.125,854.3105 1418.125,854.6543 Q1418.125,854.998 1417.7813,855.4043 Q1417.2813,855.9824 1416.4844,856.3105 Q1415.4063,856.7637 1414.1094,856.7637 Q1412.5938,856.7637 1411.3906,856.1387 Q1410.4063,855.6387 1409.7188,854.5762 Q1409.0313,853.498 1409.0313,852.2168 L1409.0313,851.0605 Q1409.0313,849.7324 1409.6406,848.5918 Q1410.2656,847.4355 1411.3594,846.8262 Q1412.4531,846.2012 1413.6875,846.2012 Q1414.4219,846.2012 1415.0625,846.373 Q1415.7188,846.5293 1416.2656,846.8887 Z " fill="#000000"/><text fill="#000000" font-family="sans-serif" font-size="14" lengthAdjust="spacing" textLength="70.041" x="1427.5" y="856.8105">FindingSite</text><line style="stroke:#181818;stroke-width:0.5;" x1="1399.5" x2="1499.541" y1="867.0137" y2="867.0137"/><line style="stroke:#181818;stroke-width:0.5;" x1="1399.5" x2="1499.541" y1="875.0137" y2="875.0137"/></g><!--class ImagingObservation--><g class="entity" data-entity="ImagingObservation" data-source-line="36" data-uid="ent0028" id="entity_ImagingObservation"><rect fill="#F1F1F1" height="48" rx="2.5" ry="2.5" style="stroke:#181818;stroke-width:0.5;" width="157.2891" x="982" y="711.0137"/><ellipse cx="997" cy="727.0137" fill="#A9DCDF" rx="11" ry="11" style="stroke:#181818;stroke-width:1;"/><path d="M999.1875,728.7793 L995.0469,728.7793 L994.625,729.8105 L995.0469,729.8105 Q995.6563,729.8105 995.9219,730.0449 Q996.1875,730.2793 996.1875,730.6699 Q996.1875,731.0449 995.9219,731.2793 Q995.6563,731.5137 995.0469,731.5137 L992.75,731.5137 Q992.1406,731.5137 991.8906,731.2793 Q991.625,731.0449 991.625,730.6543 Q991.625,730.2793 991.9063,730.0449 Q992.1719,729.7949 992.7969,729.8105 L995.4688,723.1543 L994.3594,723.1543 Q993.75,723.1543 993.4844,722.9199 Q993.2188,722.6855 993.2188,722.2949 Q993.2188,721.9199 993.4844,721.6855 Q993.75,721.4512 994.3594,721.4512 L998.0313,721.4512 L1001.4219,729.8105 Q1002.0156,729.8105 1002.2031,729.9512 Q1002.5938,730.2168 1002.5938,730.6699 Q1002.5938,731.0449 1002.3281,731.2793 Q1002.0781,731.5137 1001.4688,731.5137 L999.1719,731.5137 Q998.5625,731.5137 998.2969,731.2793 Q998.0313,731.0449 998.0313,730.6543 Q998.0313,730.2793 998.2969,730.0449 Q998.5625,729.8105 999.1719,729.8105 L999.5938,729.8105 L999.1875,728.7793 Z M998.4688,727.0762 L997.1094,723.7012 L995.7344,727.0762 L998.4688,727.0762 Z " fill="#000000"/><text fill="#000000" font-family="sans-serif" font-size="14" font-style="italic" lengthAdjust="spacing" textLength="125.2891" x="1011" y="732.8105">ImagingObservation</text><line style="stroke:#181818;stroke-width:0.5;" x1="983" x2="1138.2891" y1="743.0137" y2="743.0137"/><line style="stroke:#181818;stroke-width:0.5;" x1="983" x2="1138.2891" y1="751.0137" y2="751.0137"/></g><!--class ImagingMeasurementGroup--><g class="entity" data-entity="ImagingMeasurementGroup" data-source-line="37" data-uid="ent0029" id="entity_ImagingMeasurementGroup"><rect fill="#F1F1F1" height="48" rx="2.5" ry="2.5" style="stroke:#181818;stroke-width:0.5;" width="206.3096" x="372" y="787.0137"/><ellipse cx="387" cy="803.0137" fill="#ADD1B2" rx="11" ry="11" style="stroke:#181818;stroke-width:1;"/><path d="M389.7656,798.8887 Q389.9219,798.6699 390.1094,798.5605 Q390.2969,798.4512 390.5156,798.4512 Q390.8906,798.4512 391.125,798.7168 Q391.3594,798.9668 391.3594,799.5762 L391.3594,801.0293 Q391.3594,801.6387 391.125,801.9043 Q390.8906,802.1699 390.5156,802.1699 Q390.1719,802.1699 389.9688,801.9668 Q389.7656,801.7793 389.6563,801.2637 Q389.6094,800.9043 389.4219,800.7168 Q389.0938,800.3418 388.4844,800.123 Q387.875,799.9043 387.25,799.9043 Q386.4844,799.9043 385.8438,800.2324 Q385.2188,800.5605 384.7188,801.3105 Q384.2344,802.0605 384.2344,803.0918 L384.2344,804.1855 Q384.2344,805.4199 385.125,806.248 Q386.0156,807.0605 387.6094,807.0605 Q388.5469,807.0605 389.2031,806.8105 Q389.5938,806.6543 390.0156,806.2168 Q390.2813,805.9512 390.4219,805.873 Q390.5781,805.7949 390.7813,805.7949 Q391.1094,805.7949 391.3594,806.0605 Q391.625,806.3105 391.625,806.6543 Q391.625,806.998 391.2813,807.4043 Q390.7813,807.9824 389.9844,808.3105 Q388.9063,808.7637 387.6094,808.7637 Q386.0938,808.7637 384.8906,808.1387 Q383.9063,807.6387 383.2188,806.5762 Q382.5313,805.498 382.5313,804.2168 L382.5313,803.0605 Q382.5313,801.7324 383.1406,800.5918 Q383.7656,799.4355 384.8594,798.8262 Q385.9531,798.2012 387.1875,798.2012 Q387.9219,798.2012 388.5625,798.373 Q389.2188,798.5293 389.7656,798.8887 Z " fill="#000000"/><text fill="#000000" font-family="sans-serif" font-size="14" lengthAdjust="spacing" textLength="174.3096" x="401" y="808.8105">ImagingMeasurementGroup</text><line style="stroke:#181818;stroke-width:0.5;" x1="373" x2="577.3096" y1="819.0137" y2="819.0137"/><line style="stroke:#181818;stroke-width:0.5;" x1="373" x2="577.3096" y1="827.0137" y2="827.0137"/></g><!--class ImagingMeasurement--><g class="entity" data-entity="ImagingMeasurement" data-source-line="38" data-uid="ent0030" id="entity_ImagingMeasurement"><rect fill="#F1F1F1" height="48" rx="2.5" ry="2.5" style="stroke:#181818;stroke-width:0.5;" width="167.3994" x="731" y="752.0137"/><ellipse cx="746" cy="768.0137" fill="#ADD1B2" rx="11" ry="11" style="stroke:#181818;stroke-width:1;"/><path d="M748.7656,763.8887 Q748.9219,763.6699 749.1094,763.5605 Q749.2969,763.4512 749.5156,763.4512 Q749.8906,763.4512 750.125,763.7168 Q750.3594,763.9668 750.3594,764.5762 L750.3594,766.0293 Q750.3594,766.6387 750.125,766.9043 Q749.8906,767.1699 749.5156,767.1699 Q749.1719,767.1699 748.9688,766.9668 Q748.7656,766.7793 748.6563,766.2637 Q748.6094,765.9043 748.4219,765.7168 Q748.0938,765.3418 747.4844,765.123 Q746.875,764.9043 746.25,764.9043 Q745.4844,764.9043 744.8438,765.2324 Q744.2188,765.5605 743.7188,766.3105 Q743.2344,767.0605 743.2344,768.0918 L743.2344,769.1855 Q743.2344,770.4199 744.125,771.248 Q745.0156,772.0605 746.6094,772.0605 Q747.5469,772.0605 748.2031,771.8105 Q748.5938,771.6543 749.0156,771.2168 Q749.2813,770.9512 749.4219,770.873 Q749.5781,770.7949 749.7813,770.7949 Q750.1094,770.7949 750.3594,771.0605 Q750.625,771.3105 750.625,771.6543 Q750.625,771.998 750.2813,772.4043 Q749.7813,772.9824 748.9844,773.3105 Q747.9063,773.7637 746.6094,773.7637 Q745.0938,773.7637 743.8906,773.1387 Q742.9063,772.6387 742.2188,771.5762 Q741.5313,770.498 741.5313,769.2168 L741.5313,768.0605 Q741.5313,766.7324 742.1406,765.5918 Q742.7656,764.4355 743.8594,763.8262 Q744.9531,763.2012 746.1875,763.2012 Q746.9219,763.2012 747.5625,763.373 Q748.2188,763.5293 748.7656,763.8887 Z " fill="#000000"/><text fill="#000000" font-family="sans-serif" font-size="14" lengthAdjust="spacing" textLength="135.3994" x="760" y="773.8105">ImagingMeasurement</text><line style="stroke:#181818;stroke-width:0.5;" x1="732" x2="897.3994" y1="784.0137" y2="784.0137"/><line style="stroke:#181818;stroke-width:0.5;" x1="732" x2="897.3994" y1="792.0137" y2="792.0137"/></g><!--class ImagingQualitativeEvaluation--><g class="entity" data-entity="ImagingQualitativeEvaluation" data-source-line="39" data-uid="ent0031" id="entity_ImagingQualitativeEvaluation"><rect fill="#F1F1F1" height="48" rx="2.5" ry="2.5" style="stroke:#181818;stroke-width:0.5;" width="213.3301" x="708" y="669.0137"/><ellipse cx="723" cy="685.0137" fill="#ADD1B2" rx="11" ry="11" style="stroke:#181818;stroke-width:1;"/><path d="M725.7656,680.8887 Q725.9219,680.6699 726.1094,680.5605 Q726.2969,680.4512 726.5156,680.4512 Q726.8906,680.4512 727.125,680.7168 Q727.3594,680.9668 727.3594,681.5762 L727.3594,683.0293 Q727.3594,683.6387 727.125,683.9043 Q726.8906,684.1699 726.5156,684.1699 Q726.1719,684.1699 725.9688,683.9668 Q725.7656,683.7793 725.6563,683.2637 Q725.6094,682.9043 725.4219,682.7168 Q725.0938,682.3418 724.4844,682.123 Q723.875,681.9043 723.25,681.9043 Q722.4844,681.9043 721.8438,682.2324 Q721.2188,682.5605 720.7188,683.3105 Q720.2344,684.0605 720.2344,685.0918 L720.2344,686.1855 Q720.2344,687.4199 721.125,688.248 Q722.0156,689.0605 723.6094,689.0605 Q724.5469,689.0605 725.2031,688.8105 Q725.5938,688.6543 726.0156,688.2168 Q726.2813,687.9512 726.4219,687.873 Q726.5781,687.7949 726.7813,687.7949 Q727.1094,687.7949 727.3594,688.0605 Q727.625,688.3105 727.625,688.6543 Q727.625,688.998 727.2813,689.4043 Q726.7813,689.9824 725.9844,690.3105 Q724.9063,690.7637 723.6094,690.7637 Q722.0938,690.7637 720.8906,690.1387 Q719.9063,689.6387 719.2188,688.5762 Q718.5313,687.498 718.5313,686.2168 L718.5313,685.0605 Q718.5313,683.7324 719.1406,682.5918 Q719.7656,681.4355 720.8594,680.8262 Q721.9531,680.2012 723.1875,680.2012 Q723.9219,680.2012 724.5625,680.373 Q725.2188,680.5293 725.7656,680.8887 Z " fill="#000000"/><text fill="#000000" font-family="sans-serif" font-size="14" lengthAdjust="spacing" textLength="181.3301" x="737" y="690.8105">ImagingQualitativeEvaluation</text><line style="stroke:#181818;stroke-width:0.5;" x1="709" x2="920.3301" y1="701.0137" y2="701.0137"/><line style="stroke:#181818;stroke-width:0.5;" x1="709" x2="920.3301" y1="709.0137" y2="709.0137"/></g><!--class DerivedImagingMeasurement--><g class="entity" data-entity="DerivedImagingMeasurement" data-source-line="40" data-uid="ent0032" id="entity_DerivedImagingMeasurement"><rect fill="#F1F1F1" height="48" rx="2.5" ry="2.5" style="stroke:#181818;stroke-width:0.5;" width="215.6406" x="22" y="1056.0137"/><ellipse cx="37" cy="1072.0137" fill="#ADD1B2" rx="11" ry="11" style="stroke:#181818;stroke-width:1;"/><path d="M39.7656,1067.8887 Q39.9219,1067.6699 40.1094,1067.5605 Q40.2969,1067.4512 40.5156,1067.4512 Q40.8906,1067.4512 41.125,1067.7168 Q41.3594,1067.9668 41.3594,1068.5762 L41.3594,1070.0293 Q41.3594,1070.6387 41.125,1070.9043 Q40.8906,1071.1699 40.5156,1071.1699 Q40.1719,1071.1699 39.9688,1070.9668 Q39.7656,1070.7793 39.6563,1070.2637 Q39.6094,1069.9043 39.4219,1069.7168 Q39.0938,1069.3418 38.4844,1069.123 Q37.875,1068.9043 37.25,1068.9043 Q36.4844,1068.9043 35.8438,1069.2324 Q35.2188,1069.5605 34.7188,1070.3105 Q34.2344,1071.0605 34.2344,1072.0918 L34.2344,1073.1855 Q34.2344,1074.4199 35.125,1075.248 Q36.0156,1076.0605 37.6094,1076.0605 Q38.5469,1076.0605 39.2031,1075.8105 Q39.5938,1075.6543 40.0156,1075.2168 Q40.2813,1074.9512 40.4219,1074.873 Q40.5781,1074.7949 40.7813,1074.7949 Q41.1094,1074.7949 41.3594,1075.0605 Q41.625,1075.3105 41.625,1075.6543 Q41.625,1075.998 41.2813,1076.4043 Q40.7813,1076.9824 39.9844,1077.3105 Q38.9063,1077.7637 37.6094,1077.7637 Q36.0938,1077.7637 34.8906,1077.1387 Q33.9063,1076.6387 33.2188,1075.5762 Q32.5313,1074.498 32.5313,1073.2168 L32.5313,1072.0605 Q32.5313,1070.7324 33.1406,1069.5918 Q33.7656,1068.4355 34.8594,1067.8262 Q35.9531,1067.2012 37.1875,1067.2012 Q37.9219,1067.2012 38.5625,1067.373 Q39.2188,1067.5293 39.7656,1067.8887 Z " fill="#000000"/><text fill="#000000" font-family="sans-serif" font-size="14" lengthAdjust="spacing" textLength="183.6406" x="51" y="1077.8105">DerivedImagingMeasurement</text><line style="stroke:#181818;stroke-width:0.5;" x1="23" x2="236.6406" y1="1088.0137" y2="1088.0137"/><line style="stroke:#181818;stroke-width:0.5;" x1="23" x2="236.6406" y1="1096.0137" y2="1096.0137"/></g><!--class GeneralEquipmentDevice--><g class="entity" data-entity="GeneralEquipmentDevice" data-source-line="14" data-uid="ent0012" id="entity_GeneralEquipmentDevice"><rect fill="#F1F1F1" height="48" rx="2.5" ry="2.5" style="stroke:#181818;stroke-width:0.5;" width="191.5303" x="1353.5" y="1102.0137"/><ellipse cx="1368.5" cy="1118.0137" fill="#ADD1B2" rx="11" ry="11" style="stroke:#181818;stroke-width:1;"/><path d="M1371.2656,1113.8887 Q1371.4219,1113.6699 1371.6094,1113.5605 Q1371.7969,1113.4512 1372.0156,1113.4512 Q1372.3906,1113.4512 1372.625,1113.7168 Q1372.8594,1113.9668 1372.8594,1114.5762 L1372.8594,1116.0293 Q1372.8594,1116.6387 1372.625,1116.9043 Q1372.3906,1117.1699 1372.0156,1117.1699 Q1371.6719,1117.1699 1371.4688,1116.9668 Q1371.2656,1116.7793 1371.1563,1116.2637 Q1371.1094,1115.9043 1370.9219,1115.7168 Q1370.5938,1115.3418 1369.9844,1115.123 Q1369.375,1114.9043 1368.75,1114.9043 Q1367.9844,1114.9043 1367.3438,1115.2324 Q1366.7188,1115.5605 1366.2188,1116.3105 Q1365.7344,1117.0605 1365.7344,1118.0918 L1365.7344,1119.1855 Q1365.7344,1120.4199 1366.625,1121.248 Q1367.5156,1122.0605 1369.1094,1122.0605 Q1370.0469,1122.0605 1370.7031,1121.8105 Q1371.0938,1121.6543 1371.5156,1121.2168 Q1371.7813,1120.9512 1371.9219,1120.873 Q1372.0781,1120.7949 1372.2813,1120.7949 Q1372.6094,1120.7949 1372.8594,1121.0605 Q1373.125,1121.3105 1373.125,1121.6543 Q1373.125,1121.998 1372.7813,1122.4043 Q1372.2813,1122.9824 1371.4844,1123.3105 Q1370.4063,1123.7637 1369.1094,1123.7637 Q1367.5938,1123.7637 1366.3906,1123.1387 Q1365.4063,1122.6387 1364.7188,1121.5762 Q1364.0313,1120.498 1364.0313,1119.2168 L1364.0313,1118.0605 Q1364.0313,1116.7324 1364.6406,1115.5918 Q1365.2656,1114.4355 1366.3594,1113.8262 Q1367.4531,1113.2012 1368.6875,1113.2012 Q1369.4219,1113.2012 1370.0625,1113.373 Q1370.7188,1113.5293 1371.2656,1113.8887 Z " fill="#000000"/><text fill="#000000" font-family="sans-serif" font-size="14" lengthAdjust="spacing" textLength="159.5303" x="1382.5" y="1123.8105">GeneralEquipmentDevice</text><line style="stroke:#181818;stroke-width:0.5;" x1="1354.5" x2="1544.0303" y1="1134.0137" y2="1134.0137"/><line style="stroke:#181818;stroke-width:0.5;" x1="1354.5" x2="1544.0303" y1="1142.0137" y2="1142.0137"/></g><!--class ParticipantDevice--><g class="entity" data-entity="ParticipantDevice" data-source-line="15" data-uid="ent0013" id="entity_ParticipantDevice"><rect fill="#F1F1F1" height="48" rx="2.5" ry="2.5" style="stroke:#181818;stroke-width:0.5;" width="140.9375" x="1379" y="1019.0137"/><ellipse cx="1394" cy="1035.0137" fill="#ADD1B2" rx="11" ry="11" style="stroke:#181818;stroke-width:1;"/><path d="M1396.7656,1030.8887 Q1396.9219,1030.6699 1397.1094,1030.5605 Q1397.2969,1030.4512 1397.5156,1030.4512 Q1397.8906,1030.4512 1398.125,1030.7168 Q1398.3594,1030.9668 1398.3594,1031.5762 L1398.3594,1033.0293 Q1398.3594,1033.6387 1398.125,1033.9043 Q1397.8906,1034.1699 1397.5156,1034.1699 Q1397.1719,1034.1699 1396.9688,1033.9668 Q1396.7656,1033.7793 1396.6563,1033.2637 Q1396.6094,1032.9043 1396.4219,1032.7168 Q1396.0938,1032.3418 1395.4844,1032.123 Q1394.875,1031.9043 1394.25,1031.9043 Q1393.4844,1031.9043 1392.8438,1032.2324 Q1392.2188,1032.5605 1391.7188,1033.3105 Q1391.2344,1034.0605 1391.2344,1035.0918 L1391.2344,1036.1855 Q1391.2344,1037.4199 1392.125,1038.248 Q1393.0156,1039.0605 1394.6094,1039.0605 Q1395.5469,1039.0605 1396.2031,1038.8105 Q1396.5938,1038.6543 1397.0156,1038.2168 Q1397.2813,1037.9512 1397.4219,1037.873 Q1397.5781,1037.7949 1397.7813,1037.7949 Q1398.1094,1037.7949 1398.3594,1038.0605 Q1398.625,1038.3105 1398.625,1038.6543 Q1398.625,1038.998 1398.2813,1039.4043 Q1397.7813,1039.9824 1396.9844,1040.3105 Q1395.9063,1040.7637 1394.6094,1040.7637 Q1393.0938,1040.7637 1391.8906,1040.1387 Q1390.9063,1039.6387 1390.2188,1038.5762 Q1389.5313,1037.498 1389.5313,1036.2168 L1389.5313,1035.0605 Q1389.5313,1033.7324 1390.1406,1032.5918 Q1390.7656,1031.4355 1391.8594,1030.8262 Q1392.9531,1030.2012 1394.1875,1030.2012 Q1394.9219,1030.2012 1395.5625,1030.373 Q1396.2188,1030.5293 1396.7656,1030.8887 Z " fill="#000000"/><text fill="#000000" font-family="sans-serif" font-size="14" lengthAdjust="spacing" textLength="108.9375" x="1408" y="1040.8105">ParticipantDevice</text><line style="stroke:#181818;stroke-width:0.5;" x1="1380" x2="1518.9375" y1="1051.0137" y2="1051.0137"/><line style="stroke:#181818;stroke-width:0.5;" x1="1380" x2="1518.9375" y1="1059.0137" y2="1059.0137"/></g><!--class AlgorithmIdentification--><g class="entity" data-entity="AlgorithmIdentification" data-source-line="16" data-uid="ent0014" id="entity_AlgorithmIdentification"><rect fill="#F1F1F1" height="48" rx="2.5" ry="2.5" style="stroke:#181818;stroke-width:0.5;" width="169.7373" x="1364.5" y="1185.0137"/><ellipse cx="1379.5" cy="1201.0137" fill="#ADD1B2" rx="11" ry="11" style="stroke:#181818;stroke-width:1;"/><path d="M1382.2656,1196.8887 Q1382.4219,1196.6699 1382.6094,1196.5605 Q1382.7969,1196.4512 1383.0156,1196.4512 Q1383.3906,1196.4512 1383.625,1196.7168 Q1383.8594,1196.9668 1383.8594,1197.5762 L1383.8594,1199.0293 Q1383.8594,1199.6387 1383.625,1199.9043 Q1383.3906,1200.1699 1383.0156,1200.1699 Q1382.6719,1200.1699 1382.4688,1199.9668 Q1382.2656,1199.7793 1382.1563,1199.2637 Q1382.1094,1198.9043 1381.9219,1198.7168 Q1381.5938,1198.3418 1380.9844,1198.123 Q1380.375,1197.9043 1379.75,1197.9043 Q1378.9844,1197.9043 1378.3438,1198.2324 Q1377.7188,1198.5605 1377.2188,1199.3105 Q1376.7344,1200.0605 1376.7344,1201.0918 L1376.7344,1202.1855 Q1376.7344,1203.4199 1377.625,1204.248 Q1378.5156,1205.0605 1380.1094,1205.0605 Q1381.0469,1205.0605 1381.7031,1204.8105 Q1382.0938,1204.6543 1382.5156,1204.2168 Q1382.7813,1203.9512 1382.9219,1203.873 Q1383.0781,1203.7949 1383.2813,1203.7949 Q1383.6094,1203.7949 1383.8594,1204.0605 Q1384.125,1204.3105 1384.125,1204.6543 Q1384.125,1204.998 1383.7813,1205.4043 Q1383.2813,1205.9824 1382.4844,1206.3105 Q1381.4063,1206.7637 1380.1094,1206.7637 Q1378.5938,1206.7637 1377.3906,1206.1387 Q1376.4063,1205.6387 1375.7188,1204.5762 Q1375.0313,1203.498 1375.0313,1202.2168 L1375.0313,1201.0605 Q1375.0313,1199.7324 1375.6406,1198.5918 Q1376.2656,1197.4355 1377.3594,1196.8262 Q1378.4531,1196.2012 1379.6875,1196.2012 Q1380.4219,1196.2012 1381.0625,1196.373 Q1381.7188,1196.5293 1382.2656,1196.8887 Z " fill="#000000"/><text fill="#000000" font-family="sans-serif" font-size="14" lengthAdjust="spacing" textLength="137.7373" x="1393.5" y="1206.8105">AlgorithmIdentification</text><line style="stroke:#181818;stroke-width:0.5;" x1="1365.5" x2="1533.2373" y1="1217.0137" y2="1217.0137"/><line style="stroke:#181818;stroke-width:0.5;" x1="1365.5" x2="1533.2373" y1="1225.0137" y2="1225.0137"/></g><!--class IllustrationOfRoi--><g class="entity" data-entity="IllustrationOfRoi" data-source-line="23" data-uid="ent0018" id="entity_IllustrationOfRoi"><rect fill="#F1F1F1" height="48" rx="2.5" ry="2.5" style="stroke:#181818;stroke-width:0.5;" width="131.5928" x="1383.5" y="503.0137"/><ellipse cx="1398.5" cy="519.0137" fill="#ADD1B2" rx="11" ry="11" style="stroke:#181818;stroke-width:1;"/><path d="M1401.2656,514.8887 Q1401.4219,514.6699 1401.6094,514.5605 Q1401.7969,514.4512 1402.0156,514.4512 Q1402.3906,514.4512 1402.625,514.7168 Q1402.8594,514.9668 1402.8594,515.5762 L1402.8594,517.0293 Q1402.8594,517.6387 1402.625,517.9043 Q1402.3906,518.1699 1402.0156,518.1699 Q1401.6719,518.1699 1401.4688,517.9668 Q1401.2656,517.7793 1401.1563,517.2637 Q1401.1094,516.9043 1400.9219,516.7168 Q1400.5938,516.3418 1399.9844,516.123 Q1399.375,515.9043 1398.75,515.9043 Q1397.9844,515.9043 1397.3438,516.2324 Q1396.7188,516.5605 1396.2188,517.3105 Q1395.7344,518.0605 1395.7344,519.0918 L1395.7344,520.1855 Q1395.7344,521.4199 1396.625,522.248 Q1397.5156,523.0605 1399.1094,523.0605 Q1400.0469,523.0605 1400.7031,522.8105 Q1401.0938,522.6543 1401.5156,522.2168 Q1401.7813,521.9512 1401.9219,521.873 Q1402.0781,521.7949 1402.2813,521.7949 Q1402.6094,521.7949 1402.8594,522.0605 Q1403.125,522.3105 1403.125,522.6543 Q1403.125,522.998 1402.7813,523.4043 Q1402.2813,523.9824 1401.4844,524.3105 Q1400.4063,524.7637 1399.1094,524.7637 Q1397.5938,524.7637 1396.3906,524.1387 Q1395.4063,523.6387 1394.7188,522.5762 Q1394.0313,521.498 1394.0313,520.2168 L1394.0313,519.0605 Q1394.0313,517.7324 1394.6406,516.5918 Q1395.2656,515.4355 1396.3594,514.8262 Q1397.4531,514.2012 1398.6875,514.2012 Q1399.4219,514.2012 1400.0625,514.373 Q1400.7188,514.5293 1401.2656,514.8887 Z " fill="#000000"/><text fill="#000000" font-family="sans-serif" font-size="14" lengthAdjust="spacing" textLength="99.5928" x="1412.5" y="524.8105">IllustrationOfRoi</text><line style="stroke:#181818;stroke-width:0.5;" x1="1384.5" x2="1514.0928" y1="535.0137" y2="535.0137"/><line style="stroke:#181818;stroke-width:0.5;" x1="1384.5" x2="1514.0928" y1="543.0137" y2="543.0137"/></g><!--class ImageRegion2d--><g class="entity" data-entity="ImageRegion2d" data-source-line="24" data-uid="ent0019" id="entity_ImageRegion2d"><rect fill="#F1F1F1" height="48" rx="2.5" ry="2.5" style="stroke:#181818;stroke-width:0.5;" width="130.8477" x="1384" y="420.0137"/><ellipse cx="1399" cy="436.0137" fill="#ADD1B2" rx="11" ry="11" style="stroke:#181818;stroke-width:1;"/><path d="M1401.7656,431.8887 Q1401.9219,431.6699 1402.1094,431.5605 Q1402.2969,431.4512 1402.5156,431.4512 Q1402.8906,431.4512 1403.125,431.7168 Q1403.3594,431.9668 1403.3594,432.5762 L1403.3594,434.0293 Q1403.3594,434.6387 1403.125,434.9043 Q1402.8906,435.1699 1402.5156,435.1699 Q1402.1719,435.1699 1401.9688,434.9668 Q1401.7656,434.7793 1401.6563,434.2637 Q1401.6094,433.9043 1401.4219,433.7168 Q1401.0938,433.3418 1400.4844,433.123 Q1399.875,432.9043 1399.25,432.9043 Q1398.4844,432.9043 1397.8438,433.2324 Q1397.2188,433.5605 1396.7188,434.3105 Q1396.2344,435.0605 1396.2344,436.0918 L1396.2344,437.1855 Q1396.2344,438.4199 1397.125,439.248 Q1398.0156,440.0605 1399.6094,440.0605 Q1400.5469,440.0605 1401.2031,439.8105 Q1401.5938,439.6543 1402.0156,439.2168 Q1402.2813,438.9512 1402.4219,438.873 Q1402.5781,438.7949 1402.7813,438.7949 Q1403.1094,438.7949 1403.3594,439.0605 Q1403.625,439.3105 1403.625,439.6543 Q1403.625,439.998 1403.2813,440.4043 Q1402.7813,440.9824 1401.9844,441.3105 Q1400.9063,441.7637 1399.6094,441.7637 Q1398.0938,441.7637 1396.8906,441.1387 Q1395.9063,440.6387 1395.2188,439.5762 Q1394.5313,438.498 1394.5313,437.2168 L1394.5313,436.0605 Q1394.5313,434.7324 1395.1406,433.5918 Q1395.7656,432.4355 1396.8594,431.8262 Q1397.9531,431.2012 1399.1875,431.2012 Q1399.9219,431.2012 1400.5625,431.373 Q1401.2188,431.5293 1401.7656,431.8887 Z " fill="#000000"/><text fill="#000000" font-family="sans-serif" font-size="14" lengthAdjust="spacing" textLength="98.8477" x="1413" y="441.8105">ImageRegion2d</text><line style="stroke:#181818;stroke-width:0.5;" x1="1385" x2="1513.8477" y1="452.0137" y2="452.0137"/><line style="stroke:#181818;stroke-width:0.5;" x1="1385" x2="1513.8477" y1="460.0137" y2="460.0137"/></g><!--class ImageRegion3d--><g class="entity" data-entity="ImageRegion3d" data-source-line="25" data-uid="ent0020" id="entity_ImageRegion3d"><rect fill="#F1F1F1" height="48" rx="2.5" ry="2.5" style="stroke:#181818;stroke-width:0.5;" width="130.8477" x="1384" y="337.0137"/><ellipse cx="1399" cy="353.0137" fill="#ADD1B2" rx="11" ry="11" style="stroke:#181818;stroke-width:1;"/><path d="M1401.7656,348.8887 Q1401.9219,348.6699 1402.1094,348.5605 Q1402.2969,348.4512 1402.5156,348.4512 Q1402.8906,348.4512 1403.125,348.7168 Q1403.3594,348.9668 1403.3594,349.5762 L1403.3594,351.0293 Q1403.3594,351.6387 1403.125,351.9043 Q1402.8906,352.1699 1402.5156,352.1699 Q1402.1719,352.1699 1401.9688,351.9668 Q1401.7656,351.7793 1401.6563,351.2637 Q1401.6094,350.9043 1401.4219,350.7168 Q1401.0938,350.3418 1400.4844,350.123 Q1399.875,349.9043 1399.25,349.9043 Q1398.4844,349.9043 1397.8438,350.2324 Q1397.2188,350.5605 1396.7188,351.3105 Q1396.2344,352.0605 1396.2344,353.0918 L1396.2344,354.1855 Q1396.2344,355.4199 1397.125,356.248 Q1398.0156,357.0605 1399.6094,357.0605 Q1400.5469,357.0605 1401.2031,356.8105 Q1401.5938,356.6543 1402.0156,356.2168 Q1402.2813,355.9512 1402.4219,355.873 Q1402.5781,355.7949 1402.7813,355.7949 Q1403.1094,355.7949 1403.3594,356.0605 Q1403.625,356.3105 1403.625,356.6543 Q1403.625,356.998 1403.2813,357.4043 Q1402.7813,357.9824 1401.9844,358.3105 Q1400.9063,358.7637 1399.6094,358.7637 Q1398.0938,358.7637 1396.8906,358.1387 Q1395.9063,357.6387 1395.2188,356.5762 Q1394.5313,355.498 1394.5313,354.2168 L1394.5313,353.0605 Q1394.5313,351.7324 1395.1406,350.5918 Q1395.7656,349.4355 1396.8594,348.8262 Q1397.9531,348.2012 1399.1875,348.2012 Q1399.9219,348.2012 1400.5625,348.373 Q1401.2188,348.5293 1401.7656,348.8887 Z " fill="#000000"/><text fill="#000000" font-family="sans-serif" font-size="14" lengthAdjust="spacing" textLength="98.8477" x="1413" y="358.8105">ImageRegion3d</text><line style="stroke:#181818;stroke-width:0.5;" x1="1385" x2="1513.8477" y1="369.0137" y2="369.0137"/><line style="stroke:#181818;stroke-width:0.5;" x1="1385" x2="1513.8477" y1="377.0137" y2="377.0137"/></g><!--class RealWorldValueMap--><g class="entity" data-entity="RealWorldValueMap" data-source-line="26" data-uid="ent0021" id="entity_RealWorldValueMap"><rect fill="#F1F1F1" height="48" rx="2.5" ry="2.5" style="stroke:#181818;stroke-width:0.5;" width="160.3926" x="1369.5" y="254.0137"/><ellipse cx="1384.5" cy="270.0137" fill="#ADD1B2" rx="11" ry="11" style="stroke:#181818;stroke-width:1;"/><path d="M1387.2656,265.8887 Q1387.4219,265.6699 1387.6094,265.5605 Q1387.7969,265.4512 1388.0156,265.4512 Q1388.3906,265.4512 1388.625,265.7168 Q1388.8594,265.9668 1388.8594,266.5762 L1388.8594,268.0293 Q1388.8594,268.6387 1388.625,268.9043 Q1388.3906,269.1699 1388.0156,269.1699 Q1387.6719,269.1699 1387.4688,268.9668 Q1387.2656,268.7793 1387.1563,268.2637 Q1387.1094,267.9043 1386.9219,267.7168 Q1386.5938,267.3418 1385.9844,267.123 Q1385.375,266.9043 1384.75,266.9043 Q1383.9844,266.9043 1383.3438,267.2324 Q1382.7188,267.5605 1382.2188,268.3105 Q1381.7344,269.0605 1381.7344,270.0918 L1381.7344,271.1855 Q1381.7344,272.4199 1382.625,273.248 Q1383.5156,274.0605 1385.1094,274.0605 Q1386.0469,274.0605 1386.7031,273.8105 Q1387.0938,273.6543 1387.5156,273.2168 Q1387.7813,272.9512 1387.9219,272.873 Q1388.0781,272.7949 1388.2813,272.7949 Q1388.6094,272.7949 1388.8594,273.0605 Q1389.125,273.3105 1389.125,273.6543 Q1389.125,273.998 1388.7813,274.4043 Q1388.2813,274.9824 1387.4844,275.3105 Q1386.4063,275.7637 1385.1094,275.7637 Q1383.5938,275.7637 1382.3906,275.1387 Q1381.4063,274.6387 1380.7188,273.5762 Q1380.0313,272.498 1380.0313,271.2168 L1380.0313,270.0605 Q1380.0313,268.7324 1380.6406,267.5918 Q1381.2656,266.4355 1382.3594,265.8262 Q1383.4531,265.2012 1384.6875,265.2012 Q1385.4219,265.2012 1386.0625,265.373 Q1386.7188,265.5293 1387.2656,265.8887 Z " fill="#000000"/><text fill="#000000" font-family="sans-serif" font-size="14" lengthAdjust="spacing" textLength="128.3926" x="1398.5" y="275.8105">RealWorldValueMap</text><line style="stroke:#181818;stroke-width:0.5;" x1="1370.5" x2="1528.8926" y1="286.0137" y2="286.0137"/><line style="stroke:#181818;stroke-width:0.5;" x1="1370.5" x2="1528.8926" y1="294.0137" y2="294.0137"/></g><!--class ReferencedSegment--><g class="entity" data-entity="ReferencedSegment" data-source-line="27" data-uid="ent0022" id="entity_ReferencedSegment"><rect fill="#F1F1F1" height="48" rx="2.5" ry="2.5" style="stroke:#181818;stroke-width:0.5;" width="160.4131" x="1369.5" y="171.0137"/><ellipse cx="1384.5" cy="187.0137" fill="#ADD1B2" rx="11" ry="11" style="stroke:#181818;stroke-width:1;"/><path d="M1387.2656,182.8887 Q1387.4219,182.6699 1387.6094,182.5605 Q1387.7969,182.4512 1388.0156,182.4512 Q1388.3906,182.4512 1388.625,182.7168 Q1388.8594,182.9668 1388.8594,183.5762 L1388.8594,185.0293 Q1388.8594,185.6387 1388.625,185.9043 Q1388.3906,186.1699 1388.0156,186.1699 Q1387.6719,186.1699 1387.4688,185.9668 Q1387.2656,185.7793 1387.1563,185.2637 Q1387.1094,184.9043 1386.9219,184.7168 Q1386.5938,184.3418 1385.9844,184.123 Q1385.375,183.9043 1384.75,183.9043 Q1383.9844,183.9043 1383.3438,184.2324 Q1382.7188,184.5605 1382.2188,185.3105 Q1381.7344,186.0605 1381.7344,187.0918 L1381.7344,188.1855 Q1381.7344,189.4199 1382.625,190.248 Q1383.5156,191.0605 1385.1094,191.0605 Q1386.0469,191.0605 1386.7031,190.8105 Q1387.0938,190.6543 1387.5156,190.2168 Q1387.7813,189.9512 1387.9219,189.873 Q1388.0781,189.7949 1388.2813,189.7949 Q1388.6094,189.7949 1388.8594,190.0605 Q1389.125,190.3105 1389.125,190.6543 Q1389.125,190.998 1388.7813,191.4043 Q1388.2813,191.9824 1387.4844,192.3105 Q1386.4063,192.7637 1385.1094,192.7637 Q1383.5938,192.7637 1382.3906,192.1387 Q1381.4063,191.6387 1380.7188,190.5762 Q1380.0313,189.498 1380.0313,188.2168 L1380.0313,187.0605 Q1380.0313,185.7324 1380.6406,184.5918 Q1381.2656,183.4355 1382.3594,182.8262 Q1383.4531,182.2012 1384.6875,182.2012 Q1385.4219,182.2012 1386.0625,182.373 Q1386.7188,182.5293 1387.2656,182.8887 Z " fill="#000000"/><text fill="#000000" font-family="sans-serif" font-size="14" lengthAdjust="spacing" textLength="128.4131" x="1398.5" y="192.8105">ReferencedSegment</text><line style="stroke:#181818;stroke-width:0.5;" x1="1370.5" x2="1528.9131" y1="203.0137" y2="203.0137"/><line style="stroke:#181818;stroke-width:0.5;" x1="1370.5" x2="1528.9131" y1="211.0137" y2="211.0137"/></g><!--class ReferencedSegmentationFrame--><g class="entity" data-entity="ReferencedSegmentationFrame" data-source-line="28" data-uid="ent0023" id="entity_ReferencedSegmentationFrame"><rect fill="#F1F1F1" height="48" rx="2.5" ry="2.5" style="stroke:#181818;stroke-width:0.5;" width="231.2197" x="1334" y="88.0137"/><ellipse cx="1349" cy="104.0137" fill="#ADD1B2" rx="11" ry="11" style="stroke:#181818;stroke-width:1;"/><path d="M1351.7656,99.8887 Q1351.9219,99.6699 1352.1094,99.5605 Q1352.2969,99.4512 1352.5156,99.4512 Q1352.8906,99.4512 1353.125,99.7168 Q1353.3594,99.9668 1353.3594,100.5762 L1353.3594,102.0293 Q1353.3594,102.6387 1353.125,102.9043 Q1352.8906,103.1699 1352.5156,103.1699 Q1352.1719,103.1699 1351.9688,102.9668 Q1351.7656,102.7793 1351.6563,102.2637 Q1351.6094,101.9043 1351.4219,101.7168 Q1351.0938,101.3418 1350.4844,101.123 Q1349.875,100.9043 1349.25,100.9043 Q1348.4844,100.9043 1347.8438,101.2324 Q1347.2188,101.5605 1346.7188,102.3105 Q1346.2344,103.0605 1346.2344,104.0918 L1346.2344,105.1855 Q1346.2344,106.4199 1347.125,107.248 Q1348.0156,108.0605 1349.6094,108.0605 Q1350.5469,108.0605 1351.2031,107.8105 Q1351.5938,107.6543 1352.0156,107.2168 Q1352.2813,106.9512 1352.4219,106.873 Q1352.5781,106.7949 1352.7813,106.7949 Q1353.1094,106.7949 1353.3594,107.0605 Q1353.625,107.3105 1353.625,107.6543 Q1353.625,107.998 1353.2813,108.4043 Q1352.7813,108.9824 1351.9844,109.3105 Q1350.9063,109.7637 1349.6094,109.7637 Q1348.0938,109.7637 1346.8906,109.1387 Q1345.9063,108.6387 1345.2188,107.5762 Q1344.5313,106.498 1344.5313,105.2168 L1344.5313,104.0605 Q1344.5313,102.7324 1345.1406,101.5918 Q1345.7656,100.4355 1346.8594,99.8262 Q1347.9531,99.2012 1349.1875,99.2012 Q1349.9219,99.2012 1350.5625,99.373 Q1351.2188,99.5293 1351.7656,99.8887 Z " fill="#000000"/><text fill="#000000" font-family="sans-serif" font-size="14" lengthAdjust="spacing" textLength="199.2197" x="1363" y="109.8105">ReferencedSegmentationFrame</text><line style="stroke:#181818;stroke-width:0.5;" x1="1335" x2="1564.2197" y1="120.0137" y2="120.0137"/><line style="stroke:#181818;stroke-width:0.5;" x1="1335" x2="1564.2197" y1="128.0137" y2="128.0137"/></g><!--class RegionInSpace--><g class="entity" data-entity="RegionInSpace" data-source-line="29" data-uid="ent0024" id="entity_RegionInSpace"><rect fill="#F1F1F1" height="48" rx="2.5" ry="2.5" style="stroke:#181818;stroke-width:0.5;" width="127.7373" x="1385.5" y="752.0137"/><ellipse cx="1400.5" cy="768.0137" fill="#ADD1B2" rx="11" ry="11" style="stroke:#181818;stroke-width:1;"/><path d="M1403.2656,763.8887 Q1403.4219,763.6699 1403.6094,763.5605 Q1403.7969,763.4512 1404.0156,763.4512 Q1404.3906,763.4512 1404.625,763.7168 Q1404.8594,763.9668 1404.8594,764.5762 L1404.8594,766.0293 Q1404.8594,766.6387 1404.625,766.9043 Q1404.3906,767.1699 1404.0156,767.1699 Q1403.6719,767.1699 1403.4688,766.9668 Q1403.2656,766.7793 1403.1563,766.2637 Q1403.1094,765.9043 1402.9219,765.7168 Q1402.5938,765.3418 1401.9844,765.123 Q1401.375,764.9043 1400.75,764.9043 Q1399.9844,764.9043 1399.3438,765.2324 Q1398.7188,765.5605 1398.2188,766.3105 Q1397.7344,767.0605 1397.7344,768.0918 L1397.7344,769.1855 Q1397.7344,770.4199 1398.625,771.248 Q1399.5156,772.0605 1401.1094,772.0605 Q1402.0469,772.0605 1402.7031,771.8105 Q1403.0938,771.6543 1403.5156,771.2168 Q1403.7813,770.9512 1403.9219,770.873 Q1404.0781,770.7949 1404.2813,770.7949 Q1404.6094,770.7949 1404.8594,771.0605 Q1405.125,771.3105 1405.125,771.6543 Q1405.125,771.998 1404.7813,772.4043 Q1404.2813,772.9824 1403.4844,773.3105 Q1402.4063,773.7637 1401.1094,773.7637 Q1399.5938,773.7637 1398.3906,773.1387 Q1397.4063,772.6387 1396.7188,771.5762 Q1396.0313,770.498 1396.0313,769.2168 L1396.0313,768.0605 Q1396.0313,766.7324 1396.6406,765.5918 Q1397.2656,764.4355 1398.3594,763.8262 Q1399.4531,763.2012 1400.6875,763.2012 Q1401.4219,763.2012 1402.0625,763.373 Q1402.7188,763.5293 1403.2656,763.8887 Z " fill="#000000"/><text fill="#000000" font-family="sans-serif" font-size="14" lengthAdjust="spacing" textLength="95.7373" x="1414.5" y="773.8105">RegionInSpace</text><line style="stroke:#181818;stroke-width:0.5;" x1="1386.5" x2="1512.2373" y1="784.0137" y2="784.0137"/><line style="stroke:#181818;stroke-width:0.5;" x1="1386.5" x2="1512.2373" y1="792.0137" y2="792.0137"/></g><!--class VisualExplanation--><g class="entity" data-entity="VisualExplanation" data-source-line="30" data-uid="ent0025" id="entity_VisualExplanation"><rect fill="#F1F1F1" height="48" rx="2.5" ry="2.5" style="stroke:#181818;stroke-width:0.5;" width="143.2959" x="1378" y="669.0137"/><ellipse cx="1393" cy="685.0137" fill="#ADD1B2" rx="11" ry="11" style="stroke:#181818;stroke-width:1;"/><path d="M1395.7656,680.8887 Q1395.9219,680.6699 1396.1094,680.5605 Q1396.2969,680.4512 1396.5156,680.4512 Q1396.8906,680.4512 1397.125,680.7168 Q1397.3594,680.9668 1397.3594,681.5762 L1397.3594,683.0293 Q1397.3594,683.6387 1397.125,683.9043 Q1396.8906,684.1699 1396.5156,684.1699 Q1396.1719,684.1699 1395.9688,683.9668 Q1395.7656,683.7793 1395.6563,683.2637 Q1395.6094,682.9043 1395.4219,682.7168 Q1395.0938,682.3418 1394.4844,682.123 Q1393.875,681.9043 1393.25,681.9043 Q1392.4844,681.9043 1391.8438,682.2324 Q1391.2188,682.5605 1390.7188,683.3105 Q1390.2344,684.0605 1390.2344,685.0918 L1390.2344,686.1855 Q1390.2344,687.4199 1391.125,688.248 Q1392.0156,689.0605 1393.6094,689.0605 Q1394.5469,689.0605 1395.2031,688.8105 Q1395.5938,688.6543 1396.0156,688.2168 Q1396.2813,687.9512 1396.4219,687.873 Q1396.5781,687.7949 1396.7813,687.7949 Q1397.1094,687.7949 1397.3594,688.0605 Q1397.625,688.3105 1397.625,688.6543 Q1397.625,688.998 1397.2813,689.4043 Q1396.7813,689.9824 1395.9844,690.3105 Q1394.9063,690.7637 1393.6094,690.7637 Q1392.0938,690.7637 1390.8906,690.1387 Q1389.9063,689.6387 1389.2188,688.5762 Q1388.5313,687.498 1388.5313,686.2168 L1388.5313,685.0605 Q1388.5313,683.7324 1389.1406,682.5918 Q1389.7656,681.4355 1390.8594,680.8262 Q1391.9531,680.2012 1393.1875,680.2012 Q1393.9219,680.2012 1394.5625,680.373 Q1395.2188,680.5293 1395.7656,680.8887 Z " fill="#000000"/><text fill="#000000" font-family="sans-serif" font-size="14" lengthAdjust="spacing" textLength="111.2959" x="1407" y="690.8105">VisualExplanation</text><line style="stroke:#181818;stroke-width:0.5;" x1="1379" x2="1520.2959" y1="701.0137" y2="701.0137"/><line style="stroke:#181818;stroke-width:0.5;" x1="1379" x2="1520.2959" y1="709.0137" y2="709.0137"/></g><!--class VolumeSurface--><g class="entity" data-entity="VolumeSurface" data-source-line="31" data-uid="ent0026" id="entity_VolumeSurface"><rect fill="#F1F1F1" height="48" rx="2.5" ry="2.5" style="stroke:#181818;stroke-width:0.5;" width="127.7168" x="1385.5" y="586.0137"/><ellipse cx="1400.5" cy="602.0137" fill="#ADD1B2" rx="11" ry="11" style="stroke:#181818;stroke-width:1;"/><path d="M1403.2656,597.8887 Q1403.4219,597.6699 1403.6094,597.5605 Q1403.7969,597.4512 1404.0156,597.4512 Q1404.3906,597.4512 1404.625,597.7168 Q1404.8594,597.9668 1404.8594,598.5762 L1404.8594,600.0293 Q1404.8594,600.6387 1404.625,600.9043 Q1404.3906,601.1699 1404.0156,601.1699 Q1403.6719,601.1699 1403.4688,600.9668 Q1403.2656,600.7793 1403.1563,600.2637 Q1403.1094,599.9043 1402.9219,599.7168 Q1402.5938,599.3418 1401.9844,599.123 Q1401.375,598.9043 1400.75,598.9043 Q1399.9844,598.9043 1399.3438,599.2324 Q1398.7188,599.5605 1398.2188,600.3105 Q1397.7344,601.0605 1397.7344,602.0918 L1397.7344,603.1855 Q1397.7344,604.4199 1398.625,605.248 Q1399.5156,606.0605 1401.1094,606.0605 Q1402.0469,606.0605 1402.7031,605.8105 Q1403.0938,605.6543 1403.5156,605.2168 Q1403.7813,604.9512 1403.9219,604.873 Q1404.0781,604.7949 1404.2813,604.7949 Q1404.6094,604.7949 1404.8594,605.0605 Q1405.125,605.3105 1405.125,605.6543 Q1405.125,605.998 1404.7813,606.4043 Q1404.2813,606.9824 1403.4844,607.3105 Q1402.4063,607.7637 1401.1094,607.7637 Q1399.5938,607.7637 1398.3906,607.1387 Q1397.4063,606.6387 1396.7188,605.5762 Q1396.0313,604.498 1396.0313,603.2168 L1396.0313,602.0605 Q1396.0313,600.7324 1396.6406,599.5918 Q1397.2656,598.4355 1398.3594,597.8262 Q1399.4531,597.2012 1400.6875,597.2012 Q1401.4219,597.2012 1402.0625,597.373 Q1402.7188,597.5293 1403.2656,597.8887 Z " fill="#000000"/><text fill="#000000" font-family="sans-serif" font-size="14" lengthAdjust="spacing" textLength="95.7168" x="1414.5" y="607.8105">VolumeSurface</text><line style="stroke:#181818;stroke-width:0.5;" x1="1386.5" x2="1512.2168" y1="618.0137" y2="618.0137"/><line style="stroke:#181818;stroke-width:0.5;" x1="1386.5" x2="1512.2168" y1="626.0137" y2="626.0137"/></g><!--class Patient--><g class="entity" data-entity="Patient" data-source-line="3" data-uid="ent0002" id="entity_Patient"><rect fill="#F1F1F1" height="48" rx="2.5" ry="2.5" style="stroke:#181818;stroke-width:0.5;" width="75.5859" x="1821.5" y="1538.0137"/><ellipse cx="1836.5" cy="1554.0137" fill="#ADD1B2" rx="11" ry="11" style="stroke:#181818;stroke-width:1;"/><path d="M1839.2656,1549.8887 Q1839.4219,1549.6699 1839.6094,1549.5605 Q1839.7969,1549.4512 1840.0156,1549.4512 Q1840.3906,1549.4512 1840.625,1549.7168 Q1840.8594,1549.9668 1840.8594,1550.5762 L1840.8594,1552.0293 Q1840.8594,1552.6387 1840.625,1552.9043 Q1840.3906,1553.1699 1840.0156,1553.1699 Q1839.6719,1553.1699 1839.4688,1552.9668 Q1839.2656,1552.7793 1839.1563,1552.2637 Q1839.1094,1551.9043 1838.9219,1551.7168 Q1838.5938,1551.3418 1837.9844,1551.123 Q1837.375,1550.9043 1836.75,1550.9043 Q1835.9844,1550.9043 1835.3438,1551.2324 Q1834.7188,1551.5605 1834.2188,1552.3105 Q1833.7344,1553.0605 1833.7344,1554.0918 L1833.7344,1555.1855 Q1833.7344,1556.4199 1834.625,1557.248 Q1835.5156,1558.0605 1837.1094,1558.0605 Q1838.0469,1558.0605 1838.7031,1557.8105 Q1839.0938,1557.6543 1839.5156,1557.2168 Q1839.7813,1556.9512 1839.9219,1556.873 Q1840.0781,1556.7949 1840.2813,1556.7949 Q1840.6094,1556.7949 1840.8594,1557.0605 Q1841.125,1557.3105 1841.125,1557.6543 Q1841.125,1557.998 1840.7813,1558.4043 Q1840.2813,1558.9824 1839.4844,1559.3105 Q1838.4063,1559.7637 1837.1094,1559.7637 Q1835.5938,1559.7637 1834.3906,1559.1387 Q1833.4063,1558.6387 1832.7188,1557.5762 Q1832.0313,1556.498 1832.0313,1555.2168 L1832.0313,1554.0605 Q1832.0313,1552.7324 1832.6406,1551.5918 Q1833.2656,1550.4355 1834.3594,1549.8262 Q1835.4531,1549.2012 1836.6875,1549.2012 Q1837.4219,1549.2012 1838.0625,1549.373 Q1838.7188,1549.5293 1839.2656,1549.8887 Z " fill="#000000"/><text fill="#000000" font-family="sans-serif" font-size="14" lengthAdjust="spacing" textLength="43.5859" x="1850.5" y="1559.8105">Patient</text><line style="stroke:#181818;stroke-width:0.5;" x1="1822.5" x2="1896.0859" y1="1570.0137" y2="1570.0137"/><line style="stroke:#181818;stroke-width:0.5;" x1="1822.5" x2="1896.0859" y1="1578.0137" y2="1578.0137"/></g><!--class ImagingStudy--><g class="entity" data-entity="ImagingStudy" data-source-line="4" data-uid="ent0003" id="entity_ImagingStudy"><rect fill="#F1F1F1" height="48" rx="2.5" ry="2.5" style="stroke:#181818;stroke-width:0.5;" width="117.6064" x="1800.5" y="1621.0137"/><ellipse cx="1815.5" cy="1637.0137" fill="#ADD1B2" rx="11" ry="11" style="stroke:#181818;stroke-width:1;"/><path d="M1818.2656,1632.8887 Q1818.4219,1632.6699 1818.6094,1632.5605 Q1818.7969,1632.4512 1819.0156,1632.4512 Q1819.3906,1632.4512 1819.625,1632.7168 Q1819.8594,1632.9668 1819.8594,1633.5762 L1819.8594,1635.0293 Q1819.8594,1635.6387 1819.625,1635.9043 Q1819.3906,1636.1699 1819.0156,1636.1699 Q1818.6719,1636.1699 1818.4688,1635.9668 Q1818.2656,1635.7793 1818.1563,1635.2637 Q1818.1094,1634.9043 1817.9219,1634.7168 Q1817.5938,1634.3418 1816.9844,1634.123 Q1816.375,1633.9043 1815.75,1633.9043 Q1814.9844,1633.9043 1814.3438,1634.2324 Q1813.7188,1634.5605 1813.2188,1635.3105 Q1812.7344,1636.0605 1812.7344,1637.0918 L1812.7344,1638.1855 Q1812.7344,1639.4199 1813.625,1640.248 Q1814.5156,1641.0605 1816.1094,1641.0605 Q1817.0469,1641.0605 1817.7031,1640.8105 Q1818.0938,1640.6543 1818.5156,1640.2168 Q1818.7813,1639.9512 1818.9219,1639.873 Q1819.0781,1639.7949 1819.2813,1639.7949 Q1819.6094,1639.7949 1819.8594,1640.0605 Q1820.125,1640.3105 1820.125,1640.6543 Q1820.125,1640.998 1819.7813,1641.4043 Q1819.2813,1641.9824 1818.4844,1642.3105 Q1817.4063,1642.7637 1816.1094,1642.7637 Q1814.5938,1642.7637 1813.3906,1642.1387 Q1812.4063,1641.6387 1811.7188,1640.5762 Q1811.0313,1639.498 1811.0313,1638.2168 L1811.0313,1637.0605 Q1811.0313,1635.7324 1811.6406,1634.5918 Q1812.2656,1633.4355 1813.3594,1632.8262 Q1814.4531,1632.2012 1815.6875,1632.2012 Q1816.4219,1632.2012 1817.0625,1632.373 Q1817.7188,1632.5293 1818.2656,1632.8887 Z " fill="#000000"/><text fill="#000000" font-family="sans-serif" font-size="14" lengthAdjust="spacing" textLength="85.6064" x="1829.5" y="1642.8105">ImagingStudy</text><line style="stroke:#181818;stroke-width:0.5;" x1="1801.5" x2="1917.1064" y1="1653.0137" y2="1653.0137"/><line style="stroke:#181818;stroke-width:0.5;" x1="1801.5" x2="1917.1064" y1="1661.0137" y2="1661.0137"/></g><!--class ServiceRequest--><g class="entity" data-entity="ServiceRequest" data-source-line="5" data-uid="ent0004" id="entity_ServiceRequest"><rect fill="#F1F1F1" height="48" rx="2.5" ry="2.5" style="stroke:#181818;stroke-width:0.5;" width="130.8271" x="1794" y="1704.0137"/><ellipse cx="1809" cy="1720.0137" fill="#ADD1B2" rx="11" ry="11" style="stroke:#181818;stroke-width:1;"/><path d="M1811.7656,1715.8887 Q1811.9219,1715.6699 1812.1094,1715.5605 Q1812.2969,1715.4512 1812.5156,1715.4512 Q1812.8906,1715.4512 1813.125,1715.7168 Q1813.3594,1715.9668 1813.3594,1716.5762 L1813.3594,1718.0293 Q1813.3594,1718.6387 1813.125,1718.9043 Q1812.8906,1719.1699 1812.5156,1719.1699 Q1812.1719,1719.1699 1811.9688,1718.9668 Q1811.7656,1718.7793 1811.6563,1718.2637 Q1811.6094,1717.9043 1811.4219,1717.7168 Q1811.0938,1717.3418 1810.4844,1717.123 Q1809.875,1716.9043 1809.25,1716.9043 Q1808.4844,1716.9043 1807.8438,1717.2324 Q1807.2188,1717.5605 1806.7188,1718.3105 Q1806.2344,1719.0605 1806.2344,1720.0918 L1806.2344,1721.1855 Q1806.2344,1722.4199 1807.125,1723.248 Q1808.0156,1724.0605 1809.6094,1724.0605 Q1810.5469,1724.0605 1811.2031,1723.8105 Q1811.5938,1723.6543 1812.0156,1723.2168 Q1812.2813,1722.9512 1812.4219,1722.873 Q1812.5781,1722.7949 1812.7813,1722.7949 Q1813.1094,1722.7949 1813.3594,1723.0605 Q1813.625,1723.3105 1813.625,1723.6543 Q1813.625,1723.998 1813.2813,1724.4043 Q1812.7813,1724.9824 1811.9844,1725.3105 Q1810.9063,1725.7637 1809.6094,1725.7637 Q1808.0938,1725.7637 1806.8906,1725.1387 Q1805.9063,1724.6387 1805.2188,1723.5762 Q1804.5313,1722.498 1804.5313,1721.2168 L1804.5313,1720.0605 Q1804.5313,1718.7324 1805.1406,1717.5918 Q1805.7656,1716.4355 1806.8594,1715.8262 Q1807.9531,1715.2012 1809.1875,1715.2012 Q1809.9219,1715.2012 1810.5625,1715.373 Q1811.2188,1715.5293 1811.7656,1715.8887 Z " fill="#000000"/><text fill="#000000" font-family="sans-serif" font-size="14" lengthAdjust="spacing" textLength="98.8271" x="1823" y="1725.8105">ServiceRequest</text><line style="stroke:#181818;stroke-width:0.5;" x1="1795" x2="1923.8271" y1="1736.0137" y2="1736.0137"/><line style="stroke:#181818;stroke-width:0.5;" x1="1795" x2="1923.8271" y1="1744.0137" y2="1744.0137"/></g><!--class Device--><g class="entity" data-entity="Device" data-source-line="6" data-uid="ent0005" id="entity_Device"><rect fill="#F1F1F1" height="48" rx="2.5" ry="2.5" style="stroke:#181818;stroke-width:0.5;" width="74.793" x="1822" y="1455.0137"/><ellipse cx="1837" cy="1471.0137" fill="#ADD1B2" rx="11" ry="11" style="stroke:#181818;stroke-width:1;"/><path d="M1839.7656,1466.8887 Q1839.9219,1466.6699 1840.1094,1466.5605 Q1840.2969,1466.4512 1840.5156,1466.4512 Q1840.8906,1466.4512 1841.125,1466.7168 Q1841.3594,1466.9668 1841.3594,1467.5762 L1841.3594,1469.0293 Q1841.3594,1469.6387 1841.125,1469.9043 Q1840.8906,1470.1699 1840.5156,1470.1699 Q1840.1719,1470.1699 1839.9688,1469.9668 Q1839.7656,1469.7793 1839.6563,1469.2637 Q1839.6094,1468.9043 1839.4219,1468.7168 Q1839.0938,1468.3418 1838.4844,1468.123 Q1837.875,1467.9043 1837.25,1467.9043 Q1836.4844,1467.9043 1835.8438,1468.2324 Q1835.2188,1468.5605 1834.7188,1469.3105 Q1834.2344,1470.0605 1834.2344,1471.0918 L1834.2344,1472.1855 Q1834.2344,1473.4199 1835.125,1474.248 Q1836.0156,1475.0605 1837.6094,1475.0605 Q1838.5469,1475.0605 1839.2031,1474.8105 Q1839.5938,1474.6543 1840.0156,1474.2168 Q1840.2813,1473.9512 1840.4219,1473.873 Q1840.5781,1473.7949 1840.7813,1473.7949 Q1841.1094,1473.7949 1841.3594,1474.0605 Q1841.625,1474.3105 1841.625,1474.6543 Q1841.625,1474.998 1841.2813,1475.4043 Q1840.7813,1475.9824 1839.9844,1476.3105 Q1838.9063,1476.7637 1837.6094,1476.7637 Q1836.0938,1476.7637 1834.8906,1476.1387 Q1833.9063,1475.6387 1833.2188,1474.5762 Q1832.5313,1473.498 1832.5313,1472.2168 L1832.5313,1471.0605 Q1832.5313,1469.7324 1833.1406,1468.5918 Q1833.7656,1467.4355 1834.8594,1466.8262 Q1835.9531,1466.2012 1837.1875,1466.2012 Q1837.9219,1466.2012 1838.5625,1466.373 Q1839.2188,1466.5293 1839.7656,1466.8887 Z " fill="#000000"/><text fill="#000000" font-family="sans-serif" font-size="14" lengthAdjust="spacing" textLength="42.793" x="1851" y="1476.8105">Device</text><line style="stroke:#181818;stroke-width:0.5;" x1="1823" x2="1895.793" y1="1487.0137" y2="1487.0137"/><line style="stroke:#181818;stroke-width:0.5;" x1="1823" x2="1895.793" y1="1495.0137" y2="1495.0137"/></g><!--class Practitioner--><g class="entity" data-entity="Practitioner" data-source-line="7" data-uid="ent0006" id="entity_Practitioner"><rect fill="#F1F1F1" height="48" rx="2.5" ry="2.5" style="stroke:#181818;stroke-width:0.5;" width="102.8066" x="1808" y="1372.0137"/><ellipse cx="1823" cy="1388.0137" fill="#ADD1B2" rx="11" ry="11" style="stroke:#181818;stroke-width:1;"/><path d="M1825.7656,1383.8887 Q1825.9219,1383.6699 1826.1094,1383.5605 Q1826.2969,1383.4512 1826.5156,1383.4512 Q1826.8906,1383.4512 1827.125,1383.7168 Q1827.3594,1383.9668 1827.3594,1384.5762 L1827.3594,1386.0293 Q1827.3594,1386.6387 1827.125,1386.9043 Q1826.8906,1387.1699 1826.5156,1387.1699 Q1826.1719,1387.1699 1825.9688,1386.9668 Q1825.7656,1386.7793 1825.6563,1386.2637 Q1825.6094,1385.9043 1825.4219,1385.7168 Q1825.0938,1385.3418 1824.4844,1385.123 Q1823.875,1384.9043 1823.25,1384.9043 Q1822.4844,1384.9043 1821.8438,1385.2324 Q1821.2188,1385.5605 1820.7188,1386.3105 Q1820.2344,1387.0605 1820.2344,1388.0918 L1820.2344,1389.1855 Q1820.2344,1390.4199 1821.125,1391.248 Q1822.0156,1392.0605 1823.6094,1392.0605 Q1824.5469,1392.0605 1825.2031,1391.8105 Q1825.5938,1391.6543 1826.0156,1391.2168 Q1826.2813,1390.9512 1826.4219,1390.873 Q1826.5781,1390.7949 1826.7813,1390.7949 Q1827.1094,1390.7949 1827.3594,1391.0605 Q1827.625,1391.3105 1827.625,1391.6543 Q1827.625,1391.998 1827.2813,1392.4043 Q1826.7813,1392.9824 1825.9844,1393.3105 Q1824.9063,1393.7637 1823.6094,1393.7637 Q1822.0938,1393.7637 1820.8906,1393.1387 Q1819.9063,1392.6387 1819.2188,1391.5762 Q1818.5313,1390.498 1818.5313,1389.2168 L1818.5313,1388.0605 Q1818.5313,1386.7324 1819.1406,1385.5918 Q1819.7656,1384.4355 1820.8594,1383.8262 Q1821.9531,1383.2012 1823.1875,1383.2012 Q1823.9219,1383.2012 1824.5625,1383.373 Q1825.2188,1383.5293 1825.7656,1383.8887 Z " fill="#000000"/><text fill="#000000" font-family="sans-serif" font-size="14" lengthAdjust="spacing" textLength="70.8066" x="1837" y="1393.8105">Practitioner</text><line style="stroke:#181818;stroke-width:0.5;" x1="1809" x2="1909.8066" y1="1404.0137" y2="1404.0137"/><line style="stroke:#181818;stroke-width:0.5;" x1="1809" x2="1909.8066" y1="1412.0137" y2="1412.0137"/></g><!--class Observation--><g class="entity" data-entity="Observation" data-source-line="8" data-uid="ent0007" id="entity_Observation"><rect fill="#F1F1F1" height="48" rx="2.5" ry="2.5" style="stroke:#181818;stroke-width:0.5;" width="107.4824" x="1396" y="1538.0137"/><ellipse cx="1411" cy="1554.0137" fill="#ADD1B2" rx="11" ry="11" style="stroke:#181818;stroke-width:1;"/><path d="M1413.7656,1549.8887 Q1413.9219,1549.6699 1414.1094,1549.5605 Q1414.2969,1549.4512 1414.5156,1549.4512 Q1414.8906,1549.4512 1415.125,1549.7168 Q1415.3594,1549.9668 1415.3594,1550.5762 L1415.3594,1552.0293 Q1415.3594,1552.6387 1415.125,1552.9043 Q1414.8906,1553.1699 1414.5156,1553.1699 Q1414.1719,1553.1699 1413.9688,1552.9668 Q1413.7656,1552.7793 1413.6563,1552.2637 Q1413.6094,1551.9043 1413.4219,1551.7168 Q1413.0938,1551.3418 1412.4844,1551.123 Q1411.875,1550.9043 1411.25,1550.9043 Q1410.4844,1550.9043 1409.8438,1551.2324 Q1409.2188,1551.5605 1408.7188,1552.3105 Q1408.2344,1553.0605 1408.2344,1554.0918 L1408.2344,1555.1855 Q1408.2344,1556.4199 1409.125,1557.248 Q1410.0156,1558.0605 1411.6094,1558.0605 Q1412.5469,1558.0605 1413.2031,1557.8105 Q1413.5938,1557.6543 1414.0156,1557.2168 Q1414.2813,1556.9512 1414.4219,1556.873 Q1414.5781,1556.7949 1414.7813,1556.7949 Q1415.1094,1556.7949 1415.3594,1557.0605 Q1415.625,1557.3105 1415.625,1557.6543 Q1415.625,1557.998 1415.2813,1558.4043 Q1414.7813,1558.9824 1413.9844,1559.3105 Q1412.9063,1559.7637 1411.6094,1559.7637 Q1410.0938,1559.7637 1408.8906,1559.1387 Q1407.9063,1558.6387 1407.2188,1557.5762 Q1406.5313,1556.498 1406.5313,1555.2168 L1406.5313,1554.0605 Q1406.5313,1552.7324 1407.1406,1551.5918 Q1407.7656,1550.4355 1408.8594,1549.8262 Q1409.9531,1549.2012 1411.1875,1549.2012 Q1411.9219,1549.2012 1412.5625,1549.373 Q1413.2188,1549.5293 1413.7656,1549.8887 Z " fill="#000000"/><text fill="#000000" font-family="sans-serif" font-size="14" lengthAdjust="spacing" textLength="75.4824" x="1425" y="1559.8105">Observation</text><line style="stroke:#181818;stroke-width:0.5;" x1="1397" x2="1502.4824" y1="1570.0137" y2="1570.0137"/><line style="stroke:#181818;stroke-width:0.5;" x1="1397" x2="1502.4824" y1="1578.0137" y2="1578.0137"/></g><!--class ImagingSelection--><g class="entity" data-entity="ImagingSelection" data-source-line="9" data-uid="ent0008" id="entity_ImagingSelection"><rect fill="#F1F1F1" height="48" rx="2.5" ry="2.5" style="stroke:#181818;stroke-width:0.5;" width="139.3994" x="2030" y="420.0137"/><ellipse cx="2045" cy="436.0137" fill="#ADD1B2" rx="11" ry="11" style="stroke:#181818;stroke-width:1;"/><path d="M2047.7656,431.8887 Q2047.9219,431.6699 2048.1094,431.5605 Q2048.2969,431.4512 2048.5156,431.4512 Q2048.8906,431.4512 2049.125,431.7168 Q2049.3594,431.9668 2049.3594,432.5762 L2049.3594,434.0293 Q2049.3594,434.6387 2049.125,434.9043 Q2048.8906,435.1699 2048.5156,435.1699 Q2048.1719,435.1699 2047.9688,434.9668 Q2047.7656,434.7793 2047.6563,434.2637 Q2047.6094,433.9043 2047.4219,433.7168 Q2047.0938,433.3418 2046.4844,433.123 Q2045.875,432.9043 2045.25,432.9043 Q2044.4844,432.9043 2043.8438,433.2324 Q2043.2188,433.5605 2042.7188,434.3105 Q2042.2344,435.0605 2042.2344,436.0918 L2042.2344,437.1855 Q2042.2344,438.4199 2043.125,439.248 Q2044.0156,440.0605 2045.6094,440.0605 Q2046.5469,440.0605 2047.2031,439.8105 Q2047.5938,439.6543 2048.0156,439.2168 Q2048.2813,438.9512 2048.4219,438.873 Q2048.5781,438.7949 2048.7813,438.7949 Q2049.1094,438.7949 2049.3594,439.0605 Q2049.625,439.3105 2049.625,439.6543 Q2049.625,439.998 2049.2813,440.4043 Q2048.7813,440.9824 2047.9844,441.3105 Q2046.9063,441.7637 2045.6094,441.7637 Q2044.0938,441.7637 2042.8906,441.1387 Q2041.9063,440.6387 2041.2188,439.5762 Q2040.5313,438.498 2040.5313,437.2168 L2040.5313,436.0605 Q2040.5313,434.7324 2041.1406,433.5918 Q2041.7656,432.4355 2042.8594,431.8262 Q2043.9531,431.2012 2045.1875,431.2012 Q2045.9219,431.2012 2046.5625,431.373 Q2047.2188,431.5293 2047.7656,431.8887 Z " fill="#000000"/><text fill="#000000" font-family="sans-serif" font-size="14" lengthAdjust="spacing" textLength="107.3994" x="2059" y="441.8105">ImagingSelection</text><line style="stroke:#181818;stroke-width:0.5;" x1="2031" x2="2168.3994" y1="452.0137" y2="452.0137"/><line style="stroke:#181818;stroke-width:0.5;" x1="2031" x2="2168.3994" y1="460.0137" y2="460.0137"/></g><!--class BodyStructure--><g class="entity" data-entity="BodyStructure" data-source-line="10" data-uid="ent0009" id="entity_BodyStructure"><rect fill="#F1F1F1" height="48" rx="2.5" ry="2.5" style="stroke:#181818;stroke-width:0.5;" width="120.71" x="1799" y="1289.0137"/><ellipse cx="1814" cy="1305.0137" fill="#ADD1B2" rx="11" ry="11" style="stroke:#181818;stroke-width:1;"/><path d="M1816.7656,1300.8887 Q1816.9219,1300.6699 1817.1094,1300.5605 Q1817.2969,1300.4512 1817.5156,1300.4512 Q1817.8906,1300.4512 1818.125,1300.7168 Q1818.3594,1300.9668 1818.3594,1301.5762 L1818.3594,1303.0293 Q1818.3594,1303.6387 1818.125,1303.9043 Q1817.8906,1304.1699 1817.5156,1304.1699 Q1817.1719,1304.1699 1816.9688,1303.9668 Q1816.7656,1303.7793 1816.6563,1303.2637 Q1816.6094,1302.9043 1816.4219,1302.7168 Q1816.0938,1302.3418 1815.4844,1302.123 Q1814.875,1301.9043 1814.25,1301.9043 Q1813.4844,1301.9043 1812.8438,1302.2324 Q1812.2188,1302.5605 1811.7188,1303.3105 Q1811.2344,1304.0605 1811.2344,1305.0918 L1811.2344,1306.1855 Q1811.2344,1307.4199 1812.125,1308.248 Q1813.0156,1309.0605 1814.6094,1309.0605 Q1815.5469,1309.0605 1816.2031,1308.8105 Q1816.5938,1308.6543 1817.0156,1308.2168 Q1817.2813,1307.9512 1817.4219,1307.873 Q1817.5781,1307.7949 1817.7813,1307.7949 Q1818.1094,1307.7949 1818.3594,1308.0605 Q1818.625,1308.3105 1818.625,1308.6543 Q1818.625,1308.998 1818.2813,1309.4043 Q1817.7813,1309.9824 1816.9844,1310.3105 Q1815.9063,1310.7637 1814.6094,1310.7637 Q1813.0938,1310.7637 1811.8906,1310.1387 Q1810.9063,1309.6387 1810.2188,1308.5762 Q1809.5313,1307.498 1809.5313,1306.2168 L1809.5313,1305.0605 Q1809.5313,1303.7324 1810.1406,1302.5918 Q1810.7656,1301.4355 1811.8594,1300.8262 Q1812.9531,1300.2012 1814.1875,1300.2012 Q1814.9219,1300.2012 1815.5625,1300.373 Q1816.2188,1300.5293 1816.7656,1300.8887 Z " fill="#000000"/><text fill="#000000" font-family="sans-serif" font-size="14" lengthAdjust="spacing" textLength="88.71" x="1828" y="1310.8105">BodyStructure</text><line style="stroke:#181818;stroke-width:0.5;" x1="1800" x2="1918.71" y1="1321.0137" y2="1321.0137"/><line style="stroke:#181818;stroke-width:0.5;" x1="1800" x2="1918.71" y1="1329.0137" y2="1329.0137"/></g><!--reverse link GeneralEquipmentDevice to Device--><g class="link" data-entity-1="GeneralEquipmentDevice" data-entity-2="Device" data-source-line="42" data-uid="lnk33" id="link_GeneralEquipmentDevice_Device"><path codeLine="42" d="M1563.3714,1133.9984 C1589.5614,1139.8184 1598.08,1146.9037 1616,1167.0137 C1690.23,1250.3137 1575.79,1330.9537 1648,1416.0137 C1670.53,1442.5537 1767.92,1463.2637 1821.98,1472.9737" fill="none" id="GeneralEquipmentDevice-backto-Device" style="stroke:#181818;stroke-width:1;"/><polygon fill="none" points="1545.8,1130.0937,1562.0698,1139.8555,1564.6729,1128.1413,1545.8,1130.0937" style="stroke:#181818;stroke-width:1;"/></g><!--reverse link ParticipantDevice to Device--><g class="link" data-entity-1="ParticipantDevice" data-entity-2="Device" data-source-line="43" data-uid="lnk34" id="link_ParticipantDevice_Device"><path codeLine="43" d="M1538.2519,1044.6734 C1572.0419,1048.3934 1592.42,1057.0537 1616,1084.0137 C1701.67,1181.9437 1577.57,1265.6037 1648,1375.0137 C1668.71,1407.1837 1689.39,1398.9937 1722,1419.0137 C1735.45,1427.2737 1737.9,1430.9237 1752,1438.0137 C1774.48,1449.3237 1800.86,1459.5037 1821.75,1466.8837" fill="none" id="ParticipantDevice-backto-Device" style="stroke:#181818;stroke-width:1;"/><polygon fill="none" points="1520.36,1042.7037,1537.5953,1050.6374,1538.9085,1038.7095,1520.36,1042.7037" style="stroke:#181818;stroke-width:1;"/></g><!--reverse link AlgorithmIdentification to Device--><g class="link" data-entity-1="AlgorithmIdentification" data-entity-2="Device" data-source-line="44" data-uid="lnk35" id="link_AlgorithmIdentification_Device"><path codeLine="44" d="M1469.4405,1249.5763 C1494.3905,1301.1363 1552.42,1404.6537 1648,1457.0137 C1702.78,1487.0237 1777.63,1486.8837 1821.74,1483.3937" fill="none" id="AlgorithmIdentification-backto-Device" style="stroke:#181818;stroke-width:1;"/><polygon fill="none" points="1461.6,1233.3737,1464.0396,1252.1898,1474.8414,1246.9628,1461.6,1233.3737" style="stroke:#181818;stroke-width:1;"/></g><!--reverse link ParticipantPractitioner to Practitioner--><g class="link" data-entity-1="ParticipantPractitioner" data-entity-2="Practitioner" data-source-line="46" data-uid="lnk36" id="link_ParticipantPractitioner_Practitioner"><path codeLine="46" d="M1551.703,958.879 C1582.003,967.499 1596.27,977.4337 1616,1003.0137 C1661.13,1061.5237 1600.94,1277.0337 1648,1334.0137 C1668.32,1358.6137 1752.16,1377.5637 1807.71,1387.7237" fill="none" id="ParticipantPractitioner-backto-Practitioner" style="stroke:#181818;stroke-width:1;"/><polygon fill="none" points="1534.39,953.9537,1550.0612,964.65,1553.3448,953.108,1534.39,953.9537" style="stroke:#181818;stroke-width:1;"/></g><!--reverse link ImagingObservation to Observation--><g class="link" data-entity-1="ImagingObservation" data-entity-2="Observation" data-source-line="48" data-uid="lnk37" id="link_ImagingObservation_Observation"><path codeLine="48" d="M1066.273,777.278 C1074.383,845.558 1100.47,1025.4537 1169,1174.0137 C1239.24,1326.2937 1372.66,1479.8337 1425.81,1537.8337" fill="none" id="ImagingObservation-backto-Observation" style="stroke:#181818;stroke-width:1;"/><polygon fill="none" points="1064.15,759.4037,1060.3149,777.9857,1072.2312,776.5704,1064.15,759.4037" style="stroke:#181818;stroke-width:1;"/></g><!--reverse link ImagingMeasurementGroup to ImagingObservation--><g class="link" data-entity-1="ImagingMeasurementGroup" data-entity-2="ImagingObservation" data-source-line="49" data-uid="lnk38" id="link_ImagingMeasurementGroup_ImagingObservation"><path codeLine="49" d="M596.1745,830.5379 C687.7045,842.2479 806.8,848.2837 921,817.0137 C961.97,805.7937 1003.11,778.9937 1029.78,759.0637" fill="none" id="ImagingMeasurementGroup-backto-ImagingObservation" style="stroke:#181818;stroke-width:1;"/><polygon fill="none" points="578.32,828.2537,595.4131,836.4894,596.9359,824.5864,578.32,828.2537" style="stroke:#181818;stroke-width:1;"/></g><!--reverse link ImagingMeasurement to ImagingObservation--><g class="link" data-entity-1="ImagingMeasurement" data-entity-2="ImagingObservation" data-source-line="50" data-uid="lnk39" id="link_ImagingMeasurement_ImagingObservation"><path codeLine="50" d="M915.8615,759.1532 C942.9615,754.6032 955.21,752.5337 981.92,748.0537" fill="none" id="ImagingMeasurement-backto-ImagingObservation" style="stroke:#181818;stroke-width:1;"/><polygon fill="none" points="898.11,762.1337,916.855,765.0704,914.8681,753.2361,898.11,762.1337" style="stroke:#181818;stroke-width:1;"/></g><!--reverse link ImagingQualitativeEvaluation to ImagingObservation--><g class="link" data-entity-1="ImagingQualitativeEvaluation" data-entity-2="ImagingObservation" data-source-line="51" data-uid="lnk40" id="link_ImagingQualitativeEvaluation_ImagingObservation"><path codeLine="51" d="M938.8395,714.2447 C959.1895,717.7447 962.42,718.3037 981.69,721.6237" fill="none" id="ImagingQualitativeEvaluation-backto-ImagingObservation" style="stroke:#181818;stroke-width:1;"/><polygon fill="none" points="921.1,711.1937,937.8225,720.1579,939.8565,708.3315,921.1,711.1937" style="stroke:#181818;stroke-width:1;"/></g><!--reverse link DerivedImagingMeasurement to Observation--><g class="link" data-entity-1="DerivedImagingMeasurement" data-entity-2="Observation" data-source-line="52" data-uid="lnk41" id="link_DerivedImagingMeasurement_Observation"><path codeLine="52" d="M147.2824,1120.9225 C180.0624,1200.6825 290.28,1433.0137 474,1433.0137 C474,1433.0137 474,1433.0137 1061.5,1433.0137 C1192.7,1433.0137 1336.67,1500.5637 1406.22,1537.9037" fill="none" id="DerivedImagingMeasurement-backto-Observation" style="stroke:#181818;stroke-width:1;"/><polygon fill="none" points="140.44,1104.2737,141.7328,1123.2032,152.832,1118.6417,140.44,1104.2737" style="stroke:#181818;stroke-width:1;"/></g><!--reverse link ObservationImagingSelection to ImagingSelection--><g class="link" data-entity-1="ObservationImagingSelection" data-entity-2="ImagingSelection" data-source-line="54" data-uid="lnk42" id="link_ObservationImagingSelection_ImagingSelection"><path codeLine="54" d="M1985.32,444.0137 C2006.57,444.0137 2010.35,444.0137 2029.9,444.0137" fill="none" id="ObservationImagingSelection-backto-ImagingSelection" style="stroke:#181818;stroke-width:1;"/><polygon fill="none" points="1967.32,444.0137,1985.32,450.0137,1985.32,438.0137,1967.32,444.0137" style="stroke:#181818;stroke-width:1;"/></g><!--reverse link IllustrationOfRoi to ObservationImagingSelection--><g class="link" data-entity-1="IllustrationOfRoi" data-entity-2="ObservationImagingSelection" data-source-line="55" data-uid="lnk43" id="link_IllustrationOfRoi_ObservationImagingSelection"><path codeLine="55" d="M1533.2387,510.1854 C1596.7987,497.2554 1676.97,480.9437 1751.89,465.7037" fill="none" id="IllustrationOfRoi-backto-ObservationImagingSelection" style="stroke:#181818;stroke-width:1;"/><polygon fill="none" points="1515.6,513.7737,1534.4348,516.065,1532.0426,504.3059,1515.6,513.7737" style="stroke:#181818;stroke-width:1;"/></g><!--reverse link ImageRegion2d to ObservationImagingSelection--><g class="link" data-entity-1="ImageRegion2d" data-entity-2="ObservationImagingSelection" data-source-line="56" data-uid="lnk44" id="link_ImageRegion2d_ObservationImagingSelection"><path codeLine="56" d="M1533.15,444.0137 C1596.63,444.0137 1676.58,444.0137 1751.65,444.0137" fill="none" id="ImageRegion2d-backto-ObservationImagingSelection" style="stroke:#181818;stroke-width:1;"/><polygon fill="none" points="1515.15,444.0137,1533.15,450.0137,1533.15,438.0137,1515.15,444.0137" style="stroke:#181818;stroke-width:1;"/></g><!--reverse link ImageRegion3d to ObservationImagingSelection--><g class="link" data-entity-1="ImageRegion3d" data-entity-2="ObservationImagingSelection" data-source-line="57" data-uid="lnk45" id="link_ImageRegion3d_ObservationImagingSelection"><path codeLine="57" d="M1532.7889,377.7509 C1596.2689,390.6609 1676.58,407.0037 1751.65,422.2737" fill="none" id="ImageRegion3d-backto-ObservationImagingSelection" style="stroke:#181818;stroke-width:1;"/><polygon fill="none" points="1515.15,374.1637,1531.5932,383.6306,1533.9847,371.8713,1515.15,374.1637" style="stroke:#181818;stroke-width:1;"/></g><!--reverse link RealWorldValueMap to ObservationImagingSelection--><g class="link" data-entity-1="RealWorldValueMap" data-entity-2="ObservationImagingSelection" data-source-line="58" data-uid="lnk46" id="link_RealWorldValueMap_ObservationImagingSelection"><path codeLine="58" d="M1547.0435,297.7479 C1574.8135,304.2679 1588.43,308.6537 1616,319.0137 C1690.49,347.0037 1771.65,392.0837 1818.64,419.7737" fill="none" id="RealWorldValueMap-backto-ObservationImagingSelection" style="stroke:#181818;stroke-width:1;"/><polygon fill="none" points="1529.52,293.6337,1545.6721,303.5891,1548.4149,291.9068,1529.52,293.6337" style="stroke:#181818;stroke-width:1;"/></g><!--reverse link ReferencedSegment to ObservationImagingSelection--><g class="link" data-entity-1="ReferencedSegment" data-entity-2="ObservationImagingSelection" data-source-line="59" data-uid="lnk47" id="link_ReferencedSegment_ObservationImagingSelection"><path codeLine="59" d="M1547.4013,210.7036 C1575.6413,216.9036 1589.43,222.3137 1616,236.0137 C1710.17,284.5537 1798.81,376.4437 1837.75,419.9837" fill="none" id="ReferencedSegment-backto-ObservationImagingSelection" style="stroke:#181818;stroke-width:1;"/><polygon fill="none" points="1529.82,206.8437,1546.1146,216.564,1548.6879,204.8432,1529.82,206.8437" style="stroke:#181818;stroke-width:1;"/></g><!--reverse link ReferencedSegmentationFrame to ObservationImagingSelection--><g class="link" data-entity-1="ReferencedSegmentationFrame" data-entity-2="ObservationImagingSelection" data-source-line="60" data-uid="lnk48" id="link_ReferencedSegmentationFrame_ObservationImagingSelection"><path codeLine="60" d="M1582.5473,136.3152 C1600.2173,141.8852 1600.54,143.6837 1616,153.0137 C1729.74,221.6537 1814.97,363.1537 1845.86,419.7937" fill="none" id="ReferencedSegmentationFrame-backto-ObservationImagingSelection" style="stroke:#181818;stroke-width:1;"/><polygon fill="none" points="1565.38,130.9037,1580.7434,142.0376,1584.3511,130.5928,1565.38,130.9037" style="stroke:#181818;stroke-width:1;"/></g><!--reverse link RegionInSpace to ObservationImagingSelection--><g class="link" data-entity-1="RegionInSpace" data-entity-2="ObservationImagingSelection" data-source-line="61" data-uid="lnk49" id="link_RegionInSpace_ObservationImagingSelection"><path codeLine="61" d="M1531.3361,764.0342 C1563.3661,757.8742 1584.39,750.9637 1616,734.0137 C1733.41,671.0537 1817.1,525.5937 1846.72,468.0637" fill="none" id="RegionInSpace-backto-ObservationImagingSelection" style="stroke:#181818;stroke-width:1;"/><polygon fill="none" points="1513.66,767.4337,1532.4692,769.9262,1530.2029,758.1422,1513.66,767.4337" style="stroke:#181818;stroke-width:1;"/></g><!--reverse link VisualExplanation to ObservationImagingSelection--><g class="link" data-entity-1="VisualExplanation" data-entity-2="ObservationImagingSelection" data-source-line="62" data-uid="lnk50" id="link_VisualExplanation_ObservationImagingSelection"><path codeLine="62" d="M1538.6224,678.5885 C1568.9624,672.1885 1586.54,666.0037 1616,651.0137 C1709.98,603.1937 1798.37,511.9137 1837.46,468.3437" fill="none" id="VisualExplanation-backto-ObservationImagingSelection" style="stroke:#181818;stroke-width:1;"/><polygon fill="none" points="1521.01,682.3037,1539.8608,684.4593,1537.384,672.7177,1521.01,682.3037" style="stroke:#181818;stroke-width:1;"/></g><!--reverse link VolumeSurface to ObservationImagingSelection--><g class="link" data-entity-1="VolumeSurface" data-entity-2="ObservationImagingSelection" data-source-line="63" data-uid="lnk51" id="link_VolumeSurface_ObservationImagingSelection"><path codeLine="63" d="M1531.1567,593.5236 C1562.4667,586.4436 1582.99,580.4637 1616,568.0137 C1690.11,540.0637 1771.05,495.6037 1818.16,468.2037" fill="none" id="VolumeSurface-backto-ObservationImagingSelection" style="stroke:#181818;stroke-width:1;"/><polygon fill="none" points="1513.6,597.4937,1532.4801,599.3759,1529.8334,587.6714,1513.6,597.4937" style="stroke:#181818;stroke-width:1;"/></g><!--reverse link FindingSite to BodyStructure--><g class="link" data-entity-1="FindingSite" data-entity-2="BodyStructure" data-source-line="65" data-uid="lnk52" id="link_FindingSite_BodyStructure"><path codeLine="65" d="M1518.6928,860.8581 C1554.8428,863.7481 1584.62,871.8237 1616,900.0137 C1747.25,1017.9437 1627.83,1147.6437 1752,1273.0137 C1764.72,1285.8537 1781.95,1294.6237 1798.84,1300.5937" fill="none" id="FindingSite-backto-BodyStructure" style="stroke:#181818;stroke-width:1;"/><polygon fill="none" points="1500.75,859.4237,1518.2146,866.839,1519.1709,854.8772,1500.75,859.4237" style="stroke:#181818;stroke-width:1;"/></g><!--link Observation to Patient--><g class="link" data-entity-1="Observation" data-entity-2="Patient" data-source-line="67" data-uid="lnk53" id="link_Observation_Patient"><path codeLine="67" d="M1503,1562.0137 C1586.73,1562.0137 1742.44,1562.0137 1815.3,1562.0137" fill="none" id="Observation-to-Patient" style="stroke:#181818;stroke-width:1;"/><polygon fill="#181818" points="1821.3,1562.0137,1812.3,1558.0137,1816.3,1562.0137,1812.3,1566.0137,1821.3,1562.0137" style="stroke:#181818;stroke-width:1;"/><text fill="#000000" font-family="sans-serif" font-size="13" lengthAdjust="spacing" textLength="41.1899" x="1664.5" y="1558.042">subject</text></g><!--link Observation to ImagingStudy--><g class="link" data-entity-1="Observation" data-entity-2="ImagingStudy" data-source-line="68" data-uid="lnk54" id="link_Observation_ImagingStudy"><path codeLine="68" d="M1503,1572.6937 C1579.41,1588.2337 1714.8804,1615.7979 1794.3904,1631.9679" fill="none" id="Observation-to-ImagingStudy" style="stroke:#181818;stroke-width:1;"/><polygon fill="#181818" points="1800.27,1633.1637,1792.2477,1627.4503,1795.3703,1632.1672,1790.6534,1635.2898,1800.27,1633.1637" style="stroke:#181818;stroke-width:1;"/><text fill="#000000" font-family="sans-serif" font-size="13" lengthAdjust="spacing" textLength="52.7617" x="1659" y="1599.042">basedOn</text></g><!--link Observation to ServiceRequest--><g class="link" data-entity-1="Observation" data-entity-2="ServiceRequest" data-source-line="69" data-uid="lnk55" id="link_Observation_ServiceRequest"><path codeLine="69" d="M1503.16,1584.3237 C1563.21,1609.6537 1664.39,1651.9937 1752,1687.0137 C1765.98,1692.6037 1775.4528,1696.3224 1789.7228,1701.8324" fill="none" id="Observation-to-ServiceRequest" style="stroke:#181818;stroke-width:1;"/><polygon fill="#181818" points="1795.32,1703.9937,1788.365,1697.0203,1790.6556,1702.1926,1785.4833,1704.4833,1795.32,1703.9937" style="stroke:#181818;stroke-width:1;"/><text fill="#000000" font-family="sans-serif" font-size="13" lengthAdjust="spacing" textLength="72.9663" x="1649" y="1642.042">derivedFrom</text></g><!--link ImagingObservation to GeneralEquipmentDevice--><g class="link" data-entity-1="ImagingObservation" data-entity-2="GeneralEquipmentDevice" data-source-line="71" data-uid="lnk56" id="link_ImagingObservation_GeneralEquipmentDevice"><path codeLine="71" d="M1064.59,759.3137 C1072.59,813.1037 1098.48,943.8137 1169,1024.0137 C1215.64,1077.0637 1286.3261,1101.369 1347.5361,1113.589" fill="none" id="ImagingObservation-to-GeneralEquipmentDevice" style="stroke:#181818;stroke-width:1;"/><polygon fill="#181818" points="1353.42,1114.7637,1345.3773,1109.0791,1348.5168,1113.7848,1343.8111,1116.9243,1353.42,1114.7637" style="stroke:#181818;stroke-width:1;"/><text fill="#000000" font-family="sans-serif" font-size="13" lengthAdjust="spacing" textLength="37.5781" x="1191.5" y="1020.042">device</text></g><!--link ImagingObservation to ParticipantDevice--><g class="link" data-entity-1="ImagingObservation" data-entity-2="ParticipantDevice" data-source-line="72" data-uid="lnk57" id="link_ImagingObservation_ParticipantDevice"><path codeLine="72" d="M1071.39,759.2137 C1096.5,816.9337 1168.96,961.8437 1283,1015.0137 C1312.71,1028.8637 1342.3111,1035.253 1372.8411,1038.843" fill="none" id="ImagingObservation-to-ParticipantDevice" style="stroke:#181818;stroke-width:1;"/><polygon fill="#181818" points="1378.8,1039.5437,1370.3287,1034.52,1373.8342,1038.9597,1369.3944,1042.4652,1378.8,1039.5437" style="stroke:#181818;stroke-width:1;"/><text fill="#000000" font-family="sans-serif" font-size="13" lengthAdjust="spacing" textLength="37.5781" x="1191.5" y="921.042">device</text></g><!--link ImagingObservation to AlgorithmIdentification--><g class="link" data-entity-1="ImagingObservation" data-entity-2="AlgorithmIdentification" data-source-line="73" data-uid="lnk58" id="link_ImagingObservation_AlgorithmIdentification"><path codeLine="73" d="M1062.1,759.3837 C1064.92,823.7037 1080.75,1000.4137 1169,1108.0137 C1216.77,1166.2637 1295.0393,1189.9516 1358.5693,1200.3816" fill="none" id="ImagingObservation-to-AlgorithmIdentification" style="stroke:#181818;stroke-width:1;"/><polygon fill="#181818" points="1364.49,1201.3537,1356.2569,1195.9485,1359.5561,1200.5436,1354.9609,1203.8428,1364.49,1201.3537" style="stroke:#181818;stroke-width:1;"/><text fill="#000000" font-family="sans-serif" font-size="13" lengthAdjust="spacing" textLength="37.5781" x="1191.5" y="1104.042">device</text></g><!--link ImagingObservation to ParticipantPractitioner--><g class="link" data-entity-1="ImagingObservation" data-entity-2="ParticipantPractitioner" data-source-line="74" data-uid="lnk59" id="link_ImagingObservation_ParticipantPractitioner"><path codeLine="74" d="M1079.44,759.0537 C1099.15,784.1337 1132.85,823.3337 1169,849.0137 C1227.57,890.6237 1300.184,913.267 1359.074,926.407" fill="none" id="ImagingObservation-to-ParticipantPractitioner" style="stroke:#181818;stroke-width:1;"/><polygon fill="#181818" points="1364.93,927.7137,1357.0171,921.8497,1360.05,926.6248,1355.2749,929.6577,1364.93,927.7137" style="stroke:#181818;stroke-width:1;"/><text fill="#000000" font-family="sans-serif" font-size="13" lengthAdjust="spacing" textLength="56.3481" x="1182" y="845.042">performer</text></g><!--link DerivedImagingMeasurement to GeneralEquipmentDevice--><g class="link" data-entity-1="DerivedImagingMeasurement" data-entity-2="GeneralEquipmentDevice" data-source-line="75" data-uid="lnk60" id="link_DerivedImagingMeasurement_GeneralEquipmentDevice"><path codeLine="75" d="M238.28,1101.3937 C305.67,1113.0037 394.57,1125.0137 474,1125.0137 C474,1125.0137 474,1125.0137 1061.5,1125.0137 C1161.11,1125.0137 1269.13,1125.3322 1347.47,1125.6122" fill="none" id="DerivedImagingMeasurement-to-GeneralEquipmentDevice" style="stroke:#181818;stroke-width:1;"/><polygon fill="#181818" points="1353.47,1125.6337,1344.4844,1121.6015,1348.47,1125.6158,1344.4558,1129.6015,1353.47,1125.6337" style="stroke:#181818;stroke-width:1;"/><text fill="#000000" font-family="sans-serif" font-size="13" lengthAdjust="spacing" textLength="37.5781" x="796" y="1121.042">device</text></g><!--link DerivedImagingMeasurement to ParticipantDevice--><g class="link" data-entity-1="DerivedImagingMeasurement" data-entity-2="ParticipantDevice" data-source-line="76" data-uid="lnk61" id="link_DerivedImagingMeasurement_ParticipantDevice"><path codeLine="76" d="M238.3,1059.1137 C305.7,1047.7537 394.6,1036.0137 474,1036.0137 C474,1036.0137 474,1036.0137 1061.5,1036.0137 C1172.55,1036.0137 1295.4821,1038.7742 1372.9521,1040.8342" fill="none" id="DerivedImagingMeasurement-to-ParticipantDevice" style="stroke:#181818;stroke-width:1;"/><polygon fill="#181818" points="1378.95,1040.9937,1370.0595,1036.7559,1373.9518,1040.8608,1369.8469,1044.753,1378.95,1040.9937" style="stroke:#181818;stroke-width:1;"/><text fill="#000000" font-family="sans-serif" font-size="13" lengthAdjust="spacing" textLength="37.5781" x="796" y="1032.042">device</text></g><!--link DerivedImagingMeasurement to AlgorithmIdentification--><g class="link" data-entity-1="DerivedImagingMeasurement" data-entity-2="AlgorithmIdentification" data-source-line="77" data-uid="lnk62" id="link_DerivedImagingMeasurement_AlgorithmIdentification"><path codeLine="77" d="M166.75,1104.2837 C227.22,1142.8937 354.77,1214.0137 474,1214.0137 C474,1214.0137 474,1214.0137 1061.5,1214.0137 C1165.82,1214.0137 1279.941,1212.2846 1358.331,1210.8346" fill="none" id="DerivedImagingMeasurement-to-AlgorithmIdentification" style="stroke:#181818;stroke-width:1;"/><polygon fill="#181818" points="1364.33,1210.7237,1355.2576,1206.8908,1359.3309,1210.8161,1355.4055,1214.8894,1364.33,1210.7237" style="stroke:#181818;stroke-width:1;"/><text fill="#000000" font-family="sans-serif" font-size="13" lengthAdjust="spacing" textLength="37.5781" x="796" y="1210.042">device</text></g><!--link DerivedImagingMeasurement to ParticipantPractitioner--><g class="link" data-entity-1="DerivedImagingMeasurement" data-entity-2="ParticipantPractitioner" data-source-line="78" data-uid="lnk63" id="link_DerivedImagingMeasurement_ParticipantPractitioner"><path codeLine="78" d="M166.24,1055.8737 C226.47,1017.0437 354.33,945.0137 474,945.0137 C474,945.0137 474,945.0137 1061.5,945.0137 C1165.98,945.0137 1280.3204,943.9703 1358.7104,943.1003" fill="none" id="DerivedImagingMeasurement-to-ParticipantPractitioner" style="stroke:#181818;stroke-width:1;"/><polygon fill="#181818" points="1364.71,943.0337,1355.6662,939.1338,1359.7103,943.0892,1355.7549,947.1333,1364.71,943.0337" style="stroke:#181818;stroke-width:1;"/><text fill="#000000" font-family="sans-serif" font-size="13" lengthAdjust="spacing" textLength="56.3481" x="786.5" y="941.042">performer</text></g><!--link ImagingObservation to FindingSite--><g class="link" data-entity-1="ImagingObservation" data-entity-2="FindingSite" data-source-line="80" data-uid="lnk64" id="link_ImagingObservation_FindingSite"><path codeLine="80" d="M1096.94,759.1337 C1117.26,772.0037 1143.7,787.1837 1169,797.0137 C1246.25,827.0437 1335.5135,843.3828 1392.5035,851.7428" fill="none" id="ImagingObservation-to-FindingSite" style="stroke:#181818;stroke-width:1;"/><polygon fill="#181818" points="1398.44,852.6137,1390.1159,847.3498,1393.4929,851.888,1388.9547,855.2651,1398.44,852.6137" style="stroke:#181818;stroke-width:1;"/><text fill="#000000" font-family="sans-serif" font-size="13" lengthAdjust="spacing" textLength="80.9326" x="1170" y="793.042">bodyStructure</text></g><!--link ImagingObservation to IllustrationOfRoi--><g class="link" data-entity-1="ImagingObservation" data-entity-2="IllustrationOfRoi" data-source-line="82" data-uid="lnk65" id="link_ImagingObservation_IllustrationOfRoi"><path codeLine="82" d="M1084.03,710.8937 C1104.88,689.3137 1137.36,657.5537 1169,634.0137 C1215.98,599.0737 1228.71,589.9337 1283,568.0137 C1314.98,555.1037 1346.2551,546.7198 1377.2451,540.0298" fill="none" id="ImagingObservation-to-IllustrationOfRoi" style="stroke:#181818;stroke-width:1;"/><polygon fill="#181818" points="1383.11,538.7637,1373.4686,536.7529,1378.2226,539.8187,1375.1567,544.5727,1383.11,538.7637" style="stroke:#181818;stroke-width:1;"/><text fill="#000000" font-family="sans-serif" font-size="13" lengthAdjust="spacing" textLength="72.9663" x="1174" y="579.042">derivedFrom</text></g><!--link ImagingObservation to ImageRegion2d--><g class="link" data-entity-1="ImagingObservation" data-entity-2="ImageRegion2d" data-source-line="83" data-uid="lnk66" id="link_ImagingObservation_ImageRegion2d"><path codeLine="83" d="M1071.52,710.8837 C1087.72,674.0637 1122.6,603.1737 1169,556.0137 C1227.39,496.6737 1315.4216,469.0734 1378.0616,455.7334" fill="none" id="ImagingObservation-to-ImageRegion2d" style="stroke:#181818;stroke-width:1;"/><polygon fill="#181818" points="1383.93,454.4837,1374.2942,452.446,1379.0397,455.5251,1375.9606,460.2706,1383.93,454.4837" style="stroke:#181818;stroke-width:1;"/><text fill="#000000" font-family="sans-serif" font-size="13" lengthAdjust="spacing" textLength="72.9663" x="1174" y="497.042">derivedFrom</text></g><!--link ImagingObservation to ImageRegion3d--><g class="link" data-entity-1="ImagingObservation" data-entity-2="ImageRegion3d" data-source-line="84" data-uid="lnk67" id="link_ImagingObservation_ImageRegion3d"><path codeLine="84" d="M1066.26,710.8337 C1077.01,661.4737 1107.19,547.5337 1169,474.0137 C1223.23,409.5137 1313.9012,382.5407 1378.1012,370.6007" fill="none" id="ImagingObservation-to-ImageRegion3d" style="stroke:#181818;stroke-width:1;"/><polygon fill="#181818" points="1384,369.5037,1374.4203,367.2167,1379.0843,370.4179,1375.8831,375.0819,1384,369.5037" style="stroke:#181818;stroke-width:1;"/><text fill="#000000" font-family="sans-serif" font-size="13" lengthAdjust="spacing" textLength="72.9663" x="1174" y="411.042">derivedFrom</text></g><!--link ImagingObservation to RealWorldValueMap--><g class="link" data-entity-1="ImagingObservation" data-entity-2="RealWorldValueMap" data-source-line="85" data-uid="lnk68" id="link_ImagingObservation_RealWorldValueMap"><path codeLine="85" d="M1063.16,710.8737 C1068.44,650.3237 1089.57,489.6237 1169,388.0137 C1217.17,326.3837 1298.9507,300.3083 1363.3007,288.3683" fill="none" id="ImagingObservation-to-RealWorldValueMap" style="stroke:#181818;stroke-width:1;"/><polygon fill="#181818" points="1369.2,287.2737,1359.6213,284.9827,1364.2839,288.1858,1361.0808,292.8484,1369.2,287.2737" style="stroke:#181818;stroke-width:1;"/><text fill="#000000" font-family="sans-serif" font-size="13" lengthAdjust="spacing" textLength="72.9663" x="1174" y="321.042">derivedFrom</text></g><!--link ImagingObservation to ReferencedSegment--><g class="link" data-entity-1="ImagingObservation" data-entity-2="ReferencedSegment" data-source-line="86" data-uid="lnk69" id="link_ImagingObservation_ReferencedSegment"><path codeLine="86" d="M1060.96,710.8537 C1060.61,639.7737 1068.56,428.2437 1169,298.0137 C1216.53,236.3837 1298.8497,212.5253 1363.5097,202.5853" fill="none" id="ImagingObservation-to-ReferencedSegment" style="stroke:#181818;stroke-width:1;"/><polygon fill="#181818" points="1369.44,201.6737,1359.9367,199.0876,1364.4981,202.4334,1361.1523,206.9947,1369.44,201.6737" style="stroke:#181818;stroke-width:1;"/><text fill="#000000" font-family="sans-serif" font-size="13" lengthAdjust="spacing" textLength="72.9663" x="1174" y="232.042">derivedFrom</text></g><!--link ImagingObservation to ReferencedSegmentationFrame--><g class="link" data-entity-1="ImagingObservation" data-entity-2="ReferencedSegmentationFrame" data-source-line="87" data-uid="lnk70" id="link_ImagingObservation_ReferencedSegmentationFrame"><path codeLine="87" d="M1063.62,710.9237 C1072.13,618.7937 1106.45,289.9537 1169,209.0137 C1208.1,158.4137 1269.3946,135.2509 1328.0846,123.6109" fill="none" id="ImagingObservation-to-ReferencedSegmentationFrame" style="stroke:#181818;stroke-width:1;"/><polygon fill="#181818" points="1333.97,122.4437,1324.3638,120.271,1329.0655,123.4164,1325.9201,128.1181,1333.97,122.4437" style="stroke:#181818;stroke-width:1;"/><text fill="#000000" font-family="sans-serif" font-size="13" lengthAdjust="spacing" textLength="72.9663" x="1174" y="145.042">derivedFrom</text></g><!--link ImagingObservation to RegionInSpace--><g class="link" data-entity-1="ImagingObservation" data-entity-2="RegionInSpace" data-source-line="88" data-uid="lnk71" id="link_ImagingObservation_RegionInSpace"><path codeLine="88" d="M1139.26,755.5937 C1149.22,757.7037 1159.31,759.5937 1169,761.0137 C1242.8,771.8237 1322.5907,774.9729 1379.4507,775.8329" fill="none" id="ImagingObservation-to-RegionInSpace" style="stroke:#181818;stroke-width:1;"/><polygon fill="#181818" points="1385.45,775.9237,1376.5115,771.788,1380.4506,775.8481,1376.3905,779.7871,1385.45,775.9237" style="stroke:#181818;stroke-width:1;"/><text fill="#000000" font-family="sans-serif" font-size="13" lengthAdjust="spacing" textLength="72.9663" x="1174" y="757.042">derivedFrom</text></g><!--link ImagingObservation to VisualExplanation--><g class="link" data-entity-1="ImagingObservation" data-entity-2="VisualExplanation" data-source-line="89" data-uid="lnk72" id="link_ImagingObservation_VisualExplanation"><path codeLine="89" d="M1139.35,726.5637 C1209.1,718.9937 1304.545,708.6412 1371.975,701.3212" fill="none" id="ImagingObservation-to-VisualExplanation" style="stroke:#181818;stroke-width:1;"/><polygon fill="#181818" points="1377.94,700.6737,1368.5609,697.6683,1372.9692,701.2133,1369.4243,705.6216,1377.94,700.6737" style="stroke:#181818;stroke-width:1;"/><text fill="#000000" font-family="sans-serif" font-size="13" lengthAdjust="spacing" textLength="72.9663" x="1174" y="712.042">derivedFrom</text></g><!--link ImagingObservation to VolumeSurface--><g class="link" data-entity-1="ImagingObservation" data-entity-2="VolumeSurface" data-source-line="90" data-uid="lnk73" id="link_ImagingObservation_VolumeSurface"><path codeLine="90" d="M1115.28,710.9737 C1132.34,703.6237 1151.35,695.7137 1169,689.0137 C1218.93,670.0437 1231.71,665.8937 1283,651.0137 C1316.55,641.2837 1348.4932,633.2036 1379.4832,625.8236" fill="none" id="ImagingObservation-to-VolumeSurface" style="stroke:#181818;stroke-width:1;"/><polygon fill="#181818" points="1385.32,624.4337,1375.6382,622.6275,1380.456,625.592,1377.4915,630.4098,1385.32,624.4337" style="stroke:#181818;stroke-width:1;"/><text fill="#000000" font-family="sans-serif" font-size="13" lengthAdjust="spacing" textLength="72.9663" x="1174" y="657.042">derivedFrom</text></g><!--link ImagingMeasurementGroup to ImagingMeasurement--><g class="link" data-entity-1="ImagingMeasurementGroup" data-entity-2="ImagingMeasurement" data-source-line="92" data-uid="lnk74" id="link_ImagingMeasurementGroup_ImagingMeasurement"><path codeLine="92" d="M578.18,800.4137 C627.07,795.3437 678.8719,789.9717 724.9319,785.2017" fill="none" id="ImagingMeasurementGroup-to-ImagingMeasurement" style="stroke:#181818;stroke-width:1;"/><polygon fill="#181818" points="730.9,784.5837,721.5358,781.532,725.9266,785.0987,722.3599,789.4895,730.9,784.5837" style="stroke:#181818;stroke-width:1;"/><text fill="#000000" font-family="sans-serif" font-size="13" lengthAdjust="spacing" textLength="68.6372" x="609" y="787.042">hasMember</text></g><!--link ImagingMeasurementGroup to ImagingQualitativeEvaluation--><g class="link" data-entity-1="ImagingMeasurementGroup" data-entity-2="ImagingQualitativeEvaluation" data-source-line="93" data-uid="lnk75" id="link_ImagingMeasurementGroup_ImagingQualitativeEvaluation"><path codeLine="93" d="M543.11,786.9837 C563.89,779.5737 586.88,771.4237 608,764.0137 C652.88,748.2737 697.6865,732.7758 737.3865,719.1158" fill="none" id="ImagingMeasurementGroup-to-ImagingQualitativeEvaluation" style="stroke:#181818;stroke-width:1;"/><polygon fill="#181818" points="743.06,717.1637,733.2482,716.3095,738.332,718.7905,735.8511,723.8743,743.06,717.1637" style="stroke:#181818;stroke-width:1;"/><text fill="#000000" font-family="sans-serif" font-size="13" lengthAdjust="spacing" textLength="68.6372" x="609" y="737.042">hasMember</text></g><!--link DerivedImagingMeasurement to ImagingMeasurementGroup--><g class="link" data-entity-1="DerivedImagingMeasurement" data-entity-2="ImagingMeasurementGroup" data-source-line="95" data-uid="lnk76" id="link_DerivedImagingMeasurement_ImagingMeasurementGroup"><path codeLine="95" d="M150.42,1055.9637 C175.55,1025.7437 221.64,973.3437 268,936.0137 C318.51,895.3537 378.0737,860.923 421.3937,837.863" fill="none" id="DerivedImagingMeasurement-to-ImagingMeasurementGroup" style="stroke:#181818;stroke-width:1;"/><polygon fill="#181818" points="426.69,835.0437,416.8659,835.7418,422.2764,837.3931,420.625,842.8036,426.69,835.0437" style="stroke:#181818;stroke-width:1;"/><text fill="#000000" font-family="sans-serif" font-size="13" lengthAdjust="spacing" textLength="72.9663" x="269" y="883.042">derivedFrom</text></g><!--SRC=[dLLDZzem4BtdLrXxvr9kgAhKTXV40R4bqlPiuabmwyHPVw2YTlzxRH8MEuw9MMxalJVZ6RyPCoWLKXm9MXqK8bH0eIXlignWM4hqZ1M5HlN_rZMkQ5FbIfDJ_oa7SQG5xE1LWxpm7i5-kuGGs8IqGK7qdxPxQMJudCYF3ApFttt-niafLq8NIWl8iXONlt45w647acjHW0dEIyf08jeWTQ0cqEe1_SsG-RsJkzEWsGnj6q0j2CIl-Izi- -johi0S5BEdLqtRsjJU5-EJdh5GjA0jZk1VMSK5LOTwJKm8MjAYgzOoth9iD93Ng3C5xwMo7zs61PtoQXsYNTNiX7XAwMl6jCreqMsvutI8c-ZcgYi3VoBlsFSXDYS3tGum-ya58o-OQTZWDi1B4D0KG7AeRC-dyFC9bmBN433j0TPDRZeon5werEPU_xGCDzVRS73ET0sv5kL5wztKaZR4jfOg6DnEttJNrNxF3BW1B8s7xU5NWkls9YC4VvYJKrls4PwEfed3B8yW34H6GhrbuuP6d_yPR_Jc3UpieH4pUvmiOkIEv5ixx5V7SXiOQLj776buo9-YZhOqAeesE3nwTcDQlVZN6Gu6BuWQIjnPl8i-Jw074viY6Gpf1oJNkKuHEwC-JG-cFq7YBeHfUkPiY8uzUBvSmyzcNowFwm99lVzbWWG4zxrTe3sMGBPDmFAVu0KYdLMNWjUZisOrupl1Qi_J7545Qs9A4DaST-HnDyV2lc0b5xLP8l5vJ2ZljZXUvMtTLB79MMCrnzhb-CwunFTSH18i7DysCPMxS-vLpDCKmUP9L0qsoSTKr_sJg7TMK98Ys49fAdSHZGzuy50w-yF15kY0vGRglR5JWdBqZNHZJ9Wwai8luJy0]--></g></svg>