<?xml version="1.0" encoding="us-ascii" standalone="no"?><svg xmlns="http://www.w3.org/2000/svg" xmlns:xlink="http://www.w3.org/1999/xlink" contentStyleType="text/css" height="1839px" preserveAspectRatio="none" style="width:2204px;height:1839px;background:#FFFFFF;" version="1.1" viewBox="0 0 2204 1839" width="2204px" zoomAndPan="magnify"><defs/><g><!--cluster Resource Profiles in this IG--><g id="cluster_Resource Profiles in this IG"><path d="M8.5,6 L201.5,6 A3.75,3.75 0 0 1 204,8.5 L211,29.6094 L2008.5,29.6094 A2.5,2.5 0 0 1 2011,32.1094 L2011,1350.5 A2.5,2.5 0 0 1 2008.5,1353 L8.5,1353 A2.5,2.5 0 0 1 6,1350.5 L6,8.5 A2.5,2.5 0 0 1 8.5,6 " fill="none" style="stroke:#000000;stroke-width:1.5;"/><line style="stroke:#000000;stroke-width:1.5;" x1="6" x2="211" y1="29.6094" y2="29.6094"/><text fill="#000000" font-family="sans-serif" font-size="14" font-weight="bold" lengthAdjust="spacing" textLength="192" x="10" y="22.5332">Resource Profiles in this IG</text></g><!--cluster Device - - One per observation--><g id="cluster_Device -- One per observation"><path d="M1353,1063 L1567,1063 A3.75,3.75 0 0 1 1569.5,1065.5 L1576.5,1086.6094 L1577,1086.6094 A2.5,2.5 0 0 1 1579.5,1089.1094 L1579.5,1326.5 A2.5,2.5 0 0 1 1577,1329 L1353,1329 A2.5,2.5 0 0 1 1350.5,1326.5 L1350.5,1065.5 A2.5,2.5 0 0 1 1353,1063 " fill="none" style="stroke:#000000;stroke-width:1.5;"/><line style="stroke:#000000;stroke-width:1.5;" x1="1350.5" x2="1576.5" y1="1086.6094" y2="1086.6094"/><text fill="#000000" font-family="sans-serif" font-size="14" font-weight="bold" lengthAdjust="spacing" textLength="213" x="1354.5" y="1079.5332">Device -- One per observation</text></g><!--cluster ImagingSelection - - Only one per observation--><g id="cluster_ImagingSelection -- Only one per observation"><path d="M1300.5,50 L1619.5,50 A3.75,3.75 0 0 1 1622,52.5 L1629,73.6094 L1629.5,73.6094 A2.5,2.5 0 0 1 1632,76.1094 L1632,811.5 A2.5,2.5 0 0 1 1629.5,814 L1300.5,814 A2.5,2.5 0 0 1 1298,811.5 L1298,52.5 A2.5,2.5 0 0 1 1300.5,50 " fill="none" style="stroke:#000000;stroke-width:1.5;"/><line style="stroke:#000000;stroke-width:1.5;" x1="1298" x2="1629" y1="73.6094" y2="73.6094"/><text fill="#000000" font-family="sans-serif" font-size="14" font-weight="bold" lengthAdjust="spacing" textLength="318" x="1302" y="66.5332">ImagingSelection -- Only one per observation</text></g><!--class ParticipantPractitioner--><g id="elem_ParticipantPractitioner"><rect codeLine="19" fill="#F1F1F1" height="48" id="ParticipantPractitioner" rx="2.5" ry="2.5" style="stroke:#181818;stroke-width:0.5;" width="171" x="1379.5" y="999"/><ellipse cx="1394.5" cy="1015" fill="#ADD1B2" rx="11" ry="11" style="stroke:#181818;stroke-width:1.0;"/><path d="M1396.5,1011.5 Q1396.7031,1011 1396.9375,1010.75 Q1397.1719,1010.5 1397.4375,1010.5 Q1397.9063,1010.5 1398.2031,1010.7813 Q1398.5,1011.0625 1398.5,1011.7188 L1398.5,1013.2813 Q1398.5,1013.9375 1398.2188,1014.2188 Q1397.9375,1014.5 1397.5,1014.5 Q1397.1094,1014.5 1396.8594,1014.3281 Q1396.6094,1014.1563 1396.5,1013.7031 Q1396.4531,1013.3906 1396.2813,1013.2188 Q1395.9688,1012.8906 1395.4063,1012.7031 Q1394.8438,1012.5 1394.2813,1012.5 Q1393.5781,1012.5 1392.9844,1012.7813 Q1392.4063,1013.0625 1391.9531,1013.6875 Q1391.5,1014.3125 1391.5,1015.1719 L1391.5,1016.0938 Q1391.5,1017.125 1392.3438,1017.8125 Q1393.1875,1018.5 1394.6875,1018.5 Q1395.5781,1018.5 1396.2031,1018.2969 Q1396.5625,1018.1875 1396.9688,1017.8281 Q1397.2344,1017.625 1397.375,1017.5625 Q1397.5156,1017.5 1397.6875,1017.5 Q1398.0156,1017.5 1398.25,1017.7656 Q1398.5,1018.0156 1398.5,1018.375 Q1398.5,1018.7188 1398.1563,1019.125 Q1397.6563,1019.7188 1396.8594,1020.0469 Q1395.8125,1020.5 1394.5313,1020.5 Q1393.0313,1020.5 1391.8281,1019.9063 Q1390.8594,1019.4375 1390.1719,1018.4219 Q1389.5,1017.4063 1389.5,1016.2031 L1389.5,1015.1094 Q1389.5,1013.8594 1390.0938,1012.7656 Q1390.7031,1011.6719 1391.75,1011.0938 Q1392.8125,1010.5 1394,1010.5 Q1394.7188,1010.5 1395.3438,1010.75 Q1395.9688,1011 1396.5,1011.5 Z " fill="#000000"/><text fill="#000000" font-family="sans-serif" font-size="14" lengthAdjust="spacing" textLength="139" x="1408.5" y="1020.7285">ParticipantPractitioner</text><line style="stroke:#181818;stroke-width:0.5;" x1="1380.5" x2="1549.5" y1="1031" y2="1031"/><line style="stroke:#181818;stroke-width:0.5;" x1="1380.5" x2="1549.5" y1="1039" y2="1039"/></g><!--class ObservationImagingSelection--><g id="elem_ObservationImagingSelection"><rect codeLine="21" fill="#F1F1F1" height="48" id="ObservationImagingSelection" rx="2.5" ry="2.5" style="stroke:#181818;stroke-width:0.5;" width="216" x="1779" y="418"/><ellipse cx="1794" cy="434" fill="#A9DCDF" rx="11" ry="11" style="stroke:#181818;stroke-width:1.0;"/><path d="M1795.75,435.5 L1792.4531,435.5 L1792.0156,436.5 L1792.0156,436.5 L1792.4844,436.5 L1793,437.125 L1793,437.5 L1793,437.875 L1792.4844,438.5 L1792.0156,438.5 L1790.125,438.5 L1789.5156,438.5 L1789,437.875 L1789,437.5 L1789,437.125 L1789.5156,436.5 L1790.125,436.5 L1792.4375,430.5 L1791.5625,430.5 L1790.5156,430.5 L1790,429.875 L1790,429.5 L1790,429.125 L1790.5156,428.5 L1791.5625,428.5 L1795.2344,428.5 L1797.9219,436.5 L1798.4844,436.5 L1798.4844,436.5 L1799,437.125 L1799,437.5 L1799,437.875 L1798.4844,438.5 L1797.9219,438.5 L1796.0313,438.5 L1795.5156,438.5 L1795,437.875 L1795,437.5 L1795,437.125 L1795.5156,436.5 L1796.0313,436.5 L1796.0313,436.5 L1795.75,435.5 Z M1795.2031,433.5 L1794,429.9219 L1792.9688,433.5 L1795.2031,433.5 Z " fill="#000000"/><text fill="#000000" font-family="sans-serif" font-size="14" font-style="italic" lengthAdjust="spacing" textLength="184" x="1808" y="439.7285">ObservationImagingSelection</text><line style="stroke:#181818;stroke-width:0.5;" x1="1780" x2="1994" y1="450" y2="450"/><line style="stroke:#181818;stroke-width:0.5;" x1="1780" x2="1994" y1="458" y2="458"/></g><!--class FindingSite--><g id="elem_FindingSite"><rect codeLine="34" fill="#F1F1F1" height="48" id="FindingSite" rx="2.5" ry="2.5" style="stroke:#181818;stroke-width:0.5;" width="103" x="1413.5" y="833"/><ellipse cx="1428.5" cy="849" fill="#ADD1B2" rx="11" ry="11" style="stroke:#181818;stroke-width:1.0;"/><path d="M1430.5,845.5 Q1430.7031,845 1430.9375,844.75 Q1431.1719,844.5 1431.4375,844.5 Q1431.9063,844.5 1432.2031,844.7813 Q1432.5,845.0625 1432.5,845.7188 L1432.5,847.2813 Q1432.5,847.9375 1432.2188,848.2188 Q1431.9375,848.5 1431.5,848.5 Q1431.1094,848.5 1430.8594,848.3281 Q1430.6094,848.1563 1430.5,847.7031 Q1430.4531,847.3906 1430.2813,847.2188 Q1429.9688,846.8906 1429.4063,846.7031 Q1428.8438,846.5 1428.2813,846.5 Q1427.5781,846.5 1426.9844,846.7813 Q1426.4063,847.0625 1425.9531,847.6875 Q1425.5,848.3125 1425.5,849.1719 L1425.5,850.0938 Q1425.5,851.125 1426.3438,851.8125 Q1427.1875,852.5 1428.6875,852.5 Q1429.5781,852.5 1430.2031,852.2969 Q1430.5625,852.1875 1430.9688,851.8281 Q1431.2344,851.625 1431.375,851.5625 Q1431.5156,851.5 1431.6875,851.5 Q1432.0156,851.5 1432.25,851.7656 Q1432.5,852.0156 1432.5,852.375 Q1432.5,852.7188 1432.1563,853.125 Q1431.6563,853.7188 1430.8594,854.0469 Q1429.8125,854.5 1428.5313,854.5 Q1427.0313,854.5 1425.8281,853.9063 Q1424.8594,853.4375 1424.1719,852.4219 Q1423.5,851.4063 1423.5,850.2031 L1423.5,849.1094 Q1423.5,847.8594 1424.0938,846.7656 Q1424.7031,845.6719 1425.75,845.0938 Q1426.8125,844.5 1428,844.5 Q1428.7188,844.5 1429.3438,844.75 Q1429.9688,845 1430.5,845.5 Z " fill="#000000"/><text fill="#000000" font-family="sans-serif" font-size="14" lengthAdjust="spacing" textLength="71" x="1442.5" y="854.7285">FindingSite</text><line style="stroke:#181818;stroke-width:0.5;" x1="1414.5" x2="1515.5" y1="865" y2="865"/><line style="stroke:#181818;stroke-width:0.5;" x1="1414.5" x2="1515.5" y1="873" y2="873"/></g><!--class TrackingIdentifiers--><g id="elem_TrackingIdentifiers"><rect codeLine="35" fill="#F1F1F1" height="48" id="TrackingIdentifiers" rx="2.5" ry="2.5" style="stroke:#181818;stroke-width:0.5;" width="148" x="1391" y="916"/><ellipse cx="1406" cy="932" fill="#ADD1B2" rx="11" ry="11" style="stroke:#181818;stroke-width:1.0;"/><path d="M1408,928.5 Q1408.2031,928 1408.4375,927.75 Q1408.6719,927.5 1408.9375,927.5 Q1409.4063,927.5 1409.7031,927.7813 Q1410,928.0625 1410,928.7188 L1410,930.2813 Q1410,930.9375 1409.7188,931.2188 Q1409.4375,931.5 1409,931.5 Q1408.6094,931.5 1408.3594,931.3281 Q1408.1094,931.1563 1408,930.7031 Q1407.9531,930.3906 1407.7813,930.2188 Q1407.4688,929.8906 1406.9063,929.7031 Q1406.3438,929.5 1405.7813,929.5 Q1405.0781,929.5 1404.4844,929.7813 Q1403.9063,930.0625 1403.4531,930.6875 Q1403,931.3125 1403,932.1719 L1403,933.0938 Q1403,934.125 1403.8438,934.8125 Q1404.6875,935.5 1406.1875,935.5 Q1407.0781,935.5 1407.7031,935.2969 Q1408.0625,935.1875 1408.4688,934.8281 Q1408.7344,934.625 1408.875,934.5625 Q1409.0156,934.5 1409.1875,934.5 Q1409.5156,934.5 1409.75,934.7656 Q1410,935.0156 1410,935.375 Q1410,935.7188 1409.6563,936.125 Q1409.1563,936.7188 1408.3594,937.0469 Q1407.3125,937.5 1406.0313,937.5 Q1404.5313,937.5 1403.3281,936.9063 Q1402.3594,936.4375 1401.6719,935.4219 Q1401,934.4063 1401,933.2031 L1401,932.1094 Q1401,930.8594 1401.5938,929.7656 Q1402.2031,928.6719 1403.25,928.0938 Q1404.3125,927.5 1405.5,927.5 Q1406.2188,927.5 1406.8438,927.75 Q1407.4688,928 1408,928.5 Z " fill="#000000"/><text fill="#000000" font-family="sans-serif" font-size="14" lengthAdjust="spacing" textLength="116" x="1420" y="937.7285">TrackingIdentifiers</text><line style="stroke:#181818;stroke-width:0.5;" x1="1392" x2="1538" y1="948" y2="948"/><line style="stroke:#181818;stroke-width:0.5;" x1="1392" x2="1538" y1="956" y2="956"/></g><!--class ImagingObservation--><g id="elem_ImagingObservation"><rect codeLine="37" fill="#F1F1F1" height="48" id="ImagingObservation" rx="2.5" ry="2.5" style="stroke:#181818;stroke-width:0.5;" width="158" x="982" y="733"/><ellipse cx="997" cy="749" fill="#A9DCDF" rx="11" ry="11" style="stroke:#181818;stroke-width:1.0;"/><path d="M998.75,750.5 L995.4531,750.5 L995.0156,751.5 L995.0156,751.5 L995.4844,751.5 L996,752.125 L996,752.5 L996,752.875 L995.4844,753.5 L995.0156,753.5 L993.125,753.5 L992.5156,753.5 L992,752.875 L992,752.5 L992,752.125 L992.5156,751.5 L993.125,751.5 L995.4375,745.5 L994.5625,745.5 L993.5156,745.5 L993,744.875 L993,744.5 L993,744.125 L993.5156,743.5 L994.5625,743.5 L998.2344,743.5 L1000.9219,751.5 L1001.4844,751.5 L1001.4844,751.5 L1002,752.125 L1002,752.5 L1002,752.875 L1001.4844,753.5 L1000.9219,753.5 L999.0313,753.5 L998.5156,753.5 L998,752.875 L998,752.5 L998,752.125 L998.5156,751.5 L999.0313,751.5 L999.0313,751.5 L998.75,750.5 Z M998.2031,748.5 L997,744.9219 L995.9688,748.5 L998.2031,748.5 Z " fill="#000000"/><text fill="#000000" font-family="sans-serif" font-size="14" font-style="italic" lengthAdjust="spacing" textLength="126" x="1011" y="754.7285">ImagingObservation</text><line style="stroke:#181818;stroke-width:0.5;" x1="983" x2="1139" y1="765" y2="765"/><line style="stroke:#181818;stroke-width:0.5;" x1="983" x2="1139" y1="773" y2="773"/></g><!--class ImagingMeasurementGroup--><g id="elem_ImagingMeasurementGroup"><rect codeLine="38" fill="#F1F1F1" height="48" id="ImagingMeasurementGroup" rx="2.5" ry="2.5" style="stroke:#181818;stroke-width:0.5;" width="207" x="370" y="810"/><ellipse cx="385" cy="826" fill="#ADD1B2" rx="11" ry="11" style="stroke:#181818;stroke-width:1.0;"/><path d="M387,822.5 Q387.2031,822 387.4375,821.75 Q387.6719,821.5 387.9375,821.5 Q388.4063,821.5 388.7031,821.7813 Q389,822.0625 389,822.7188 L389,824.2813 Q389,824.9375 388.7188,825.2188 Q388.4375,825.5 388,825.5 Q387.6094,825.5 387.3594,825.3281 Q387.1094,825.1563 387,824.7031 Q386.9531,824.3906 386.7813,824.2188 Q386.4688,823.8906 385.9063,823.7031 Q385.3438,823.5 384.7813,823.5 Q384.0781,823.5 383.4844,823.7813 Q382.9063,824.0625 382.4531,824.6875 Q382,825.3125 382,826.1719 L382,827.0938 Q382,828.125 382.8438,828.8125 Q383.6875,829.5 385.1875,829.5 Q386.0781,829.5 386.7031,829.2969 Q387.0625,829.1875 387.4688,828.8281 Q387.7344,828.625 387.875,828.5625 Q388.0156,828.5 388.1875,828.5 Q388.5156,828.5 388.75,828.7656 Q389,829.0156 389,829.375 Q389,829.7188 388.6563,830.125 Q388.1563,830.7188 387.3594,831.0469 Q386.3125,831.5 385.0313,831.5 Q383.5313,831.5 382.3281,830.9063 Q381.3594,830.4375 380.6719,829.4219 Q380,828.4063 380,827.2031 L380,826.1094 Q380,824.8594 380.5938,823.7656 Q381.2031,822.6719 382.25,822.0938 Q383.3125,821.5 384.5,821.5 Q385.2188,821.5 385.8438,821.75 Q386.4688,822 387,822.5 Z " fill="#000000"/><text fill="#000000" font-family="sans-serif" font-size="14" lengthAdjust="spacing" textLength="175" x="399" y="831.7285">ImagingMeasurementGroup</text><line style="stroke:#181818;stroke-width:0.5;" x1="371" x2="576" y1="842" y2="842"/><line style="stroke:#181818;stroke-width:0.5;" x1="371" x2="576" y1="850" y2="850"/></g><!--class ImagingMeasurement--><g id="elem_ImagingMeasurement"><rect codeLine="39" fill="#F1F1F1" height="48" id="ImagingMeasurement" rx="2.5" ry="2.5" style="stroke:#181818;stroke-width:0.5;" width="167" x="730.5" y="775"/><ellipse cx="745.5" cy="791" fill="#ADD1B2" rx="11" ry="11" style="stroke:#181818;stroke-width:1.0;"/><path d="M747.5,787.5 Q747.7031,787 747.9375,786.75 Q748.1719,786.5 748.4375,786.5 Q748.9063,786.5 749.2031,786.7813 Q749.5,787.0625 749.5,787.7188 L749.5,789.2813 Q749.5,789.9375 749.2188,790.2188 Q748.9375,790.5 748.5,790.5 Q748.1094,790.5 747.8594,790.3281 Q747.6094,790.1563 747.5,789.7031 Q747.4531,789.3906 747.2813,789.2188 Q746.9688,788.8906 746.4063,788.7031 Q745.8438,788.5 745.2813,788.5 Q744.5781,788.5 743.9844,788.7813 Q743.4063,789.0625 742.9531,789.6875 Q742.5,790.3125 742.5,791.1719 L742.5,792.0938 Q742.5,793.125 743.3438,793.8125 Q744.1875,794.5 745.6875,794.5 Q746.5781,794.5 747.2031,794.2969 Q747.5625,794.1875 747.9688,793.8281 Q748.2344,793.625 748.375,793.5625 Q748.5156,793.5 748.6875,793.5 Q749.0156,793.5 749.25,793.7656 Q749.5,794.0156 749.5,794.375 Q749.5,794.7188 749.1563,795.125 Q748.6563,795.7188 747.8594,796.0469 Q746.8125,796.5 745.5313,796.5 Q744.0313,796.5 742.8281,795.9063 Q741.8594,795.4375 741.1719,794.4219 Q740.5,793.4063 740.5,792.2031 L740.5,791.1094 Q740.5,789.8594 741.0938,788.7656 Q741.7031,787.6719 742.75,787.0938 Q743.8125,786.5 745,786.5 Q745.7188,786.5 746.3438,786.75 Q746.9688,787 747.5,787.5 Z " fill="#000000"/><text fill="#000000" font-family="sans-serif" font-size="14" lengthAdjust="spacing" textLength="135" x="759.5" y="796.7285">ImagingMeasurement</text><line style="stroke:#181818;stroke-width:0.5;" x1="731.5" x2="896.5" y1="807" y2="807"/><line style="stroke:#181818;stroke-width:0.5;" x1="731.5" x2="896.5" y1="815" y2="815"/></g><!--class ImagingQualitativeEvaluation--><g id="elem_ImagingQualitativeEvaluation"><rect codeLine="40" fill="#F1F1F1" height="48" id="ImagingQualitativeEvaluation" rx="2.5" ry="2.5" style="stroke:#181818;stroke-width:0.5;" width="214" x="707" y="692"/><ellipse cx="722" cy="708" fill="#ADD1B2" rx="11" ry="11" style="stroke:#181818;stroke-width:1.0;"/><path d="M724,704.5 Q724.2031,704 724.4375,703.75 Q724.6719,703.5 724.9375,703.5 Q725.4063,703.5 725.7031,703.7813 Q726,704.0625 726,704.7188 L726,706.2813 Q726,706.9375 725.7188,707.2188 Q725.4375,707.5 725,707.5 Q724.6094,707.5 724.3594,707.3281 Q724.1094,707.1563 724,706.7031 Q723.9531,706.3906 723.7813,706.2188 Q723.4688,705.8906 722.9063,705.7031 Q722.3438,705.5 721.7813,705.5 Q721.0781,705.5 720.4844,705.7813 Q719.9063,706.0625 719.4531,706.6875 Q719,707.3125 719,708.1719 L719,709.0938 Q719,710.125 719.8438,710.8125 Q720.6875,711.5 722.1875,711.5 Q723.0781,711.5 723.7031,711.2969 Q724.0625,711.1875 724.4688,710.8281 Q724.7344,710.625 724.875,710.5625 Q725.0156,710.5 725.1875,710.5 Q725.5156,710.5 725.75,710.7656 Q726,711.0156 726,711.375 Q726,711.7188 725.6563,712.125 Q725.1563,712.7188 724.3594,713.0469 Q723.3125,713.5 722.0313,713.5 Q720.5313,713.5 719.3281,712.9063 Q718.3594,712.4375 717.6719,711.4219 Q717,710.4063 717,709.2031 L717,708.1094 Q717,706.8594 717.5938,705.7656 Q718.2031,704.6719 719.25,704.0938 Q720.3125,703.5 721.5,703.5 Q722.2188,703.5 722.8438,703.75 Q723.4688,704 724,704.5 Z " fill="#000000"/><text fill="#000000" font-family="sans-serif" font-size="14" lengthAdjust="spacing" textLength="182" x="736" y="713.7285">ImagingQualitativeEvaluation</text><line style="stroke:#181818;stroke-width:0.5;" x1="708" x2="920" y1="724" y2="724"/><line style="stroke:#181818;stroke-width:0.5;" x1="708" x2="920" y1="732" y2="732"/></g><!--class DerivedImagingMeasurement--><g id="elem_DerivedImagingMeasurement"><rect codeLine="41" fill="#F1F1F1" height="48" id="DerivedImagingMeasurement" rx="2.5" ry="2.5" style="stroke:#181818;stroke-width:0.5;" width="216" x="22" y="1138"/><ellipse cx="37" cy="1154" fill="#ADD1B2" rx="11" ry="11" style="stroke:#181818;stroke-width:1.0;"/><path d="M39,1150.5 Q39.2031,1150 39.4375,1149.75 Q39.6719,1149.5 39.9375,1149.5 Q40.4063,1149.5 40.7031,1149.7813 Q41,1150.0625 41,1150.7188 L41,1152.2813 Q41,1152.9375 40.7188,1153.2188 Q40.4375,1153.5 40,1153.5 Q39.6094,1153.5 39.3594,1153.3281 Q39.1094,1153.1563 39,1152.7031 Q38.9531,1152.3906 38.7813,1152.2188 Q38.4688,1151.8906 37.9063,1151.7031 Q37.3438,1151.5 36.7813,1151.5 Q36.0781,1151.5 35.4844,1151.7813 Q34.9063,1152.0625 34.4531,1152.6875 Q34,1153.3125 34,1154.1719 L34,1155.0938 Q34,1156.125 34.8438,1156.8125 Q35.6875,1157.5 37.1875,1157.5 Q38.0781,1157.5 38.7031,1157.2969 Q39.0625,1157.1875 39.4688,1156.8281 Q39.7344,1156.625 39.875,1156.5625 Q40.0156,1156.5 40.1875,1156.5 Q40.5156,1156.5 40.75,1156.7656 Q41,1157.0156 41,1157.375 Q41,1157.7188 40.6563,1158.125 Q40.1563,1158.7188 39.3594,1159.0469 Q38.3125,1159.5 37.0313,1159.5 Q35.5313,1159.5 34.3281,1158.9063 Q33.3594,1158.4375 32.6719,1157.4219 Q32,1156.4063 32,1155.2031 L32,1154.1094 Q32,1152.8594 32.5938,1151.7656 Q33.2031,1150.6719 34.25,1150.0938 Q35.3125,1149.5 36.5,1149.5 Q37.2188,1149.5 37.8438,1149.75 Q38.4688,1150 39,1150.5 Z " fill="#000000"/><text fill="#000000" font-family="sans-serif" font-size="14" lengthAdjust="spacing" textLength="184" x="51" y="1159.7285">DerivedImagingMeasurement</text><line style="stroke:#181818;stroke-width:0.5;" x1="23" x2="237" y1="1170" y2="1170"/><line style="stroke:#181818;stroke-width:0.5;" x1="23" x2="237" y1="1178" y2="1178"/></g><!--class GeneralEquipmentDevice--><g id="elem_GeneralEquipmentDevice"><rect codeLine="14" fill="#F1F1F1" height="48" id="GeneralEquipmentDevice" rx="2.5" ry="2.5" style="stroke:#181818;stroke-width:0.5;" width="193" x="1368.5" y="1265"/><ellipse cx="1383.5" cy="1281" fill="#ADD1B2" rx="11" ry="11" style="stroke:#181818;stroke-width:1.0;"/><path d="M1385.5,1277.5 Q1385.7031,1277 1385.9375,1276.75 Q1386.1719,1276.5 1386.4375,1276.5 Q1386.9063,1276.5 1387.2031,1276.7813 Q1387.5,1277.0625 1387.5,1277.7188 L1387.5,1279.2813 Q1387.5,1279.9375 1387.2188,1280.2188 Q1386.9375,1280.5 1386.5,1280.5 Q1386.1094,1280.5 1385.8594,1280.3281 Q1385.6094,1280.1563 1385.5,1279.7031 Q1385.4531,1279.3906 1385.2813,1279.2188 Q1384.9688,1278.8906 1384.4063,1278.7031 Q1383.8438,1278.5 1383.2813,1278.5 Q1382.5781,1278.5 1381.9844,1278.7813 Q1381.4063,1279.0625 1380.9531,1279.6875 Q1380.5,1280.3125 1380.5,1281.1719 L1380.5,1282.0938 Q1380.5,1283.125 1381.3438,1283.8125 Q1382.1875,1284.5 1383.6875,1284.5 Q1384.5781,1284.5 1385.2031,1284.2969 Q1385.5625,1284.1875 1385.9688,1283.8281 Q1386.2344,1283.625 1386.375,1283.5625 Q1386.5156,1283.5 1386.6875,1283.5 Q1387.0156,1283.5 1387.25,1283.7656 Q1387.5,1284.0156 1387.5,1284.375 Q1387.5,1284.7188 1387.1563,1285.125 Q1386.6563,1285.7188 1385.8594,1286.0469 Q1384.8125,1286.5 1383.5313,1286.5 Q1382.0313,1286.5 1380.8281,1285.9063 Q1379.8594,1285.4375 1379.1719,1284.4219 Q1378.5,1283.4063 1378.5,1282.2031 L1378.5,1281.1094 Q1378.5,1279.8594 1379.0938,1278.7656 Q1379.7031,1277.6719 1380.75,1277.0938 Q1381.8125,1276.5 1383,1276.5 Q1383.7188,1276.5 1384.3438,1276.75 Q1384.9688,1277 1385.5,1277.5 Z " fill="#000000"/><text fill="#000000" font-family="sans-serif" font-size="14" lengthAdjust="spacing" textLength="161" x="1397.5" y="1286.7285">GeneralEquipmentDevice</text><line style="stroke:#181818;stroke-width:0.5;" x1="1369.5" x2="1560.5" y1="1297" y2="1297"/><line style="stroke:#181818;stroke-width:0.5;" x1="1369.5" x2="1560.5" y1="1305" y2="1305"/></g><!--class ParticipantDevice--><g id="elem_ParticipantDevice"><rect codeLine="15" fill="#F1F1F1" height="48" id="ParticipantDevice" rx="2.5" ry="2.5" style="stroke:#181818;stroke-width:0.5;" width="142" x="1394" y="1099"/><ellipse cx="1409" cy="1115" fill="#ADD1B2" rx="11" ry="11" style="stroke:#181818;stroke-width:1.0;"/><path d="M1411,1111.5 Q1411.2031,1111 1411.4375,1110.75 Q1411.6719,1110.5 1411.9375,1110.5 Q1412.4063,1110.5 1412.7031,1110.7813 Q1413,1111.0625 1413,1111.7188 L1413,1113.2813 Q1413,1113.9375 1412.7188,1114.2188 Q1412.4375,1114.5 1412,1114.5 Q1411.6094,1114.5 1411.3594,1114.3281 Q1411.1094,1114.1563 1411,1113.7031 Q1410.9531,1113.3906 1410.7813,1113.2188 Q1410.4688,1112.8906 1409.9063,1112.7031 Q1409.3438,1112.5 1408.7813,1112.5 Q1408.0781,1112.5 1407.4844,1112.7813 Q1406.9063,1113.0625 1406.4531,1113.6875 Q1406,1114.3125 1406,1115.1719 L1406,1116.0938 Q1406,1117.125 1406.8438,1117.8125 Q1407.6875,1118.5 1409.1875,1118.5 Q1410.0781,1118.5 1410.7031,1118.2969 Q1411.0625,1118.1875 1411.4688,1117.8281 Q1411.7344,1117.625 1411.875,1117.5625 Q1412.0156,1117.5 1412.1875,1117.5 Q1412.5156,1117.5 1412.75,1117.7656 Q1413,1118.0156 1413,1118.375 Q1413,1118.7188 1412.6563,1119.125 Q1412.1563,1119.7188 1411.3594,1120.0469 Q1410.3125,1120.5 1409.0313,1120.5 Q1407.5313,1120.5 1406.3281,1119.9063 Q1405.3594,1119.4375 1404.6719,1118.4219 Q1404,1117.4063 1404,1116.2031 L1404,1115.1094 Q1404,1113.8594 1404.5938,1112.7656 Q1405.2031,1111.6719 1406.25,1111.0938 Q1407.3125,1110.5 1408.5,1110.5 Q1409.2188,1110.5 1409.8438,1110.75 Q1410.4688,1111 1411,1111.5 Z " fill="#000000"/><text fill="#000000" font-family="sans-serif" font-size="14" lengthAdjust="spacing" textLength="110" x="1423" y="1120.7285">ParticipantDevice</text><line style="stroke:#181818;stroke-width:0.5;" x1="1395" x2="1535" y1="1131" y2="1131"/><line style="stroke:#181818;stroke-width:0.5;" x1="1395" x2="1535" y1="1139" y2="1139"/></g><!--class AlgorithmIdentification--><g id="elem_AlgorithmIdentification"><rect codeLine="16" fill="#F1F1F1" height="48" id="AlgorithmIdentification" rx="2.5" ry="2.5" style="stroke:#181818;stroke-width:0.5;" width="170" x="1380" y="1182"/><ellipse cx="1395" cy="1198" fill="#ADD1B2" rx="11" ry="11" style="stroke:#181818;stroke-width:1.0;"/><path d="M1397,1194.5 Q1397.2031,1194 1397.4375,1193.75 Q1397.6719,1193.5 1397.9375,1193.5 Q1398.4063,1193.5 1398.7031,1193.7813 Q1399,1194.0625 1399,1194.7188 L1399,1196.2813 Q1399,1196.9375 1398.7188,1197.2188 Q1398.4375,1197.5 1398,1197.5 Q1397.6094,1197.5 1397.3594,1197.3281 Q1397.1094,1197.1563 1397,1196.7031 Q1396.9531,1196.3906 1396.7813,1196.2188 Q1396.4688,1195.8906 1395.9063,1195.7031 Q1395.3438,1195.5 1394.7813,1195.5 Q1394.0781,1195.5 1393.4844,1195.7813 Q1392.9063,1196.0625 1392.4531,1196.6875 Q1392,1197.3125 1392,1198.1719 L1392,1199.0938 Q1392,1200.125 1392.8438,1200.8125 Q1393.6875,1201.5 1395.1875,1201.5 Q1396.0781,1201.5 1396.7031,1201.2969 Q1397.0625,1201.1875 1397.4688,1200.8281 Q1397.7344,1200.625 1397.875,1200.5625 Q1398.0156,1200.5 1398.1875,1200.5 Q1398.5156,1200.5 1398.75,1200.7656 Q1399,1201.0156 1399,1201.375 Q1399,1201.7188 1398.6563,1202.125 Q1398.1563,1202.7188 1397.3594,1203.0469 Q1396.3125,1203.5 1395.0313,1203.5 Q1393.5313,1203.5 1392.3281,1202.9063 Q1391.3594,1202.4375 1390.6719,1201.4219 Q1390,1200.4063 1390,1199.2031 L1390,1198.1094 Q1390,1196.8594 1390.5938,1195.7656 Q1391.2031,1194.6719 1392.25,1194.0938 Q1393.3125,1193.5 1394.5,1193.5 Q1395.2188,1193.5 1395.8438,1193.75 Q1396.4688,1194 1397,1194.5 Z " fill="#000000"/><text fill="#000000" font-family="sans-serif" font-size="14" lengthAdjust="spacing" textLength="138" x="1409" y="1203.7285">AlgorithmIdentification</text><line style="stroke:#181818;stroke-width:0.5;" x1="1381" x2="1549" y1="1214" y2="1214"/><line style="stroke:#181818;stroke-width:0.5;" x1="1381" x2="1549" y1="1222" y2="1222"/></g><!--class IllustrationOfRoi--><g id="elem_IllustrationOfRoi"><rect codeLine="23" fill="#F1F1F1" height="48" id="IllustrationOfRoi" rx="2.5" ry="2.5" style="stroke:#181818;stroke-width:0.5;" width="132" x="1399" y="252"/><ellipse cx="1414" cy="268" fill="#ADD1B2" rx="11" ry="11" style="stroke:#181818;stroke-width:1.0;"/><path d="M1416,264.5 Q1416.2031,264 1416.4375,263.75 Q1416.6719,263.5 1416.9375,263.5 Q1417.4063,263.5 1417.7031,263.7813 Q1418,264.0625 1418,264.7188 L1418,266.2813 Q1418,266.9375 1417.7188,267.2188 Q1417.4375,267.5 1417,267.5 Q1416.6094,267.5 1416.3594,267.3281 Q1416.1094,267.1563 1416,266.7031 Q1415.9531,266.3906 1415.7813,266.2188 Q1415.4688,265.8906 1414.9063,265.7031 Q1414.3438,265.5 1413.7813,265.5 Q1413.0781,265.5 1412.4844,265.7813 Q1411.9063,266.0625 1411.4531,266.6875 Q1411,267.3125 1411,268.1719 L1411,269.0938 Q1411,270.125 1411.8438,270.8125 Q1412.6875,271.5 1414.1875,271.5 Q1415.0781,271.5 1415.7031,271.2969 Q1416.0625,271.1875 1416.4688,270.8281 Q1416.7344,270.625 1416.875,270.5625 Q1417.0156,270.5 1417.1875,270.5 Q1417.5156,270.5 1417.75,270.7656 Q1418,271.0156 1418,271.375 Q1418,271.7188 1417.6563,272.125 Q1417.1563,272.7188 1416.3594,273.0469 Q1415.3125,273.5 1414.0313,273.5 Q1412.5313,273.5 1411.3281,272.9063 Q1410.3594,272.4375 1409.6719,271.4219 Q1409,270.4063 1409,269.2031 L1409,268.1094 Q1409,266.8594 1409.5938,265.7656 Q1410.2031,264.6719 1411.25,264.0938 Q1412.3125,263.5 1413.5,263.5 Q1414.2188,263.5 1414.8438,263.75 Q1415.4688,264 1416,264.5 Z " fill="#000000"/><text fill="#000000" font-family="sans-serif" font-size="14" lengthAdjust="spacing" textLength="100" x="1428" y="273.7285">IllustrationOfRoi</text><line style="stroke:#181818;stroke-width:0.5;" x1="1400" x2="1530" y1="284" y2="284"/><line style="stroke:#181818;stroke-width:0.5;" x1="1400" x2="1530" y1="292" y2="292"/></g><!--class ImageRegion2d--><g id="elem_ImageRegion2d"><rect codeLine="24" fill="#F1F1F1" height="48" id="ImageRegion2d" rx="2.5" ry="2.5" style="stroke:#181818;stroke-width:0.5;" width="131" x="1399.5" y="169"/><ellipse cx="1414.5" cy="185" fill="#ADD1B2" rx="11" ry="11" style="stroke:#181818;stroke-width:1.0;"/><path d="M1416.5,181.5 Q1416.7031,181 1416.9375,180.75 Q1417.1719,180.5 1417.4375,180.5 Q1417.9063,180.5 1418.2031,180.7813 Q1418.5,181.0625 1418.5,181.7188 L1418.5,183.2813 Q1418.5,183.9375 1418.2188,184.2188 Q1417.9375,184.5 1417.5,184.5 Q1417.1094,184.5 1416.8594,184.3281 Q1416.6094,184.1563 1416.5,183.7031 Q1416.4531,183.3906 1416.2813,183.2188 Q1415.9688,182.8906 1415.4063,182.7031 Q1414.8438,182.5 1414.2813,182.5 Q1413.5781,182.5 1412.9844,182.7813 Q1412.4063,183.0625 1411.9531,183.6875 Q1411.5,184.3125 1411.5,185.1719 L1411.5,186.0938 Q1411.5,187.125 1412.3438,187.8125 Q1413.1875,188.5 1414.6875,188.5 Q1415.5781,188.5 1416.2031,188.2969 Q1416.5625,188.1875 1416.9688,187.8281 Q1417.2344,187.625 1417.375,187.5625 Q1417.5156,187.5 1417.6875,187.5 Q1418.0156,187.5 1418.25,187.7656 Q1418.5,188.0156 1418.5,188.375 Q1418.5,188.7188 1418.1563,189.125 Q1417.6563,189.7188 1416.8594,190.0469 Q1415.8125,190.5 1414.5313,190.5 Q1413.0313,190.5 1411.8281,189.9063 Q1410.8594,189.4375 1410.1719,188.4219 Q1409.5,187.4063 1409.5,186.2031 L1409.5,185.1094 Q1409.5,183.8594 1410.0938,182.7656 Q1410.7031,181.6719 1411.75,181.0938 Q1412.8125,180.5 1414,180.5 Q1414.7188,180.5 1415.3438,180.75 Q1415.9688,181 1416.5,181.5 Z " fill="#000000"/><text fill="#000000" font-family="sans-serif" font-size="14" lengthAdjust="spacing" textLength="99" x="1428.5" y="190.7285">ImageRegion2d</text><line style="stroke:#181818;stroke-width:0.5;" x1="1400.5" x2="1529.5" y1="201" y2="201"/><line style="stroke:#181818;stroke-width:0.5;" x1="1400.5" x2="1529.5" y1="209" y2="209"/></g><!--class ImageRegion3d--><g id="elem_ImageRegion3d"><rect codeLine="25" fill="#F1F1F1" height="48" id="ImageRegion3d" rx="2.5" ry="2.5" style="stroke:#181818;stroke-width:0.5;" width="131" x="1399.5" y="86"/><ellipse cx="1414.5" cy="102" fill="#ADD1B2" rx="11" ry="11" style="stroke:#181818;stroke-width:1.0;"/><path d="M1416.5,98.5 Q1416.7031,98 1416.9375,97.75 Q1417.1719,97.5 1417.4375,97.5 Q1417.9063,97.5 1418.2031,97.7813 Q1418.5,98.0625 1418.5,98.7188 L1418.5,100.2813 Q1418.5,100.9375 1418.2188,101.2188 Q1417.9375,101.5 1417.5,101.5 Q1417.1094,101.5 1416.8594,101.3281 Q1416.6094,101.1563 1416.5,100.7031 Q1416.4531,100.3906 1416.2813,100.2188 Q1415.9688,99.8906 1415.4063,99.7031 Q1414.8438,99.5 1414.2813,99.5 Q1413.5781,99.5 1412.9844,99.7813 Q1412.4063,100.0625 1411.9531,100.6875 Q1411.5,101.3125 1411.5,102.1719 L1411.5,103.0938 Q1411.5,104.125 1412.3438,104.8125 Q1413.1875,105.5 1414.6875,105.5 Q1415.5781,105.5 1416.2031,105.2969 Q1416.5625,105.1875 1416.9688,104.8281 Q1417.2344,104.625 1417.375,104.5625 Q1417.5156,104.5 1417.6875,104.5 Q1418.0156,104.5 1418.25,104.7656 Q1418.5,105.0156 1418.5,105.375 Q1418.5,105.7188 1418.1563,106.125 Q1417.6563,106.7188 1416.8594,107.0469 Q1415.8125,107.5 1414.5313,107.5 Q1413.0313,107.5 1411.8281,106.9063 Q1410.8594,106.4375 1410.1719,105.4219 Q1409.5,104.4063 1409.5,103.2031 L1409.5,102.1094 Q1409.5,100.8594 1410.0938,99.7656 Q1410.7031,98.6719 1411.75,98.0938 Q1412.8125,97.5 1414,97.5 Q1414.7188,97.5 1415.3438,97.75 Q1415.9688,98 1416.5,98.5 Z " fill="#000000"/><text fill="#000000" font-family="sans-serif" font-size="14" lengthAdjust="spacing" textLength="99" x="1428.5" y="107.7285">ImageRegion3d</text><line style="stroke:#181818;stroke-width:0.5;" x1="1400.5" x2="1529.5" y1="118" y2="118"/><line style="stroke:#181818;stroke-width:0.5;" x1="1400.5" x2="1529.5" y1="126" y2="126"/></g><!--class RealWorldValueMap--><g id="elem_RealWorldValueMap"><rect codeLine="26" fill="#F1F1F1" height="48" id="RealWorldValueMap" rx="2.5" ry="2.5" style="stroke:#181818;stroke-width:0.5;" width="161" x="1384.5" y="750"/><ellipse cx="1399.5" cy="766" fill="#ADD1B2" rx="11" ry="11" style="stroke:#181818;stroke-width:1.0;"/><path d="M1401.5,762.5 Q1401.7031,762 1401.9375,761.75 Q1402.1719,761.5 1402.4375,761.5 Q1402.9063,761.5 1403.2031,761.7813 Q1403.5,762.0625 1403.5,762.7188 L1403.5,764.2813 Q1403.5,764.9375 1403.2188,765.2188 Q1402.9375,765.5 1402.5,765.5 Q1402.1094,765.5 1401.8594,765.3281 Q1401.6094,765.1563 1401.5,764.7031 Q1401.4531,764.3906 1401.2813,764.2188 Q1400.9688,763.8906 1400.4063,763.7031 Q1399.8438,763.5 1399.2813,763.5 Q1398.5781,763.5 1397.9844,763.7813 Q1397.4063,764.0625 1396.9531,764.6875 Q1396.5,765.3125 1396.5,766.1719 L1396.5,767.0938 Q1396.5,768.125 1397.3438,768.8125 Q1398.1875,769.5 1399.6875,769.5 Q1400.5781,769.5 1401.2031,769.2969 Q1401.5625,769.1875 1401.9688,768.8281 Q1402.2344,768.625 1402.375,768.5625 Q1402.5156,768.5 1402.6875,768.5 Q1403.0156,768.5 1403.25,768.7656 Q1403.5,769.0156 1403.5,769.375 Q1403.5,769.7188 1403.1563,770.125 Q1402.6563,770.7188 1401.8594,771.0469 Q1400.8125,771.5 1399.5313,771.5 Q1398.0313,771.5 1396.8281,770.9063 Q1395.8594,770.4375 1395.1719,769.4219 Q1394.5,768.4063 1394.5,767.2031 L1394.5,766.1094 Q1394.5,764.8594 1395.0938,763.7656 Q1395.7031,762.6719 1396.75,762.0938 Q1397.8125,761.5 1399,761.5 Q1399.7188,761.5 1400.3438,761.75 Q1400.9688,762 1401.5,762.5 Z " fill="#000000"/><text fill="#000000" font-family="sans-serif" font-size="14" lengthAdjust="spacing" textLength="129" x="1413.5" y="771.7285">RealWorldValueMap</text><line style="stroke:#181818;stroke-width:0.5;" x1="1385.5" x2="1544.5" y1="782" y2="782"/><line style="stroke:#181818;stroke-width:0.5;" x1="1385.5" x2="1544.5" y1="790" y2="790"/></g><!--class ReferencedSegment--><g id="elem_ReferencedSegment"><rect codeLine="27" fill="#F1F1F1" height="48" id="ReferencedSegment" rx="2.5" ry="2.5" style="stroke:#181818;stroke-width:0.5;" width="162" x="1384" y="667"/><ellipse cx="1399" cy="683" fill="#ADD1B2" rx="11" ry="11" style="stroke:#181818;stroke-width:1.0;"/><path d="M1401,679.5 Q1401.2031,679 1401.4375,678.75 Q1401.6719,678.5 1401.9375,678.5 Q1402.4063,678.5 1402.7031,678.7813 Q1403,679.0625 1403,679.7188 L1403,681.2813 Q1403,681.9375 1402.7188,682.2188 Q1402.4375,682.5 1402,682.5 Q1401.6094,682.5 1401.3594,682.3281 Q1401.1094,682.1563 1401,681.7031 Q1400.9531,681.3906 1400.7813,681.2188 Q1400.4688,680.8906 1399.9063,680.7031 Q1399.3438,680.5 1398.7813,680.5 Q1398.0781,680.5 1397.4844,680.7813 Q1396.9063,681.0625 1396.4531,681.6875 Q1396,682.3125 1396,683.1719 L1396,684.0938 Q1396,685.125 1396.8438,685.8125 Q1397.6875,686.5 1399.1875,686.5 Q1400.0781,686.5 1400.7031,686.2969 Q1401.0625,686.1875 1401.4688,685.8281 Q1401.7344,685.625 1401.875,685.5625 Q1402.0156,685.5 1402.1875,685.5 Q1402.5156,685.5 1402.75,685.7656 Q1403,686.0156 1403,686.375 Q1403,686.7188 1402.6563,687.125 Q1402.1563,687.7188 1401.3594,688.0469 Q1400.3125,688.5 1399.0313,688.5 Q1397.5313,688.5 1396.3281,687.9063 Q1395.3594,687.4375 1394.6719,686.4219 Q1394,685.4063 1394,684.2031 L1394,683.1094 Q1394,681.8594 1394.5938,680.7656 Q1395.2031,679.6719 1396.25,679.0938 Q1397.3125,678.5 1398.5,678.5 Q1399.2188,678.5 1399.8438,678.75 Q1400.4688,679 1401,679.5 Z " fill="#000000"/><text fill="#000000" font-family="sans-serif" font-size="14" lengthAdjust="spacing" textLength="130" x="1413" y="688.7285">ReferencedSegment</text><line style="stroke:#181818;stroke-width:0.5;" x1="1385" x2="1545" y1="699" y2="699"/><line style="stroke:#181818;stroke-width:0.5;" x1="1385" x2="1545" y1="707" y2="707"/></g><!--class ReferencedSegmentationFrame--><g id="elem_ReferencedSegmentationFrame"><rect codeLine="28" fill="#F1F1F1" height="48" id="ReferencedSegmentationFrame" rx="2.5" ry="2.5" style="stroke:#181818;stroke-width:0.5;" width="234" x="1348" y="584"/><ellipse cx="1363" cy="600" fill="#ADD1B2" rx="11" ry="11" style="stroke:#181818;stroke-width:1.0;"/><path d="M1365,596.5 Q1365.2031,596 1365.4375,595.75 Q1365.6719,595.5 1365.9375,595.5 Q1366.4063,595.5 1366.7031,595.7813 Q1367,596.0625 1367,596.7188 L1367,598.2813 Q1367,598.9375 1366.7188,599.2188 Q1366.4375,599.5 1366,599.5 Q1365.6094,599.5 1365.3594,599.3281 Q1365.1094,599.1563 1365,598.7031 Q1364.9531,598.3906 1364.7813,598.2188 Q1364.4688,597.8906 1363.9063,597.7031 Q1363.3438,597.5 1362.7813,597.5 Q1362.0781,597.5 1361.4844,597.7813 Q1360.9063,598.0625 1360.4531,598.6875 Q1360,599.3125 1360,600.1719 L1360,601.0938 Q1360,602.125 1360.8438,602.8125 Q1361.6875,603.5 1363.1875,603.5 Q1364.0781,603.5 1364.7031,603.2969 Q1365.0625,603.1875 1365.4688,602.8281 Q1365.7344,602.625 1365.875,602.5625 Q1366.0156,602.5 1366.1875,602.5 Q1366.5156,602.5 1366.75,602.7656 Q1367,603.0156 1367,603.375 Q1367,603.7188 1366.6563,604.125 Q1366.1563,604.7188 1365.3594,605.0469 Q1364.3125,605.5 1363.0313,605.5 Q1361.5313,605.5 1360.3281,604.9063 Q1359.3594,604.4375 1358.6719,603.4219 Q1358,602.4063 1358,601.2031 L1358,600.1094 Q1358,598.8594 1358.5938,597.7656 Q1359.2031,596.6719 1360.25,596.0938 Q1361.3125,595.5 1362.5,595.5 Q1363.2188,595.5 1363.8438,595.75 Q1364.4688,596 1365,596.5 Z " fill="#000000"/><text fill="#000000" font-family="sans-serif" font-size="14" lengthAdjust="spacing" textLength="202" x="1377" y="605.7285">ReferencedSegmentationFrame</text><line style="stroke:#181818;stroke-width:0.5;" x1="1349" x2="1581" y1="616" y2="616"/><line style="stroke:#181818;stroke-width:0.5;" x1="1349" x2="1581" y1="624" y2="624"/></g><!--class RegionInSpace--><g id="elem_RegionInSpace"><rect codeLine="29" fill="#F1F1F1" height="48" id="RegionInSpace" rx="2.5" ry="2.5" style="stroke:#181818;stroke-width:0.5;" width="128" x="1401" y="501"/><ellipse cx="1416" cy="517" fill="#ADD1B2" rx="11" ry="11" style="stroke:#181818;stroke-width:1.0;"/><path d="M1418,513.5 Q1418.2031,513 1418.4375,512.75 Q1418.6719,512.5 1418.9375,512.5 Q1419.4063,512.5 1419.7031,512.7813 Q1420,513.0625 1420,513.7188 L1420,515.2813 Q1420,515.9375 1419.7188,516.2188 Q1419.4375,516.5 1419,516.5 Q1418.6094,516.5 1418.3594,516.3281 Q1418.1094,516.1563 1418,515.7031 Q1417.9531,515.3906 1417.7813,515.2188 Q1417.4688,514.8906 1416.9063,514.7031 Q1416.3438,514.5 1415.7813,514.5 Q1415.0781,514.5 1414.4844,514.7813 Q1413.9063,515.0625 1413.4531,515.6875 Q1413,516.3125 1413,517.1719 L1413,518.0938 Q1413,519.125 1413.8438,519.8125 Q1414.6875,520.5 1416.1875,520.5 Q1417.0781,520.5 1417.7031,520.2969 Q1418.0625,520.1875 1418.4688,519.8281 Q1418.7344,519.625 1418.875,519.5625 Q1419.0156,519.5 1419.1875,519.5 Q1419.5156,519.5 1419.75,519.7656 Q1420,520.0156 1420,520.375 Q1420,520.7188 1419.6563,521.125 Q1419.1563,521.7188 1418.3594,522.0469 Q1417.3125,522.5 1416.0313,522.5 Q1414.5313,522.5 1413.3281,521.9063 Q1412.3594,521.4375 1411.6719,520.4219 Q1411,519.4063 1411,518.2031 L1411,517.1094 Q1411,515.8594 1411.5938,514.7656 Q1412.2031,513.6719 1413.25,513.0938 Q1414.3125,512.5 1415.5,512.5 Q1416.2188,512.5 1416.8438,512.75 Q1417.4688,513 1418,513.5 Z " fill="#000000"/><text fill="#000000" font-family="sans-serif" font-size="14" lengthAdjust="spacing" textLength="96" x="1430" y="522.7285">RegionInSpace</text><line style="stroke:#181818;stroke-width:0.5;" x1="1402" x2="1528" y1="533" y2="533"/><line style="stroke:#181818;stroke-width:0.5;" x1="1402" x2="1528" y1="541" y2="541"/></g><!--class VisualExplanation--><g id="elem_VisualExplanation"><rect codeLine="30" fill="#F1F1F1" height="48" id="VisualExplanation" rx="2.5" ry="2.5" style="stroke:#181818;stroke-width:0.5;" width="143" x="1393.5" y="418"/><ellipse cx="1408.5" cy="434" fill="#ADD1B2" rx="11" ry="11" style="stroke:#181818;stroke-width:1.0;"/><path d="M1410.5,430.5 Q1410.7031,430 1410.9375,429.75 Q1411.1719,429.5 1411.4375,429.5 Q1411.9063,429.5 1412.2031,429.7813 Q1412.5,430.0625 1412.5,430.7188 L1412.5,432.2813 Q1412.5,432.9375 1412.2188,433.2188 Q1411.9375,433.5 1411.5,433.5 Q1411.1094,433.5 1410.8594,433.3281 Q1410.6094,433.1563 1410.5,432.7031 Q1410.4531,432.3906 1410.2813,432.2188 Q1409.9688,431.8906 1409.4063,431.7031 Q1408.8438,431.5 1408.2813,431.5 Q1407.5781,431.5 1406.9844,431.7813 Q1406.4063,432.0625 1405.9531,432.6875 Q1405.5,433.3125 1405.5,434.1719 L1405.5,435.0938 Q1405.5,436.125 1406.3438,436.8125 Q1407.1875,437.5 1408.6875,437.5 Q1409.5781,437.5 1410.2031,437.2969 Q1410.5625,437.1875 1410.9688,436.8281 Q1411.2344,436.625 1411.375,436.5625 Q1411.5156,436.5 1411.6875,436.5 Q1412.0156,436.5 1412.25,436.7656 Q1412.5,437.0156 1412.5,437.375 Q1412.5,437.7188 1412.1563,438.125 Q1411.6563,438.7188 1410.8594,439.0469 Q1409.8125,439.5 1408.5313,439.5 Q1407.0313,439.5 1405.8281,438.9063 Q1404.8594,438.4375 1404.1719,437.4219 Q1403.5,436.4063 1403.5,435.2031 L1403.5,434.1094 Q1403.5,432.8594 1404.0938,431.7656 Q1404.7031,430.6719 1405.75,430.0938 Q1406.8125,429.5 1408,429.5 Q1408.7188,429.5 1409.3438,429.75 Q1409.9688,430 1410.5,430.5 Z " fill="#000000"/><text fill="#000000" font-family="sans-serif" font-size="14" lengthAdjust="spacing" textLength="111" x="1422.5" y="439.7285">VisualExplanation</text><line style="stroke:#181818;stroke-width:0.5;" x1="1394.5" x2="1535.5" y1="450" y2="450"/><line style="stroke:#181818;stroke-width:0.5;" x1="1394.5" x2="1535.5" y1="458" y2="458"/></g><!--class VolumeSurface--><g id="elem_VolumeSurface"><rect codeLine="31" fill="#F1F1F1" height="48" id="VolumeSurface" rx="2.5" ry="2.5" style="stroke:#181818;stroke-width:0.5;" width="128" x="1401" y="335"/><ellipse cx="1416" cy="351" fill="#ADD1B2" rx="11" ry="11" style="stroke:#181818;stroke-width:1.0;"/><path d="M1418,347.5 Q1418.2031,347 1418.4375,346.75 Q1418.6719,346.5 1418.9375,346.5 Q1419.4063,346.5 1419.7031,346.7813 Q1420,347.0625 1420,347.7188 L1420,349.2813 Q1420,349.9375 1419.7188,350.2188 Q1419.4375,350.5 1419,350.5 Q1418.6094,350.5 1418.3594,350.3281 Q1418.1094,350.1563 1418,349.7031 Q1417.9531,349.3906 1417.7813,349.2188 Q1417.4688,348.8906 1416.9063,348.7031 Q1416.3438,348.5 1415.7813,348.5 Q1415.0781,348.5 1414.4844,348.7813 Q1413.9063,349.0625 1413.4531,349.6875 Q1413,350.3125 1413,351.1719 L1413,352.0938 Q1413,353.125 1413.8438,353.8125 Q1414.6875,354.5 1416.1875,354.5 Q1417.0781,354.5 1417.7031,354.2969 Q1418.0625,354.1875 1418.4688,353.8281 Q1418.7344,353.625 1418.875,353.5625 Q1419.0156,353.5 1419.1875,353.5 Q1419.5156,353.5 1419.75,353.7656 Q1420,354.0156 1420,354.375 Q1420,354.7188 1419.6563,355.125 Q1419.1563,355.7188 1418.3594,356.0469 Q1417.3125,356.5 1416.0313,356.5 Q1414.5313,356.5 1413.3281,355.9063 Q1412.3594,355.4375 1411.6719,354.4219 Q1411,353.4063 1411,352.2031 L1411,351.1094 Q1411,349.8594 1411.5938,348.7656 Q1412.2031,347.6719 1413.25,347.0938 Q1414.3125,346.5 1415.5,346.5 Q1416.2188,346.5 1416.8438,346.75 Q1417.4688,347 1418,347.5 Z " fill="#000000"/><text fill="#000000" font-family="sans-serif" font-size="14" lengthAdjust="spacing" textLength="96" x="1430" y="356.7285">VolumeSurface</text><line style="stroke:#181818;stroke-width:0.5;" x1="1402" x2="1528" y1="367" y2="367"/><line style="stroke:#181818;stroke-width:0.5;" x1="1402" x2="1528" y1="375" y2="375"/></g><!--class Patient--><g id="elem_Patient"><rect codeLine="3" fill="#F1F1F1" height="48" id="Patient" rx="2.5" ry="2.5" style="stroke:#181818;stroke-width:0.5;" width="76" x="1849" y="1618"/><ellipse cx="1864" cy="1634" fill="#ADD1B2" rx="11" ry="11" style="stroke:#181818;stroke-width:1.0;"/><path d="M1866,1630.5 Q1866.2031,1630 1866.4375,1629.75 Q1866.6719,1629.5 1866.9375,1629.5 Q1867.4063,1629.5 1867.7031,1629.7813 Q1868,1630.0625 1868,1630.7188 L1868,1632.2813 Q1868,1632.9375 1867.7188,1633.2188 Q1867.4375,1633.5 1867,1633.5 Q1866.6094,1633.5 1866.3594,1633.3281 Q1866.1094,1633.1563 1866,1632.7031 Q1865.9531,1632.3906 1865.7813,1632.2188 Q1865.4688,1631.8906 1864.9063,1631.7031 Q1864.3438,1631.5 1863.7813,1631.5 Q1863.0781,1631.5 1862.4844,1631.7813 Q1861.9063,1632.0625 1861.4531,1632.6875 Q1861,1633.3125 1861,1634.1719 L1861,1635.0938 Q1861,1636.125 1861.8438,1636.8125 Q1862.6875,1637.5 1864.1875,1637.5 Q1865.0781,1637.5 1865.7031,1637.2969 Q1866.0625,1637.1875 1866.4688,1636.8281 Q1866.7344,1636.625 1866.875,1636.5625 Q1867.0156,1636.5 1867.1875,1636.5 Q1867.5156,1636.5 1867.75,1636.7656 Q1868,1637.0156 1868,1637.375 Q1868,1637.7188 1867.6563,1638.125 Q1867.1563,1638.7188 1866.3594,1639.0469 Q1865.3125,1639.5 1864.0313,1639.5 Q1862.5313,1639.5 1861.3281,1638.9063 Q1860.3594,1638.4375 1859.6719,1637.4219 Q1859,1636.4063 1859,1635.2031 L1859,1634.1094 Q1859,1632.8594 1859.5938,1631.7656 Q1860.2031,1630.6719 1861.25,1630.0938 Q1862.3125,1629.5 1863.5,1629.5 Q1864.2188,1629.5 1864.8438,1629.75 Q1865.4688,1630 1866,1630.5 Z " fill="#000000"/><text fill="#000000" font-family="sans-serif" font-size="14" lengthAdjust="spacing" textLength="44" x="1878" y="1639.7285">Patient</text><line style="stroke:#181818;stroke-width:0.5;" x1="1850" x2="1924" y1="1650" y2="1650"/><line style="stroke:#181818;stroke-width:0.5;" x1="1850" x2="1924" y1="1658" y2="1658"/></g><!--class ImagingStudy--><g id="elem_ImagingStudy"><rect codeLine="4" fill="#F1F1F1" height="48" id="ImagingStudy" rx="2.5" ry="2.5" style="stroke:#181818;stroke-width:0.5;" width="117" x="1828.5" y="1701"/><ellipse cx="1843.5" cy="1717" fill="#ADD1B2" rx="11" ry="11" style="stroke:#181818;stroke-width:1.0;"/><path d="M1845.5,1713.5 Q1845.7031,1713 1845.9375,1712.75 Q1846.1719,1712.5 1846.4375,1712.5 Q1846.9063,1712.5 1847.2031,1712.7813 Q1847.5,1713.0625 1847.5,1713.7188 L1847.5,1715.2813 Q1847.5,1715.9375 1847.2188,1716.2188 Q1846.9375,1716.5 1846.5,1716.5 Q1846.1094,1716.5 1845.8594,1716.3281 Q1845.6094,1716.1563 1845.5,1715.7031 Q1845.4531,1715.3906 1845.2813,1715.2188 Q1844.9688,1714.8906 1844.4063,1714.7031 Q1843.8438,1714.5 1843.2813,1714.5 Q1842.5781,1714.5 1841.9844,1714.7813 Q1841.4063,1715.0625 1840.9531,1715.6875 Q1840.5,1716.3125 1840.5,1717.1719 L1840.5,1718.0938 Q1840.5,1719.125 1841.3438,1719.8125 Q1842.1875,1720.5 1843.6875,1720.5 Q1844.5781,1720.5 1845.2031,1720.2969 Q1845.5625,1720.1875 1845.9688,1719.8281 Q1846.2344,1719.625 1846.375,1719.5625 Q1846.5156,1719.5 1846.6875,1719.5 Q1847.0156,1719.5 1847.25,1719.7656 Q1847.5,1720.0156 1847.5,1720.375 Q1847.5,1720.7188 1847.1563,1721.125 Q1846.6563,1721.7188 1845.8594,1722.0469 Q1844.8125,1722.5 1843.5313,1722.5 Q1842.0313,1722.5 1840.8281,1721.9063 Q1839.8594,1721.4375 1839.1719,1720.4219 Q1838.5,1719.4063 1838.5,1718.2031 L1838.5,1717.1094 Q1838.5,1715.8594 1839.0938,1714.7656 Q1839.7031,1713.6719 1840.75,1713.0938 Q1841.8125,1712.5 1843,1712.5 Q1843.7188,1712.5 1844.3438,1712.75 Q1844.9688,1713 1845.5,1713.5 Z " fill="#000000"/><text fill="#000000" font-family="sans-serif" font-size="14" lengthAdjust="spacing" textLength="85" x="1857.5" y="1722.7285">ImagingStudy</text><line style="stroke:#181818;stroke-width:0.5;" x1="1829.5" x2="1944.5" y1="1733" y2="1733"/><line style="stroke:#181818;stroke-width:0.5;" x1="1829.5" x2="1944.5" y1="1741" y2="1741"/></g><!--class ServiceRequest--><g id="elem_ServiceRequest"><rect codeLine="5" fill="#F1F1F1" height="48" id="ServiceRequest" rx="2.5" ry="2.5" style="stroke:#181818;stroke-width:0.5;" width="132" x="1821" y="1784"/><ellipse cx="1836" cy="1800" fill="#ADD1B2" rx="11" ry="11" style="stroke:#181818;stroke-width:1.0;"/><path d="M1838,1796.5 Q1838.2031,1796 1838.4375,1795.75 Q1838.6719,1795.5 1838.9375,1795.5 Q1839.4063,1795.5 1839.7031,1795.7813 Q1840,1796.0625 1840,1796.7188 L1840,1798.2813 Q1840,1798.9375 1839.7188,1799.2188 Q1839.4375,1799.5 1839,1799.5 Q1838.6094,1799.5 1838.3594,1799.3281 Q1838.1094,1799.1563 1838,1798.7031 Q1837.9531,1798.3906 1837.7813,1798.2188 Q1837.4688,1797.8906 1836.9063,1797.7031 Q1836.3438,1797.5 1835.7813,1797.5 Q1835.0781,1797.5 1834.4844,1797.7813 Q1833.9063,1798.0625 1833.4531,1798.6875 Q1833,1799.3125 1833,1800.1719 L1833,1801.0938 Q1833,1802.125 1833.8438,1802.8125 Q1834.6875,1803.5 1836.1875,1803.5 Q1837.0781,1803.5 1837.7031,1803.2969 Q1838.0625,1803.1875 1838.4688,1802.8281 Q1838.7344,1802.625 1838.875,1802.5625 Q1839.0156,1802.5 1839.1875,1802.5 Q1839.5156,1802.5 1839.75,1802.7656 Q1840,1803.0156 1840,1803.375 Q1840,1803.7188 1839.6563,1804.125 Q1839.1563,1804.7188 1838.3594,1805.0469 Q1837.3125,1805.5 1836.0313,1805.5 Q1834.5313,1805.5 1833.3281,1804.9063 Q1832.3594,1804.4375 1831.6719,1803.4219 Q1831,1802.4063 1831,1801.2031 L1831,1800.1094 Q1831,1798.8594 1831.5938,1797.7656 Q1832.2031,1796.6719 1833.25,1796.0938 Q1834.3125,1795.5 1835.5,1795.5 Q1836.2188,1795.5 1836.8438,1795.75 Q1837.4688,1796 1838,1796.5 Z " fill="#000000"/><text fill="#000000" font-family="sans-serif" font-size="14" lengthAdjust="spacing" textLength="100" x="1850" y="1805.7285">ServiceRequest</text><line style="stroke:#181818;stroke-width:0.5;" x1="1822" x2="1952" y1="1816" y2="1816"/><line style="stroke:#181818;stroke-width:0.5;" x1="1822" x2="1952" y1="1824" y2="1824"/></g><!--class Device--><g id="elem_Device"><rect codeLine="6" fill="#F1F1F1" height="48" id="Device" rx="2.5" ry="2.5" style="stroke:#181818;stroke-width:0.5;" width="75" x="1849.5" y="1535"/><ellipse cx="1864.5" cy="1551" fill="#ADD1B2" rx="11" ry="11" style="stroke:#181818;stroke-width:1.0;"/><path d="M1866.5,1547.5 Q1866.7031,1547 1866.9375,1546.75 Q1867.1719,1546.5 1867.4375,1546.5 Q1867.9063,1546.5 1868.2031,1546.7813 Q1868.5,1547.0625 1868.5,1547.7188 L1868.5,1549.2813 Q1868.5,1549.9375 1868.2188,1550.2188 Q1867.9375,1550.5 1867.5,1550.5 Q1867.1094,1550.5 1866.8594,1550.3281 Q1866.6094,1550.1563 1866.5,1549.7031 Q1866.4531,1549.3906 1866.2813,1549.2188 Q1865.9688,1548.8906 1865.4063,1548.7031 Q1864.8438,1548.5 1864.2813,1548.5 Q1863.5781,1548.5 1862.9844,1548.7813 Q1862.4063,1549.0625 1861.9531,1549.6875 Q1861.5,1550.3125 1861.5,1551.1719 L1861.5,1552.0938 Q1861.5,1553.125 1862.3438,1553.8125 Q1863.1875,1554.5 1864.6875,1554.5 Q1865.5781,1554.5 1866.2031,1554.2969 Q1866.5625,1554.1875 1866.9688,1553.8281 Q1867.2344,1553.625 1867.375,1553.5625 Q1867.5156,1553.5 1867.6875,1553.5 Q1868.0156,1553.5 1868.25,1553.7656 Q1868.5,1554.0156 1868.5,1554.375 Q1868.5,1554.7188 1868.1563,1555.125 Q1867.6563,1555.7188 1866.8594,1556.0469 Q1865.8125,1556.5 1864.5313,1556.5 Q1863.0313,1556.5 1861.8281,1555.9063 Q1860.8594,1555.4375 1860.1719,1554.4219 Q1859.5,1553.4063 1859.5,1552.2031 L1859.5,1551.1094 Q1859.5,1549.8594 1860.0938,1548.7656 Q1860.7031,1547.6719 1861.75,1547.0938 Q1862.8125,1546.5 1864,1546.5 Q1864.7188,1546.5 1865.3438,1546.75 Q1865.9688,1547 1866.5,1547.5 Z " fill="#000000"/><text fill="#000000" font-family="sans-serif" font-size="14" lengthAdjust="spacing" textLength="43" x="1878.5" y="1556.7285">Device</text><line style="stroke:#181818;stroke-width:0.5;" x1="1850.5" x2="1923.5" y1="1567" y2="1567"/><line style="stroke:#181818;stroke-width:0.5;" x1="1850.5" x2="1923.5" y1="1575" y2="1575"/></g><!--class Practitioner--><g id="elem_Practitioner"><rect codeLine="7" fill="#F1F1F1" height="48" id="Practitioner" rx="2.5" ry="2.5" style="stroke:#181818;stroke-width:0.5;" width="104" x="1835" y="1452"/><ellipse cx="1850" cy="1468" fill="#ADD1B2" rx="11" ry="11" style="stroke:#181818;stroke-width:1.0;"/><path d="M1852,1464.5 Q1852.2031,1464 1852.4375,1463.75 Q1852.6719,1463.5 1852.9375,1463.5 Q1853.4063,1463.5 1853.7031,1463.7813 Q1854,1464.0625 1854,1464.7188 L1854,1466.2813 Q1854,1466.9375 1853.7188,1467.2188 Q1853.4375,1467.5 1853,1467.5 Q1852.6094,1467.5 1852.3594,1467.3281 Q1852.1094,1467.1563 1852,1466.7031 Q1851.9531,1466.3906 1851.7813,1466.2188 Q1851.4688,1465.8906 1850.9063,1465.7031 Q1850.3438,1465.5 1849.7813,1465.5 Q1849.0781,1465.5 1848.4844,1465.7813 Q1847.9063,1466.0625 1847.4531,1466.6875 Q1847,1467.3125 1847,1468.1719 L1847,1469.0938 Q1847,1470.125 1847.8438,1470.8125 Q1848.6875,1471.5 1850.1875,1471.5 Q1851.0781,1471.5 1851.7031,1471.2969 Q1852.0625,1471.1875 1852.4688,1470.8281 Q1852.7344,1470.625 1852.875,1470.5625 Q1853.0156,1470.5 1853.1875,1470.5 Q1853.5156,1470.5 1853.75,1470.7656 Q1854,1471.0156 1854,1471.375 Q1854,1471.7188 1853.6563,1472.125 Q1853.1563,1472.7188 1852.3594,1473.0469 Q1851.3125,1473.5 1850.0313,1473.5 Q1848.5313,1473.5 1847.3281,1472.9063 Q1846.3594,1472.4375 1845.6719,1471.4219 Q1845,1470.4063 1845,1469.2031 L1845,1468.1094 Q1845,1466.8594 1845.5938,1465.7656 Q1846.2031,1464.6719 1847.25,1464.0938 Q1848.3125,1463.5 1849.5,1463.5 Q1850.2188,1463.5 1850.8438,1463.75 Q1851.4688,1464 1852,1464.5 Z " fill="#000000"/><text fill="#000000" font-family="sans-serif" font-size="14" lengthAdjust="spacing" textLength="72" x="1864" y="1473.7285">Practitioner</text><line style="stroke:#181818;stroke-width:0.5;" x1="1836" x2="1938" y1="1484" y2="1484"/><line style="stroke:#181818;stroke-width:0.5;" x1="1836" x2="1938" y1="1492" y2="1492"/></g><!--class Observation--><g id="elem_Observation"><rect codeLine="8" fill="#F1F1F1" height="48" id="Observation" rx="2.5" ry="2.5" style="stroke:#181818;stroke-width:0.5;" width="109" x="1410.5" y="1618"/><ellipse cx="1425.5" cy="1634" fill="#ADD1B2" rx="11" ry="11" style="stroke:#181818;stroke-width:1.0;"/><path d="M1427.5,1630.5 Q1427.7031,1630 1427.9375,1629.75 Q1428.1719,1629.5 1428.4375,1629.5 Q1428.9063,1629.5 1429.2031,1629.7813 Q1429.5,1630.0625 1429.5,1630.7188 L1429.5,1632.2813 Q1429.5,1632.9375 1429.2188,1633.2188 Q1428.9375,1633.5 1428.5,1633.5 Q1428.1094,1633.5 1427.8594,1633.3281 Q1427.6094,1633.1563 1427.5,1632.7031 Q1427.4531,1632.3906 1427.2813,1632.2188 Q1426.9688,1631.8906 1426.4063,1631.7031 Q1425.8438,1631.5 1425.2813,1631.5 Q1424.5781,1631.5 1423.9844,1631.7813 Q1423.4063,1632.0625 1422.9531,1632.6875 Q1422.5,1633.3125 1422.5,1634.1719 L1422.5,1635.0938 Q1422.5,1636.125 1423.3438,1636.8125 Q1424.1875,1637.5 1425.6875,1637.5 Q1426.5781,1637.5 1427.2031,1637.2969 Q1427.5625,1637.1875 1427.9688,1636.8281 Q1428.2344,1636.625 1428.375,1636.5625 Q1428.5156,1636.5 1428.6875,1636.5 Q1429.0156,1636.5 1429.25,1636.7656 Q1429.5,1637.0156 1429.5,1637.375 Q1429.5,1637.7188 1429.1563,1638.125 Q1428.6563,1638.7188 1427.8594,1639.0469 Q1426.8125,1639.5 1425.5313,1639.5 Q1424.0313,1639.5 1422.8281,1638.9063 Q1421.8594,1638.4375 1421.1719,1637.4219 Q1420.5,1636.4063 1420.5,1635.2031 L1420.5,1634.1094 Q1420.5,1632.8594 1421.0938,1631.7656 Q1421.7031,1630.6719 1422.75,1630.0938 Q1423.8125,1629.5 1425,1629.5 Q1425.7188,1629.5 1426.3438,1629.75 Q1426.9688,1630 1427.5,1630.5 Z " fill="#000000"/><text fill="#000000" font-family="sans-serif" font-size="14" lengthAdjust="spacing" textLength="77" x="1439.5" y="1639.7285">Observation</text><line style="stroke:#181818;stroke-width:0.5;" x1="1411.5" x2="1518.5" y1="1650" y2="1650"/><line style="stroke:#181818;stroke-width:0.5;" x1="1411.5" x2="1518.5" y1="1658" y2="1658"/></g><!--class ImagingSelection--><g id="elem_ImagingSelection"><rect codeLine="9" fill="#F1F1F1" height="48" id="ImagingSelection" rx="2.5" ry="2.5" style="stroke:#181818;stroke-width:0.5;" width="139" x="2058" y="418"/><ellipse cx="2073" cy="434" fill="#ADD1B2" rx="11" ry="11" style="stroke:#181818;stroke-width:1.0;"/><path d="M2075,430.5 Q2075.2031,430 2075.4375,429.75 Q2075.6719,429.5 2075.9375,429.5 Q2076.4063,429.5 2076.7031,429.7813 Q2077,430.0625 2077,430.7188 L2077,432.2813 Q2077,432.9375 2076.7188,433.2188 Q2076.4375,433.5 2076,433.5 Q2075.6094,433.5 2075.3594,433.3281 Q2075.1094,433.1563 2075,432.7031 Q2074.9531,432.3906 2074.7813,432.2188 Q2074.4688,431.8906 2073.9063,431.7031 Q2073.3438,431.5 2072.7813,431.5 Q2072.0781,431.5 2071.4844,431.7813 Q2070.9063,432.0625 2070.4531,432.6875 Q2070,433.3125 2070,434.1719 L2070,435.0938 Q2070,436.125 2070.8438,436.8125 Q2071.6875,437.5 2073.1875,437.5 Q2074.0781,437.5 2074.7031,437.2969 Q2075.0625,437.1875 2075.4688,436.8281 Q2075.7344,436.625 2075.875,436.5625 Q2076.0156,436.5 2076.1875,436.5 Q2076.5156,436.5 2076.75,436.7656 Q2077,437.0156 2077,437.375 Q2077,437.7188 2076.6563,438.125 Q2076.1563,438.7188 2075.3594,439.0469 Q2074.3125,439.5 2073.0313,439.5 Q2071.5313,439.5 2070.3281,438.9063 Q2069.3594,438.4375 2068.6719,437.4219 Q2068,436.4063 2068,435.2031 L2068,434.1094 Q2068,432.8594 2068.5938,431.7656 Q2069.2031,430.6719 2070.25,430.0938 Q2071.3125,429.5 2072.5,429.5 Q2073.2188,429.5 2073.8438,429.75 Q2074.4688,430 2075,430.5 Z " fill="#000000"/><text fill="#000000" font-family="sans-serif" font-size="14" lengthAdjust="spacing" textLength="107" x="2087" y="439.7285">ImagingSelection</text><line style="stroke:#181818;stroke-width:0.5;" x1="2059" x2="2196" y1="450" y2="450"/><line style="stroke:#181818;stroke-width:0.5;" x1="2059" x2="2196" y1="458" y2="458"/></g><!--class BodyStructure--><g id="elem_BodyStructure"><rect codeLine="10" fill="#F1F1F1" height="48" id="BodyStructure" rx="2.5" ry="2.5" style="stroke:#181818;stroke-width:0.5;" width="122" x="1826" y="1369"/><ellipse cx="1841" cy="1385" fill="#ADD1B2" rx="11" ry="11" style="stroke:#181818;stroke-width:1.0;"/><path d="M1843,1381.5 Q1843.2031,1381 1843.4375,1380.75 Q1843.6719,1380.5 1843.9375,1380.5 Q1844.4063,1380.5 1844.7031,1380.7813 Q1845,1381.0625 1845,1381.7188 L1845,1383.2813 Q1845,1383.9375 1844.7188,1384.2188 Q1844.4375,1384.5 1844,1384.5 Q1843.6094,1384.5 1843.3594,1384.3281 Q1843.1094,1384.1563 1843,1383.7031 Q1842.9531,1383.3906 1842.7813,1383.2188 Q1842.4688,1382.8906 1841.9063,1382.7031 Q1841.3438,1382.5 1840.7813,1382.5 Q1840.0781,1382.5 1839.4844,1382.7813 Q1838.9063,1383.0625 1838.4531,1383.6875 Q1838,1384.3125 1838,1385.1719 L1838,1386.0938 Q1838,1387.125 1838.8438,1387.8125 Q1839.6875,1388.5 1841.1875,1388.5 Q1842.0781,1388.5 1842.7031,1388.2969 Q1843.0625,1388.1875 1843.4688,1387.8281 Q1843.7344,1387.625 1843.875,1387.5625 Q1844.0156,1387.5 1844.1875,1387.5 Q1844.5156,1387.5 1844.75,1387.7656 Q1845,1388.0156 1845,1388.375 Q1845,1388.7188 1844.6563,1389.125 Q1844.1563,1389.7188 1843.3594,1390.0469 Q1842.3125,1390.5 1841.0313,1390.5 Q1839.5313,1390.5 1838.3281,1389.9063 Q1837.3594,1389.4375 1836.6719,1388.4219 Q1836,1387.4063 1836,1386.2031 L1836,1385.1094 Q1836,1383.8594 1836.5938,1382.7656 Q1837.2031,1381.6719 1838.25,1381.0938 Q1839.3125,1380.5 1840.5,1380.5 Q1841.2188,1380.5 1841.8438,1380.75 Q1842.4688,1381 1843,1381.5 Z " fill="#000000"/><text fill="#000000" font-family="sans-serif" font-size="14" lengthAdjust="spacing" textLength="90" x="1855" y="1390.7285">BodyStructure</text><line style="stroke:#181818;stroke-width:0.5;" x1="1827" x2="1947" y1="1401" y2="1401"/><line style="stroke:#181818;stroke-width:0.5;" x1="1827" x2="1947" y1="1409" y2="1409"/></g><!--reverse link GeneralEquipmentDevice to Device--><g id="link_GeneralEquipmentDevice_Device"><path codeLine="43" d="M1488.1,1331.07 C1520.84,1388.62 1588.05,1490.09 1677,1537 C1731.7,1565.85 1805.59,1566.14 1849.28,1563.04 " fill="none" id="GeneralEquipmentDevice-backto-Device" style="stroke:#181818;stroke-width:1.0;"/><polygon fill="none" points="1481.87,1334.27,1478.34,1313.38,1494.13,1327.51,1481.87,1334.27" style="stroke:#181818;stroke-width:1.0;"/></g><!--reverse link ParticipantDevice to Device--><g id="link_ParticipantDevice_Device"><path codeLine="44" d="M1556.03,1124.1 C1586.81,1129.16 1618.79,1140.44 1640,1164 C1727.23,1260.9 1606.17,1345.55 1677,1455 C1697.37,1486.48 1717.16,1479.19 1749,1499 C1762.4,1507.34 1764.9,1510.92 1779,1518 C1801.58,1529.33 1828.09,1539.51 1849.07,1546.89 " fill="none" id="ParticipantDevice-backto-Device" style="stroke:#181818;stroke-width:1.0;"/><polygon fill="none" points="1555.08,1131.03,1536.1,1121.61,1556.82,1117.14,1555.08,1131.03" style="stroke:#181818;stroke-width:1.0;"/></g><!--reverse link AlgorithmIdentification to Device--><g id="link_AlgorithmIdentification_Device"><path codeLine="45" d="M1569.97,1210.14 C1596.1,1216.16 1621.84,1227.25 1640,1247 C1715.73,1329.36 1603.84,1411.36 1677,1496 C1699.55,1522.09 1795.67,1542.93 1849.36,1552.79 " fill="none" id="AlgorithmIdentification-backto-Device" style="stroke:#181818;stroke-width:1.0;"/><polygon fill="none" points="1568.43,1216.97,1550.03,1206.46,1570.97,1203.2,1568.43,1216.97" style="stroke:#181818;stroke-width:1.0;"/></g><!--reverse link ParticipantPractitioner to Practitioner--><g id="link_ParticipantPractitioner_Practitioner"><path codeLine="47" d="M1570.26,1039.42 C1596.4,1048.3 1622.08,1061.97 1640,1083 C1702.04,1155.8 1639.65,1206.95 1677,1295 C1707.07,1365.87 1717.88,1388.19 1779,1435 C1795.35,1447.52 1815.97,1456.62 1834.73,1463.01 " fill="none" id="ParticipantPractitioner-backto-Practitioner" style="stroke:#181818;stroke-width:1.0;"/><polygon fill="none" points="1567.96,1046.04,1550.78,1033.64,1571.95,1032.61,1567.96,1046.04" style="stroke:#181818;stroke-width:1.0;"/></g><!--reverse link ImagingObservation to Observation--><g id="link_ImagingObservation_Observation"><path codeLine="49" d="M1065.91,801.12 C1074.88,888 1101.7,1085.93 1170,1237 C1242.66,1397.71 1384.95,1558.21 1440.76,1617.78 " fill="none" id="ImagingObservation-backto-Observation" style="stroke:#181818;stroke-width:1.0;"/><polygon fill="none" points="1058.93,801.64,1063.96,781.06,1072.86,800.28,1058.93,801.64" style="stroke:#181818;stroke-width:1.0;"/></g><!--reverse link ImagingMeasurementGroup to ImagingObservation--><g id="link_ImagingMeasurementGroup_ImagingObservation"><path codeLine="50" d="M597.23,853.82 C688.27,864.19 814.52,869.37 921,840 C962.32,828.6 1003.74,801.33 1030.47,781.14 " fill="none" id="ImagingMeasurementGroup-backto-ImagingObservation" style="stroke:#181818;stroke-width:1.0;"/><polygon fill="none" points="596.21,860.75,577.2,851.39,597.89,846.85,596.21,860.75" style="stroke:#181818;stroke-width:1.0;"/></g><!--reverse link ImagingMeasurement to ImagingObservation--><g id="link_ImagingMeasurement_ImagingObservation"><path codeLine="51" d="M917.49,781.43 C939.03,777.74 961.42,773.9 981.89,770.39 " fill="none" id="ImagingMeasurement-backto-ImagingObservation" style="stroke:#181818;stroke-width:1.0;"/><polygon fill="none" points="918.5,788.36,897.6,784.84,916.13,774.56,918.5,788.36" style="stroke:#181818;stroke-width:1.0;"/></g><!--reverse link ImagingQualitativeEvaluation to ImagingObservation--><g id="link_ImagingQualitativeEvaluation_ImagingObservation"><path codeLine="52" d="M940.79,737.05 C954.78,739.39 968.72,741.72 981.87,743.93 " fill="none" id="ImagingQualitativeEvaluation-backto-ImagingObservation" style="stroke:#181818;stroke-width:1.0;"/><polygon fill="none" points="939.61,743.95,921.04,733.74,941.92,730.14,939.61,743.95" style="stroke:#181818;stroke-width:1.0;"/></g><!--reverse link DerivedImagingMeasurement to Observation--><g id="link_DerivedImagingMeasurement_Observation"><path codeLine="53" d="M148.31,1204.49 C189.44,1297.73 302.45,1512 472.5,1512 C472.5,1512 472.5,1512 1062,1512 C1198.06,1512 1348.02,1580.26 1420.29,1617.85 " fill="none" id="DerivedImagingMeasurement-backto-Observation" style="stroke:#181818;stroke-width:1.0;"/><polygon fill="none" points="141.86,1207.2,140.43,1186.06,154.73,1201.69,141.86,1207.2" style="stroke:#181818;stroke-width:1.0;"/></g><!--reverse link ObservationImagingSelection to ImagingSelection--><g id="link_ObservationImagingSelection_ImagingSelection"><path codeLine="55" d="M2015.08,442 C2029.76,442 2044.29,442 2057.76,442 " fill="none" id="ObservationImagingSelection-backto-ImagingSelection" style="stroke:#181818;stroke-width:1.0;"/><polygon fill="none" points="2015.04,449,1995.04,442,2015.04,435,2015.04,449" style="stroke:#181818;stroke-width:1.0;"/></g><!--reverse link IllustrationOfRoi to ObservationImagingSelection--><g id="link_IllustrationOfRoi_ObservationImagingSelection"><path codeLine="56" d="M1550.88,291.74 C1579.61,298.19 1611.6,306.61 1640,317 C1715.81,344.74 1798.4,390.12 1846,417.89 " fill="none" id="IllustrationOfRoi-backto-ObservationImagingSelection" style="stroke:#181818;stroke-width:1.0;"/><polygon fill="none" points="1549.2,298.54,1531.12,287.5,1552.14,284.85,1549.2,298.54" style="stroke:#181818;stroke-width:1.0;"/></g><!--reverse link ImageRegion2d to ObservationImagingSelection--><g id="link_ImageRegion2d_ObservationImagingSelection"><path codeLine="57" d="M1550.63,204.65 C1579.97,210.81 1612.41,220.1 1640,234 C1735.4,282.06 1825.38,374.19 1864.93,417.88 " fill="none" id="ImageRegion2d-backto-ObservationImagingSelection" style="stroke:#181818;stroke-width:1.0;"/><polygon fill="none" points="1549.23,211.51,1530.9,200.87,1551.86,197.76,1549.23,211.51" style="stroke:#181818;stroke-width:1.0;"/></g><!--reverse link ImageRegion3d to ObservationImagingSelection--><g id="link_ImageRegion3d_ObservationImagingSelection"><path codeLine="58" d="M1550.6,119.5 C1580.33,125.47 1613.03,135.18 1640,151 C1755.28,218.59 1841.8,360.7 1873.17,417.64 " fill="none" id="ImageRegion3d-backto-ObservationImagingSelection" style="stroke:#181818;stroke-width:1.0;"/><polygon fill="none" points="1549.06,126.33,1530.6,115.93,1551.52,112.55,1549.06,126.33" style="stroke:#181818;stroke-width:1.0;"/></g><!--reverse link RealWorldValueMap to ObservationImagingSelection--><g id="link_RealWorldValueMap_ObservationImagingSelection"><path codeLine="59" d="M1565.41,758.74 C1590.62,752.55 1617.05,743.93 1640,732 C1758.91,670.18 1843.92,524.05 1874.02,466.19 " fill="none" id="RealWorldValueMap-backto-ObservationImagingSelection" style="stroke:#181818;stroke-width:1.0;"/><polygon fill="none" points="1566.59,765.65,1545.54,763.2,1563.52,751.99,1566.59,765.65" style="stroke:#181818;stroke-width:1.0;"/></g><!--reverse link ReferencedSegment to ObservationImagingSelection--><g id="link_ReferencedSegment_ObservationImagingSelection"><path codeLine="60" d="M1565.92,675.15 C1590.91,668.97 1617.11,660.52 1640,649 C1734.98,601.2 1824.83,509.91 1864.58,466.33 " fill="none" id="ReferencedSegment-backto-ObservationImagingSelection" style="stroke:#181818;stroke-width:1.0;"/><polygon fill="none" points="1567.27,682.02,1546.21,679.62,1564.17,668.37,1567.27,682.02" style="stroke:#181818;stroke-width:1.0;"/></g><!--reverse link ReferencedSegmentationFrame to ObservationImagingSelection--><g id="link_ReferencedSegmentationFrame_ObservationImagingSelection"><path codeLine="61" d="M1601.95,578.41 C1614.93,574.62 1627.8,570.48 1640,566 C1715.43,538.31 1797.8,493.56 1845.52,466.07 " fill="none" id="ReferencedSegmentationFrame-backto-ObservationImagingSelection" style="stroke:#181818;stroke-width:1.0;"/><polygon fill="none" points="1603.38,585.28,1582.24,583.88,1599.63,571.79,1603.38,585.28" style="stroke:#181818;stroke-width:1.0;"/></g><!--reverse link RegionInSpace to ObservationImagingSelection--><g id="link_RegionInSpace_ObservationImagingSelection"><path codeLine="62" d="M1549.29,508.54 C1615.12,495.53 1707.48,477.28 1778.83,463.18 " fill="none" id="RegionInSpace-backto-ObservationImagingSelection" style="stroke:#181818;stroke-width:1.0;"/><polygon fill="none" points="1550.31,515.47,1529.33,512.48,1547.6,501.74,1550.31,515.47" style="stroke:#181818;stroke-width:1.0;"/></g><!--reverse link VisualExplanation to ObservationImagingSelection--><g id="link_VisualExplanation_ObservationImagingSelection"><path codeLine="63" d="M1557.06,442 C1622.18,442 1710.07,442 1778.61,442 " fill="none" id="VisualExplanation-backto-ObservationImagingSelection" style="stroke:#181818;stroke-width:1.0;"/><polygon fill="none" points="1556.77,449,1536.77,442,1556.77,435,1556.77,449" style="stroke:#181818;stroke-width:1.0;"/></g><!--reverse link VolumeSurface to ObservationImagingSelection--><g id="link_VolumeSurface_ObservationImagingSelection"><path codeLine="64" d="M1549.29,375.46 C1615.12,388.47 1707.48,406.72 1778.83,420.82 " fill="none" id="VolumeSurface-backto-ObservationImagingSelection" style="stroke:#181818;stroke-width:1.0;"/><polygon fill="none" points="1547.6,382.26,1529.33,371.52,1550.31,368.53,1547.6,382.26" style="stroke:#181818;stroke-width:1.0;"/></g><!--reverse link FindingSite to BodyStructure--><g id="link_FindingSite_BodyStructure"><path codeLine="66" d="M1536.68,859.26 C1571.16,863.69 1611.28,874.17 1640,898 C1732.03,974.36 1715.97,1029.07 1749,1144 C1774.92,1234.19 1720.15,1279.9 1779,1353 C1790.69,1367.52 1808.22,1376.77 1825.73,1382.66 " fill="none" id="FindingSite-backto-BodyStructure" style="stroke:#181818;stroke-width:1.0;"/><polygon fill="none" points="1535.84,866.21,1516.63,857.26,1537.22,852.28,1535.84,866.21" style="stroke:#181818;stroke-width:1.0;"/></g><!--reverse link TrackingIdentifiers to BodyStructure--><g id="link_TrackingIdentifiers_BodyStructure"><path codeLine="67" d="M1559.28,945.05 C1587.96,950.74 1617.78,961.42 1640,981 C1772.42,1097.69 1654.21,1228.19 1779,1353 C1791.76,1365.76 1808.97,1374.51 1825.85,1380.47 " fill="none" id="TrackingIdentifiers-backto-BodyStructure" style="stroke:#181818;stroke-width:1.0;"/><polygon fill="none" points="1557.84,951.91,1539.22,941.79,1560.08,938.09,1557.84,951.91" style="stroke:#181818;stroke-width:1.0;"/></g><!--link Observation to Patient--><g id="link_Observation_Patient"><path codeLine="69" d="M1519.62,1642 C1604.06,1642 1766.33,1642 1843.37,1642 " fill="none" id="Observation-to-Patient" style="stroke:#181818;stroke-width:1.0;"/><polygon fill="#181818" points="1848.77,1642,1839.77,1638,1843.77,1642,1839.77,1646,1848.77,1642" style="stroke:#181818;stroke-width:1.0;"/><text fill="#000000" font-family="sans-serif" font-size="13" lengthAdjust="spacing" textLength="42" x="1692" y="1638.4951">subject</text></g><!--link Observation to ImagingStudy--><g id="link_Observation_ImagingStudy"><path codeLine="70" d="M1519.62,1652.6 C1597.2,1667.93 1740.46,1696.24 1822.98,1712.55 " fill="none" id="Observation-to-ImagingStudy" style="stroke:#181818;stroke-width:1.0;"/><polygon fill="#181818" points="1828.33,1713.6,1820.2638,1707.9488,1823.4227,1712.6414,1818.7301,1715.8004,1828.33,1713.6" style="stroke:#181818;stroke-width:1.0;"/><text fill="#000000" font-family="sans-serif" font-size="13" lengthAdjust="spacing" textLength="52" x="1687" y="1681.4951">basedOn</text></g><!--link Observation to ServiceRequest--><g id="link_Observation_ServiceRequest"><path codeLine="71" d="M1519.63,1663.68 C1581.9,1688.8 1687.73,1731.29 1779,1767 C1791.62,1771.94 1805.1,1777.15 1818.1,1782.15 " fill="none" id="Observation-to-ServiceRequest" style="stroke:#181818;stroke-width:1.0;"/><polygon fill="#181818" points="1822.86,1783.97,1815.9073,1776.9944,1818.1962,1782.1674,1813.0232,1784.4564,1822.86,1783.97" style="stroke:#181818;stroke-width:1.0;"/><text fill="#000000" font-family="sans-serif" font-size="13" lengthAdjust="spacing" textLength="70" x="1678" y="1725.4951">derivedFrom</text></g><!--link ImagingObservation to GeneralEquipmentDevice--><g id="link_ImagingObservation_GeneralEquipmentDevice"><path codeLine="73" d="M1063.39,781.46 C1068.14,847.05 1088.39,1030.12 1170,1153 C1207.48,1209.43 1229.02,1217.49 1290,1247 C1312.82,1258.04 1338.76,1266.31 1363.51,1272.45 " fill="none" id="ImagingObservation-to-GeneralEquipmentDevice" style="stroke:#181818;stroke-width:1.0;"/><polygon fill="#181818" points="1368.45,1273.65,1360.6554,1267.6297,1363.5926,1272.4642,1358.7581,1275.4015,1368.45,1273.65" style="stroke:#181818;stroke-width:1.0;"/><text fill="#000000" font-family="sans-serif" font-size="13" lengthAdjust="spacing" textLength="36" x="1193.5" y="1149.4951">device</text></g><!--link ImagingObservation to ParticipantDevice--><g id="link_ImagingObservation_ParticipantDevice"><path codeLine="74" d="M1067.75,781.1 C1079.76,827.03 1111.36,928.19 1170,992 C1198.68,1023.21 1222.01,1010.07 1253,1039 C1274.8,1059.36 1264.94,1078.82 1290,1095 C1318.91,1113.67 1356.01,1121.33 1388.52,1124.07 " fill="none" id="ImagingObservation-to-ParticipantDevice" style="stroke:#181818;stroke-width:1.0;"/><polygon fill="#181818" points="1393.7,1124.46,1385.022,1119.8024,1388.7138,1124.0885,1384.4277,1127.7803,1393.7,1124.46" style="stroke:#181818;stroke-width:1.0;"/><text fill="#000000" font-family="sans-serif" font-size="13" lengthAdjust="spacing" textLength="36" x="1193.5" y="988.4951">device</text></g><!--link ImagingObservation to AlgorithmIdentification--><g id="link_ImagingObservation_AlgorithmIdentification"><path codeLine="75" d="M1065.55,781.24 C1074.6,836.36 1102.77,973.42 1170,1065 C1197.25,1102.12 1218.19,1096.87 1253,1127 C1270.58,1142.22 1269.72,1152.62 1290,1164 C1315.88,1178.51 1346.66,1188.04 1375.08,1194.29 " fill="none" id="ImagingObservation-to-AlgorithmIdentification" style="stroke:#181818;stroke-width:1.0;"/><polygon fill="#181818" points="1379.99,1195.34,1372.0395,1189.5271,1375.1031,1194.2826,1370.3476,1197.3462,1379.99,1195.34" style="stroke:#181818;stroke-width:1.0;"/><text fill="#000000" font-family="sans-serif" font-size="13" lengthAdjust="spacing" textLength="36" x="1193.5" y="1061.4951">device</text></g><!--link ImagingObservation to ParticipantPractitioner--><g id="link_ImagingObservation_ParticipantPractitioner"><path codeLine="76" d="M1074.95,781.19 C1093.02,813.29 1128.3,870.41 1170,909 C1215.65,951.25 1232.44,957.43 1290,981 C1316.53,991.86 1346.54,1000.35 1374.07,1006.77 " fill="none" id="ImagingObservation-to-ParticipantPractitioner" style="stroke:#181818;stroke-width:1.0;"/><polygon fill="#181818" points="1379.18,1007.94,1371.2948,1002.0389,1374.3052,1006.8282,1369.5159,1009.8386,1379.18,1007.94" style="stroke:#181818;stroke-width:1.0;"/><text fill="#000000" font-family="sans-serif" font-size="13" lengthAdjust="spacing" textLength="54" x="1184.5" y="905.4951">performer</text></g><!--link DerivedImagingMeasurement to GeneralEquipmentDevice--><g id="link_DerivedImagingMeasurement_GeneralEquipmentDevice"><path codeLine="77" d="M167.12,1186.21 C227.57,1224.32 354.27,1294 472.5,1294 C472.5,1294 472.5,1294 1062,1294 C1164.45,1294 1281.57,1292.36 1362.86,1290.95 " fill="none" id="DerivedImagingMeasurement-to-GeneralEquipmentDevice" style="stroke:#181818;stroke-width:1.0;"/><polygon fill="#181818" points="1368.16,1290.86,1359.0928,1287.0149,1363.1607,1290.9457,1359.2299,1295.0137,1368.16,1290.86" style="stroke:#181818;stroke-width:1.0;"/><text fill="#000000" font-family="sans-serif" font-size="13" lengthAdjust="spacing" textLength="36" x="796" y="1290.4951">device</text></g><!--link DerivedImagingMeasurement to ParticipantDevice--><g id="link_DerivedImagingMeasurement_ParticipantDevice"><path codeLine="78" d="M238.21,1141.03 C305.26,1129.7 393.59,1118 472.5,1118 C472.5,1118 472.5,1118 1062,1118 C1175.89,1118 1307.91,1120.03 1388.68,1121.5 " fill="none" id="DerivedImagingMeasurement-to-ParticipantDevice" style="stroke:#181818;stroke-width:1.0;"/><polygon fill="#181818" points="1393.92,1121.6,1385.0018,1117.4208,1388.921,1121.5,1384.8418,1125.4192,1393.92,1121.6" style="stroke:#181818;stroke-width:1.0;"/><text fill="#000000" font-family="sans-serif" font-size="13" lengthAdjust="spacing" textLength="36" x="796" y="1114.4951">device</text></g><!--link DerivedImagingMeasurement to AlgorithmIdentification--><g id="link_DerivedImagingMeasurement_AlgorithmIdentification"><path codeLine="79" d="M238.21,1182.97 C305.26,1194.3 393.59,1206 472.5,1206 C472.5,1206 472.5,1206 1062,1206 C1169.39,1206 1292.92,1206 1374.38,1206 " fill="none" id="DerivedImagingMeasurement-to-AlgorithmIdentification" style="stroke:#181818;stroke-width:1.0;"/><polygon fill="#181818" points="1379.69,1206,1370.69,1202,1374.69,1206,1370.69,1210,1379.69,1206" style="stroke:#181818;stroke-width:1.0;"/><text fill="#000000" font-family="sans-serif" font-size="13" lengthAdjust="spacing" textLength="36" x="796" y="1202.4951">device</text></g><!--link DerivedImagingMeasurement to ParticipantPractitioner--><g id="link_DerivedImagingMeasurement_ParticipantPractitioner"><path codeLine="80" d="M167.12,1137.79 C227.57,1099.68 354.27,1030 472.5,1030 C472.5,1030 472.5,1030 1062,1030 C1169.24,1030 1292.54,1027.48 1374,1025.46 " fill="none" id="DerivedImagingMeasurement-to-ParticipantPractitioner" style="stroke:#181818;stroke-width:1.0;"/><polygon fill="#181818" points="1379.31,1025.33,1370.2207,1021.5373,1374.3113,1025.4446,1370.404,1029.5352,1379.31,1025.33" style="stroke:#181818;stroke-width:1.0;"/><text fill="#000000" font-family="sans-serif" font-size="13" lengthAdjust="spacing" textLength="54" x="787" y="1026.4951">performer</text></g><!--link ImagingObservation to FindingSite--><g id="link_ImagingObservation_FindingSite"><path codeLine="82" d="M1135.54,781.06 C1147.03,784.56 1158.8,787.99 1170,791 C1252.42,813.18 1349.21,833.9 1408.57,846.01 " fill="none" id="ImagingObservation-to-FindingSite" style="stroke:#181818;stroke-width:1.0;"/><polygon fill="#181818" points="1413.48,847.01,1405.4456,841.3136,1408.5782,846.0239,1403.8679,849.1565,1413.48,847.01" style="stroke:#181818;stroke-width:1.0;"/><text fill="#000000" font-family="sans-serif" font-size="13" lengthAdjust="spacing" textLength="81" x="1171" y="787.4951">bodyStructure</text></g><!--link ImagingObservation to TrackingIdentifiers--><g id="link_ImagingObservation_TrackingIdentifiers"><path codeLine="83" d="M1091.24,781.2 C1112.4,798.14 1142.09,820.75 1170,838 C1220.72,869.35 1233.99,877.54 1290,898 C1320.63,909.19 1355.38,918.26 1385.73,925.07 " fill="none" id="ImagingObservation-to-TrackingIdentifiers" style="stroke:#181818;stroke-width:1.0;"/><polygon fill="#181818" points="1390.95,926.23,1383.032,920.3729,1386.0691,925.1453,1381.2966,928.1824,1390.95,926.23" style="stroke:#181818;stroke-width:1.0;"/><text fill="#000000" font-family="sans-serif" font-size="13" lengthAdjust="spacing" textLength="31" x="1196" y="834.4951">focus</text></g><!--link ImagingObservation to IllustrationOfRoi--><g id="link_ImagingObservation_IllustrationOfRoi"><path codeLine="85" d="M1062.89,732.87 C1066.42,669.18 1083.88,493.95 1170,385 C1223.96,316.74 1325.14,291.23 1393.55,281.69 " fill="none" id="ImagingObservation-to-IllustrationOfRoi" style="stroke:#181818;stroke-width:1.0;"/><polygon fill="#181818" points="1398.83,280.98,1389.3746,278.2242,1393.8752,281.6511,1390.4483,286.1518,1398.83,280.98" style="stroke:#181818;stroke-width:1.0;"/><text fill="#000000" font-family="sans-serif" font-size="13" lengthAdjust="spacing" textLength="31" x="1196" y="320.4951">focus</text></g><!--link ImagingObservation to ImageRegion2d--><g id="link_ImagingObservation_ImageRegion2d"><path codeLine="86" d="M1065.02,732.9 C1075.99,648.6 1115.89,368.31 1170,298 C1223.08,229.04 1325.23,205.28 1394.02,197.14 " fill="none" id="ImagingObservation-to-ImageRegion2d" style="stroke:#181818;stroke-width:1.0;"/><polygon fill="#181818" points="1399.33,196.54,1389.9311,193.597,1394.3629,197.1126,1390.8473,201.5443,1399.33,196.54" style="stroke:#181818;stroke-width:1.0;"/><text fill="#000000" font-family="sans-serif" font-size="13" lengthAdjust="spacing" textLength="31" x="1196" y="234.4951">focus</text></g><!--link ImagingObservation to ImageRegion3d--><g id="link_ImagingObservation_ImageRegion3d"><path codeLine="87" d="M1064.01,732.72 C1072.23,638.29 1105.95,296.59 1170,212 C1222.44,142.73 1325.01,120.24 1394.04,113.09 " fill="none" id="ImagingObservation-to-ImageRegion3d" style="stroke:#181818;stroke-width:1.0;"/><polygon fill="#181818" points="1399.36,112.56,1390.0058,109.478,1394.385,113.0589,1390.8041,117.4381,1399.36,112.56" style="stroke:#181818;stroke-width:1.0;"/><text fill="#000000" font-family="sans-serif" font-size="13" lengthAdjust="spacing" textLength="31" x="1196" y="148.4951">focus</text></g><!--link ImagingObservation to RealWorldValueMap--><g id="link_ImagingObservation_RealWorldValueMap"><path codeLine="88" d="M1140.46,760.32 C1209.19,763.22 1308.83,767.44 1379.33,770.42 " fill="none" id="ImagingObservation-to-RealWorldValueMap" style="stroke:#181818;stroke-width:1.0;"/><polygon fill="#181818" points="1384.36,770.63,1375.5395,766.2483,1379.3646,770.4159,1375.197,774.241,1384.36,770.63" style="stroke:#181818;stroke-width:1.0;"/><text fill="#000000" font-family="sans-serif" font-size="13" lengthAdjust="spacing" textLength="31" x="1196" y="759.4951">focus</text></g><!--link ImagingObservation to ReferencedSegment--><g id="link_ImagingObservation_ReferencedSegment"><path codeLine="89" d="M1140.11,742.27 C1150.16,740.45 1160.32,738.65 1170,737 C1240.07,725.03 1319.75,712.64 1378.47,703.74 " fill="none" id="ImagingObservation-to-ReferencedSegment" style="stroke:#181818;stroke-width:1.0;"/><polygon fill="#181818" points="1383.73,702.94,1374.2281,700.3488,1378.7876,703.6971,1375.4394,708.2566,1383.73,702.94" style="stroke:#181818;stroke-width:1.0;"/><text fill="#000000" font-family="sans-serif" font-size="13" lengthAdjust="spacing" textLength="31" x="1196" y="720.4951">focus</text></g><!--link ImagingObservation to ReferencedSegmentationFrame--><g id="link_ImagingObservation_ReferencedSegmentationFrame"><path codeLine="90" d="M1103.49,732.91 C1123.34,721.75 1147.62,708.64 1170,698 C1222.03,673.26 1235.13,666.55 1290,649 C1307.7,643.34 1326.64,638.08 1345.26,633.35 " fill="none" id="ImagingObservation-to-ReferencedSegmentationFrame" style="stroke:#181818;stroke-width:1.0;"/><polygon fill="#181818" points="1350.51,632.03,1340.8027,630.3659,1345.6635,633.2595,1342.7699,638.1203,1350.51,632.03" style="stroke:#181818;stroke-width:1.0;"/><text fill="#000000" font-family="sans-serif" font-size="13" lengthAdjust="spacing" textLength="31" x="1196" y="658.4951">focus</text></g><!--link ImagingObservation to RegionInSpace--><g id="link_ImagingObservation_RegionInSpace"><path codeLine="91" d="M1079.96,732.67 C1099.98,706.66 1134.24,665.22 1170,636 C1217.81,596.93 1232.65,588.89 1290,566 C1323.65,552.57 1362.8,542.86 1395.43,536.27 " fill="none" id="ImagingObservation-to-RegionInSpace" style="stroke:#181818;stroke-width:1.0;"/><polygon fill="#181818" points="1400.61,535.24,1391.004,533.0666,1395.7055,536.2123,1392.5597,540.9138,1400.61,535.24" style="stroke:#181818;stroke-width:1.0;"/><text fill="#000000" font-family="sans-serif" font-size="13" lengthAdjust="spacing" textLength="31" x="1196" y="578.4951">focus</text></g><!--link ImagingObservation to VisualExplanation--><g id="link_ImagingObservation_VisualExplanation"><path codeLine="92" d="M1070.2,732.78 C1084.9,692.23 1119.04,609.76 1170,556 C1227.81,495.01 1322,466.18 1388.15,452.86 " fill="none" id="ImagingObservation-to-VisualExplanation" style="stroke:#181818;stroke-width:1.0;"/><polygon fill="#181818" points="1393.26,451.85,1383.6552,449.6712,1388.3549,452.8196,1385.2065,457.5194,1393.26,451.85" style="stroke:#181818;stroke-width:1.0;"/><text fill="#000000" font-family="sans-serif" font-size="13" lengthAdjust="spacing" textLength="31" x="1196" y="494.4951">focus</text></g><!--link ImagingObservation to VolumeSurface--><g id="link_ImagingObservation_VolumeSurface"><path codeLine="93" d="M1065.63,732.92 C1074.67,680.19 1102.46,552.79 1170,472 C1226.4,404.54 1327.95,377.24 1395.68,366.27 " fill="none" id="ImagingObservation-to-VolumeSurface" style="stroke:#181818;stroke-width:1.0;"/><polygon fill="#181818" points="1400.9,365.44,1391.3897,362.8799,1395.9601,366.2132,1392.6268,370.7836,1400.9,365.44" style="stroke:#181818;stroke-width:1.0;"/><text fill="#000000" font-family="sans-serif" font-size="13" lengthAdjust="spacing" textLength="31" x="1196" y="407.4951">focus</text></g><!--link ImagingMeasurementGroup to ImagingMeasurement--><g id="link_ImagingMeasurementGroup_ImagingMeasurement"><path codeLine="95" d="M577.44,823.36 C624.64,818.48 680.01,812.75 725.2,808.08 " fill="none" id="ImagingMeasurementGroup-to-ImagingMeasurement" style="stroke:#181818;stroke-width:1.0;"/><polygon fill="#181818" points="730.38,807.54,721.0162,804.4873,725.4065,808.0545,721.8394,812.4449,730.38,807.54" style="stroke:#181818;stroke-width:1.0;"/><text fill="#000000" font-family="sans-serif" font-size="13" lengthAdjust="spacing" textLength="68" x="608" y="810.4951">hasMember</text></g><!--link ImagingMeasurementGroup to ImagingQualitativeEvaluation--><g id="link_ImagingMeasurementGroup_ImagingQualitativeEvaluation"><path codeLine="96" d="M543.41,809.98 C600.28,790.15 680.82,762.08 739.04,741.78 " fill="none" id="ImagingMeasurementGroup-to-ImagingQualitativeEvaluation" style="stroke:#181818;stroke-width:1.0;"/><polygon fill="#181818" points="743.9,740.09,734.0857,739.2652,739.1769,741.7309,736.7112,746.8221,743.9,740.09" style="stroke:#181818;stroke-width:1.0;"/><text fill="#000000" font-family="sans-serif" font-size="13" lengthAdjust="spacing" textLength="68" x="608" y="761.4951">hasMember</text></g><!--link DerivedImagingMeasurement to ImagingMeasurementGroup--><g id="link_DerivedImagingMeasurement_ImagingMeasurementGroup"><path codeLine="98" d="M153.61,1137.88 C180.43,1109.46 226.72,1061.05 268,1021 C328.04,962.75 400.87,897.35 441.41,861.39 " fill="none" id="DerivedImagingMeasurement-to-ImagingMeasurementGroup" style="stroke:#181818;stroke-width:1.0;"/><polygon fill="#181818" points="445.23,858.01,435.8402,860.9818,441.4867,861.3247,441.1438,866.9712,445.23,858.01" style="stroke:#181818;stroke-width:1.0;"/><text fill="#000000" font-family="sans-serif" font-size="13" lengthAdjust="spacing" textLength="70" x="269" y="955.4951">derivedFrom</text></g><!--SRC=[dLNBRjim4BphAuZSSwblHb2WRHB31yEfNQHdMbh9R2XHuSEeqURVkxGacnH5IwvkuixiSbz33hacMX39Yhqc6PEGQYQg94avLOgyKCsWqktVigG5gugjDjcnFTg2FB0KDl1kG7MuHx1ddGj9qQLr2h8zMkyKqkWfaEyPU1k_EVugikDMIvDg8o4X-2KrJTze0UHk0qeOcG8643dZe0YhYDupTBQu8tzEw3EukH6vloVh2aWDaeZB7Jgq_Pgu2y3BKlxqRbXTOlvjGZxeXKhDKbRJYFqBBuHaUbykCtJ1SfOs6Ll4HvFCe3ElO6SOtIbj3MxnWgfvEVUjJVRyICIK4YmvDpQYjQxpZM1zEth7jXTe_fITRT_wjbdMuss0yfz2ykoLSWChMWVs72HKAMHRA6pjn-od6pvBMaA0j1TOLbkiID_sofJ1_lwkEQqkNN7iWfiIjaRc7JVes3EhCbjUfi4v_O4zUiFZhkSWrK0FszQuU-1N5eqhe0gdtgQuaCBKLn6XyJlcnsnn3l1qm5Btepo2H5CsuEeZ6Hv_yl0N9wWTzM3uFMjaz3rC4Xdv1kGjGHBMgq6v1OoKhG4E53p4Zq47InebHGiSNZsvijEU_ykc1-iPU0qfxiRU19zDW0TxFONIM-N_e5osVmhP4OHnUA0H4oYkR8p34qT36hJ_u0s8oH3C7HyK-S_Tgpqdokn-OQm0u3xaSxAZ2h9r5Q3yjtrEicQYdwKe1rVISeQbmt9FInzX1MeoHeW8p0rnN86Ps-Sm5x94hOclxOJqhfFZMLxdZIKxEMeivrYvdF74AV5cBi8OcDWvoKLgL3H8e6GT8OPtPMmwTZQ63GHi5D-Jebln5-aQPJgwDO8DH6iCxofMlrN1M-feXsERaprLAoXtE4eJc8FFgEjZPA0Z8Nnz-WS0]--></g></svg>