<?xml version="1.0" encoding="UTF-8" standalone="no"?><svg xmlns="http://www.w3.org/2000/svg" xmlns:xlink="http://www.w3.org/1999/xlink" contentStyleType="text/css" height="891px" preserveAspectRatio="none" style="width:331px;height:891px;background:#FFFFFF;" version="1.1" viewBox="0 0 331 891" width="331px" zoomAndPan="magnify"><defs/><g><ellipse cx="165.5" cy="20" fill="#222222" rx="10" ry="10" style="stroke:#222222;stroke-width:1.0;"/><rect fill="#F1F1F1" height="35.0938" style="stroke:#181818;stroke-width:0.5;" width="241" x="45" y="50"/><line style="stroke:#181818;stroke-width:0.5;" x1="50" x2="50" y1="50" y2="85.0938"/><line style="stroke:#181818;stroke-width:0.5;" x1="281" x2="281" y1="50" y2="85.0938"/><text fill="#000000" font-family="sans-serif" font-size="12" lengthAdjust="spacing" textLength="221" x="55" y="72.457">Create Patient Reference from Patient IE</text><polygon fill="#F1F1F1" points="106.5,105.0938,224.5,105.0938,234.5,122.6406,224.5,140.1875,106.5,140.1875" style="stroke:#181818;stroke-width:0.5;"/><text fill="#000000" font-family="sans-serif" font-size="12" lengthAdjust="spacing" textLength="98" x="116.5" y="127.5508">Patient Reference</text><rect fill="#F1F1F1" height="35.0938" style="stroke:#181818;stroke-width:0.5;" width="270" x="30.5" y="160.1875"/><line style="stroke:#181818;stroke-width:0.5;" x1="35.5" x2="35.5" y1="160.1875" y2="195.2813"/><line style="stroke:#181818;stroke-width:0.5;" x1="295.5" x2="295.5" y1="160.1875" y2="195.2813"/><text fill="#000000" font-family="sans-serif" font-size="12" lengthAdjust="spacing" textLength="250" x="40.5" y="182.6445">Create ImagingStudy Reference from Study IE</text><polygon fill="#F1F1F1" points="88,215.2813,243,215.2813,253,232.8281,243,250.375,88,250.375" style="stroke:#181818;stroke-width:0.5;"/><text fill="#000000" font-family="sans-serif" font-size="12" lengthAdjust="spacing" textLength="135" x="98" y="237.7383">ImagingStudy Reference</text><rect fill="#F1F1F1" height="35.0938" style="stroke:#181818;stroke-width:0.5;" width="282" x="24.5" y="270.375"/><line style="stroke:#181818;stroke-width:0.5;" x1="29.5" x2="29.5" y1="270.375" y2="305.4688"/><line style="stroke:#181818;stroke-width:0.5;" x1="301.5" x2="301.5" y1="270.375" y2="305.4688"/><text fill="#000000" font-family="sans-serif" font-size="12" lengthAdjust="spacing" textLength="262" x="34.5" y="292.832">Create ServiceRequest Reference from Study IE</text><polygon fill="#F1F1F1" points="82,325.4688,249,325.4688,259,343.0156,249,360.5625,82,360.5625" style="stroke:#181818;stroke-width:0.5;"/><text fill="#000000" font-family="sans-serif" font-size="12" lengthAdjust="spacing" textLength="147" x="92" y="347.9258">ServiceRequest Reference</text><rect fill="#F1F1F1" height="35.0938" style="stroke:#181818;stroke-width:0.5;" width="309" x="11" y="380.5625"/><line style="stroke:#181818;stroke-width:0.5;" x1="16" x2="16" y1="380.5625" y2="415.6563"/><line style="stroke:#181818;stroke-width:0.5;" x1="315" x2="315" y1="380.5625" y2="415.6563"/><text fill="#000000" font-family="sans-serif" font-size="12" lengthAdjust="spacing" textLength="289" x="21" y="403.0195">Create EquipmentDevice from General Equipment IE</text><polygon fill="#F1F1F1" points="107,435.6563,224,435.6563,234,453.2031,224,470.75,107,470.75" style="stroke:#181818;stroke-width:0.5;"/><text fill="#000000" font-family="sans-serif" font-size="12" lengthAdjust="spacing" textLength="97" x="117" y="458.1133">EquipmentDevice</text><rect fill="#F1F1F1" height="35.0938" style="stroke:#181818;stroke-width:0.5;" width="235" x="48" y="490.75"/><line style="stroke:#181818;stroke-width:0.5;" x1="53" x2="53" y1="490.75" y2="525.8438"/><line style="stroke:#181818;stroke-width:0.5;" x1="278" x2="278" y1="490.75" y2="525.8438"/><text fill="#000000" font-family="sans-serif" font-size="12" lengthAdjust="spacing" textLength="215" x="58" y="513.207">Find Imaging Measurements Container</text><rect fill="#F1F1F1" height="35.0938" style="stroke:#181818;stroke-width:0.5;" width="257" x="37" y="545.8438"/><line style="stroke:#181818;stroke-width:0.5;" x1="42" x2="42" y1="545.8438" y2="580.9375"/><line style="stroke:#181818;stroke-width:0.5;" x1="289" x2="289" y1="545.8438" y2="580.9375"/><text fill="#000000" font-family="sans-serif" font-size="12" lengthAdjust="spacing" textLength="237" x="47" y="568.3008">Process Imaging Measurements Container</text><rect fill="none" height="249.9844" style="stroke:#000000;stroke-width:1.5;" width="185" x="78" y="590.9375"/><path d="M126,590.9375 L126,601.5469 L116,611.5469 L78,611.5469 " fill="none" style="stroke:#000000;stroke-width:1.5;"/><text fill="#000000" font-family="sans-serif" font-size="14" lengthAdjust="spacing" textLength="38" x="81" y="606.4707">Inputs</text><polygon fill="#F1F1F1" points="106.5,628.5469,234.5,628.5469,224.5,646.0938,234.5,663.6406,106.5,663.6406" style="stroke:#181818;stroke-width:0.5;"/><text fill="#000000" font-family="sans-serif" font-size="12" lengthAdjust="spacing" textLength="98" x="116.5" y="651.0039">Patient Reference</text><polygon fill="#F1F1F1" points="88,683.6406,253,683.6406,243,701.1875,253,718.7344,88,718.7344" style="stroke:#181818;stroke-width:0.5;"/><text fill="#000000" font-family="sans-serif" font-size="12" lengthAdjust="spacing" textLength="135" x="98" y="706.0977">ImagingStudy Reference</text><polygon fill="#F1F1F1" points="88,738.7344,253,738.7344,243,756.2813,253,773.8281,88,773.8281" style="stroke:#181818;stroke-width:0.5;"/><text fill="#000000" font-family="sans-serif" font-size="12" lengthAdjust="spacing" textLength="135" x="98" y="761.1914">ImagingStudy Reference</text><polygon fill="#F1F1F1" points="107,793.8281,234,793.8281,224,811.375,234,828.9219,107,828.9219" style="stroke:#181818;stroke-width:0.5;"/><text fill="#000000" font-family="sans-serif" font-size="12" lengthAdjust="spacing" textLength="97" x="117" y="816.2852">EquipmentDevice</text><ellipse cx="165.5" cy="870.9219" fill="none" rx="10" ry="10" style="stroke:#222222;stroke-width:1.5;"/><line style="stroke:#222222;stroke-width:2.5;" x1="159.3128" x2="171.6872" y1="864.7347" y2="877.1091"/><line style="stroke:#222222;stroke-width:2.5;" x1="171.6872" x2="159.3128" y1="864.7347" y2="877.1091"/><line style="stroke:#181818;stroke-width:1.0;" x1="165.5" x2="165.5" y1="30" y2="50"/><polygon fill="#181818" points="161.5,40,165.5,50,169.5,40,165.5,44" style="stroke:#181818;stroke-width:1.0;"/><line style="stroke:#181818;stroke-width:1.0;" x1="165.5" x2="165.5" y1="85.0938" y2="105.0938"/><polygon fill="#181818" points="161.5,95.0938,165.5,105.0938,169.5,95.0938,165.5,99.0938" style="stroke:#181818;stroke-width:1.0;"/><line style="stroke:#181818;stroke-width:1.0;" x1="165.5" x2="165.5" y1="140.1875" y2="160.1875"/><polygon fill="#181818" points="161.5,150.1875,165.5,160.1875,169.5,150.1875,165.5,154.1875" style="stroke:#181818;stroke-width:1.0;"/><line style="stroke:#181818;stroke-width:1.0;" x1="165.5" x2="165.5" y1="195.2813" y2="215.2813"/><polygon fill="#181818" points="161.5,205.2813,165.5,215.2813,169.5,205.2813,165.5,209.2813" style="stroke:#181818;stroke-width:1.0;"/><line style="stroke:#181818;stroke-width:1.0;" x1="165.5" x2="165.5" y1="250.375" y2="270.375"/><polygon fill="#181818" points="161.5,260.375,165.5,270.375,169.5,260.375,165.5,264.375" style="stroke:#181818;stroke-width:1.0;"/><line style="stroke:#181818;stroke-width:1.0;" x1="165.5" x2="165.5" y1="305.4688" y2="325.4688"/><polygon fill="#181818" points="161.5,315.4688,165.5,325.4688,169.5,315.4688,165.5,319.4688" style="stroke:#181818;stroke-width:1.0;"/><line style="stroke:#181818;stroke-width:1.0;" x1="165.5" x2="165.5" y1="360.5625" y2="380.5625"/><polygon fill="#181818" points="161.5,370.5625,165.5,380.5625,169.5,370.5625,165.5,374.5625" style="stroke:#181818;stroke-width:1.0;"/><line style="stroke:#181818;stroke-width:1.0;" x1="165.5" x2="165.5" y1="415.6563" y2="435.6563"/><polygon fill="#181818" points="161.5,425.6563,165.5,435.6563,169.5,425.6563,165.5,429.6563" style="stroke:#181818;stroke-width:1.0;"/><line style="stroke:#181818;stroke-width:1.0;" x1="165.5" x2="165.5" y1="470.75" y2="490.75"/><polygon fill="#181818" points="161.5,480.75,165.5,490.75,169.5,480.75,165.5,484.75" style="stroke:#181818;stroke-width:1.0;"/><line style="stroke:#181818;stroke-width:1.0;" x1="165.5" x2="165.5" y1="525.8438" y2="545.8438"/><polygon fill="#181818" points="161.5,535.8438,165.5,545.8438,169.5,535.8438,165.5,539.8438" style="stroke:#181818;stroke-width:1.0;"/><line style="stroke:#181818;stroke-width:1.0;" x1="165.5" x2="165.5" y1="663.6406" y2="683.6406"/><polygon fill="#181818" points="161.5,673.6406,165.5,683.6406,169.5,673.6406,165.5,677.6406" style="stroke:#181818;stroke-width:1.0;"/><line style="stroke:#181818;stroke-width:1.0;" x1="165.5" x2="165.5" y1="718.7344" y2="738.7344"/><polygon fill="#181818" points="161.5,728.7344,165.5,738.7344,169.5,728.7344,165.5,732.7344" style="stroke:#181818;stroke-width:1.0;"/><line style="stroke:#181818;stroke-width:1.0;" x1="165.5" x2="165.5" y1="773.8281" y2="793.8281"/><polygon fill="#181818" points="161.5,783.8281,165.5,793.8281,169.5,783.8281,165.5,787.8281" style="stroke:#181818;stroke-width:1.0;"/><line style="stroke:#181818;stroke-width:1.0;" x1="165.5" x2="165.5" y1="580.9375" y2="628.5469"/><polygon fill="#181818" points="161.5,618.5469,165.5,628.5469,169.5,618.5469,165.5,622.5469" style="stroke:#181818;stroke-width:1.0;"/><line style="stroke:#181818;stroke-width:1.0;" x1="165.5" x2="165.5" y1="828.9219" y2="860.9219"/><polygon fill="#181818" points="161.5,850.9219,165.5,860.9219,169.5,850.9219,165.5,854.9219" style="stroke:#181818;stroke-width:1.0;"/><!--MD5=[c6baadd80712ee3834ba1b06aee42704]
@startuml dicom_sr_workflow
start
:Create Patient Reference from Patient IE|
:Patient Reference>
:Create ImagingStudy Reference from Study IE|
:ImagingStudy Reference>
:Create ServiceRequest Reference from Study IE|
:ServiceRequest Reference>
:Create EquipmentDevice from General Equipment IE|
:EquipmentDevice>
:Find Imaging Measurements Container|
:Process Imaging Measurements Container|
partition "Inputs" {
    :Patient Reference<
    :ImagingStudy Reference<
    :ImagingStudy Reference<
    :EquipmentDevice<
}
end

@enduml

PlantUML version 1.2022.7(Mon Aug 22 13:01:30 EDT 2022)
(GPL source distribution)
Java Runtime: Java(TM) SE Runtime Environment
JVM: Java HotSpot(TM) 64-Bit Server VM
Default Encoding: Cp1252
Language: en
Country: US
--></g></svg>