<?xml version="1.0" encoding="UTF-8" standalone="no"?><svg xmlns="http://www.w3.org/2000/svg" xmlns:xlink="http://www.w3.org/1999/xlink" contentStyleType="text/css" height="446px" preserveAspectRatio="none" style="width:802px;height:446px;background:#FFFFFF;" version="1.1" viewBox="0 0 802 446" width="802px" zoomAndPan="magnify"><defs/><g><!--MD5=[45032d4f8b3ef2baec691c081c358e94]
cluster DICOM SR Measurement Report--><g id="cluster_DICOM SR Measurement Report"><path d="M8.5,66.5 L233.5,66.5 A3.75,3.75 0 0 1 236,69 L243,90.1094 L243.5,90.1094 A2.5,2.5 0 0 1 246,92.6094 L246,373 A2.5,2.5 0 0 1 243.5,375.5 L8.5,375.5 A2.5,2.5 0 0 1 6,373 L6,69 A2.5,2.5 0 0 1 8.5,66.5 " fill="none" style="stroke:#000000;stroke-width:1.5;"/><line style="stroke:#000000;stroke-width:1.5;" x1="6" x2="243" y1="90.1094" y2="90.1094"/><text fill="#000000" font-family="sans-serif" font-size="14" font-weight="bold" lengthAdjust="spacing" textLength="224" x="10" y="83.0332">DICOM SR Measurement Report</text></g><g id="elem_patientIE"><rect fill="#F1F1F1" height="37.6094" style="stroke:#181818;stroke-width:0.5;" width="74" x="89" y="102.5"/><text fill="#000000" font-family="sans-serif" font-size="14" lengthAdjust="spacing" textLength="60" x="96" y="119.0332">Patient IE</text><line style="stroke:#181818;stroke-width:0.5;" x1="90" x2="162" y1="124.1094" y2="124.1094"/></g><g id="elem_studyIE"><rect fill="#F1F1F1" height="37.6094" style="stroke:#181818;stroke-width:0.5;" width="66" x="93" y="175.5"/><text fill="#000000" font-family="sans-serif" font-size="14" lengthAdjust="spacing" textLength="52" x="100" y="192.0332">Study IE</text><line style="stroke:#181818;stroke-width:0.5;" x1="94" x2="158" y1="197.1094" y2="197.1094"/></g><g id="elem_equipmentIE"><rect fill="#F1F1F1" height="37.6094" style="stroke:#181818;stroke-width:0.5;" width="152" x="50" y="248.5"/><text fill="#000000" font-family="sans-serif" font-size="14" lengthAdjust="spacing" textLength="138" x="57" y="265.0332">General Equipment IE</text><line style="stroke:#181818;stroke-width:0.5;" x1="51" x2="201" y1="270.1094" y2="270.1094"/></g><g id="elem_documentIE"><rect fill="#F1F1F1" height="37.6094" style="stroke:#181818;stroke-width:0.5;" width="94" x="79" y="321.5"/><text fill="#000000" font-family="sans-serif" font-size="14" lengthAdjust="spacing" textLength="80" x="86" y="338.0332">Document IE</text><line style="stroke:#181818;stroke-width:0.5;" x1="80" x2="172" y1="343.1094" y2="343.1094"/></g><g id="elem_Patient"><rect fill="#F1F1F1" height="47.2188" style="stroke:#181818;stroke-width:0.5;" width="139" x="628.5" y="7"/><text fill="#000000" font-family="sans-serif" font-size="14" lengthAdjust="spacing" textLength="44" x="676" y="23.5332">Patient</text><line style="stroke:#181818;stroke-width:0.5;" x1="629.5" x2="766.5" y1="28.6094" y2="28.6094"/><text fill="#000000" font-family="sans-serif" font-size="14" lengthAdjust="spacing" textLength="127" x="634.5" y="47.1426">identifier = PatientID</text></g><g id="elem_ImagingStudy"><rect fill="#F1F1F1" height="47.2188" style="stroke:#181818;stroke-width:0.5;" width="193" x="601.5" y="89"/><text fill="#000000" font-family="sans-serif" font-size="14" lengthAdjust="spacing" textLength="85" x="655.5" y="105.5332">ImagingStudy</text><line style="stroke:#181818;stroke-width:0.5;" x1="602.5" x2="793.5" y1="110.6094" y2="110.6094"/><text fill="#000000" font-family="sans-serif" font-size="14" lengthAdjust="spacing" textLength="181" x="607.5" y="129.1426">identifier = StudyInstanceUID</text></g><g id="elem_ServiceRequest"><rect fill="#F1F1F1" height="47.2188" style="stroke:#181818;stroke-width:0.5;" width="195" x="600.5" y="171"/><text fill="#000000" font-family="sans-serif" font-size="14" lengthAdjust="spacing" textLength="100" x="648" y="187.5332">ServiceRequest</text><line style="stroke:#181818;stroke-width:0.5;" x1="601.5" x2="794.5" y1="192.6094" y2="192.6094"/><text fill="#000000" font-family="sans-serif" font-size="14" lengthAdjust="spacing" textLength="183" x="606.5" y="211.1426">identifier = AccessionNumber</text></g><g id="elem_EquipmentDevice"><rect fill="#F1F1F1" height="37.6094" style="stroke:#181818;stroke-width:0.5;" width="124" x="636" y="253.5"/><text fill="#000000" font-family="sans-serif" font-size="14" lengthAdjust="spacing" textLength="110" x="643" y="270.0332">EquipmentDevice</text><line style="stroke:#181818;stroke-width:0.5;" x1="637" x2="759" y1="275.1094" y2="275.1094"/></g><g id="elem_documentIEMapping"><rect fill="#F1F1F1" height="108.0469" style="stroke:#181818;stroke-width:0.5;" width="188" x="604" y="331"/><text fill="#000000" font-family="sans-serif" font-size="14" lengthAdjust="spacing" textLength="128" x="634" y="347.5332">documentIEMapping</text><line style="stroke:#181818;stroke-width:1.0;" x1="604" x2="792" y1="352.6094" y2="352.6094"/><text fill="#000000" font-family="sans-serif" font-size="14" lengthAdjust="spacing" textLength="45" x="615.5" y="369.1426">subject</text><text fill="#000000" font-family="sans-serif" font-size="14" lengthAdjust="spacing" textLength="44" x="677" y="369.1426">Patient</text><line style="stroke:#181818;stroke-width:1.0;" x1="672" x2="672" y1="352.6094" y2="374.2188"/><line style="stroke:#181818;stroke-width:1.0;" x1="604" x2="792" y1="374.2188" y2="374.2188"/><text fill="#000000" font-family="sans-serif" font-size="14" lengthAdjust="spacing" textLength="40" x="618" y="390.752">partOf</text><text fill="#000000" font-family="sans-serif" font-size="14" lengthAdjust="spacing" textLength="85" x="677" y="390.752">ImagingStudy</text><line style="stroke:#181818;stroke-width:1.0;" x1="672" x2="672" y1="374.2188" y2="395.8281"/><line style="stroke:#181818;stroke-width:1.0;" x1="604" x2="792" y1="395.8281" y2="395.8281"/><text fill="#000000" font-family="sans-serif" font-size="14" lengthAdjust="spacing" textLength="58" x="609" y="412.3613">basedOn</text><text fill="#000000" font-family="sans-serif" font-size="14" lengthAdjust="spacing" textLength="100" x="677" y="412.3613">ServiceRequest</text><line style="stroke:#181818;stroke-width:1.0;" x1="672" x2="672" y1="395.8281" y2="417.4375"/><line style="stroke:#181818;stroke-width:1.0;" x1="604" x2="792" y1="417.4375" y2="417.4375"/><text fill="#000000" font-family="sans-serif" font-size="14" lengthAdjust="spacing" textLength="41" x="617.5" y="433.9707">device</text><text fill="#000000" font-family="sans-serif" font-size="14" lengthAdjust="spacing" textLength="110" x="677" y="433.9707">EquipmentDevice</text><line style="stroke:#181818;stroke-width:1.0;" x1="672" x2="672" y1="417.4375" y2="439.0469"/></g><!--MD5=[3dacf1d4a6b82a3d4b96ea29fdb4d508]
link patientIE to Patient--><g id="link_patientIE_Patient"><path codeLine="26" d="M163.09,115.74 C255.05,101.06 499.64,62.01 623.27,42.27 " fill="none" id="patientIE-to-Patient" style="stroke:#181818;stroke-width:1.0;"/><polygon fill="#181818" points="628.34,41.46,618.8236,38.9225,623.402,42.2449,620.0796,46.8233,628.34,41.46" style="stroke:#181818;stroke-width:1.0;"/><text fill="#000000" font-family="sans-serif" font-size="13" lengthAdjust="spacing" textLength="235" x="296.5" y="48.9951">Create Patient Reference from Patient IE</text></g><!--MD5=[0fc7d1d63975274dc45ce608323d2097]
link studyIE to ImagingStudy--><g id="link_studyIE_ImagingStudy"><path codeLine="27" d="M159.09,187.74 C186.38,182.13 226.65,174.17 262,168.5 C376.07,150.19 507.73,133.91 596.06,123.69 " fill="none" id="studyIE-to-ImagingStudy" style="stroke:#181818;stroke-width:1.0;"/><polygon fill="#181818" points="601.29,123.09,591.8921,120.1439,596.3227,123.661,592.8056,128.0916,601.29,123.09" style="stroke:#181818;stroke-width:1.0;"/><text fill="#000000" font-family="sans-serif" font-size="13" lengthAdjust="spacing" textLength="228" x="300" y="124.9951">Create Patient Reference from Study IE</text></g><!--MD5=[d61793dc3e6723e4075b629638ded477]
link studyIE to ServiceRequest--><g id="link_studyIE_ServiceRequest"><path codeLine="28" d="M159.28,194.5 C241.94,194.5 463.96,194.5 595.43,194.5 " fill="none" id="studyIE-to-ServiceRequest" style="stroke:#181818;stroke-width:1.0;"/><polygon fill="#181818" points="600.46,194.5,591.46,190.5,595.46,194.5,591.46,198.5,600.46,194.5" style="stroke:#181818;stroke-width:1.0;"/><text fill="#000000" font-family="sans-serif" font-size="13" lengthAdjust="spacing" textLength="228" x="300" y="190.9951">Create Patient Reference from Study IE</text></g><!--MD5=[221210392bdb821a38c66b8b03c160a1]
link equipmentIE to EquipmentDevice--><g id="link_equipmentIE_EquipmentDevice"><path codeLine="29" d="M202.1,268.16 C314.29,269.14 523.85,270.98 630.69,271.92 " fill="none" id="equipmentIE-to-EquipmentDevice" style="stroke:#181818;stroke-width:1.0;"/><polygon fill="#181818" points="635.69,271.96,626.7246,267.883,630.6902,271.9171,626.656,275.8827,635.69,271.96" style="stroke:#181818;stroke-width:1.0;"/><text fill="#000000" font-family="sans-serif" font-size="13" lengthAdjust="spacing" textLength="302" x="263" y="265.9951">Create EquipmentDevice from General Equipment IE</text></g><!--MD5=[d793e95dc5f11331c41e077757dcb1a4]
link documentIE to documentIEMapping--><g id="link_documentIE_documentIEMapping"><path codeLine="31" d="M173.16,343.98 C263.48,350.8 465.63,366.05 590.73,375.48 " fill="none" id="documentIE-to-documentIEMapping" style="stroke:#181818;stroke-width:1.0;"/><polygon fill="#181818" points="595.89,375.87,587.2253,371.1877,590.9049,375.4843,586.6083,379.1639,595.89,375.87" style="stroke:#181818;stroke-width:1.0;"/><text fill="#000000" font-family="sans-serif" font-size="13" lengthAdjust="spacing" textLength="172" x="328" y="347.9951">Map contents of Document IE</text></g><!--MD5=[e74ff694b376beca01b4e135a51a9c89]
@startuml dicom_sr_measurement_reportmapping
left to right direction
package "DICOM SR Measurement Report" {
    object "Patient IE" as patientIE
    object "Study IE" as studyIE
    object "General Equipment IE" as equipmentIE
    object "Document IE" as documentIE
}
object Patient {
    identifier = PatientID
}
object ImagingStudy {
    identifier = StudyInstanceUID
}
object ServiceRequest {
    identifier = AccessionNumber
}
object EquipmentDevice

map documentIEMapping {
    subject => Patient
    partOf => ImagingStudy
    basedOn => ServiceRequest
    device => EquipmentDevice
}

patientIE - -> Patient: Create Patient Reference from Patient IE
studyIE - -> ImagingStudy: Create Patient Reference from Study IE
studyIE - -> ServiceRequest: Create Patient Reference from Study IE
equipmentIE - -> EquipmentDevice: Create EquipmentDevice from General Equipment IE

documentIE - -> documentIEMapping: Map contents of Document IE
@enduml

PlantUML version 1.2022.7(Mon Aug 22 13:01:30 EDT 2022)
(GPL source distribution)
Java Runtime: Java(TM) SE Runtime Environment
JVM: Java HotSpot(TM) 64-Bit Server VM
Default Encoding: Cp1252
Language: en
Country: US
--></g></svg>