<svg xmlns="http://www.w3.org/2000/svg" xmlns:xlink="http://www.w3.org/1999/xlink" contentStyleType="text/css" data-diagram-type="CLASS" height="965px" preserveAspectRatio="none" style="width:1225px;height:965px;background:#FFFFFF;" version="1.1" viewBox="0 0 1225 965" width="1225px" zoomAndPan="magnify"><defs/><g><!--cluster measurementReport--><g class="cluster" data-entity="measurementReport" data-source-line="4" data-uid="ent0002" id="cluster_measurementReport"><path d="M8.5,6.0137 L222.6445,6.0137 A3.75,3.75 0 0 1 225.1445,8.5137 L232.1445,30.6348 L530.5,30.6348 A2.5,2.5 0 0 1 533,33.1348 L533,955.5137 A2.5,2.5 0 0 1 530.5,958.0137 L8.5,958.0137 A2.5,2.5 0 0 1 6,955.5137 L6,8.5137 A2.5,2.5 0 0 1 8.5,6.0137" fill="none" style="stroke:#000000;stroke-width:1.5;"/><line style="stroke:#000000;stroke-width:1.5;" x1="6" x2="232.1445" y1="30.6348" y2="30.6348"/><text fill="#000000" font-family="sans-serif" font-size="14" font-weight="bold" lengthAdjust="spacing" textLength="213.1445" x="10" y="23.1211">DICOM SR Measurement Report</text></g><!--cluster documentIE--><g class="cluster" data-entity="documentIE" data-source-line="5" data-uid="ent0003" id="cluster_documentIE"><path d="M48.5,75.0137 L135.0654,75.0137 A3.75,3.75 0 0 1 137.5654,77.5137 L144.5654,99.6348 L490.5,99.6348 A2.5,2.5 0 0 1 493,102.1348 L493,915.5137 A2.5,2.5 0 0 1 490.5,918.0137 L48.5,918.0137 A2.5,2.5 0 0 1 46,915.5137 L46,77.5137 A2.5,2.5 0 0 1 48.5,75.0137" fill="none" style="stroke:#000000;stroke-width:1.5;"/><line style="stroke:#000000;stroke-width:1.5;" x1="46" x2="144.5654" y1="99.6348" y2="99.6348"/><text fill="#000000" font-family="sans-serif" font-size="14" font-weight="bold" lengthAdjust="spacing" textLength="85.5654" x="50" y="92.1211">Document IE</text></g><!--cluster srContentSequence--><g class="cluster" data-entity="srContentSequence" data-source-line="6" data-uid="ent0004" id="cluster_srContentSequence"><path d="M80.5,136.0137 L227.7412,136.0137 A3.75,3.75 0 0 1 230.2412,138.5137 L237.2412,160.6348 L458.5,160.6348 A2.5,2.5 0 0 1 461,163.1348 L461,883.5137 A2.5,2.5 0 0 1 458.5,886.0137 L80.5,886.0137 A2.5,2.5 0 0 1 78,883.5137 L78,138.5137 A2.5,2.5 0 0 1 80.5,136.0137" fill="none" style="stroke:#000000;stroke-width:1.5;"/><line style="stroke:#000000;stroke-width:1.5;" x1="78" x2="237.2412" y1="160.6348" y2="160.6348"/><text fill="#000000" font-family="sans-serif" font-size="14" font-weight="bold" lengthAdjust="spacing" textLength="146.2412" x="82" y="153.1211">SR Content Sequence</text></g><!--cluster imagingMeasurementsContainer--><g class="cluster" data-entity="imagingMeasurementsContainer" data-source-line="7" data-uid="ent0005" id="cluster_imagingMeasurementsContainer"><path d="M112.5,189.0137 L338.3271,189.0137 A3.75,3.75 0 0 1 340.8271,191.5137 L347.8271,213.6348 L426.5,213.6348 A2.5,2.5 0 0 1 429,216.1348 L429,497.5137 A2.5,2.5 0 0 1 426.5,500.0137 L112.5,500.0137 A2.5,2.5 0 0 1 110,497.5137 L110,191.5137 A2.5,2.5 0 0 1 112.5,189.0137" fill="none" style="stroke:#000000;stroke-width:1.5;"/><line style="stroke:#000000;stroke-width:1.5;" x1="110" x2="347.8271" y1="213.6348" y2="213.6348"/><text fill="#000000" font-family="sans-serif" font-size="14" font-weight="bold" lengthAdjust="spacing" textLength="224.8271" x="114" y="206.1211">Imaging Measurements Container</text></g><!--cluster measurementsGroup--><g class="cluster" data-entity="measurementsGroup" data-source-line="8" data-uid="ent0006" id="cluster_measurementsGroup"><path d="M152.5,258.0137 L322.3271,258.0137 A3.75,3.75 0 0 1 324.8271,260.5137 L331.8271,282.6348 L386.5,282.6348 A2.5,2.5 0 0 1 389,285.1348 L389,457.5137 A2.5,2.5 0 0 1 386.5,460.0137 L152.5,460.0137 A2.5,2.5 0 0 1 150,457.5137 L150,260.5137 A2.5,2.5 0 0 1 152.5,258.0137" fill="none" style="stroke:#000000;stroke-width:1.5;"/><line style="stroke:#000000;stroke-width:1.5;" x1="150" x2="331.8271" y1="282.6348" y2="282.6348"/><text fill="#000000" font-family="sans-serif" font-size="14" font-weight="bold" lengthAdjust="spacing" textLength="168.8271" x="154" y="275.1211">0..* Measurements Group</text></g><!--cluster derivedImagingMeasurementsContainer--><g class="cluster" data-entity="derivedImagingMeasurementsContainer" data-source-line="13" data-uid="ent0009" id="cluster_derivedImagingMeasurementsContainer"><path d="M115,532.0137 L396.0752,532.0137 A3.75,3.75 0 0 1 398.5752,534.5137 L405.5752,556.6348 L425,556.6348 A2.5,2.5 0 0 1 427.5,559.1348 L427.5,742.5137 A2.5,2.5 0 0 1 425,745.0137 L115,745.0137 A2.5,2.5 0 0 1 112.5,742.5137 L112.5,534.5137 A2.5,2.5 0 0 1 115,532.0137" fill="none" style="stroke:#000000;stroke-width:1.5;"/><line style="stroke:#000000;stroke-width:1.5;" x1="112.5" x2="405.5752" y1="556.6348" y2="556.6348"/><text fill="#000000" font-family="sans-serif" font-size="14" font-weight="bold" lengthAdjust="spacing" textLength="280.0752" x="116.5" y="549.1211">Derived Imaging Measurements Container</text></g><!--cluster derivedImagingMeasurements--><g class="cluster" data-entity="derivedImagingMeasurements" data-source-line="14" data-uid="ent0010" id="cluster_derivedImagingMeasurements"><path d="M147,585.0137 L383.751,585.0137 A3.75,3.75 0 0 1 386.251,587.5137 L393.251,609.6348 L393,609.6348 A2.5,2.5 0 0 1 395.5,612.1348 L395.5,710.5137 A2.5,2.5 0 0 1 393,713.0137 L147,713.0137 A2.5,2.5 0 0 1 144.5,710.5137 L144.5,587.5137 A2.5,2.5 0 0 1 147,585.0137" fill="none" style="stroke:#000000;stroke-width:1.5;"/><line style="stroke:#000000;stroke-width:1.5;" x1="144.5" x2="393.251" y1="609.6348" y2="609.6348"/><text fill="#000000" font-family="sans-serif" font-size="14" font-weight="bold" lengthAdjust="spacing" textLength="235.751" x="148.5" y="602.1211">0..* Derived Imaging Measurements</text></g><!--cluster qualitativeEvaluationsContainer--><g class="cluster" data-entity="qualitativeEvaluationsContainer" data-source-line="18" data-uid="ent0012" id="cluster_qualitativeEvaluationsContainer"><path d="M153,769.0137 L377.2754,769.0137 A3.75,3.75 0 0 1 379.7754,771.5137 L386.7754,793.6348 L387,793.6348 A2.5,2.5 0 0 1 389.5,796.1348 L389.5,859.5137 A2.5,2.5 0 0 1 387,862.0137 L153,862.0137 A2.5,2.5 0 0 1 150.5,859.5137 L150.5,771.5137 A2.5,2.5 0 0 1 153,769.0137" fill="none" style="stroke:#000000;stroke-width:1.5;"/><line style="stroke:#000000;stroke-width:1.5;" x1="150.5" x2="386.7754" y1="793.6348" y2="793.6348"/><text fill="#000000" font-family="sans-serif" font-size="14" font-weight="bold" lengthAdjust="spacing" textLength="223.2754" x="154.5" y="786.1211">Qualitative Evaluations Container</text></g><g class="entity" data-entity="numericalMeasurement" data-source-line="9" data-uid="ent0007" id="entity_numericalMeasurement"><rect fill="#F1F1F1" height="38.6211" rx="2.5" ry="2.5" style="stroke:#181818;stroke-width:0.5;" width="191.3994" x="174" y="322.5137"/><text fill="#000000" font-family="sans-serif" font-size="14" lengthAdjust="spacing" textLength="177.3994" x="181" y="339.6211">0..* Numerical Measurement</text><line style="stroke:#181818;stroke-width:0.5;" x1="175" x2="364.3994" y1="345.1348" y2="345.1348"/></g><g class="entity" data-entity="measurementGroupQualitativeEvaluation" data-source-line="10" data-uid="ent0008" id="entity_measurementGroupQualitativeEvaluation"><rect fill="#F1F1F1" height="38.6211" rx="2.5" ry="2.5" style="stroke:#181818;stroke-width:0.5;" width="174.3164" x="182.5" y="396.5137"/><text fill="#000000" font-family="sans-serif" font-size="14" lengthAdjust="spacing" textLength="160.3164" x="189.5" y="413.6211">0..* Qualitative Evaluation</text><line style="stroke:#181818;stroke-width:0.5;" x1="183.5" x2="355.8164" y1="419.1348" y2="419.1348"/></g><g class="entity" data-entity="derivedMeasurementsGroup" data-source-line="15" data-uid="ent0011" id="entity_derivedMeasurementsGroup"><rect fill="#F1F1F1" height="38.6211" rx="2.5" ry="2.5" style="stroke:#181818;stroke-width:0.5;" width="174.2959" x="182.5" y="630.5137"/><text fill="#000000" font-family="sans-serif" font-size="14" lengthAdjust="spacing" textLength="160.2959" x="189.5" y="647.6211">0..* Measurements Group</text><line style="stroke:#181818;stroke-width:0.5;" x1="183.5" x2="355.7959" y1="653.1348" y2="653.1348"/></g><g class="entity" data-entity="qualitativeEvaluation" data-source-line="19" data-uid="ent0013" id="entity_qualitativeEvaluation"><rect fill="#F1F1F1" height="38.6211" rx="2.5" ry="2.5" style="stroke:#181818;stroke-width:0.5;" width="174.3164" x="182.5" y="806.5137"/><text fill="#000000" font-family="sans-serif" font-size="14" lengthAdjust="spacing" textLength="160.3164" x="189.5" y="823.6211">0..* Qualitative Evaluation</text><line style="stroke:#181818;stroke-width:0.5;" x1="183.5" x2="355.8164" y1="829.1348" y2="829.1348"/></g><!--entity measurementReportInstanceMapping--><g class="entity" data-entity="measurementReportInstanceMapping" data-source-line="25" data-uid="ent0014" id="entity_measurementReportInstanceMapping"><rect fill="#F1F1F1" height="38.6211" rx="2.5" ry="2.5" style="stroke:#181818;stroke-width:0.5;" width="339.7988" x="880" y="13.5137"/><a href="mapping.html#dicom-sr-measurement-report-instance-mapping" target="_top" title="mapping.html#dicom-sr-measurement-report-instance-mapping" xlink:actuate="onRequest" xlink:href="mapping.html#dicom-sr-measurement-report-instance-mapping" xlink:show="new" xlink:title="mapping.html#dicom-sr-measurement-report-instance-mapping" xlink:type="simple"><text fill="#0000FF" font-family="sans-serif" font-size="14" lengthAdjust="spacing" text-decoration="underline" textLength="319.7988" x="890" y="38.6211">DICOM SR Measurement Report Instance Mapping</text></a></g><!--entity documentIEMapping--><g class="entity" data-entity="documentIEMapping" data-source-line="26" data-uid="ent0015" id="entity_documentIEMapping"><rect fill="#F1F1F1" height="38.6211" rx="2.5" ry="2.5" style="stroke:#181818;stroke-width:0.5;" width="158.5166" x="970.5" y="87.5137"/><a href="mapping.html#document-ie-mapping" target="_top" title="mapping.html#document-ie-mapping" xlink:actuate="onRequest" xlink:href="mapping.html#document-ie-mapping" xlink:show="new" xlink:title="mapping.html#document-ie-mapping" xlink:type="simple"><text fill="#0000FF" font-family="sans-serif" font-size="14" lengthAdjust="spacing" text-decoration="underline" textLength="138.5166" x="980.5" y="112.6211">Document IE Mapping</text></a></g><!--entity imagingMeasurementsContainerMapping--><g class="entity" data-entity="imagingMeasurementsContainerMapping" data-source-line="27" data-uid="ent0016" id="entity_imagingMeasurementsContainerMapping"><rect fill="#F1F1F1" height="38.6211" rx="2.5" ry="2.5" style="stroke:#181818;stroke-width:0.5;" width="288.4746" x="906" y="197.5137"/><a href="mapping.html#imaging-measurements-container-mapping" target="_top" title="mapping.html#imaging-measurements-container-mapping" xlink:actuate="onRequest" xlink:href="mapping.html#imaging-measurements-container-mapping" xlink:show="new" xlink:title="mapping.html#imaging-measurements-container-mapping" xlink:type="simple"><text fill="#0000FF" font-family="sans-serif" font-size="14" lengthAdjust="spacing" text-decoration="underline" textLength="268.4746" x="916" y="222.6211">Imaging Measurements Container Mapping</text></a></g><!--entity imagingMeasurementGroupMapping--><g class="entity" data-entity="imagingMeasurementGroupMapping" data-source-line="28" data-uid="ent0017" id="entity_imagingMeasurementGroupMapping"><rect fill="#F1F1F1" height="38.6211" rx="2.5" ry="2.5" style="stroke:#181818;stroke-width:0.5;" width="266.6816" x="916.5" y="271.5137"/><a href="mapping.html#imaging-measurement-group-mapping" target="_top" title="mapping.html#imaging-measurement-group-mapping" xlink:actuate="onRequest" xlink:href="mapping.html#imaging-measurement-group-mapping" xlink:show="new" xlink:title="mapping.html#imaging-measurement-group-mapping" xlink:type="simple"><text fill="#0000FF" font-family="sans-serif" font-size="14" lengthAdjust="spacing" text-decoration="underline" textLength="246.6816" x="926.5" y="296.6211">Imaging Measurements Group Mapping</text></a></g><!--entity imagingMeasurementMapping--><g class="entity" data-entity="imagingMeasurementMapping" data-source-line="29" data-uid="ent0018" id="entity_imagingMeasurementMapping"><rect fill="#F1F1F1" height="38.6211" rx="2.5" ry="2.5" style="stroke:#181818;stroke-width:0.5;" width="216.8818" x="941.5" y="345.5137"/><a href="mapping.html#imaging-measurement-mapping" target="_top" title="mapping.html#imaging-measurement-mapping" xlink:actuate="onRequest" xlink:href="mapping.html#imaging-measurement-mapping" xlink:show="new" xlink:title="mapping.html#imaging-measurement-mapping" xlink:type="simple"><text fill="#0000FF" font-family="sans-serif" font-size="14" lengthAdjust="spacing" text-decoration="underline" textLength="196.8818" x="951.5" y="370.6211">Imaging Measurement Mapping</text></a></g><!--entity qualitativeEvaluationMapping--><g class="entity" data-entity="qualitativeEvaluationMapping" data-source-line="30" data-uid="ent0019" id="entity_qualitativeEvaluationMapping"><rect fill="#F1F1F1" height="38.6211" rx="2.5" ry="2.5" style="stroke:#181818;stroke-width:0.5;" width="213.0059" x="943.5" y="771.5137"/><a href="mapping.html#imaging-qualitative-evaluation-mapping" target="_top" title="mapping.html#imaging-qualitative-evaluation-mapping" xlink:actuate="onRequest" xlink:href="mapping.html#imaging-qualitative-evaluation-mapping" xlink:show="new" xlink:title="mapping.html#imaging-qualitative-evaluation-mapping" xlink:type="simple"><text fill="#0000FF" font-family="sans-serif" font-size="14" lengthAdjust="spacing" text-decoration="underline" textLength="193.0059" x="953.5" y="796.6211">Qualitative Evaluation Mapping</text></a></g><!--entity derivedImagingMeasurementsMapping--><g class="entity" data-entity="derivedImagingMeasurementsMapping" data-source-line="31" data-uid="ent0020" id="entity_derivedImagingMeasurementsMapping"><rect fill="#F1F1F1" height="38.6211" rx="2.5" ry="2.5" style="stroke:#181818;stroke-width:0.5;" width="276.0127" x="912" y="685.5137"/><a href="mapping.html#derived-imaging-measurement-mapping" target="_top" title="mapping.html#derived-imaging-measurement-mapping" xlink:actuate="onRequest" xlink:href="mapping.html#derived-imaging-measurement-mapping" xlink:show="new" xlink:title="mapping.html#derived-imaging-measurement-mapping" xlink:type="simple"><text fill="#0000FF" font-family="sans-serif" font-size="14" lengthAdjust="spacing" text-decoration="underline" textLength="256.0127" x="922" y="710.6211">Derived Imaging Measurements Mapping</text></a></g><!--link measurementReport to measurementReportInstanceMapping--><g class="link" data-entity-1="measurementReport" data-entity-2="measurementReportInstanceMapping" data-source-line="33" data-uid="lnk21" id="link_measurementReport_measurementReportInstanceMapping"><path codeLine="33" d="M534.5021,34.338 C536.5032,34.3329 538.5092,34.3277 540.5199,34.3226 C556.6057,34.2813 572.9921,34.2393 589.5539,34.1969 C622.6774,34.112 656.5023,34.0252 690.0259,33.9393 C757.0731,33.7674 816.915,33.614 873.53,33.469" fill="none" id="measurementReport-to-measurementReportInstanceMapping" style="stroke:#181818;stroke-width:1;"/><polygon fill="#181818" points="879.53,33.4537,870.5198,29.4767,874.53,33.4665,870.5403,37.4767,879.53,33.4537" style="stroke:#181818;stroke-width:1;"/><text fill="#000000" font-family="sans-serif" font-size="13" lengthAdjust="spacing" textLength="270.9751" x="568.5" y="30.042">Map contents of Measurement Report Instance</text></g><!--link documentIE to documentIEMapping--><g class="link" data-entity-1="documentIE" data-entity-2="documentIEMapping" data-source-line="34" data-uid="lnk22" id="link_documentIE_documentIEMapping"><path codeLine="34" d="M496.0718,104.883 C513.816,104.9513 532.115,105.0218 550.7775,105.0937 C700.0775,105.6687 866.64,106.3104 964.49,106.6904" fill="none" id="documentIE-to-documentIEMapping" style="stroke:#181818;stroke-width:1;"/><polygon fill="#181818" points="970.49,106.7137,961.5056,102.6788,965.49,106.6943,961.4745,110.6787,970.49,106.7137" style="stroke:#181818;stroke-width:1;"/><text fill="#000000" font-family="sans-serif" font-size="13" lengthAdjust="spacing" textLength="171.2534" x="618" y="102.042">Map contents of Document IE</text></g><!--link imagingMeasurementsContainer to imagingMeasurementsContainerMapping--><g class="link" data-entity-1="imagingMeasurementsContainer" data-entity-2="imagingMeasurementsContainerMapping" data-source-line="35" data-uid="lnk23" id="link_imagingMeasurementsContainer_imagingMeasurementsContainerMapping"><path codeLine="35" d="M430.1627,217.8091 C431.0647,217.808 431.9693,217.8068 432.8765,217.8056 C434.6907,217.8033 436.5151,217.801 438.3493,217.7986 C445.6862,217.7891 453.1802,217.7795 460.8139,217.7697 C476.0812,217.75 491.9069,217.7296 508.15,217.7087 C638.095,217.5412 788.755,217.3465 899.95,217.2015" fill="none" id="imagingMeasurementsContainer-to-imagingMeasurementsContainerMapping" style="stroke:#181818;stroke-width:1;"/><polygon fill="#181818" points="905.95,217.1937,896.9448,213.2054,900.95,217.2002,896.9552,221.2054,905.95,217.1937" style="stroke:#181818;stroke-width:1;"/><text fill="#000000" font-family="sans-serif" font-size="13" lengthAdjust="spacing" textLength="291.9287" x="558" y="214.042">Map contents of Imaging Measurements Container</text></g><!--link measurementsGroup to imagingMeasurementGroupMapping--><g class="link" data-entity-1="measurementsGroup" data-entity-2="imagingMeasurementGroupMapping" data-source-line="36" data-uid="lnk24" id="link_measurementsGroup_imagingMeasurementGroupMapping"><path codeLine="36" d="M389.7101,287.6284 C393.0134,287.6454 396.3678,287.6627 399.7711,287.6802 C406.5776,287.7152 413.5794,287.7512 420.7582,287.7882 C449.4734,287.9359 481.0194,288.098 514.215,288.2687 C646.9975,288.9512 800.1751,289.7378 910.1601,290.3028" fill="none" id="measurementsGroup-to-imagingMeasurementGroupMapping" style="stroke:#181818;stroke-width:1;"/><polygon fill="#181818" points="916.16,290.3337,907.1807,286.2875,911.1601,290.308,907.1396,294.2874,916.16,290.3337" style="stroke:#181818;stroke-width:1;"/><text fill="#000000" font-family="sans-serif" font-size="13" lengthAdjust="spacing" textLength="221.8315" x="593" y="285.042">Map contents of Measurements Group</text></g><!--link numericalMeasurement to imagingMeasurementMapping--><g class="link" data-entity-1="numericalMeasurement" data-entity-2="imagingMeasurementMapping" data-source-line="37" data-uid="lnk25" id="link_numericalMeasurement_imagingMeasurementMapping"><path codeLine="37" d="M365.18,344.8137 C510.65,349.1137 782.3226,357.1364 935.2826,361.6564" fill="none" id="numericalMeasurement-to-imagingMeasurementMapping" style="stroke:#181818;stroke-width:1;"/><polygon fill="#181818" points="941.28,361.8337,932.4021,357.5696,936.2822,361.686,932.1658,365.5661,941.28,361.8337" style="stroke:#181818;stroke-width:1;"/><text fill="#000000" font-family="sans-serif" font-size="13" lengthAdjust="spacing" textLength="225.4497" x="591" y="347.042">Map contents of Imaging Measurement</text></g><!--link measurementGroupQualitativeEvaluation to qualitativeEvaluationMapping--><g class="link" data-entity-1="measurementGroupQualitativeEvaluation" data-entity-2="qualitativeEvaluationMapping" data-source-line="38" data-uid="lnk26" id="link_measurementGroupQualitativeEvaluation_qualitativeEvaluationMapping"><path codeLine="38" d="M356.66,400.2237 C483.97,382.3637 721.11,370.9737 850,503.0137 C924.78,579.6237 810.48,660.6037 880,742.0137 C896.27,761.0637 913.7123,771.1789 937.7123,778.5189" fill="none" id="measurementGroupQualitativeEvaluation-to-qualitativeEvaluationMapping" style="stroke:#181818;stroke-width:1;"/><polygon fill="#181818" points="943.45,780.2737,936.0134,773.8164,938.6686,778.8114,933.6737,781.4666,943.45,780.2737" style="stroke:#181818;stroke-width:1;"/><text fill="#000000" font-family="sans-serif" font-size="13" lengthAdjust="spacing" textLength="221.8506" x="593" y="388.042">Map contents of Qualitative Evaluation</text></g><!--link derivedImagingMeasurements to derivedImagingMeasurementsMapping--><g class="link" data-entity-1="derivedImagingMeasurements" data-entity-2="derivedImagingMeasurementsMapping" data-source-line="39" data-uid="lnk27" id="link_derivedImagingMeasurements_derivedImagingMeasurementsMapping"><path codeLine="39" d="M395.7678,705.0137 C396.6033,705.0137 397.4419,705.0137 398.2835,705.0137 C405.0164,705.0137 411.9434,705.0137 419.0465,705.0137 C447.4588,705.0137 478.6875,705.0137 511.575,705.0137 C643.125,705.0137 795.215,705.0137 905.75,705.0137" fill="none" id="derivedImagingMeasurements-to-derivedImagingMeasurementsMapping" style="stroke:#181818;stroke-width:1;"/><polygon fill="#181818" points="911.75,705.0137,902.75,701.0137,906.75,705.0137,902.75,709.0137,911.75,705.0137" style="stroke:#181818;stroke-width:1;"/><text fill="#000000" font-family="sans-serif" font-size="13" lengthAdjust="spacing" textLength="280.3569" x="563.5" y="701.042">Map contents of Derived Imaging Measurements</text></g><!--link derivedMeasurementsGroup to imagingMeasurementGroupMapping--><g class="link" data-entity-1="derivedMeasurementsGroup" data-entity-2="imagingMeasurementGroupMapping" data-source-line="40" data-uid="lnk28" id="link_derivedMeasurementsGroup_imagingMeasurementGroupMapping"><path codeLine="40" d="M356.65,659.1637 C484.21,667.4837 722.01,661.9837 850,526.0137 C911.01,461.2037 819.15,392.9637 880,328.0137 C890.16,317.1637 897.2137,311.5072 910.8437,305.6072" fill="none" id="derivedMeasurementsGroup-to-imagingMeasurementGroupMapping" style="stroke:#181818;stroke-width:1;"/><polygon fill="#181818" points="916.35,303.2237,906.5016,303.1281,911.7614,305.2099,909.6796,310.4698,916.35,303.2237" style="stroke:#181818;stroke-width:1;"/><text fill="#000000" font-family="sans-serif" font-size="13" lengthAdjust="spacing" textLength="221.8315" x="593" y="522.042">Map contents of Measurements Group</text></g><!--link qualitativeEvaluation to qualitativeEvaluationMapping--><g class="link" data-entity-1="qualitativeEvaluation" data-entity-2="qualitativeEvaluationMapping" data-source-line="41" data-uid="lnk29" id="link_qualitativeEvaluation_qualitativeEvaluationMapping"><path codeLine="41" d="M356.79,822.1337 C500.39,815.6737 781.9861,803.0232 937.4461,796.0332" fill="none" id="qualitativeEvaluation-to-qualitativeEvaluationMapping" style="stroke:#181818;stroke-width:1;"/><polygon fill="#181818" points="943.44,795.7637,934.2694,792.172,938.445,795.9883,934.6288,800.1639,943.44,795.7637" style="stroke:#181818;stroke-width:1;"/><text fill="#000000" font-family="sans-serif" font-size="13" lengthAdjust="spacing" textLength="221.8506" x="593" y="796.042">Map contents of Qualitative Evaluation</text></g><!--SRC=[jLLDSvim5BphLxnnRvcHf-SUUaaz7Gvkf_4nauCA2b424fQ4aqp7_xr229112Egsd6onsdsyZttgXV6AI592AifASChrGRyN52HDDU5vGH4f2l5QiZV6SrJGHmrQW6JvauQCDIWcEAf8-a9o2filoUttFHpkO4-9gYKj3I7SqKf8lG6Ye1oEsrFuXS0y0u58QtifsTaBcVkVx1po0cs4RWNN3Vv0ZpNbARMtb7J7tQbt-O8WAKbkFimFLrbAmZYLbekr41_H0qQq5zGVjzkRIzwlKjJLE0tAdWQ8caVyV3OPTbpVJ28aIqdXirewthtnNYpp_QX9mJJHx4HXTo95JPfQZkEpuNdG0JbHEAFvVqE1JQGdci6Ap6SjDFcR0iJa5aJMr6IclevqFoxpTIaB5sgShMEeHj5ChUs6usBrXy3RNsTqHgXt5DZStvUagan-jq-wB3vapBp3IcAlpx2qVe0PLyPuKehT3OXO2YGE3FiM_F0GTfaEvs2nq9pVOEP5C7ZII6XmfsLcvoF-DokSTkNfnU9pCTAFUTDL4U6yQTDuCArXBGLYKTV5455Vb5slw7KrfdrRz-BXUHZf1oTZHPErze1Z7n_roL4NpbfO5mgQxbsCFo_EoQT62D9sbIeGZx4PHDwgRiWdip5bymOBHTTimxUYrwSAyMb2qpqSLlAREPeKDnqej95dkFyaThHgCLkXM6jEjSBTZYBBqPPugV429O-qDPfRc_-gAiV_cwtV]--></g></svg>