<?xml version="1.0" encoding="UTF-8" standalone="no"?><svg xmlns="http://www.w3.org/2000/svg" xmlns:xlink="http://www.w3.org/1999/xlink" contentStyleType="text/css" height="851px" preserveAspectRatio="none" style="width:418px;height:851px;background:#FFFFFF;" version="1.1" viewBox="0 0 418 851" width="418px" zoomAndPan="magnify"><defs/><g><ellipse cx="209" cy="20" fill="#222222" rx="10" ry="10" style="stroke:#222222;stroke-width:1.0;"/><rect fill="#F1F1F1" height="35.0938" rx="12.5" ry="12.5" style="stroke:#181818;stroke-width:0.5;" width="241" x="88.5" y="50"/><text fill="#000000" font-family="sans-serif" font-size="12" lengthAdjust="spacing" textLength="221" x="98.5" y="72.457">Create Patient Reference from Patient IE</text><polygon fill="#F1F1F1" points="150,105.0938,268,105.0938,278,122.6406,268,140.1875,150,140.1875" style="stroke:#181818;stroke-width:0.5;"/><text fill="#000000" font-family="sans-serif" font-size="12" lengthAdjust="spacing" textLength="98" x="160" y="127.5508">Patient Reference</text><rect fill="#F1F1F1" height="35.0938" rx="12.5" ry="12.5" style="stroke:#181818;stroke-width:0.5;" width="270" x="74" y="160.1875"/><text fill="#000000" font-family="sans-serif" font-size="12" lengthAdjust="spacing" textLength="250" x="84" y="182.6445">Create ImagingStudy Reference from Study IE</text><polygon fill="#F1F1F1" points="131.5,215.2813,286.5,215.2813,296.5,232.8281,286.5,250.375,131.5,250.375" style="stroke:#181818;stroke-width:0.5;"/><text fill="#000000" font-family="sans-serif" font-size="12" lengthAdjust="spacing" textLength="135" x="141.5" y="237.7383">ImagingStudy Reference</text><rect fill="#F1F1F1" height="35.0938" rx="12.5" ry="12.5" style="stroke:#181818;stroke-width:0.5;" width="282" x="68" y="270.375"/><text fill="#000000" font-family="sans-serif" font-size="12" lengthAdjust="spacing" textLength="262" x="78" y="292.832">Create ServiceRequest Reference from Study IE</text><polygon fill="#F1F1F1" points="125.5,325.4688,292.5,325.4688,302.5,343.0156,292.5,360.5625,125.5,360.5625" style="stroke:#181818;stroke-width:0.5;"/><text fill="#000000" font-family="sans-serif" font-size="12" lengthAdjust="spacing" textLength="147" x="135.5" y="347.9258">ServiceRequest Reference</text><rect fill="#F1F1F1" height="35.0938" rx="12.5" ry="12.5" style="stroke:#181818;stroke-width:0.5;" width="309" x="54.5" y="380.5625"/><text fill="#000000" font-family="sans-serif" font-size="12" lengthAdjust="spacing" textLength="289" x="64.5" y="403.0195">Create EquipmentDevice from General Equipment IE</text><polygon fill="#F1F1F1" points="150.5,435.6563,267.5,435.6563,277.5,453.2031,267.5,470.75,150.5,470.75" style="stroke:#181818;stroke-width:0.5;"/><text fill="#000000" font-family="sans-serif" font-size="12" lengthAdjust="spacing" textLength="97" x="160.5" y="458.1133">EquipmentDevice</text><rect fill="#F1F1F1" height="50.1875" style="stroke:#181818;stroke-width:0.5;" width="396" x="11" y="490.75"/><text fill="#000000" font-family="sans-serif" font-size="12" lengthAdjust="spacing" textLength="376" x="21" y="513.207">Find Container with Concept DCM#126010 "Imaging Measurements"</text><text fill="#000000" font-family="sans-serif" font-size="12" lengthAdjust="spacing" textLength="240" x="21" y="528.3008">:Process Imaging Measurements Container</text><rect fill="none" height="249.9844" style="stroke:#000000;stroke-width:1.5;" width="185" x="121.5" y="550.9375"/><path d="M169.5,550.9375 L169.5,561.5469 L159.5,571.5469 L121.5,571.5469 " fill="none" style="stroke:#000000;stroke-width:1.5;"/><text fill="#000000" font-family="sans-serif" font-size="14" lengthAdjust="spacing" textLength="38" x="124.5" y="566.4707">Inputs</text><polygon fill="#F1F1F1" points="150,588.5469,278,588.5469,268,606.0938,278,623.6406,150,623.6406" style="stroke:#181818;stroke-width:0.5;"/><text fill="#000000" font-family="sans-serif" font-size="12" lengthAdjust="spacing" textLength="98" x="160" y="611.0039">Patient Reference</text><polygon fill="#F1F1F1" points="131.5,643.6406,296.5,643.6406,286.5,661.1875,296.5,678.7344,131.5,678.7344" style="stroke:#181818;stroke-width:0.5;"/><text fill="#000000" font-family="sans-serif" font-size="12" lengthAdjust="spacing" textLength="135" x="141.5" y="666.0977">ImagingStudy Reference</text><polygon fill="#F1F1F1" points="131.5,698.7344,296.5,698.7344,286.5,716.2813,296.5,733.8281,131.5,733.8281" style="stroke:#181818;stroke-width:0.5;"/><text fill="#000000" font-family="sans-serif" font-size="12" lengthAdjust="spacing" textLength="135" x="141.5" y="721.1914">ImagingStudy Reference</text><polygon fill="#F1F1F1" points="150.5,753.8281,277.5,753.8281,267.5,771.375,277.5,788.9219,150.5,788.9219" style="stroke:#181818;stroke-width:0.5;"/><text fill="#000000" font-family="sans-serif" font-size="12" lengthAdjust="spacing" textLength="97" x="160.5" y="776.2852">EquipmentDevice</text><ellipse cx="209" cy="830.9219" fill="none" rx="10" ry="10" style="stroke:#222222;stroke-width:1.5;"/><line style="stroke:#222222;stroke-width:2.5;" x1="202.8128" x2="215.1872" y1="824.7347" y2="837.1091"/><line style="stroke:#222222;stroke-width:2.5;" x1="215.1872" x2="202.8128" y1="824.7347" y2="837.1091"/><line style="stroke:#181818;stroke-width:1.0;" x1="209" x2="209" y1="30" y2="50"/><polygon fill="#181818" points="205,40,209,50,213,40,209,44" style="stroke:#181818;stroke-width:1.0;"/><line style="stroke:#181818;stroke-width:1.0;" x1="209" x2="209" y1="85.0938" y2="105.0938"/><polygon fill="#181818" points="205,95.0938,209,105.0938,213,95.0938,209,99.0938" style="stroke:#181818;stroke-width:1.0;"/><line style="stroke:#181818;stroke-width:1.0;" x1="209" x2="209" y1="140.1875" y2="160.1875"/><polygon fill="#181818" points="205,150.1875,209,160.1875,213,150.1875,209,154.1875" style="stroke:#181818;stroke-width:1.0;"/><line style="stroke:#181818;stroke-width:1.0;" x1="209" x2="209" y1="195.2813" y2="215.2813"/><polygon fill="#181818" points="205,205.2813,209,215.2813,213,205.2813,209,209.2813" style="stroke:#181818;stroke-width:1.0;"/><line style="stroke:#181818;stroke-width:1.0;" x1="209" x2="209" y1="250.375" y2="270.375"/><polygon fill="#181818" points="205,260.375,209,270.375,213,260.375,209,264.375" style="stroke:#181818;stroke-width:1.0;"/><line style="stroke:#181818;stroke-width:1.0;" x1="209" x2="209" y1="305.4688" y2="325.4688"/><polygon fill="#181818" points="205,315.4688,209,325.4688,213,315.4688,209,319.4688" style="stroke:#181818;stroke-width:1.0;"/><line style="stroke:#181818;stroke-width:1.0;" x1="209" x2="209" y1="360.5625" y2="380.5625"/><polygon fill="#181818" points="205,370.5625,209,380.5625,213,370.5625,209,374.5625" style="stroke:#181818;stroke-width:1.0;"/><line style="stroke:#181818;stroke-width:1.0;" x1="209" x2="209" y1="415.6563" y2="435.6563"/><polygon fill="#181818" points="205,425.6563,209,435.6563,213,425.6563,209,429.6563" style="stroke:#181818;stroke-width:1.0;"/><line style="stroke:#181818;stroke-width:1.0;" x1="209" x2="209" y1="470.75" y2="490.75"/><polygon fill="#181818" points="205,480.75,209,490.75,213,480.75,209,484.75" style="stroke:#181818;stroke-width:1.0;"/><line style="stroke:#181818;stroke-width:1.0;" x1="209" x2="209" y1="623.6406" y2="643.6406"/><polygon fill="#181818" points="205,633.6406,209,643.6406,213,633.6406,209,637.6406" style="stroke:#181818;stroke-width:1.0;"/><line style="stroke:#181818;stroke-width:1.0;" x1="209" x2="209" y1="678.7344" y2="698.7344"/><polygon fill="#181818" points="205,688.7344,209,698.7344,213,688.7344,209,692.7344" style="stroke:#181818;stroke-width:1.0;"/><line style="stroke:#181818;stroke-width:1.0;" x1="209" x2="209" y1="733.8281" y2="753.8281"/><polygon fill="#181818" points="205,743.8281,209,753.8281,213,743.8281,209,747.8281" style="stroke:#181818;stroke-width:1.0;"/><line style="stroke:#181818;stroke-width:1.0;" x1="209" x2="209" y1="540.9375" y2="588.5469"/><polygon fill="#181818" points="205,578.5469,209,588.5469,213,578.5469,209,582.5469" style="stroke:#181818;stroke-width:1.0;"/><line style="stroke:#181818;stroke-width:1.0;" x1="209" x2="209" y1="788.9219" y2="820.9219"/><polygon fill="#181818" points="205,810.9219,209,820.9219,213,810.9219,209,814.9219" style="stroke:#181818;stroke-width:1.0;"/><!--MD5=[44f59d217953810d0206e77835c9deb9]
@startuml dicom_sr_workflow
start
:Create Patient Reference from Patient IE;
:Patient Reference>
:Create ImagingStudy Reference from Study IE;
:ImagingStudy Reference>
:Create ServiceRequest Reference from Study IE;
:ServiceRequest Reference>
:Create EquipmentDevice from General Equipment IE;
:EquipmentDevice>
:Find Container with Concept DCM#126010 "Imaging Measurements"
:Process Imaging Measurements Container]
partition "Inputs" {
    :Patient Reference<
    :ImagingStudy Reference<
    :ImagingStudy Reference<
    :EquipmentDevice<
}
end

@enduml

PlantUML version 1.2022.7(Mon Aug 22 13:01:30 EDT 2022)
(GPL source distribution)
Java Runtime: Java(TM) SE Runtime Environment
JVM: Java HotSpot(TM) 64-Bit Server VM
Default Encoding: Cp1252
Language: en
Country: US
--></g></svg>