<?xml version="1.0" encoding="us-ascii" standalone="no"?><svg xmlns="http://www.w3.org/2000/svg" xmlns:xlink="http://www.w3.org/1999/xlink" contentStyleType="text/css" height="374px" preserveAspectRatio="none" style="width:1192px;height:374px;background:#FFFFFF;" version="1.1" viewBox="0 0 1192 374" width="1192px" zoomAndPan="magnify"><defs/><g><!--cluster Document IE--><g id="cluster_Document IE"><path d="M60.5,135 L149.5,135 A3.75,3.75 0 0 1 152,137.5 L159,158.6094 L361.5,158.6094 A2.5,2.5 0 0 1 364,161.1094 L364,364.5 A2.5,2.5 0 0 1 361.5,367 L60.5,367 A2.5,2.5 0 0 1 58,364.5 L58,137.5 A2.5,2.5 0 0 1 60.5,135 " fill="none" style="stroke:#000000;stroke-width:1.5;"/><line style="stroke:#000000;stroke-width:1.5;" x1="58" x2="159" y1="158.6094" y2="158.6094"/><text fill="#000000" font-family="sans-serif" font-size="14" font-weight="bold" lengthAdjust="spacing" textLength="88" x="62" y="151.5332">Document IE</text></g><!--cluster srContentSequence--><g id="cluster_srContentSequence"><path d="M84.5,253 L239.5,253 A3.75,3.75 0 0 1 242,255.5 L249,276.6094 L337.5,276.6094 A2.5,2.5 0 0 1 340,279.1094 L340,340.5 A2.5,2.5 0 0 1 337.5,343 L84.5,343 A2.5,2.5 0 0 1 82,340.5 L82,255.5 A2.5,2.5 0 0 1 84.5,253 " fill="none" style="stroke:#000000;stroke-width:1.5;"/><line style="stroke:#000000;stroke-width:1.5;" x1="82" x2="249" y1="276.6094" y2="276.6094"/><text fill="#000000" font-family="sans-serif" font-size="14" font-weight="bold" lengthAdjust="spacing" textLength="154" x="86" y="269.5332">SR Content Sequence</text></g><g id="elem_documentGeneralModule"><rect fill="#F1F1F1" height="64.8281" style="stroke:#181818;stroke-width:0.5;" width="173" x="124.5" y="171.5"/><text fill="#000000" font-family="sans-serif" font-size="14" lengthAdjust="spacing" textLength="159" x="131.5" y="188.0332">documentGeneralModule</text><line style="stroke:#181818;stroke-width:0.5;" x1="125.5" x2="296.5" y1="193.1094" y2="193.1094"/><text fill="#000000" font-family="sans-serif" font-size="14" lengthAdjust="spacing" textLength="98" x="130.5" y="211.6426">PreliminaryFlag</text><text fill="#000000" font-family="sans-serif" font-size="14" lengthAdjust="spacing" textLength="131" x="130.5" y="229.252">ParticipantSequence</text></g><g id="elem_imagingMeasurements"><rect fill="#F1F1F1" height="37.6094" style="stroke:#181818;stroke-width:0.5;" width="226" x="98" y="289"/><text fill="#000000" font-family="sans-serif" font-size="14" lengthAdjust="spacing" textLength="212" x="105" y="305.5332">Imaging Measurements Container</text><line style="stroke:#181818;stroke-width:0.5;" x1="99" x2="323" y1="310.6094" y2="310.6094"/></g><g id="elem_inputs"><rect fill="#F1F1F1" height="108.0469" style="stroke:#181818;stroke-width:0.5;" width="408" x="7" y="7"/><a href="mapping.html#sr_instance" target="_top" title="mapping.html#sr_instance" xlink:actuate="onRequest" xlink:href="mapping.html#sr_instance" xlink:show="new" xlink:title="mapping.html#sr_instance" xlink:type="simple"><text fill="#0000FF" font-family="sans-serif" font-size="14" lengthAdjust="spacing" text-decoration="underline" textLength="394" x="14" y="23.5332">Inputs from DICOM SR Measurement Report Instance Mapping</text></a><line style="stroke:#181818;stroke-width:1.0;" x1="7" x2="415" y1="28.6094" y2="28.6094"/><text fill="#000000" font-family="sans-serif" font-size="14" lengthAdjust="spacing" textLength="45" x="18.5" y="45.1426">subject</text><text fill="#000000" font-family="sans-serif" font-size="14" lengthAdjust="spacing" textLength="44" x="80" y="45.1426">Patient</text><line style="stroke:#181818;stroke-width:1.0;" x1="75" x2="75" y1="28.6094" y2="50.2188"/><line style="stroke:#181818;stroke-width:1.0;" x1="7" x2="415" y1="50.2188" y2="50.2188"/><text fill="#000000" font-family="sans-serif" font-size="14" lengthAdjust="spacing" textLength="40" x="21" y="66.752">partOf</text><text fill="#000000" font-family="sans-serif" font-size="14" lengthAdjust="spacing" textLength="85" x="80" y="66.752">ImagingStudy</text><line style="stroke:#181818;stroke-width:1.0;" x1="75" x2="75" y1="50.2188" y2="71.8281"/><line style="stroke:#181818;stroke-width:1.0;" x1="7" x2="415" y1="71.8281" y2="71.8281"/><text fill="#000000" font-family="sans-serif" font-size="14" lengthAdjust="spacing" textLength="58" x="12" y="88.3613">basedOn</text><text fill="#000000" font-family="sans-serif" font-size="14" lengthAdjust="spacing" textLength="100" x="80" y="88.3613">ServiceRequest</text><line style="stroke:#181818;stroke-width:1.0;" x1="75" x2="75" y1="71.8281" y2="93.4375"/><line style="stroke:#181818;stroke-width:1.0;" x1="7" x2="415" y1="93.4375" y2="93.4375"/><text fill="#000000" font-family="sans-serif" font-size="14" lengthAdjust="spacing" textLength="41" x="20.5" y="109.9707">device</text><text fill="#000000" font-family="sans-serif" font-size="14" lengthAdjust="spacing" textLength="110" x="80" y="109.9707">EquipmentDevice</text><line style="stroke:#181818;stroke-width:1.0;" x1="75" x2="75" y1="93.4375" y2="115.0469"/></g><g id="elem_imagingMeasurementsMapping"><rect fill="#F1F1F1" height="151.2656" style="stroke:#181818;stroke-width:0.5;" width="401" x="784" y="128.5"/><a href="mapping.html#imaging_measurements_container" target="_top" title="mapping.html#imaging_measurements_container" xlink:actuate="onRequest" xlink:href="mapping.html#imaging_measurements_container" xlink:show="new" xlink:title="mapping.html#imaging_measurements_container" xlink:type="simple"><text fill="#0000FF" font-family="sans-serif" font-size="14" lengthAdjust="spacing" text-decoration="underline" textLength="270" x="849.5" y="145.0332">Imaging Measurements Container Mapping</text></a><line style="stroke:#181818;stroke-width:1.0;" x1="784" x2="1185" y1="150.1094" y2="150.1094"/><text fill="#000000" font-family="sans-serif" font-size="14" lengthAdjust="spacing" textLength="45" x="797.5" y="166.6426">subject</text><text fill="#000000" font-family="sans-serif" font-size="14" lengthAdjust="spacing" textLength="44" x="861" y="166.6426">Patient</text><line style="stroke:#181818;stroke-width:1.0;" x1="856" x2="856" y1="150.1094" y2="171.7188"/><line style="stroke:#181818;stroke-width:1.0;" x1="784" x2="1185" y1="171.7188" y2="171.7188"/><text fill="#000000" font-family="sans-serif" font-size="14" lengthAdjust="spacing" textLength="40" x="800" y="188.252">partOf</text><text fill="#000000" font-family="sans-serif" font-size="14" lengthAdjust="spacing" textLength="85" x="861" y="188.252">ImagingStudy</text><line style="stroke:#181818;stroke-width:1.0;" x1="856" x2="856" y1="171.7188" y2="193.3281"/><line style="stroke:#181818;stroke-width:1.0;" x1="784" x2="1185" y1="193.3281" y2="193.3281"/><text fill="#000000" font-family="sans-serif" font-size="14" lengthAdjust="spacing" textLength="58" x="791" y="209.8613">basedOn</text><text fill="#000000" font-family="sans-serif" font-size="14" lengthAdjust="spacing" textLength="100" x="861" y="209.8613">ServiceRequest</text><line style="stroke:#181818;stroke-width:1.0;" x1="856" x2="856" y1="193.3281" y2="214.9375"/><line style="stroke:#181818;stroke-width:1.0;" x1="784" x2="1185" y1="214.9375" y2="214.9375"/><text fill="#000000" font-family="sans-serif" font-size="14" lengthAdjust="spacing" textLength="41" x="799.5" y="231.4707">device</text><text fill="#000000" font-family="sans-serif" font-size="14" lengthAdjust="spacing" textLength="319" x="861" y="231.4707">EquipmentDevice or ParticipantSequence (Device)</text><line style="stroke:#181818;stroke-width:1.0;" x1="856" x2="856" y1="214.9375" y2="236.5469"/><line style="stroke:#181818;stroke-width:1.0;" x1="784" x2="1185" y1="236.5469" y2="236.5469"/><text fill="#000000" font-family="sans-serif" font-size="14" lengthAdjust="spacing" textLength="62" x="789" y="253.0801">performer</text><text fill="#000000" font-family="sans-serif" font-size="14" lengthAdjust="spacing" textLength="190" x="861" y="253.0801">ParticipantSequence (Person)</text><line style="stroke:#181818;stroke-width:1.0;" x1="856" x2="856" y1="236.5469" y2="258.1563"/><line style="stroke:#181818;stroke-width:1.0;" x1="784" x2="1185" y1="258.1563" y2="258.1563"/><text fill="#000000" font-family="sans-serif" font-size="14" lengthAdjust="spacing" textLength="38" x="801" y="274.6895">status</text><text fill="#000000" font-family="sans-serif" font-size="14" lengthAdjust="spacing" textLength="98" x="861" y="274.6895">PreliminaryFlag</text><line style="stroke:#181818;stroke-width:1.0;" x1="856" x2="856" y1="258.1563" y2="279.7656"/></g><!--link imagingMeasurements to imagingMeasurementsMapping--><g id="link_imagingMeasurements_imagingMeasurementsMapping"><path codeLine="29" d="M324.05,296.52 C356.04,293.05 390.92,289.06 423,285 C538.1,270.41 666.18,252.07 770.82,236.52 " fill="none" id="imagingMeasurements-to-imagingMeasurementsMapping" style="stroke:#181818;stroke-width:1.0;"/><polygon fill="#181818" points="775.78,235.78,766.2929,233.1352,770.8334,236.5091,767.4595,241.0497,775.78,235.78" style="stroke:#181818;stroke-width:1.0;"/><text fill="#000000" font-family="sans-serif" font-size="13" lengthAdjust="spacing" textLength="291" x="454" y="237.4951">Map contents of Imaging Measurements Container</text></g><!--link inputs to imagingMeasurementsMapping--><g id="link_inputs_imagingMeasurementsMapping"><path codeLine="30" d="M423.07,100.12 C531.1,120.15 662.31,144.47 770.6,164.54 " fill="none" id="inputs-to-imagingMeasurementsMapping" style="stroke:#181818;stroke-width:1.0;"/><polygon fill="#181818" points="775.74,165.49,767.6078,159.9341,770.8218,164.5893,766.1667,167.8033,775.74,165.49" style="stroke:#181818;stroke-width:1.0;"/></g><!--link documentGeneralModule to imagingMeasurementsMapping--><g id="link_documentGeneralModule_imagingMeasurementsMapping"><path codeLine="31" d="M297.51,204 C410.84,204 614.65,204 770.76,204 " fill="none" id="documentGeneralModule-to-imagingMeasurementsMapping" style="stroke:#181818;stroke-width:1.0;"/><polygon fill="#181818" points="775.83,204,766.83,200,770.83,204,766.83,208,775.83,204" style="stroke:#181818;stroke-width:1.0;"/></g><!--SRC=[lLFBJiCm4BpdArRX0WVu02HwQGlA8MhL7AkgSfrDQaXirm-a2lNVyQiYAb6uuKkatPdTsTbDXuq18q2nzcYWPWgfOO9dMKyavDkj-qZ6swUZwRixhVQCQqCuHIYuj4P3eqGFYsA-Ag7QG8b4MuKzSWCRb48PXqk4CbRQxN8W6bYaVsNWdhQ7TzSNNcQm9eOvTWXBeiogyT6Y9wtZLiRMvv0w48trYljSXUgJKTpWoQAEn1fzn2UN9ykabxC8eUoIPPBG3z8Yv0j1RL1QBFCaH4GTTSgy8KT5kbBKjiC4yM-ji6CzuqITNplI_iITO4QP9DnKNeuRE-GkQPpKs1ar5zpurbTOy4Ih5Bv61osJiZmvCNHQXsg4EQtHsWWP8fAAo_XQ4s7V3nXxUgq9qorlz_gxUGByzwv1gB65m7rCFyIsg1gXUZT6q3E2NgFIWaUqksHZTO3UN81pTcHoU7oSJJZoxBq36dUkGJH_M9sbdsQwQZP-lTEaRm00]--></g></svg>