<?xml version="1.0" encoding="UTF-8" standalone="no"?><svg xmlns="http://www.w3.org/2000/svg" xmlns:xlink="http://www.w3.org/1999/xlink" contentStyleType="text/css" height="482px" preserveAspectRatio="none" style="width:935px;height:482px;background:#FFFFFF;" version="1.1" viewBox="0 0 935 482" width="935px" zoomAndPan="magnify"><defs/><g><!--MD5=[45032d4f8b3ef2baec691c081c358e94]
cluster DICOM SR Measurement Report--><g id="cluster_DICOM SR Measurement Report"><path d="M8.5,57.5 L233.5,57.5 A3.75,3.75 0 0 1 236,60 L243,81.1094 L357.5,81.1094 A2.5,2.5 0 0 1 360,83.6094 L360,473 A2.5,2.5 0 0 1 357.5,475.5 L8.5,475.5 A2.5,2.5 0 0 1 6,473 L6,60 A2.5,2.5 0 0 1 8.5,57.5 " fill="none" style="stroke:#000000;stroke-width:1.5;"/><line style="stroke:#000000;stroke-width:1.5;" x1="6" x2="243" y1="81.1094" y2="81.1094"/><text fill="#000000" font-family="sans-serif" font-size="14" font-weight="bold" lengthAdjust="spacing" textLength="224" x="10" y="74.0332">DICOM SR Measurement Report</text></g><!--MD5=[48464ec1e048da07a8f73c06b516feb6]
cluster Document IE--><g id="cluster_Document IE"><path d="M32.5,293.5 L121.5,293.5 A3.75,3.75 0 0 1 124,296 L131,317.1094 L333.5,317.1094 A2.5,2.5 0 0 1 336,319.6094 L336,449 A2.5,2.5 0 0 1 333.5,451.5 L32.5,451.5 A2.5,2.5 0 0 1 30,449 L30,296 A2.5,2.5 0 0 1 32.5,293.5 " fill="none" style="stroke:#000000;stroke-width:1.5;"/><line style="stroke:#000000;stroke-width:1.5;" x1="30" x2="131" y1="317.1094" y2="317.1094"/><text fill="#000000" font-family="sans-serif" font-size="14" font-weight="bold" lengthAdjust="spacing" textLength="88" x="34" y="310.0332">Document IE</text></g><!--MD5=[94ac58a734b8040d00703f4c36e8944a]
cluster srContentSequence--><g id="cluster_srContentSequence"><path d="M56.5,337.5 L211.5,337.5 A3.75,3.75 0 0 1 214,340 L221,361.1094 L309.5,361.1094 A2.5,2.5 0 0 1 312,363.6094 L312,425 A2.5,2.5 0 0 1 309.5,427.5 L56.5,427.5 A2.5,2.5 0 0 1 54,425 L54,340 A2.5,2.5 0 0 1 56.5,337.5 " fill="none" style="stroke:#000000;stroke-width:1.5;"/><line style="stroke:#000000;stroke-width:1.5;" x1="54" x2="221" y1="361.1094" y2="361.1094"/><text fill="#000000" font-family="sans-serif" font-size="14" font-weight="bold" lengthAdjust="spacing" textLength="154" x="58" y="354.0332">SR Content Sequence</text></g><g id="elem_patientIE"><rect fill="#F1F1F1" height="37.6094" style="stroke:#181818;stroke-width:0.5;" width="74" x="146" y="93.5"/><text fill="#000000" font-family="sans-serif" font-size="14" lengthAdjust="spacing" textLength="60" x="153" y="110.0332">Patient IE</text><line style="stroke:#181818;stroke-width:0.5;" x1="147" x2="219" y1="115.1094" y2="115.1094"/></g><g id="elem_studyIE"><rect fill="#F1F1F1" height="37.6094" style="stroke:#181818;stroke-width:0.5;" width="66" x="150" y="166.5"/><text fill="#000000" font-family="sans-serif" font-size="14" lengthAdjust="spacing" textLength="52" x="157" y="183.0332">Study IE</text><line style="stroke:#181818;stroke-width:0.5;" x1="151" x2="215" y1="188.1094" y2="188.1094"/></g><g id="elem_equipmentIE"><rect fill="#F1F1F1" height="37.6094" style="stroke:#181818;stroke-width:0.5;" width="152" x="107" y="239.5"/><text fill="#000000" font-family="sans-serif" font-size="14" lengthAdjust="spacing" textLength="138" x="114" y="256.0332">General Equipment IE</text><line style="stroke:#181818;stroke-width:0.5;" x1="108" x2="258" y1="261.1094" y2="261.1094"/></g><g id="elem_imagingMeasurements"><rect fill="#F1F1F1" height="37.6094" style="stroke:#181818;stroke-width:0.5;" width="226" x="70" y="373.5"/><text fill="#000000" font-family="sans-serif" font-size="14" lengthAdjust="spacing" textLength="212" x="77" y="390.0332">Imaging Measurements Container</text><line style="stroke:#181818;stroke-width:0.5;" x1="71" x2="295" y1="395.1094" y2="395.1094"/></g><g id="elem_Patient"><rect fill="#F1F1F1" height="47.2188" style="stroke:#181818;stroke-width:0.5;" width="139" x="753.5" y="7"/><text fill="#000000" font-family="sans-serif" font-size="14" lengthAdjust="spacing" textLength="44" x="801" y="23.5332">Patient</text><line style="stroke:#181818;stroke-width:0.5;" x1="754.5" x2="891.5" y1="28.6094" y2="28.6094"/><text fill="#000000" font-family="sans-serif" font-size="14" lengthAdjust="spacing" textLength="127" x="759.5" y="47.1426">identifier = PatientID</text></g><g id="elem_ImagingStudy"><rect fill="#F1F1F1" height="47.2188" style="stroke:#181818;stroke-width:0.5;" width="193" x="726.5" y="89"/><text fill="#000000" font-family="sans-serif" font-size="14" lengthAdjust="spacing" textLength="85" x="780.5" y="105.5332">ImagingStudy</text><line style="stroke:#181818;stroke-width:0.5;" x1="727.5" x2="918.5" y1="110.6094" y2="110.6094"/><text fill="#000000" font-family="sans-serif" font-size="14" lengthAdjust="spacing" textLength="181" x="732.5" y="129.1426">identifier = StudyInstanceUID</text></g><g id="elem_ServiceRequest"><rect fill="#F1F1F1" height="47.2188" style="stroke:#181818;stroke-width:0.5;" width="195" x="725.5" y="171"/><text fill="#000000" font-family="sans-serif" font-size="14" lengthAdjust="spacing" textLength="100" x="773" y="187.5332">ServiceRequest</text><line style="stroke:#181818;stroke-width:0.5;" x1="726.5" x2="919.5" y1="192.6094" y2="192.6094"/><text fill="#000000" font-family="sans-serif" font-size="14" lengthAdjust="spacing" textLength="183" x="731.5" y="211.1426">identifier = AccessionNumber</text></g><g id="elem_EquipmentDevice"><rect fill="#F1F1F1" height="37.6094" style="stroke:#181818;stroke-width:0.5;" width="124" x="761" y="253.5"/><text fill="#000000" font-family="sans-serif" font-size="14" lengthAdjust="spacing" textLength="110" x="768" y="270.0332">EquipmentDevice</text><line style="stroke:#181818;stroke-width:0.5;" x1="762" x2="884" y1="275.1094" y2="275.1094"/></g><g id="elem_imagingMeasurementsMapping"><rect fill="#F1F1F1" height="108.0469" style="stroke:#181818;stroke-width:0.5;" width="210" x="718" y="340"/><text fill="#000000" font-family="sans-serif" font-size="14" lengthAdjust="spacing" textLength="196" x="725" y="356.5332">imagingMeasurementsMapping</text><line style="stroke:#181818;stroke-width:1.0;" x1="718" x2="928" y1="361.6094" y2="361.6094"/><text fill="#000000" font-family="sans-serif" font-size="14" lengthAdjust="spacing" textLength="45" x="729.5" y="378.1426">subject</text><text fill="#000000" font-family="sans-serif" font-size="14" lengthAdjust="spacing" textLength="44" x="791" y="378.1426">Patient</text><line style="stroke:#181818;stroke-width:1.0;" x1="786" x2="786" y1="361.6094" y2="383.2188"/><line style="stroke:#181818;stroke-width:1.0;" x1="718" x2="928" y1="383.2188" y2="383.2188"/><text fill="#000000" font-family="sans-serif" font-size="14" lengthAdjust="spacing" textLength="40" x="732" y="399.752">partOf</text><text fill="#000000" font-family="sans-serif" font-size="14" lengthAdjust="spacing" textLength="85" x="791" y="399.752">ImagingStudy</text><line style="stroke:#181818;stroke-width:1.0;" x1="786" x2="786" y1="383.2188" y2="404.8281"/><line style="stroke:#181818;stroke-width:1.0;" x1="718" x2="928" y1="404.8281" y2="404.8281"/><text fill="#000000" font-family="sans-serif" font-size="14" lengthAdjust="spacing" textLength="58" x="723" y="421.3613">basedOn</text><text fill="#000000" font-family="sans-serif" font-size="14" lengthAdjust="spacing" textLength="100" x="791" y="421.3613">ServiceRequest</text><line style="stroke:#181818;stroke-width:1.0;" x1="786" x2="786" y1="404.8281" y2="426.4375"/><line style="stroke:#181818;stroke-width:1.0;" x1="718" x2="928" y1="426.4375" y2="426.4375"/><text fill="#000000" font-family="sans-serif" font-size="14" lengthAdjust="spacing" textLength="41" x="731.5" y="442.9707">device</text><text fill="#000000" font-family="sans-serif" font-size="14" lengthAdjust="spacing" textLength="110" x="791" y="442.9707">EquipmentDevice</text><line style="stroke:#181818;stroke-width:1.0;" x1="786" x2="786" y1="426.4375" y2="448.0469"/></g><!--MD5=[3dacf1d4a6b82a3d4b96ea29fdb4d508]
link patientIE to Patient--><g id="link_patientIE_Patient"><path codeLine="30" d="M220.13,107.86 C321.63,94.81 610.87,57.64 748.06,40 " fill="none" id="patientIE-to-Patient" style="stroke:#181818;stroke-width:1.0;"/><polygon fill="#181818" points="753.28,39.33,743.8493,36.4905,748.3195,39.9572,744.8528,44.4273,753.28,39.33" style="stroke:#181818;stroke-width:1.0;"/><text fill="#000000" font-family="sans-serif" font-size="13" lengthAdjust="spacing" textLength="235" x="410.5" y="46.9951">Create Patient Reference from Patient IE</text></g><!--MD5=[0fc7d1d63975274dc45ce608323d2097]
link studyIE to ImagingStudy--><g id="link_studyIE_ImagingStudy"><path codeLine="31" d="M216.26,181.56 C254.41,176.92 319.81,169.02 376,162.5 C494.5,148.76 630.78,133.57 721.2,123.58 " fill="none" id="studyIE-to-ImagingStudy" style="stroke:#181818;stroke-width:1.0;"/><polygon fill="#181818" points="726.27,123.02,716.8805,120.0472,721.3011,123.5769,717.7715,127.9975,726.27,123.02" style="stroke:#181818;stroke-width:1.0;"/><text fill="#000000" font-family="sans-serif" font-size="13" lengthAdjust="spacing" textLength="228" x="414" y="125.9951">Create Patient Reference from Study IE</text></g><!--MD5=[d61793dc3e6723e4075b629638ded477]
link studyIE to ServiceRequest--><g id="link_studyIE_ServiceRequest"><path codeLine="32" d="M216.08,185.95 C307.6,187.24 572.87,190.99 720.26,193.06 " fill="none" id="studyIE-to-ServiceRequest" style="stroke:#181818;stroke-width:1.0;"/><polygon fill="#181818" points="725.45,193.14,716.5081,189.0118,720.4505,193.0686,716.3938,197.011,725.45,193.14" style="stroke:#181818;stroke-width:1.0;"/><text fill="#000000" font-family="sans-serif" font-size="13" lengthAdjust="spacing" textLength="228" x="414" y="184.9951">Create Patient Reference from Study IE</text></g><!--MD5=[221210392bdb821a38c66b8b03c160a1]
link equipmentIE to EquipmentDevice--><g id="link_equipmentIE_EquipmentDevice"><path codeLine="33" d="M259.06,260.15 C384.83,262.91 636.09,268.42 755.72,271.05 " fill="none" id="equipmentIE-to-EquipmentDevice" style="stroke:#181818;stroke-width:1.0;"/><polygon fill="#181818" points="760.97,271.16,752.0638,266.9554,755.9713,271.0457,751.8809,274.9533,760.97,271.16" style="stroke:#181818;stroke-width:1.0;"/><text fill="#000000" font-family="sans-serif" font-size="13" lengthAdjust="spacing" textLength="302" x="377" y="259.9951">Create EquipmentDevice from General Equipment IE</text></g><!--MD5=[479d4e5dcf1e9b94f62fc88cb37458df]
link imagingMeasurements to imagingMeasurementsMapping--><g id="link_imagingMeasurements_imagingMeasurementsMapping"><path codeLine="35" d="M296.23,392.5 C410.91,392.5 588.23,392.5 704.71,392.5 " fill="none" id="imagingMeasurements-to-imagingMeasurementsMapping" style="stroke:#181818;stroke-width:1.0;"/><polygon fill="#181818" points="709.86,392.5,700.86,388.5,704.86,392.5,700.86,396.5,709.86,392.5" style="stroke:#181818;stroke-width:1.0;"/><text fill="#000000" font-family="sans-serif" font-size="13" lengthAdjust="spacing" textLength="291" x="382.5" y="388.9951">Map contents of Imaging Measurements Container</text></g><!--MD5=[a2bd4a1a193f22217121e541c3905c20]
@startuml dicom_sr_mapping
left to right direction
package "DICOM SR Measurement Report" {
    object "Patient IE" as patientIE
    object "Study IE" as studyIE
    object "General Equipment IE" as equipmentIE
    package "Document IE" {
        package "SR Content Sequence" as srContentSequence {
            object "Imaging Measurements Container" as imagingMeasurements
        }
    }
}
object Patient {
    identifier = PatientID
}
object ImagingStudy {
    identifier = StudyInstanceUID
}
object ServiceRequest {
    identifier = AccessionNumber
}
object EquipmentDevice

map imagingMeasurementsMapping {
    subject => Patient
    partOf => ImagingStudy
    basedOn => ServiceRequest
    device => EquipmentDevice
}

patientIE - -> Patient: Create Patient Reference from Patient IE
studyIE - -> ImagingStudy: Create Patient Reference from Study IE
studyIE - -> ServiceRequest: Create Patient Reference from Study IE
equipmentIE - -> EquipmentDevice: Create EquipmentDevice from General Equipment IE

imagingMeasurements - -> imagingMeasurementsMapping: Map contents of Imaging Measurements Container
@enduml

PlantUML version 1.2022.7(Mon Aug 22 13:01:30 EDT 2022)
(GPL source distribution)
Java Runtime: Java(TM) SE Runtime Environment
JVM: Java HotSpot(TM) 64-Bit Server VM
Default Encoding: Cp1252
Language: en
Country: US
--></g></svg>