<svg xmlns="http://www.w3.org/2000/svg" xmlns:xlink="http://www.w3.org/1999/xlink" contentStyleType="text/css" data-diagram-type="CLASS" height="487px" preserveAspectRatio="none" style="width:869px;height:487px;background:#FFFFFF;" version="1.1" viewBox="0 0 869 487" width="869px" zoomAndPan="magnify"><defs/><g><!--cluster DICOM SR Measurement Report--><g class="cluster" data-entity="DICOM SR Measurement Report" data-source-line="2" data-uid="ent0002" id="cluster_DICOM SR Measurement Report"><path d="M8.5,68.5 L222.6445,68.5 A3.75,3.75 0 0 1 225.1445,71 L232.1445,93.1211 L232.5,93.1211 A2.5,2.5 0 0 1 235,95.6211 L235,381 A2.5,2.5 0 0 1 232.5,383.5 L8.5,383.5 A2.5,2.5 0 0 1 6,381 L6,71 A2.5,2.5 0 0 1 8.5,68.5" fill="none" style="stroke:#000000;stroke-width:1.5;"/><line style="stroke:#000000;stroke-width:1.5;" x1="6" x2="232.1445" y1="93.1211" y2="93.1211"/><text fill="#000000" font-family="sans-serif" font-size="14" font-weight="bold" lengthAdjust="spacing" textLength="213.1445" x="10" y="85.6074">DICOM SR Measurement Report</text></g><g class="entity" data-entity="patientIE" data-source-line="3" data-uid="ent0003" id="entity_patientIE"><rect fill="#F1F1F1" height="38.6211" rx="2.5" ry="2.5" style="stroke:#181818;stroke-width:0.5;" width="74.7031" x="82.5" y="106"/><text fill="#000000" font-family="sans-serif" font-size="14" lengthAdjust="spacing" textLength="60.7031" x="89.5" y="123.1074">Patient IE</text><line style="stroke:#181818;stroke-width:0.5;" x1="83.5" x2="156.2031" y1="128.6211" y2="128.6211"/></g><g class="entity" data-entity="studyIE" data-source-line="4" data-uid="ent0004" id="entity_studyIE"><rect fill="#F1F1F1" height="38.6211" rx="2.5" ry="2.5" style="stroke:#181818;stroke-width:0.5;" width="66.917" x="86.5" y="180"/><text fill="#000000" font-family="sans-serif" font-size="14" lengthAdjust="spacing" textLength="52.917" x="93.5" y="197.1074">Study IE</text><line style="stroke:#181818;stroke-width:0.5;" x1="87.5" x2="152.417" y1="202.6211" y2="202.6211"/></g><g class="entity" data-entity="equipmentIE" data-source-line="5" data-uid="ent0005" id="entity_equipmentIE"><rect fill="#F1F1F1" height="38.6211" rx="2.5" ry="2.5" style="stroke:#181818;stroke-width:0.5;" width="151.7441" x="44" y="254"/><text fill="#000000" font-family="sans-serif" font-size="14" lengthAdjust="spacing" textLength="137.7441" x="51" y="271.1074">General Equipment IE</text><line style="stroke:#181818;stroke-width:0.5;" x1="45" x2="194.7441" y1="276.6211" y2="276.6211"/></g><g class="entity" data-entity="documentIE" data-source-line="6" data-uid="ent0006" id="entity_documentIE"><rect fill="#F1F1F1" height="38.6211" rx="2.5" ry="2.5" style="stroke:#181818;stroke-width:0.5;" width="94.9238" x="72.5" y="328"/><text fill="#000000" font-family="sans-serif" font-size="14" lengthAdjust="spacing" textLength="80.9238" x="79.5" y="345.1074">Document IE</text><line style="stroke:#181818;stroke-width:0.5;" x1="73.5" x2="166.4238" y1="350.6211" y2="350.6211"/></g><g class="entity" data-entity="Patient" data-source-line="8" data-uid="ent0007" id="entity_Patient"><rect fill="#F1F1F1" height="49.2422" rx="2.5" ry="2.5" style="stroke:#181818;stroke-width:0.5;" width="138.458" x="656.5" y="7"/><text fill="#000000" font-family="sans-serif" font-size="14" lengthAdjust="spacing" textLength="43.5859" x="703.936" y="24.1074">Patient</text><line style="stroke:#181818;stroke-width:0.5;" x1="657.5" x2="793.958" y1="29.6211" y2="29.6211"/><text fill="#000000" font-family="sans-serif" font-size="14" lengthAdjust="spacing" textLength="126.458" x="662.5" y="48.7285">identifier = PatientID</text></g><g class="entity" data-entity="ImagingStudy" data-source-line="11" data-uid="ent0008" id="entity_ImagingStudy"><rect fill="#F1F1F1" height="49.2422" rx="2.5" ry="2.5" style="stroke:#181818;stroke-width:0.5;" width="193.7061" x="628.5" y="91"/><text fill="#000000" font-family="sans-serif" font-size="14" lengthAdjust="spacing" textLength="85.6064" x="682.5498" y="108.1074">ImagingStudy</text><line style="stroke:#181818;stroke-width:0.5;" x1="629.5" x2="821.2061" y1="113.6211" y2="113.6211"/><text fill="#000000" font-family="sans-serif" font-size="14" lengthAdjust="spacing" textLength="181.7061" x="634.5" y="132.7285">identifier = StudyInstanceUID</text></g><g class="entity" data-entity="ServiceRequest" data-source-line="14" data-uid="ent0009" id="entity_ServiceRequest"><rect fill="#F1F1F1" height="49.2422" rx="2.5" ry="2.5" style="stroke:#181818;stroke-width:0.5;" width="194.4717" x="628.5" y="175"/><text fill="#000000" font-family="sans-serif" font-size="14" lengthAdjust="spacing" textLength="98.8271" x="676.3223" y="192.1074">ServiceRequest</text><line style="stroke:#181818;stroke-width:0.5;" x1="629.5" x2="821.9717" y1="197.6211" y2="197.6211"/><text fill="#000000" font-family="sans-serif" font-size="14" lengthAdjust="spacing" textLength="182.4717" x="634.5" y="216.7285">identifier = AccessionNumber</text></g><g class="entity" data-entity="equipmentDevice" data-source-line="17" data-uid="ent0010" id="entity_equipmentDevice"><rect fill="#F1F1F1" height="67.8633" rx="2.5" ry="2.5" style="stroke:#181818;stroke-width:0.5;" width="274.6162" x="588" y="259.5"/><text fill="#000000" font-family="sans-serif" font-size="14" lengthAdjust="spacing" textLength="164.958" x="642.8291" y="276.6074">Device - EquipmentDevice</text><line style="stroke:#181818;stroke-width:0.5;" x1="589" x2="861.6162" y1="282.1211" y2="282.1211"/><text fill="#000000" font-family="sans-serif" font-size="14" lengthAdjust="spacing" textLength="139.665" x="594" y="301.2285">identifier = Device UID</text><text fill="#000000" font-family="sans-serif" font-size="14" lengthAdjust="spacing" textLength="262.6162" x="594" y="319.8496">displayName = Manufacturer Model Name</text></g><g class="entity" data-entity="documentIEMapping" data-source-line="22" data-uid="ent0011" id="entity_documentIEMapping"><rect fill="#F1F1F1" height="113.1055" rx="2.5" ry="2.5" style="stroke:#181818;stroke-width:0.5;" width="186.5439" x="632.5" y="367"/><a href="mapping.html#document-ie-mapping" target="_top" title="mapping.html#document-ie-mapping" xlink:actuate="onRequest" xlink:href="mapping.html#document-ie-mapping" xlink:show="new" xlink:title="mapping.html#document-ie-mapping" xlink:type="simple"><text fill="#0000FF" font-family="sans-serif" font-size="14" lengthAdjust="spacing" text-decoration="underline" textLength="138.5166" x="656.5137" y="384.1074">Document IE Mapping</text></a><line style="stroke:#181818;stroke-width:1;" x1="632.5" x2="819.0439" y1="389.6211" y2="389.6211"/><text fill="#000000" font-family="sans-serif" font-size="14" lengthAdjust="spacing" textLength="44.3584" x="643.731" y="406.7285">subject</text><text fill="#000000" font-family="sans-serif" font-size="14" lengthAdjust="spacing" textLength="43.5859" x="704.3203" y="406.7285">Patient</text><line style="stroke:#181818;stroke-width:1;" x1="699.3203" x2="699.3203" y1="389.6211" y2="412.2422"/><line style="stroke:#181818;stroke-width:1;" x1="632.5" x2="819.0439" y1="412.2422" y2="412.2422"/><text fill="#000000" font-family="sans-serif" font-size="14" lengthAdjust="spacing" textLength="38.9033" x="646.4585" y="429.3496">partOf</text><text fill="#000000" font-family="sans-serif" font-size="14" lengthAdjust="spacing" textLength="85.6064" x="704.3203" y="429.3496">ImagingStudy</text><line style="stroke:#181818;stroke-width:1;" x1="699.3203" x2="699.3203" y1="412.2422" y2="434.8633"/><line style="stroke:#181818;stroke-width:1;" x1="632.5" x2="819.0439" y1="434.8633" y2="434.8633"/><text fill="#000000" font-family="sans-serif" font-size="14" lengthAdjust="spacing" textLength="56.8203" x="637.5" y="451.9707">basedOn</text><text fill="#000000" font-family="sans-serif" font-size="14" lengthAdjust="spacing" textLength="98.8271" x="704.3203" y="451.9707">ServiceRequest</text><line style="stroke:#181818;stroke-width:1;" x1="699.3203" x2="699.3203" y1="434.8633" y2="457.4844"/><line style="stroke:#181818;stroke-width:1;" x1="632.5" x2="819.0439" y1="457.4844" y2="457.4844"/><text fill="#000000" font-family="sans-serif" font-size="14" lengthAdjust="spacing" textLength="40.4688" x="645.6758" y="474.5918">device</text><text fill="#000000" font-family="sans-serif" font-size="14" lengthAdjust="spacing" textLength="109.7236" x="704.3203" y="474.5918">EquipmentDevice</text><line style="stroke:#181818;stroke-width:1;" x1="699.3203" x2="699.3203" y1="457.4844" y2="480.1055"/></g><!--link patientIE to Patient--><g class="link" data-entity-1="patientIE" data-entity-2="Patient" data-source-line="29" data-uid="lnk12" id="link_patientIE_Patient"><path codeLine="29" d="M157.84,119.76 C256.63,104.38 522.6115,62.9433 650.4515,43.0333" fill="none" id="patientIE-to-Patient" style="stroke:#181818;stroke-width:1;"/><polygon fill="#181818" points="656.38,42.11,646.8717,39.5426,651.4396,42.8794,648.1027,47.4473,656.38,42.11" style="stroke:#181818;stroke-width:1;"/><text fill="#000000" font-family="sans-serif" font-size="13" lengthAdjust="spacing" textLength="236.2852" x="286.5" y="54.5283">Create Patient Reference from Patient IE</text></g><!--link studyIE to ImagingStudy--><g class="link" data-entity-1="studyIE" data-entity-2="ImagingStudy" data-source-line="30" data-uid="lnk13" id="link_studyIE_ImagingStudy"><path codeLine="30" d="M153.71,191.9 C179.92,186.01 217.67,177.96 251,172.5 C381.12,151.19 526.6205,134.9439 622.5105,125.2439" fill="none" id="studyIE-to-ImagingStudy" style="stroke:#181818;stroke-width:1;"/><polygon fill="#181818" points="628.48,124.64,619.1231,121.5661,623.5054,125.1432,619.9283,129.5255,628.48,124.64" style="stroke:#181818;stroke-width:1;"/><text fill="#000000" font-family="sans-serif" font-size="13" lengthAdjust="spacing" textLength="268.0742" x="270.5" y="128.5283">Create ImagingStudy Reference from Study IE</text></g><!--link studyIE to ServiceRequest--><g class="link" data-entity-1="studyIE" data-entity-2="ServiceRequest" data-source-line="31" data-uid="lnk14" id="link_studyIE_ServiceRequest"><path codeLine="31" d="M153.88,199.5 C242.73,199.5 484.27,199.5 622.34,199.5" fill="none" id="studyIE-to-ServiceRequest" style="stroke:#181818;stroke-width:1;"/><polygon fill="#181818" points="628.34,199.5,619.34,195.5,623.34,199.5,619.34,203.5,628.34,199.5" style="stroke:#181818;stroke-width:1;"/><text fill="#000000" font-family="sans-serif" font-size="13" lengthAdjust="spacing" textLength="280.3506" x="264.5" y="195.5283">Create ServiceRequest Reference from Study IE</text></g><!--link equipmentIE to equipmentDevice--><g class="link" data-entity-1="equipmentIE" data-entity-2="equipmentDevice" data-source-line="32" data-uid="lnk15" id="link_equipmentIE_equipmentDevice"><path codeLine="32" d="M196.21,275.99 C294.01,279.23 460.6133,284.7512 581.8533,288.7712" fill="none" id="equipmentIE-to-equipmentDevice" style="stroke:#181818;stroke-width:1;"/><polygon fill="#181818" points="587.85,288.97,578.9875,284.6739,582.8527,288.8043,578.7224,292.6696,587.85,288.97" style="stroke:#181818;stroke-width:1;"/><text fill="#000000" font-family="sans-serif" font-size="13" lengthAdjust="spacing" textLength="305.646" x="252" y="274.5283">Create EquipmentDevice from General Equipment IE</text></g><!--link documentIE to documentIEMapping--><g class="link" data-entity-1="documentIE" data-entity-2="documentIEMapping" data-source-line="34" data-uid="lnk16" id="link_documentIE_documentIEMapping"><path codeLine="34" d="M167.85,353.4 C265.41,365.69 486.257,393.5006 618.287,410.1206" fill="none" id="documentIE-to-documentIEMapping" style="stroke:#181818;stroke-width:1;"/><polygon fill="#181818" points="624.24,410.87,615.81,405.7773,619.2792,410.2455,614.8109,413.7146,624.24,410.87" style="stroke:#181818;stroke-width:1;"/><text fill="#000000" font-family="sans-serif" font-size="13" lengthAdjust="spacing" textLength="171.2534" x="319" y="360.5283">Map contents of Document IE</text></g><!--SRC=[TLFBReCm4Bpp5IjwfXyGAPMg45KSI2gYdg8S7BCGjzYcjgaKLVttshnnAHVmpkvuTtQei31W92XMtWpaJ24rJ8gW9lI3b0XXdEoEAPmoI97eHY57OI33MYeJmdS0zf7NTri5uIinpA79FWIYeUwEoNwHT39DVXzIj3ju2IyeK94AzfyDg_cC3uU0Ln1Bsippylviqtw2FcbehMkOvVQR5GmLR0SeYQViX9EIYR9hTQMa1HAX3H4Kt-QL9rHVZ69cUqMzUjqpfQYrbVZGy2kggJICqPL2D4tUHPR3zrahp3tY-d5OpdHTaVk1SBHWIaHJ46hi1XMaCiSA76Al3pYf8JoVxQksGp_U3AyU1WqZXb4Fm4ndIzV6BXTFyJxUjwURRhJjqw1o6ww9CiV2HUT2jz2LQCoFmc5BARkHkWajw4danXZj1b4qthU1dK9YS3H0XWKgj6k3GaaEasM3tejjzRolaMBX2ezdSFM2PJd1oEDvv3-ccTrRDiy18vqdHSUozXC5mRIdbl7FsZPkhq2bC3QgGHRpdVy2]--></g></svg>