<?xml version="1.0" encoding="us-ascii" standalone="no"?><svg xmlns="http://www.w3.org/2000/svg" xmlns:xlink="http://www.w3.org/1999/xlink" contentStyleType="text/css" height="472px" preserveAspectRatio="none" style="width:877px;height:472px;background:#FFFFFF;" version="1.1" viewBox="0 0 877 472" width="877px" zoomAndPan="magnify"><defs/><g><!--cluster DICOM SR Measurement Report--><g id="cluster_DICOM SR Measurement Report"><path d="M8.5,66.5 L233.5,66.5 A3.75,3.75 0 0 1 236,69 L243,90.1094 L243.5,90.1094 A2.5,2.5 0 0 1 246,92.6094 L246,373 A2.5,2.5 0 0 1 243.5,375.5 L8.5,375.5 A2.5,2.5 0 0 1 6,373 L6,69 A2.5,2.5 0 0 1 8.5,66.5 " fill="none" style="stroke:#000000;stroke-width:1.5;"/><line style="stroke:#000000;stroke-width:1.5;" x1="6" x2="243" y1="90.1094" y2="90.1094"/><text fill="#000000" font-family="sans-serif" font-size="14" font-weight="bold" lengthAdjust="spacing" textLength="224" x="10" y="83.0332">DICOM SR Measurement Report</text></g><g id="elem_patientIE"><rect fill="#F1F1F1" height="37.6094" style="stroke:#181818;stroke-width:0.5;" width="74" x="89" y="102.5"/><text fill="#000000" font-family="sans-serif" font-size="14" lengthAdjust="spacing" textLength="60" x="96" y="119.0332">Patient IE</text><line style="stroke:#181818;stroke-width:0.5;" x1="90" x2="162" y1="124.1094" y2="124.1094"/></g><g id="elem_studyIE"><rect fill="#F1F1F1" height="37.6094" style="stroke:#181818;stroke-width:0.5;" width="66" x="93" y="175.5"/><text fill="#000000" font-family="sans-serif" font-size="14" lengthAdjust="spacing" textLength="52" x="100" y="192.0332">Study IE</text><line style="stroke:#181818;stroke-width:0.5;" x1="94" x2="158" y1="197.1094" y2="197.1094"/></g><g id="elem_equipmentIE"><rect fill="#F1F1F1" height="37.6094" style="stroke:#181818;stroke-width:0.5;" width="152" x="50" y="248.5"/><text fill="#000000" font-family="sans-serif" font-size="14" lengthAdjust="spacing" textLength="138" x="57" y="265.0332">General Equipment IE</text><line style="stroke:#181818;stroke-width:0.5;" x1="51" x2="201" y1="270.1094" y2="270.1094"/></g><g id="elem_documentIE"><rect fill="#F1F1F1" height="37.6094" style="stroke:#181818;stroke-width:0.5;" width="94" x="79" y="321.5"/><text fill="#000000" font-family="sans-serif" font-size="14" lengthAdjust="spacing" textLength="80" x="86" y="338.0332">Document IE</text><line style="stroke:#181818;stroke-width:0.5;" x1="80" x2="172" y1="343.1094" y2="343.1094"/></g><g id="elem_Patient"><rect fill="#F1F1F1" height="47.2188" style="stroke:#181818;stroke-width:0.5;" width="139" x="663.5" y="7"/><text fill="#000000" font-family="sans-serif" font-size="14" lengthAdjust="spacing" textLength="44" x="711" y="23.5332">Patient</text><line style="stroke:#181818;stroke-width:0.5;" x1="664.5" x2="801.5" y1="28.6094" y2="28.6094"/><text fill="#000000" font-family="sans-serif" font-size="14" lengthAdjust="spacing" textLength="127" x="669.5" y="47.1426">identifier = PatientID</text></g><g id="elem_ImagingStudy"><rect fill="#F1F1F1" height="47.2188" style="stroke:#181818;stroke-width:0.5;" width="193" x="636.5" y="89"/><text fill="#000000" font-family="sans-serif" font-size="14" lengthAdjust="spacing" textLength="85" x="690.5" y="105.5332">ImagingStudy</text><line style="stroke:#181818;stroke-width:0.5;" x1="637.5" x2="828.5" y1="110.6094" y2="110.6094"/><text fill="#000000" font-family="sans-serif" font-size="14" lengthAdjust="spacing" textLength="181" x="642.5" y="129.1426">identifier = StudyInstanceUID</text></g><g id="elem_ServiceRequest"><rect fill="#F1F1F1" height="47.2188" style="stroke:#181818;stroke-width:0.5;" width="195" x="635.5" y="171"/><text fill="#000000" font-family="sans-serif" font-size="14" lengthAdjust="spacing" textLength="100" x="683" y="187.5332">ServiceRequest</text><line style="stroke:#181818;stroke-width:0.5;" x1="636.5" x2="829.5" y1="192.6094" y2="192.6094"/><text fill="#000000" font-family="sans-serif" font-size="14" lengthAdjust="spacing" textLength="183" x="641.5" y="211.1426">identifier = AccessionNumber</text></g><g id="elem_equipmentDevice"><rect fill="#F1F1F1" height="64.8281" style="stroke:#181818;stroke-width:0.5;" width="274" x="596" y="253"/><text fill="#000000" font-family="sans-serif" font-size="14" lengthAdjust="spacing" textLength="166" x="650" y="269.5332">Device - EquipmentDevice</text><line style="stroke:#181818;stroke-width:0.5;" x1="597" x2="869" y1="274.6094" y2="274.6094"/><text fill="#000000" font-family="sans-serif" font-size="14" lengthAdjust="spacing" textLength="139" x="602" y="293.1426">identifier = Device UID</text><text fill="#000000" font-family="sans-serif" font-size="14" lengthAdjust="spacing" textLength="262" x="602" y="310.752">displayName = Manufacturer Model Name</text></g><g id="elem_documentIEMapping"><rect fill="#F1F1F1" height="108.0469" style="stroke:#181818;stroke-width:0.5;" width="188" x="639" y="357.5"/><text fill="#000000" font-family="sans-serif" font-size="14" lengthAdjust="spacing" textLength="138" x="664" y="374.0332">Document IE Mapping</text><line style="stroke:#181818;stroke-width:1.0;" x1="639" x2="827" y1="379.1094" y2="379.1094"/><text fill="#000000" font-family="sans-serif" font-size="14" lengthAdjust="spacing" textLength="45" x="650.5" y="395.6426">subject</text><text fill="#000000" font-family="sans-serif" font-size="14" lengthAdjust="spacing" textLength="44" x="712" y="395.6426">Patient</text><line style="stroke:#181818;stroke-width:1.0;" x1="707" x2="707" y1="379.1094" y2="400.7188"/><line style="stroke:#181818;stroke-width:1.0;" x1="639" x2="827" y1="400.7188" y2="400.7188"/><text fill="#000000" font-family="sans-serif" font-size="14" lengthAdjust="spacing" textLength="40" x="653" y="417.252">partOf</text><text fill="#000000" font-family="sans-serif" font-size="14" lengthAdjust="spacing" textLength="85" x="712" y="417.252">ImagingStudy</text><line style="stroke:#181818;stroke-width:1.0;" x1="707" x2="707" y1="400.7188" y2="422.3281"/><line style="stroke:#181818;stroke-width:1.0;" x1="639" x2="827" y1="422.3281" y2="422.3281"/><text fill="#000000" font-family="sans-serif" font-size="14" lengthAdjust="spacing" textLength="58" x="644" y="438.8613">basedOn</text><text fill="#000000" font-family="sans-serif" font-size="14" lengthAdjust="spacing" textLength="100" x="712" y="438.8613">ServiceRequest</text><line style="stroke:#181818;stroke-width:1.0;" x1="707" x2="707" y1="422.3281" y2="443.9375"/><line style="stroke:#181818;stroke-width:1.0;" x1="639" x2="827" y1="443.9375" y2="443.9375"/><text fill="#000000" font-family="sans-serif" font-size="14" lengthAdjust="spacing" textLength="41" x="652.5" y="460.4707">device</text><text fill="#000000" font-family="sans-serif" font-size="14" lengthAdjust="spacing" textLength="110" x="712" y="460.4707">EquipmentDevice</text><line style="stroke:#181818;stroke-width:1.0;" x1="707" x2="707" y1="443.9375" y2="465.5469"/></g><!--link patientIE to Patient--><g id="link_patientIE_Patient"><path codeLine="29" d="M163.03,116.08 C259.98,101.5 527.83,61.21 658.46,41.56 " fill="none" id="patientIE-to-Patient" style="stroke:#181818;stroke-width:1.0;"/><polygon fill="#181818" points="663.43,40.81,653.9355,38.192,658.4855,41.5531,655.1244,46.1032,663.43,40.81" style="stroke:#181818;stroke-width:1.0;"/><text fill="#000000" font-family="sans-serif" font-size="13" lengthAdjust="spacing" textLength="235" x="296.5" y="53.9951">Create Patient Reference from Patient IE</text></g><!--link studyIE to ImagingStudy--><g id="link_studyIE_ImagingStudy"><path codeLine="30" d="M159.07,187.65 C186.36,181.99 226.62,174.01 262,168.5 C388.83,148.76 535.87,132.26 631.24,122.39 " fill="none" id="studyIE-to-ImagingStudy" style="stroke:#181818;stroke-width:1.0;"/><polygon fill="#181818" points="636.31,121.87,626.9471,118.8146,631.3364,122.383,627.7679,126.7724,636.31,121.87" style="stroke:#181818;stroke-width:1.0;"/><text fill="#000000" font-family="sans-serif" font-size="13" lengthAdjust="spacing" textLength="228" x="300" y="126.9951">Create Patient Reference from Study IE</text></g><!--link studyIE to ServiceRequest--><g id="link_studyIE_ServiceRequest"><path codeLine="31" d="M159.1,194.5 C246.29,194.5 490.31,194.5 630.15,194.5 " fill="none" id="studyIE-to-ServiceRequest" style="stroke:#181818;stroke-width:1.0;"/><polygon fill="#181818" points="635.49,194.5,626.49,190.5,630.49,194.5,626.49,198.5,635.49,194.5" style="stroke:#181818;stroke-width:1.0;"/><text fill="#000000" font-family="sans-serif" font-size="13" lengthAdjust="spacing" textLength="228" x="300" y="190.9951">Create Patient Reference from Study IE</text></g><!--link equipmentIE to equipmentDevice--><g id="link_equipmentIE_equipmentDevice"><path codeLine="32" d="M202.1,269.73 C298.93,272.62 469.31,277.68 590.72,281.3 " fill="none" id="equipmentIE-to-equipmentDevice" style="stroke:#181818;stroke-width:1.0;"/><polygon fill="#181818" points="595.74,281.45,586.8701,277.1693,590.7425,281.2929,586.6188,285.1653,595.74,281.45" style="stroke:#181818;stroke-width:1.0;"/><text fill="#000000" font-family="sans-serif" font-size="13" lengthAdjust="spacing" textLength="302" x="263" y="268.9951">Create EquipmentDevice from General Equipment IE</text></g><!--link documentIE to documentIEMapping--><g id="link_documentIE_documentIEMapping"><path codeLine="34" d="M173.47,345.95 C269.63,357.24 492.58,383.4 625.89,399.05 " fill="none" id="documentIE-to-documentIEMapping" style="stroke:#181818;stroke-width:1.0;"/><polygon fill="#181818" points="630.99,399.65,622.5215,394.6216,626.0245,399.0633,621.5828,402.5663,630.99,399.65" style="stroke:#181818;stroke-width:1.0;"/><text fill="#000000" font-family="sans-serif" font-size="13" lengthAdjust="spacing" textLength="172" x="328" y="354.9951">Map contents of Document IE</text></g><!--SRC=[ZLFBReCm4Bpp5Ilk-O58gLI5gE90KX7r0pPceMx1TcrJAQhwxxKnxoArEU6TsTdPHsegBLW9cbUl5WgkYLakHQIGlMD542VfyPB1DOUCqBIQ6X8MSb9IsnY-8d0_UNjpMH0_e-KUJKyne04LdkbfGRhQjhWF5ECVAy8J2T9Om-cZvQgPwT4GM2KaahLpNj6_7Uqxwac3jM2O5-wRbvmq70OeJIPssc35HHMiRgHqG2gCHS7ePPvv9Vt96UNEAvdDSe-CaJ5knEUskP6UKkE4V2hifiv3PDbypzfGxX7lnsC5Dwh6-naRSc26eYsHMRT13Paig0QFkF9HWsenHCTLohM_6cOVxIkRDhW-F0m3xC8AjRsKFZgVOGVTq51n4HvRJYcu3UOTkEhUEnml2NQxiTuUZfhGqhZRd4hIv3O2fPODJDSOzMVMPSzz_IKntEf2O6d-tnApw-raLWiTTLRj1vMj_qGKJRlf57-jQkyt2KmAww86P0cpBVy0]--></g></svg>