<?xml version="1.0" encoding="us-ascii" standalone="no"?><svg xmlns="http://www.w3.org/2000/svg" xmlns:xlink="http://www.w3.org/1999/xlink" contentStyleType="text/css" height="374px" preserveAspectRatio="none" style="width:1067px;height:374px;background:#FFFFFF;" version="1.1" viewBox="0 0 1067 374" width="1067px" zoomAndPan="magnify"><defs/><g><!--cluster Document IE--><g id="cluster_Document IE"><path d="M8.5,135 L97.5,135 A3.75,3.75 0 0 1 100,137.5 L107,158.6094 L309.5,158.6094 A2.5,2.5 0 0 1 312,161.1094 L312,364.5 A2.5,2.5 0 0 1 309.5,367 L8.5,367 A2.5,2.5 0 0 1 6,364.5 L6,137.5 A2.5,2.5 0 0 1 8.5,135 " fill="none" style="stroke:#000000;stroke-width:1.5;"/><line style="stroke:#000000;stroke-width:1.5;" x1="6" x2="107" y1="158.6094" y2="158.6094"/><text fill="#000000" font-family="sans-serif" font-size="14" font-weight="bold" lengthAdjust="spacing" textLength="88" x="10" y="151.5332">Document IE</text></g><!--cluster srContentSequence--><g id="cluster_srContentSequence"><path d="M32.5,253 L187.5,253 A3.75,3.75 0 0 1 190,255.5 L197,276.6094 L285.5,276.6094 A2.5,2.5 0 0 1 288,279.1094 L288,340.5 A2.5,2.5 0 0 1 285.5,343 L32.5,343 A2.5,2.5 0 0 1 30,340.5 L30,255.5 A2.5,2.5 0 0 1 32.5,253 " fill="none" style="stroke:#000000;stroke-width:1.5;"/><line style="stroke:#000000;stroke-width:1.5;" x1="30" x2="197" y1="276.6094" y2="276.6094"/><text fill="#000000" font-family="sans-serif" font-size="14" font-weight="bold" lengthAdjust="spacing" textLength="154" x="34" y="269.5332">SR Content Sequence</text></g><g id="elem_documentGeneralModule"><rect fill="#F1F1F1" height="64.8281" style="stroke:#181818;stroke-width:0.5;" width="173" x="72.5" y="171.5"/><text fill="#000000" font-family="sans-serif" font-size="14" lengthAdjust="spacing" textLength="159" x="79.5" y="188.0332">documentGeneralModule</text><line style="stroke:#181818;stroke-width:0.5;" x1="73.5" x2="244.5" y1="193.1094" y2="193.1094"/><text fill="#000000" font-family="sans-serif" font-size="14" lengthAdjust="spacing" textLength="98" x="78.5" y="211.6426">PreliminaryFlag</text><text fill="#000000" font-family="sans-serif" font-size="14" lengthAdjust="spacing" textLength="131" x="78.5" y="229.252">ParticipantSequence</text></g><g id="elem_imagingMeasurements"><rect fill="#F1F1F1" height="37.6094" style="stroke:#181818;stroke-width:0.5;" width="226" x="46" y="289"/><text fill="#000000" font-family="sans-serif" font-size="14" lengthAdjust="spacing" textLength="212" x="53" y="305.5332">Imaging Measurements Container</text><line style="stroke:#181818;stroke-width:0.5;" x1="47" x2="271" y1="310.6094" y2="310.6094"/></g><g id="elem_inputs"><rect fill="#F1F1F1" height="108.0469" style="stroke:#181818;stroke-width:0.5;" width="188" x="65" y="7"/><text fill="#000000" font-family="sans-serif" font-size="14" lengthAdjust="spacing" textLength="38" x="140" y="23.5332">inputs</text><line style="stroke:#181818;stroke-width:1.0;" x1="65" x2="253" y1="28.6094" y2="28.6094"/><text fill="#000000" font-family="sans-serif" font-size="14" lengthAdjust="spacing" textLength="45" x="76.5" y="45.1426">subject</text><text fill="#000000" font-family="sans-serif" font-size="14" lengthAdjust="spacing" textLength="44" x="138" y="45.1426">Patient</text><line style="stroke:#181818;stroke-width:1.0;" x1="133" x2="133" y1="28.6094" y2="50.2188"/><line style="stroke:#181818;stroke-width:1.0;" x1="65" x2="253" y1="50.2188" y2="50.2188"/><text fill="#000000" font-family="sans-serif" font-size="14" lengthAdjust="spacing" textLength="40" x="79" y="66.752">partOf</text><text fill="#000000" font-family="sans-serif" font-size="14" lengthAdjust="spacing" textLength="85" x="138" y="66.752">ImagingStudy</text><line style="stroke:#181818;stroke-width:1.0;" x1="133" x2="133" y1="50.2188" y2="71.8281"/><line style="stroke:#181818;stroke-width:1.0;" x1="65" x2="253" y1="71.8281" y2="71.8281"/><text fill="#000000" font-family="sans-serif" font-size="14" lengthAdjust="spacing" textLength="58" x="70" y="88.3613">basedOn</text><text fill="#000000" font-family="sans-serif" font-size="14" lengthAdjust="spacing" textLength="100" x="138" y="88.3613">ServiceRequest</text><line style="stroke:#181818;stroke-width:1.0;" x1="133" x2="133" y1="71.8281" y2="93.4375"/><line style="stroke:#181818;stroke-width:1.0;" x1="65" x2="253" y1="93.4375" y2="93.4375"/><text fill="#000000" font-family="sans-serif" font-size="14" lengthAdjust="spacing" textLength="41" x="78.5" y="109.9707">device</text><text fill="#000000" font-family="sans-serif" font-size="14" lengthAdjust="spacing" textLength="110" x="138" y="109.9707">EquipmentDevice</text><line style="stroke:#181818;stroke-width:1.0;" x1="133" x2="133" y1="93.4375" y2="115.0469"/></g><g id="elem_imagingMeasurementsMapping"><rect fill="#F1F1F1" height="151.2656" style="stroke:#181818;stroke-width:0.5;" width="401" x="659" y="128.5"/><text fill="#000000" font-family="sans-serif" font-size="14" lengthAdjust="spacing" textLength="196" x="761.5" y="145.0332">imagingMeasurementsMapping</text><line style="stroke:#181818;stroke-width:1.0;" x1="659" x2="1060" y1="150.1094" y2="150.1094"/><text fill="#000000" font-family="sans-serif" font-size="14" lengthAdjust="spacing" textLength="45" x="672.5" y="166.6426">subject</text><text fill="#000000" font-family="sans-serif" font-size="14" lengthAdjust="spacing" textLength="44" x="736" y="166.6426">Patient</text><line style="stroke:#181818;stroke-width:1.0;" x1="731" x2="731" y1="150.1094" y2="171.7188"/><line style="stroke:#181818;stroke-width:1.0;" x1="659" x2="1060" y1="171.7188" y2="171.7188"/><text fill="#000000" font-family="sans-serif" font-size="14" lengthAdjust="spacing" textLength="40" x="675" y="188.252">partOf</text><text fill="#000000" font-family="sans-serif" font-size="14" lengthAdjust="spacing" textLength="85" x="736" y="188.252">ImagingStudy</text><line style="stroke:#181818;stroke-width:1.0;" x1="731" x2="731" y1="171.7188" y2="193.3281"/><line style="stroke:#181818;stroke-width:1.0;" x1="659" x2="1060" y1="193.3281" y2="193.3281"/><text fill="#000000" font-family="sans-serif" font-size="14" lengthAdjust="spacing" textLength="58" x="666" y="209.8613">basedOn</text><text fill="#000000" font-family="sans-serif" font-size="14" lengthAdjust="spacing" textLength="100" x="736" y="209.8613">ServiceRequest</text><line style="stroke:#181818;stroke-width:1.0;" x1="731" x2="731" y1="193.3281" y2="214.9375"/><line style="stroke:#181818;stroke-width:1.0;" x1="659" x2="1060" y1="214.9375" y2="214.9375"/><text fill="#000000" font-family="sans-serif" font-size="14" lengthAdjust="spacing" textLength="41" x="674.5" y="231.4707">device</text><text fill="#000000" font-family="sans-serif" font-size="14" lengthAdjust="spacing" textLength="319" x="736" y="231.4707">EquipmentDevice or ParticipantSequence (Device)</text><line style="stroke:#181818;stroke-width:1.0;" x1="731" x2="731" y1="214.9375" y2="236.5469"/><line style="stroke:#181818;stroke-width:1.0;" x1="659" x2="1060" y1="236.5469" y2="236.5469"/><text fill="#000000" font-family="sans-serif" font-size="14" lengthAdjust="spacing" textLength="62" x="664" y="253.0801">performer</text><text fill="#000000" font-family="sans-serif" font-size="14" lengthAdjust="spacing" textLength="190" x="736" y="253.0801">ParticipantSequence (Person)</text><line style="stroke:#181818;stroke-width:1.0;" x1="731" x2="731" y1="236.5469" y2="258.1563"/><line style="stroke:#181818;stroke-width:1.0;" x1="659" x2="1060" y1="258.1563" y2="258.1563"/><text fill="#000000" font-family="sans-serif" font-size="14" lengthAdjust="spacing" textLength="38" x="676" y="274.6895">status</text><text fill="#000000" font-family="sans-serif" font-size="14" lengthAdjust="spacing" textLength="98" x="736" y="274.6895">PreliminaryFlag</text><line style="stroke:#181818;stroke-width:1.0;" x1="731" x2="731" y1="258.1563" y2="279.7656"/></g><!--link imagingMeasurements to imagingMeasurementsMapping--><g id="link_imagingMeasurements_imagingMeasurementsMapping"><path codeLine="29" d="M272.34,291.95 C288.34,289.63 304.59,287.27 320,285 C427.39,269.2 546.77,251.29 645.78,236.32 " fill="none" id="imagingMeasurements-to-imagingMeasurementsMapping" style="stroke:#181818;stroke-width:1.0;"/><polygon fill="#181818" points="650.78,235.57,641.2855,232.952,645.8355,236.3131,642.4744,240.8632,650.78,235.57" style="stroke:#181818;stroke-width:1.0;"/><text fill="#000000" font-family="sans-serif" font-size="13" lengthAdjust="spacing" textLength="291" x="329" y="238.4951">Map contents of Imaging Measurements Container</text></g><!--link inputs to imagingMeasurementsMapping--><g id="link_inputs_imagingMeasurementsMapping"><path codeLine="30" d="M261.19,81.72 C361.52,102.26 518.28,134.35 646.03,160.5 " fill="none" id="inputs-to-imagingMeasurementsMapping" style="stroke:#181818;stroke-width:1.0;"/><polygon fill="#181818" points="650.95,161.51,642.9316,155.7911,646.051,160.5102,641.3319,163.6296,650.95,161.51" style="stroke:#181818;stroke-width:1.0;"/></g><!--link documentGeneralModule to imagingMeasurementsMapping--><g id="link_documentGeneralModule_imagingMeasurementsMapping"><path codeLine="31" d="M245.65,204 C344.65,204 511.21,204 645.72,204 " fill="none" id="documentGeneralModule-to-imagingMeasurementsMapping" style="stroke:#181818;stroke-width:1.0;"/><polygon fill="#181818" points="650.89,204,641.89,200,645.89,204,641.89,208,650.89,204" style="stroke:#181818;stroke-width:1.0;"/></g><!--SRC=[lL91JiCm4Bpx5QkSuD0F8D4BBOX3rQfvmJRPX8N4TjSsKeNwT-pO5HLKEUAJDJFUcTtrG9q7Rq2uV_FGib3ZsMYbHhJ0sWRlu4j1F2uStYC9ZqlOeMVIVe8jYjzs2NqTiMVTrpwqfuaweADsgnDNatnoGtiw1dBvOKi9IUJw6DYEiU1gWjHPAOlD1_O4rSeq8L7mkgvA49Dpj8Lv8Ks2myQqOQ0YIMSdDF386kNqF63_WyV0tB15xUiKHqV7X9zBEyMutiEJqJvPNsGLe0Cd1RwWLvObMLKc0Hj25uHIIZTLGuvPfpAS9TUAak9SPlzNi45hKzb_tWSOkJKqkClqVRObwOoC93dF3VMEn1cTrSwZ3swI_jfIxFv6vx1OB6ScyW3n0atUYmFJmVm6LFdOyrNLxHys_-WR]--></g></svg>