<?xml version="1.0" encoding="us-ascii" standalone="no"?><svg xmlns="http://www.w3.org/2000/svg" xmlns:xlink="http://www.w3.org/1999/xlink" contentStyleType="text/css" height="461px" preserveAspectRatio="none" style="width:1483px;height:461px;background:#FFFFFF;" version="1.1" viewBox="0 0 1483 461" width="1483px" zoomAndPan="magnify"><defs/><g><text fill="#000000" font-family="sans-serif" font-size="14" font-weight="bold" lengthAdjust="spacing" textLength="472" x="507" y="29.5332">Use case 2: Extracting imaging results for FHIRcast content sharing</text><line style="stroke:#181818;stroke-width:0.5;stroke-dasharray:5.0,5.0;" x1="104" x2="104" y1="121.2188" y2="379.6797"/><line style="stroke:#181818;stroke-width:0.5;stroke-dasharray:5.0,5.0;" x1="367.5" x2="367.5" y1="121.2188" y2="379.6797"/><line style="stroke:#181818;stroke-width:0.5;stroke-dasharray:5.0,5.0;" x1="664.5" x2="664.5" y1="121.2188" y2="379.6797"/><line style="stroke:#181818;stroke-width:0.5;stroke-dasharray:5.0,5.0;" x1="975" x2="975" y1="121.2188" y2="379.6797"/><line style="stroke:#181818;stroke-width:0.5;stroke-dasharray:5.0,5.0;" x1="1431" x2="1431" y1="121.2188" y2="379.6797"/><rect fill="#E2E2F0" height="31.6094" rx="2.5" ry="2.5" style="stroke:#181818;stroke-width:0.5;" width="199" x="5" y="88.6094"/><text fill="#000000" font-family="sans-serif" font-size="14" lengthAdjust="spacing" textLength="185" x="12" y="110.1426">Measurement Report Creator</text><rect fill="#E2E2F0" height="31.6094" rx="2.5" ry="2.5" style="stroke:#181818;stroke-width:0.5;" width="199" x="5" y="378.6797"/><text fill="#000000" font-family="sans-serif" font-size="14" lengthAdjust="spacing" textLength="185" x="12" y="400.2129">Measurement Report Creator</text><rect fill="#E2E2F0" height="31.6094" rx="2.5" ry="2.5" style="stroke:#181818;stroke-width:0.5;" width="216" x="259.5" y="88.6094"/><text fill="#000000" font-family="sans-serif" font-size="14" lengthAdjust="spacing" textLength="202" x="266.5" y="110.1426">DICOM SR FHIR IG Implementor</text><rect fill="#E2E2F0" height="31.6094" rx="2.5" ry="2.5" style="stroke:#181818;stroke-width:0.5;" width="216" x="259.5" y="378.6797"/><text fill="#000000" font-family="sans-serif" font-size="14" lengthAdjust="spacing" textLength="202" x="266.5" y="400.2129">DICOM SR FHIR IG Implementor</text><rect fill="#E2E2F0" height="31.6094" rx="2.5" ry="2.5" style="stroke:#181818;stroke-width:0.5;" width="100" x="614.5" y="88.6094"/><text fill="#000000" font-family="sans-serif" font-size="14" lengthAdjust="spacing" textLength="86" x="621.5" y="110.1426">FHIRcast Hub</text><rect fill="#E2E2F0" height="31.6094" rx="2.5" ry="2.5" style="stroke:#181818;stroke-width:0.5;" width="100" x="614.5" y="378.6797"/><text fill="#000000" font-family="sans-serif" font-size="14" lengthAdjust="spacing" textLength="86" x="621.5" y="400.2129">FHIRcast Hub</text><rect fill="#E2E2F0" height="31.6094" rx="2.5" ry="2.5" style="stroke:#181818;stroke-width:0.5;" width="149" x="901" y="88.6094"/><text fill="#000000" font-family="sans-serif" font-size="14" lengthAdjust="spacing" textLength="135" x="908" y="110.1426">Reporting Application</text><rect fill="#E2E2F0" height="31.6094" rx="2.5" ry="2.5" style="stroke:#181818;stroke-width:0.5;" width="149" x="901" y="378.6797"/><text fill="#000000" font-family="sans-serif" font-size="14" lengthAdjust="spacing" textLength="135" x="908" y="400.2129">Reporting Application</text><text fill="#000000" font-family="sans-serif" font-size="14" lengthAdjust="spacing" textLength="95" x="1381" y="118.1426">Report Creator</text><ellipse cx="1431.5" cy="52.1094" fill="#E2E2F0" rx="8" ry="8" style="stroke:#181818;stroke-width:0.5;"/><path d="M1431.5,60.1094 L1431.5,87.1094 M1418.5,68.1094 L1444.5,68.1094 M1431.5,87.1094 L1418.5,102.1094 M1431.5,87.1094 L1444.5,102.1094 " fill="none" style="stroke:#181818;stroke-width:0.5;"/><text fill="#000000" font-family="sans-serif" font-size="14" lengthAdjust="spacing" textLength="95" x="1381" y="393.2129">Report Creator</text><ellipse cx="1431.5" cy="404.7891" fill="#E2E2F0" rx="8" ry="8" style="stroke:#181818;stroke-width:0.5;"/><path d="M1431.5,412.7891 L1431.5,439.7891 M1418.5,420.7891 L1444.5,420.7891 M1431.5,439.7891 L1418.5,454.7891 M1431.5,439.7891 L1444.5,454.7891 " fill="none" style="stroke:#181818;stroke-width:0.5;"/><line style="stroke:#181818;stroke-width:1.0;" x1="104.5" x2="146.5" y1="153.5703" y2="153.5703"/><line style="stroke:#181818;stroke-width:1.0;" x1="146.5" x2="146.5" y1="153.5703" y2="166.5703"/><line style="stroke:#181818;stroke-width:1.0;" x1="105.5" x2="146.5" y1="166.5703" y2="166.5703"/><polygon fill="#181818" points="115.5,162.5703,105.5,166.5703,115.5,170.5703,111.5,166.5703" style="stroke:#181818;stroke-width:1.0;"/><text fill="#000000" font-family="sans-serif" font-size="13" lengthAdjust="spacing" textLength="231" x="111.5" y="148.7139">Create DICOM SR Measurement Report</text><polygon fill="#181818" points="115.5,192.9219,105.5,196.9219,115.5,200.9219,111.5,196.9219" style="stroke:#181818;stroke-width:1.0;"/><line style="stroke:#181818;stroke-width:1.0;" x1="109.5" x2="366.5" y1="196.9219" y2="196.9219"/><text fill="#000000" font-family="sans-serif" font-size="13" lengthAdjust="spacing" textLength="239" x="121.5" y="192.0654">Retrieve DICOM SR Measurement Report</text><line style="stroke:#181818;stroke-width:1.0;" x1="367.5" x2="409.5" y1="227.2734" y2="227.2734"/><line style="stroke:#181818;stroke-width:1.0;" x1="409.5" x2="409.5" y1="227.2734" y2="240.2734"/><line style="stroke:#181818;stroke-width:1.0;" x1="368.5" x2="409.5" y1="240.2734" y2="240.2734"/><polygon fill="#181818" points="378.5,236.2734,368.5,240.2734,378.5,244.2734,374.5,240.2734" style="stroke:#181818;stroke-width:1.0;"/><text fill="#000000" font-family="sans-serif" font-size="13" lengthAdjust="spacing" textLength="283" x="374.5" y="222.417">Extract FHIR Observations and related resources</text><polygon fill="#181818" points="652.5,266.625,662.5,270.625,652.5,274.625,656.5,270.625" style="stroke:#181818;stroke-width:1.0;"/><line style="stroke:#181818;stroke-width:1.0;" x1="367.5" x2="658.5" y1="270.625" y2="270.625"/><text fill="#000000" font-family="sans-serif" font-size="13" lengthAdjust="spacing" textLength="272" x="374.5" y="265.7686">Store FHIR Observations and related resources</text><polygon fill="#181818" points="675.5,296.9766,665.5,300.9766,675.5,304.9766,671.5,300.9766" style="stroke:#181818;stroke-width:1.0;"/><line style="stroke:#181818;stroke-width:1.0;" x1="669.5" x2="974.5" y1="300.9766" y2="300.9766"/><text fill="#000000" font-family="sans-serif" font-size="13" lengthAdjust="spacing" textLength="287" x="681.5" y="296.1201">Retrieve FHIR Observations and related resources</text><polygon fill="#181818" points="986.5,327.3281,976.5,331.3281,986.5,335.3281,982.5,331.3281" style="stroke:#181818;stroke-width:1.0;"/><line style="stroke:#181818;stroke-width:1.0;" x1="980.5" x2="1430.5" y1="331.3281" y2="331.3281"/><text fill="#000000" font-family="sans-serif" font-size="13" lengthAdjust="spacing" textLength="281" x="992.5" y="326.4717">Review FHIR Observations and related resources</text><polygon fill="#181818" points="986.5,357.6797,976.5,361.6797,986.5,365.6797,982.5,361.6797" style="stroke:#181818;stroke-width:1.0;"/><line style="stroke:#181818;stroke-width:1.0;" x1="980.5" x2="1430.5" y1="361.6797" y2="361.6797"/><text fill="#000000" font-family="sans-serif" font-size="13" lengthAdjust="spacing" textLength="432" x="992.5" y="356.8232">Create report containing selected FHIR Observations and related resources</text><!--SRC=[hPAxRiCm34LtVmMHlKj73mM2z14FGG07dGrPPMm2yWCKxVRpgqVWH4s61EXYmLUNHxoKXCGWV5e4hTpdEOUt7s6bXVe6g5EDNndjPCJ2SM1utnQbimheeHVi1Mohs9coR5Gif6bKJbpjKDc9iVEE4iU11JQCIWPUWR9WkTBnDorxBJRx7HpAS0mK7r1qemcKKo4r5Psbj7XfRJlLmNniYRrGjLETMcDBFjjw70rf9JJqeOR3pjATcuGBlReH8HgHi-mS1fvUBgBbqO-mfBgUIfO6-WieKPXmVXIHAikTngdkQuiyXyGMLF_baXZNfL_jCB56UuDuESeS3ax5ksdfIAzfIyZ7W1XGATp3PiBlVq6TRY_AuRqhwlsRiMXGUywzf_m2]--></g></svg>