<?xml version="1.0" encoding="UTF-8" standalone="no"?><svg xmlns="http://www.w3.org/2000/svg" xmlns:xlink="http://www.w3.org/1999/xlink" contentStyleType="text/css" height="461px" preserveAspectRatio="none" style="width:1462px;height:461px;background:#FFFFFF;" version="1.1" viewBox="0 0 1462 461" width="1462px" zoomAndPan="magnify"><defs/><g><rect fill="none" height="27.6094" id="_title" style="stroke:none;stroke-width:1.0;" width="482" x="491.5" y="10"/><text fill="#000000" font-family="sans-serif" font-size="14" font-weight="bold" lengthAdjust="spacing" textLength="472" x="496.5" y="29.5332">Use case 2: Extracting imaging results for FHIRcast content sharing</text><line style="stroke:#181818;stroke-width:0.5;stroke-dasharray:5.0,5.0;" x1="104" x2="104" y1="121.2188" y2="379.6797"/><line style="stroke:#181818;stroke-width:0.5;stroke-dasharray:5.0,5.0;" x1="367.5" x2="367.5" y1="121.2188" y2="379.6797"/><line style="stroke:#181818;stroke-width:0.5;stroke-dasharray:5.0,5.0;" x1="657.5" x2="657.5" y1="121.2188" y2="379.6797"/><line style="stroke:#181818;stroke-width:0.5;stroke-dasharray:5.0,5.0;" x1="961" x2="961" y1="121.2188" y2="379.6797"/><line style="stroke:#181818;stroke-width:0.5;stroke-dasharray:5.0,5.0;" x1="1410" x2="1410" y1="121.2188" y2="379.6797"/><rect fill="#E2E2F0" height="31.6094" rx="2.5" ry="2.5" style="stroke:#181818;stroke-width:0.5;" width="199" x="5" y="88.6094"/><text fill="#000000" font-family="sans-serif" font-size="14" lengthAdjust="spacing" textLength="185" x="12" y="110.1426">Measurement Report Creator</text><rect fill="#E2E2F0" height="31.6094" rx="2.5" ry="2.5" style="stroke:#181818;stroke-width:0.5;" width="199" x="5" y="378.6797"/><text fill="#000000" font-family="sans-serif" font-size="14" lengthAdjust="spacing" textLength="185" x="12" y="400.2129">Measurement Report Creator</text><rect fill="#E2E2F0" height="31.6094" rx="2.5" ry="2.5" style="stroke:#181818;stroke-width:0.5;" width="216" x="259.5" y="88.6094"/><text fill="#000000" font-family="sans-serif" font-size="14" lengthAdjust="spacing" textLength="202" x="266.5" y="110.1426">DICOM SR FHIR IG Implementor</text><rect fill="#E2E2F0" height="31.6094" rx="2.5" ry="2.5" style="stroke:#181818;stroke-width:0.5;" width="216" x="259.5" y="378.6797"/><text fill="#000000" font-family="sans-serif" font-size="14" lengthAdjust="spacing" textLength="202" x="266.5" y="400.2129">DICOM SR FHIR IG Implementor</text><rect fill="#E2E2F0" height="31.6094" rx="2.5" ry="2.5" style="stroke:#181818;stroke-width:0.5;" width="100" x="607.5" y="88.6094"/><text fill="#000000" font-family="sans-serif" font-size="14" lengthAdjust="spacing" textLength="86" x="614.5" y="110.1426">FHIRcast Hub</text><rect fill="#E2E2F0" height="31.6094" rx="2.5" ry="2.5" style="stroke:#181818;stroke-width:0.5;" width="100" x="607.5" y="378.6797"/><text fill="#000000" font-family="sans-serif" font-size="14" lengthAdjust="spacing" textLength="86" x="614.5" y="400.2129">FHIRcast Hub</text><rect fill="#E2E2F0" height="31.6094" rx="2.5" ry="2.5" style="stroke:#181818;stroke-width:0.5;" width="149" x="887" y="88.6094"/><text fill="#000000" font-family="sans-serif" font-size="14" lengthAdjust="spacing" textLength="135" x="894" y="110.1426">Reporting Application</text><rect fill="#E2E2F0" height="31.6094" rx="2.5" ry="2.5" style="stroke:#181818;stroke-width:0.5;" width="149" x="887" y="378.6797"/><text fill="#000000" font-family="sans-serif" font-size="14" lengthAdjust="spacing" textLength="135" x="894" y="400.2129">Reporting Application</text><text fill="#000000" font-family="sans-serif" font-size="14" lengthAdjust="spacing" textLength="95" x="1360" y="118.1426">Report Creator</text><ellipse cx="1410.5" cy="52.1094" fill="#E2E2F0" rx="8" ry="8" style="stroke:#181818;stroke-width:0.5;"/><path d="M1410.5,60.1094 L1410.5,87.1094 M1397.5,68.1094 L1423.5,68.1094 M1410.5,87.1094 L1397.5,102.1094 M1410.5,87.1094 L1423.5,102.1094 " fill="none" style="stroke:#181818;stroke-width:0.5;"/><text fill="#000000" font-family="sans-serif" font-size="14" lengthAdjust="spacing" textLength="95" x="1360" y="393.2129">Report Creator</text><ellipse cx="1410.5" cy="404.7891" fill="#E2E2F0" rx="8" ry="8" style="stroke:#181818;stroke-width:0.5;"/><path d="M1410.5,412.7891 L1410.5,439.7891 M1397.5,420.7891 L1423.5,420.7891 M1410.5,439.7891 L1397.5,454.7891 M1410.5,439.7891 L1423.5,454.7891 " fill="none" style="stroke:#181818;stroke-width:0.5;"/><line style="stroke:#181818;stroke-width:1.0;" x1="104.5" x2="146.5" y1="153.5703" y2="153.5703"/><line style="stroke:#181818;stroke-width:1.0;" x1="146.5" x2="146.5" y1="153.5703" y2="166.5703"/><line style="stroke:#181818;stroke-width:1.0;" x1="105.5" x2="146.5" y1="166.5703" y2="166.5703"/><polygon fill="#181818" points="115.5,162.5703,105.5,166.5703,115.5,170.5703,111.5,166.5703" style="stroke:#181818;stroke-width:1.0;"/><text fill="#000000" font-family="sans-serif" font-size="13" lengthAdjust="spacing" textLength="231" x="111.5" y="148.7139">Create DICOM SR Measurement Report</text><polygon fill="#181818" points="115.5,192.9219,105.5,196.9219,115.5,200.9219,111.5,196.9219" style="stroke:#181818;stroke-width:1.0;"/><line style="stroke:#181818;stroke-width:1.0;" x1="109.5" x2="366.5" y1="196.9219" y2="196.9219"/><text fill="#000000" font-family="sans-serif" font-size="13" lengthAdjust="spacing" textLength="239" x="121.5" y="192.0654">Retrieve DICOM SR Measurement Report</text><line style="stroke:#181818;stroke-width:1.0;" x1="367.5" x2="409.5" y1="227.2734" y2="227.2734"/><line style="stroke:#181818;stroke-width:1.0;" x1="409.5" x2="409.5" y1="227.2734" y2="240.2734"/><line style="stroke:#181818;stroke-width:1.0;" x1="368.5" x2="409.5" y1="240.2734" y2="240.2734"/><polygon fill="#181818" points="378.5,236.2734,368.5,240.2734,378.5,244.2734,374.5,240.2734" style="stroke:#181818;stroke-width:1.0;"/><text fill="#000000" font-family="sans-serif" font-size="13" lengthAdjust="spacing" textLength="276" x="374.5" y="222.417">Extract FHIR Observtions and related resources</text><polygon fill="#181818" points="645.5,266.625,655.5,270.625,645.5,274.625,649.5,270.625" style="stroke:#181818;stroke-width:1.0;"/><line style="stroke:#181818;stroke-width:1.0;" x1="367.5" x2="651.5" y1="270.625" y2="270.625"/><text fill="#000000" font-family="sans-serif" font-size="13" lengthAdjust="spacing" textLength="265" x="374.5" y="265.7686">Store FHIR Observtions and related resources</text><polygon fill="#181818" points="668.5,296.9766,658.5,300.9766,668.5,304.9766,664.5,300.9766" style="stroke:#181818;stroke-width:1.0;"/><line style="stroke:#181818;stroke-width:1.0;" x1="662.5" x2="960.5" y1="300.9766" y2="300.9766"/><text fill="#000000" font-family="sans-serif" font-size="13" lengthAdjust="spacing" textLength="280" x="674.5" y="296.1201">Retrieve FHIR Observtions and related resources</text><polygon fill="#181818" points="972.5,327.3281,962.5,331.3281,972.5,335.3281,968.5,331.3281" style="stroke:#181818;stroke-width:1.0;"/><line style="stroke:#181818;stroke-width:1.0;" x1="966.5" x2="1409.5" y1="331.3281" y2="331.3281"/><text fill="#000000" font-family="sans-serif" font-size="13" lengthAdjust="spacing" textLength="274" x="978.5" y="326.4717">Review FHIR Observtions and related resources</text><polygon fill="#181818" points="972.5,357.6797,962.5,361.6797,972.5,365.6797,968.5,361.6797" style="stroke:#181818;stroke-width:1.0;"/><line style="stroke:#181818;stroke-width:1.0;" x1="966.5" x2="1409.5" y1="361.6797" y2="361.6797"/><text fill="#000000" font-family="sans-serif" font-size="13" lengthAdjust="spacing" textLength="425" x="978.5" y="356.8232">Create report containing selected FHIR Observtions and related resources</text><!--MD5=[18ca99fcdc21d652cd988215cb13a636]
@startuml fhircast_content_sharing
title Use case 2: Extracting imaging results for FHIRcast content sharing

participant "Measurement Report Creator" as sr_creator
participant "DICOM SR FHIR IG Implementor" as ig_implementor
participant "FHIRcast Hub" as fhircast_hub
participant "Reporting Application" as report_creator
actor "Report Creator" as reporter

sr_creator -> sr_creator: Create DICOM SR Measurement Report
ig_implementor -> sr_creator: Retrieve DICOM SR Measurement Report
ig_implementor -> ig_implementor: Extract FHIR Observtions and related resources
ig_implementor -> fhircast_hub: Store FHIR Observtions and related resources
report_creator -> fhircast_hub: Retrieve FHIR Observtions and related resources
reporter -> report_creator: Review FHIR Observtions and related resources
reporter -> report_creator: Create report containing selected FHIR Observtions and related resources

@enduml

PlantUML version 1.2022.7(Mon Aug 22 13:01:30 EDT 2022)
(GPL source distribution)
Java Runtime: Java(TM) SE Runtime Environment
JVM: Java HotSpot(TM) 64-Bit Server VM
Default Encoding: Cp1252
Language: en
Country: US
--></g></svg>