<?xml version="1.0" encoding="us-ascii" standalone="no"?><svg xmlns="http://www.w3.org/2000/svg" xmlns:xlink="http://www.w3.org/1999/xlink" contentStyleType="text/css" height="1004px" preserveAspectRatio="none" style="width:1795px;height:1004px;background:#FFFFFF;" version="1.1" viewBox="0 0 1795 1004" width="1795px" zoomAndPan="magnify"><defs/><g><!--cluster measurementGroup--><g id="cluster_measurementGroup"><path d="M57.5,277.22 L211.5,277.22 A3.75,3.75 0 0 1 214,279.72 L221,300.8294 L314.5,300.8294 A2.5,2.5 0 0 1 317,303.3294 L317,943.72 A2.5,2.5 0 0 1 314.5,946.22 L57.5,946.22 A2.5,2.5 0 0 1 55,943.72 L55,279.72 A2.5,2.5 0 0 1 57.5,277.22 " fill="none" style="stroke:#000000;stroke-width:1.5;"/><line style="stroke:#000000;stroke-width:1.5;" x1="55" x2="221" y1="300.8294" y2="300.8294"/><text fill="#000000" font-family="sans-serif" font-size="14" font-weight="bold" lengthAdjust="spacing" textLength="153" x="59" y="293.7532">Measurements Group</text></g><!--cluster Numerical Measurements--><g id="cluster_Numerical Measurements"><path d="M89.5,337.22 L269.5,337.22 A3.75,3.75 0 0 1 272,339.72 L279,360.8294 L282.5,360.8294 A2.5,2.5 0 0 1 285,363.3294 L285,424.72 A2.5,2.5 0 0 1 282.5,427.22 L89.5,427.22 A2.5,2.5 0 0 1 87,424.72 L87,339.72 A2.5,2.5 0 0 1 89.5,337.22 " fill="none" style="stroke:#000000;stroke-width:1.5;"/><line style="stroke:#000000;stroke-width:1.5;" x1="87" x2="279" y1="360.8294" y2="360.8294"/><text fill="#000000" font-family="sans-serif" font-size="14" font-weight="bold" lengthAdjust="spacing" textLength="179" x="91" y="353.7532">Numerical Measurements</text></g><g id="elem_algorithm"><rect fill="#F1F1F1" height="37.6094" style="stroke:#181818;stroke-width:0.5;" width="156" x="108" y="446.22"/><text fill="#000000" font-family="sans-serif" font-size="14" lengthAdjust="spacing" textLength="142" x="115" y="462.7532">Algorithm Identification</text><line style="stroke:#181818;stroke-width:0.5;" x1="109" x2="263" y1="467.8294" y2="467.8294"/></g><g id="elem_tracking"><rect fill="#F1F1F1" height="37.6094" style="stroke:#181818;stroke-width:0.5;" width="161" x="105.5" y="519.22"/><text fill="#000000" font-family="sans-serif" font-size="14" lengthAdjust="spacing" textLength="147" x="112.5" y="535.7532">Tracking Identifier / UID</text><line style="stroke:#181818;stroke-width:0.5;" x1="106.5" x2="265.5" y1="540.8294" y2="540.8294"/></g><g id="elem_finding"><rect fill="#F1F1F1" height="37.6094" style="stroke:#181818;stroke-width:0.5;" width="61" x="155.5" y="592.22"/><text fill="#000000" font-family="sans-serif" font-size="14" lengthAdjust="spacing" textLength="47" x="162.5" y="608.7532">Finding</text><line style="stroke:#181818;stroke-width:0.5;" x1="156.5" x2="215.5" y1="613.8294" y2="613.8294"/></g><g id="elem_findingCategory"><rect fill="#F1F1F1" height="37.6094" style="stroke:#181818;stroke-width:0.5;" width="123" x="124.5" y="665.22"/><text fill="#000000" font-family="sans-serif" font-size="14" lengthAdjust="spacing" textLength="109" x="131.5" y="681.7532">Finding Category</text><line style="stroke:#181818;stroke-width:0.5;" x1="125.5" x2="246.5" y1="686.8294" y2="686.8294"/></g><g id="elem_findingSite"><rect fill="#F1F1F1" height="37.6094" style="stroke:#181818;stroke-width:0.5;" width="89" x="141.5" y="738.22"/><text fill="#000000" font-family="sans-serif" font-size="14" lengthAdjust="spacing" textLength="75" x="148.5" y="754.7532">Finding Site</text><line style="stroke:#181818;stroke-width:0.5;" x1="142.5" x2="229.5" y1="759.8294" y2="759.8294"/></g><g id="elem_imageRegion"><rect fill="#F1F1F1" height="37.6094" style="stroke:#181818;stroke-width:0.5;" width="179" x="96.5" y="811.22"/><text fill="#000000" font-family="sans-serif" font-size="14" lengthAdjust="spacing" textLength="165" x="103.5" y="827.7532">Image Region / Reference</text><line style="stroke:#181818;stroke-width:0.5;" x1="97.5" x2="274.5" y1="832.8294" y2="832.8294"/></g><g id="elem_method"><rect fill="#F1F1F1" height="37.6094" style="stroke:#181818;stroke-width:0.5;" width="151" x="110.5" y="884.22"/><text fill="#000000" font-family="sans-serif" font-size="14" lengthAdjust="spacing" textLength="137" x="117.5" y="900.7532">Measurement Method</text><line style="stroke:#181818;stroke-width:0.5;" x1="111.5" x2="260.5" y1="905.8294" y2="905.8294"/></g><g id="elem_measurement"><rect fill="#F1F1F1" height="37.6094" style="stroke:#181818;stroke-width:0.5;" width="166" x="103" y="373.22"/><text fill="#000000" font-family="sans-serif" font-size="14" lengthAdjust="spacing" textLength="152" x="110" y="389.7532">Numerical Measurement</text><line style="stroke:#181818;stroke-width:0.5;" x1="104" x2="268" y1="394.8294" y2="394.8294"/></g><g id="elem_inputs"><rect fill="#F1F1F1" height="108.0469" style="stroke:#181818;stroke-width:0.5;" width="358" x="7" y="95.22"/><a href="mapping.html#imaging_measurements_container" target="_top" title="mapping.html#imaging_measurements_container" xlink:actuate="onRequest" xlink:href="mapping.html#imaging_measurements_container" xlink:show="new" xlink:title="mapping.html#imaging_measurements_container" xlink:type="simple"><text fill="#0000FF" font-family="sans-serif" font-size="14" lengthAdjust="spacing" text-decoration="underline" textLength="344" x="14" y="111.7532">Inputs from Imaging Measurements Container Mapping</text></a><line style="stroke:#181818;stroke-width:1.0;" x1="7" x2="365" y1="116.8294" y2="116.8294"/><text fill="#000000" font-family="sans-serif" font-size="14" lengthAdjust="spacing" textLength="45" x="18.5" y="133.3626">subject</text><text fill="#000000" font-family="sans-serif" font-size="14" lengthAdjust="spacing" textLength="44" x="80" y="133.3626">Patient</text><line style="stroke:#181818;stroke-width:1.0;" x1="75" x2="75" y1="116.8294" y2="138.4388"/><line style="stroke:#181818;stroke-width:1.0;" x1="7" x2="365" y1="138.4388" y2="138.4388"/><text fill="#000000" font-family="sans-serif" font-size="14" lengthAdjust="spacing" textLength="40" x="21" y="154.972">partOf</text><text fill="#000000" font-family="sans-serif" font-size="14" lengthAdjust="spacing" textLength="85" x="80" y="154.972">ImagingStudy</text><line style="stroke:#181818;stroke-width:1.0;" x1="75" x2="75" y1="138.4388" y2="160.0481"/><line style="stroke:#181818;stroke-width:1.0;" x1="7" x2="365" y1="160.0481" y2="160.0481"/><text fill="#000000" font-family="sans-serif" font-size="14" lengthAdjust="spacing" textLength="58" x="12" y="176.5813">basedOn</text><text fill="#000000" font-family="sans-serif" font-size="14" lengthAdjust="spacing" textLength="100" x="80" y="176.5813">ServiceRequest</text><line style="stroke:#181818;stroke-width:1.0;" x1="75" x2="75" y1="160.0481" y2="181.6575"/><line style="stroke:#181818;stroke-width:1.0;" x1="7" x2="365" y1="181.6575" y2="181.6575"/><text fill="#000000" font-family="sans-serif" font-size="14" lengthAdjust="spacing" textLength="41" x="20.5" y="198.1907">device</text><text fill="#000000" font-family="sans-serif" font-size="14" lengthAdjust="spacing" textLength="110" x="80" y="198.1907">EquipmentDevice</text><line style="stroke:#181818;stroke-width:1.0;" x1="75" x2="75" y1="181.6575" y2="203.2669"/></g><g id="elem_AlgorithmIdentification"><rect fill="#F1F1F1" height="47.2188" style="stroke:#181818;stroke-width:0.5;" width="208" x="937" y="424.72"/><text fill="#000000" font-family="sans-serif" font-size="14" lengthAdjust="spacing" textLength="194" x="944" y="441.2532">Device - AlgorithmIdentification</text><line style="stroke:#181818;stroke-width:0.5;" x1="938" x2="1144" y1="446.3294" y2="446.3294"/><text fill="#000000" font-family="sans-serif" font-size="14" lengthAdjust="spacing" textLength="167" x="943" y="464.8626">parent = EquipmentDevice</text></g><g id="elem_TrackingBodyStructure"><rect fill="#F1F1F1" height="47.2188" style="stroke:#181818;stroke-width:0.5;" width="266" x="908" y="506.72"/><text fill="#000000" font-family="sans-serif" font-size="14" lengthAdjust="spacing" textLength="252" x="915" y="523.2532">Body Structure - TrackingBodyStructure</text><line style="stroke:#181818;stroke-width:0.5;" x1="909" x2="1173" y1="528.3294" y2="528.3294"/><text fill="#000000" font-family="sans-serif" font-size="14" lengthAdjust="spacing" textLength="236" x="914" y="546.8626">identifier = TrackingID or TrackingUID</text></g><g id="elem_FindingSite"><rect fill="#F1F1F1" height="47.2188" style="stroke:#181818;stroke-width:0.5;" width="274" x="904" y="731.72"/><text fill="#000000" font-family="sans-serif" font-size="14" lengthAdjust="spacing" textLength="178" x="952" y="748.2532">Body Structure - FindingSite</text><line style="stroke:#181818;stroke-width:0.5;" x1="905" x2="1177" y1="753.3294" y2="753.3294"/><text fill="#000000" font-family="sans-serif" font-size="14" lengthAdjust="spacing" textLength="262" x="910" y="771.8626">includedStructure.structure = Finding Site</text></g><g id="elem_ImagingSelection"><rect fill="#F1F1F1" height="37.6094" style="stroke:#181818;stroke-width:0.5;" width="121" x="980.5" y="814.22"/><text fill="#000000" font-family="sans-serif" font-size="14" lengthAdjust="spacing" textLength="107" x="987.5" y="830.7532">ImagingSelection</text><line style="stroke:#181818;stroke-width:0.5;" x1="981.5" x2="1100.5" y1="835.8294" y2="835.8294"/></g><g id="elem_imagingMeasurementGroup"><rect fill="#F1F1F1" height="223.3125" style="stroke:#181818;stroke-width:0.5;" width="420" x="1368" y="457.72"/><text fill="#000000" font-family="sans-serif" font-size="14" lengthAdjust="spacing" textLength="273" x="1441.5" y="474.2532">Observation - Imaging Measurement Group</text><line style="stroke:#181818;stroke-width:0.5;" x1="1369" x2="1787" y1="479.3294" y2="479.3294"/><text fill="#000000" font-family="sans-serif" font-size="14" lengthAdjust="spacing" textLength="105" x="1374" y="497.8626">subject = Patient</text><text fill="#000000" font-family="sans-serif" font-size="14" lengthAdjust="spacing" textLength="141" x="1374" y="515.472">partOf = ImagingStudy</text><text fill="#000000" font-family="sans-serif" font-size="14" lengthAdjust="spacing" textLength="174" x="1374" y="533.0813">basedOn = ServiceRequest</text><text fill="#000000" font-family="sans-serif" font-size="14" lengthAdjust="spacing" textLength="326" x="1374" y="550.6907">device = EquipmentDevice or AlgorithmIdentification</text><text fill="#000000" font-family="sans-serif" font-size="14" lengthAdjust="spacing" textLength="195" x="1374" y="568.3001">focus = TrackingBodyStructure</text><text fill="#000000" font-family="sans-serif" font-size="14" lengthAdjust="spacing" textLength="157" x="1374" y="585.9095">focus = ImagingSelection</text><text fill="#000000" font-family="sans-serif" font-size="14" lengthAdjust="spacing" textLength="176" x="1374" y="603.5188">bodyStructure = FindingSite</text><text fill="#000000" font-family="sans-serif" font-size="14" lengthAdjust="spacing" textLength="408" x="1374" y="621.1282">code = Finding Category or DCM#125007 "Measurement Group"</text><text fill="#000000" font-family="sans-serif" font-size="14" lengthAdjust="spacing" textLength="200" x="1374" y="638.7376">method = Measurement Method</text><text fill="#000000" font-family="sans-serif" font-size="14" lengthAdjust="spacing" textLength="211" x="1374" y="656.347">valueCodeableConcept = Finding</text><text fill="#000000" font-family="sans-serif" font-size="14" lengthAdjust="spacing" textLength="225" x="1374" y="673.9563">hasMember = ImagingMeasurement</text></g><g id="elem_imagingMeasurementMap"><rect fill="#F1F1F1" height="151.2656" style="stroke:#181818;stroke-width:0.5;" width="378" x="852" y="161.72"/><a href="mapping.html#imaging_measurement" target="_top" title="mapping.html#imaging_measurement" xlink:actuate="onRequest" xlink:href="mapping.html#imaging_measurement" xlink:show="new" xlink:title="mapping.html#imaging_measurement" xlink:type="simple"><text fill="#0000FF" font-family="sans-serif" font-size="14" lengthAdjust="spacing" text-decoration="underline" textLength="197" x="942.5" y="178.2532">Imaging Measurement Mapping</text></a><line style="stroke:#181818;stroke-width:1.0;" x1="852" x2="1230" y1="183.3294" y2="183.3294"/><text fill="#000000" font-family="sans-serif" font-size="14" lengthAdjust="spacing" textLength="45" x="879" y="199.8626">subject</text><text fill="#000000" font-family="sans-serif" font-size="14" lengthAdjust="spacing" textLength="44" x="956" y="199.8626">Patient</text><line style="stroke:#181818;stroke-width:1.0;" x1="951" x2="951" y1="183.3294" y2="204.9388"/><line style="stroke:#181818;stroke-width:1.0;" x1="852" x2="1230" y1="204.9388" y2="204.9388"/><text fill="#000000" font-family="sans-serif" font-size="14" lengthAdjust="spacing" textLength="40" x="881.5" y="221.472">partOf</text><text fill="#000000" font-family="sans-serif" font-size="14" lengthAdjust="spacing" textLength="85" x="956" y="221.472">ImagingStudy</text><line style="stroke:#181818;stroke-width:1.0;" x1="951" x2="951" y1="204.9388" y2="226.5481"/><line style="stroke:#181818;stroke-width:1.0;" x1="852" x2="1230" y1="226.5481" y2="226.5481"/><text fill="#000000" font-family="sans-serif" font-size="14" lengthAdjust="spacing" textLength="58" x="872.5" y="243.0813">basedOn</text><text fill="#000000" font-family="sans-serif" font-size="14" lengthAdjust="spacing" textLength="100" x="956" y="243.0813">ServiceRequest</text><line style="stroke:#181818;stroke-width:1.0;" x1="951" x2="951" y1="226.5481" y2="248.1575"/><line style="stroke:#181818;stroke-width:1.0;" x1="852" x2="1230" y1="248.1575" y2="248.1575"/><text fill="#000000" font-family="sans-serif" font-size="14" lengthAdjust="spacing" textLength="34" x="884.5" y="264.6907">focus</text><text fill="#000000" font-family="sans-serif" font-size="14" lengthAdjust="spacing" textLength="107" x="956" y="264.6907">ImagingSelection</text><line style="stroke:#181818;stroke-width:1.0;" x1="951" x2="951" y1="248.1575" y2="269.7669"/><line style="stroke:#181818;stroke-width:1.0;" x1="852" x2="1230" y1="269.7669" y2="269.7669"/><text fill="#000000" font-family="sans-serif" font-size="14" lengthAdjust="spacing" textLength="89" x="857" y="286.3001">bodyStructure</text><text fill="#000000" font-family="sans-serif" font-size="14" lengthAdjust="spacing" textLength="71" x="956" y="286.3001">FindingSite</text><line style="stroke:#181818;stroke-width:1.0;" x1="951" x2="951" y1="269.7669" y2="291.3763"/><line style="stroke:#181818;stroke-width:1.0;" x1="852" x2="1230" y1="291.3763" y2="291.3763"/><text fill="#000000" font-family="sans-serif" font-size="14" lengthAdjust="spacing" textLength="41" x="881" y="307.9095">device</text><text fill="#000000" font-family="sans-serif" font-size="14" lengthAdjust="spacing" textLength="269" x="956" y="307.9095">AlgorithmIdentification or EquipmentDevice</text><line style="stroke:#181818;stroke-width:1.0;" x1="951" x2="951" y1="291.3763" y2="312.9856"/></g><!--link algorithm to AlgorithmIdentification--><g id="link_algorithm_AlgorithmIdentification"><path codeLine="61" d="M264.22,466.55 C305.42,467.2 356.97,467.9 403,468.22 C585.66,469.49 631.51,476.28 814,468.22 C852.51,466.52 894.6,463.2 931.91,459.74 " fill="none" id="algorithm-to-AlgorithmIdentification" style="stroke:#181818;stroke-width:1.0;"/><polygon fill="#181818" points="936.9,459.27,927.5626,456.1375,931.9223,459.742,928.3178,464.1018,936.9,459.27" style="stroke:#181818;stroke-width:1.0;"/><text fill="#000000" font-family="sans-serif" font-size="13" lengthAdjust="spacing" textLength="409" x="404" y="464.7151">Create AlgorithmIdentification from Algorithm Identification content item</text></g><!--link tracking to TrackingBodyStructure--><g id="link_tracking_TrackingBodyStructure"><path codeLine="62" d="M266.86,537.47 C412.53,536.1 722.89,533.19 902.94,531.51 " fill="none" id="tracking-to-TrackingBodyStructure" style="stroke:#181818;stroke-width:1.0;"/><polygon fill="#181818" points="907.97,531.46,898.936,527.5373,902.9702,531.5029,899.0046,535.537,907.97,531.46" style="stroke:#181818;stroke-width:1.0;"/><text fill="#000000" font-family="sans-serif" font-size="13" lengthAdjust="spacing" textLength="349" x="434" y="528.7151">Create BodyStructure reference from Tracking Identifier / UID</text></g><!--link findingSite to FindingSite--><g id="link_findingSite_FindingSite"><path codeLine="63" d="M230.77,757.12 C352.8,756.83 700.81,756.02 898.42,755.55 " fill="none" id="findingSite-to-FindingSite" style="stroke:#181818;stroke-width:1.0;"/><polygon fill="#181818" points="903.64,755.54,894.6286,751.5657,898.64,755.5543,894.6515,759.5657,903.64,755.54" style="stroke:#181818;stroke-width:1.0;"/><text fill="#000000" font-family="sans-serif" font-size="13" lengthAdjust="spacing" textLength="227" x="495" y="751.7151">Create BodyStructure from Finding Site</text></g><!--link imageRegion to ImagingSelection--><g id="link_imageRegion_ImagingSelection"><path codeLine="64" d="M275.87,830.53 C448.14,831.14 823.83,832.46 975.03,832.99 " fill="none" id="imageRegion-to-ImagingSelection" style="stroke:#181818;stroke-width:1.0;"/><polygon fill="#181818" points="980.32,833.01,971.3315,828.9843,975.32,832.9957,971.3086,836.9843,980.32,833.01" style="stroke:#181818;stroke-width:1.0;"/><text fill="#000000" font-family="sans-serif" font-size="13" lengthAdjust="spacing" textLength="320" x="448.5" y="826.7151">Create ImagingSelection from image reference or region</text></g><!--link inputs to imagingMeasurementGroup--><g id="link_inputs_imagingMeasurementGroup"><path codeLine="66" d="M373.46,100.02 C592.42,52.64 960.87,6 1238,140.22 C1371.01,204.64 1467.62,349.37 1522.9,452.9 " fill="none" id="inputs-to-imagingMeasurementGroup" style="stroke:#181818;stroke-width:1.0;"/><polygon fill="#181818" points="1525.34,457.49,1524.6292,447.6668,1522.9848,453.0794,1517.5722,451.4351,1525.34,457.49" style="stroke:#181818;stroke-width:1.0;"/></g><!--link AlgorithmIdentification to imagingMeasurementGroup--><g id="link_AlgorithmIdentification_imagingMeasurementGroup"><path codeLine="67" d="M1145.1,469.27 C1175.09,475.53 1207.88,482.52 1238,489.22 C1278.41,498.21 1321.46,508.12 1362.84,517.81 " fill="none" id="AlgorithmIdentification-to-imagingMeasurementGroup" style="stroke:#181818;stroke-width:1.0;"/><polygon fill="#181818" points="1367.87,518.99,1360.005,513.062,1362.999,517.8615,1358.1994,520.8555,1367.87,518.99" style="stroke:#181818;stroke-width:1.0;"/></g><!--link TrackingBodyStructure to imagingMeasurementGroup--><g id="link_TrackingBodyStructure_imagingMeasurementGroup"><path codeLine="68" d="M1174.25,539.86 C1231.06,544 1298.91,548.95 1362.58,553.59 " fill="none" id="TrackingBodyStructure-to-imagingMeasurementGroup" style="stroke:#181818;stroke-width:1.0;"/><polygon fill="#181818" points="1367.94,553.98,1359.262,549.3224,1362.9538,553.6085,1358.6677,557.3003,1367.94,553.98" style="stroke:#181818;stroke-width:1.0;"/></g><!--link finding to imagingMeasurementGroup--><g id="link_finding_imagingMeasurementGroup"><path codeLine="69" d="M216.68,610.32 C363.4,605.89 1018.05,586.11 1362.88,575.69 " fill="none" id="finding-to-imagingMeasurementGroup" style="stroke:#181818;stroke-width:1.0;"/><polygon fill="#181818" points="1367.94,575.54,1358.8294,571.7987,1362.942,575.6828,1359.0579,579.7954,1367.94,575.54" style="stroke:#181818;stroke-width:1.0;"/></g><!--link findingCategory to imagingMeasurementGroup--><g id="link_findingCategory_imagingMeasurementGroup"><path codeLine="70" d="M247.72,679.33 C409.01,666.33 861.49,629.73 1238,598.22 C1278.3,594.85 1321.29,591.2 1362.66,587.68 " fill="none" id="findingCategory-to-imagingMeasurementGroup" style="stroke:#181818;stroke-width:1.0;"/><polygon fill="#181818" points="1367.69,587.25,1358.3805,584.0355,1362.7084,587.6782,1359.0656,592.0061,1367.69,587.25" style="stroke:#181818;stroke-width:1.0;"/></g><!--link FindingSite to imagingMeasurementGroup--><g id="link_FindingSite_imagingMeasurementGroup"><path codeLine="71" d="M1178.22,741.72 C1229.33,734.09 1287.28,722.3 1338,704.22 C1355.03,698.15 1372.26,690.92 1389.25,682.99 " fill="none" id="FindingSite-to-imagingMeasurementGroup" style="stroke:#181818;stroke-width:1.0;"/><polygon fill="#181818" points="1394.04,680.74,1384.1936,680.9604,1389.5175,682.8724,1387.6055,688.1964,1394.04,680.74" style="stroke:#181818;stroke-width:1.0;"/></g><!--link ImagingSelection to imagingMeasurementGroup--><g id="link_ImagingSelection_imagingMeasurementGroup"><path codeLine="72" d="M1101.62,828.16 C1141.38,823.31 1194.19,813.97 1238,796.22 C1306.92,768.3 1376.32,725.1 1434.22,683.85 " fill="none" id="ImagingSelection-to-imagingMeasurementGroup" style="stroke:#181818;stroke-width:1.0;"/><polygon fill="#181818" points="1438.37,680.89,1428.7234,682.8758,1434.3042,683.8002,1433.3798,689.381,1438.37,680.89" style="stroke:#181818;stroke-width:1.0;"/></g><!--link measurementGroup to imagingMeasurementGroup--><g id="link_measurementGroup_imagingMeasurementGroup"><path codeLine="73" d="M317.5943,312.2097 C320.0879,312.3529 322.6099,312.4981 325.1595,312.6455 C406.7478,317.3609 516.6781,324.2419 633.2213,333.0538 C866.3075,350.6775 1125.845,376.025 1238,407.22 C1281.35,419.28 1325.96,436.6 1367.99,455.48 " fill="none" id="measurementGroup-to-imagingMeasurementGroup" style="stroke:#181818;stroke-width:1.0;"/><polygon fill="#181818" points="1372.58,457.55,1366.0228,450.2013,1368.0228,455.4928,1362.7313,457.4929,1372.58,457.55" style="stroke:#181818;stroke-width:1.0;"/></g><!--link method to imagingMeasurementGroup--><g id="link_method_imagingMeasurementGroup"><path codeLine="74" d="M261.7,916.51 C438.21,944.62 892.2,997.65 1238,870.22 C1336.66,833.86 1424.66,753.49 1486.27,684.93 " fill="none" id="method-to-imagingMeasurementGroup" style="stroke:#181818;stroke-width:1.0;"/><polygon fill="#181818" points="1489.92,680.85,1480.9424,684.9001,1486.5902,684.5799,1486.9103,690.2277,1489.92,680.85" style="stroke:#181818;stroke-width:1.0;"/></g><!--link inputs to imagingMeasurementMap--><g id="link_inputs_imagingMeasurementMap"><path codeLine="76" d="M373.14,168.42 C510.73,182.62 697.87,201.92 838.88,216.47 " fill="none" id="inputs-to-imagingMeasurementMap" style="stroke:#181818;stroke-width:1.0;"/><polygon fill="#181818" points="843.88,216.99,835.3394,212.0851,838.9065,216.4755,834.5162,220.0427,843.88,216.99" style="stroke:#181818;stroke-width:1.0;"/></g><!--link measurement to imagingMeasurementMap--><g id="link_measurement_imagingMeasurementMap"><path codeLine="77" d="M269.13,383.36 C301.56,379.52 339.11,374.66 373,369.22 C530.07,344 706.62,308.75 838.6,281.02 " fill="none" id="measurement-to-imagingMeasurementMap" style="stroke:#181818;stroke-width:1.0;"/><polygon fill="#181818" points="843.67,279.96,834.0402,277.8942,838.7766,280.9872,835.6837,285.7236,843.67,279.96" style="stroke:#181818;stroke-width:1.0;"/><text fill="#000000" font-family="sans-serif" font-size="13" lengthAdjust="spacing" textLength="397" x="410" y="285.7151">Map numerical measurements to ImagingMeasurement Observations</text></g><!--reverse link imagingMeasurementMap to imagingMeasurementGroup--><g id="link_imagingMeasurementMap_imagingMeasurementGroup"><path codeLine="78" d="M1243.18,297.29 C1275.95,310.61 1308.71,326.22 1338,344.22 C1388.25,375.1 1436.94,417.79 1477.11,457.69 " fill="none" id="imagingMeasurementMap-backto-imagingMeasurementGroup" style="stroke:#181818;stroke-width:1.0;"/><polygon fill="#181818" points="1238.35,295.35,1245.202,302.4246,1242.9874,297.2192,1248.1928,295.0047,1238.35,295.35" style="stroke:#181818;stroke-width:1.0;"/><text fill="#000000" font-family="sans-serif" font-size="13" lengthAdjust="spacing" textLength="68" x="1269" y="305.7151">hasMember</text></g><!--SRC=[ZLPTRzCm57tFhxZgdZi64aAQQ2Le6Uf36LhXQPecDxbf3VcQuqoQ4F-TQpjndCGEUshZ-vbpVCzDXga4MOBWfxE4X0kC9I-BACfP1OlxU_gfU76wFCiyk-0vEz73OuwiRWJcMCZwCIuBoNY10dP5rSWQKb7ci3Eki7TSOMDTzoRjmyC2M0tS1Fw90A1kZh-e1rYjuJkJdEBKQSM4l4tLOPlu89laHLcEhCRajb2c0ufd7kCTFZLOwx04rO6oVNbgUAMwsEgZw6yKLIp-pKu8Yq6FNqNPLBehvotreUclDEqjFcMdKd1vfbTDo8EdF6OAEHtAEgCRyKDGGOL95q0ul86VkwqEaQtLZRZXHK97sfwQ_nupR9X4glVY-dLdFly3b-ZwgcVNJq6CS8SdUXtgy0vJ55Z49aRT0JGsDyR1a3YNvp9fCLH_3OCjsj-Q70M1bGtkniAWQ_DvlSQqg8Y_Yiekof0BIx3iUCW9sDe6wAQfTrZvRanNvdEPlC11YYQMr0cLwwXL1dkkYtajRIdUtuELTTnjeHJsYMx7RE6Rda5TpddkYXHnrYIOsAZBsiQlmBqIJg5ko30pSW1z2xV7ciRC8BRqZRapGQrUxBs3r4-wE-XsqYU3ta-wPz3jf8zfKs062DTnQHatjGF_WAU1nnWJqzE0rfMBlxR7PUB2t4sbwcgxsL-yVVV-wkh3S7eCV3hQJ0_5JwTBsvzPrk26Ih1ZHhyqefNigscNCwltc1_r5TjDw52KlrBelLIFP7oId-nZijTUjjSpTFk4lMDb_N_YrgzYRZsXhjyT8S4W4ZqYORKVbijWx3Li1D9b2ERMIpIqOq3jN8K_zPf7tURGzRnms6f35HATi9jgmVqKENj25t6W2gJM2GVYukmDdMDCYaqqqHwTIuSx7HFsmYoXgFrwK4a3WXE5K9wByIltN4GBqsjyh13C-TwCO0_vJH2RSvvyrSmxQm6QSvc7dmJ0hHZskbPQ0eNT-kudfle-dMeNE9keZlpQyt6v33L-tKlZFm00]--></g></svg>