<?xml version="1.0" encoding="UTF-8" standalone="no"?><svg xmlns="http://www.w3.org/2000/svg" xmlns:xlink="http://www.w3.org/1999/xlink" contentStyleType="text/css" height="1176px" preserveAspectRatio="none" style="width:802px;height:1176px;background:#FFFFFF;" version="1.1" viewBox="0 0 802 1176" width="802px" zoomAndPan="magnify"><defs/><g><ellipse cx="414" cy="20" fill="#222222" rx="10" ry="10" style="stroke:#222222;stroke-width:1.0;"/><rect fill="none" height="249.9844" style="stroke:#000000;stroke-width:1.5;" width="185" x="326.5" y="40"/><path d="M374.5,40 L374.5,50.6094 L364.5,60.6094 L326.5,60.6094 " fill="none" style="stroke:#000000;stroke-width:1.5;"/><text fill="#000000" font-family="sans-serif" font-size="14" lengthAdjust="spacing" textLength="38" x="329.5" y="55.5332">Inputs</text><polygon fill="#F1F1F1" points="355,77.6094,483,77.6094,473,95.1563,483,112.7031,355,112.7031" style="stroke:#181818;stroke-width:0.5;"/><text fill="#000000" font-family="sans-serif" font-size="12" lengthAdjust="spacing" textLength="98" x="365" y="100.0664">Patient Reference</text><polygon fill="#F1F1F1" points="336.5,132.7031,501.5,132.7031,491.5,150.25,501.5,167.7969,336.5,167.7969" style="stroke:#181818;stroke-width:0.5;"/><text fill="#000000" font-family="sans-serif" font-size="12" lengthAdjust="spacing" textLength="135" x="346.5" y="155.1602">ImagingStudy Reference</text><polygon fill="#F1F1F1" points="336.5,187.7969,501.5,187.7969,491.5,205.3438,501.5,222.8906,336.5,222.8906" style="stroke:#181818;stroke-width:0.5;"/><text fill="#000000" font-family="sans-serif" font-size="12" lengthAdjust="spacing" textLength="135" x="346.5" y="210.2539">ImagingStudy Reference</text><polygon fill="#F1F1F1" points="355.5,242.8906,482.5,242.8906,472.5,260.4375,482.5,277.9844,355.5,277.9844" style="stroke:#181818;stroke-width:0.5;"/><text fill="#000000" font-family="sans-serif" font-size="12" lengthAdjust="spacing" textLength="97" x="365.5" y="265.3477">EquipmentDevice</text><rect fill="#F1F1F1" height="50.1875" style="stroke:#181818;stroke-width:0.5;" width="259" x="284.5" y="358.9023"/><line style="stroke:#181818;stroke-width:0.5;" x1="289.5" x2="289.5" y1="358.9023" y2="409.0898"/><line style="stroke:#181818;stroke-width:0.5;" x1="538.5" x2="538.5" y1="358.9023" y2="409.0898"/><text fill="#000000" font-family="sans-serif" font-size="12" lengthAdjust="spacing" textLength="239" x="294.5" y="381.3594">Create AlgorithmIdentification from TID4019</text><text fill="#000000" font-family="sans-serif" font-size="12" lengthAdjust="spacing" textLength="145" x="297.5" y="396.4531">parent = EquipmentDevice</text><polygon fill="#F1F1F1" points="343.5,439.043,484.5,439.043,494.5,456.5898,484.5,474.1367,343.5,474.1367" style="stroke:#181818;stroke-width:0.5;"/><text fill="#000000" font-family="sans-serif" font-size="12" lengthAdjust="spacing" textLength="121" x="353.5" y="461.5">AlgorithmIdentification</text><polygon fill="#F1F1F1" points="360,309.9844,468,309.9844,480,321.9844,468,333.9844,360,333.9844,348,321.9844,360,309.9844" style="stroke:#181818;stroke-width:0.5;"/><text fill="#000000" font-family="sans-serif" font-size="11" lengthAdjust="spacing" textLength="18" x="418" y="345.4033">yes</text><text fill="#000000" font-family="sans-serif" font-size="11" lengthAdjust="spacing" textLength="108" x="360" y="326.4854">Algorithm Identification</text><polygon fill="#F1F1F1" points="414,494.1367,426,506.1367,414,518.1367,402,506.1367,414,494.1367" style="stroke:#181818;stroke-width:0.5;"/><polygon fill="#F1F1F1" points="102.5,607.1367,200.5,607.1367,212.5,619.1367,200.5,631.1367,102.5,631.1367,90.5,619.1367,102.5,607.1367" style="stroke:#181818;stroke-width:0.5;"/><text fill="#000000" font-family="sans-serif" font-size="11" lengthAdjust="spacing" textLength="18" x="155.5" y="642.5557">yes</text><text fill="#000000" font-family="sans-serif" font-size="11" lengthAdjust="spacing" textLength="98" x="102.5" y="623.6377">Measurement Group</text><rect fill="#F1F1F1" height="35.0938" style="stroke:#181818;stroke-width:0.5;" width="215" x="44" y="664.0557"/><text fill="#000000" font-family="sans-serif" font-size="12" lengthAdjust="spacing" textLength="195" x="54" y="686.5127">Create ImagingMeasurementGroup</text><rect fill="none" height="355.8203" style="stroke:#000000;stroke-width:1.5;" width="203" x="61" y="709.1494"/><path d="M109,709.1494 L109,719.7588 L99,729.7588 L61,729.7588 " fill="none" style="stroke:#000000;stroke-width:1.5;"/><text fill="#000000" font-family="sans-serif" font-size="14" lengthAdjust="spacing" textLength="38" x="64" y="724.6826">Inputs</text><polygon fill="#F1F1F1" points="92.5,746.7588,220.5,746.7588,210.5,764.3057,220.5,781.8525,92.5,781.8525" style="stroke:#181818;stroke-width:0.5;"/><text fill="#000000" font-family="sans-serif" font-size="12" lengthAdjust="spacing" textLength="98" x="102.5" y="769.2158">Patient Reference</text><polygon fill="#F1F1F1" points="74,801.8525,239,801.8525,229,819.3994,239,836.9463,74,836.9463" style="stroke:#181818;stroke-width:0.5;"/><text fill="#000000" font-family="sans-serif" font-size="12" lengthAdjust="spacing" textLength="135" x="84" y="824.3096">ImagingStudy Reference</text><polygon fill="#F1F1F1" points="93,856.9463,220,856.9463,210,874.4932,220,892.04,93,892.04" style="stroke:#181818;stroke-width:0.5;"/><text fill="#000000" font-family="sans-serif" font-size="12" lengthAdjust="spacing" textLength="97" x="103" y="879.4033">EquipmentDevice</text><polygon fill="#F1F1F1" points="81,960.958,232,960.958,222,978.5049,232,996.0518,81,996.0518" style="stroke:#181818;stroke-width:0.5;"/><text fill="#000000" font-family="sans-serif" font-size="12" lengthAdjust="spacing" textLength="121" x="91" y="983.415">AlgorithmIdentification</text><polygon fill="#F1F1F1" points="83,912.04,220,912.04,232,924.04,220,936.04,83,936.04,71,924.04,83,912.04" style="stroke:#181818;stroke-width:0.5;"/><text fill="#000000" font-family="sans-serif" font-size="11" lengthAdjust="spacing" textLength="18" x="155.5" y="947.459">yes</text><text fill="#000000" font-family="sans-serif" font-size="11" lengthAdjust="spacing" textLength="137" x="83" y="928.541">AlgorithmIdentification exists</text><polygon fill="#F1F1F1" points="151.5,1020.9697,163.5,1032.9697,151.5,1044.9697,139.5,1032.9697,151.5,1020.9697" style="stroke:#181818;stroke-width:0.5;"/><polygon fill="#F1F1F1" points="310.5,607.1367,460.5,607.1367,472.5,619.1367,460.5,631.1367,310.5,631.1367,298.5,619.1367,310.5,607.1367" style="stroke:#181818;stroke-width:0.5;"/><text fill="#000000" font-family="sans-serif" font-size="11" lengthAdjust="spacing" textLength="18" x="389.5" y="642.5557">yes</text><text fill="#000000" font-family="sans-serif" font-size="11" lengthAdjust="spacing" textLength="150" x="310.5" y="623.6377">Derived Imaging Measurements</text><rect fill="#F1F1F1" height="35.0938" style="stroke:#181818;stroke-width:0.5;" width="223" x="274" y="664.0557"/><text fill="#000000" font-family="sans-serif" font-size="12" lengthAdjust="spacing" textLength="203" x="284" y="686.5127">Create DerivedImagingMeasurement</text><rect fill="none" height="355.8203" style="stroke:#000000;stroke-width:1.5;" width="203" x="295" y="709.1494"/><path d="M343,709.1494 L343,719.7588 L333,729.7588 L295,729.7588 " fill="none" style="stroke:#000000;stroke-width:1.5;"/><text fill="#000000" font-family="sans-serif" font-size="14" lengthAdjust="spacing" textLength="38" x="298" y="724.6826">Inputs</text><polygon fill="#F1F1F1" points="326.5,746.7588,454.5,746.7588,444.5,764.3057,454.5,781.8525,326.5,781.8525" style="stroke:#181818;stroke-width:0.5;"/><text fill="#000000" font-family="sans-serif" font-size="12" lengthAdjust="spacing" textLength="98" x="336.5" y="769.2158">Patient Reference</text><polygon fill="#F1F1F1" points="308,801.8525,473,801.8525,463,819.3994,473,836.9463,308,836.9463" style="stroke:#181818;stroke-width:0.5;"/><text fill="#000000" font-family="sans-serif" font-size="12" lengthAdjust="spacing" textLength="135" x="318" y="824.3096">ImagingStudy Reference</text><polygon fill="#F1F1F1" points="327,856.9463,454,856.9463,444,874.4932,454,892.04,327,892.04" style="stroke:#181818;stroke-width:0.5;"/><text fill="#000000" font-family="sans-serif" font-size="12" lengthAdjust="spacing" textLength="97" x="337" y="879.4033">EquipmentDevice</text><polygon fill="#F1F1F1" points="315,960.958,466,960.958,456,978.5049,466,996.0518,315,996.0518" style="stroke:#181818;stroke-width:0.5;"/><text fill="#000000" font-family="sans-serif" font-size="12" lengthAdjust="spacing" textLength="121" x="325" y="983.415">AlgorithmIdentification</text><polygon fill="#F1F1F1" points="317,912.04,454,912.04,466,924.04,454,936.04,317,936.04,305,924.04,317,912.04" style="stroke:#181818;stroke-width:0.5;"/><text fill="#000000" font-family="sans-serif" font-size="11" lengthAdjust="spacing" textLength="18" x="389.5" y="947.459">yes</text><text fill="#000000" font-family="sans-serif" font-size="11" lengthAdjust="spacing" textLength="137" x="317" y="928.541">AlgorithmIdentification exists</text><polygon fill="#F1F1F1" points="385.5,1020.9697,397.5,1032.9697,385.5,1044.9697,373.5,1032.9697,385.5,1020.9697" style="stroke:#181818;stroke-width:0.5;"/><polygon fill="#F1F1F1" points="577,607.1367,685,607.1367,697,619.1367,685,631.1367,577,631.1367,565,619.1367,577,607.1367" style="stroke:#181818;stroke-width:0.5;"/><text fill="#000000" font-family="sans-serif" font-size="11" lengthAdjust="spacing" textLength="18" x="635" y="642.5557">yes</text><text fill="#000000" font-family="sans-serif" font-size="11" lengthAdjust="spacing" textLength="108" x="577" y="623.6377">Qualitative Evaluations</text><rect fill="#F1F1F1" height="35.0938" style="stroke:#181818;stroke-width:0.5;" width="226" x="518" y="664.0557"/><text fill="#000000" font-family="sans-serif" font-size="12" lengthAdjust="spacing" textLength="206" x="528" y="686.5127">Create ImagingQualitativeEvaluations</text><rect fill="none" height="412.9961" style="stroke:#000000;stroke-width:1.5;" width="203" x="540.5" y="709.1494"/><path d="M588.5,709.1494 L588.5,719.7588 L578.5,729.7588 L540.5,729.7588 " fill="none" style="stroke:#000000;stroke-width:1.5;"/><text fill="#000000" font-family="sans-serif" font-size="14" lengthAdjust="spacing" textLength="38" x="543.5" y="724.6826">Inputs</text><polygon fill="#F1F1F1" points="572,746.7588,700,746.7588,690,764.3057,700,781.8525,572,781.8525" style="stroke:#181818;stroke-width:0.5;"/><text fill="#000000" font-family="sans-serif" font-size="12" lengthAdjust="spacing" textLength="98" x="582" y="769.2158">Patient Reference</text><polygon fill="#F1F1F1" points="553.5,801.8525,718.5,801.8525,708.5,819.3994,718.5,836.9463,553.5,836.9463" style="stroke:#181818;stroke-width:0.5;"/><text fill="#000000" font-family="sans-serif" font-size="12" lengthAdjust="spacing" textLength="135" x="563.5" y="824.3096">ImagingStudy Reference</text><polygon fill="#F1F1F1" points="553.5,856.9463,718.5,856.9463,708.5,874.4932,718.5,892.04,553.5,892.04" style="stroke:#181818;stroke-width:0.5;"/><text fill="#000000" font-family="sans-serif" font-size="12" lengthAdjust="spacing" textLength="135" x="563.5" y="879.4033">ImagingStudy Reference</text><polygon fill="#F1F1F1" points="572.5,912.04,699.5,912.04,689.5,929.5869,699.5,947.1338,572.5,947.1338" style="stroke:#181818;stroke-width:0.5;"/><text fill="#000000" font-family="sans-serif" font-size="12" lengthAdjust="spacing" textLength="97" x="582.5" y="934.4971">EquipmentDevice</text><polygon fill="#F1F1F1" points="560.5,1031.0518,711.5,1031.0518,701.5,1048.5986,711.5,1066.1455,560.5,1066.1455" style="stroke:#181818;stroke-width:0.5;"/><text fill="#000000" font-family="sans-serif" font-size="12" lengthAdjust="spacing" textLength="121" x="570.5" y="1053.5088">AlgorithmIdentification</text><polygon fill="#F1F1F1" points="562.5,982.1338,699.5,982.1338,711.5,994.1338,699.5,1006.1338,562.5,1006.1338,550.5,994.1338,562.5,982.1338" style="stroke:#181818;stroke-width:0.5;"/><text fill="#000000" font-family="sans-serif" font-size="11" lengthAdjust="spacing" textLength="18" x="635" y="1017.5527">yes</text><text fill="#000000" font-family="sans-serif" font-size="11" lengthAdjust="spacing" textLength="137" x="562.5" y="998.6348">AlgorithmIdentification exists</text><polygon fill="#F1F1F1" points="631,1086.1455,643,1098.1455,631,1110.1455,619,1098.1455,631,1086.1455" style="stroke:#181818;stroke-width:0.5;"/><polygon fill="#F1F1F1" points="293,538.1367,535,538.1367,547,550.1367,535,562.1367,293,562.1367,281,550.1367,293,538.1367" style="stroke:#181818;stroke-width:0.5;"/><text fill="#000000" font-family="sans-serif" font-size="11" lengthAdjust="spacing" textLength="242" x="293" y="554.6377">For each child of Imaging Measurements container</text><ellipse cx="24" cy="592.1367" fill="none" rx="10" ry="10" style="stroke:#222222;stroke-width:1.5;"/><line style="stroke:#222222;stroke-width:2.5;" x1="17.8128" x2="30.1872" y1="585.9495" y2="598.3239"/><line style="stroke:#222222;stroke-width:2.5;" x1="30.1872" x2="17.8128" y1="585.9495" y2="598.3239"/><line style="stroke:#181818;stroke-width:1.0;" x1="414" x2="414" y1="112.7031" y2="132.7031"/><polygon fill="#181818" points="410,122.7031,414,132.7031,418,122.7031,414,126.7031" style="stroke:#181818;stroke-width:1.0;"/><line style="stroke:#181818;stroke-width:1.0;" x1="414" x2="414" y1="167.7969" y2="187.7969"/><polygon fill="#181818" points="410,177.7969,414,187.7969,418,177.7969,414,181.7969" style="stroke:#181818;stroke-width:1.0;"/><line style="stroke:#181818;stroke-width:1.0;" x1="414" x2="414" y1="222.8906" y2="242.8906"/><polygon fill="#181818" points="410,232.8906,414,242.8906,418,232.8906,414,236.8906" style="stroke:#181818;stroke-width:1.0;"/><line style="stroke:#181818;stroke-width:1.0;" x1="414" x2="414" y1="30" y2="77.6094"/><polygon fill="#181818" points="410,67.6094,414,77.6094,418,67.6094,414,71.6094" style="stroke:#181818;stroke-width:1.0;"/><line style="stroke:#181818;stroke-width:1.0;" x1="414" x2="414" y1="409.0898" y2="439.043"/><polygon fill="#181818" points="410,429.043,414,439.043,418,429.043,414,433.043" style="stroke:#181818;stroke-width:1.0;"/><line style="stroke:#181818;stroke-width:1.0;" x1="414" x2="414" y1="333.9844" y2="358.9023"/><polygon fill="#181818" points="410,348.9023,414,358.9023,418,348.9023,414,352.9023" style="stroke:#181818;stroke-width:1.0;"/><line style="stroke:#181818;stroke-width:1.0;" x1="480" x2="553.5" y1="321.9844" y2="321.9844"/><polygon fill="#181818" points="549.5,409.043,553.5,419.043,557.5,409.043,553.5,413.043" style="stroke:#181818;stroke-width:1.0;"/><line style="stroke:#181818;stroke-width:1.0;" x1="553.5" x2="553.5" y1="321.9844" y2="506.1367"/><line style="stroke:#181818;stroke-width:1.0;" x1="553.5" x2="426" y1="506.1367" y2="506.1367"/><polygon fill="#181818" points="436,502.1367,426,506.1367,436,510.1367,432,506.1367" style="stroke:#181818;stroke-width:1.0;"/><line style="stroke:#181818;stroke-width:1.0;" x1="414" x2="414" y1="474.1367" y2="494.1367"/><polygon fill="#181818" points="410,484.1367,414,494.1367,418,484.1367,414,488.1367" style="stroke:#181818;stroke-width:1.0;"/><line style="stroke:#181818;stroke-width:1.0;" x1="414" x2="414" y1="277.9844" y2="309.9844"/><polygon fill="#181818" points="410,299.9844,414,309.9844,418,299.9844,414,303.9844" style="stroke:#181818;stroke-width:1.0;"/><line style="stroke:#181818;stroke-width:1.0;" x1="151.5" x2="151.5" y1="781.8525" y2="801.8525"/><polygon fill="#181818" points="147.5,791.8525,151.5,801.8525,155.5,791.8525,151.5,795.8525" style="stroke:#181818;stroke-width:1.0;"/><line style="stroke:#181818;stroke-width:1.0;" x1="151.5" x2="151.5" y1="836.9463" y2="856.9463"/><polygon fill="#181818" points="147.5,846.9463,151.5,856.9463,155.5,846.9463,151.5,850.9463" style="stroke:#181818;stroke-width:1.0;"/><line style="stroke:#181818;stroke-width:1.0;" x1="151.5" x2="151.5" y1="936.04" y2="960.958"/><polygon fill="#181818" points="147.5,950.958,151.5,960.958,155.5,950.958,151.5,954.958" style="stroke:#181818;stroke-width:1.0;"/><line style="stroke:#181818;stroke-width:1.0;" x1="232" x2="244" y1="924.04" y2="924.04"/><polygon fill="#181818" points="240,968.5049,244,978.5049,248,968.5049,244,972.5049" style="stroke:#181818;stroke-width:1.0;"/><line style="stroke:#181818;stroke-width:1.0;" x1="244" x2="244" y1="924.04" y2="1032.9697"/><line style="stroke:#181818;stroke-width:1.0;" x1="244" x2="163.5" y1="1032.9697" y2="1032.9697"/><polygon fill="#181818" points="173.5,1028.9697,163.5,1032.9697,173.5,1036.9697,169.5,1032.9697" style="stroke:#181818;stroke-width:1.0;"/><line style="stroke:#181818;stroke-width:1.0;" x1="151.5" x2="151.5" y1="996.0518" y2="1020.9697"/><polygon fill="#181818" points="147.5,1010.9697,151.5,1020.9697,155.5,1010.9697,151.5,1014.9697" style="stroke:#181818;stroke-width:1.0;"/><line style="stroke:#181818;stroke-width:1.0;" x1="151.5" x2="151.5" y1="892.04" y2="912.04"/><polygon fill="#181818" points="147.5,902.04,151.5,912.04,155.5,902.04,151.5,906.04" style="stroke:#181818;stroke-width:1.0;"/><line style="stroke:#181818;stroke-width:1.0;" x1="151.5" x2="151.5" y1="699.1494" y2="746.7588"/><polygon fill="#181818" points="147.5,736.7588,151.5,746.7588,155.5,736.7588,151.5,740.7588" style="stroke:#181818;stroke-width:1.0;"/><line style="stroke:#181818;stroke-width:1.0;" x1="385.5" x2="385.5" y1="781.8525" y2="801.8525"/><polygon fill="#181818" points="381.5,791.8525,385.5,801.8525,389.5,791.8525,385.5,795.8525" style="stroke:#181818;stroke-width:1.0;"/><line style="stroke:#181818;stroke-width:1.0;" x1="385.5" x2="385.5" y1="836.9463" y2="856.9463"/><polygon fill="#181818" points="381.5,846.9463,385.5,856.9463,389.5,846.9463,385.5,850.9463" style="stroke:#181818;stroke-width:1.0;"/><line style="stroke:#181818;stroke-width:1.0;" x1="385.5" x2="385.5" y1="936.04" y2="960.958"/><polygon fill="#181818" points="381.5,950.958,385.5,960.958,389.5,950.958,385.5,954.958" style="stroke:#181818;stroke-width:1.0;"/><line style="stroke:#181818;stroke-width:1.0;" x1="466" x2="478" y1="924.04" y2="924.04"/><polygon fill="#181818" points="474,968.5049,478,978.5049,482,968.5049,478,972.5049" style="stroke:#181818;stroke-width:1.0;"/><line style="stroke:#181818;stroke-width:1.0;" x1="478" x2="478" y1="924.04" y2="1032.9697"/><line style="stroke:#181818;stroke-width:1.0;" x1="478" x2="397.5" y1="1032.9697" y2="1032.9697"/><polygon fill="#181818" points="407.5,1028.9697,397.5,1032.9697,407.5,1036.9697,403.5,1032.9697" style="stroke:#181818;stroke-width:1.0;"/><line style="stroke:#181818;stroke-width:1.0;" x1="385.5" x2="385.5" y1="996.0518" y2="1020.9697"/><polygon fill="#181818" points="381.5,1010.9697,385.5,1020.9697,389.5,1010.9697,385.5,1014.9697" style="stroke:#181818;stroke-width:1.0;"/><line style="stroke:#181818;stroke-width:1.0;" x1="385.5" x2="385.5" y1="892.04" y2="912.04"/><polygon fill="#181818" points="381.5,902.04,385.5,912.04,389.5,902.04,385.5,906.04" style="stroke:#181818;stroke-width:1.0;"/><line style="stroke:#181818;stroke-width:1.0;" x1="385.5" x2="385.5" y1="699.1494" y2="746.7588"/><polygon fill="#181818" points="381.5,736.7588,385.5,746.7588,389.5,736.7588,385.5,740.7588" style="stroke:#181818;stroke-width:1.0;"/><line style="stroke:#181818;stroke-width:1.0;" x1="631" x2="631" y1="781.8525" y2="801.8525"/><polygon fill="#181818" points="627,791.8525,631,801.8525,635,791.8525,631,795.8525" style="stroke:#181818;stroke-width:1.0;"/><line style="stroke:#181818;stroke-width:1.0;" x1="631" x2="631" y1="836.9463" y2="856.9463"/><polygon fill="#181818" points="627,846.9463,631,856.9463,635,846.9463,631,850.9463" style="stroke:#181818;stroke-width:1.0;"/><line style="stroke:#181818;stroke-width:1.0;" x1="631" x2="631" y1="892.04" y2="912.04"/><polygon fill="#181818" points="627,902.04,631,912.04,635,902.04,631,906.04" style="stroke:#181818;stroke-width:1.0;"/><line style="stroke:#181818;stroke-width:1.0;" x1="631" x2="631" y1="1006.1338" y2="1031.0518"/><polygon fill="#181818" points="627,1021.0518,631,1031.0518,635,1021.0518,631,1025.0518" style="stroke:#181818;stroke-width:1.0;"/><line style="stroke:#181818;stroke-width:1.0;" x1="711.5" x2="723.5" y1="994.1338" y2="994.1338"/><polygon fill="#181818" points="719.5,1038.5986,723.5,1048.5986,727.5,1038.5986,723.5,1042.5986" style="stroke:#181818;stroke-width:1.0;"/><line style="stroke:#181818;stroke-width:1.0;" x1="723.5" x2="723.5" y1="994.1338" y2="1098.1455"/><line style="stroke:#181818;stroke-width:1.0;" x1="723.5" x2="643" y1="1098.1455" y2="1098.1455"/><polygon fill="#181818" points="653,1094.1455,643,1098.1455,653,1102.1455,649,1098.1455" style="stroke:#181818;stroke-width:1.0;"/><line style="stroke:#181818;stroke-width:1.0;" x1="631" x2="631" y1="1066.1455" y2="1086.1455"/><polygon fill="#181818" points="627,1076.1455,631,1086.1455,635,1076.1455,631,1080.1455" style="stroke:#181818;stroke-width:1.0;"/><line style="stroke:#181818;stroke-width:1.0;" x1="631" x2="631" y1="947.1338" y2="982.1338"/><polygon fill="#181818" points="627,972.1338,631,982.1338,635,972.1338,631,976.1338" style="stroke:#181818;stroke-width:1.0;"/><line style="stroke:#181818;stroke-width:1.0;" x1="631" x2="631" y1="699.1494" y2="746.7588"/><polygon fill="#181818" points="627,736.7588,631,746.7588,635,736.7588,631,740.7588" style="stroke:#181818;stroke-width:1.0;"/><line style="stroke:#181818;stroke-width:1.0;" x1="151.5" x2="151.5" y1="631.1367" y2="664.0557"/><polygon fill="#181818" points="147.5,654.0557,151.5,664.0557,155.5,654.0557,151.5,658.0557" style="stroke:#181818;stroke-width:1.0;"/><line style="stroke:#181818;stroke-width:1.0;" x1="151.5" x2="151.5" y1="1044.9697" y2="1142.1455"/><polygon fill="#181818" points="147.5,1132.1455,151.5,1142.1455,155.5,1132.1455,151.5,1136.1455" style="stroke:#181818;stroke-width:1.0;"/><line style="stroke:#181818;stroke-width:1.0;" x1="385.5" x2="385.5" y1="631.1367" y2="664.0557"/><polygon fill="#181818" points="381.5,654.0557,385.5,664.0557,389.5,654.0557,385.5,658.0557" style="stroke:#181818;stroke-width:1.0;"/><line style="stroke:#181818;stroke-width:1.0;" x1="385.5" x2="385.5" y1="1044.9697" y2="1142.1455"/><polygon fill="#181818" points="381.5,1132.1455,385.5,1142.1455,389.5,1132.1455,385.5,1136.1455" style="stroke:#181818;stroke-width:1.0;"/><line style="stroke:#181818;stroke-width:1.0;" x1="631" x2="631" y1="631.1367" y2="664.0557"/><polygon fill="#181818" points="627,654.0557,631,664.0557,635,654.0557,631,658.0557" style="stroke:#181818;stroke-width:1.0;"/><line style="stroke:#181818;stroke-width:1.0;" x1="631" x2="631" y1="1110.1455" y2="1142.1455"/><polygon fill="#181818" points="627,1132.1455,631,1142.1455,635,1132.1455,631,1136.1455" style="stroke:#181818;stroke-width:1.0;"/><line style="stroke:#181818;stroke-width:1.0;" x1="212.5" x2="298.5" y1="619.1367" y2="619.1367"/><polygon fill="#181818" points="288.5,615.1367,298.5,619.1367,288.5,623.1367,292.5,619.1367" style="stroke:#181818;stroke-width:1.0;"/><line style="stroke:#181818;stroke-width:1.0;" x1="472.5" x2="565" y1="619.1367" y2="619.1367"/><polygon fill="#181818" points="555,615.1367,565,619.1367,555,623.1367,559,619.1367" style="stroke:#181818;stroke-width:1.0;"/><line style="stroke:#181818;stroke-width:1.0;" x1="414" x2="414" y1="562.1367" y2="582.1367"/><line style="stroke:#181818;stroke-width:1.0;" x1="414" x2="151.5" y1="582.1367" y2="582.1367"/><line style="stroke:#181818;stroke-width:1.0;" x1="151.5" x2="151.5" y1="582.1367" y2="607.1367"/><polygon fill="#181818" points="147.5,597.1367,151.5,607.1367,155.5,597.1367,151.5,601.1367" style="stroke:#181818;stroke-width:1.0;"/><line style="stroke:#181818;stroke-width:1.0;" x1="697" x2="758" y1="619.1367" y2="619.1367"/><line style="stroke:#181818;stroke-width:1.0;" x1="758" x2="758" y1="619.1367" y2="1142.1455"/><polygon fill="#181818" points="754,1132.1455,758,1142.1455,762,1132.1455,758,1136.1455" style="stroke:#181818;stroke-width:1.0;"/><line style="stroke:#181818;stroke-width:1.0;" x1="151.5" x2="758" y1="1142.1455" y2="1142.1455"/><line style="stroke:#181818;stroke-width:1.0;" x1="414" x2="414" y1="1142.1455" y2="1152.1455"/><line style="stroke:#181818;stroke-width:1.0;" x1="414" x2="776" y1="1152.1455" y2="1152.1455"/><polygon fill="#181818" points="772,873.6416,776,863.6416,780,873.6416,776,869.6416" style="stroke:#181818;stroke-width:1.0;"/><line style="stroke:#181818;stroke-width:1.0;" x1="776" x2="776" y1="550.1367" y2="1152.1455"/><line style="stroke:#181818;stroke-width:1.0;" x1="776" x2="547" y1="550.1367" y2="550.1367"/><polygon fill="#181818" points="557,546.1367,547,550.1367,557,554.1367,553,550.1367" style="stroke:#181818;stroke-width:1.0;"/><line style="stroke:#181818;stroke-width:1.0;" x1="281" x2="24" y1="550.1367" y2="550.1367"/><line style="stroke:#181818;stroke-width:1.0;" x1="24" x2="24" y1="550.1367" y2="582.1367"/><polygon fill="#181818" points="20,572.1367,24,582.1367,28,572.1367,24,576.1367" style="stroke:#181818;stroke-width:1.0;"/><line style="stroke:#181818;stroke-width:1.0;" x1="414" x2="414" y1="518.1367" y2="538.1367"/><polygon fill="#181818" points="410,528.1367,414,538.1367,418,528.1367,414,532.1367" style="stroke:#181818;stroke-width:1.0;"/><!--MD5=[7f5d3de88b46bf7d83f2c29eced1feb8]
@startuml imaging_measurements_workflow
start

partition "Inputs" {
    :Patient Reference<
    :ImagingStudy Reference<
    :ImagingStudy Reference<
    :EquipmentDevice<
}

if (Algorithm Identification) then (yes)
:Create AlgorithmIdentification from TID4019
 parent = EquipmentDevice|
:AlgorithmIdentification>
endif

while (For each child of Imaging Measurements container)
 if (Measurement Group) then (yes)
 :Create ImagingMeasurementGroup]
 partition "Inputs" {
    :Patient Reference<
    :ImagingStudy Reference<
    :EquipmentDevice<
    if (AlgorithmIdentification exists) then (yes)
     :AlgorithmIdentification<
    endif
    }
 elseif (Derived Imaging Measurements) then (yes)
 :Create DerivedImagingMeasurement]
 partition "Inputs" {
    :Patient Reference<
    :ImagingStudy Reference<
    :EquipmentDevice<
    if (AlgorithmIdentification exists) then (yes)
     :AlgorithmIdentification<
    endif
    }
 elseif (Qualitative Evaluations) then (yes)
 :Create ImagingQualitativeEvaluations]
 partition "Inputs" {
    :Patient Reference<
    :ImagingStudy Reference<
    :ImagingStudy Reference<
    :EquipmentDevice<
    if (AlgorithmIdentification exists) then (yes)
     :AlgorithmIdentification<
    endif
    }
 endif
endwhile

end

@enduml

PlantUML version 1.2022.7(Mon Aug 22 13:01:30 EDT 2022)
(GPL source distribution)
Java Runtime: Java(TM) SE Runtime Environment
JVM: Java HotSpot(TM) 64-Bit Server VM
Default Encoding: Cp1252
Language: en
Country: US
--></g></svg>