<?xml version="1.0" encoding="us-ascii" standalone="no"?><svg xmlns="http://www.w3.org/2000/svg" xmlns:xlink="http://www.w3.org/1999/xlink" contentStyleType="text/css" height="829px" preserveAspectRatio="none" style="width:1430px;height:829px;background:#FFFFFF;" version="1.1" viewBox="0 0 1430 829" width="1430px" zoomAndPan="magnify"><defs/><g><!--cluster imagingMeasurement--><g id="cluster_imagingMeasurement"><path d="M864.5,6 L1017.5,6 A3.75,3.75 0 0 1 1020,8.5 L1027,29.6094 L1158.5,29.6094 A2.5,2.5 0 0 1 1161,32.1094 L1161,518.5 A2.5,2.5 0 0 1 1158.5,521 L864.5,521 A2.5,2.5 0 0 1 862,518.5 L862,8.5 A2.5,2.5 0 0 1 864.5,6 " fill="none" style="stroke:#000000;stroke-width:1.5;"/><line style="stroke:#000000;stroke-width:1.5;" x1="862" x2="1027" y1="29.6094" y2="29.6094"/><text fill="#000000" font-family="sans-serif" font-size="14" font-weight="bold" lengthAdjust="spacing" textLength="152" x="866" y="22.5332">ImagingMeasurement</text></g><g id="elem_measurement"><rect fill="#F1F1F1" height="37.6094" style="stroke:#181818;stroke-width:0.5;" width="108" x="957" y="221"/><text fill="#000000" font-family="sans-serif" font-size="14" lengthAdjust="spacing" textLength="94" x="964" y="237.5332">$Measurement</text><line style="stroke:#181818;stroke-width:0.5;" x1="958" x2="1064" y1="242.6094" y2="242.6094"/></g><g id="elem_method"><rect fill="#F1F1F1" height="37.6094" style="stroke:#181818;stroke-width:0.5;" width="151" x="935.5" y="294"/><text fill="#000000" font-family="sans-serif" font-size="14" lengthAdjust="spacing" textLength="137" x="942.5" y="310.5332">Measurement Method</text><line style="stroke:#181818;stroke-width:0.5;" x1="936.5" x2="1085.5" y1="315.6094" y2="315.6094"/></g><g id="elem_findingSite"><rect fill="#F1F1F1" height="37.6094" style="stroke:#181818;stroke-width:0.5;" width="89" x="966.5" y="367"/><text fill="#000000" font-family="sans-serif" font-size="14" lengthAdjust="spacing" textLength="75" x="973.5" y="383.5332">Finding Site</text><line style="stroke:#181818;stroke-width:0.5;" x1="967.5" x2="1054.5" y1="388.6094" y2="388.6094"/></g><g id="elem_algorithm"><rect fill="#F1F1F1" height="37.6094" style="stroke:#181818;stroke-width:0.5;" width="156" x="933" y="440"/><text fill="#000000" font-family="sans-serif" font-size="14" lengthAdjust="spacing" textLength="142" x="940" y="456.5332">Algorithm Identification</text><line style="stroke:#181818;stroke-width:0.5;" x1="934" x2="1088" y1="461.6094" y2="461.6094"/></g><g id="elem_inputs"><rect fill="#F1F1F1" height="151.2656" style="stroke:#181818;stroke-width:0.5;" width="382" x="7" y="500.5"/><text fill="#000000" font-family="sans-serif" font-size="14" lengthAdjust="spacing" textLength="38" x="179" y="517.0332">inputs</text><line style="stroke:#181818;stroke-width:1.0;" x1="7" x2="389" y1="522.1094" y2="522.1094"/><text fill="#000000" font-family="sans-serif" font-size="14" lengthAdjust="spacing" textLength="45" x="34" y="538.6426">subject</text><text fill="#000000" font-family="sans-serif" font-size="14" lengthAdjust="spacing" textLength="44" x="111" y="538.6426">Patient</text><line style="stroke:#181818;stroke-width:1.0;" x1="106" x2="106" y1="522.1094" y2="543.7188"/><line style="stroke:#181818;stroke-width:1.0;" x1="7" x2="389" y1="543.7188" y2="543.7188"/><text fill="#000000" font-family="sans-serif" font-size="14" lengthAdjust="spacing" textLength="40" x="36.5" y="560.252">partOf</text><text fill="#000000" font-family="sans-serif" font-size="14" lengthAdjust="spacing" textLength="85" x="111" y="560.252">ImagingStudy</text><line style="stroke:#181818;stroke-width:1.0;" x1="106" x2="106" y1="543.7188" y2="565.3281"/><line style="stroke:#181818;stroke-width:1.0;" x1="7" x2="389" y1="565.3281" y2="565.3281"/><text fill="#000000" font-family="sans-serif" font-size="14" lengthAdjust="spacing" textLength="58" x="27.5" y="581.8613">basedOn</text><text fill="#000000" font-family="sans-serif" font-size="14" lengthAdjust="spacing" textLength="100" x="111" y="581.8613">ServiceRequest</text><line style="stroke:#181818;stroke-width:1.0;" x1="106" x2="106" y1="565.3281" y2="586.9375"/><line style="stroke:#181818;stroke-width:1.0;" x1="7" x2="389" y1="586.9375" y2="586.9375"/><text fill="#000000" font-family="sans-serif" font-size="14" lengthAdjust="spacing" textLength="34" x="39.5" y="603.4707">focus</text><text fill="#000000" font-family="sans-serif" font-size="14" lengthAdjust="spacing" textLength="107" x="111" y="603.4707">ImagingSelection</text><line style="stroke:#181818;stroke-width:1.0;" x1="106" x2="106" y1="586.9375" y2="608.5469"/><line style="stroke:#181818;stroke-width:1.0;" x1="7" x2="389" y1="608.5469" y2="608.5469"/><text fill="#000000" font-family="sans-serif" font-size="14" lengthAdjust="spacing" textLength="89" x="12" y="625.0801">bodyStructure</text><text fill="#000000" font-family="sans-serif" font-size="14" lengthAdjust="spacing" textLength="71" x="111" y="625.0801">FindingSite</text><line style="stroke:#181818;stroke-width:1.0;" x1="106" x2="106" y1="608.5469" y2="630.1563"/><line style="stroke:#181818;stroke-width:1.0;" x1="7" x2="389" y1="630.1563" y2="630.1563"/><text fill="#000000" font-family="sans-serif" font-size="14" lengthAdjust="spacing" textLength="41" x="36" y="646.6895">device</text><text fill="#000000" font-family="sans-serif" font-size="14" lengthAdjust="spacing" textLength="273" x="111" y="646.6895">Algorithm Identification or EquipmentDevice</text><line style="stroke:#181818;stroke-width:1.0;" x1="106" x2="106" y1="630.1563" y2="651.7656"/></g><g id="elem_AlgorithmIdentification"><rect fill="#F1F1F1" height="47.2188" style="stroke:#181818;stroke-width:0.5;" width="342" x="27" y="414.5"/><text fill="#000000" font-family="sans-serif" font-size="14" lengthAdjust="spacing" textLength="138" x="129" y="431.0332">AlgorithmIdentification</text><line style="stroke:#181818;stroke-width:0.5;" x1="28" x2="368" y1="436.1094" y2="436.1094"/><text fill="#000000" font-family="sans-serif" font-size="14" lengthAdjust="spacing" textLength="330" x="33" y="454.6426">parent = Algorithm Identification or EquipmentDevice</text></g><g id="elem_FindingSite"><rect fill="#F1F1F1" height="47.2188" style="stroke:#181818;stroke-width:0.5;" width="270" x="63" y="332.5"/><text fill="#000000" font-family="sans-serif" font-size="14" lengthAdjust="spacing" textLength="71" x="162.5" y="349.0332">FindingSite</text><line style="stroke:#181818;stroke-width:0.5;" x1="64" x2="332" y1="354.1094" y2="354.1094"/><text fill="#000000" font-family="sans-serif" font-size="14" lengthAdjust="spacing" textLength="258" x="69" y="372.6426">includedStructure.structure = FindingSite</text></g><!--class TrackingBodyStructure--><g id="elem_TrackingBodyStructure"><rect fill="#F1F1F1" height="48" id="TrackingBodyStructure" rx="2.5" ry="2.5" style="stroke:#181818;stroke-width:0.5;" width="177" x="109.5" y="691"/><ellipse cx="124.5" cy="707" fill="#ADD1B2" rx="11" ry="11" style="stroke:#181818;stroke-width:1.0;"/><path d="M126.5,703.5 Q126.7031,703 126.9375,702.75 Q127.1719,702.5 127.4375,702.5 Q127.9063,702.5 128.2031,702.7813 Q128.5,703.0625 128.5,703.7188 L128.5,705.2813 Q128.5,705.9375 128.2188,706.2188 Q127.9375,706.5 127.5,706.5 Q127.1094,706.5 126.8594,706.3281 Q126.6094,706.1563 126.5,705.7031 Q126.4531,705.3906 126.2813,705.2188 Q125.9688,704.8906 125.4063,704.7031 Q124.8438,704.5 124.2813,704.5 Q123.5781,704.5 122.9844,704.7813 Q122.4063,705.0625 121.9531,705.6875 Q121.5,706.3125 121.5,707.1719 L121.5,708.0938 Q121.5,709.125 122.3438,709.8125 Q123.1875,710.5 124.6875,710.5 Q125.5781,710.5 126.2031,710.2969 Q126.5625,710.1875 126.9688,709.8281 Q127.2344,709.625 127.375,709.5625 Q127.5156,709.5 127.6875,709.5 Q128.0156,709.5 128.25,709.7656 Q128.5,710.0156 128.5,710.375 Q128.5,710.7188 128.1563,711.125 Q127.6563,711.7188 126.8594,712.0469 Q125.8125,712.5 124.5313,712.5 Q123.0313,712.5 121.8281,711.9063 Q120.8594,711.4375 120.1719,710.4219 Q119.5,709.4063 119.5,708.2031 L119.5,707.1094 Q119.5,705.8594 120.0938,704.7656 Q120.7031,703.6719 121.75,703.0938 Q122.8125,702.5 124,702.5 Q124.7188,702.5 125.3438,702.75 Q125.9688,703 126.5,703.5 Z " fill="#000000"/><text fill="#000000" font-family="sans-serif" font-size="14" lengthAdjust="spacing" textLength="145" x="138.5" y="712.7285">TrackingBodyStructure</text><line style="stroke:#181818;stroke-width:0.5;" x1="110.5" x2="285.5" y1="723" y2="723"/><line style="stroke:#181818;stroke-width:0.5;" x1="110.5" x2="285.5" y1="731" y2="731"/></g><!--class ImagingSelection--><g id="elem_ImagingSelection"><rect fill="#F1F1F1" height="48" id="ImagingSelection" rx="2.5" ry="2.5" style="stroke:#181818;stroke-width:0.5;" width="139" x="128.5" y="774"/><ellipse cx="143.5" cy="790" fill="#ADD1B2" rx="11" ry="11" style="stroke:#181818;stroke-width:1.0;"/><path d="M145.5,786.5 Q145.7031,786 145.9375,785.75 Q146.1719,785.5 146.4375,785.5 Q146.9063,785.5 147.2031,785.7813 Q147.5,786.0625 147.5,786.7188 L147.5,788.2813 Q147.5,788.9375 147.2188,789.2188 Q146.9375,789.5 146.5,789.5 Q146.1094,789.5 145.8594,789.3281 Q145.6094,789.1563 145.5,788.7031 Q145.4531,788.3906 145.2813,788.2188 Q144.9688,787.8906 144.4063,787.7031 Q143.8438,787.5 143.2813,787.5 Q142.5781,787.5 141.9844,787.7813 Q141.4063,788.0625 140.9531,788.6875 Q140.5,789.3125 140.5,790.1719 L140.5,791.0938 Q140.5,792.125 141.3438,792.8125 Q142.1875,793.5 143.6875,793.5 Q144.5781,793.5 145.2031,793.2969 Q145.5625,793.1875 145.9688,792.8281 Q146.2344,792.625 146.375,792.5625 Q146.5156,792.5 146.6875,792.5 Q147.0156,792.5 147.25,792.7656 Q147.5,793.0156 147.5,793.375 Q147.5,793.7188 147.1563,794.125 Q146.6563,794.7188 145.8594,795.0469 Q144.8125,795.5 143.5313,795.5 Q142.0313,795.5 140.8281,794.9063 Q139.8594,794.4375 139.1719,793.4219 Q138.5,792.4063 138.5,791.2031 L138.5,790.1094 Q138.5,788.8594 139.0938,787.7656 Q139.7031,786.6719 140.75,786.0938 Q141.8125,785.5 143,785.5 Q143.7188,785.5 144.3438,785.75 Q144.9688,786 145.5,786.5 Z " fill="#000000"/><text fill="#000000" font-family="sans-serif" font-size="14" lengthAdjust="spacing" textLength="107" x="157.5" y="795.7285">ImagingSelection</text><line style="stroke:#181818;stroke-width:0.5;" x1="129.5" x2="266.5" y1="806" y2="806"/><line style="stroke:#181818;stroke-width:0.5;" x1="129.5" x2="266.5" y1="814" y2="814"/></g><!--class imagingMeasurementGroup--><g id="elem_imagingMeasurementGroup"><rect fill="#F1F1F1" height="48" id="imagingMeasurementGroup" rx="2.5" ry="2.5" style="stroke:#181818;stroke-width:0.5;" width="207" x="1216" y="289"/><ellipse cx="1231" cy="305" fill="#ADD1B2" rx="11" ry="11" style="stroke:#181818;stroke-width:1.0;"/><path d="M1233,301.5 Q1233.2031,301 1233.4375,300.75 Q1233.6719,300.5 1233.9375,300.5 Q1234.4063,300.5 1234.7031,300.7813 Q1235,301.0625 1235,301.7188 L1235,303.2813 Q1235,303.9375 1234.7188,304.2188 Q1234.4375,304.5 1234,304.5 Q1233.6094,304.5 1233.3594,304.3281 Q1233.1094,304.1563 1233,303.7031 Q1232.9531,303.3906 1232.7813,303.2188 Q1232.4688,302.8906 1231.9063,302.7031 Q1231.3438,302.5 1230.7813,302.5 Q1230.0781,302.5 1229.4844,302.7813 Q1228.9063,303.0625 1228.4531,303.6875 Q1228,304.3125 1228,305.1719 L1228,306.0938 Q1228,307.125 1228.8438,307.8125 Q1229.6875,308.5 1231.1875,308.5 Q1232.0781,308.5 1232.7031,308.2969 Q1233.0625,308.1875 1233.4688,307.8281 Q1233.7344,307.625 1233.875,307.5625 Q1234.0156,307.5 1234.1875,307.5 Q1234.5156,307.5 1234.75,307.7656 Q1235,308.0156 1235,308.375 Q1235,308.7188 1234.6563,309.125 Q1234.1563,309.7188 1233.3594,310.0469 Q1232.3125,310.5 1231.0313,310.5 Q1229.5313,310.5 1228.3281,309.9063 Q1227.3594,309.4375 1226.6719,308.4219 Q1226,307.4063 1226,306.2031 L1226,305.1094 Q1226,303.8594 1226.5938,302.7656 Q1227.2031,301.6719 1228.25,301.0938 Q1229.3125,300.5 1230.5,300.5 Q1231.2188,300.5 1231.8438,300.75 Q1232.4688,301 1233,301.5 Z " fill="#000000"/><text fill="#000000" font-family="sans-serif" font-size="14" lengthAdjust="spacing" textLength="175" x="1245" y="310.7285">imagingMeasurementGroup</text><line style="stroke:#181818;stroke-width:0.5;" x1="1217" x2="1422" y1="321" y2="321"/><line style="stroke:#181818;stroke-width:0.5;" x1="1217" x2="1422" y1="329" y2="329"/></g><!--link algorithm to AlgorithmIdentification--><g id="link_algorithm_AlgorithmIdentification"><path codeLine="41" d="M932.75,457 C805.23,453.7 547.59,447.03 374.12,442.53 " fill="none" id="algorithm-to-AlgorithmIdentification" style="stroke:#181818;stroke-width:1.0;"/><polygon fill="#181818" points="369.01,442.4,377.9042,446.63,374.0083,442.5285,378.1098,438.6327,369.01,442.4" style="stroke:#181818;stroke-width:1.0;"/><text fill="#000000" font-family="sans-serif" font-size="13" lengthAdjust="spacing" textLength="409" x="428" y="440.4951">Create AlgorithmIdentification from Algorithm Identification content item</text></g><!--link findingSite to FindingSite--><g id="link_findingSite_FindingSite"><path codeLine="42" d="M966.46,384.39 C849.79,380.07 526.27,368.11 338.61,361.16 " fill="none" id="findingSite-to-FindingSite" style="stroke:#181818;stroke-width:1.0;"/><polygon fill="#181818" points="333.38,360.97,342.2249,365.3022,338.3765,361.1561,342.5227,357.3078,333.38,360.97" style="stroke:#181818;stroke-width:1.0;"/><text fill="#000000" font-family="sans-serif" font-size="13" lengthAdjust="spacing" textLength="227" x="519" y="361.4951">Create BodyStructure from Finding Site</text></g><!--link inputs to imagingMeasurement--><g id="link_inputs_imagingMeasurement"><path codeLine="44" d="M397.27,569.23 C523.64,563.76 690.73,554.36 838,539 C875.845,535.05 918.1025,528.69 951.2613,523.2488 C955.4061,522.5686 959.4088,521.9028 963.2429,521.2578 C963.7222,521.1772 964.1988,521.0969 964.6727,521.017 " fill="none" id="inputs-to-imagingMeasurement" style="stroke:#181818;stroke-width:1.0;"/><polygon fill="#181818" points="964.6727,521.017,955.1327,518.5698,959.7424,521.8487,956.4635,526.4584,964.6727,521.017" style="stroke:#181818;stroke-width:1.0;"/></g><!--link AlgorithmIdentification to imagingMeasurement--><g id="link_AlgorithmIdentification_imagingMeasurement"><path codeLine="45" d="M369.21,457.11 C388.69,459.16 408.27,461.17 427,463 C555.405,475.545 699.89,487.9475 812.8988,497.2625 C827.0248,498.4269 840.6591,499.543 853.7087,500.6051 C855.3399,500.7379 856.962,500.8698 858.5747,501.0009 C859.3811,501.0664 860.1851,501.1318 860.9868,501.1969 " fill="none" id="AlgorithmIdentification-to-imagingMeasurement" style="stroke:#181818;stroke-width:1.0;"/><polygon fill="#181818" points="860.9868,501.1969,852.3401,496.4815,856.0032,500.7921,851.6926,504.4552,860.9868,501.1969" style="stroke:#181818;stroke-width:1.0;"/></g><!--link TrackingBodyStructure to imagingMeasurement--><g id="link_TrackingBodyStructure_imagingMeasurement"><path codeLine="46" d="M286.74,699.61 C410.76,677 643.85,631.32 838,575 C876.41,563.86 918.6775,548.6675 951.7,536.11 C959.9556,532.9706 967.6334,529.9959 974.5287,527.2904 C977.9763,525.9377 981.2283,524.6522 984.2591,523.4471 C985.7745,522.8446 987.2346,522.2621 988.6362,521.7014 C988.9866,521.5612 989.3333,521.4223 989.6763,521.2849 C989.8479,521.2162 990.0184,521.1478 990.1881,521.0798 " fill="none" id="TrackingBodyStructure-to-imagingMeasurement" style="stroke:#181818;stroke-width:1.0;"/><polygon fill="#181818" points="990.1881,521.0798,980.3459,520.7166,985.5473,522.9406,983.3233,528.142,990.1881,521.0798" style="stroke:#181818;stroke-width:1.0;"/></g><!--link FindingSite to imagingMeasurement--><g id="link_FindingSite_imagingMeasurement"><path codeLine="47" d="M333.05,375.34 C363.9,379.65 396.57,384.09 427,388 C518.2,399.72 772.31,371.66 838,436 C856.59,454.21 827.4,475.8 846,494 C871.815,519.26 911.9475,524.2575 946.05,522.8187 C950.3128,522.6389 954.4814,522.3585 958.516,522.0045 C960.5334,521.8275 962.5172,521.6322 964.4626,521.4218 C965.4352,521.3166 966.3983,521.2076 967.3511,521.0953 C967.5894,521.0673 967.8269,521.039 968.0638,521.0105 " fill="none" id="FindingSite-to-imagingMeasurement" style="stroke:#181818;stroke-width:1.0;"/><polygon fill="#181818" points="968.0638,521.0105,958.6508,518.1133,963.0996,521.6073,959.6056,526.0561,968.0638,521.0105" style="stroke:#181818;stroke-width:1.0;"/></g><!--link ImagingSelection to imagingMeasurement--><g id="link_ImagingSelection_imagingMeasurement"><path codeLine="48" d="M267.5,798.1 C389.17,795.61 648.05,778.08 838,680 C884.595,655.94 926.99,615.1075 958.0313,579.8425 C973.5519,562.21 986.2341,545.9694 995.1836,533.9131 C997.421,530.8991 999.4251,528.1465 1001.1819,525.6991 C1002.0603,524.4754 1002.8769,523.328 1003.6299,522.2624 C1003.8182,521.996 1004.0025,521.7347 1004.1828,521.4786 C1004.2729,521.3505 1004.3621,521.2237 1004.4502,521.0983 " fill="none" id="ImagingSelection-to-imagingMeasurement" style="stroke:#181818;stroke-width:1.0;"/><polygon fill="#181818" points="1004.4502,521.0983,996.0033,526.1628,1001.5758,525.1894,1002.5491,530.7619,1004.4502,521.0983" style="stroke:#181818;stroke-width:1.0;"/></g><!--link method to imagingMeasurementGroup--><g id="link_method_imagingMeasurementGroup"><path codeLine="49" d="M1086.59,313 C1123.89,313 1169.71,313 1210.76,313 " fill="none" id="method-to-imagingMeasurementGroup" style="stroke:#181818;stroke-width:1.0;"/><polygon fill="#181818" points="1215.99,313,1206.99,309,1210.99,313,1206.99,317,1215.99,313" style="stroke:#181818;stroke-width:1.0;"/></g><!--SRC=[bLHDJzmm4BtxLunMlT8VK0ca0WLneDjsKUzUUv8rn7Rm1z8AzR_NavZ4cuqFt9APDnzltaiwR0842qwrXm1IEHH1MSEOvZqeqyVWuPq1W8_xvvI3oolunOD24oZQSnUs3GKVD6-LQNSXoYDbzjoZt1fAxT2zAO5_y3MY7yeQAw8lgx3BSwdIokCkk2X2T4YWEsKaWLH0oakaRfJuthNMgN3Gy23JGgfHWbCNi0v-l4RLwnIz7U3i7sCz5o-yHTZagO_8VHf1e0rm3-eiF5At8_FDbsM1djzBNDdW4SF1oeocnnAOYG4n6o3DATCFN8tdKCC_aaGnLqm5YxiCT4WqMktoi_VBpGivSaDbH1SboacrhtxMxqI-kSjdHPWDMFflCk2P_sO3hlXlyj2I9Z6l76-eoyQ59vUybCPTbruzGQmvUsdjfRD1M4dX6si4zW5-Setf9SLsj7iAZkVsFg9CkEtU9sgZPBSyu9FI8sAqMaASMt78l_4kuk_84xrmd64I_b9YdfRackm55nTNjTjyWnk7QO6gyHfdTTrkmff06wOpQ5Py0yF8uaRJc9EpZytBRucn_EUY-dD3iTgM5VYgs3NmtMBz5SZI6ZLSLd4zU-zixDb_]--></g></svg>