<?xml version="1.0" encoding="UTF-8" standalone="no"?><svg xmlns="http://www.w3.org/2000/svg" xmlns:xlink="http://www.w3.org/1999/xlink" contentStyleType="text/css" height="648px" preserveAspectRatio="none" style="width:1113px;height:648px;background:#FFFFFF;" version="1.1" viewBox="0 0 1113 648" width="1113px" zoomAndPan="magnify"><defs/><g><!--MD5=[8d1ffa9804ddb59dd7afc8431c9043e3]
cluster imagingMeasurementGroup--><g id="cluster_imagingMeasurementGroup"><path d="M8.5,177.5 L246.5,177.5 A3.75,3.75 0 0 1 249,180 L256,201.1094 L291.5,201.1094 A2.5,2.5 0 0 1 294,203.6094 L294,569 A2.5,2.5 0 0 1 291.5,571.5 L8.5,571.5 A2.5,2.5 0 0 1 6,569 L6,180 A2.5,2.5 0 0 1 8.5,177.5 " fill="none" style="stroke:#000000;stroke-width:1.5;"/><line style="stroke:#000000;stroke-width:1.5;" x1="6" x2="256" y1="201.1094" y2="201.1094"/><text fill="#000000" font-family="sans-serif" font-size="14" font-weight="bold" lengthAdjust="spacing" textLength="237" x="10" y="194.0332">Imaging Measurements Container</text></g><!--MD5=[23d39bd7571b38be6b44093afc222ed0]
cluster Derived Imaging Measurements--><g id="cluster_Derived Imaging Measurements"><path d="M32.5,457.5 L257.5,457.5 A3.75,3.75 0 0 1 260,460 L267,481.1094 L267.5,481.1094 A2.5,2.5 0 0 1 270,483.6094 L270,545 A2.5,2.5 0 0 1 267.5,547.5 L32.5,547.5 A2.5,2.5 0 0 1 30,545 L30,460 A2.5,2.5 0 0 1 32.5,457.5 " fill="none" style="stroke:#000000;stroke-width:1.5;"/><line style="stroke:#000000;stroke-width:1.5;" x1="30" x2="267" y1="481.1094" y2="481.1094"/><text fill="#000000" font-family="sans-serif" font-size="14" font-weight="bold" lengthAdjust="spacing" textLength="224" x="34" y="474.0332">Derived Imaging Measurements</text></g><!--MD5=[23893d88e976309145c353d4a7306b5c]
cluster Qualitative Evaluations--><g id="cluster_Qualitative Evaluations"><path d="M61,221.5 L224,221.5 A3.75,3.75 0 0 1 226.5,224 L233.5,245.1094 L239,245.1094 A2.5,2.5 0 0 1 241.5,247.6094 L241.5,309 A2.5,2.5 0 0 1 239,311.5 L61,311.5 A2.5,2.5 0 0 1 58.5,309 L58.5,224 A2.5,2.5 0 0 1 61,221.5 " fill="none" style="stroke:#000000;stroke-width:1.5;"/><line style="stroke:#000000;stroke-width:1.5;" x1="58.5" x2="233.5" y1="245.1094" y2="245.1094"/><text fill="#000000" font-family="sans-serif" font-size="14" font-weight="bold" lengthAdjust="spacing" textLength="162" x="62.5" y="238.0332">Qualitative Evaluations</text></g><g id="elem_algorithm"><rect fill="#F1F1F1" height="37.6094" style="stroke:#181818;stroke-width:0.5;" width="156" x="72" y="330.5"/><text fill="#000000" font-family="sans-serif" font-size="14" lengthAdjust="spacing" textLength="142" x="79" y="347.0332">Algorithm Identification</text><line style="stroke:#181818;stroke-width:0.5;" x1="73" x2="227" y1="352.1094" y2="352.1094"/></g><g id="elem_measurementGroup"><rect fill="#F1F1F1" height="37.6094" style="stroke:#181818;stroke-width:0.5;" width="144" x="78" y="403.5"/><text fill="#000000" font-family="sans-serif" font-size="14" lengthAdjust="spacing" textLength="130" x="85" y="420.0332">Measurement Group</text><line style="stroke:#181818;stroke-width:0.5;" x1="79" x2="221" y1="425.1094" y2="425.1094"/></g><g id="elem_derivedMeasurement"><rect fill="#F1F1F1" height="37.6094" style="stroke:#181818;stroke-width:0.5;" width="206" x="47" y="493.5"/><text fill="#000000" font-family="sans-serif" font-size="14" lengthAdjust="spacing" textLength="192" x="54" y="510.0332">Derived Imaging Measurement</text><line style="stroke:#181818;stroke-width:0.5;" x1="48" x2="252" y1="515.1094" y2="515.1094"/></g><g id="elem_qualitativeEvaluations"><rect fill="#F1F1F1" height="37.6094" style="stroke:#181818;stroke-width:0.5;" width="151" x="74.5" y="257.5"/><text fill="#000000" font-family="sans-serif" font-size="14" lengthAdjust="spacing" textLength="137" x="81.5" y="274.0332">Qualitative Evaluation</text><line style="stroke:#181818;stroke-width:0.5;" x1="75.5" x2="224.5" y1="279.1094" y2="279.1094"/></g><g id="elem_inputs"><rect fill="#F1F1F1" height="108.0469" style="stroke:#181818;stroke-width:0.5;" width="188" x="838.5" y="7"/><text fill="#000000" font-family="sans-serif" font-size="14" lengthAdjust="spacing" textLength="38" x="913.5" y="23.5332">inputs</text><line style="stroke:#181818;stroke-width:1.0;" x1="838.5" x2="1026.5" y1="28.6094" y2="28.6094"/><text fill="#000000" font-family="sans-serif" font-size="14" lengthAdjust="spacing" textLength="45" x="850" y="45.1426">subject</text><text fill="#000000" font-family="sans-serif" font-size="14" lengthAdjust="spacing" textLength="44" x="911.5" y="45.1426">Patient</text><line style="stroke:#181818;stroke-width:1.0;" x1="906.5" x2="906.5" y1="28.6094" y2="50.2188"/><line style="stroke:#181818;stroke-width:1.0;" x1="838.5" x2="1026.5" y1="50.2188" y2="50.2188"/><text fill="#000000" font-family="sans-serif" font-size="14" lengthAdjust="spacing" textLength="40" x="852.5" y="66.752">partOf</text><text fill="#000000" font-family="sans-serif" font-size="14" lengthAdjust="spacing" textLength="85" x="911.5" y="66.752">ImagingStudy</text><line style="stroke:#181818;stroke-width:1.0;" x1="906.5" x2="906.5" y1="50.2188" y2="71.8281"/><line style="stroke:#181818;stroke-width:1.0;" x1="838.5" x2="1026.5" y1="71.8281" y2="71.8281"/><text fill="#000000" font-family="sans-serif" font-size="14" lengthAdjust="spacing" textLength="58" x="843.5" y="88.3613">basedOn</text><text fill="#000000" font-family="sans-serif" font-size="14" lengthAdjust="spacing" textLength="100" x="911.5" y="88.3613">ServiceRequest</text><line style="stroke:#181818;stroke-width:1.0;" x1="906.5" x2="906.5" y1="71.8281" y2="93.4375"/><line style="stroke:#181818;stroke-width:1.0;" x1="838.5" x2="1026.5" y1="93.4375" y2="93.4375"/><text fill="#000000" font-family="sans-serif" font-size="14" lengthAdjust="spacing" textLength="41" x="852" y="109.9707">device</text><text fill="#000000" font-family="sans-serif" font-size="14" lengthAdjust="spacing" textLength="110" x="911.5" y="109.9707">EquipmentDevice</text><line style="stroke:#181818;stroke-width:1.0;" x1="906.5" x2="906.5" y1="93.4375" y2="115.0469"/></g><g id="elem_AlgorithmIdentification"><rect fill="#F1F1F1" height="47.2188" style="stroke:#181818;stroke-width:0.5;" width="179" x="843" y="299"/><text fill="#000000" font-family="sans-serif" font-size="14" lengthAdjust="spacing" textLength="138" x="863.5" y="315.5332">AlgorithmIdentification</text><line style="stroke:#181818;stroke-width:0.5;" x1="844" x2="1021" y1="320.6094" y2="320.6094"/><text fill="#000000" font-family="sans-serif" font-size="14" lengthAdjust="spacing" textLength="167" x="849" y="339.1426">parent = EquipmentDevice</text></g><g id="elem_measurementGroupMap"><rect fill="#F1F1F1" height="108.0469" style="stroke:#181818;stroke-width:0.5;" width="347" x="759" y="385"/><text fill="#000000" font-family="sans-serif" font-size="14" lengthAdjust="spacing" textLength="153" x="856" y="401.5332">measurementGroupMap</text><line style="stroke:#181818;stroke-width:1.0;" x1="759" x2="1106" y1="406.6094" y2="406.6094"/><text fill="#000000" font-family="sans-serif" font-size="14" lengthAdjust="spacing" textLength="45" x="770.5" y="423.1426">subject</text><text fill="#000000" font-family="sans-serif" font-size="14" lengthAdjust="spacing" textLength="44" x="832" y="423.1426">Patient</text><line style="stroke:#181818;stroke-width:1.0;" x1="827" x2="827" y1="406.6094" y2="428.2188"/><line style="stroke:#181818;stroke-width:1.0;" x1="759" x2="1106" y1="428.2188" y2="428.2188"/><text fill="#000000" font-family="sans-serif" font-size="14" lengthAdjust="spacing" textLength="40" x="773" y="444.752">partOf</text><text fill="#000000" font-family="sans-serif" font-size="14" lengthAdjust="spacing" textLength="85" x="832" y="444.752">ImagingStudy</text><line style="stroke:#181818;stroke-width:1.0;" x1="827" x2="827" y1="428.2188" y2="449.8281"/><line style="stroke:#181818;stroke-width:1.0;" x1="759" x2="1106" y1="449.8281" y2="449.8281"/><text fill="#000000" font-family="sans-serif" font-size="14" lengthAdjust="spacing" textLength="58" x="764" y="466.3613">basedOn</text><text fill="#000000" font-family="sans-serif" font-size="14" lengthAdjust="spacing" textLength="100" x="832" y="466.3613">ServiceRequest</text><line style="stroke:#181818;stroke-width:1.0;" x1="827" x2="827" y1="449.8281" y2="471.4375"/><line style="stroke:#181818;stroke-width:1.0;" x1="759" x2="1106" y1="471.4375" y2="471.4375"/><text fill="#000000" font-family="sans-serif" font-size="14" lengthAdjust="spacing" textLength="41" x="772.5" y="487.9707">device</text><text fill="#000000" font-family="sans-serif" font-size="14" lengthAdjust="spacing" textLength="269" x="832" y="487.9707">AlgorithmIdentification or EquipmentDevice</text><line style="stroke:#181818;stroke-width:1.0;" x1="827" x2="827" y1="471.4375" y2="493.0469"/></g><g id="elem_derivedMeasurementsMap"><rect fill="#F1F1F1" height="108.0469" style="stroke:#181818;stroke-width:0.5;" width="347" x="759" y="533"/><text fill="#000000" font-family="sans-serif" font-size="14" lengthAdjust="spacing" textLength="167" x="849" y="549.5332">derivedMeasurementsMap</text><line style="stroke:#181818;stroke-width:1.0;" x1="759" x2="1106" y1="554.6094" y2="554.6094"/><text fill="#000000" font-family="sans-serif" font-size="14" lengthAdjust="spacing" textLength="45" x="770.5" y="571.1426">subject</text><text fill="#000000" font-family="sans-serif" font-size="14" lengthAdjust="spacing" textLength="44" x="832" y="571.1426">Patient</text><line style="stroke:#181818;stroke-width:1.0;" x1="827" x2="827" y1="554.6094" y2="576.2188"/><line style="stroke:#181818;stroke-width:1.0;" x1="759" x2="1106" y1="576.2188" y2="576.2188"/><text fill="#000000" font-family="sans-serif" font-size="14" lengthAdjust="spacing" textLength="40" x="773" y="592.752">partOf</text><text fill="#000000" font-family="sans-serif" font-size="14" lengthAdjust="spacing" textLength="85" x="832" y="592.752">ImagingStudy</text><line style="stroke:#181818;stroke-width:1.0;" x1="827" x2="827" y1="576.2188" y2="597.8281"/><line style="stroke:#181818;stroke-width:1.0;" x1="759" x2="1106" y1="597.8281" y2="597.8281"/><text fill="#000000" font-family="sans-serif" font-size="14" lengthAdjust="spacing" textLength="58" x="764" y="614.3613">basedOn</text><text fill="#000000" font-family="sans-serif" font-size="14" lengthAdjust="spacing" textLength="100" x="832" y="614.3613">ServiceRequest</text><line style="stroke:#181818;stroke-width:1.0;" x1="827" x2="827" y1="597.8281" y2="619.4375"/><line style="stroke:#181818;stroke-width:1.0;" x1="759" x2="1106" y1="619.4375" y2="619.4375"/><text fill="#000000" font-family="sans-serif" font-size="14" lengthAdjust="spacing" textLength="41" x="772.5" y="635.9707">device</text><text fill="#000000" font-family="sans-serif" font-size="14" lengthAdjust="spacing" textLength="269" x="832" y="635.9707">AlgorithmIdentification or EquipmentDevice</text><line style="stroke:#181818;stroke-width:1.0;" x1="827" x2="827" y1="619.4375" y2="641.0469"/></g><g id="elem_qualitativeEvaluationsMap"><rect fill="#F1F1F1" height="108.0469" style="stroke:#181818;stroke-width:0.5;" width="347" x="759" y="155"/><text fill="#000000" font-family="sans-serif" font-size="14" lengthAdjust="spacing" textLength="164" x="850.5" y="171.5332">qualitativeEvaluationsMap</text><line style="stroke:#181818;stroke-width:1.0;" x1="759" x2="1106" y1="176.6094" y2="176.6094"/><text fill="#000000" font-family="sans-serif" font-size="14" lengthAdjust="spacing" textLength="45" x="770.5" y="193.1426">subject</text><text fill="#000000" font-family="sans-serif" font-size="14" lengthAdjust="spacing" textLength="44" x="832" y="193.1426">Patient</text><line style="stroke:#181818;stroke-width:1.0;" x1="827" x2="827" y1="176.6094" y2="198.2188"/><line style="stroke:#181818;stroke-width:1.0;" x1="759" x2="1106" y1="198.2188" y2="198.2188"/><text fill="#000000" font-family="sans-serif" font-size="14" lengthAdjust="spacing" textLength="40" x="773" y="214.752">partOf</text><text fill="#000000" font-family="sans-serif" font-size="14" lengthAdjust="spacing" textLength="85" x="832" y="214.752">ImagingStudy</text><line style="stroke:#181818;stroke-width:1.0;" x1="827" x2="827" y1="198.2188" y2="219.8281"/><line style="stroke:#181818;stroke-width:1.0;" x1="759" x2="1106" y1="219.8281" y2="219.8281"/><text fill="#000000" font-family="sans-serif" font-size="14" lengthAdjust="spacing" textLength="58" x="764" y="236.3613">basedOn</text><text fill="#000000" font-family="sans-serif" font-size="14" lengthAdjust="spacing" textLength="100" x="832" y="236.3613">ServiceRequest</text><line style="stroke:#181818;stroke-width:1.0;" x1="827" x2="827" y1="219.8281" y2="241.4375"/><line style="stroke:#181818;stroke-width:1.0;" x1="759" x2="1106" y1="241.4375" y2="241.4375"/><text fill="#000000" font-family="sans-serif" font-size="14" lengthAdjust="spacing" textLength="41" x="772.5" y="257.9707">device</text><text fill="#000000" font-family="sans-serif" font-size="14" lengthAdjust="spacing" textLength="269" x="832" y="257.9707">AlgorithmIdentification or EquipmentDevice</text><line style="stroke:#181818;stroke-width:1.0;" x1="827" x2="827" y1="241.4375" y2="263.0469"/></g><!--MD5=[fa931c01560ddc5eeddc9c7e9a9d3244]
link algorithm to AlgorithmIdentification--><g id="link_algorithm_AlgorithmIdentification"><path codeLine="25" d="M228.33,346.82 C372.52,341.84 681.89,331.13 837.72,325.74 " fill="none" id="algorithm-to-AlgorithmIdentification" style="stroke:#181818;stroke-width:1.0;"/><polygon fill="#181818" points="842.74,325.57,833.6082,321.8807,837.7429,325.7413,833.8823,329.876,842.74,325.57" style="stroke:#181818;stroke-width:1.0;"/><text fill="#000000" font-family="sans-serif" font-size="13" lengthAdjust="spacing" textLength="409" x="311" y="326.9951">Create AlgorithmIdentification from Algorithm Identification content item</text></g><!--MD5=[c604d2472422754ab7d0940ae26e01ff]
link inputs to measurementGroupMap--><g id="link_inputs_measurementGroupMap"><path codeLine="48" d="M830.45,50.25 C735.31,47.93 597.69,61.98 526.5,151 C472.37,218.68 472.37,278.32 526.5,346 C578.33,410.81 665.37,435.88 745.6,443.83 " fill="none" id="inputs-to-measurementGroupMap" style="stroke:#181818;stroke-width:1.0;"/><polygon fill="#181818" points="750.88,444.33,742.2978,439.4982,745.9023,443.858,741.5426,447.4625,750.88,444.33" style="stroke:#181818;stroke-width:1.0;"/></g><!--MD5=[59abc8b2398b00bf07c5584a8ff2d7b4]
link inputs to derivedMeasurementsMap--><g id="link_inputs_derivedMeasurementsMap"><path codeLine="49" d="M830.45,50.25 C735.31,47.93 597.69,61.98 526.5,151 C431.29,270.06 431.29,374.94 526.5,494 C578.33,558.81 665.37,583.88 745.6,591.83 " fill="none" id="inputs-to-derivedMeasurementsMap" style="stroke:#181818;stroke-width:1.0;"/><polygon fill="#181818" points="750.88,592.33,742.2978,587.4982,745.9023,591.858,741.5426,595.4625,750.88,592.33" style="stroke:#181818;stroke-width:1.0;"/></g><!--MD5=[555e78daf87ae112b93971f3a9a56dda]
link inputs to qualitativeEvaluationsMap--><g id="link_inputs_qualitativeEvaluationsMap"><path codeLine="50" d="M932.5,116.23 C932.5,126.06 932.5,135.88 932.5,145.71 " fill="none" id="inputs-to-qualitativeEvaluationsMap" style="stroke:#181818;stroke-width:1.0;"/><polygon fill="#181818" points="932.5,150.84,936.5,141.84,932.5,145.84,928.5,141.84,932.5,150.84" style="stroke:#181818;stroke-width:1.0;"/></g><!--MD5=[a464a9e076d708788da857968ba33f6d]
link measurementGroup to measurementGroupMap--><g id="link_measurementGroup_measurementGroupMap"><path codeLine="51" d="M222.33,423.87 C339.79,426.13 577.57,430.7 745.33,433.92 " fill="none" id="measurementGroup-to-measurementGroupMap" style="stroke:#181818;stroke-width:1.0;"/><polygon fill="#181818" points="750.77,434.03,741.8518,429.8508,745.771,433.93,741.6918,437.8492,750.77,434.03" style="stroke:#181818;stroke-width:1.0;"/><text fill="#000000" font-family="sans-serif" font-size="13" lengthAdjust="spacing" textLength="274" x="378.5" y="422.9951">Map contents of Measurement Group Container</text></g><!--MD5=[d4d842d8cc33a1a8fa86d9416753fd73]
link derivedMeasurement to derivedMeasurementsMap--><g id="link_derivedMeasurement_derivedMeasurementsMap"><path codeLine="52" d="M253.04,522.04 C377.81,533.71 591.41,553.69 745.65,568.12 " fill="none" id="derivedMeasurement-to-derivedMeasurementsMap" style="stroke:#181818;stroke-width:1.0;"/><polygon fill="#181818" points="750.66,568.59,742.0778,563.7582,745.6823,568.118,741.3226,571.7225,750.66,568.59" style="stroke:#181818;stroke-width:1.0;"/><text fill="#000000" font-family="sans-serif" font-size="13" lengthAdjust="spacing" textLength="288" x="371.5" y="523.9951">Map contents of Derived Measurements Container</text></g><!--MD5=[09ec23b6331d1871feeaf24785512355]
link qualitativeEvaluations to qualitativeEvaluationsMap--><g id="link_qualitativeEvaluations_qualitativeEvaluationsMap"><path codeLine="53" d="M225.84,269.88 C344.45,259.4 579.18,238.65 745.29,223.96 " fill="none" id="qualitativeEvaluations-to-qualitativeEvaluationsMap" style="stroke:#181818;stroke-width:1.0;"/><polygon fill="#181818" points="750.67,223.49,741.3514,220.302,745.6896,223.9324,742.0592,228.2706,750.67,223.49" style="stroke:#181818;stroke-width:1.0;"/><text fill="#000000" font-family="sans-serif" font-size="13" lengthAdjust="spacing" textLength="286" x="372.5" y="223.9951">Map contents of Qualitative Evaluations Container</text></g><!--MD5=[e54d27c8fcb9719fdf3c05a80afb0dbc]
@startuml imaging_measurements_mapping
left to right direction

map inputs {
   subject => Patient
   partOf => ImagingStudy
   basedOn => ServiceRequest
   device => EquipmentDevice
}

package "Imaging Measurements Container" as imagingMeasurementGroup {
   object "Algorithm Identification" as algorithm
   object "Measurement Group" as measurementGroup
   package "Derived Imaging Measurements" {
      object "Derived Imaging Measurement" as derivedMeasurement
   }
   package "Qualitative Evaluations" {
      object "Qualitative Evaluation" as qualitativeEvaluations
   }
}

object AlgorithmIdentification {
    parent = EquipmentDevice
}

algorithm - -> AlgorithmIdentification: Create AlgorithmIdentification from Algorithm Identification content item

map measurementGroupMap {
    subject => Patient
    partOf => ImagingStudy
    basedOn => ServiceRequest
    device => AlgorithmIdentification or EquipmentDevice
}

map derivedMeasurementsMap {
    subject => Patient
    partOf => ImagingStudy
    basedOn => ServiceRequest
    device => AlgorithmIdentification or EquipmentDevice
}

map qualitativeEvaluationsMap {
    subject => Patient
    partOf => ImagingStudy
    basedOn => ServiceRequest
    device => AlgorithmIdentification or EquipmentDevice
}

inputs -> measurementGroupMap
inputs -> derivedMeasurementsMap
inputs -> qualitativeEvaluationsMap
measurementGroup - -> measurementGroupMap: Map contents of Measurement Group Container
derivedMeasurement - -> derivedMeasurementsMap: Map contents of Derived Measurements Container
qualitativeEvaluations -> qualitativeEvaluationsMap: Map contents of Qualitative Evaluations Container

@enduml

PlantUML version 1.2022.7(Mon Aug 22 13:01:30 EDT 2022)
(GPL source distribution)
Java Runtime: Java(TM) SE Runtime Environment
JVM: Java HotSpot(TM) 64-Bit Server VM
Default Encoding: Cp1252
Language: en
Country: US
--></g></svg>