<?xml version="1.0" encoding="UTF-8" standalone="no"?><svg xmlns="http://www.w3.org/2000/svg" xmlns:xlink="http://www.w3.org/1999/xlink" contentStyleType="text/css" height="1000px" preserveAspectRatio="none" style="width:1684px;height:1000px;background:#FFFFFF;" version="1.1" viewBox="0 0 1684 1000" width="1684px" zoomAndPan="magnify"><defs/><g><!--MD5=[f03fdf545f3e1532861e7d7cac355738]
cluster measurementGroup--><g id="cluster_measurementGroup"><path d="M8.5,281.47 L162.5,281.47 A3.75,3.75 0 0 1 165,283.97 L172,305.0794 L265.5,305.0794 A2.5,2.5 0 0 1 268,307.5794 L268,947.97 A2.5,2.5 0 0 1 265.5,950.47 L8.5,950.47 A2.5,2.5 0 0 1 6,947.97 L6,283.97 A2.5,2.5 0 0 1 8.5,281.47 " fill="none" style="stroke:#000000;stroke-width:1.5;"/><line style="stroke:#000000;stroke-width:1.5;" x1="6" x2="172" y1="305.0794" y2="305.0794"/><text fill="#000000" font-family="sans-serif" font-size="14" font-weight="bold" lengthAdjust="spacing" textLength="153" x="10" y="298.0032">Measurements Group</text></g><!--MD5=[f77ba02b5d3384e2b22e2477291e32f9]
cluster Numerical Measurements--><g id="cluster_Numerical Measurements"><path d="M40.5,341.47 L220.5,341.47 A3.75,3.75 0 0 1 223,343.97 L230,365.0794 L233.5,365.0794 A2.5,2.5 0 0 1 236,367.5794 L236,428.97 A2.5,2.5 0 0 1 233.5,431.47 L40.5,431.47 A2.5,2.5 0 0 1 38,428.97 L38,343.97 A2.5,2.5 0 0 1 40.5,341.47 " fill="none" style="stroke:#000000;stroke-width:1.5;"/><line style="stroke:#000000;stroke-width:1.5;" x1="38" x2="230" y1="365.0794" y2="365.0794"/><text fill="#000000" font-family="sans-serif" font-size="14" font-weight="bold" lengthAdjust="spacing" textLength="179" x="42" y="358.0032">Numerical Measurements</text></g><g id="elem_algorithm"><rect fill="#F1F1F1" height="37.6094" style="stroke:#181818;stroke-width:0.5;" width="156" x="59" y="450.47"/><text fill="#000000" font-family="sans-serif" font-size="14" lengthAdjust="spacing" textLength="142" x="66" y="467.0032">Algorithm Identification</text><line style="stroke:#181818;stroke-width:0.5;" x1="60" x2="214" y1="472.0794" y2="472.0794"/></g><g id="elem_tracking"><rect fill="#F1F1F1" height="37.6094" style="stroke:#181818;stroke-width:0.5;" width="161" x="56.5" y="523.47"/><text fill="#000000" font-family="sans-serif" font-size="14" lengthAdjust="spacing" textLength="147" x="63.5" y="540.0032">Tracking Identifier / UID</text><line style="stroke:#181818;stroke-width:0.5;" x1="57.5" x2="216.5" y1="545.0794" y2="545.0794"/></g><g id="elem_finding"><rect fill="#F1F1F1" height="37.6094" style="stroke:#181818;stroke-width:0.5;" width="61" x="106.5" y="596.47"/><text fill="#000000" font-family="sans-serif" font-size="14" lengthAdjust="spacing" textLength="47" x="113.5" y="613.0032">Finding</text><line style="stroke:#181818;stroke-width:0.5;" x1="107.5" x2="166.5" y1="618.0794" y2="618.0794"/></g><g id="elem_findingCategory"><rect fill="#F1F1F1" height="37.6094" style="stroke:#181818;stroke-width:0.5;" width="123" x="75.5" y="669.47"/><text fill="#000000" font-family="sans-serif" font-size="14" lengthAdjust="spacing" textLength="109" x="82.5" y="686.0032">Finding Category</text><line style="stroke:#181818;stroke-width:0.5;" x1="76.5" x2="197.5" y1="691.0794" y2="691.0794"/></g><g id="elem_findingSite"><rect fill="#F1F1F1" height="37.6094" style="stroke:#181818;stroke-width:0.5;" width="89" x="92.5" y="742.47"/><text fill="#000000" font-family="sans-serif" font-size="14" lengthAdjust="spacing" textLength="75" x="99.5" y="759.0032">Finding Site</text><line style="stroke:#181818;stroke-width:0.5;" x1="93.5" x2="180.5" y1="764.0794" y2="764.0794"/></g><g id="elem_imageRegion"><rect fill="#F1F1F1" height="37.6094" style="stroke:#181818;stroke-width:0.5;" width="179" x="47.5" y="815.47"/><text fill="#000000" font-family="sans-serif" font-size="14" lengthAdjust="spacing" textLength="165" x="54.5" y="832.0032">Image Region / Reference</text><line style="stroke:#181818;stroke-width:0.5;" x1="48.5" x2="225.5" y1="837.0794" y2="837.0794"/></g><g id="elem_method"><rect fill="#F1F1F1" height="37.6094" style="stroke:#181818;stroke-width:0.5;" width="151" x="61.5" y="888.47"/><text fill="#000000" font-family="sans-serif" font-size="14" lengthAdjust="spacing" textLength="137" x="68.5" y="905.0032">Measurement Method</text><line style="stroke:#181818;stroke-width:0.5;" x1="62.5" x2="211.5" y1="910.0794" y2="910.0794"/></g><g id="elem_measurement"><rect fill="#F1F1F1" height="37.6094" style="stroke:#181818;stroke-width:0.5;" width="166" x="54" y="377.47"/><text fill="#000000" font-family="sans-serif" font-size="14" lengthAdjust="spacing" textLength="152" x="61" y="394.0032">Numerical Measurement</text><line style="stroke:#181818;stroke-width:0.5;" x1="55" x2="219" y1="399.0794" y2="399.0794"/></g><g id="elem_inputs"><rect fill="#F1F1F1" height="108.0469" style="stroke:#181818;stroke-width:0.5;" width="188" x="43" y="103.97"/><text fill="#000000" font-family="sans-serif" font-size="14" lengthAdjust="spacing" textLength="38" x="118" y="120.5032">inputs</text><line style="stroke:#181818;stroke-width:1.0;" x1="43" x2="231" y1="125.5794" y2="125.5794"/><text fill="#000000" font-family="sans-serif" font-size="14" lengthAdjust="spacing" textLength="45" x="54.5" y="142.1126">subject</text><text fill="#000000" font-family="sans-serif" font-size="14" lengthAdjust="spacing" textLength="44" x="116" y="142.1126">Patient</text><line style="stroke:#181818;stroke-width:1.0;" x1="111" x2="111" y1="125.5794" y2="147.1888"/><line style="stroke:#181818;stroke-width:1.0;" x1="43" x2="231" y1="147.1888" y2="147.1888"/><text fill="#000000" font-family="sans-serif" font-size="14" lengthAdjust="spacing" textLength="40" x="57" y="163.722">partOf</text><text fill="#000000" font-family="sans-serif" font-size="14" lengthAdjust="spacing" textLength="85" x="116" y="163.722">ImagingStudy</text><line style="stroke:#181818;stroke-width:1.0;" x1="111" x2="111" y1="147.1888" y2="168.7981"/><line style="stroke:#181818;stroke-width:1.0;" x1="43" x2="231" y1="168.7981" y2="168.7981"/><text fill="#000000" font-family="sans-serif" font-size="14" lengthAdjust="spacing" textLength="58" x="48" y="185.3313">basedOn</text><text fill="#000000" font-family="sans-serif" font-size="14" lengthAdjust="spacing" textLength="100" x="116" y="185.3313">ServiceRequest</text><line style="stroke:#181818;stroke-width:1.0;" x1="111" x2="111" y1="168.7981" y2="190.4075"/><line style="stroke:#181818;stroke-width:1.0;" x1="43" x2="231" y1="190.4075" y2="190.4075"/><text fill="#000000" font-family="sans-serif" font-size="14" lengthAdjust="spacing" textLength="41" x="56.5" y="206.9407">device</text><text fill="#000000" font-family="sans-serif" font-size="14" lengthAdjust="spacing" textLength="110" x="116" y="206.9407">EquipmentDevice</text><line style="stroke:#181818;stroke-width:1.0;" x1="111" x2="111" y1="190.4075" y2="212.0169"/></g><g id="elem_AlgorithmIdentification"><rect fill="#F1F1F1" height="47.2188" style="stroke:#181818;stroke-width:0.5;" width="179" x="840.5" y="428.97"/><text fill="#000000" font-family="sans-serif" font-size="14" lengthAdjust="spacing" textLength="138" x="861" y="445.5032">AlgorithmIdentification</text><line style="stroke:#181818;stroke-width:0.5;" x1="841.5" x2="1018.5" y1="450.5794" y2="450.5794"/><text fill="#000000" font-family="sans-serif" font-size="14" lengthAdjust="spacing" textLength="167" x="846.5" y="469.1126">parent = EquipmentDevice</text></g><g id="elem_TrackingBodyStructure"><rect fill="#F1F1F1" height="47.2188" style="stroke:#181818;stroke-width:0.5;" width="248" x="806" y="510.97"/><text fill="#000000" font-family="sans-serif" font-size="14" lengthAdjust="spacing" textLength="145" x="857.5" y="527.5032">TrackingBodyStructure</text><line style="stroke:#181818;stroke-width:0.5;" x1="807" x2="1053" y1="532.5794" y2="532.5794"/><text fill="#000000" font-family="sans-serif" font-size="14" lengthAdjust="spacing" textLength="236" x="812" y="551.1126">identifier = TrackingID or TrackingUID</text></g><g id="elem_FindingSite"><rect fill="#F1F1F1" height="47.2188" style="stroke:#181818;stroke-width:0.5;" width="274" x="793" y="735.97"/><text fill="#000000" font-family="sans-serif" font-size="14" lengthAdjust="spacing" textLength="71" x="894.5" y="752.5032">FindingSite</text><line style="stroke:#181818;stroke-width:0.5;" x1="794" x2="1066" y1="757.5794" y2="757.5794"/><text fill="#000000" font-family="sans-serif" font-size="14" lengthAdjust="spacing" textLength="262" x="799" y="776.1126">includedStructure.structure = Finding Site</text></g><g id="elem_ImagingSelection"><rect fill="#F1F1F1" height="37.6094" style="stroke:#181818;stroke-width:0.5;" width="121" x="869.5" y="818.47"/><text fill="#000000" font-family="sans-serif" font-size="14" lengthAdjust="spacing" textLength="107" x="876.5" y="835.0032">ImagingSelection</text><line style="stroke:#181818;stroke-width:0.5;" x1="870.5" x2="989.5" y1="840.0794" y2="840.0794"/></g><g id="elem_imagingMeasurementGroup"><rect fill="#F1F1F1" height="223.3125" style="stroke:#181818;stroke-width:0.5;" width="420" x="1257" y="461.97"/><text fill="#000000" font-family="sans-serif" font-size="14" lengthAdjust="spacing" textLength="175" x="1379.5" y="478.5032">ImagingMeasurementGroup</text><line style="stroke:#181818;stroke-width:0.5;" x1="1258" x2="1676" y1="483.5794" y2="483.5794"/><text fill="#000000" font-family="sans-serif" font-size="14" lengthAdjust="spacing" textLength="105" x="1263" y="502.1126">subject = Patient</text><text fill="#000000" font-family="sans-serif" font-size="14" lengthAdjust="spacing" textLength="141" x="1263" y="519.722">partOf = ImagingStudy</text><text fill="#000000" font-family="sans-serif" font-size="14" lengthAdjust="spacing" textLength="174" x="1263" y="537.3313">basedOn = ServiceRequest</text><text fill="#000000" font-family="sans-serif" font-size="14" lengthAdjust="spacing" textLength="326" x="1263" y="554.9407">device = EquipmentDevice or AlgorithmIdentification</text><text fill="#000000" font-family="sans-serif" font-size="14" lengthAdjust="spacing" textLength="195" x="1263" y="572.5501">focus = TrackingBodyStructure</text><text fill="#000000" font-family="sans-serif" font-size="14" lengthAdjust="spacing" textLength="157" x="1263" y="590.1595">focus = ImagingSelection</text><text fill="#000000" font-family="sans-serif" font-size="14" lengthAdjust="spacing" textLength="176" x="1263" y="607.7688">bodyStructure = FindingSite</text><text fill="#000000" font-family="sans-serif" font-size="14" lengthAdjust="spacing" textLength="408" x="1263" y="625.3782">code = Finding Category or DCM#125007 "Measurement Group"</text><text fill="#000000" font-family="sans-serif" font-size="14" lengthAdjust="spacing" textLength="200" x="1263" y="642.9876">method = Measurement Method</text><text fill="#000000" font-family="sans-serif" font-size="14" lengthAdjust="spacing" textLength="211" x="1263" y="660.597">valueCodeableConcept = Finding</text><text fill="#000000" font-family="sans-serif" font-size="14" lengthAdjust="spacing" textLength="225" x="1263" y="678.2063">hasMember = ImagingMeasurement</text></g><g id="elem_imagingMeasurementMap"><rect fill="#F1F1F1" height="151.2656" style="stroke:#181818;stroke-width:0.5;" width="378" x="741" y="169.97"/><text fill="#000000" font-family="sans-serif" font-size="14" lengthAdjust="spacing" textLength="162" x="849" y="186.5032">imagingMeasurementMap</text><line style="stroke:#181818;stroke-width:1.0;" x1="741" x2="1119" y1="191.5794" y2="191.5794"/><text fill="#000000" font-family="sans-serif" font-size="14" lengthAdjust="spacing" textLength="45" x="768" y="208.1126">subject</text><text fill="#000000" font-family="sans-serif" font-size="14" lengthAdjust="spacing" textLength="44" x="845" y="208.1126">Patient</text><line style="stroke:#181818;stroke-width:1.0;" x1="840" x2="840" y1="191.5794" y2="213.1888"/><line style="stroke:#181818;stroke-width:1.0;" x1="741" x2="1119" y1="213.1888" y2="213.1888"/><text fill="#000000" font-family="sans-serif" font-size="14" lengthAdjust="spacing" textLength="40" x="770.5" y="229.722">partOf</text><text fill="#000000" font-family="sans-serif" font-size="14" lengthAdjust="spacing" textLength="85" x="845" y="229.722">ImagingStudy</text><line style="stroke:#181818;stroke-width:1.0;" x1="840" x2="840" y1="213.1888" y2="234.7981"/><line style="stroke:#181818;stroke-width:1.0;" x1="741" x2="1119" y1="234.7981" y2="234.7981"/><text fill="#000000" font-family="sans-serif" font-size="14" lengthAdjust="spacing" textLength="58" x="761.5" y="251.3313">basedOn</text><text fill="#000000" font-family="sans-serif" font-size="14" lengthAdjust="spacing" textLength="100" x="845" y="251.3313">ServiceRequest</text><line style="stroke:#181818;stroke-width:1.0;" x1="840" x2="840" y1="234.7981" y2="256.4075"/><line style="stroke:#181818;stroke-width:1.0;" x1="741" x2="1119" y1="256.4075" y2="256.4075"/><text fill="#000000" font-family="sans-serif" font-size="14" lengthAdjust="spacing" textLength="34" x="773.5" y="272.9407">focus</text><text fill="#000000" font-family="sans-serif" font-size="14" lengthAdjust="spacing" textLength="107" x="845" y="272.9407">ImagingSelection</text><line style="stroke:#181818;stroke-width:1.0;" x1="840" x2="840" y1="256.4075" y2="278.0169"/><line style="stroke:#181818;stroke-width:1.0;" x1="741" x2="1119" y1="278.0169" y2="278.0169"/><text fill="#000000" font-family="sans-serif" font-size="14" lengthAdjust="spacing" textLength="89" x="746" y="294.5501">bodyStructure</text><text fill="#000000" font-family="sans-serif" font-size="14" lengthAdjust="spacing" textLength="71" x="845" y="294.5501">FindingSite</text><line style="stroke:#181818;stroke-width:1.0;" x1="840" x2="840" y1="278.0169" y2="299.6263"/><line style="stroke:#181818;stroke-width:1.0;" x1="741" x2="1119" y1="299.6263" y2="299.6263"/><text fill="#000000" font-family="sans-serif" font-size="14" lengthAdjust="spacing" textLength="41" x="770" y="316.1595">device</text><text fill="#000000" font-family="sans-serif" font-size="14" lengthAdjust="spacing" textLength="269" x="845" y="316.1595">AlgorithmIdentification or EquipmentDevice</text><line style="stroke:#181818;stroke-width:1.0;" x1="840" x2="840" y1="299.6263" y2="321.2356"/></g><!--MD5=[fa931c01560ddc5eeddc9c7e9a9d3244]
link algorithm to AlgorithmIdentification--><g id="link_algorithm_AlgorithmIdentification"><path codeLine="61" d="M215.16,471.27 C239.72,471.76 267,472.23 292,472.47 C474.66,474.25 520.51,480.53 703,472.47 C746.4,470.55 794.36,466.58 834.89,462.67 " fill="none" id="algorithm-to-AlgorithmIdentification" style="stroke:#181818;stroke-width:1.0;"/><polygon fill="#181818" points="840.3,462.14,830.9546,459.0315,835.3236,462.6248,831.7303,466.9938,840.3,462.14" style="stroke:#181818;stroke-width:1.0;"/><text fill="#000000" font-family="sans-serif" font-size="13" lengthAdjust="spacing" textLength="409" x="293" y="468.9651">Create AlgorithmIdentification from Algorithm Identification content item</text></g><!--MD5=[afd8ae76a0772a3e900967b26a1dd83e]
link tracking to TrackingBodyStructure--><g id="link_tracking_TrackingBodyStructure"><path codeLine="62" d="M217.83,541.66 C354.82,540.28 635.77,537.44 800.58,535.77 " fill="none" id="tracking-to-TrackingBodyStructure" style="stroke:#181818;stroke-width:1.0;"/><polygon fill="#181818" points="805.91,535.71,796.876,531.7873,800.9102,535.7529,796.9446,539.787,805.91,535.71" style="stroke:#181818;stroke-width:1.0;"/><text fill="#000000" font-family="sans-serif" font-size="13" lengthAdjust="spacing" textLength="349" x="323" y="532.9651">Create BodyStructure reference from Tracking Identifier / UID</text></g><!--MD5=[fea608126a5f7f0073f6266fdd9390cd]
link findingSite to FindingSite--><g id="link_findingSite_FindingSite"><path codeLine="63" d="M181.65,761.36 C295.4,761.07 604.75,760.29 787.83,759.83 " fill="none" id="findingSite-to-FindingSite" style="stroke:#181818;stroke-width:1.0;"/><polygon fill="#181818" points="792.94,759.81,783.9286,755.8357,787.94,759.8243,783.9515,763.8357,792.94,759.81" style="stroke:#181818;stroke-width:1.0;"/><text fill="#000000" font-family="sans-serif" font-size="13" lengthAdjust="spacing" textLength="227" x="384" y="755.9651">Create BodyStructure from Finding Site</text></g><!--MD5=[d8441903b891e8b8b9b353499ac20ec4]
link imageRegion to ImagingSelection--><g id="link_imageRegion_ImagingSelection"><path codeLine="64" d="M226.82,834.81 C387.5,835.42 722.87,836.69 864.1,837.22 " fill="none" id="imageRegion-to-ImagingSelection" style="stroke:#181818;stroke-width:1.0;"/><polygon fill="#181818" points="869.45,837.24,860.4615,833.2143,864.45,837.2257,860.4386,841.2143,869.45,837.24" style="stroke:#181818;stroke-width:1.0;"/><text fill="#000000" font-family="sans-serif" font-size="13" lengthAdjust="spacing" textLength="313" x="341" y="830.9651">Create ImagingSelectio from image reference or region</text></g><!--MD5=[564a08ccfc2cc14dd640704e817aff62]
link inputs to imagingMeasurementGroup--><g id="link_inputs_imagingMeasurementGroup"><path codeLine="66" d="M239.02,127.85 C425.35,80.87 831.12,6 1127,148.47 C1258.97,212.02 1355.52,354.71 1411.09,457.23 " fill="none" id="inputs-to-imagingMeasurementGroup" style="stroke:#181818;stroke-width:1.0;"/><polygon fill="#181818" points="1413.54,461.77,1412.7912,451.9496,1411.1678,457.3686,1405.7489,455.7452,1413.54,461.77" style="stroke:#181818;stroke-width:1.0;"/></g><!--MD5=[178275db4e193bb9164271abf1ce2fa4]
link AlgorithmIdentification to imagingMeasurementGroup--><g id="link_AlgorithmIdentification_imagingMeasurementGroup"><path codeLine="67" d="M1019.89,470.56 C1053.49,477.54 1092.05,485.69 1127,493.47 C1167.41,502.46 1210.46,512.37 1251.84,522.06 " fill="none" id="AlgorithmIdentification-to-imagingMeasurementGroup" style="stroke:#181818;stroke-width:1.0;"/><polygon fill="#181818" points="1256.87,523.24,1249.005,517.312,1251.999,522.1115,1247.1994,525.1055,1256.87,523.24" style="stroke:#181818;stroke-width:1.0;"/></g><!--MD5=[97f4457e8f542db1faadf2bdabe6fb0c]
link TrackingBodyStructure to imagingMeasurementGroup--><g id="link_TrackingBodyStructure_imagingMeasurementGroup"><path codeLine="68" d="M1054.08,543.44 C1112.64,547.71 1184.39,552.94 1251.51,557.83 " fill="none" id="TrackingBodyStructure-to-imagingMeasurementGroup" style="stroke:#181818;stroke-width:1.0;"/><polygon fill="#181818" points="1256.74,558.22,1248.0488,553.5872,1251.7528,557.8627,1247.4772,561.5667,1256.74,558.22" style="stroke:#181818;stroke-width:1.0;"/></g><!--MD5=[2335453be2e887d9d99b4347d561474e]
link finding to imagingMeasurementGroup--><g id="link_finding_imagingMeasurementGroup"><path codeLine="69" d="M167.6,614.53 C308.77,610.07 920.5,590.72 1251.46,580.26 " fill="none" id="finding-to-imagingMeasurementGroup" style="stroke:#181818;stroke-width:1.0;"/><polygon fill="#181818" points="1256.79,580.09,1247.6685,576.3755,1251.7925,580.2475,1247.9205,584.3715,1256.79,580.09" style="stroke:#181818;stroke-width:1.0;"/></g><!--MD5=[78b30a5053c2a34c240550637a580c1a]
link findingCategory to imagingMeasurementGroup--><g id="link_findingCategory_imagingMeasurementGroup"><path codeLine="70" d="M198.5,683.47 C353.11,670.66 775.33,635.48 1127,604.47 C1167.31,600.92 1210.3,597.04 1251.66,593.28 " fill="none" id="findingCategory-to-imagingMeasurementGroup" style="stroke:#181818;stroke-width:1.0;"/><polygon fill="#181818" points="1256.7,592.82,1247.3724,589.6585,1251.7209,593.2765,1248.1028,597.6251,1256.7,592.82" style="stroke:#181818;stroke-width:1.0;"/></g><!--MD5=[7a9f84791fa7b5191d27e59cd73cd6d7]
link FindingSite to imagingMeasurementGroup--><g id="link_FindingSite_imagingMeasurementGroup"><path codeLine="71" d="M1067.22,745.97 C1118.33,738.34 1176.28,726.55 1227,708.47 C1244.03,702.4 1261.26,695.17 1278.25,687.24 " fill="none" id="FindingSite-to-imagingMeasurementGroup" style="stroke:#181818;stroke-width:1.0;"/><polygon fill="#181818" points="1283.04,684.99,1273.1936,685.2104,1278.5175,687.1224,1276.6055,692.4464,1283.04,684.99" style="stroke:#181818;stroke-width:1.0;"/></g><!--MD5=[a9f5f3fdbd059cf0a2d3d6167b1c4d6e]
link ImagingSelection to imagingMeasurementGroup--><g id="link_ImagingSelection_imagingMeasurementGroup"><path codeLine="72" d="M990.62,832.41 C1030.38,827.56 1083.19,818.22 1127,800.47 C1195.92,772.55 1265.32,729.35 1323.22,688.1 " fill="none" id="ImagingSelection-to-imagingMeasurementGroup" style="stroke:#181818;stroke-width:1.0;"/><polygon fill="#181818" points="1327.37,685.14,1317.7234,687.1258,1323.3042,688.0502,1322.3798,693.631,1327.37,685.14" style="stroke:#181818;stroke-width:1.0;"/></g><!--MD5=[849018c79dbd045b17ed118bf8e6b954]
link measurementGroup to imagingMeasurementGroup--><g id="link_measurementGroup_imagingMeasurementGroup"><path codeLine="73" d="M268.0203,317.3398 C344.8006,322.2928 448.2513,329.4544 557.9225,338.4513 C777.265,356.445 1021.49,381.78 1127,411.47 C1170.17,423.62 1214.59,440.92 1256.49,459.74 " fill="none" id="measurementGroup-to-imagingMeasurementGroup" style="stroke:#181818;stroke-width:1.0;"/><polygon fill="#181818" points="1261.06,461.8,1254.5028,454.4513,1256.5028,459.7428,1251.2113,461.7429,1261.06,461.8" style="stroke:#181818;stroke-width:1.0;"/></g><!--MD5=[c3ac3370ccbec08d6539db523f3fba8a]
link method to imagingMeasurementGroup--><g id="link_method_imagingMeasurementGroup"><path codeLine="74" d="M212.69,920.48 C381.84,946.67 804.52,993.67 1127,874.47 C1225.62,838.02 1313.63,757.64 1375.24,689.12 " fill="none" id="method-to-imagingMeasurementGroup" style="stroke:#181818;stroke-width:1.0;"/><polygon fill="#181818" points="1378.89,685.03,1369.9038,689.0609,1375.5523,688.7528,1375.8604,694.4013,1378.89,685.03" style="stroke:#181818;stroke-width:1.0;"/></g><!--MD5=[7d501b895b83877338dcba89fb05e93c]
link inputs to imagingMeasurementMap--><g id="link_inputs_imagingMeasurementMap"><path codeLine="76" d="M239.39,167.62 C362.08,181.12 571.57,204.16 727.54,221.31 " fill="none" id="inputs-to-imagingMeasurementMap" style="stroke:#181818;stroke-width:1.0;"/><polygon fill="#181818" points="732.61,221.87,724.1115,216.8925,727.6411,221.3131,723.2205,224.8428,732.61,221.87" style="stroke:#181818;stroke-width:1.0;"/></g><!--MD5=[bf885d6f30aaa4c758122ff85a6a5491]
link measurement to imagingMeasurementMap--><g id="link_measurement_imagingMeasurementMap"><path codeLine="77" d="M220.34,384.13 C241.14,380.84 263.42,377.16 284,373.47 C433.02,346.73 600.62,312.83 727.62,286.35 " fill="none" id="measurement-to-imagingMeasurementMap" style="stroke:#181818;stroke-width:1.0;"/><polygon fill="#181818" points="732.88,285.26,723.2548,283.1729,727.9844,286.2763,724.881,291.0059,732.88,285.26" style="stroke:#181818;stroke-width:1.0;"/><text fill="#000000" font-family="sans-serif" font-size="13" lengthAdjust="spacing" textLength="397" x="299" y="288.9651">Map numerical measurements to ImagingMeasurement Observations</text></g><!--MD5=[1334badc022a3aa33b914c21b9f8e442]
reverse link imagingMeasurementMap to imagingMeasurementGroup--><g id="link_imagingMeasurementMap_imagingMeasurementGroup"><path codeLine="78" d="M1132.2,302.06 C1164.96,315.17 1197.72,330.6 1227,348.47 C1277.34,379.2 1326.05,421.86 1366.2,461.78 " fill="none" id="imagingMeasurementMap-backto-imagingMeasurementGroup" style="stroke:#181818;stroke-width:1.0;"/><polygon fill="#181818" points="1127.36,300.15,1134.2568,307.1809,1132.0092,301.9897,1137.2004,299.7421,1127.36,300.15" style="stroke:#181818;stroke-width:1.0;"/><text fill="#000000" font-family="sans-serif" font-size="13" lengthAdjust="spacing" textLength="68" x="1158" y="309.9651">hasMember</text></g><!--MD5=[6f6ab8395b31744d3dc45648b1cd8a35]
@startuml measurement_container_mapping
left to right direction

map inputs {
   subject => Patient
   partOf => ImagingStudy
   basedOn => ServiceRequest
   device => EquipmentDevice
}

package "Measurements Group" as measurementGroup {
   object "Algorithm Identification" as algorithm
   object "Tracking Identifier / UID" as tracking
   object "Finding" as finding
   object "Finding Category" as findingCategory
   object "Finding Site" as findingSite
   object "Image Region / Reference" as imageRegion
   object "Measurement Method" as method
   package "Numerical Measurements" {
    object "Numerical Measurement" as measurement
   }
}

object AlgorithmIdentification {
    parent = EquipmentDevice
}

object TrackingBodyStructure {
    identifier = TrackingID or TrackingUID
}

object FindingSite {
    includedStructure.structure = Finding Site
}

object ImagingSelection 

object "ImagingMeasurementGroup" as imagingMeasurementGroup {
    subject = Patient
    partOf = ImagingStudy
    basedOn = ServiceRequest
    device = EquipmentDevice or AlgorithmIdentification
    focus = TrackingBodyStructure
    focus = ImagingSelection
    bodyStructure = FindingSite
    code = Finding Category or DCM#125007 "Measurement Group"
    method = Measurement Method
    valueCodeableConcept = Finding
    hasMember = ImagingMeasurement
}

map imagingMeasurementMap {
    subject => Patient
    partOf => ImagingStudy
    basedOn => ServiceRequest
    focus => TrackingBodyStructure
    focus => ImagingSelection
    bodyStructure => FindingSite
    device => AlgorithmIdentification or EquipmentDevice
}

algorithm - -> AlgorithmIdentification: Create AlgorithmIdentification from Algorithm Identification content item
tracking - -> TrackingBodyStructure: Create BodyStructure reference from Tracking Identifier / UID
findingSite - -> FindingSite: Create BodyStructure from Finding Site
imageRegion - -> ImagingSelection: Create ImagingSelectio from image reference or region

inputs - -> imagingMeasurementGroup
AlgorithmIdentification - -> imagingMeasurementGroup
TrackingBodyStructure - -> imagingMeasurementGroup
finding - -> imagingMeasurementGroup
findingCategory - -> imagingMeasurementGroup
FindingSite - -> imagingMeasurementGroup
ImagingSelection - -> imagingMeasurementGroup
measurementGroup - -> imagingMeasurementGroup
method - -> imagingMeasurementGroup

inputs - -> imagingMeasurementMap
measurement - -> imagingMeasurementMap: Map numerical measurements to ImagingMeasurement Observations
imagingMeasurementMap <- - imagingMeasurementGroup: hasMember
@enduml

PlantUML version 1.2022.7(Mon Aug 22 13:01:30 EDT 2022)
(GPL source distribution)
Java Runtime: Java(TM) SE Runtime Environment
JVM: Java HotSpot(TM) 64-Bit Server VM
Default Encoding: Cp1252
Language: en
Country: US
--></g></svg>