<svg xmlns="http://www.w3.org/2000/svg" xmlns:xlink="http://www.w3.org/1999/xlink" contentStyleType="text/css" data-diagram-type="CLASS" height="1063px" preserveAspectRatio="none" style="width:1793px;height:1063px;background:#FFFFFF;" version="1.1" viewBox="0 0 1793 1063" width="1793px" zoomAndPan="magnify"><defs/><g><!--cluster measurementGroup--><g class="cluster" data-entity="measurementGroup" data-source-line="10" data-uid="ent0003" id="cluster_measurementGroup"><path d="M8.5,281.66 L153.4238,281.66 A3.75,3.75 0 0 1 155.9238,284.16 L162.9238,306.2811 L383.5,306.2811 A2.5,2.5 0 0 1 386,308.7811 L386,1054.16 A2.5,2.5 0 0 1 383.5,1056.66 L8.5,1056.66 A2.5,2.5 0 0 1 6,1054.16 L6,284.16 A2.5,2.5 0 0 1 8.5,281.66" fill="none" style="stroke:#000000;stroke-width:1.5;"/><line style="stroke:#000000;stroke-width:1.5;" x1="6" x2="162.9238" y1="306.2811" y2="306.2811"/><text fill="#000000" font-family="sans-serif" font-size="14" font-weight="bold" lengthAdjust="spacing" textLength="143.9238" x="10" y="298.7674">Measurements Group</text></g><!--cluster Numerical Measurements--><g class="cluster" data-entity="Numerical Measurements" data-source-line="18" data-uid="ent0011" id="cluster_Numerical Measurements"><path d="M99.5,342.66 L270.127,342.66 A3.75,3.75 0 0 1 272.627,345.16 L279.627,367.2811 L292.5,367.2811 A2.5,2.5 0 0 1 295,369.7811 L295,433.16 A2.5,2.5 0 0 1 292.5,435.66 L99.5,435.66 A2.5,2.5 0 0 1 97,433.16 L97,345.16 A2.5,2.5 0 0 1 99.5,342.66" fill="none" style="stroke:#000000;stroke-width:1.5;"/><line style="stroke:#000000;stroke-width:1.5;" x1="97" x2="279.627" y1="367.2811" y2="367.2811"/><text fill="#000000" font-family="sans-serif" font-size="14" font-weight="bold" lengthAdjust="spacing" textLength="169.627" x="101" y="359.7674">Numerical Measurements</text></g><g class="entity" data-entity="algorithm" data-source-line="11" data-uid="ent0004" id="entity_algorithm"><rect fill="#F1F1F1" height="38.6211" rx="2.5" ry="2.5" style="stroke:#181818;stroke-width:0.5;" width="155.627" x="118" y="454.16"/><text fill="#000000" font-family="sans-serif" font-size="14" lengthAdjust="spacing" textLength="141.627" x="125" y="471.2674">Algorithm Identification</text><line style="stroke:#181818;stroke-width:0.5;" x1="119" x2="272.627" y1="476.7811" y2="476.7811"/></g><g class="entity" data-entity="tracking" data-source-line="12" data-uid="ent0005" id="entity_tracking"><rect fill="#F1F1F1" height="38.6211" rx="2.5" ry="2.5" style="stroke:#181818;stroke-width:0.5;" width="161.0479" x="115.5" y="528.16"/><text fill="#000000" font-family="sans-serif" font-size="14" lengthAdjust="spacing" textLength="147.0479" x="122.5" y="545.2674">Tracking Identifier / UID</text><line style="stroke:#181818;stroke-width:0.5;" x1="116.5" x2="275.5479" y1="550.7811" y2="550.7811"/></g><g class="entity" data-entity="finding" data-source-line="13" data-uid="ent0006" id="entity_finding"><rect fill="#F1F1F1" height="38.6211" rx="2.5" ry="2.5" style="stroke:#181818;stroke-width:0.5;" width="59.917" x="166" y="602.16"/><text fill="#000000" font-family="sans-serif" font-size="14" lengthAdjust="spacing" textLength="45.917" x="173" y="619.2674">Finding</text><line style="stroke:#181818;stroke-width:0.5;" x1="167" x2="224.917" y1="624.7811" y2="624.7811"/></g><g class="entity" data-entity="findingCategory" data-source-line="14" data-uid="ent0007" id="entity_findingCategory"><rect fill="#F1F1F1" height="38.6211" rx="2.5" ry="2.5" style="stroke:#181818;stroke-width:0.5;" width="120.6133" x="135.5" y="676.16"/><text fill="#000000" font-family="sans-serif" font-size="14" lengthAdjust="spacing" textLength="106.6133" x="142.5" y="693.2674">Finding Category</text><line style="stroke:#181818;stroke-width:0.5;" x1="136.5" x2="255.1133" y1="698.7811" y2="698.7811"/></g><g class="entity" data-entity="BodyStructureFindingSite" data-source-line="15" data-uid="ent0008" id="entity_BodyStructureFindingSite"><rect fill="#F1F1F1" height="86.4844" rx="2.5" ry="2.5" style="stroke:#181818;stroke-width:0.5;" width="332.2295" x="30" y="797.66"/><text fill="#000000" font-family="sans-serif" font-size="14" lengthAdjust="spacing" textLength="73.9307" x="159.1494" y="814.7674">Finding Site</text><line style="stroke:#181818;stroke-width:0.5;" x1="31" x2="361.2295" y1="820.2811" y2="820.2811"/><text fill="#000000" font-family="sans-serif" font-size="14" lengthAdjust="spacing" textLength="257.1885" x="36" y="839.3885">includedStructure.structure = Finding Site</text><text fill="#000000" font-family="sans-serif" font-size="14" lengthAdjust="spacing" textLength="237.7334" x="36" y="858.0096">includedStrucutre.laterality = Laterality</text><text fill="#000000" font-family="sans-serif" font-size="14" lengthAdjust="spacing" textLength="320.2295" x="36" y="876.6307">includedStructure.qualifier = Topographical modifier</text></g><g class="entity" data-entity="imageRegion" data-source-line="16" data-uid="ent0009" id="entity_imageRegion"><rect fill="#F1F1F1" height="38.6211" rx="2.5" ry="2.5" style="stroke:#181818;stroke-width:0.5;" width="177.4268" x="107.5" y="919.16"/><text fill="#000000" font-family="sans-serif" font-size="14" lengthAdjust="spacing" textLength="163.4268" x="114.5" y="936.2674">Image Region / Reference</text><line style="stroke:#181818;stroke-width:0.5;" x1="108.5" x2="283.9268" y1="941.7811" y2="941.7811"/></g><g class="entity" data-entity="method" data-source-line="17" data-uid="ent0010" id="entity_method"><rect fill="#F1F1F1" height="38.6211" rx="2.5" ry="2.5" style="stroke:#181818;stroke-width:0.5;" width="150.1787" x="121" y="993.16"/><text fill="#000000" font-family="sans-serif" font-size="14" lengthAdjust="spacing" textLength="136.1787" x="128" y="1010.2674">Measurement Method</text><line style="stroke:#181818;stroke-width:0.5;" x1="122" x2="270.1787" y1="1015.7811" y2="1015.7811"/></g><g class="entity" data-entity="measurement" data-source-line="19" data-uid="ent0012" id="entity_measurement"><rect fill="#F1F1F1" height="38.6211" rx="2.5" ry="2.5" style="stroke:#181818;stroke-width:0.5;" width="166.4961" x="113" y="380.16"/><text fill="#000000" font-family="sans-serif" font-size="14" lengthAdjust="spacing" textLength="152.4961" x="120" y="397.2674">Numerical Measurement</text><line style="stroke:#181818;stroke-width:0.5;" x1="114" x2="278.4961" y1="402.7811" y2="402.7811"/></g><g class="entity" data-entity="inputs" data-source-line="3" data-uid="ent0002" id="entity_inputs"><rect fill="#F1F1F1" height="113.1055" rx="2.5" ry="2.5" style="stroke:#181818;stroke-width:0.5;" width="356.3916" x="18" y="95.16"/><a href="mapping.html#imaging-measurements-container-mapping" target="_top" title="mapping.html#imaging-measurements-container-mapping" xlink:actuate="onRequest" xlink:href="mapping.html#imaging-measurements-container-mapping" xlink:show="new" xlink:title="mapping.html#imaging-measurements-container-mapping" xlink:type="simple"><text fill="#0000FF" font-family="sans-serif" font-size="14" lengthAdjust="spacing" text-decoration="underline" textLength="342.3916" x="25" y="112.2674">Inputs from Imaging Measurements Container Mapping</text></a><line style="stroke:#181818;stroke-width:1;" x1="18" x2="374.3916" y1="117.7811" y2="117.7811"/><text fill="#000000" font-family="sans-serif" font-size="14" lengthAdjust="spacing" textLength="44.3584" x="29.231" y="134.8885">subject</text><text fill="#000000" font-family="sans-serif" font-size="14" lengthAdjust="spacing" textLength="43.5859" x="89.8203" y="134.8885">Patient</text><line style="stroke:#181818;stroke-width:1;" x1="84.8203" x2="84.8203" y1="117.7811" y2="140.4022"/><line style="stroke:#181818;stroke-width:1;" x1="18" x2="374.3916" y1="140.4022" y2="140.4022"/><text fill="#000000" font-family="sans-serif" font-size="14" lengthAdjust="spacing" textLength="38.9033" x="31.9585" y="157.5096">partOf</text><text fill="#000000" font-family="sans-serif" font-size="14" lengthAdjust="spacing" textLength="85.6064" x="89.8203" y="157.5096">ImagingStudy</text><line style="stroke:#181818;stroke-width:1;" x1="84.8203" x2="84.8203" y1="140.4022" y2="163.0233"/><line style="stroke:#181818;stroke-width:1;" x1="18" x2="374.3916" y1="163.0233" y2="163.0233"/><text fill="#000000" font-family="sans-serif" font-size="14" lengthAdjust="spacing" textLength="56.8203" x="23" y="180.1307">basedOn</text><text fill="#000000" font-family="sans-serif" font-size="14" lengthAdjust="spacing" textLength="98.8271" x="89.8203" y="180.1307">ServiceRequest</text><line style="stroke:#181818;stroke-width:1;" x1="84.8203" x2="84.8203" y1="163.0233" y2="185.6444"/><line style="stroke:#181818;stroke-width:1;" x1="18" x2="374.3916" y1="185.6444" y2="185.6444"/><text fill="#000000" font-family="sans-serif" font-size="14" lengthAdjust="spacing" textLength="40.4688" x="31.1758" y="202.7518">device</text><text fill="#000000" font-family="sans-serif" font-size="14" lengthAdjust="spacing" textLength="109.7236" x="89.8203" y="202.7518">EquipmentDevice</text><line style="stroke:#181818;stroke-width:1;" x1="84.8203" x2="84.8203" y1="185.6444" y2="208.2655"/></g><g class="entity" data-entity="AlgorithmIdentification" data-source-line="23" data-uid="ent0013" id="entity_AlgorithmIdentification"><rect fill="#F1F1F1" height="49.2422" rx="2.5" ry="2.5" style="stroke:#181818;stroke-width:0.5;" width="206.9717" x="944.5" y="439.16"/><text fill="#000000" font-family="sans-serif" font-size="14" lengthAdjust="spacing" textLength="192.9717" x="951.5" y="456.2674">Device - AlgorithmIdentification</text><line style="stroke:#181818;stroke-width:0.5;" x1="945.5" x2="1150.4717" y1="461.7811" y2="461.7811"/><text fill="#000000" font-family="sans-serif" font-size="14" lengthAdjust="spacing" textLength="165.375" x="950.5" y="480.8885">parent = EquipmentDevice</text></g><g class="entity" data-entity="TrackingBodyStructure" data-source-line="27" data-uid="ent0014" id="entity_TrackingBodyStructure"><rect fill="#F1F1F1" height="49.2422" rx="2.5" ry="2.5" style="stroke:#181818;stroke-width:0.5;" width="322.1299" x="887" y="523.16"/><text fill="#000000" font-family="sans-serif" font-size="14" lengthAdjust="spacing" textLength="308.1299" x="894" y="540.2674">Body Structure - BodyStructureTrackingIdentifiers</text><line style="stroke:#181818;stroke-width:0.5;" x1="888" x2="1208.1299" y1="545.7811" y2="545.7811"/><text fill="#000000" font-family="sans-serif" font-size="14" lengthAdjust="spacing" textLength="234.5752" x="893" y="564.8885">identifier = TrackingID or TrackingUID</text></g><g class="entity" data-entity="ImagingSelection" data-source-line="37" data-uid="ent0015" id="entity_ImagingSelection"><rect fill="#F1F1F1" height="38.6211" rx="2.5" ry="2.5" style="stroke:#181818;stroke-width:0.5;" width="121.3994" x="987.5" y="862.16"/><text fill="#000000" font-family="sans-serif" font-size="14" lengthAdjust="spacing" textLength="107.3994" x="994.5" y="879.2674">ImagingSelection</text><line style="stroke:#181818;stroke-width:0.5;" x1="988.5" x2="1107.8994" y1="884.7811" y2="884.7811"/></g><g class="entity" data-entity="imagingMeasurementGroup" data-source-line="39" data-uid="ent0016" id="entity_imagingMeasurementGroup"><rect fill="#F1F1F1" height="235.4531" rx="2.5" ry="2.5" style="stroke:#181818;stroke-width:0.5;" width="413.7617" x="1373" y="469.16"/><text fill="#000000" font-family="sans-serif" font-size="14" lengthAdjust="spacing" textLength="270.0127" x="1444.8745" y="486.2674">Observation - Imaging Measurement Group</text><line style="stroke:#181818;stroke-width:0.5;" x1="1374" x2="1785.7617" y1="491.7811" y2="491.7811"/><text fill="#000000" font-family="sans-serif" font-size="14" lengthAdjust="spacing" textLength="103.8994" x="1379" y="510.8885">subject = Patient</text><text fill="#000000" font-family="sans-serif" font-size="14" lengthAdjust="spacing" textLength="140.4648" x="1379" y="529.5096">partOf = ImagingStudy</text><text fill="#000000" font-family="sans-serif" font-size="14" lengthAdjust="spacing" textLength="171.6025" x="1379" y="548.1307">basedOn = ServiceRequest</text><text fill="#000000" font-family="sans-serif" font-size="14" lengthAdjust="spacing" textLength="324.1123" x="1379" y="566.7518">device = EquipmentDevice or AlgorithmIdentification</text><text fill="#000000" font-family="sans-serif" font-size="14" lengthAdjust="spacing" textLength="252.5059" x="1379" y="585.3729">focus = BodyStructureTrackingIdentifiers</text><text fill="#000000" font-family="sans-serif" font-size="14" lengthAdjust="spacing" textLength="156.8164" x="1379" y="603.994">focus = ImagingSelection</text><text fill="#000000" font-family="sans-serif" font-size="14" lengthAdjust="spacing" textLength="261.8643" x="1379" y="622.6151">bodyStructure = BodyStructureFindingSite</text><text fill="#000000" font-family="sans-serif" font-size="14" lengthAdjust="spacing" textLength="401.7617" x="1379" y="641.2362">code = Finding Category or DCM#125007 "Measurement Group"</text><text fill="#000000" font-family="sans-serif" font-size="14" lengthAdjust="spacing" textLength="198.8301" x="1379" y="659.8573">method = Measurement Method</text><text fill="#000000" font-family="sans-serif" font-size="14" lengthAdjust="spacing" textLength="207.4229" x="1379" y="678.4784">valueCodeableConcept = Finding</text><text fill="#000000" font-family="sans-serif" font-size="14" lengthAdjust="spacing" textLength="225.2715" x="1379" y="697.0995">hasMember = ImagingMeasurement</text></g><g class="entity" data-entity="imagingMeasurementMap" data-source-line="53" data-uid="ent0017" id="entity_imagingMeasurementMap"><rect fill="#F1F1F1" height="158.3477" rx="2.5" ry="2.5" style="stroke:#181818;stroke-width:0.5;" width="374.8467" x="861" y="164.66"/><a href="mapping.html#imaging-measurement-mapping" target="_top" title="mapping.html#imaging-measurement-mapping" xlink:actuate="onRequest" xlink:href="mapping.html#imaging-measurement-mapping" xlink:show="new" xlink:title="mapping.html#imaging-measurement-mapping" xlink:type="simple"><text fill="#0000FF" font-family="sans-serif" font-size="14" lengthAdjust="spacing" text-decoration="underline" textLength="196.8818" x="949.9824" y="181.7674">Imaging Measurement Mapping</text></a><line style="stroke:#181818;stroke-width:1;" x1="861" x2="1235.8467" y1="187.2811" y2="187.2811"/><text fill="#000000" font-family="sans-serif" font-size="14" lengthAdjust="spacing" textLength="44.3584" x="887.3999" y="204.3885">subject</text><text fill="#000000" font-family="sans-serif" font-size="14" lengthAdjust="spacing" textLength="43.5859" x="963.1582" y="204.3885">Patient</text><line style="stroke:#181818;stroke-width:1;" x1="958.1582" x2="958.1582" y1="187.2811" y2="209.9022"/><line style="stroke:#181818;stroke-width:1;" x1="861" x2="1235.8467" y1="209.9022" y2="209.9022"/><text fill="#000000" font-family="sans-serif" font-size="14" lengthAdjust="spacing" textLength="38.9033" x="890.1274" y="227.0096">partOf</text><text fill="#000000" font-family="sans-serif" font-size="14" lengthAdjust="spacing" textLength="85.6064" x="963.1582" y="227.0096">ImagingStudy</text><line style="stroke:#181818;stroke-width:1;" x1="958.1582" x2="958.1582" y1="209.9022" y2="232.5233"/><line style="stroke:#181818;stroke-width:1;" x1="861" x2="1235.8467" y1="232.5233" y2="232.5233"/><text fill="#000000" font-family="sans-serif" font-size="14" lengthAdjust="spacing" textLength="56.8203" x="881.1689" y="249.6307">basedOn</text><text fill="#000000" font-family="sans-serif" font-size="14" lengthAdjust="spacing" textLength="98.8271" x="963.1582" y="249.6307">ServiceRequest</text><line style="stroke:#181818;stroke-width:1;" x1="958.1582" x2="958.1582" y1="232.5233" y2="255.1444"/><line style="stroke:#181818;stroke-width:1;" x1="861" x2="1235.8467" y1="255.1444" y2="255.1444"/><text fill="#000000" font-family="sans-serif" font-size="14" lengthAdjust="spacing" textLength="33.4619" x="892.8481" y="272.2518">focus</text><text fill="#000000" font-family="sans-serif" font-size="14" lengthAdjust="spacing" textLength="107.3994" x="963.1582" y="272.2518">ImagingSelection</text><line style="stroke:#181818;stroke-width:1;" x1="958.1582" x2="958.1582" y1="255.1444" y2="277.7655"/><line style="stroke:#181818;stroke-width:1;" x1="861" x2="1235.8467" y1="277.7655" y2="277.7655"/><text fill="#000000" font-family="sans-serif" font-size="14" lengthAdjust="spacing" textLength="87.1582" x="866" y="294.8729">bodyStructure</text><text fill="#000000" font-family="sans-serif" font-size="14" lengthAdjust="spacing" textLength="158.751" x="963.1582" y="294.8729">BodyStructureFindingSite</text><line style="stroke:#181818;stroke-width:1;" x1="958.1582" x2="958.1582" y1="277.7655" y2="300.3866"/><line style="stroke:#181818;stroke-width:1;" x1="861" x2="1235.8467" y1="300.3866" y2="300.3866"/><text fill="#000000" font-family="sans-serif" font-size="14" lengthAdjust="spacing" textLength="40.4688" x="889.3447" y="317.494">device</text><text fill="#000000" font-family="sans-serif" font-size="14" lengthAdjust="spacing" textLength="267.6885" x="963.1582" y="317.494">AlgorithmIdentification or EquipmentDevice</text><line style="stroke:#181818;stroke-width:1;" x1="958.1582" x2="958.1582" y1="300.3866" y2="323.0077"/></g><!--link algorithm to AlgorithmIdentification--><g class="link" data-entity-1="algorithm" data-entity-2="AlgorithmIdentification" data-source-line="63" data-uid="lnk18" id="link_algorithm_AlgorithmIdentification"><path codeLine="63" d="M274.12,475 C315.08,475.64 366.27,476.34 412,476.66 C594.66,477.93 640.41,481.95 823,476.66 C862.72,475.51 900.3514,473.5792 938.4714,471.2292" fill="none" id="algorithm-to-AlgorithmIdentification" style="stroke:#181818;stroke-width:1;"/><polygon fill="#181818" points="944.46,470.86,935.2309,467.4214,939.4695,471.1677,935.7232,475.4062,944.46,470.86" style="stroke:#181818;stroke-width:1;"/><text fill="#000000" font-family="sans-serif" font-size="13" lengthAdjust="spacing" textLength="409.6904" x="413" y="472.6883">Create AlgorithmIdentification from Algorithm Identification content item</text></g><!--link tracking to TrackingBodyStructure--><g class="link" data-entity-1="tracking" data-entity-2="TrackingBodyStructure" data-source-line="64" data-uid="lnk19" id="link_tracking_TrackingBodyStructure"><path codeLine="64" d="M276.58,547.66 C415.56,547.66 699,547.66 880.85,547.66" fill="none" id="tracking-to-TrackingBodyStructure" style="stroke:#181818;stroke-width:1;"/><polygon fill="#181818" points="886.85,547.66,877.85,543.66,881.85,547.66,877.85,551.66,886.85,547.66" style="stroke:#181818;stroke-width:1;"/><text fill="#000000" font-family="sans-serif" font-size="13" lengthAdjust="spacing" textLength="353.3042" x="441" y="543.6883">Create BodyStructure reference from Tracking Identifier / UID</text></g><!--link BodyStructureFindingSite to BodyStructureFindingSite--><g class="link" data-entity-1="BodyStructureFindingSite" data-entity-2="BodyStructureFindingSite" data-source-line="65" data-uid="lnk20" id="link_BodyStructureFindingSite_BodyStructureFindingSite"><path codeLine="65" d="M118.19,797.35 C111.82,778.66 137.76,762.66 196,762.66 C254.24,762.66 282.1156,772.9808 275.7456,791.6708" fill="none" id="BodyStructureFindingSite-to-BodyStructureFindingSite" style="stroke:#181818;stroke-width:1;"/><polygon fill="#181818" points="273.81,797.35,280.4996,790.1216,275.423,792.6173,272.9273,787.5408,273.81,797.35" style="stroke:#181818;stroke-width:1;"/><text fill="#000000" font-family="sans-serif" font-size="13" lengthAdjust="spacing" textLength="226.8779" x="83" y="753.6883">Create BodyStructure from Finding Site</text></g><!--link imageRegion to ImagingSelection--><g class="link" data-entity-1="imageRegion" data-entity-2="ImagingSelection" data-source-line="66" data-uid="lnk21" id="link_imageRegion_ImagingSelection"><path codeLine="66" d="M284.76,932.77 C458.04,921.16 834.0434,895.9414 981.4034,886.0614" fill="none" id="imageRegion-to-ImagingSelection" style="stroke:#181818;stroke-width:1;"/><polygon fill="#181818" points="987.39,885.66,978.1426,882.271,982.4012,885.9945,978.6777,890.2531,987.39,885.66" style="stroke:#181818;stroke-width:1;"/><text fill="#000000" font-family="sans-serif" font-size="13" lengthAdjust="spacing" textLength="324.4414" x="455.5" y="892.6883">Create ImagingSelection from image reference or region</text></g><!--link inputs to imagingMeasurementGroup--><g class="link" data-entity-1="inputs" data-entity-2="imagingMeasurementGroup" data-source-line="68" data-uid="lnk22" id="link_inputs_imagingMeasurementGroup"><path codeLine="68" d="M382.09,101.9 C600.37,53.69 968.2,6 1243,142.66 C1378.89,210.24 1471.7965,356.5535 1525.4065,463.7635" fill="none" id="inputs-to-imagingMeasurementGroup" style="stroke:#181818;stroke-width:1;"/><polygon fill="#181818" points="1528.09,469.13,1527.6424,459.2913,1525.8538,464.6579,1520.4871,462.8693,1528.09,469.13" style="stroke:#181818;stroke-width:1;"/></g><!--link AlgorithmIdentification to imagingMeasurementGroup--><g class="link" data-entity-1="AlgorithmIdentification" data-entity-2="imagingMeasurementGroup" data-source-line="69" data-uid="lnk23" id="link_AlgorithmIdentification_imagingMeasurementGroup"><path codeLine="69" d="M1151.54,485.39 C1181.09,491.78 1213.35,498.88 1243,505.66 C1284.97,515.26 1323.9753,524.4413 1366.7753,534.7013" fill="none" id="AlgorithmIdentification-to-imagingMeasurementGroup" style="stroke:#181818;stroke-width:1;"/><polygon fill="#181818" points="1372.61,536.1,1364.7904,530.1122,1367.7478,534.9344,1362.9255,537.8918,1372.61,536.1" style="stroke:#181818;stroke-width:1;"/></g><!--link TrackingBodyStructure to imagingMeasurementGroup--><g class="link" data-entity-1="TrackingBodyStructure" data-entity-2="imagingMeasurementGroup" data-source-line="70" data-uid="lnk24" id="link_TrackingBodyStructure_imagingMeasurementGroup"><path codeLine="70" d="M1209.1,559.44 C1260.6,563.23 1312.4162,567.0394 1366.7462,571.0394" fill="none" id="TrackingBodyStructure-to-imagingMeasurementGroup" style="stroke:#181818;stroke-width:1;"/><polygon fill="#181818" points="1372.73,571.48,1364.048,566.83,1367.7435,571.1129,1363.4606,574.8084,1372.73,571.48" style="stroke:#181818;stroke-width:1;"/></g><!--link finding to imagingMeasurementGroup--><g class="link" data-entity-1="finding" data-entity-2="imagingMeasurementGroup" data-source-line="71" data-uid="lnk25" id="link_finding_imagingMeasurementGroup"><path codeLine="71" d="M226.18,620.92 C372.4,617.22 1025.7919,600.6719 1366.9919,592.0319" fill="none" id="finding-to-imagingMeasurementGroup" style="stroke:#181818;stroke-width:1;"/><polygon fill="#181818" points="1372.99,591.88,1363.8916,588.1091,1367.9916,592.0066,1364.0941,596.1065,1372.99,591.88" style="stroke:#181818;stroke-width:1;"/></g><!--link findingCategory to imagingMeasurementGroup--><g class="link" data-entity-1="findingCategory" data-entity-2="imagingMeasurementGroup" data-source-line="72" data-uid="lnk26" id="link_findingCategory_imagingMeasurementGroup"><path codeLine="72" d="M256.83,690.94 C448.19,675.85 1045.6086,628.7319 1366.9386,603.3819" fill="none" id="findingCategory-to-imagingMeasurementGroup" style="stroke:#181818;stroke-width:1;"/><polygon fill="#181818" points="1372.92,602.91,1363.6333,599.6302,1367.9355,603.3032,1364.2625,607.6054,1372.92,602.91" style="stroke:#181818;stroke-width:1;"/></g><!--link BodyStructureFindingSite to imagingMeasurementGroup--><g class="link" data-entity-1="BodyStructureFindingSite" data-entity-2="imagingMeasurementGroup" data-source-line="73" data-uid="lnk27" id="link_BodyStructureFindingSite_imagingMeasurementGroup"><path codeLine="73" d="M362.39,811.07 C568.65,774.06 932.03,708.52 1243,650.66 C1285.03,642.84 1324.1055,635.4804 1367.0355,627.3204" fill="none" id="BodyStructureFindingSite-to-imagingMeasurementGroup" style="stroke:#181818;stroke-width:1;"/><polygon fill="#181818" points="1372.93,626.2,1363.3414,623.951,1368.0179,627.1337,1364.8352,631.8102,1372.93,626.2" style="stroke:#181818;stroke-width:1;"/></g><!--link ImagingSelection to imagingMeasurementGroup--><g class="link" data-entity-1="ImagingSelection" data-entity-2="imagingMeasurementGroup" data-source-line="74" data-uid="lnk28" id="link_ImagingSelection_imagingMeasurementGroup"><path codeLine="74" d="M1108.52,881.97 C1170.5,879.95 1268.72,869.99 1343,830.66 C1400.42,800.26 1448.23,755.3238 1488.52,708.8438" fill="none" id="ImagingSelection-to-imagingMeasurementGroup" style="stroke:#181818;stroke-width:1;"/><polygon fill="#181818" points="1492.45,704.31,1483.5325,708.4907,1489.175,708.0882,1489.5775,713.7307,1492.45,704.31" style="stroke:#181818;stroke-width:1;"/></g><!--link measurementGroup to imagingMeasurementGroup--><g class="link" data-entity-1="measurementGroup" data-entity-2="imagingMeasurementGroup" data-source-line="75" data-uid="lnk29" id="link_measurementGroup_imagingMeasurementGroup"><path codeLine="75" d="M387.1264,311.0179 C388.3993,311.0474 389.6772,311.0774 390.9601,311.1081 C393.526,311.1695 396.1117,311.2333 398.717,311.2996 C403.9276,311.4323 409.2165,311.5752 414.5808,311.7288 C457.4952,312.9575 505.2397,314.875 556.3938,317.8 C761.01,329.5 1020.18,357.32 1243,421.66 C1286.39,434.19 1325.5446,449.5605 1367.4946,468.9705" fill="none" id="measurementGroup-to-imagingMeasurementGroup" style="stroke:#181818;stroke-width:1;"/><polygon fill="#181818" points="1372.94,471.49,1366.4516,464.0805,1368.4022,469.3904,1363.0923,471.3409,1372.94,471.49" style="stroke:#181818;stroke-width:1;"/></g><!--link method to imagingMeasurementGroup--><g class="link" data-entity-1="method" data-entity-2="imagingMeasurementGroup" data-source-line="76" data-uid="lnk30" id="link_method_imagingMeasurementGroup"><path codeLine="76" d="M271.2,1016.09 C445.17,1021.98 891.2,1024.55 1243,918.66 C1355.1,884.92 1443.1232,790.434 1502.1932,709.134" fill="none" id="method-to-imagingMeasurementGroup" style="stroke:#181818;stroke-width:1;"/><polygon fill="#181818" points="1505.72,704.28,1497.1938,709.2099,1502.781,708.325,1503.6658,713.9123,1505.72,704.28" style="stroke:#181818;stroke-width:1;"/></g><!--link inputs to imagingMeasurementMap--><g class="link" data-entity-1="inputs" data-entity-2="imagingMeasurementMap" data-source-line="78" data-uid="lnk31" id="link_inputs_imagingMeasurementMap"><path codeLine="78" d="M382.22,171.71 C521.43,186.77 705.6749,206.7141 846.9749,222.0141" fill="none" id="inputs-to-imagingMeasurementMap" style="stroke:#181818;stroke-width:1;"/><polygon fill="#181818" points="852.94,222.66,844.4229,217.7144,847.9691,222.1217,843.5617,225.6679,852.94,222.66" style="stroke:#181818;stroke-width:1;"/></g><!--link measurement to imagingMeasurementMap--><g class="link" data-entity-1="measurement" data-entity-2="imagingMeasurementMap" data-source-line="79" data-uid="lnk32" id="link_measurement_imagingMeasurementMap"><path codeLine="79" d="M279.02,391.68 C316.6,387.6 361.67,382.14 402,375.66 C554.21,351.22 719.209,317.1742 846.819,289.2142" fill="none" id="measurement-to-imagingMeasurementMap" style="stroke:#181818;stroke-width:1;"/><polygon fill="#181818" points="852.68,287.93,843.0324,285.9489,847.7959,289.0001,844.7447,293.7636,852.68,287.93" style="stroke:#181818;stroke-width:1;"/><text fill="#000000" font-family="sans-serif" font-size="13" lengthAdjust="spacing" textLength="398.8423" x="418.5" y="291.6883">Map numerical measurements to ImagingMeasurement Observations</text></g><!--reverse link imagingMeasurementMap to imagingMeasurementGroup--><g class="link" data-entity-1="imagingMeasurementMap" data-entity-2="imagingMeasurementGroup" data-source-line="80" data-uid="lnk33" id="link_imagingMeasurementMap_imagingMeasurementGroup"><path codeLine="80" d="M1248.7476,305.3056 C1283.2376,319.5156 1312.35,334.08 1343,353.66 C1392.25,385.12 1439.54,428.26 1478.69,468.88" fill="none" id="imagingMeasurementMap-backto-imagingMeasurementGroup" style="stroke:#181818;stroke-width:1;"/><polygon fill="#181818" points="1243.2,303.02,1249.9976,310.1468,1247.823,304.9247,1253.0452,302.75,1243.2,303.02" style="stroke:#181818;stroke-width:1;"/><text fill="#000000" font-family="sans-serif" font-size="13" lengthAdjust="spacing" textLength="68.6372" x="1274" y="313.6883">hasMember</text></g><!--SRC=[ZLPHRzCm47xFhpXrpna32I5Dj1AqW2fHXjRnDEt1JPpKaCIPuqogqFuxPpjndCOEVMhZkyztlk_ydGkQIP0S1CkF4b8cQ28PhwAe93Ki7X_nfsPLVdsKPN75IfBZHrnIqhI2bhIIJPpmIX9MKH5tlh2jwbOsa0bUmjP0OET0ODr3O6SWJqyB80qm0_mR0K3J7dvZBh1SmKyY6UBKQas4lClKOhVnNhRfILaEfA7fNQLCUofUM4BlwNDB6mrBgLfGjY_FBQjL5Xkz5Br6KKsIFoIdi1Zb-4tmjjPPEQVLYoO_Rj9RV2foBfWyub5Jz60PIuYge8QItkWY7WG6r7Ng05Y7D_1hkz4GsLbTn5TMfRYaxPdvxp73caYAyKwkNx_cyzypIRNlPvwUzbAqYSHpTbPbT46gtXJkQOvdmtJlQKO5hHApWMeCQcmknYaeDe0yyhGhgFfhwEnA_wCjgS3A5QD6MPXIs_syNkSSASIhuhL76QOX1akLXwc0hKi0sqwTOUbhdpwCAYBOAcAuKLLxqWVE6nstNnyvTr7Pq1zBwxZT01Vs2xlcyXmSPcTfxyDNIT6cDBKkrutTUGbk4qtTMudk1VQU80MJ9_J_RZy2cp-tQEqFoskU2r8VDTabJxN1EMb_-sbXz0g66jmT6hp_XhtOfp_ErUu4RUUzuOC4kGfa9MYYG8C4UHJ8Ij1v2oas0ysdSHbFsWPX_-kcaVDvUKnwenPRpjvwI7ZgijpBYCfsizvTlNtt_kRcm_Y6cx9gjBdXY9ygWBQ_aAAbQmn13WN-eepKSeYcNOwasT7oeDjXEw59jSA54seOIvvME9i_apXeFs-6bRSRLZFju9j8FLKhlmACNIwXSpNFvp01Gqg7p7hKpKumYECWzXRMWcA71FVMJu7Gf0JrWb1aOAvbrCy_7SzR6njjh9cYdqWcMd3AHa7PKn53na1G7MeaXSuer1kUSsStcaYOtal3dRCWAyBCrQXx7QbD0xeLXUe_X_5Fe3b4zxIunCVgnfplB24XqAHySywJ9zoyinQlEPTvBb0qt8XXhrkbFr3PLutxhbQFygdkWJFTciYlLn_ZE9JuxI2h_m00]--></g></svg>