<?xml version="1.0" encoding="UTF-8" standalone="no"?><svg xmlns="http://www.w3.org/2000/svg" xmlns:xlink="http://www.w3.org/1999/xlink" contentStyleType="text/css" height="1726px" preserveAspectRatio="none" style="width:1847px;height:1726px;background:#FFFFFF;" version="1.1" viewBox="0 0 1847 1726" width="1847px" zoomAndPan="magnify"><defs/><g><ellipse cx="946.5" cy="20" fill="#222222" rx="10" ry="10" style="stroke:#222222;stroke-width:1.0;"/><rect fill="none" height="305.0781" style="stroke:#000000;stroke-width:1.5;" width="207" x="848" y="40"/><path d="M896,40 L896,50.6094 L886,60.6094 L848,60.6094 " fill="none" style="stroke:#000000;stroke-width:1.5;"/><text fill="#000000" font-family="sans-serif" font-size="14" lengthAdjust="spacing" textLength="38" x="851" y="55.5332">Inputs</text><polygon fill="#F1F1F1" points="887.5,77.6094,1015.5,77.6094,1005.5,95.1563,1015.5,112.7031,887.5,112.7031" style="stroke:#181818;stroke-width:0.5;"/><text fill="#000000" font-family="sans-serif" font-size="12" lengthAdjust="spacing" textLength="98" x="897.5" y="100.0664">Patient Reference</text><polygon fill="#F1F1F1" points="869,132.7031,1034,132.7031,1024,150.25,1034,167.7969,869,167.7969" style="stroke:#181818;stroke-width:0.5;"/><text fill="#000000" font-family="sans-serif" font-size="12" lengthAdjust="spacing" textLength="135" x="879" y="155.1602">ImagingStudy Reference</text><polygon fill="#F1F1F1" points="863,187.7969,1040,187.7969,1030,205.3438,1040,222.8906,863,222.8906" style="stroke:#181818;stroke-width:0.5;"/><text fill="#000000" font-family="sans-serif" font-size="12" lengthAdjust="spacing" textLength="147" x="873" y="210.2539">ServiceRequest Reference</text><polygon fill="#F1F1F1" points="888,242.8906,1015,242.8906,1005,260.4375,1015,277.9844,888,277.9844" style="stroke:#181818;stroke-width:0.5;"/><text fill="#000000" font-family="sans-serif" font-size="12" lengthAdjust="spacing" textLength="97" x="898" y="265.3477">EquipmentDevice</text><polygon fill="#F1F1F1" points="858,297.9844,1045,297.9844,1035,315.5313,1045,333.0781,858,333.0781" style="stroke:#181818;stroke-width:0.5;"/><text fill="#000000" font-family="sans-serif" font-size="12" lengthAdjust="spacing" textLength="157" x="868" y="320.4414">ParentAlgorithmIdentification</text><rect fill="#F1F1F1" height="80.375" style="stroke:#181818;stroke-width:0.5;" width="234" x="829.5" y="365.0781"/><line style="stroke:#181818;stroke-width:0.5;" x1="834.5" x2="834.5" y1="365.0781" y2="445.4531"/><line style="stroke:#181818;stroke-width:0.5;" x1="1058.5" x2="1058.5" y1="365.0781" y2="445.4531"/><text fill="#000000" font-family="sans-serif" font-size="12" lengthAdjust="spacing" textLength="195" x="839.5" y="387.5352">Create ImagingMeasurementGroup</text><text fill="#000000" font-family="sans-serif" font-size="12" lengthAdjust="spacing" textLength="151" x="842.5" y="402.6289">subject = Patient Reference</text><text fill="#000000" font-family="sans-serif" font-size="12" lengthAdjust="spacing" textLength="211" x="842.5" y="417.7227">basedOn = ServiceRequest Reference</text><text fill="#000000" font-family="sans-serif" font-size="12" lengthAdjust="spacing" textLength="181" x="842.5" y="432.8164">partOf = ImagingStudy Reference</text><polygon fill="#F1F1F1" points="106.5,534.4531,328.5,534.4531,340.5,546.4531,328.5,558.4531,106.5,558.4531,94.5,546.4531,106.5,534.4531" style="stroke:#181818;stroke-width:0.5;"/><text fill="#000000" font-family="sans-serif" font-size="11" lengthAdjust="spacing" textLength="18" x="221.5" y="569.8721">yes</text><text fill="#000000" font-family="sans-serif" font-size="11" lengthAdjust="spacing" textLength="222" x="106.5" y="550.9541">Tracking Identifier or Tracking Unique Identifier</text><rect fill="#F1F1F1" height="35.0938" style="stroke:#181818;stroke-width:0.5;" width="347" x="44" y="591.3721"/><line style="stroke:#181818;stroke-width:0.5;" x1="49" x2="49" y1="591.3721" y2="626.4658"/><line style="stroke:#181818;stroke-width:0.5;" x1="386" x2="386" y1="591.3721" y2="626.4658"/><text fill="#000000" font-family="sans-serif" font-size="12" lengthAdjust="spacing" textLength="327" x="54" y="613.8291">Create BodyStructure Reference from Trackig Identifier / UID</text><polygon fill="#F1F1F1" points="139.5,661.4658,295.5,661.4658,305.5,679.0127,295.5,696.5596,139.5,696.5596" style="stroke:#181818;stroke-width:0.5;"/><text fill="#000000" font-family="sans-serif" font-size="12" lengthAdjust="spacing" textLength="136" x="149.5" y="683.9229">BodyStructure Reference</text><rect fill="#F1F1F1" height="50.1875" style="stroke:#181818;stroke-width:0.5;" width="218" x="108.5" y="731.5596"/><line style="stroke:#181818;stroke-width:0.5;" x1="113.5" x2="113.5" y1="731.5596" y2="781.7471"/><line style="stroke:#181818;stroke-width:0.5;" x1="321.5" x2="321.5" y1="731.5596" y2="781.7471"/><text fill="#000000" font-family="sans-serif" font-size="12" lengthAdjust="spacing" textLength="198" x="118.5" y="754.0166">Update ImagingMeasurementGroup</text><text fill="#000000" font-family="sans-serif" font-size="12" lengthAdjust="spacing" textLength="186" x="121.5" y="769.1104">focus += BodyStructure Reference</text><polygon fill="#F1F1F1" points="469.5,534.4531,550.5,534.4531,562.5,546.4531,550.5,558.4531,469.5,558.4531,457.5,546.4531,469.5,534.4531" style="stroke:#181818;stroke-width:0.5;"/><text fill="#000000" font-family="sans-serif" font-size="11" lengthAdjust="spacing" textLength="18" x="514" y="569.8721">yes</text><text fill="#000000" font-family="sans-serif" font-size="11" lengthAdjust="spacing" textLength="81" x="469.5" y="550.9541">Finding Category</text><rect fill="#F1F1F1" height="50.1875" style="stroke:#181818;stroke-width:0.5;" width="218" x="401" y="591.3721"/><line style="stroke:#181818;stroke-width:0.5;" x1="406" x2="406" y1="591.3721" y2="641.5596"/><line style="stroke:#181818;stroke-width:0.5;" x1="614" x2="614" y1="591.3721" y2="641.5596"/><text fill="#000000" font-family="sans-serif" font-size="12" lengthAdjust="spacing" textLength="198" x="411" y="613.8291">Update ImagingMeasurementGroup</text><text fill="#000000" font-family="sans-serif" font-size="12" lengthAdjust="spacing" textLength="133" x="411" y="628.9229">code = Finding Cateogry</text><polygon fill="#F1F1F1" points="731,534.4531,765,534.4531,777,546.4531,765,558.4531,731,558.4531,719,546.4531,731,534.4531" style="stroke:#181818;stroke-width:0.5;"/><text fill="#000000" font-family="sans-serif" font-size="11" lengthAdjust="spacing" textLength="18" x="752" y="569.8721">yes</text><text fill="#000000" font-family="sans-serif" font-size="11" lengthAdjust="spacing" textLength="34" x="731" y="550.9541">Finding</text><rect fill="#F1F1F1" height="50.1875" style="stroke:#181818;stroke-width:0.5;" width="218" x="639" y="591.3721"/><line style="stroke:#181818;stroke-width:0.5;" x1="644" x2="644" y1="591.3721" y2="641.5596"/><line style="stroke:#181818;stroke-width:0.5;" x1="852" x2="852" y1="591.3721" y2="641.5596"/><text fill="#000000" font-family="sans-serif" font-size="12" lengthAdjust="spacing" textLength="198" x="649" y="613.8291">Update ImagingMeasurementGroup</text><text fill="#000000" font-family="sans-serif" font-size="12" lengthAdjust="spacing" textLength="183" x="652" y="628.9229">valueCodeableConcept = Finding</text><polygon fill="#F1F1F1" points="969,534.4531,1003,534.4531,1015,546.4531,1003,558.4531,969,558.4531,957,546.4531,969,534.4531" style="stroke:#181818;stroke-width:0.5;"/><text fill="#000000" font-family="sans-serif" font-size="11" lengthAdjust="spacing" textLength="18" x="990" y="569.8721">yes</text><text fill="#000000" font-family="sans-serif" font-size="11" lengthAdjust="spacing" textLength="34" x="969" y="550.9541">Finding</text><rect fill="#F1F1F1" height="50.1875" style="stroke:#181818;stroke-width:0.5;" width="218" x="877" y="591.3721"/><line style="stroke:#181818;stroke-width:0.5;" x1="882" x2="882" y1="591.3721" y2="641.5596"/><line style="stroke:#181818;stroke-width:0.5;" x1="1090" x2="1090" y1="591.3721" y2="641.5596"/><text fill="#000000" font-family="sans-serif" font-size="12" lengthAdjust="spacing" textLength="198" x="887" y="613.8291">Update ImagingMeasurementGroup</text><text fill="#000000" font-family="sans-serif" font-size="12" lengthAdjust="spacing" textLength="183" x="890" y="628.9229">valueCodeableConcept = Finding</text><polygon fill="#F1F1F1" points="1158.5,534.4531,1289.5,534.4531,1301.5,546.4531,1289.5,558.4531,1158.5,558.4531,1146.5,546.4531,1158.5,534.4531" style="stroke:#181818;stroke-width:0.5;"/><text fill="#000000" font-family="sans-serif" font-size="11" lengthAdjust="spacing" textLength="18" x="1228" y="569.8721">yes</text><text fill="#000000" font-family="sans-serif" font-size="11" lengthAdjust="spacing" textLength="131" x="1158.5" y="550.9541">Image Region or Reference</text><rect fill="#F1F1F1" height="35.0938" style="stroke:#181818;stroke-width:0.5;" width="156" x="1146" y="591.3721"/><line style="stroke:#181818;stroke-width:0.5;" x1="1151" x2="1151" y1="591.3721" y2="626.4658"/><line style="stroke:#181818;stroke-width:0.5;" x1="1297" x2="1297" y1="591.3721" y2="626.4658"/><text fill="#000000" font-family="sans-serif" font-size="12" lengthAdjust="spacing" textLength="136" x="1156" y="613.8291">Create ImagingSelection</text><rect fill="#F1F1F1" height="50.1875" style="stroke:#181818;stroke-width:0.5;" width="218" x="1115" y="661.4658"/><line style="stroke:#181818;stroke-width:0.5;" x1="1120" x2="1120" y1="661.4658" y2="711.6533"/><line style="stroke:#181818;stroke-width:0.5;" x1="1328" x2="1328" y1="661.4658" y2="711.6533"/><text fill="#000000" font-family="sans-serif" font-size="12" lengthAdjust="spacing" textLength="198" x="1125" y="683.9229">Update ImagingMeasurementGroup</text><text fill="#000000" font-family="sans-serif" font-size="12" lengthAdjust="spacing" textLength="146" x="1128" y="699.0166">focus += ImagingSelection</text><polygon fill="#F1F1F1" points="1400.5,534.4531,1503.5,534.4531,1515.5,546.4531,1503.5,558.4531,1400.5,558.4531,1388.5,546.4531,1400.5,534.4531" style="stroke:#181818;stroke-width:0.5;"/><text fill="#000000" font-family="sans-serif" font-size="11" lengthAdjust="spacing" textLength="18" x="1456" y="569.8721">yes</text><text fill="#000000" font-family="sans-serif" font-size="11" lengthAdjust="spacing" textLength="103" x="1400.5" y="550.9541">Measurement Method</text><rect fill="#F1F1F1" height="50.1875" style="stroke:#181818;stroke-width:0.5;" width="218" x="1343" y="591.3721"/><line style="stroke:#181818;stroke-width:0.5;" x1="1348" x2="1348" y1="591.3721" y2="641.5596"/><line style="stroke:#181818;stroke-width:0.5;" x1="1556" x2="1556" y1="591.3721" y2="641.5596"/><text fill="#000000" font-family="sans-serif" font-size="12" lengthAdjust="spacing" textLength="198" x="1353" y="613.8291">Update ImagingMeasurementGroup</text><text fill="#000000" font-family="sans-serif" font-size="12" lengthAdjust="spacing" textLength="174" x="1356" y="628.9229">method = Measurement Method</text><polygon fill="#F1F1F1" points="1652.5,534.4531,1707.5,534.4531,1719.5,546.4531,1707.5,558.4531,1652.5,558.4531,1640.5,546.4531,1652.5,534.4531" style="stroke:#181818;stroke-width:0.5;"/><text fill="#000000" font-family="sans-serif" font-size="11" lengthAdjust="spacing" textLength="18" x="1684" y="569.8721">yes</text><text fill="#000000" font-family="sans-serif" font-size="11" lengthAdjust="spacing" textLength="55" x="1652.5" y="550.9541">Finding Site</text><rect fill="#F1F1F1" height="35.0938" style="stroke:#181818;stroke-width:0.5;" width="218" x="1571" y="591.3721"/><line style="stroke:#181818;stroke-width:0.5;" x1="1576" x2="1576" y1="591.3721" y2="626.4658"/><line style="stroke:#181818;stroke-width:0.5;" x1="1784" x2="1784" y1="591.3721" y2="626.4658"/><text fill="#000000" font-family="sans-serif" font-size="12" lengthAdjust="spacing" textLength="198" x="1581" y="613.8291">Create FindingSite from Finding Site</text><polygon fill="#F1F1F1" points="1609,661.4658,1751,661.4658,1761,679.0127,1751,696.5596,1609,696.5596" style="stroke:#181818;stroke-width:0.5;"/><text fill="#000000" font-family="sans-serif" font-size="12" lengthAdjust="spacing" textLength="122" x="1619" y="683.9229">FindingSite Reference</text><rect fill="#F1F1F1" height="50.1875" style="stroke:#181818;stroke-width:0.5;" width="218" x="1571" y="731.5596"/><line style="stroke:#181818;stroke-width:0.5;" x1="1576" x2="1576" y1="731.5596" y2="781.7471"/><line style="stroke:#181818;stroke-width:0.5;" x1="1784" x2="1784" y1="731.5596" y2="781.7471"/><text fill="#000000" font-family="sans-serif" font-size="12" lengthAdjust="spacing" textLength="198" x="1581" y="754.0166">Update ImagingMeasurementGroup</text><text fill="#000000" font-family="sans-serif" font-size="12" lengthAdjust="spacing" textLength="150" x="1584" y="769.1104">bodyStructure = FindingSite</text><polygon fill="#F1F1F1" points="649.5,821.7471,757.5,821.7471,769.5,833.7471,757.5,845.7471,649.5,845.7471,637.5,833.7471,649.5,821.7471" style="stroke:#181818;stroke-width:0.5;"/><text fill="#000000" font-family="sans-serif" font-size="11" lengthAdjust="spacing" textLength="18" x="707.5" y="857.166">yes</text><text fill="#000000" font-family="sans-serif" font-size="11" lengthAdjust="spacing" textLength="108" x="649.5" y="838.248">Algorithm Identification</text><rect fill="#F1F1F1" height="50.1875" style="stroke:#181818;stroke-width:0.5;" width="259" x="574" y="878.666"/><line style="stroke:#181818;stroke-width:0.5;" x1="579" x2="579" y1="878.666" y2="928.8535"/><line style="stroke:#181818;stroke-width:0.5;" x1="828" x2="828" y1="878.666" y2="928.8535"/><text fill="#000000" font-family="sans-serif" font-size="12" lengthAdjust="spacing" textLength="239" x="584" y="901.123">Create AlgorithmIdentification from TID4019</text><text fill="#000000" font-family="sans-serif" font-size="12" lengthAdjust="spacing" textLength="145" x="584" y="916.2168">parent = EquipmentDevice</text><polygon fill="#F1F1F1" points="633,960.3184,774,960.3184,784,977.8652,774,995.4121,633,995.4121" style="stroke:#181818;stroke-width:0.5;"/><text fill="#000000" font-family="sans-serif" font-size="12" lengthAdjust="spacing" textLength="121" x="643" y="982.7754">AlgorithmIdentification</text><rect fill="#F1F1F1" height="50.1875" style="stroke:#181818;stroke-width:0.5;" width="218" x="594.5" y="1019.041"/><line style="stroke:#181818;stroke-width:0.5;" x1="599.5" x2="599.5" y1="1019.041" y2="1069.2285"/><line style="stroke:#181818;stroke-width:0.5;" x1="807.5" x2="807.5" y1="1019.041" y2="1069.2285"/><text fill="#000000" font-family="sans-serif" font-size="12" lengthAdjust="spacing" textLength="198" x="604.5" y="1041.498">Update ImagingMeasurementGroup</text><text fill="#000000" font-family="sans-serif" font-size="12" lengthAdjust="spacing" textLength="169" x="607.5" y="1056.5918">device = AlgorithmIdentification</text><polygon fill="#F1F1F1" points="881,821.7471,1053,821.7471,1065,833.7471,1053,845.7471,881,845.7471,869,833.7471,881,821.7471" style="stroke:#181818;stroke-width:0.5;"/><text fill="#000000" font-family="sans-serif" font-size="11" lengthAdjust="spacing" textLength="18" x="971" y="857.166">yes</text><text fill="#000000" font-family="sans-serif" font-size="11" lengthAdjust="spacing" textLength="172" x="881" y="838.248">ParentAlgorithmIdentification exusts</text><rect fill="#F1F1F1" height="50.1875" style="stroke:#181818;stroke-width:0.5;" width="228" x="853" y="878.666"/><line style="stroke:#181818;stroke-width:0.5;" x1="858" x2="858" y1="878.666" y2="928.8535"/><line style="stroke:#181818;stroke-width:0.5;" x1="1076" x2="1076" y1="878.666" y2="928.8535"/><text fill="#000000" font-family="sans-serif" font-size="12" lengthAdjust="spacing" textLength="198" x="863" y="901.123">Update ImagingMeasurementGroup</text><text fill="#000000" font-family="sans-serif" font-size="12" lengthAdjust="spacing" textLength="205" x="866" y="916.2168">device = ParentAlgorithmIdentification</text><rect fill="#F1F1F1" height="50.1875" style="stroke:#181818;stroke-width:0.5;" width="218" x="1101" y="948.8535"/><line style="stroke:#181818;stroke-width:0.5;" x1="1106" x2="1106" y1="948.8535" y2="999.041"/><line style="stroke:#181818;stroke-width:0.5;" x1="1314" x2="1314" y1="948.8535" y2="999.041"/><text fill="#000000" font-family="sans-serif" font-size="12" lengthAdjust="spacing" textLength="198" x="1111" y="971.3105">Update ImagingMeasurementGroup</text><text fill="#000000" font-family="sans-serif" font-size="12" lengthAdjust="spacing" textLength="145" x="1114" y="986.4043">device = EquipmentDevice</text><rect fill="#F1F1F1" height="35.0938" style="stroke:#181818;stroke-width:0.5;" width="181" x="856" y="1166.4355"/><line style="stroke:#181818;stroke-width:0.5;" x1="861" x2="861" y1="1166.4355" y2="1201.5293"/><line style="stroke:#181818;stroke-width:0.5;" x1="1032" x2="1032" y1="1166.4355" y2="1201.5293"/><text fill="#000000" font-family="sans-serif" font-size="12" lengthAdjust="spacing" textLength="161" x="866" y="1188.8926">Create ImagingMeasurement</text><rect fill="none" height="437.0908" style="stroke:#000000;stroke-width:1.5;" width="445.5" x="723.75" y="1211.5293"/><path d="M771.75,1211.5293 L771.75,1222.1387 L761.75,1232.1387 L723.75,1232.1387 " fill="none" style="stroke:#000000;stroke-width:1.5;"/><text fill="#000000" font-family="sans-serif" font-size="14" lengthAdjust="spacing" textLength="38" x="726.75" y="1227.0625">Inputs</text><polygon fill="#F1F1F1" points="837.5,1249.1387,1065.5,1249.1387,1055.5,1266.6855,1065.5,1284.2324,837.5,1284.2324" style="stroke:#181818;stroke-width:0.5;"/><text fill="#000000" font-family="sans-serif" font-size="12" lengthAdjust="spacing" textLength="198" x="847.5" y="1271.5957">ImagingMeasurementGroup.subject</text><polygon fill="#F1F1F1" points="832,1304.2324,1071,1304.2324,1061,1321.7793,1071,1339.3262,832,1339.3262" style="stroke:#181818;stroke-width:0.5;"/><text fill="#000000" font-family="sans-serif" font-size="12" lengthAdjust="spacing" textLength="209" x="842" y="1326.6895">ImagingMeasurementGroup.basedOn</text><polygon fill="#F1F1F1" points="841,1359.3262,1062,1359.3262,1052,1376.873,1062,1394.4199,841,1394.4199" style="stroke:#181818;stroke-width:0.5;"/><text fill="#000000" font-family="sans-serif" font-size="12" lengthAdjust="spacing" textLength="191" x="851" y="1381.7832">ImagingMeasurementGroup.partOf</text><polygon fill="#F1F1F1" points="842.5,1414.4199,1060.5,1414.4199,1050.5,1431.9668,1060.5,1449.5137,842.5,1449.5137" style="stroke:#181818;stroke-width:0.5;"/><text fill="#000000" font-family="sans-serif" font-size="12" lengthAdjust="spacing" textLength="188" x="852.5" y="1436.877">ImagingMeasurementGroup.focus</text><polygon fill="#F1F1F1" points="820,1469.5137,1083,1469.5137,1073,1487.0605,1083,1504.6074,820,1504.6074" style="stroke:#181818;stroke-width:0.5;"/><text fill="#000000" font-family="sans-serif" font-size="12" lengthAdjust="spacing" textLength="233" x="830" y="1491.9707">ImagingMeasurementGroup.bodyStructure</text><polygon fill="#F1F1F1" points="745.75,1524.6074,882.75,1524.6074,894.75,1536.6074,882.75,1548.6074,745.75,1548.6074,733.75,1536.6074,745.75,1524.6074" style="stroke:#181818;stroke-width:0.5;"/><text fill="#000000" font-family="sans-serif" font-size="11" lengthAdjust="spacing" textLength="18" x="818.25" y="1560.0264">yes</text><text fill="#000000" font-family="sans-serif" font-size="11" lengthAdjust="spacing" textLength="137" x="745.75" y="1541.1084">AlgorithmIdentification exists</text><polygon fill="#F1F1F1" points="743.75,1581.5264,894.75,1581.5264,884.75,1599.0732,894.75,1616.6201,743.75,1616.6201" style="stroke:#181818;stroke-width:0.5;"/><text fill="#000000" font-family="sans-serif" font-size="12" lengthAdjust="spacing" textLength="121" x="753.75" y="1603.9834">AlgorithmIdentification</text><polygon fill="#F1F1F1" points="926.75,1524.6074,1094.75,1524.6074,1106.75,1536.6074,1094.75,1548.6074,926.75,1548.6074,914.75,1536.6074,926.75,1524.6074" style="stroke:#181818;stroke-width:0.5;"/><text fill="#000000" font-family="sans-serif" font-size="11" lengthAdjust="spacing" textLength="18" x="1014.75" y="1560.0264">yes</text><text fill="#000000" font-family="sans-serif" font-size="11" lengthAdjust="spacing" textLength="168" x="926.75" y="1541.1084">ParentAlgorithmIdentification exists</text><polygon fill="#F1F1F1" points="922.25,1581.5264,1109.25,1581.5264,1099.25,1599.0732,1109.25,1616.6201,922.25,1616.6201" style="stroke:#181818;stroke-width:0.5;"/><text fill="#000000" font-family="sans-serif" font-size="12" lengthAdjust="spacing" textLength="157" x="932.25" y="1603.9834">ParentAlgorithmIdentification</text><polygon fill="#F1F1F1" points="889,1117.5176,1004,1117.5176,1016,1129.5176,1004,1141.5176,889,1141.5176,877,1129.5176,889,1117.5176" style="stroke:#181818;stroke-width:0.5;"/><text fill="#000000" font-family="sans-serif" font-size="11" lengthAdjust="spacing" textLength="18" x="950.5" y="1152.9365">yes</text><text fill="#000000" font-family="sans-serif" font-size="11" lengthAdjust="spacing" textLength="115" x="889" y="1134.0186">Numerical Measurement</text><polygon fill="#F1F1F1" points="946.5,1668.6201,958.5,1680.6201,946.5,1692.6201,934.5,1680.6201,946.5,1668.6201" style="stroke:#181818;stroke-width:0.5;"/><polygon fill="#F1F1F1" points="812,465.4531,1081,465.4531,1093,477.4531,1081,489.4531,812,489.4531,800,477.4531,812,465.4531" style="stroke:#181818;stroke-width:0.5;"/><text fill="#000000" font-family="sans-serif" font-size="11" lengthAdjust="spacing" textLength="269" x="812" y="481.9541">For each child of Imaging Measurement Group container</text><ellipse cx="24" cy="519.4531" fill="none" rx="10" ry="10" style="stroke:#222222;stroke-width:1.5;"/><line style="stroke:#222222;stroke-width:2.5;" x1="17.8128" x2="30.1872" y1="513.2659" y2="525.6403"/><line style="stroke:#222222;stroke-width:2.5;" x1="30.1872" x2="17.8128" y1="513.2659" y2="525.6403"/><line style="stroke:#181818;stroke-width:1.0;" x1="946.5" x2="946.5" y1="112.7031" y2="132.7031"/><polygon fill="#181818" points="942.5,122.7031,946.5,132.7031,950.5,122.7031,946.5,126.7031" style="stroke:#181818;stroke-width:1.0;"/><line style="stroke:#181818;stroke-width:1.0;" x1="946.5" x2="946.5" y1="167.7969" y2="187.7969"/><polygon fill="#181818" points="942.5,177.7969,946.5,187.7969,950.5,177.7969,946.5,181.7969" style="stroke:#181818;stroke-width:1.0;"/><line style="stroke:#181818;stroke-width:1.0;" x1="946.5" x2="946.5" y1="222.8906" y2="242.8906"/><polygon fill="#181818" points="942.5,232.8906,946.5,242.8906,950.5,232.8906,946.5,236.8906" style="stroke:#181818;stroke-width:1.0;"/><line style="stroke:#181818;stroke-width:1.0;" x1="946.5" x2="946.5" y1="277.9844" y2="297.9844"/><polygon fill="#181818" points="942.5,287.9844,946.5,297.9844,950.5,287.9844,946.5,291.9844" style="stroke:#181818;stroke-width:1.0;"/><line style="stroke:#181818;stroke-width:1.0;" x1="946.5" x2="946.5" y1="30" y2="77.6094"/><polygon fill="#181818" points="942.5,67.6094,946.5,77.6094,950.5,67.6094,946.5,71.6094" style="stroke:#181818;stroke-width:1.0;"/><line style="stroke:#181818;stroke-width:1.0;" x1="946.5" x2="946.5" y1="333.0781" y2="365.0781"/><polygon fill="#181818" points="942.5,355.0781,946.5,365.0781,950.5,355.0781,946.5,359.0781" style="stroke:#181818;stroke-width:1.0;"/><line style="stroke:#181818;stroke-width:1.0;" x1="217.5" x2="217.5" y1="626.4658" y2="661.4658"/><polygon fill="#181818" points="213.5,651.4658,217.5,661.4658,221.5,651.4658,217.5,655.4658" style="stroke:#181818;stroke-width:1.0;"/><line style="stroke:#181818;stroke-width:1.0;" x1="217.5" x2="217.5" y1="696.5596" y2="731.5596"/><polygon fill="#181818" points="213.5,721.5596,217.5,731.5596,221.5,721.5596,217.5,725.5596" style="stroke:#181818;stroke-width:1.0;"/><line style="stroke:#181818;stroke-width:1.0;" x1="1224" x2="1224" y1="626.4658" y2="661.4658"/><polygon fill="#181818" points="1220,651.4658,1224,661.4658,1228,651.4658,1224,655.4658" style="stroke:#181818;stroke-width:1.0;"/><line style="stroke:#181818;stroke-width:1.0;" x1="1680" x2="1680" y1="626.4658" y2="661.4658"/><polygon fill="#181818" points="1676,651.4658,1680,661.4658,1684,651.4658,1680,655.4658" style="stroke:#181818;stroke-width:1.0;"/><line style="stroke:#181818;stroke-width:1.0;" x1="1680" x2="1680" y1="696.5596" y2="731.5596"/><polygon fill="#181818" points="1676,721.5596,1680,731.5596,1684,721.5596,1680,725.5596" style="stroke:#181818;stroke-width:1.0;"/><line style="stroke:#181818;stroke-width:1.0;" x1="217.5" x2="217.5" y1="558.4531" y2="591.3721"/><polygon fill="#181818" points="213.5,581.3721,217.5,591.3721,221.5,581.3721,217.5,585.3721" style="stroke:#181818;stroke-width:1.0;"/><line style="stroke:#181818;stroke-width:1.0;" x1="217.5" x2="217.5" y1="781.7471" y2="801.7471"/><polygon fill="#181818" points="213.5,791.7471,217.5,801.7471,221.5,791.7471,217.5,795.7471" style="stroke:#181818;stroke-width:1.0;"/><line style="stroke:#181818;stroke-width:1.0;" x1="510" x2="510" y1="558.4531" y2="591.3721"/><polygon fill="#181818" points="506,581.3721,510,591.3721,514,581.3721,510,585.3721" style="stroke:#181818;stroke-width:1.0;"/><line style="stroke:#181818;stroke-width:1.0;" x1="510" x2="510" y1="641.5596" y2="801.7471"/><polygon fill="#181818" points="506,791.7471,510,801.7471,514,791.7471,510,795.7471" style="stroke:#181818;stroke-width:1.0;"/><line style="stroke:#181818;stroke-width:1.0;" x1="748" x2="748" y1="558.4531" y2="591.3721"/><polygon fill="#181818" points="744,581.3721,748,591.3721,752,581.3721,748,585.3721" style="stroke:#181818;stroke-width:1.0;"/><line style="stroke:#181818;stroke-width:1.0;" x1="748" x2="748" y1="641.5596" y2="801.7471"/><polygon fill="#181818" points="744,791.7471,748,801.7471,752,791.7471,748,795.7471" style="stroke:#181818;stroke-width:1.0;"/><line style="stroke:#181818;stroke-width:1.0;" x1="986" x2="986" y1="558.4531" y2="591.3721"/><polygon fill="#181818" points="982,581.3721,986,591.3721,990,581.3721,986,585.3721" style="stroke:#181818;stroke-width:1.0;"/><line style="stroke:#181818;stroke-width:1.0;" x1="986" x2="986" y1="641.5596" y2="801.7471"/><polygon fill="#181818" points="982,791.7471,986,801.7471,990,791.7471,986,795.7471" style="stroke:#181818;stroke-width:1.0;"/><line style="stroke:#181818;stroke-width:1.0;" x1="1224" x2="1224" y1="558.4531" y2="591.3721"/><polygon fill="#181818" points="1220,581.3721,1224,591.3721,1228,581.3721,1224,585.3721" style="stroke:#181818;stroke-width:1.0;"/><line style="stroke:#181818;stroke-width:1.0;" x1="1224" x2="1224" y1="711.6533" y2="801.7471"/><polygon fill="#181818" points="1220,791.7471,1224,801.7471,1228,791.7471,1224,795.7471" style="stroke:#181818;stroke-width:1.0;"/><line style="stroke:#181818;stroke-width:1.0;" x1="1452" x2="1452" y1="558.4531" y2="591.3721"/><polygon fill="#181818" points="1448,581.3721,1452,591.3721,1456,581.3721,1452,585.3721" style="stroke:#181818;stroke-width:1.0;"/><line style="stroke:#181818;stroke-width:1.0;" x1="1452" x2="1452" y1="641.5596" y2="801.7471"/><polygon fill="#181818" points="1448,791.7471,1452,801.7471,1456,791.7471,1452,795.7471" style="stroke:#181818;stroke-width:1.0;"/><line style="stroke:#181818;stroke-width:1.0;" x1="1680" x2="1680" y1="558.4531" y2="591.3721"/><polygon fill="#181818" points="1676,581.3721,1680,591.3721,1684,581.3721,1680,585.3721" style="stroke:#181818;stroke-width:1.0;"/><line style="stroke:#181818;stroke-width:1.0;" x1="1680" x2="1680" y1="781.7471" y2="801.7471"/><polygon fill="#181818" points="1676,791.7471,1680,801.7471,1684,791.7471,1680,795.7471" style="stroke:#181818;stroke-width:1.0;"/><line style="stroke:#181818;stroke-width:1.0;" x1="340.5" x2="457.5" y1="546.4531" y2="546.4531"/><polygon fill="#181818" points="447.5,542.4531,457.5,546.4531,447.5,550.4531,451.5,546.4531" style="stroke:#181818;stroke-width:1.0;"/><line style="stroke:#181818;stroke-width:1.0;" x1="562.5" x2="719" y1="546.4531" y2="546.4531"/><polygon fill="#181818" points="709,542.4531,719,546.4531,709,550.4531,713,546.4531" style="stroke:#181818;stroke-width:1.0;"/><line style="stroke:#181818;stroke-width:1.0;" x1="777" x2="957" y1="546.4531" y2="546.4531"/><polygon fill="#181818" points="947,542.4531,957,546.4531,947,550.4531,951,546.4531" style="stroke:#181818;stroke-width:1.0;"/><line style="stroke:#181818;stroke-width:1.0;" x1="1015" x2="1146.5" y1="546.4531" y2="546.4531"/><polygon fill="#181818" points="1136.5,542.4531,1146.5,546.4531,1136.5,550.4531,1140.5,546.4531" style="stroke:#181818;stroke-width:1.0;"/><line style="stroke:#181818;stroke-width:1.0;" x1="1301.5" x2="1388.5" y1="546.4531" y2="546.4531"/><polygon fill="#181818" points="1378.5,542.4531,1388.5,546.4531,1378.5,550.4531,1382.5,546.4531" style="stroke:#181818;stroke-width:1.0;"/><line style="stroke:#181818;stroke-width:1.0;" x1="1515.5" x2="1640.5" y1="546.4531" y2="546.4531"/><polygon fill="#181818" points="1630.5,542.4531,1640.5,546.4531,1630.5,550.4531,1634.5,546.4531" style="stroke:#181818;stroke-width:1.0;"/><line style="stroke:#181818;stroke-width:1.0;" x1="946.5" x2="946.5" y1="489.4531" y2="509.4531"/><line style="stroke:#181818;stroke-width:1.0;" x1="946.5" x2="217.5" y1="509.4531" y2="509.4531"/><line style="stroke:#181818;stroke-width:1.0;" x1="217.5" x2="217.5" y1="509.4531" y2="534.4531"/><polygon fill="#181818" points="213.5,524.4531,217.5,534.4531,221.5,524.4531,217.5,528.4531" style="stroke:#181818;stroke-width:1.0;"/><line style="stroke:#181818;stroke-width:1.0;" x1="1719.5" x2="1803" y1="546.4531" y2="546.4531"/><line style="stroke:#181818;stroke-width:1.0;" x1="1803" x2="1803" y1="546.4531" y2="801.7471"/><polygon fill="#181818" points="1799,791.7471,1803,801.7471,1807,791.7471,1803,795.7471" style="stroke:#181818;stroke-width:1.0;"/><line style="stroke:#181818;stroke-width:1.0;" x1="217.5" x2="1803" y1="801.7471" y2="801.7471"/><line style="stroke:#181818;stroke-width:1.0;" x1="703.5" x2="703.5" y1="928.8535" y2="960.3184"/><polygon fill="#181818" points="699.5,950.3184,703.5,960.3184,707.5,950.3184,703.5,954.3184" style="stroke:#181818;stroke-width:1.0;"/><line style="stroke:#181818;stroke-width:1.0;" x1="703.5" x2="703.5" y1="995.4121" y2="1019.041"/><polygon fill="#181818" points="699.5,1009.041,703.5,1019.041,707.5,1009.041,703.5,1013.041" style="stroke:#181818;stroke-width:1.0;"/><line style="stroke:#181818;stroke-width:1.0;" x1="703.5" x2="703.5" y1="845.7471" y2="878.666"/><polygon fill="#181818" points="699.5,868.666,703.5,878.666,707.5,868.666,703.5,872.666" style="stroke:#181818;stroke-width:1.0;"/><line style="stroke:#181818;stroke-width:1.0;" x1="703.5" x2="703.5" y1="1069.2285" y2="1089.2285"/><polygon fill="#181818" points="699.5,1079.2285,703.5,1089.2285,707.5,1079.2285,703.5,1083.2285" style="stroke:#181818;stroke-width:1.0;"/><line style="stroke:#181818;stroke-width:1.0;" x1="967" x2="967" y1="845.7471" y2="878.666"/><polygon fill="#181818" points="963,868.666,967,878.666,971,868.666,967,872.666" style="stroke:#181818;stroke-width:1.0;"/><line style="stroke:#181818;stroke-width:1.0;" x1="967" x2="967" y1="928.8535" y2="1089.2285"/><polygon fill="#181818" points="963,1079.2285,967,1089.2285,971,1079.2285,967,1083.2285" style="stroke:#181818;stroke-width:1.0;"/><line style="stroke:#181818;stroke-width:1.0;" x1="769.5" x2="869" y1="833.7471" y2="833.7471"/><polygon fill="#181818" points="859,829.7471,869,833.7471,859,837.7471,863,833.7471" style="stroke:#181818;stroke-width:1.0;"/><line style="stroke:#181818;stroke-width:1.0;" x1="946.5" x2="946.5" y1="801.7471" y2="806.7471"/><line style="stroke:#181818;stroke-width:1.0;" x1="946.5" x2="703.5" y1="806.7471" y2="806.7471"/><line style="stroke:#181818;stroke-width:1.0;" x1="703.5" x2="703.5" y1="806.7471" y2="821.7471"/><polygon fill="#181818" points="699.5,811.7471,703.5,821.7471,707.5,811.7471,703.5,815.7471" style="stroke:#181818;stroke-width:1.0;"/><line style="stroke:#181818;stroke-width:1.0;" x1="1065" x2="1210" y1="833.7471" y2="833.7471"/><line style="stroke:#181818;stroke-width:1.0;" x1="1210" x2="1210" y1="833.7471" y2="948.8535"/><polygon fill="#181818" points="1206,938.8535,1210,948.8535,1214,938.8535,1210,942.8535" style="stroke:#181818;stroke-width:1.0;"/><line style="stroke:#181818;stroke-width:1.0;" x1="1210" x2="1210" y1="999.041" y2="1089.2285"/><polygon fill="#181818" points="1206,1079.2285,1210,1089.2285,1214,1079.2285,1210,1083.2285" style="stroke:#181818;stroke-width:1.0;"/><line style="stroke:#181818;stroke-width:1.0;" x1="703.5" x2="1210" y1="1089.2285" y2="1089.2285"/><line style="stroke:#181818;stroke-width:1.0;" x1="946.5" x2="946.5" y1="1284.2324" y2="1304.2324"/><polygon fill="#181818" points="942.5,1294.2324,946.5,1304.2324,950.5,1294.2324,946.5,1298.2324" style="stroke:#181818;stroke-width:1.0;"/><line style="stroke:#181818;stroke-width:1.0;" x1="946.5" x2="946.5" y1="1339.3262" y2="1359.3262"/><polygon fill="#181818" points="942.5,1349.3262,946.5,1359.3262,950.5,1349.3262,946.5,1353.3262" style="stroke:#181818;stroke-width:1.0;"/><line style="stroke:#181818;stroke-width:1.0;" x1="946.5" x2="946.5" y1="1394.4199" y2="1414.4199"/><polygon fill="#181818" points="942.5,1404.4199,946.5,1414.4199,950.5,1404.4199,946.5,1408.4199" style="stroke:#181818;stroke-width:1.0;"/><line style="stroke:#181818;stroke-width:1.0;" x1="946.5" x2="946.5" y1="1449.5137" y2="1469.5137"/><polygon fill="#181818" points="942.5,1459.5137,946.5,1469.5137,950.5,1459.5137,946.5,1463.5137" style="stroke:#181818;stroke-width:1.0;"/><line style="stroke:#181818;stroke-width:1.0;" x1="814.25" x2="814.25" y1="1548.6074" y2="1581.5264"/><polygon fill="#181818" points="810.25,1571.5264,814.25,1581.5264,818.25,1571.5264,814.25,1575.5264" style="stroke:#181818;stroke-width:1.0;"/><line style="stroke:#181818;stroke-width:1.0;" x1="814.25" x2="814.25" y1="1616.6201" y2="1636.6201"/><polygon fill="#181818" points="810.25,1626.6201,814.25,1636.6201,818.25,1626.6201,814.25,1630.6201" style="stroke:#181818;stroke-width:1.0;"/><line style="stroke:#181818;stroke-width:1.0;" x1="1010.75" x2="1010.75" y1="1548.6074" y2="1581.5264"/><polygon fill="#181818" points="1006.75,1571.5264,1010.75,1581.5264,1014.75,1571.5264,1010.75,1575.5264" style="stroke:#181818;stroke-width:1.0;"/><line style="stroke:#181818;stroke-width:1.0;" x1="1010.75" x2="1010.75" y1="1616.6201" y2="1636.6201"/><polygon fill="#181818" points="1006.75,1626.6201,1010.75,1636.6201,1014.75,1626.6201,1010.75,1630.6201" style="stroke:#181818;stroke-width:1.0;"/><line style="stroke:#181818;stroke-width:1.0;" x1="894.75" x2="914.75" y1="1536.6074" y2="1536.6074"/><polygon fill="#181818" points="904.75,1532.6074,914.75,1536.6074,904.75,1540.6074,908.75,1536.6074" style="stroke:#181818;stroke-width:1.0;"/><line style="stroke:#181818;stroke-width:1.0;" x1="946.5" x2="946.5" y1="1504.6074" y2="1509.6074"/><line style="stroke:#181818;stroke-width:1.0;" x1="946.5" x2="814.25" y1="1509.6074" y2="1509.6074"/><line style="stroke:#181818;stroke-width:1.0;" x1="814.25" x2="814.25" y1="1509.6074" y2="1524.6074"/><polygon fill="#181818" points="810.25,1514.6074,814.25,1524.6074,818.25,1514.6074,814.25,1518.6074" style="stroke:#181818;stroke-width:1.0;"/><line style="stroke:#181818;stroke-width:1.0;" x1="1106.75" x2="1144.25" y1="1536.6074" y2="1536.6074"/><line style="stroke:#181818;stroke-width:1.0;" x1="1144.25" x2="1144.25" y1="1536.6074" y2="1636.6201"/><polygon fill="#181818" points="1140.25,1626.6201,1144.25,1636.6201,1148.25,1626.6201,1144.25,1630.6201" style="stroke:#181818;stroke-width:1.0;"/><line style="stroke:#181818;stroke-width:1.0;" x1="814.25" x2="1144.25" y1="1636.6201" y2="1636.6201"/><line style="stroke:#181818;stroke-width:1.0;" x1="946.5" x2="946.5" y1="1201.5293" y2="1249.1387"/><polygon fill="#181818" points="942.5,1239.1387,946.5,1249.1387,950.5,1239.1387,946.5,1243.1387" style="stroke:#181818;stroke-width:1.0;"/><line style="stroke:#181818;stroke-width:1.0;" x1="946.5" x2="946.5" y1="1141.5176" y2="1166.4355"/><polygon fill="#181818" points="942.5,1156.4355,946.5,1166.4355,950.5,1156.4355,946.5,1160.4355" style="stroke:#181818;stroke-width:1.0;"/><line style="stroke:#181818;stroke-width:1.0;" x1="1016" x2="1179.25" y1="1129.5176" y2="1129.5176"/><polygon fill="#181818" points="1175.25,1421.9863,1179.25,1431.9863,1183.25,1421.9863,1179.25,1425.9863" style="stroke:#181818;stroke-width:1.0;"/><line style="stroke:#181818;stroke-width:1.0;" x1="1179.25" x2="1179.25" y1="1129.5176" y2="1680.6201"/><line style="stroke:#181818;stroke-width:1.0;" x1="1179.25" x2="958.5" y1="1680.6201" y2="1680.6201"/><polygon fill="#181818" points="968.5,1676.6201,958.5,1680.6201,968.5,1684.6201,964.5,1680.6201" style="stroke:#181818;stroke-width:1.0;"/><line style="stroke:#181818;stroke-width:1.0;" x1="946.5" x2="946.5" y1="1636.6201" y2="1668.6201"/><polygon fill="#181818" points="942.5,1658.6201,946.5,1668.6201,950.5,1658.6201,946.5,1662.6201" style="stroke:#181818;stroke-width:1.0;"/><line style="stroke:#181818;stroke-width:1.0;" x1="946.5" x2="946.5" y1="1089.2285" y2="1117.5176"/><polygon fill="#181818" points="942.5,1107.5176,946.5,1117.5176,950.5,1107.5176,946.5,1111.5176" style="stroke:#181818;stroke-width:1.0;"/><line style="stroke:#181818;stroke-width:1.0;" x1="946.5" x2="946.5" y1="1692.6201" y2="1702.6201"/><line style="stroke:#181818;stroke-width:1.0;" x1="946.5" x2="1821" y1="1702.6201" y2="1702.6201"/><polygon fill="#181818" points="1817,1109.2285,1821,1099.2285,1825,1109.2285,1821,1105.2285" style="stroke:#181818;stroke-width:1.0;"/><line style="stroke:#181818;stroke-width:1.0;" x1="1821" x2="1821" y1="477.4531" y2="1702.6201"/><line style="stroke:#181818;stroke-width:1.0;" x1="1821" x2="1093" y1="477.4531" y2="477.4531"/><polygon fill="#181818" points="1103,473.4531,1093,477.4531,1103,481.4531,1099,477.4531" style="stroke:#181818;stroke-width:1.0;"/><line style="stroke:#181818;stroke-width:1.0;" x1="800" x2="24" y1="477.4531" y2="477.4531"/><line style="stroke:#181818;stroke-width:1.0;" x1="24" x2="24" y1="477.4531" y2="509.4531"/><polygon fill="#181818" points="20,499.4531,24,509.4531,28,499.4531,24,503.4531" style="stroke:#181818;stroke-width:1.0;"/><line style="stroke:#181818;stroke-width:1.0;" x1="946.5" x2="946.5" y1="445.4531" y2="465.4531"/><polygon fill="#181818" points="942.5,455.4531,946.5,465.4531,950.5,455.4531,946.5,459.4531" style="stroke:#181818;stroke-width:1.0;"/><!--MD5=[2ac1766966d9aedecb3fe5e9c000bc53]
@startuml imaging_measurement_group_workflow
start

partition "Inputs" {
    :Patient Reference<
    :ImagingStudy Reference<
    :ServiceRequest Reference<
    :EquipmentDevice<
    :ParentAlgorithmIdentification<
}

:Create ImagingMeasurementGroup
 subject = Patient Reference
 basedOn = ServiceRequest Reference
 partOf = ImagingStudy Reference|

while (For each child of Imaging Measurement Group container)

  if (Tracking Identifier or Tracking Unique Identifier) then (yes)
   :Create BodyStructure Reference from Trackig Identifier / UID|
   :BodyStructure Reference>
   :Update ImagingMeasurementGroup
    focus += BodyStructure Reference|
  
  elseif (Finding Category) then (yes)
   :Update ImagingMeasurementGroup
   code = Finding Cateogry|
  
  elseif (Finding) then (yes)
   :Update ImagingMeasurementGroup
    valueCodeableConcept = Finding|
  
  elseif (Finding) then (yes)
   :Update ImagingMeasurementGroup
    valueCodeableConcept = Finding|
  
  elseif (Image Region or Reference) then (yes)
   :Create ImagingSelection|
   :Update ImagingMeasurementGroup
    focus += ImagingSelection|
  
  elseif (Measurement Method) then (yes)
   :Update ImagingMeasurementGroup
    method = Measurement Method|
  
  elseif (Finding Site) then (yes)
   :Create FindingSite from Finding Site|
   :FindingSite Reference>
   :Update ImagingMeasurementGroup
    bodyStructure = FindingSite|
  endif
  
  if (Algorithm Identification) then (yes)
   :Create AlgorithmIdentification from TID4019 
   parent = EquipmentDevice|
   :AlgorithmIdentification>
   :Update ImagingMeasurementGroup
    device = AlgorithmIdentification|
  elseif (ParentAlgorithmIdentification exusts) then (yes)
   :Update ImagingMeasurementGroup
    device = ParentAlgorithmIdentification|
  else
   :Update ImagingMeasurementGroup
    device = EquipmentDevice|
  endif

  if (Numerical Measurement) then (yes)
   :Create ImagingMeasurement|
   partition "Inputs" {
    :ImagingMeasurementGroup.subject<
    :ImagingMeasurementGroup.basedOn<
    :ImagingMeasurementGroup.partOf<
    :ImagingMeasurementGroup.focus<
    :ImagingMeasurementGroup.bodyStructure<
    if (AlgorithmIdentification exists) then (yes)
    :AlgorithmIdentification<
    elseif (ParentAlgorithmIdentification exists) then (yes)
    :ParentAlgorithmIdentification<
    endif
   }
    
  endif

endwhile

end
@enduml

PlantUML version 1.2022.7(Mon Aug 22 13:01:30 EDT 2022)
(GPL source distribution)
Java Runtime: Java(TM) SE Runtime Environment
JVM: Java HotSpot(TM) 64-Bit Server VM
Default Encoding: Cp1252
Language: en
Country: US
--></g></svg>