<?xml version="1.0" encoding="us-ascii" standalone="no"?><svg xmlns="http://www.w3.org/2000/svg" xmlns:xlink="http://www.w3.org/1999/xlink" contentStyleType="text/css" height="1012px" preserveAspectRatio="none" style="width:1795px;height:1012px;background:#FFFFFF;" version="1.1" viewBox="0 0 1795 1012" width="1795px" zoomAndPan="magnify"><defs/><g><!--cluster measurementGroup--><g id="cluster_measurementGroup"><path d="M27.5,276.1 L181.5,276.1 A3.75,3.75 0 0 1 184,278.6 L191,299.7094 L344.5,299.7094 A2.5,2.5 0 0 1 347,302.2094 L347,998.6 A2.5,2.5 0 0 1 344.5,1001.1 L27.5,1001.1 A2.5,2.5 0 0 1 25,998.6 L25,278.6 A2.5,2.5 0 0 1 27.5,276.1 " fill="none" style="stroke:#000000;stroke-width:1.5;"/><line style="stroke:#000000;stroke-width:1.5;" x1="25" x2="191" y1="299.7094" y2="299.7094"/><text fill="#000000" font-family="sans-serif" font-size="14" font-weight="bold" lengthAdjust="spacing" textLength="153" x="29" y="292.6332">Measurements Group</text></g><!--cluster Numerical Measurements--><g id="cluster_Numerical Measurements"><path d="M89.5,336.1 L269.5,336.1 A3.75,3.75 0 0 1 272,338.6 L279,359.7094 L282.5,359.7094 A2.5,2.5 0 0 1 285,362.2094 L285,423.6 A2.5,2.5 0 0 1 282.5,426.1 L89.5,426.1 A2.5,2.5 0 0 1 87,423.6 L87,338.6 A2.5,2.5 0 0 1 89.5,336.1 " fill="none" style="stroke:#000000;stroke-width:1.5;"/><line style="stroke:#000000;stroke-width:1.5;" x1="87" x2="279" y1="359.7094" y2="359.7094"/><text fill="#000000" font-family="sans-serif" font-size="14" font-weight="bold" lengthAdjust="spacing" textLength="179" x="91" y="352.6332">Numerical Measurements</text></g><g id="elem_algorithm"><rect fill="#F1F1F1" height="37.6094" style="stroke:#181818;stroke-width:0.5;" width="156" x="108" y="445.1"/><text fill="#000000" font-family="sans-serif" font-size="14" lengthAdjust="spacing" textLength="142" x="115" y="461.6332">Algorithm Identification</text><line style="stroke:#181818;stroke-width:0.5;" x1="109" x2="263" y1="466.7094" y2="466.7094"/></g><g id="elem_tracking"><rect fill="#F1F1F1" height="37.6094" style="stroke:#181818;stroke-width:0.5;" width="161" x="105.5" y="518.1"/><text fill="#000000" font-family="sans-serif" font-size="14" lengthAdjust="spacing" textLength="147" x="112.5" y="534.6332">Tracking Identifier / UID</text><line style="stroke:#181818;stroke-width:0.5;" x1="106.5" x2="265.5" y1="539.7094" y2="539.7094"/></g><g id="elem_finding"><rect fill="#F1F1F1" height="37.6094" style="stroke:#181818;stroke-width:0.5;" width="61" x="155.5" y="591.1"/><text fill="#000000" font-family="sans-serif" font-size="14" lengthAdjust="spacing" textLength="47" x="162.5" y="607.6332">Finding</text><line style="stroke:#181818;stroke-width:0.5;" x1="156.5" x2="215.5" y1="612.7094" y2="612.7094"/></g><g id="elem_findingCategory"><rect fill="#F1F1F1" height="37.6094" style="stroke:#181818;stroke-width:0.5;" width="123" x="124.5" y="664.1"/><text fill="#000000" font-family="sans-serif" font-size="14" lengthAdjust="spacing" textLength="109" x="131.5" y="680.6332">Finding Category</text><line style="stroke:#181818;stroke-width:0.5;" x1="125.5" x2="246.5" y1="685.7094" y2="685.7094"/></g><g id="elem_BodyStructureFindingSite"><rect fill="#F1F1F1" height="47.2188" style="stroke:#181818;stroke-width:0.5;" width="274" x="49" y="783.6"/><text fill="#000000" font-family="sans-serif" font-size="14" lengthAdjust="spacing" textLength="75" x="148.5" y="800.1332">Finding Site</text><line style="stroke:#181818;stroke-width:0.5;" x1="50" x2="322" y1="805.2094" y2="805.2094"/><text fill="#000000" font-family="sans-serif" font-size="14" lengthAdjust="spacing" textLength="262" x="55" y="823.7426">includedStructure.structure = Finding Site</text></g><g id="elem_imageRegion"><rect fill="#F1F1F1" height="37.6094" style="stroke:#181818;stroke-width:0.5;" width="179" x="96.5" y="866.1"/><text fill="#000000" font-family="sans-serif" font-size="14" lengthAdjust="spacing" textLength="165" x="103.5" y="882.6332">Image Region / Reference</text><line style="stroke:#181818;stroke-width:0.5;" x1="97.5" x2="274.5" y1="887.7094" y2="887.7094"/></g><g id="elem_method"><rect fill="#F1F1F1" height="37.6094" style="stroke:#181818;stroke-width:0.5;" width="151" x="110.5" y="939.1"/><text fill="#000000" font-family="sans-serif" font-size="14" lengthAdjust="spacing" textLength="137" x="117.5" y="955.6332">Measurement Method</text><line style="stroke:#181818;stroke-width:0.5;" x1="111.5" x2="260.5" y1="960.7094" y2="960.7094"/></g><g id="elem_measurement"><rect fill="#F1F1F1" height="37.6094" style="stroke:#181818;stroke-width:0.5;" width="166" x="103" y="372.1"/><text fill="#000000" font-family="sans-serif" font-size="14" lengthAdjust="spacing" textLength="152" x="110" y="388.6332">Numerical Measurement</text><line style="stroke:#181818;stroke-width:0.5;" x1="104" x2="268" y1="393.7094" y2="393.7094"/></g><g id="elem_inputs"><rect fill="#F1F1F1" height="108.0469" style="stroke:#181818;stroke-width:0.5;" width="358" x="7" y="95.1"/><a href="mapping.html#imaging-measurements-container-mapping" target="_top" title="mapping.html#imaging-measurements-container-mapping" xlink:actuate="onRequest" xlink:href="mapping.html#imaging-measurements-container-mapping" xlink:show="new" xlink:title="mapping.html#imaging-measurements-container-mapping" xlink:type="simple"><text fill="#0000FF" font-family="sans-serif" font-size="14" lengthAdjust="spacing" text-decoration="underline" textLength="344" x="14" y="111.6332">Inputs from Imaging Measurements Container Mapping</text></a><line style="stroke:#181818;stroke-width:1.0;" x1="7" x2="365" y1="116.7094" y2="116.7094"/><text fill="#000000" font-family="sans-serif" font-size="14" lengthAdjust="spacing" textLength="45" x="18.5" y="133.2426">subject</text><text fill="#000000" font-family="sans-serif" font-size="14" lengthAdjust="spacing" textLength="44" x="80" y="133.2426">Patient</text><line style="stroke:#181818;stroke-width:1.0;" x1="75" x2="75" y1="116.7094" y2="138.3188"/><line style="stroke:#181818;stroke-width:1.0;" x1="7" x2="365" y1="138.3188" y2="138.3188"/><text fill="#000000" font-family="sans-serif" font-size="14" lengthAdjust="spacing" textLength="40" x="21" y="154.852">partOf</text><text fill="#000000" font-family="sans-serif" font-size="14" lengthAdjust="spacing" textLength="85" x="80" y="154.852">ImagingStudy</text><line style="stroke:#181818;stroke-width:1.0;" x1="75" x2="75" y1="138.3188" y2="159.9281"/><line style="stroke:#181818;stroke-width:1.0;" x1="7" x2="365" y1="159.9281" y2="159.9281"/><text fill="#000000" font-family="sans-serif" font-size="14" lengthAdjust="spacing" textLength="58" x="12" y="176.4613">basedOn</text><text fill="#000000" font-family="sans-serif" font-size="14" lengthAdjust="spacing" textLength="100" x="80" y="176.4613">ServiceRequest</text><line style="stroke:#181818;stroke-width:1.0;" x1="75" x2="75" y1="159.9281" y2="181.5375"/><line style="stroke:#181818;stroke-width:1.0;" x1="7" x2="365" y1="181.5375" y2="181.5375"/><text fill="#000000" font-family="sans-serif" font-size="14" lengthAdjust="spacing" textLength="41" x="20.5" y="198.0707">device</text><text fill="#000000" font-family="sans-serif" font-size="14" lengthAdjust="spacing" textLength="110" x="80" y="198.0707">EquipmentDevice</text><line style="stroke:#181818;stroke-width:1.0;" x1="75" x2="75" y1="181.5375" y2="203.1469"/></g><g id="elem_AlgorithmIdentification"><rect fill="#F1F1F1" height="47.2188" style="stroke:#181818;stroke-width:0.5;" width="208" x="937" y="430.6"/><text fill="#000000" font-family="sans-serif" font-size="14" lengthAdjust="spacing" textLength="194" x="944" y="447.1332">Device - AlgorithmIdentification</text><line style="stroke:#181818;stroke-width:0.5;" x1="938" x2="1144" y1="452.2094" y2="452.2094"/><text fill="#000000" font-family="sans-serif" font-size="14" lengthAdjust="spacing" textLength="167" x="943" y="470.7426">parent = EquipmentDevice</text></g><g id="elem_TrackingBodyStructure"><rect fill="#F1F1F1" height="47.2188" style="stroke:#181818;stroke-width:0.5;" width="327" x="877.5" y="512.6"/><text fill="#000000" font-family="sans-serif" font-size="14" lengthAdjust="spacing" textLength="313" x="884.5" y="529.1332">Body Structure - BodyStructureTrackingIdentifiers</text><line style="stroke:#181818;stroke-width:0.5;" x1="878.5" x2="1203.5" y1="534.2094" y2="534.2094"/><text fill="#000000" font-family="sans-serif" font-size="14" lengthAdjust="spacing" textLength="236" x="883.5" y="552.7426">identifier = TrackingID or TrackingUID</text></g><g id="elem_ImagingSelection"><rect fill="#F1F1F1" height="37.6094" style="stroke:#181818;stroke-width:0.5;" width="121" x="980.5" y="856.1"/><text fill="#000000" font-family="sans-serif" font-size="14" lengthAdjust="spacing" textLength="107" x="987.5" y="872.6332">ImagingSelection</text><line style="stroke:#181818;stroke-width:0.5;" x1="981.5" x2="1100.5" y1="877.7094" y2="877.7094"/></g><g id="elem_imagingMeasurementGroup"><rect fill="#F1F1F1" height="223.3125" style="stroke:#181818;stroke-width:0.5;" width="420" x="1368" y="463.6"/><text fill="#000000" font-family="sans-serif" font-size="14" lengthAdjust="spacing" textLength="273" x="1441.5" y="480.1332">Observation - Imaging Measurement Group</text><line style="stroke:#181818;stroke-width:0.5;" x1="1369" x2="1787" y1="485.2094" y2="485.2094"/><text fill="#000000" font-family="sans-serif" font-size="14" lengthAdjust="spacing" textLength="105" x="1374" y="503.7426">subject = Patient</text><text fill="#000000" font-family="sans-serif" font-size="14" lengthAdjust="spacing" textLength="141" x="1374" y="521.352">partOf = ImagingStudy</text><text fill="#000000" font-family="sans-serif" font-size="14" lengthAdjust="spacing" textLength="174" x="1374" y="538.9613">basedOn = ServiceRequest</text><text fill="#000000" font-family="sans-serif" font-size="14" lengthAdjust="spacing" textLength="326" x="1374" y="556.5707">device = EquipmentDevice or AlgorithmIdentification</text><text fill="#000000" font-family="sans-serif" font-size="14" lengthAdjust="spacing" textLength="256" x="1374" y="574.1801">focus = BodyStructureTrackingIdentifiers</text><text fill="#000000" font-family="sans-serif" font-size="14" lengthAdjust="spacing" textLength="157" x="1374" y="591.7895">focus = ImagingSelection</text><text fill="#000000" font-family="sans-serif" font-size="14" lengthAdjust="spacing" textLength="266" x="1374" y="609.3988">bodyStructure = BodyStructureFindingSite</text><text fill="#000000" font-family="sans-serif" font-size="14" lengthAdjust="spacing" textLength="408" x="1374" y="627.0082">code = Finding Category or DCM#125007 "Measurement Group"</text><text fill="#000000" font-family="sans-serif" font-size="14" lengthAdjust="spacing" textLength="200" x="1374" y="644.6176">method = Measurement Method</text><text fill="#000000" font-family="sans-serif" font-size="14" lengthAdjust="spacing" textLength="211" x="1374" y="662.227">valueCodeableConcept = Finding</text><text fill="#000000" font-family="sans-serif" font-size="14" lengthAdjust="spacing" textLength="225" x="1374" y="679.8363">hasMember = ImagingMeasurement</text></g><g id="elem_imagingMeasurementMap"><rect fill="#F1F1F1" height="151.2656" style="stroke:#181818;stroke-width:0.5;" width="378" x="852" y="162.6"/><a href="mapping.html#imaging-measurement-mapping" target="_top" title="mapping.html#imaging-measurement-mapping" xlink:actuate="onRequest" xlink:href="mapping.html#imaging-measurement-mapping" xlink:show="new" xlink:title="mapping.html#imaging-measurement-mapping" xlink:type="simple"><text fill="#0000FF" font-family="sans-serif" font-size="14" lengthAdjust="spacing" text-decoration="underline" textLength="197" x="942.5" y="179.1332">Imaging Measurement Mapping</text></a><line style="stroke:#181818;stroke-width:1.0;" x1="852" x2="1230" y1="184.2094" y2="184.2094"/><text fill="#000000" font-family="sans-serif" font-size="14" lengthAdjust="spacing" textLength="45" x="879" y="200.7426">subject</text><text fill="#000000" font-family="sans-serif" font-size="14" lengthAdjust="spacing" textLength="44" x="956" y="200.7426">Patient</text><line style="stroke:#181818;stroke-width:1.0;" x1="951" x2="951" y1="184.2094" y2="205.8188"/><line style="stroke:#181818;stroke-width:1.0;" x1="852" x2="1230" y1="205.8188" y2="205.8188"/><text fill="#000000" font-family="sans-serif" font-size="14" lengthAdjust="spacing" textLength="40" x="881.5" y="222.352">partOf</text><text fill="#000000" font-family="sans-serif" font-size="14" lengthAdjust="spacing" textLength="85" x="956" y="222.352">ImagingStudy</text><line style="stroke:#181818;stroke-width:1.0;" x1="951" x2="951" y1="205.8188" y2="227.4281"/><line style="stroke:#181818;stroke-width:1.0;" x1="852" x2="1230" y1="227.4281" y2="227.4281"/><text fill="#000000" font-family="sans-serif" font-size="14" lengthAdjust="spacing" textLength="58" x="872.5" y="243.9613">basedOn</text><text fill="#000000" font-family="sans-serif" font-size="14" lengthAdjust="spacing" textLength="100" x="956" y="243.9613">ServiceRequest</text><line style="stroke:#181818;stroke-width:1.0;" x1="951" x2="951" y1="227.4281" y2="249.0375"/><line style="stroke:#181818;stroke-width:1.0;" x1="852" x2="1230" y1="249.0375" y2="249.0375"/><text fill="#000000" font-family="sans-serif" font-size="14" lengthAdjust="spacing" textLength="34" x="884.5" y="265.5707">focus</text><text fill="#000000" font-family="sans-serif" font-size="14" lengthAdjust="spacing" textLength="107" x="956" y="265.5707">ImagingSelection</text><line style="stroke:#181818;stroke-width:1.0;" x1="951" x2="951" y1="249.0375" y2="270.6469"/><line style="stroke:#181818;stroke-width:1.0;" x1="852" x2="1230" y1="270.6469" y2="270.6469"/><text fill="#000000" font-family="sans-serif" font-size="14" lengthAdjust="spacing" textLength="89" x="857" y="287.1801">bodyStructure</text><text fill="#000000" font-family="sans-serif" font-size="14" lengthAdjust="spacing" textLength="161" x="956" y="287.1801">BodyStructureFindingSite</text><line style="stroke:#181818;stroke-width:1.0;" x1="951" x2="951" y1="270.6469" y2="292.2563"/><line style="stroke:#181818;stroke-width:1.0;" x1="852" x2="1230" y1="292.2563" y2="292.2563"/><text fill="#000000" font-family="sans-serif" font-size="14" lengthAdjust="spacing" textLength="41" x="881" y="308.7895">device</text><text fill="#000000" font-family="sans-serif" font-size="14" lengthAdjust="spacing" textLength="269" x="956" y="308.7895">AlgorithmIdentification or EquipmentDevice</text><line style="stroke:#181818;stroke-width:1.0;" x1="951" x2="951" y1="292.2563" y2="313.8656"/></g><!--link algorithm to AlgorithmIdentification--><g id="link_algorithm_AlgorithmIdentification"><path codeLine="61" d="M264.22,465.43 C305.42,466.08 356.97,466.78 403,467.1 C585.66,468.37 631.41,472.35 814,467.1 C852.44,466 894.52,463.84 931.83,461.59 " fill="none" id="algorithm-to-AlgorithmIdentification" style="stroke:#181818;stroke-width:1.0;"/><polygon fill="#181818" points="936.83,461.29,927.6066,457.8362,931.839,461.5895,928.0857,465.8218,936.83,461.29" style="stroke:#181818;stroke-width:1.0;"/><text fill="#000000" font-family="sans-serif" font-size="13" lengthAdjust="spacing" textLength="409" x="404" y="463.5951">Create AlgorithmIdentification from Algorithm Identification content item</text></g><!--link tracking to TrackingBodyStructure--><g id="link_tracking_TrackingBodyStructure"><path codeLine="62" d="M266.86,537.01 C404.53,536.84 689.29,536.51 872.14,536.3 " fill="none" id="tracking-to-TrackingBodyStructure" style="stroke:#181818;stroke-width:1.0;"/><polygon fill="#181818" points="877.25,536.29,868.25,532.29,872.25,536.29,868.25,540.29,877.25,536.29" style="stroke:#181818;stroke-width:1.0;"/><text fill="#000000" font-family="sans-serif" font-size="13" lengthAdjust="spacing" textLength="349" x="434" y="532.5951">Create BodyStructure reference from Tracking Identifier / UID</text></g><!--link BodyStructureFindingSite to BodyStructureFindingSite--><g id="link_BodyStructureFindingSite_BodyStructureFindingSite"><path codeLine="63" d="M115.8,783.37 C92.13,766 115.53,748.6 186,748.6 C252.07,748.6 276.76,763.89 260.08,780.12 " fill="none" id="BodyStructureFindingSite-to-BodyStructureFindingSite" style="stroke:#181818;stroke-width:1.0;"/><polygon fill="#181818" points="256.2,783.37,265.6708,780.6673,260.0364,780.1634,260.5403,774.5291,256.2,783.37" style="stroke:#181818;stroke-width:1.0;"/><text fill="#000000" font-family="sans-serif" font-size="13" lengthAdjust="spacing" textLength="227" x="72.5" y="740.0951">Create BodyStructure from Finding Site</text></g><!--link imageRegion to ImagingSelection--><g id="link_imageRegion_ImagingSelection"><path codeLine="64" d="M275.87,884.06 C448.14,882.04 823.83,877.63 975.03,875.86 " fill="none" id="imageRegion-to-ImagingSelection" style="stroke:#181818;stroke-width:1.0;"/><polygon fill="#181818" points="980.32,875.8,971.2749,871.9031,975.3203,875.8571,971.3663,879.9026,980.32,875.8" style="stroke:#181818;stroke-width:1.0;"/><text fill="#000000" font-family="sans-serif" font-size="13" lengthAdjust="spacing" textLength="320" x="448.5" y="873.5951">Create ImagingSelection from image reference or region</text></g><!--link inputs to imagingMeasurementGroup--><g id="link_inputs_imagingMeasurementGroup"><path codeLine="66" d="M373.1,100.01 C592.13,52.62 961.05,6 1238,141.1 C1372.2,206.57 1468.83,353.68 1523.78,458.46 " fill="none" id="inputs-to-imagingMeasurementGroup" style="stroke:#181818;stroke-width:1.0;"/><polygon fill="#181818" points="1526.21,463.1,1525.5867,453.2709,1523.8942,458.6686,1518.4965,456.9761,1526.21,463.1" style="stroke:#181818;stroke-width:1.0;"/></g><!--link AlgorithmIdentification to imagingMeasurementGroup--><g id="link_AlgorithmIdentification_imagingMeasurementGroup"><path codeLine="67" d="M1145.1,475.15 C1175.09,481.41 1207.88,488.4 1238,495.1 C1278.41,504.09 1321.46,514 1362.84,523.69 " fill="none" id="AlgorithmIdentification-to-imagingMeasurementGroup" style="stroke:#181818;stroke-width:1.0;"/><polygon fill="#181818" points="1367.87,524.87,1360.005,518.942,1362.999,523.7415,1358.1994,526.7355,1367.87,524.87" style="stroke:#181818;stroke-width:1.0;"/></g><!--link TrackingBodyStructure to imagingMeasurementGroup--><g id="link_TrackingBodyStructure_imagingMeasurementGroup"><path codeLine="68" d="M1204.7,547.96 C1254.43,551.59 1309.91,555.63 1362.53,559.47 " fill="none" id="TrackingBodyStructure-to-imagingMeasurementGroup" style="stroke:#181818;stroke-width:1.0;"/><polygon fill="#181818" points="1367.62,559.84,1358.942,555.1824,1362.6338,559.4685,1358.3477,563.1603,1367.62,559.84" style="stroke:#181818;stroke-width:1.0;"/></g><!--link finding to imagingMeasurementGroup--><g id="link_finding_imagingMeasurementGroup"><path codeLine="69" d="M216.68,609.35 C363.4,605.66 1018.05,589.17 1362.88,580.49 " fill="none" id="finding-to-imagingMeasurementGroup" style="stroke:#181818;stroke-width:1.0;"/><polygon fill="#181818" points="1367.94,580.36,1358.8402,576.5927,1362.9417,580.4885,1359.0458,584.59,1367.94,580.36" style="stroke:#181818;stroke-width:1.0;"/></g><!--link findingCategory to imagingMeasurementGroup--><g id="link_findingCategory_imagingMeasurementGroup"><path codeLine="70" d="M247.62,678.39 C439.2,663.5 1038.11,616.97 1362.73,591.75 " fill="none" id="findingCategory-to-imagingMeasurementGroup" style="stroke:#181818;stroke-width:1.0;"/><polygon fill="#181818" points="1367.96,591.34,1358.6783,588.0461,1362.9749,591.7257,1359.2953,596.0223,1367.96,591.34" style="stroke:#181818;stroke-width:1.0;"/></g><!--link BodyStructureFindingSite to imagingMeasurementGroup--><g id="link_BodyStructureFindingSite_imagingMeasurementGroup"><path codeLine="71" d="M323.23,786.28 C523.79,755.38 910.23,694.9 1238,638.1 C1278.38,631.1 1321.41,623.34 1362.79,615.73 " fill="none" id="BodyStructureFindingSite-to-imagingMeasurementGroup" style="stroke:#181818;stroke-width:1.0;"/><polygon fill="#181818" points="1367.82,614.8,1358.2467,612.4867,1362.9018,615.7007,1359.6878,620.3559,1367.82,614.8" style="stroke:#181818;stroke-width:1.0;"/></g><!--link ImagingSelection to imagingMeasurementGroup--><g id="link_ImagingSelection_imagingMeasurementGroup"><path codeLine="72" d="M1101.68,876.39 C1164.1,875.32 1263.21,866.64 1338,827.1 C1399.3,794.69 1453.76,740.54 1495.15,690.73 " fill="none" id="ImagingSelection-to-imagingMeasurementGroup" style="stroke:#181818;stroke-width:1.0;"/><polygon fill="#181818" points="1498.36,686.85,1489.5367,691.2259,1495.1689,690.6993,1495.6955,696.3316,1498.36,686.85" style="stroke:#181818;stroke-width:1.0;"/></g><!--link measurementGroup to imagingMeasurementGroup--><g id="link_measurementGroup_imagingMeasurementGroup"><path codeLine="73" d="M348.1755,303.8705 C349.3701,303.8906 350.57,303.9112 351.7754,303.9323 C354.186,303.9746 356.618,304.0189 359.0711,304.0655 C363.9772,304.1585 368.9676,304.2604 374.0393,304.3715 C384.1828,304.5939 394.6519,304.8536 405.4245,305.1556 C448.5148,306.3635 496.4597,308.2478 547.8363,311.1213 C753.3425,322.615 1013.755,349.935 1238,413.1 C1281.16,425.26 1325.59,442.57 1367.49,461.39 " fill="none" id="measurementGroup-to-imagingMeasurementGroup" style="stroke:#181818;stroke-width:1.0;"/><polygon fill="#181818" points="1372.06,463.45,1365.5028,456.1013,1367.5028,461.3928,1362.2113,463.3929,1372.06,463.45" style="stroke:#181818;stroke-width:1.0;"/></g><!--link method to imagingMeasurementGroup--><g id="link_method_imagingMeasurementGroup"><path codeLine="74" d="M261.56,965.51 C435.89,980.56 882.35,1005.83 1238,912.1 C1355.19,881.22 1448.99,775.9 1507.96,691.13 " fill="none" id="method-to-imagingMeasurementGroup" style="stroke:#181818;stroke-width:1.0;"/><polygon fill="#181818" points="1510.91,686.85,1502.503,691.9805,1508.0677,690.9635,1509.0846,696.5282,1510.91,686.85" style="stroke:#181818;stroke-width:1.0;"/></g><!--link inputs to imagingMeasurementMap--><g id="link_inputs_imagingMeasurementMap"><path codeLine="76" d="M373.14,168.52 C510.73,182.88 697.87,202.4 838.88,217.12 " fill="none" id="inputs-to-imagingMeasurementMap" style="stroke:#181818;stroke-width:1.0;"/><polygon fill="#181818" points="843.88,217.64,835.3533,212.7109,838.908,217.1114,834.5075,220.666,843.88,217.64" style="stroke:#181818;stroke-width:1.0;"/></g><!--link measurement to imagingMeasurementMap--><g id="link_measurement_imagingMeasurementMap"><path codeLine="77" d="M269.12,382.19 C301.55,378.35 339.1,373.49 373,368.1 C530.16,343.1 706.89,308.35 838.93,281.07 " fill="none" id="measurement-to-imagingMeasurementMap" style="stroke:#181818;stroke-width:1.0;"/><polygon fill="#181818" points="844,280.02,834.376,277.9273,839.1038,281.0335,835.9976,285.7613,844,280.02" style="stroke:#181818;stroke-width:1.0;"/><text fill="#000000" font-family="sans-serif" font-size="13" lengthAdjust="spacing" textLength="397" x="410" y="285.5951">Map numerical measurements to ImagingMeasurement Observations</text></g><!--reverse link imagingMeasurementMap to imagingMeasurementGroup--><g id="link_imagingMeasurementMap_imagingMeasurementGroup"><path codeLine="78" d="M1242.98,297.75 C1275.85,311.13 1308.7,326.87 1338,345.1 C1389.58,377.19 1439.24,421.9 1479.8,463.37 " fill="none" id="imagingMeasurementMap-backto-imagingMeasurementGroup" style="stroke:#181818;stroke-width:1.0;"/><polygon fill="#181818" points="1238.13,295.79,1244.982,302.8646,1242.7674,297.6592,1247.9728,295.4447,1238.13,295.79" style="stroke:#181818;stroke-width:1.0;"/><text fill="#000000" font-family="sans-serif" font-size="13" lengthAdjust="spacing" textLength="68" x="1269" y="306.5951">hasMember</text></g><!--SRC=[ZLPDRzim3BtxLn3fsLqtO1XGB06sP1joo3eqswdeGR7fH9k_Aii5Yg7_VPHaot8iUJd54Vb4YezwL8wP15c1uCUJX9GBJ2IloYWgM0sBXmVwgNbvl3x98h_Y1JlIdxX0rhG22onb4oTLAHalKSITBspBkfKDPA8gO6iWi7CWiEuXi3EGnyS5i0Qu0VwD0A1f3xyf5rYku0UJd71gjMP2tcLgiTjuBzlqHLaEhC7qhbIcFOfddk0zFhNOQ5YAQa7PlZorl5PPRFHIz1f5DKl-i2F2OfJZDr6rjSxAEQrUDFbL9ht5f_nO2IvFTDIKF7Z64wOggA6iDxg8du82wZfr0Ah36_YrtMY8xAmkuYilKrhIzinyUyomPX8ftelhrw_v_FTSelRzNAKlUodQHD8vEwiokY1LRuHxFDBPADrxp51WcPWDL6EWiRaOfw3K0F9KfLr1rQUXiolzzxP0GPNBHusoCAMs-tczpZbIY5V5QuyoJ4CCbYeFKm5Rbm2rdJh3qjS-VHXLHB1Lf72ZglQa3vmtEcw_FdBkelAXFvRMSRk1IjX_r3MNv-0mEqjx7xvCyZR5rBfSDtRd9RXDvAJGNqlCZP30aDpTeQ6BQSeQ-uJ1kNETqkoyLs_G1bSQh3PCf67G1eyqM6quvrQLET0L6fTLITiGx7yqZvpFosFI6t6_dBsEa5IfM_x-VgjiD-lTrTjtxszkFeoldYchHfkhH_ZfrTJsPvQtkAOGx93JBztlMWxHjCk9DJii3hefjnEQL2jSE3g6UU5fXRF1C8b3zlDcM7cxOJNJ3hvHqLEryb_DiSibTAxc-Hn6KqY2Y5cFxDZH0d4SnDx2MY1rI71lFQD38mpKQ5TaKAv5r0yc7SzR6njjB6QY7nKcMd3yHK4zKX53na1G7MgaKSwCqXkUSsStcaYOtal3dRCGAy8ClAXxjgXD0xeLXUe_X_6FXZb4D_ClyR6wCUSxIqW8D2dVdFFaRJNlhCLhpcMU2n8DDsBOwrRf3vJskU4-UDLhUQfxu4ot9lBhrSSu3YL-EyZgFm00]--></g></svg>