<?xml version="1.0" encoding="us-ascii" standalone="no"?><svg xmlns="http://www.w3.org/2000/svg" xmlns:xlink="http://www.w3.org/1999/xlink" contentStyleType="text/css" height="658px" preserveAspectRatio="none" style="width:1113px;height:658px;background:#FFFFFF;" version="1.1" viewBox="0 0 1113 658" width="1113px" zoomAndPan="magnify"><defs/><g><!--cluster imagingMeasurementGroup--><g id="cluster_imagingMeasurementGroup"><path d="M8.5,186 L246.5,186 A3.75,3.75 0 0 1 249,188.5 L256,209.6094 L291.5,209.6094 A2.5,2.5 0 0 1 294,212.1094 L294,577.5 A2.5,2.5 0 0 1 291.5,580 L8.5,580 A2.5,2.5 0 0 1 6,577.5 L6,188.5 A2.5,2.5 0 0 1 8.5,186 " fill="none" style="stroke:#000000;stroke-width:1.5;"/><line style="stroke:#000000;stroke-width:1.5;" x1="6" x2="256" y1="209.6094" y2="209.6094"/><text fill="#000000" font-family="sans-serif" font-size="14" font-weight="bold" lengthAdjust="spacing" textLength="237" x="10" y="202.5332">Imaging Measurements Container</text></g><!--cluster Derived Imaging Measurements--><g id="cluster_Derived Imaging Measurements"><path d="M32.5,466 L257.5,466 A3.75,3.75 0 0 1 260,468.5 L267,489.6094 L267.5,489.6094 A2.5,2.5 0 0 1 270,492.1094 L270,553.5 A2.5,2.5 0 0 1 267.5,556 L32.5,556 A2.5,2.5 0 0 1 30,553.5 L30,468.5 A2.5,2.5 0 0 1 32.5,466 " fill="none" style="stroke:#000000;stroke-width:1.5;"/><line style="stroke:#000000;stroke-width:1.5;" x1="30" x2="267" y1="489.6094" y2="489.6094"/><text fill="#000000" font-family="sans-serif" font-size="14" font-weight="bold" lengthAdjust="spacing" textLength="224" x="34" y="482.5332">Derived Imaging Measurements</text></g><!--cluster Qualitative Evaluations--><g id="cluster_Qualitative Evaluations"><path d="M61,230 L224,230 A3.75,3.75 0 0 1 226.5,232.5 L233.5,253.6094 L239,253.6094 A2.5,2.5 0 0 1 241.5,256.1094 L241.5,317.5 A2.5,2.5 0 0 1 239,320 L61,320 A2.5,2.5 0 0 1 58.5,317.5 L58.5,232.5 A2.5,2.5 0 0 1 61,230 " fill="none" style="stroke:#000000;stroke-width:1.5;"/><line style="stroke:#000000;stroke-width:1.5;" x1="58.5" x2="233.5" y1="253.6094" y2="253.6094"/><text fill="#000000" font-family="sans-serif" font-size="14" font-weight="bold" lengthAdjust="spacing" textLength="162" x="62.5" y="246.5332">Qualitative Evaluations</text></g><g id="elem_algorithm"><rect fill="#F1F1F1" height="37.6094" style="stroke:#181818;stroke-width:0.5;" width="156" x="72" y="339"/><text fill="#000000" font-family="sans-serif" font-size="14" lengthAdjust="spacing" textLength="142" x="79" y="355.5332">Algorithm Identification</text><line style="stroke:#181818;stroke-width:0.5;" x1="73" x2="227" y1="360.6094" y2="360.6094"/></g><g id="elem_measurementGroup"><rect fill="#F1F1F1" height="37.6094" style="stroke:#181818;stroke-width:0.5;" width="144" x="78" y="412"/><text fill="#000000" font-family="sans-serif" font-size="14" lengthAdjust="spacing" textLength="130" x="85" y="428.5332">Measurement Group</text><line style="stroke:#181818;stroke-width:0.5;" x1="79" x2="221" y1="433.6094" y2="433.6094"/></g><g id="elem_derivedMeasurement"><rect fill="#F1F1F1" height="37.6094" style="stroke:#181818;stroke-width:0.5;" width="206" x="47" y="502"/><text fill="#000000" font-family="sans-serif" font-size="14" lengthAdjust="spacing" textLength="192" x="54" y="518.5332">Derived Imaging Measurement</text><line style="stroke:#181818;stroke-width:0.5;" x1="48" x2="252" y1="523.6094" y2="523.6094"/></g><g id="elem_qualitativeEvaluations"><rect fill="#F1F1F1" height="37.6094" style="stroke:#181818;stroke-width:0.5;" width="151" x="74.5" y="266"/><text fill="#000000" font-family="sans-serif" font-size="14" lengthAdjust="spacing" textLength="137" x="81.5" y="282.5332">Qualitative Evaluation</text><line style="stroke:#181818;stroke-width:0.5;" x1="75.5" x2="224.5" y1="287.6094" y2="287.6094"/></g><g id="elem_inputs"><rect fill="#F1F1F1" height="108.0469" style="stroke:#181818;stroke-width:0.5;" width="188" x="838.5" y="7"/><text fill="#000000" font-family="sans-serif" font-size="14" lengthAdjust="spacing" textLength="38" x="913.5" y="23.5332">inputs</text><line style="stroke:#181818;stroke-width:1.0;" x1="838.5" x2="1026.5" y1="28.6094" y2="28.6094"/><text fill="#000000" font-family="sans-serif" font-size="14" lengthAdjust="spacing" textLength="45" x="850" y="45.1426">subject</text><text fill="#000000" font-family="sans-serif" font-size="14" lengthAdjust="spacing" textLength="44" x="911.5" y="45.1426">Patient</text><line style="stroke:#181818;stroke-width:1.0;" x1="906.5" x2="906.5" y1="28.6094" y2="50.2188"/><line style="stroke:#181818;stroke-width:1.0;" x1="838.5" x2="1026.5" y1="50.2188" y2="50.2188"/><text fill="#000000" font-family="sans-serif" font-size="14" lengthAdjust="spacing" textLength="40" x="852.5" y="66.752">partOf</text><text fill="#000000" font-family="sans-serif" font-size="14" lengthAdjust="spacing" textLength="85" x="911.5" y="66.752">ImagingStudy</text><line style="stroke:#181818;stroke-width:1.0;" x1="906.5" x2="906.5" y1="50.2188" y2="71.8281"/><line style="stroke:#181818;stroke-width:1.0;" x1="838.5" x2="1026.5" y1="71.8281" y2="71.8281"/><text fill="#000000" font-family="sans-serif" font-size="14" lengthAdjust="spacing" textLength="58" x="843.5" y="88.3613">basedOn</text><text fill="#000000" font-family="sans-serif" font-size="14" lengthAdjust="spacing" textLength="100" x="911.5" y="88.3613">ServiceRequest</text><line style="stroke:#181818;stroke-width:1.0;" x1="906.5" x2="906.5" y1="71.8281" y2="93.4375"/><line style="stroke:#181818;stroke-width:1.0;" x1="838.5" x2="1026.5" y1="93.4375" y2="93.4375"/><text fill="#000000" font-family="sans-serif" font-size="14" lengthAdjust="spacing" textLength="41" x="852" y="109.9707">device</text><text fill="#000000" font-family="sans-serif" font-size="14" lengthAdjust="spacing" textLength="110" x="911.5" y="109.9707">EquipmentDevice</text><line style="stroke:#181818;stroke-width:1.0;" x1="906.5" x2="906.5" y1="93.4375" y2="115.0469"/></g><g id="elem_AlgorithmIdentification"><rect fill="#F1F1F1" height="47.2188" style="stroke:#181818;stroke-width:0.5;" width="179" x="843" y="305.5"/><text fill="#000000" font-family="sans-serif" font-size="14" lengthAdjust="spacing" textLength="138" x="863.5" y="322.0332">AlgorithmIdentification</text><line style="stroke:#181818;stroke-width:0.5;" x1="844" x2="1021" y1="327.1094" y2="327.1094"/><text fill="#000000" font-family="sans-serif" font-size="14" lengthAdjust="spacing" textLength="167" x="849" y="345.6426">parent = EquipmentDevice</text></g><g id="elem_measurementGroupMap"><rect fill="#F1F1F1" height="108.0469" style="stroke:#181818;stroke-width:0.5;" width="347" x="759" y="392"/><text fill="#000000" font-family="sans-serif" font-size="14" lengthAdjust="spacing" textLength="153" x="856" y="408.5332">measurementGroupMap</text><line style="stroke:#181818;stroke-width:1.0;" x1="759" x2="1106" y1="413.6094" y2="413.6094"/><text fill="#000000" font-family="sans-serif" font-size="14" lengthAdjust="spacing" textLength="45" x="770.5" y="430.1426">subject</text><text fill="#000000" font-family="sans-serif" font-size="14" lengthAdjust="spacing" textLength="44" x="832" y="430.1426">Patient</text><line style="stroke:#181818;stroke-width:1.0;" x1="827" x2="827" y1="413.6094" y2="435.2188"/><line style="stroke:#181818;stroke-width:1.0;" x1="759" x2="1106" y1="435.2188" y2="435.2188"/><text fill="#000000" font-family="sans-serif" font-size="14" lengthAdjust="spacing" textLength="40" x="773" y="451.752">partOf</text><text fill="#000000" font-family="sans-serif" font-size="14" lengthAdjust="spacing" textLength="85" x="832" y="451.752">ImagingStudy</text><line style="stroke:#181818;stroke-width:1.0;" x1="827" x2="827" y1="435.2188" y2="456.8281"/><line style="stroke:#181818;stroke-width:1.0;" x1="759" x2="1106" y1="456.8281" y2="456.8281"/><text fill="#000000" font-family="sans-serif" font-size="14" lengthAdjust="spacing" textLength="58" x="764" y="473.3613">basedOn</text><text fill="#000000" font-family="sans-serif" font-size="14" lengthAdjust="spacing" textLength="100" x="832" y="473.3613">ServiceRequest</text><line style="stroke:#181818;stroke-width:1.0;" x1="827" x2="827" y1="456.8281" y2="478.4375"/><line style="stroke:#181818;stroke-width:1.0;" x1="759" x2="1106" y1="478.4375" y2="478.4375"/><text fill="#000000" font-family="sans-serif" font-size="14" lengthAdjust="spacing" textLength="41" x="772.5" y="494.9707">device</text><text fill="#000000" font-family="sans-serif" font-size="14" lengthAdjust="spacing" textLength="269" x="832" y="494.9707">AlgorithmIdentification or EquipmentDevice</text><line style="stroke:#181818;stroke-width:1.0;" x1="827" x2="827" y1="478.4375" y2="500.0469"/></g><g id="elem_derivedMeasurementsMap"><rect fill="#F1F1F1" height="108.0469" style="stroke:#181818;stroke-width:0.5;" width="347" x="759" y="543"/><text fill="#000000" font-family="sans-serif" font-size="14" lengthAdjust="spacing" textLength="167" x="849" y="559.5332">derivedMeasurementsMap</text><line style="stroke:#181818;stroke-width:1.0;" x1="759" x2="1106" y1="564.6094" y2="564.6094"/><text fill="#000000" font-family="sans-serif" font-size="14" lengthAdjust="spacing" textLength="45" x="770.5" y="581.1426">subject</text><text fill="#000000" font-family="sans-serif" font-size="14" lengthAdjust="spacing" textLength="44" x="832" y="581.1426">Patient</text><line style="stroke:#181818;stroke-width:1.0;" x1="827" x2="827" y1="564.6094" y2="586.2188"/><line style="stroke:#181818;stroke-width:1.0;" x1="759" x2="1106" y1="586.2188" y2="586.2188"/><text fill="#000000" font-family="sans-serif" font-size="14" lengthAdjust="spacing" textLength="40" x="773" y="602.752">partOf</text><text fill="#000000" font-family="sans-serif" font-size="14" lengthAdjust="spacing" textLength="85" x="832" y="602.752">ImagingStudy</text><line style="stroke:#181818;stroke-width:1.0;" x1="827" x2="827" y1="586.2188" y2="607.8281"/><line style="stroke:#181818;stroke-width:1.0;" x1="759" x2="1106" y1="607.8281" y2="607.8281"/><text fill="#000000" font-family="sans-serif" font-size="14" lengthAdjust="spacing" textLength="58" x="764" y="624.3613">basedOn</text><text fill="#000000" font-family="sans-serif" font-size="14" lengthAdjust="spacing" textLength="100" x="832" y="624.3613">ServiceRequest</text><line style="stroke:#181818;stroke-width:1.0;" x1="827" x2="827" y1="607.8281" y2="629.4375"/><line style="stroke:#181818;stroke-width:1.0;" x1="759" x2="1106" y1="629.4375" y2="629.4375"/><text fill="#000000" font-family="sans-serif" font-size="14" lengthAdjust="spacing" textLength="41" x="772.5" y="645.9707">device</text><text fill="#000000" font-family="sans-serif" font-size="14" lengthAdjust="spacing" textLength="269" x="832" y="645.9707">AlgorithmIdentification or EquipmentDevice</text><line style="stroke:#181818;stroke-width:1.0;" x1="827" x2="827" y1="629.4375" y2="651.0469"/></g><g id="elem_qualitativeEvaluationsMap"><rect fill="#F1F1F1" height="108.0469" style="stroke:#181818;stroke-width:0.5;" width="347" x="759" y="158"/><text fill="#000000" font-family="sans-serif" font-size="14" lengthAdjust="spacing" textLength="164" x="850.5" y="174.5332">qualitativeEvaluationsMap</text><line style="stroke:#181818;stroke-width:1.0;" x1="759" x2="1106" y1="179.6094" y2="179.6094"/><text fill="#000000" font-family="sans-serif" font-size="14" lengthAdjust="spacing" textLength="45" x="770.5" y="196.1426">subject</text><text fill="#000000" font-family="sans-serif" font-size="14" lengthAdjust="spacing" textLength="44" x="832" y="196.1426">Patient</text><line style="stroke:#181818;stroke-width:1.0;" x1="827" x2="827" y1="179.6094" y2="201.2188"/><line style="stroke:#181818;stroke-width:1.0;" x1="759" x2="1106" y1="201.2188" y2="201.2188"/><text fill="#000000" font-family="sans-serif" font-size="14" lengthAdjust="spacing" textLength="40" x="773" y="217.752">partOf</text><text fill="#000000" font-family="sans-serif" font-size="14" lengthAdjust="spacing" textLength="85" x="832" y="217.752">ImagingStudy</text><line style="stroke:#181818;stroke-width:1.0;" x1="827" x2="827" y1="201.2188" y2="222.8281"/><line style="stroke:#181818;stroke-width:1.0;" x1="759" x2="1106" y1="222.8281" y2="222.8281"/><text fill="#000000" font-family="sans-serif" font-size="14" lengthAdjust="spacing" textLength="58" x="764" y="239.3613">basedOn</text><text fill="#000000" font-family="sans-serif" font-size="14" lengthAdjust="spacing" textLength="100" x="832" y="239.3613">ServiceRequest</text><line style="stroke:#181818;stroke-width:1.0;" x1="827" x2="827" y1="222.8281" y2="244.4375"/><line style="stroke:#181818;stroke-width:1.0;" x1="759" x2="1106" y1="244.4375" y2="244.4375"/><text fill="#000000" font-family="sans-serif" font-size="14" lengthAdjust="spacing" textLength="41" x="772.5" y="260.9707">device</text><text fill="#000000" font-family="sans-serif" font-size="14" lengthAdjust="spacing" textLength="269" x="832" y="260.9707">AlgorithmIdentification or EquipmentDevice</text><line style="stroke:#181818;stroke-width:1.0;" x1="827" x2="827" y1="244.4375" y2="266.0469"/></g><!--link algorithm to AlgorithmIdentification--><g id="link_algorithm_AlgorithmIdentification"><path codeLine="25" d="M228.33,355.13 C372.52,349.77 681.89,338.27 837.72,332.48 " fill="none" id="algorithm-to-AlgorithmIdentification" style="stroke:#181818;stroke-width:1.0;"/><polygon fill="#181818" points="842.74,332.3,833.5977,328.6368,837.7434,332.4856,833.8947,336.6313,842.74,332.3" style="stroke:#181818;stroke-width:1.0;"/><text fill="#000000" font-family="sans-serif" font-size="13" lengthAdjust="spacing" textLength="409" x="311" y="334.4951">Create AlgorithmIdentification from Algorithm Identification content item</text></g><!--link inputs to measurementGroupMap--><g id="link_inputs_measurementGroupMap"><path codeLine="48" d="M830.43,52.02 C735.26,49.95 597.62,64.35 526.5,153.5 C471.34,222.64 471.42,283.3 526.5,352.5 C578.23,417.5 665.27,443 745.51,451.35 " fill="none" id="inputs-to-measurementGroupMap" style="stroke:#181818;stroke-width:1.0;"/><polygon fill="#181818" points="750.79,451.88,742.2355,446.9994,745.8151,451.3797,741.4349,454.9593,750.79,451.88" style="stroke:#181818;stroke-width:1.0;"/></g><!--link inputs to derivedMeasurementsMap--><g id="link_inputs_derivedMeasurementsMap"><path codeLine="49" d="M830.43,52.02 C735.26,49.95 597.62,64.35 526.5,153.5 C429.49,275.1 429.63,381.79 526.5,503.5 C578.23,568.5 665.27,594 745.51,602.35 " fill="none" id="inputs-to-derivedMeasurementsMap" style="stroke:#181818;stroke-width:1.0;"/><polygon fill="#181818" points="750.79,602.88,742.2355,597.9994,745.8151,602.3797,741.4349,605.9593,750.79,602.88" style="stroke:#181818;stroke-width:1.0;"/></g><!--link inputs to qualitativeEvaluationsMap--><g id="link_inputs_qualitativeEvaluationsMap"><path codeLine="50" d="M932.5,119.06 C932.5,128.95 932.5,138.84 932.5,148.73 " fill="none" id="inputs-to-qualitativeEvaluationsMap" style="stroke:#181818;stroke-width:1.0;"/><polygon fill="#181818" points="932.5,153.9,936.5,144.9,932.5,148.9,928.5,144.9,932.5,153.9" style="stroke:#181818;stroke-width:1.0;"/></g><!--link measurementGroup to measurementGroupMap--><g id="link_measurementGroup_measurementGroupMap"><path codeLine="51" d="M222.33,432.37 C339.79,434.63 577.57,439.2 745.33,442.42 " fill="none" id="measurementGroup-to-measurementGroupMap" style="stroke:#181818;stroke-width:1.0;"/><polygon fill="#181818" points="750.77,442.53,741.8518,438.3508,745.771,442.43,741.6918,446.3492,750.77,442.53" style="stroke:#181818;stroke-width:1.0;"/><text fill="#000000" font-family="sans-serif" font-size="13" lengthAdjust="spacing" textLength="274" x="378.5" y="431.4951">Map contents of Measurement Group Container</text></g><!--link derivedMeasurement to derivedMeasurementsMap--><g id="link_derivedMeasurement_derivedMeasurementsMap"><path codeLine="52" d="M253.04,530.94 C377.81,543.09 591.41,563.88 745.65,578.9 " fill="none" id="derivedMeasurement-to-derivedMeasurementsMap" style="stroke:#181818;stroke-width:1.0;"/><polygon fill="#181818" points="750.66,579.39,742.0903,574.5362,745.6836,578.9052,741.3146,582.4985,750.66,579.39" style="stroke:#181818;stroke-width:1.0;"/><text fill="#000000" font-family="sans-serif" font-size="13" lengthAdjust="spacing" textLength="288" x="371.5" y="533.4951">Map contents of Derived Measurements Container</text></g><!--link qualitativeEvaluations to qualitativeEvaluationsMap--><g id="link_qualitativeEvaluations_qualitativeEvaluationsMap"><path codeLine="53" d="M225.84,278 C344.45,266.91 579.18,244.95 745.29,229.42 " fill="none" id="qualitativeEvaluations-to-qualitativeEvaluationsMap" style="stroke:#181818;stroke-width:1.0;"/><polygon fill="#181818" points="750.67,228.91,741.3326,225.7775,745.6923,229.382,742.0878,233.7418,750.67,228.91" style="stroke:#181818;stroke-width:1.0;"/><text fill="#000000" font-family="sans-serif" font-size="13" lengthAdjust="spacing" textLength="286" x="372.5" y="229.4951">Map contents of Qualitative Evaluations Container</text></g><!--SRC=[pLJBRi8m4BpxArQvymD885M0AWw8jdp1aco2soGEVaIgAlwzjXF042TdhfxrpEpkQ4lADMW1aXSd3HcNb6ekQiOgR83NZT4A_XW0A7FyjXWibl21cbEjtMk3KkzpzxYjiE1rST0c-tN84HLb-zf11v8jJ-cBpeQK_vQHUt3OvcnuKrcsjNzY5yOQJ7-m84XwIjWHAYF9LIbOYLeZhqacW0fuLn9Kl4jXciwow1mdRsKX9DUd2hQPhU0vJz4rwHdm2eO_0ZxmXBwqUbBf1j2RNPFaBMKGCvrqVWA1YMelbNLuyEm8BW-AdmPBhcqdBS6cnTBufY9YyKAlSxv30KMdPLVHCzm6-3Y_NiXcmCrf4TlbRRemcot7UEQmaeIQHdLoAIeOsoAaDX7E0DTKTRbzNjGE-qICf7WYnjCv3e8yvbt8s5oSo-6ErMiQZOVazRpsvye6BHA008qFFYWORPWz4_jOHzJcuCRJ9rE1o65mKkwNZ0qDUTwupo7rzPZ4xoIBTpFPvr1ZvDW4Cly0]--></g></svg>