<svg xmlns="http://www.w3.org/2000/svg" xmlns:xlink="http://www.w3.org/1999/xlink" contentStyleType="text/css" data-diagram-type="CLASS" height="1072px" preserveAspectRatio="none" style="width:1782px;height:1072px;background:#FFFFFF;" version="1.1" viewBox="0 0 1782 1072" width="1782px" zoomAndPan="magnify"><defs/><g><!--cluster measurementGroup--><g class="cluster" data-entity="measurementGroup" data-source-line="10" data-uid="ent0003" id="cluster_measurementGroup"><path d="M56.5,287.97 L201.4238,287.97 A3.75,3.75 0 0 1 203.9238,290.47 L210.9238,312.5911 L313.5,312.5911 A2.5,2.5 0 0 1 316,315.0911 L316,965.47 A2.5,2.5 0 0 1 313.5,967.97 L56.5,967.97 A2.5,2.5 0 0 1 54,965.47 L54,290.47 A2.5,2.5 0 0 1 56.5,287.97" fill="none" style="stroke:#000000;stroke-width:1.5;"/><line style="stroke:#000000;stroke-width:1.5;" x1="54" x2="210.9238" y1="312.5911" y2="312.5911"/><text fill="#000000" font-family="sans-serif" font-size="14" font-weight="bold" lengthAdjust="spacing" textLength="143.9238" x="58" y="305.0774">Measurements Group</text></g><!--cluster Numerical Measurements--><g class="cluster" data-entity="Numerical Measurements" data-source-line="18" data-uid="ent0011" id="cluster_Numerical Measurements"><path d="M88.5,348.97 L259.127,348.97 A3.75,3.75 0 0 1 261.627,351.47 L268.627,373.5911 L281.5,373.5911 A2.5,2.5 0 0 1 284,376.0911 L284,439.47 A2.5,2.5 0 0 1 281.5,441.97 L88.5,441.97 A2.5,2.5 0 0 1 86,439.47 L86,351.47 A2.5,2.5 0 0 1 88.5,348.97" fill="none" style="stroke:#000000;stroke-width:1.5;"/><line style="stroke:#000000;stroke-width:1.5;" x1="86" x2="268.627" y1="373.5911" y2="373.5911"/><text fill="#000000" font-family="sans-serif" font-size="14" font-weight="bold" lengthAdjust="spacing" textLength="169.627" x="90" y="366.0774">Numerical Measurements</text></g><g class="entity" data-entity="algorithm" data-source-line="11" data-uid="ent0004" id="entity_algorithm"><rect fill="#F1F1F1" height="38.6211" rx="2.5" ry="2.5" style="stroke:#181818;stroke-width:0.5;" width="155.627" x="107" y="460.47"/><text fill="#000000" font-family="sans-serif" font-size="14" lengthAdjust="spacing" textLength="141.627" x="114" y="477.5774">Algorithm Identification</text><line style="stroke:#181818;stroke-width:0.5;" x1="108" x2="261.627" y1="483.0911" y2="483.0911"/></g><g class="entity" data-entity="tracking" data-source-line="12" data-uid="ent0005" id="entity_tracking"><rect fill="#F1F1F1" height="38.6211" rx="2.5" ry="2.5" style="stroke:#181818;stroke-width:0.5;" width="161.0479" x="104.5" y="534.47"/><text fill="#000000" font-family="sans-serif" font-size="14" lengthAdjust="spacing" textLength="147.0479" x="111.5" y="551.5774">Tracking Identifier / UID</text><line style="stroke:#181818;stroke-width:0.5;" x1="105.5" x2="264.5479" y1="557.0911" y2="557.0911"/></g><g class="entity" data-entity="finding" data-source-line="13" data-uid="ent0006" id="entity_finding"><rect fill="#F1F1F1" height="38.6211" rx="2.5" ry="2.5" style="stroke:#181818;stroke-width:0.5;" width="59.917" x="155" y="682.47"/><text fill="#000000" font-family="sans-serif" font-size="14" lengthAdjust="spacing" textLength="45.917" x="162" y="699.5774">Finding</text><line style="stroke:#181818;stroke-width:0.5;" x1="156" x2="213.917" y1="705.0911" y2="705.0911"/></g><g class="entity" data-entity="findingCategory" data-source-line="14" data-uid="ent0007" id="entity_findingCategory"><rect fill="#F1F1F1" height="38.6211" rx="2.5" ry="2.5" style="stroke:#181818;stroke-width:0.5;" width="120.6133" x="124.5" y="756.47"/><text fill="#000000" font-family="sans-serif" font-size="14" lengthAdjust="spacing" textLength="106.6133" x="131.5" y="773.5774">Finding Category</text><line style="stroke:#181818;stroke-width:0.5;" x1="125.5" x2="244.1133" y1="779.0911" y2="779.0911"/></g><g class="entity" data-entity="findingSite" data-source-line="15" data-uid="ent0008" id="entity_findingSite"><rect fill="#F1F1F1" height="38.6211" rx="2.5" ry="2.5" style="stroke:#181818;stroke-width:0.5;" width="87.9307" x="141" y="608.47"/><text fill="#000000" font-family="sans-serif" font-size="14" lengthAdjust="spacing" textLength="73.9307" x="148" y="625.5774">Finding Site</text><line style="stroke:#181818;stroke-width:0.5;" x1="142" x2="227.9307" y1="631.0911" y2="631.0911"/></g><g class="entity" data-entity="imageRegion" data-source-line="16" data-uid="ent0009" id="entity_imageRegion"><rect fill="#F1F1F1" height="38.6211" rx="2.5" ry="2.5" style="stroke:#181818;stroke-width:0.5;" width="177.4268" x="96.5" y="830.47"/><text fill="#000000" font-family="sans-serif" font-size="14" lengthAdjust="spacing" textLength="163.4268" x="103.5" y="847.5774">Image Region / Reference</text><line style="stroke:#181818;stroke-width:0.5;" x1="97.5" x2="272.9268" y1="853.0911" y2="853.0911"/></g><g class="entity" data-entity="method" data-source-line="17" data-uid="ent0010" id="entity_method"><rect fill="#F1F1F1" height="38.6211" rx="2.5" ry="2.5" style="stroke:#181818;stroke-width:0.5;" width="150.1787" x="110" y="904.47"/><text fill="#000000" font-family="sans-serif" font-size="14" lengthAdjust="spacing" textLength="136.1787" x="117" y="921.5774">Measurement Method</text><line style="stroke:#181818;stroke-width:0.5;" x1="111" x2="259.1787" y1="927.0911" y2="927.0911"/></g><g class="entity" data-entity="measurement" data-source-line="19" data-uid="ent0012" id="entity_measurement"><rect fill="#F1F1F1" height="38.6211" rx="2.5" ry="2.5" style="stroke:#181818;stroke-width:0.5;" width="166.4961" x="102" y="386.47"/><text fill="#000000" font-family="sans-serif" font-size="14" lengthAdjust="spacing" textLength="152.4961" x="109" y="403.5774">Numerical Measurement</text><line style="stroke:#181818;stroke-width:0.5;" x1="103" x2="267.4961" y1="409.0911" y2="409.0911"/></g><g class="entity" data-entity="inputs" data-source-line="3" data-uid="ent0002" id="entity_inputs"><rect fill="#F1F1F1" height="113.1055" rx="2.5" ry="2.5" style="stroke:#181818;stroke-width:0.5;" width="356.3916" x="7" y="97.47"/><a href="mapping.html#imaging-measurements-container-mapping" target="_top" title="mapping.html#imaging-measurements-container-mapping" xlink:actuate="onRequest" xlink:href="mapping.html#imaging-measurements-container-mapping" xlink:show="new" xlink:title="mapping.html#imaging-measurements-container-mapping" xlink:type="simple"><text fill="#0000FF" font-family="sans-serif" font-size="14" lengthAdjust="spacing" text-decoration="underline" textLength="342.3916" x="14" y="114.5774">Inputs from Imaging Measurements Container Mapping</text></a><line style="stroke:#181818;stroke-width:1;" x1="7" x2="363.3916" y1="120.0911" y2="120.0911"/><text fill="#000000" font-family="sans-serif" font-size="14" lengthAdjust="spacing" textLength="44.3584" x="18.231" y="137.1985">subject</text><text fill="#000000" font-family="sans-serif" font-size="14" lengthAdjust="spacing" textLength="43.5859" x="78.8203" y="137.1985">Patient</text><line style="stroke:#181818;stroke-width:1;" x1="73.8203" x2="73.8203" y1="120.0911" y2="142.7122"/><line style="stroke:#181818;stroke-width:1;" x1="7" x2="363.3916" y1="142.7122" y2="142.7122"/><text fill="#000000" font-family="sans-serif" font-size="14" lengthAdjust="spacing" textLength="38.9033" x="20.9585" y="159.8196">partOf</text><text fill="#000000" font-family="sans-serif" font-size="14" lengthAdjust="spacing" textLength="85.6064" x="78.8203" y="159.8196">ImagingStudy</text><line style="stroke:#181818;stroke-width:1;" x1="73.8203" x2="73.8203" y1="142.7122" y2="165.3333"/><line style="stroke:#181818;stroke-width:1;" x1="7" x2="363.3916" y1="165.3333" y2="165.3333"/><text fill="#000000" font-family="sans-serif" font-size="14" lengthAdjust="spacing" textLength="56.8203" x="12" y="182.4407">basedOn</text><text fill="#000000" font-family="sans-serif" font-size="14" lengthAdjust="spacing" textLength="98.8271" x="78.8203" y="182.4407">ServiceRequest</text><line style="stroke:#181818;stroke-width:1;" x1="73.8203" x2="73.8203" y1="165.3333" y2="187.9544"/><line style="stroke:#181818;stroke-width:1;" x1="7" x2="363.3916" y1="187.9544" y2="187.9544"/><text fill="#000000" font-family="sans-serif" font-size="14" lengthAdjust="spacing" textLength="40.4688" x="20.1758" y="205.0618">device</text><text fill="#000000" font-family="sans-serif" font-size="14" lengthAdjust="spacing" textLength="109.7236" x="78.8203" y="205.0618">EquipmentDevice</text><line style="stroke:#181818;stroke-width:1;" x1="73.8203" x2="73.8203" y1="187.9544" y2="210.5755"/></g><g class="entity" data-entity="AlgorithmIdentification" data-source-line="23" data-uid="ent0013" id="entity_AlgorithmIdentification"><rect fill="#F1F1F1" height="49.2422" rx="2.5" ry="2.5" style="stroke:#181818;stroke-width:0.5;" width="206.9717" x="933.5" y="430.47"/><text fill="#000000" font-family="sans-serif" font-size="14" lengthAdjust="spacing" textLength="192.9717" x="940.5" y="447.5774">Device - AlgorithmIdentification</text><line style="stroke:#181818;stroke-width:0.5;" x1="934.5" x2="1139.4717" y1="453.0911" y2="453.0911"/><text fill="#000000" font-family="sans-serif" font-size="14" lengthAdjust="spacing" textLength="165.375" x="939.5" y="472.1985">parent = EquipmentDevice</text></g><g class="entity" data-entity="BodyStructureFindingSite" data-source-line="27" data-uid="ent0014" id="entity_BodyStructureFindingSite"><rect fill="#F1F1F1" height="105.1055" rx="2.5" ry="2.5" style="stroke:#181818;stroke-width:0.5;" width="332.2295" x="871" y="514.47"/><text fill="#000000" font-family="sans-serif" font-size="14" lengthAdjust="spacing" textLength="263.792" x="905.2188" y="531.5774">Body Structure - BodyStructureFindingSite</text><line style="stroke:#181818;stroke-width:0.5;" x1="872" x2="1202.2295" y1="537.0911" y2="537.0911"/><text fill="#000000" font-family="sans-serif" font-size="14" lengthAdjust="spacing" textLength="269.6025" x="877" y="556.1985">identifier = TrackingID and / or TrackingUID</text><text fill="#000000" font-family="sans-serif" font-size="14" lengthAdjust="spacing" textLength="257.1885" x="877" y="574.8196">includedStructure.structure = Finding Site</text><text fill="#000000" font-family="sans-serif" font-size="14" lengthAdjust="spacing" textLength="237.7334" x="877" y="593.4407">includedStrucutre.laterality = Laterality</text><text fill="#000000" font-family="sans-serif" font-size="14" lengthAdjust="spacing" textLength="320.2295" x="877" y="612.0618">includedStructure.qualifier = Topographical modifier</text></g><g class="entity" data-entity="ImagingSelection" data-source-line="34" data-uid="ent0015" id="entity_ImagingSelection"><rect fill="#F1F1F1" height="105.1055" rx="2.5" ry="2.5" style="stroke:#181818;stroke-width:0.5;" width="241.1885" x="916.5" y="797.47"/><text fill="#000000" font-family="sans-serif" font-size="14" lengthAdjust="spacing" textLength="107.3994" x="983.3945" y="814.5774">ImagingSelection</text><line style="stroke:#181818;stroke-width:0.5;" x1="917.5" x2="1156.6885" y1="820.0911" y2="820.0911"/><text fill="#000000" font-family="sans-serif" font-size="14" lengthAdjust="spacing" textLength="103.8994" x="922.5" y="839.1985">subject = Patient</text><text fill="#000000" font-family="sans-serif" font-size="14" lengthAdjust="spacing" textLength="180.1406" x="922.5" y="857.8196">derivedFrom = ImagingStudy</text><text fill="#000000" font-family="sans-serif" font-size="14" lengthAdjust="spacing" textLength="171.6025" x="922.5" y="876.4407">basedOn = ServiceRequest</text><text fill="#000000" font-family="sans-serif" font-size="14" lengthAdjust="spacing" textLength="229.1885" x="922.5" y="895.0618">bodySite = BodyStructureFindingSite</text></g><g class="entity" data-entity="imagingMeasurementGroup" data-source-line="41" data-uid="ent0016" id="entity_imagingMeasurementGroup"><rect fill="#F1F1F1" height="216.832" rx="2.5" ry="2.5" style="stroke:#181818;stroke-width:0.5;" width="413.7617" x="1362" y="458.47"/><text fill="#000000" font-family="sans-serif" font-size="14" lengthAdjust="spacing" textLength="270.0127" x="1433.8745" y="475.5774">Observation - Imaging Measurement Group</text><line style="stroke:#181818;stroke-width:0.5;" x1="1363" x2="1774.7617" y1="481.0911" y2="481.0911"/><text fill="#000000" font-family="sans-serif" font-size="14" lengthAdjust="spacing" textLength="103.8994" x="1368" y="500.1985">subject = Patient</text><text fill="#000000" font-family="sans-serif" font-size="14" lengthAdjust="spacing" textLength="140.4648" x="1368" y="518.8196">partOf = ImagingStudy</text><text fill="#000000" font-family="sans-serif" font-size="14" lengthAdjust="spacing" textLength="171.6025" x="1368" y="537.4407">basedOn = ServiceRequest</text><text fill="#000000" font-family="sans-serif" font-size="14" lengthAdjust="spacing" textLength="324.1123" x="1368" y="556.0618">device = EquipmentDevice or AlgorithmIdentification</text><text fill="#000000" font-family="sans-serif" font-size="14" lengthAdjust="spacing" textLength="201.9336" x="1368" y="574.6829">derivedFrom = ImagingSelection</text><text fill="#000000" font-family="sans-serif" font-size="14" lengthAdjust="spacing" textLength="261.8643" x="1368" y="593.304">bodyStructure = BodyStructureFindingSite</text><text fill="#000000" font-family="sans-serif" font-size="14" lengthAdjust="spacing" textLength="401.7617" x="1368" y="611.9251">code = Finding Category or DCM#125007 "Measurement Group"</text><text fill="#000000" font-family="sans-serif" font-size="14" lengthAdjust="spacing" textLength="198.8301" x="1368" y="630.5462">method = Measurement Method</text><text fill="#000000" font-family="sans-serif" font-size="14" lengthAdjust="spacing" textLength="207.4229" x="1368" y="649.1673">valueCodeableConcept = Finding</text><text fill="#000000" font-family="sans-serif" font-size="14" lengthAdjust="spacing" textLength="225.2715" x="1368" y="667.7884">hasMember = ImagingMeasurement</text></g><g class="entity" data-entity="imagingMeasurementMap" data-source-line="54" data-uid="ent0017" id="entity_imagingMeasurementMap"><rect fill="#F1F1F1" height="158.3477" rx="2.5" ry="2.5" style="stroke:#181818;stroke-width:0.5;" width="374.8467" x="850" y="161.97"/><a href="mapping.html#imaging-measurement-mapping" target="_top" title="mapping.html#imaging-measurement-mapping" xlink:actuate="onRequest" xlink:href="mapping.html#imaging-measurement-mapping" xlink:show="new" xlink:title="mapping.html#imaging-measurement-mapping" xlink:type="simple"><text fill="#0000FF" font-family="sans-serif" font-size="14" lengthAdjust="spacing" text-decoration="underline" textLength="196.8818" x="938.9824" y="179.0774">Imaging Measurement Mapping</text></a><line style="stroke:#181818;stroke-width:1;" x1="850" x2="1224.8467" y1="184.5911" y2="184.5911"/><text fill="#000000" font-family="sans-serif" font-size="14" lengthAdjust="spacing" textLength="44.3584" x="876.3999" y="201.6985">subject</text><text fill="#000000" font-family="sans-serif" font-size="14" lengthAdjust="spacing" textLength="43.5859" x="952.1582" y="201.6985">Patient</text><line style="stroke:#181818;stroke-width:1;" x1="947.1582" x2="947.1582" y1="184.5911" y2="207.2122"/><line style="stroke:#181818;stroke-width:1;" x1="850" x2="1224.8467" y1="207.2122" y2="207.2122"/><text fill="#000000" font-family="sans-serif" font-size="14" lengthAdjust="spacing" textLength="38.9033" x="879.1274" y="224.3196">partOf</text><text fill="#000000" font-family="sans-serif" font-size="14" lengthAdjust="spacing" textLength="85.6064" x="952.1582" y="224.3196">ImagingStudy</text><line style="stroke:#181818;stroke-width:1;" x1="947.1582" x2="947.1582" y1="207.2122" y2="229.8333"/><line style="stroke:#181818;stroke-width:1;" x1="850" x2="1224.8467" y1="229.8333" y2="229.8333"/><text fill="#000000" font-family="sans-serif" font-size="14" lengthAdjust="spacing" textLength="56.8203" x="870.1689" y="246.9407">basedOn</text><text fill="#000000" font-family="sans-serif" font-size="14" lengthAdjust="spacing" textLength="98.8271" x="952.1582" y="246.9407">ServiceRequest</text><line style="stroke:#181818;stroke-width:1;" x1="947.1582" x2="947.1582" y1="229.8333" y2="252.4544"/><line style="stroke:#181818;stroke-width:1;" x1="850" x2="1224.8467" y1="252.4544" y2="252.4544"/><text fill="#000000" font-family="sans-serif" font-size="14" lengthAdjust="spacing" textLength="78.5791" x="859.2896" y="269.5618">derivedFrom</text><text fill="#000000" font-family="sans-serif" font-size="14" lengthAdjust="spacing" textLength="107.3994" x="952.1582" y="269.5618">ImagingSelection</text><line style="stroke:#181818;stroke-width:1;" x1="947.1582" x2="947.1582" y1="252.4544" y2="275.0755"/><line style="stroke:#181818;stroke-width:1;" x1="850" x2="1224.8467" y1="275.0755" y2="275.0755"/><text fill="#000000" font-family="sans-serif" font-size="14" lengthAdjust="spacing" textLength="87.1582" x="855" y="292.1829">bodyStructure</text><text fill="#000000" font-family="sans-serif" font-size="14" lengthAdjust="spacing" textLength="158.751" x="952.1582" y="292.1829">BodyStructureFindingSite</text><line style="stroke:#181818;stroke-width:1;" x1="947.1582" x2="947.1582" y1="275.0755" y2="297.6966"/><line style="stroke:#181818;stroke-width:1;" x1="850" x2="1224.8467" y1="297.6966" y2="297.6966"/><text fill="#000000" font-family="sans-serif" font-size="14" lengthAdjust="spacing" textLength="40.4688" x="878.3447" y="314.804">device</text><text fill="#000000" font-family="sans-serif" font-size="14" lengthAdjust="spacing" textLength="267.6885" x="952.1582" y="314.804">AlgorithmIdentification or EquipmentDevice</text><line style="stroke:#181818;stroke-width:1;" x1="947.1582" x2="947.1582" y1="297.6966" y2="320.3177"/></g><!--link algorithm to AlgorithmIdentification--><g class="link" data-entity-1="algorithm" data-entity-2="AlgorithmIdentification" data-source-line="63" data-uid="lnk18" id="link_algorithm_AlgorithmIdentification"><path codeLine="63" d="M263.12,480.42 C304.08,480.63 355.27,480.86 401,480.97 C583.67,481.4 629.64,491.52 812,480.97 C851.77,478.67 889.3549,474.8228 927.3849,470.1428" fill="none" id="algorithm-to-AlgorithmIdentification" style="stroke:#181818;stroke-width:1;"/><polygon fill="#181818" points="933.34,469.41,923.9188,466.5392,928.3774,470.0207,924.8959,474.4793,933.34,469.41" style="stroke:#181818;stroke-width:1;"/><text fill="#000000" font-family="sans-serif" font-size="13" lengthAdjust="spacing" textLength="409.6904" x="402" y="476.9983">Create AlgorithmIdentification from Algorithm Identification content item</text></g><!--link tracking to BodyStructureFindingSite--><g class="link" data-entity-1="tracking" data-entity-2="BodyStructureFindingSite" data-source-line="64" data-uid="lnk19" id="link_tracking_BodyStructureFindingSite"><path codeLine="64" d="M265.58,555.19 C403.32,557.29 682.8507,561.5681 864.9707,564.3581" fill="none" id="tracking-to-BodyStructureFindingSite" style="stroke:#181818;stroke-width:1;"/><polygon fill="#181818" points="870.97,564.45,862.0323,560.3126,865.9706,564.3734,861.9098,568.3117,870.97,564.45" style="stroke:#181818;stroke-width:1;"/><text fill="#000000" font-family="sans-serif" font-size="13" lengthAdjust="spacing" textLength="378.6187" x="417.5" y="552.9983">Create BodyStructure reference including Tracking Identifier / UID</text></g><!--link findingSite to BodyStructureFindingSite--><g class="link" data-entity-1="findingSite" data-entity-2="BodyStructureFindingSite" data-source-line="65" data-uid="lnk20" id="link_findingSite_BodyStructureFindingSite"><path codeLine="65" d="M229.3,625.97 C331.06,621.12 593.33,607.83 812,589.97 C831.09,588.41 845.1073,587.1817 864.9573,585.2817" fill="none" id="findingSite-to-BodyStructureFindingSite" style="stroke:#181818;stroke-width:1;"/><polygon fill="#181818" points="870.93,584.71,861.5898,581.5857,865.9527,585.1864,862.3521,589.5493,870.93,584.71" style="stroke:#181818;stroke-width:1;"/><text fill="#000000" font-family="sans-serif" font-size="13" lengthAdjust="spacing" textLength="226.8779" x="493.5" y="585.9983">Create BodyStructure from Finding Site</text></g><!--link imageRegion to ImagingSelection--><g class="link" data-entity-1="imageRegion" data-entity-2="ImagingSelection" data-source-line="66" data-uid="lnk21" id="link_imageRegion_ImagingSelection"><path codeLine="66" d="M273.76,849.97 C426.89,849.97 737.02,849.97 910.17,849.97" fill="none" id="imageRegion-to-ImagingSelection" style="stroke:#181818;stroke-width:1;"/><polygon fill="#181818" points="916.17,849.97,907.17,845.97,911.17,849.97,907.17,853.97,916.17,849.97" style="stroke:#181818;stroke-width:1;"/><text fill="#000000" font-family="sans-serif" font-size="13" lengthAdjust="spacing" textLength="324.4414" x="444.5" y="845.9983">Create ImagingSelection from image reference or region</text></g><!--link inputs to imagingMeasurementGroup--><g class="link" data-entity-1="inputs" data-entity-2="imagingMeasurementGroup" data-source-line="68" data-uid="lnk22" id="link_inputs_imagingMeasurementGroup"><path codeLine="68" d="M371.13,103.66 C589.03,54.87 956.11,6 1232,139.97 C1367.13,205.59 1461.3811,349.4923 1515.4211,452.9023" fill="none" id="inputs-to-imagingMeasurementGroup" style="stroke:#181818;stroke-width:1;"/><polygon fill="#181818" points="1518.2,458.22,1517.5768,448.3909,1515.8842,453.7886,1510.4865,452.0961,1518.2,458.22" style="stroke:#181818;stroke-width:1;"/></g><!--link AlgorithmIdentification to imagingMeasurementGroup--><g class="link" data-entity-1="AlgorithmIdentification" data-entity-2="imagingMeasurementGroup" data-source-line="69" data-uid="lnk23" id="link_AlgorithmIdentification_imagingMeasurementGroup"><path codeLine="69" d="M1140.5,476.63 C1203.32,489.91 1280.1098,506.1289 1355.9798,522.1689" fill="none" id="AlgorithmIdentification-to-imagingMeasurementGroup" style="stroke:#181818;stroke-width:1;"/><polygon fill="#181818" points="1361.85,523.41,1353.872,517.6349,1356.9581,522.3758,1352.2173,525.4619,1361.85,523.41" style="stroke:#181818;stroke-width:1;"/></g><!--link finding to imagingMeasurementGroup--><g class="link" data-entity-1="finding" data-entity-2="imagingMeasurementGroup" data-source-line="70" data-uid="lnk24" id="link_finding_imagingMeasurementGroup"><path codeLine="70" d="M215.27,701.69 C339.06,700.16 831.68,690.83 1232,636.97 C1274.22,631.29 1313.1862,624.4951 1355.8962,615.9651" fill="none" id="finding-to-imagingMeasurementGroup" style="stroke:#181818;stroke-width:1;"/><polygon fill="#181818" points="1361.78,614.79,1352.1709,612.6301,1356.8768,615.7693,1353.7377,620.4752,1361.78,614.79" style="stroke:#181818;stroke-width:1;"/></g><!--link findingCategory to imagingMeasurementGroup--><g class="link" data-entity-1="findingCategory" data-entity-2="imagingMeasurementGroup" data-source-line="71" data-uid="lnk25" id="link_findingCategory_imagingMeasurementGroup"><path codeLine="71" d="M245.73,775.72 C406.82,773.97 862.95,761.85 1232,682.97 C1274.7,673.85 1313.7603,662.7744 1356.1803,648.8244" fill="none" id="findingCategory-to-imagingMeasurementGroup" style="stroke:#181818;stroke-width:1;"/><polygon fill="#181818" points="1361.88,646.95,1352.0808,645.9618,1357.1302,648.512,1354.58,653.5614,1361.88,646.95" style="stroke:#181818;stroke-width:1;"/></g><!--link BodyStructureFindingSite to imagingMeasurementGroup--><g class="link" data-entity-1="BodyStructureFindingSite" data-entity-2="imagingMeasurementGroup" data-source-line="72" data-uid="lnk26" id="link_BodyStructureFindingSite_imagingMeasurementGroup"><path codeLine="72" d="M1203.15,566.97 C1253.43,566.97 1303.33,566.97 1355.95,566.97" fill="none" id="BodyStructureFindingSite-to-imagingMeasurementGroup" style="stroke:#181818;stroke-width:1;"/><polygon fill="#181818" points="1361.95,566.97,1352.95,562.97,1356.95,566.97,1352.95,570.97,1361.95,566.97" style="stroke:#181818;stroke-width:1;"/></g><!--link ImagingSelection to imagingMeasurementGroup--><g class="link" data-entity-1="ImagingSelection" data-entity-2="imagingMeasurementGroup" data-source-line="73" data-uid="lnk27" id="link_ImagingSelection_imagingMeasurementGroup"><path codeLine="73" d="M1157.7,830.02 C1212.92,817.7 1278.04,798.62 1332,769.97 C1378.54,745.26 1419.3897,713.9321 1457.6797,679.6521" fill="none" id="ImagingSelection-to-imagingMeasurementGroup" style="stroke:#181818;stroke-width:1;"/><polygon fill="#181818" points="1462.15,675.65,1452.7765,678.673,1458.4248,678.9851,1458.1127,684.6333,1462.15,675.65" style="stroke:#181818;stroke-width:1;"/></g><!--link measurementGroup to imagingMeasurementGroup--><g class="link" data-entity-1="measurementGroup" data-entity-2="imagingMeasurementGroup" data-source-line="74" data-uid="lnk28" id="link_measurementGroup_imagingMeasurementGroup"><path codeLine="74" d="M318.7132,314.9607 C319.8119,314.9613 320.9163,314.9622 322.0264,314.9635 C324.2467,314.9661 326.4895,314.9703 328.7547,314.9761 C333.2851,314.9876 337.9048,315.0056 342.6111,315.0307 C361.4361,315.1308 381.6458,315.344 403.064,315.7105 C445.9004,316.4435 493.5709,317.7897 544.6663,320.0713 C749.0475,329.1975 1008.225,353.29 1232,412.97 C1275.25,424.51 1314.3619,438.8107 1356.4019,456.9707" fill="none" id="measurementGroup-to-imagingMeasurementGroup" style="stroke:#181818;stroke-width:1;"/><polygon fill="#181818" points="1361.91,459.35,1355.2341,452.109,1357.3199,457.3672,1352.0617,459.4531,1361.91,459.35" style="stroke:#181818;stroke-width:1;"/></g><!--link method to imagingMeasurementGroup--><g class="link" data-entity-1="method" data-entity-2="imagingMeasurementGroup" data-source-line="75" data-uid="lnk29" id="link_method_imagingMeasurementGroup"><path codeLine="75" d="M260.04,942.67 C436.93,983.41 894.5,1065.43 1232,919.97 C1347.19,870.32 1438.2043,764.712 1497.3043,680.462" fill="none" id="method-to-imagingMeasurementGroup" style="stroke:#181818;stroke-width:1;"/><polygon fill="#181818" points="1500.75,675.55,1492.3069,680.6208,1497.8786,679.6433,1498.8561,685.2151,1500.75,675.55" style="stroke:#181818;stroke-width:1;"/></g><!--link inputs to imagingMeasurementMap--><g class="link" data-entity-1="inputs" data-entity-2="imagingMeasurementMap" data-source-line="77" data-uid="lnk30" id="link_inputs_imagingMeasurementMap"><path codeLine="77" d="M371.22,172.93 C510.43,187.18 694.6712,206.0392 835.9712,220.4992" fill="none" id="inputs-to-imagingMeasurementMap" style="stroke:#181818;stroke-width:1;"/><polygon fill="#181818" points="841.94,221.11,833.394,216.2145,836.966,220.601,832.5795,224.173,841.94,221.11" style="stroke:#181818;stroke-width:1;"/></g><!--link measurement to imagingMeasurementMap--><g class="link" data-entity-1="measurement" data-entity-2="imagingMeasurementMap" data-source-line="78" data-uid="lnk31" id="link_measurement_imagingMeasurementMap"><path codeLine="78" d="M268.17,396.74 C300.33,392.76 337.48,387.69 371,381.97 C530.38,354.78 703.7777,317.6332 835.9777,287.7432" fill="none" id="measurement-to-imagingMeasurementMap" style="stroke:#181818;stroke-width:1;"/><polygon fill="#181818" points="841.83,286.42,832.1695,284.5033,836.9531,287.5227,833.9337,292.3063,841.83,286.42" style="stroke:#181818;stroke-width:1;"/><text fill="#000000" font-family="sans-serif" font-size="13" lengthAdjust="spacing" textLength="398.8423" x="407.5" y="291.9983">Map numerical measurements to ImagingMeasurement Observations</text></g><!--reverse link imagingMeasurementMap to imagingMeasurementGroup--><g class="link" data-entity-1="imagingMeasurementMap" data-entity-2="imagingMeasurementGroup" data-source-line="79" data-uid="lnk32" id="link_imagingMeasurementMap_imagingMeasurementGroup"><path codeLine="79" d="M1237.932,303.8749 C1272.222,317.9249 1301.21,332.11 1332,350.97 C1380.19,380.49 1427.36,420.67 1466.7,458.37" fill="none" id="imagingMeasurementMap-backto-imagingMeasurementGroup" style="stroke:#181818;stroke-width:1;"/><polygon fill="#181818" points="1232.38,301.6,1239.1914,308.7137,1237.0067,303.4957,1242.2246,301.311,1232.38,301.6" style="stroke:#181818;stroke-width:1;"/><text fill="#000000" font-family="sans-serif" font-size="13" lengthAdjust="spacing" textLength="68.6372" x="1263" y="311.9983">hasMember</text></g><!--SRC=[dLR1Rjim3BtxAuZqxAuRC0mebW1RiWu1bdLejbFHWs8fYJRRScMvG33qtqTAbgF4bX4i5ySYdqYzHv7EnTQ0KQ3bRc-0Ioqo8rMP90MhOFBuY8zAbhlhlIdoArcm7RwaXM1reqKXIbEdcIeDawNGQUiBox9gJ0rRhGfOEWYi0WZCFGHM3lBqD05MWtJ0lma0rCtcD-O2qndyO4OYZbOhfitzbXRRZTUcuGUoR5Wj-7r9fhNGBp8J3-Av4RM5SK4BPFlotCYAibZOfUGrIIgM_M4x0PEJ7BzgrLGsg-2qTj7bfrnwaq_vJcbfzdXKZXvoApD635eeyyOGyLDZGCjJ2q0Uti2lvS92J6iD4NUovBXaxLltVy0CSsO4nZk4Vdvjo7yjZGXzwJtq8ue5F8WT7WSpV11ReKMPEGpLWd2s41DmY9gRlU8jX_JNATYo_RqfX4QoyfFQc3Xsk_q6lSvb8SGhIUbHJbn8eLDdG9o8hKq0AutEC1sg61_ci-87M1lTP0OpmN2qqBtV7LcryMB6Dg0yLiCKV8qi5y1AZkGhtQrXfJX0cUKD5xpRyxhkKfb2A7BVlJ7edcDjQ9PBSq3_RzrBPFFd1gq-FLMfdMRLtYfJA6uD0JN-TehSzPFsZ11UxF1Usnz7fLy4lwE-CUrTSFlhRld09NSEH3AHEeto7Ifulwbn7wTxEjIiWZxGTh_LO3k87Cltg_vfHa_Y-zLvyL4PHCesYJFeHKWwWe8wYR94pfdYOItvPa9fBEQhgxVltj_SV3Yzz8ulYtQN7l7zfc3jBonln1n3i4sEJ-mibJb6iovxLgz4iR55j-pnJqfUEAUEmsb0uxCfr8k3zdELPuCopqPqdWqB7GWskqYnsRXanr4Nwsyeta1FwqOLf6aKUmjpBR08edlRcHyRYK2V2iGtvbeaVj3PUB4ZTG5F743xKTJsATecEbQJOBpzJp1xffDs6im-k-6vRDr6lJPezxBmu0meY7Q3D6c_W6ZJIBj9OjIFOLe6Bl7fxlYORtIKZO5wP8mvzpwwnfrjenbp6MSMBtWOCUvrIxq2okwZ9FmIfi_eVe-2OCJKoN1l-PYciSHlZotm7m00]--></g></svg>