<svg xmlns="http://www.w3.org/2000/svg" xmlns:xlink="http://www.w3.org/1999/xlink" contentStyleType="text/css" data-diagram-type="CLASS" height="810px" preserveAspectRatio="none" style="width:1552px;height:810px;background:#FFFFFF;" version="1.1" viewBox="0 0 1552 810" width="1552px" zoomAndPan="magnify"><defs/><g><!--cluster measurementReport--><g class="cluster" data-entity="measurementReport" data-source-line="5" data-uid="ent0002" id="cluster_measurementReport"><path d="M8.5,6.0137 L222.6445,6.0137 A3.75,3.75 0 0 1 225.1445,8.5137 L232.1445,30.6348 L450.5,30.6348 A2.5,2.5 0 0 1 453,33.1348 L453,800.5137 A2.5,2.5 0 0 1 450.5,803.0137 L8.5,803.0137 A2.5,2.5 0 0 1 6,800.5137 L6,8.5137 A2.5,2.5 0 0 1 8.5,6.0137" fill="none" style="stroke:#000000;stroke-width:1.5;"/><line style="stroke:#000000;stroke-width:1.5;" x1="6" x2="232.1445" y1="30.6348" y2="30.6348"/><text fill="#000000" font-family="sans-serif" font-size="14" font-weight="bold" lengthAdjust="spacing" textLength="213.1445" x="10" y="23.1211">DICOM SR Measurement Report</text></g><!--cluster documentIE--><g class="cluster" data-entity="documentIE" data-source-line="6" data-uid="ent0003" id="cluster_documentIE"><path d="M32.5,51.0137 L119.0654,51.0137 A3.75,3.75 0 0 1 121.5654,53.5137 L128.5654,75.6348 L426.5,75.6348 A2.5,2.5 0 0 1 429,78.1348 L429,776.5137 A2.5,2.5 0 0 1 426.5,779.0137 L32.5,779.0137 A2.5,2.5 0 0 1 30,776.5137 L30,53.5137 A2.5,2.5 0 0 1 32.5,51.0137" fill="none" style="stroke:#000000;stroke-width:1.5;"/><line style="stroke:#000000;stroke-width:1.5;" x1="30" x2="128.5654" y1="75.6348" y2="75.6348"/><text fill="#000000" font-family="sans-serif" font-size="14" font-weight="bold" lengthAdjust="spacing" textLength="85.5654" x="34" y="68.1211">Document IE</text></g><!--cluster srContentSequence--><g class="cluster" data-entity="srContentSequence" data-source-line="7" data-uid="ent0004" id="cluster_srContentSequence"><path d="M56.5,96.0137 L203.7412,96.0137 A3.75,3.75 0 0 1 206.2412,98.5137 L213.2412,120.6348 L402.5,120.6348 A2.5,2.5 0 0 1 405,123.1348 L405,752.5137 A2.5,2.5 0 0 1 402.5,755.0137 L56.5,755.0137 A2.5,2.5 0 0 1 54,752.5137 L54,98.5137 A2.5,2.5 0 0 1 56.5,96.0137" fill="none" style="stroke:#000000;stroke-width:1.5;"/><line style="stroke:#000000;stroke-width:1.5;" x1="54" x2="213.2412" y1="120.6348" y2="120.6348"/><text fill="#000000" font-family="sans-serif" font-size="14" font-weight="bold" lengthAdjust="spacing" textLength="146.2412" x="58" y="113.1211">SR Content Sequence</text></g><!--cluster imagingMeasurementsContainer--><g class="cluster" data-entity="imagingMeasurementsContainer" data-source-line="8" data-uid="ent0005" id="cluster_imagingMeasurementsContainer"><path d="M80.5,141.0137 L306.3271,141.0137 A3.75,3.75 0 0 1 308.8271,143.5137 L315.8271,165.6348 L378.5,165.6348 A2.5,2.5 0 0 1 381,168.1348 L381,425.5137 A2.5,2.5 0 0 1 378.5,428.0137 L80.5,428.0137 A2.5,2.5 0 0 1 78,425.5137 L78,143.5137 A2.5,2.5 0 0 1 80.5,141.0137" fill="none" style="stroke:#000000;stroke-width:1.5;"/><line style="stroke:#000000;stroke-width:1.5;" x1="78" x2="315.8271" y1="165.6348" y2="165.6348"/><text fill="#000000" font-family="sans-serif" font-size="14" font-weight="bold" lengthAdjust="spacing" textLength="224.8271" x="82" y="158.1211">Imaging Measurements Container</text></g><!--cluster measurementsGroup--><g class="cluster" data-entity="measurementsGroup" data-source-line="9" data-uid="ent0006" id="cluster_measurementsGroup"><path d="M112.5,194.0137 L282.3271,194.0137 A3.75,3.75 0 0 1 284.8271,196.5137 L291.8271,218.6348 L346.5,218.6348 A2.5,2.5 0 0 1 349,221.1348 L349,393.5137 A2.5,2.5 0 0 1 346.5,396.0137 L112.5,396.0137 A2.5,2.5 0 0 1 110,393.5137 L110,196.5137 A2.5,2.5 0 0 1 112.5,194.0137" fill="none" style="stroke:#000000;stroke-width:1.5;"/><line style="stroke:#000000;stroke-width:1.5;" x1="110" x2="291.8271" y1="218.6348" y2="218.6348"/><text fill="#000000" font-family="sans-serif" font-size="14" font-weight="bold" lengthAdjust="spacing" textLength="168.8271" x="114" y="211.1211">0..* Measurements Group</text></g><!--cluster derivedImagingMeasurementsContainer--><g class="cluster" data-entity="derivedImagingMeasurementsContainer" data-source-line="14" data-uid="ent0009" id="cluster_derivedImagingMeasurementsContainer"><path d="M83,452.0137 L356.2891,452.0137 A3.75,3.75 0 0 1 358.7891,454.5137 L365.7891,476.6348 L377,476.6348 A2.5,2.5 0 0 1 379.5,479.1348 L379.5,611.5137 A2.5,2.5 0 0 1 377,614.0137 L83,614.0137 A2.5,2.5 0 0 1 80.5,611.5137 L80.5,454.5137 A2.5,2.5 0 0 1 83,452.0137" fill="none" style="stroke:#000000;stroke-width:1.5;"/><line style="stroke:#000000;stroke-width:1.5;" x1="80.5" x2="365.7891" y1="476.6348" y2="476.6348"/><text fill="#000000" font-family="sans-serif" font-size="14" font-weight="bold" lengthAdjust="spacing" textLength="272.2891" x="84.5" y="469.1211">Derived Imaging Measurments Container</text></g><!--cluster derivedImagingMeasurements--><g class="cluster" data-entity="derivedImagingMeasurements" data-source-line="15" data-uid="ent0010" id="cluster_derivedImagingMeasurements"><path d="M107,497.0137 L343.751,497.0137 A3.75,3.75 0 0 1 346.251,499.5137 L353.251,521.6348 L353,521.6348 A2.5,2.5 0 0 1 355.5,524.1348 L355.5,587.5137 A2.5,2.5 0 0 1 353,590.0137 L107,590.0137 A2.5,2.5 0 0 1 104.5,587.5137 L104.5,499.5137 A2.5,2.5 0 0 1 107,497.0137" fill="none" style="stroke:#000000;stroke-width:1.5;"/><line style="stroke:#000000;stroke-width:1.5;" x1="104.5" x2="353.251" y1="521.6348" y2="521.6348"/><text fill="#000000" font-family="sans-serif" font-size="14" font-weight="bold" lengthAdjust="spacing" textLength="235.751" x="108.5" y="514.1211">0..* Derived Imaging Measurements</text></g><!--cluster imagingQualitativeEvaluationsContainer--><g class="cluster" data-entity="imagingQualitativeEvaluationsContainer" data-source-line="19" data-uid="ent0012" id="cluster_imagingQualitativeEvaluationsContainer"><path d="M113,638.0137 L337.2754,638.0137 A3.75,3.75 0 0 1 339.7754,640.5137 L346.7754,662.6348 L347,662.6348 A2.5,2.5 0 0 1 349.5,665.1348 L349.5,728.5137 A2.5,2.5 0 0 1 347,731.0137 L113,731.0137 A2.5,2.5 0 0 1 110.5,728.5137 L110.5,640.5137 A2.5,2.5 0 0 1 113,638.0137" fill="none" style="stroke:#000000;stroke-width:1.5;"/><line style="stroke:#000000;stroke-width:1.5;" x1="110.5" x2="346.7754" y1="662.6348" y2="662.6348"/><text fill="#000000" font-family="sans-serif" font-size="14" font-weight="bold" lengthAdjust="spacing" textLength="223.2754" x="114.5" y="655.1211">Qualitative Evaluations Container</text></g><g class="entity" data-entity="numericalMeasurement" data-source-line="10" data-uid="ent0007" id="entity_numericalMeasurement"><rect fill="#F1F1F1" height="38.6211" rx="2.5" ry="2.5" style="stroke:#181818;stroke-width:0.5;" width="191.3994" x="134" y="239.5137"/><text fill="#000000" font-family="sans-serif" font-size="14" lengthAdjust="spacing" textLength="177.3994" x="141" y="256.6211">0..* Numerical Measurement</text><line style="stroke:#181818;stroke-width:0.5;" x1="135" x2="324.3994" y1="262.1348" y2="262.1348"/></g><g class="entity" data-entity="measurementGroupQualitativeEvaluation" data-source-line="11" data-uid="ent0008" id="entity_measurementGroupQualitativeEvaluation"><rect fill="#F1F1F1" height="38.6211" rx="2.5" ry="2.5" style="stroke:#181818;stroke-width:0.5;" width="174.3164" x="142.5" y="313.5137"/><text fill="#000000" font-family="sans-serif" font-size="14" lengthAdjust="spacing" textLength="160.3164" x="149.5" y="330.6211">0..* Qualitative Evaluation</text><line style="stroke:#181818;stroke-width:0.5;" x1="143.5" x2="315.8164" y1="336.1348" y2="336.1348"/></g><g class="entity" data-entity="derivedMeasurementsGroup" data-source-line="16" data-uid="ent0011" id="entity_derivedMeasurementsGroup"><rect fill="#F1F1F1" height="38.6211" rx="2.5" ry="2.5" style="stroke:#181818;stroke-width:0.5;" width="174.2959" x="142.5" y="534.5137"/><text fill="#000000" font-family="sans-serif" font-size="14" lengthAdjust="spacing" textLength="160.2959" x="149.5" y="551.6211">0..* Measurements Group</text><line style="stroke:#181818;stroke-width:0.5;" x1="143.5" x2="315.7959" y1="557.1348" y2="557.1348"/></g><g class="entity" data-entity="qualitativeEvaluation" data-source-line="20" data-uid="ent0013" id="entity_qualitativeEvaluation"><rect fill="#F1F1F1" height="38.6211" rx="2.5" ry="2.5" style="stroke:#181818;stroke-width:0.5;" width="174.3164" x="142.5" y="675.5137"/><text fill="#000000" font-family="sans-serif" font-size="14" lengthAdjust="spacing" textLength="160.3164" x="149.5" y="692.6211">0..* Qualitative Evaluation</text><line style="stroke:#181818;stroke-width:0.5;" x1="143.5" x2="315.8164" y1="698.1348" y2="698.1348"/></g><!--class ImagingMeasurementGroup--><g class="entity" data-entity="ImagingMeasurementGroup" data-source-line="26" data-uid="ent0014" id="entity_ImagingMeasurementGroup"><rect fill="#D5E8D4" height="60.582" rx="2.5" ry="2.5" style="stroke:#008000;stroke-width:0.5;" width="214.0889" x="942" y="523.5137"/><ellipse cx="957" cy="545.8047" fill="#ADD1B2" rx="11" ry="11" style="stroke:#181818;stroke-width:1;"/><path d="M959.7656,541.6797 Q959.9219,541.4609 960.1094,541.3516 Q960.2969,541.2422 960.5156,541.2422 Q960.8906,541.2422 961.125,541.5078 Q961.3594,541.7578 961.3594,542.3672 L961.3594,543.8203 Q961.3594,544.4297 961.125,544.6953 Q960.8906,544.9609 960.5156,544.9609 Q960.1719,544.9609 959.9688,544.7578 Q959.7656,544.5703 959.6563,544.0547 Q959.6094,543.6953 959.4219,543.5078 Q959.0938,543.1328 958.4844,542.9141 Q957.875,542.6953 957.25,542.6953 Q956.4844,542.6953 955.8438,543.0234 Q955.2188,543.3516 954.7188,544.1016 Q954.2344,544.8516 954.2344,545.8828 L954.2344,546.9766 Q954.2344,548.2109 955.125,549.0391 Q956.0156,549.8516 957.6094,549.8516 Q958.5469,549.8516 959.2031,549.6016 Q959.5938,549.4453 960.0156,549.0078 Q960.2813,548.7422 960.4219,548.6641 Q960.5781,548.5859 960.7813,548.5859 Q961.1094,548.5859 961.3594,548.8516 Q961.625,549.1016 961.625,549.4453 Q961.625,549.7891 961.2813,550.1953 Q960.7813,550.7734 959.9844,551.1016 Q958.9063,551.5547 957.6094,551.5547 Q956.0938,551.5547 954.8906,550.9297 Q953.9063,550.4297 953.2188,549.3672 Q952.5313,548.2891 952.5313,547.0078 L952.5313,545.8516 Q952.5313,544.5234 953.1406,543.3828 Q953.7656,542.2266 954.8594,541.6172 Q955.9531,540.9922 957.1875,540.9922 Q957.9219,540.9922 958.5625,541.1641 Q959.2188,541.3203 959.7656,541.6797 Z " fill="#000000"/><text fill="#000000" font-family="sans-serif" font-size="12" font-style="italic" lengthAdjust="spacing" textLength="78.0469" x="1023.021" y="541.4629">&#171;Observation&#187;</text><text fill="#000000" font-family="sans-serif" font-size="14" lengthAdjust="spacing" textLength="182.0889" x="971" y="559.582">Imaging Measurement Group</text><line style="stroke:#008000;stroke-width:0.5;" x1="943" x2="1155.0889" y1="568.0957" y2="568.0957"/><line style="stroke:#008000;stroke-width:0.5;" x1="943" x2="1155.0889" y1="576.0957" y2="576.0957"/></g><!--class ImagingMeasurement--><g class="entity" data-entity="ImagingMeasurement" data-source-line="27" data-uid="ent0015" id="entity_ImagingMeasurement"><rect fill="#D5E8D4" height="60.582" rx="2.5" ry="2.5" style="stroke:#008000;stroke-width:0.5;" width="171.2891" x="1349" y="523.5137"/><ellipse cx="1364" cy="545.8047" fill="#ADD1B2" rx="11" ry="11" style="stroke:#181818;stroke-width:1;"/><path d="M1366.7656,541.6797 Q1366.9219,541.4609 1367.1094,541.3516 Q1367.2969,541.2422 1367.5156,541.2422 Q1367.8906,541.2422 1368.125,541.5078 Q1368.3594,541.7578 1368.3594,542.3672 L1368.3594,543.8203 Q1368.3594,544.4297 1368.125,544.6953 Q1367.8906,544.9609 1367.5156,544.9609 Q1367.1719,544.9609 1366.9688,544.7578 Q1366.7656,544.5703 1366.6563,544.0547 Q1366.6094,543.6953 1366.4219,543.5078 Q1366.0938,543.1328 1365.4844,542.9141 Q1364.875,542.6953 1364.25,542.6953 Q1363.4844,542.6953 1362.8438,543.0234 Q1362.2188,543.3516 1361.7188,544.1016 Q1361.2344,544.8516 1361.2344,545.8828 L1361.2344,546.9766 Q1361.2344,548.2109 1362.125,549.0391 Q1363.0156,549.8516 1364.6094,549.8516 Q1365.5469,549.8516 1366.2031,549.6016 Q1366.5938,549.4453 1367.0156,549.0078 Q1367.2813,548.7422 1367.4219,548.6641 Q1367.5781,548.5859 1367.7813,548.5859 Q1368.1094,548.5859 1368.3594,548.8516 Q1368.625,549.1016 1368.625,549.4453 Q1368.625,549.7891 1368.2813,550.1953 Q1367.7813,550.7734 1366.9844,551.1016 Q1365.9063,551.5547 1364.6094,551.5547 Q1363.0938,551.5547 1361.8906,550.9297 Q1360.9063,550.4297 1360.2188,549.3672 Q1359.5313,548.2891 1359.5313,547.0078 L1359.5313,545.8516 Q1359.5313,544.5234 1360.1406,543.3828 Q1360.7656,542.2266 1361.8594,541.6172 Q1362.9531,540.9922 1364.1875,540.9922 Q1364.9219,540.9922 1365.5625,541.1641 Q1366.2188,541.3203 1366.7656,541.6797 Z " fill="#000000"/><text fill="#000000" font-family="sans-serif" font-size="12" font-style="italic" lengthAdjust="spacing" textLength="78.0469" x="1408.6211" y="541.4629">&#171;Observation&#187;</text><text fill="#000000" font-family="sans-serif" font-size="14" lengthAdjust="spacing" textLength="139.2891" x="1378" y="559.582">Imaging Measurement</text><line style="stroke:#008000;stroke-width:0.5;" x1="1350" x2="1519.2891" y1="568.0957" y2="568.0957"/><line style="stroke:#008000;stroke-width:0.5;" x1="1350" x2="1519.2891" y1="576.0957" y2="576.0957"/></g><!--class DerivedImagingMeasurement--><g class="entity" data-entity="DerivedImagingMeasurement" data-source-line="28" data-uid="ent0016" id="entity_DerivedImagingMeasurement"><rect fill="#D5E8D4" height="60.582" rx="2.5" ry="2.5" style="stroke:#008000;stroke-width:0.5;" width="223.4199" x="547" y="523.5137"/><ellipse cx="562" cy="545.8047" fill="#ADD1B2" rx="11" ry="11" style="stroke:#181818;stroke-width:1;"/><path d="M564.7656,541.6797 Q564.9219,541.4609 565.1094,541.3516 Q565.2969,541.2422 565.5156,541.2422 Q565.8906,541.2422 566.125,541.5078 Q566.3594,541.7578 566.3594,542.3672 L566.3594,543.8203 Q566.3594,544.4297 566.125,544.6953 Q565.8906,544.9609 565.5156,544.9609 Q565.1719,544.9609 564.9688,544.7578 Q564.7656,544.5703 564.6563,544.0547 Q564.6094,543.6953 564.4219,543.5078 Q564.0938,543.1328 563.4844,542.9141 Q562.875,542.6953 562.25,542.6953 Q561.4844,542.6953 560.8438,543.0234 Q560.2188,543.3516 559.7188,544.1016 Q559.2344,544.8516 559.2344,545.8828 L559.2344,546.9766 Q559.2344,548.2109 560.125,549.0391 Q561.0156,549.8516 562.6094,549.8516 Q563.5469,549.8516 564.2031,549.6016 Q564.5938,549.4453 565.0156,549.0078 Q565.2813,548.7422 565.4219,548.6641 Q565.5781,548.5859 565.7813,548.5859 Q566.1094,548.5859 566.3594,548.8516 Q566.625,549.1016 566.625,549.4453 Q566.625,549.7891 566.2813,550.1953 Q565.7813,550.7734 564.9844,551.1016 Q563.9063,551.5547 562.6094,551.5547 Q561.0938,551.5547 559.8906,550.9297 Q558.9063,550.4297 558.2188,549.3672 Q557.5313,548.2891 557.5313,547.0078 L557.5313,545.8516 Q557.5313,544.5234 558.1406,543.3828 Q558.7656,542.2266 559.8594,541.6172 Q560.9531,540.9922 562.1875,540.9922 Q562.9219,540.9922 563.5625,541.1641 Q564.2188,541.3203 564.7656,541.6797 Z " fill="#000000"/><text fill="#000000" font-family="sans-serif" font-size="12" font-style="italic" lengthAdjust="spacing" textLength="78.0469" x="632.6865" y="541.4629">&#171;Observation&#187;</text><text fill="#000000" font-family="sans-serif" font-size="14" lengthAdjust="spacing" textLength="191.4199" x="576" y="559.582">Derived Imaging Measurement</text><line style="stroke:#008000;stroke-width:0.5;" x1="548" x2="769.4199" y1="568.0957" y2="568.0957"/><line style="stroke:#008000;stroke-width:0.5;" x1="548" x2="769.4199" y1="576.0957" y2="576.0957"/></g><!--class ImagingQualitativeEvaluation--><g class="entity" data-entity="ImagingQualitativeEvaluation" data-source-line="29" data-uid="ent0017" id="entity_ImagingQualitativeEvaluation"><rect fill="#D5E8D4" height="60.582" rx="2.5" ry="2.5" style="stroke:#008000;stroke-width:0.5;" width="221.1094" x="1324" y="629.5137"/><ellipse cx="1339" cy="651.8047" fill="#ADD1B2" rx="11" ry="11" style="stroke:#181818;stroke-width:1;"/><path d="M1341.7656,647.6797 Q1341.9219,647.4609 1342.1094,647.3516 Q1342.2969,647.2422 1342.5156,647.2422 Q1342.8906,647.2422 1343.125,647.5078 Q1343.3594,647.7578 1343.3594,648.3672 L1343.3594,649.8203 Q1343.3594,650.4297 1343.125,650.6953 Q1342.8906,650.9609 1342.5156,650.9609 Q1342.1719,650.9609 1341.9688,650.7578 Q1341.7656,650.5703 1341.6563,650.0547 Q1341.6094,649.6953 1341.4219,649.5078 Q1341.0938,649.1328 1340.4844,648.9141 Q1339.875,648.6953 1339.25,648.6953 Q1338.4844,648.6953 1337.8438,649.0234 Q1337.2188,649.3516 1336.7188,650.1016 Q1336.2344,650.8516 1336.2344,651.8828 L1336.2344,652.9766 Q1336.2344,654.2109 1337.125,655.0391 Q1338.0156,655.8516 1339.6094,655.8516 Q1340.5469,655.8516 1341.2031,655.6016 Q1341.5938,655.4453 1342.0156,655.0078 Q1342.2813,654.7422 1342.4219,654.6641 Q1342.5781,654.5859 1342.7813,654.5859 Q1343.1094,654.5859 1343.3594,654.8516 Q1343.625,655.1016 1343.625,655.4453 Q1343.625,655.7891 1343.2813,656.1953 Q1342.7813,656.7734 1341.9844,657.1016 Q1340.9063,657.5547 1339.6094,657.5547 Q1338.0938,657.5547 1336.8906,656.9297 Q1335.9063,656.4297 1335.2188,655.3672 Q1334.5313,654.2891 1334.5313,653.0078 L1334.5313,651.8516 Q1334.5313,650.5234 1335.1406,649.3828 Q1335.7656,648.2266 1336.8594,647.6172 Q1337.9531,646.9922 1339.1875,646.9922 Q1339.9219,646.9922 1340.5625,647.1641 Q1341.2188,647.3203 1341.7656,647.6797 Z " fill="#000000"/><text fill="#000000" font-family="sans-serif" font-size="12" font-style="italic" lengthAdjust="spacing" textLength="78.0469" x="1408.5313" y="647.4629">&#171;Observation&#187;</text><text fill="#000000" font-family="sans-serif" font-size="14" lengthAdjust="spacing" textLength="189.1094" x="1353" y="665.582">Imaging Qualitative Evaluation</text><line style="stroke:#008000;stroke-width:0.5;" x1="1325" x2="1544.1094" y1="674.0957" y2="674.0957"/><line style="stroke:#008000;stroke-width:0.5;" x1="1325" x2="1544.1094" y1="682.0957" y2="682.0957"/></g><!--link measurementsGroup to ImagingMeasurementGroup--><g class="link" data-entity-1="measurementsGroup" data-entity-2="ImagingMeasurementGroup" data-source-line="31" data-uid="lnk18" id="link_measurementsGroup_ImagingMeasurementGroup"><path codeLine="31" d="M270.3496,396.1044 C271.4825,396.3344 272.6368,396.5688 273.8123,396.8075 C276.1632,397.2848 278.5986,397.7793 281.1158,398.2905 C291.1844,400.3349 302.5604,402.6449 315.0641,405.1838 C365.0788,415.3396 433.1363,429.1593 507.735,444.3074 C656.9325,474.6037 826.415,509.0196 935.93,531.2596" fill="none" id="measurementsGroup-to-ImagingMeasurementGroup" style="stroke:#181818;stroke-width:1;"/><polygon fill="#181818" points="941.81,532.4537,933.7861,526.7426,936.91,531.4586,932.194,534.5825,941.81,532.4537" style="stroke:#181818;stroke-width:1;"/><text fill="#000000" font-family="sans-serif" font-size="13" lengthAdjust="spacing" textLength="46.2427" x="635.5" y="451.042">maps to</text></g><!--link derivedMeasurementsGroup to DerivedImagingMeasurement--><g class="link" data-entity-1="derivedMeasurementsGroup" data-entity-2="DerivedImagingMeasurement" data-source-line="32" data-uid="lnk19" id="link_derivedMeasurementsGroup_DerivedImagingMeasurement"><path codeLine="32" d="M316.65,554.0137 C382.92,554.0137 468.97,554.0137 540.71,554.0137" fill="none" id="derivedMeasurementsGroup-to-DerivedImagingMeasurement" style="stroke:#181818;stroke-width:1;"/><polygon fill="#181818" points="546.71,554.0137,537.71,550.0137,541.71,554.0137,537.71,558.0137,546.71,554.0137" style="stroke:#181818;stroke-width:1;"/><text fill="#000000" font-family="sans-serif" font-size="13" lengthAdjust="spacing" textLength="46.2427" x="470" y="550.042">maps to</text></g><!--link qualitativeEvaluation to ImagingQualitativeEvaluation--><g class="link" data-entity-1="qualitativeEvaluation" data-entity-2="ImagingQualitativeEvaluation" data-source-line="33" data-uid="lnk20" id="link_qualitativeEvaluation_ImagingQualitativeEvaluation"><path codeLine="33" d="M316.53,692.5137 C530.57,686.2837 1080.7925,670.2782 1317.8725,663.3782" fill="none" id="qualitativeEvaluation-to-ImagingQualitativeEvaluation" style="stroke:#181818;stroke-width:1;"/><polygon fill="#181818" points="1323.87,663.2037,1314.7574,659.4672,1318.8721,663.3491,1314.9902,667.4638,1323.87,663.2037" style="stroke:#181818;stroke-width:1;"/><text fill="#000000" font-family="sans-serif" font-size="13" lengthAdjust="spacing" textLength="46.2427" x="833" y="671.042">maps to</text></g><!--link ImagingMeasurementGroup to ImagingMeasurement--><g class="link" data-entity-1="ImagingMeasurementGroup" data-entity-2="ImagingMeasurement" data-source-line="35" data-uid="lnk21" id="link_ImagingMeasurementGroup_ImagingMeasurement"><path codeLine="35" d="M1156.06,554.0137 C1216.81,554.0137 1285.99,554.0137 1342.76,554.0137" fill="none" id="ImagingMeasurementGroup-to-ImagingMeasurement" style="stroke:#181818;stroke-width:1;"/><polygon fill="#181818" points="1348.76,554.0137,1339.76,550.0137,1343.76,554.0137,1339.76,558.0137,1348.76,554.0137" style="stroke:#181818;stroke-width:1;"/><text fill="#000000" font-family="sans-serif" font-size="13" lengthAdjust="spacing" textLength="106.2217" x="1187" y="550.042">hasMember [0__*]</text></g><!--link ImagingMeasurementGroup to ImagingQualitativeEvaluation--><g class="link" data-entity-1="ImagingMeasurementGroup" data-entity-2="ImagingQualitativeEvaluation" data-source-line="36" data-uid="lnk22" id="link_ImagingMeasurementGroup_ImagingQualitativeEvaluation"><path codeLine="36" d="M1156.06,583.3337 C1208.27,597.7637 1265.3668,613.5453 1318.0468,628.1053" fill="none" id="ImagingMeasurementGroup-to-ImagingQualitativeEvaluation" style="stroke:#181818;stroke-width:1;"/><polygon fill="#181818" points="1323.83,629.7037,1316.2208,623.4506,1319.0107,628.3717,1314.0896,631.1615,1323.83,629.7037" style="stroke:#181818;stroke-width:1;"/><text fill="#000000" font-family="sans-serif" font-size="13" lengthAdjust="spacing" textLength="106.2217" x="1187" y="591.042">hasMember [0__*]</text></g><!--link DerivedImagingMeasurement to ImagingMeasurementGroup--><g class="link" data-entity-1="DerivedImagingMeasurement" data-entity-2="ImagingMeasurementGroup" data-source-line="37" data-uid="lnk23" id="link_DerivedImagingMeasurement_ImagingMeasurementGroup"><path codeLine="37" d="M770.05,554.0137 C823.99,554.0137 882.59,554.0137 935.92,554.0137" fill="none" id="DerivedImagingMeasurement-to-ImagingMeasurementGroup" style="stroke:#181818;stroke-width:1;"/><polygon fill="#181818" points="941.92,554.0137,932.92,550.0137,936.92,554.0137,932.92,558.0137,941.92,554.0137" style="stroke:#181818;stroke-width:1;"/><text fill="#000000" font-family="sans-serif" font-size="13" lengthAdjust="spacing" textLength="110.5508" x="801" y="550.042">derivedFrom [0__*]</text></g><!--SRC=[dPHDJ-Cm48Rl_XKZUaCguW0IGgWNwA8S2e8ULoiqJORWnH_1TWferV- -hXD8qiP9TtDA9kyyCtvd4llALO469QHQ5bgHSaltAGWCfGvLBeYX4FfTyW-kSYResO7JO7Z-uY3ZMnNNYh42qrVC2Ovkaklx1ImVOK5eIqFI4-6H2ctS4Q05sOIhAFnXuAy6eDCo92Npa93LpycyLdRKlj2rLcwhNz9RIIgba6LD7VwAjf8xW4HYxa_MRjS697959h1u9MahlWKxs0xwzEJakCkzDReiTcsm8Te3sbvwzTjRNBFkl166foZQr81JNszQByPv3oKAxj3nDS5yZQB4xJ1t-mljjQIDSg_2XiMVcW7xJjUKGTVvFkEpIfaC-JywWFvo5MQaoY4pYSotXYvsn_n_blKFAhAdlQCQtDX3b-9jT0cQ_gkx3TimbWgqjlTBQncsRt_rMLnTtQyicNMeDPl193kdY-mC9fFS4Aa1U0HxA75WRmBv9hOs_zhoWE79m4H7ox3zVynq5lNv4YGMrl_RMMnrOUhJuwTk0Brh4h87pzC0MAp9QUy1VEOBsWN9bT_kdwTFJyU_3Y74kjXZnSyy7JIqDlA7qR96_GK0]--></g></svg>