<?xml version="1.0" encoding="UTF-8" standalone="no"?><svg xmlns="http://www.w3.org/2000/svg" xmlns:xlink="http://www.w3.org/1999/xlink" contentStyleType="text/css" height="301px" preserveAspectRatio="none" style="width:1690px;height:301px;background:#FFFFFF;" version="1.1" viewBox="0 0 1690 301" width="1690px" zoomAndPan="magnify"><defs/><g><!--MD5=[e0204f941a3444903cfced0c56fac560]
cluster TID.1500.measurement.report--><g id="cluster_TID.1500.measurement.report"><path d="M8.5,6 L215.5,6 A3.75,3.75 0 0 1 218,8.5 L225,29.6094 L335.5,29.6094 A2.5,2.5 0 0 1 338,32.1094 L338,291.5 A2.5,2.5 0 0 1 335.5,294 L8.5,294 A2.5,2.5 0 0 1 6,291.5 L6,8.5 A2.5,2.5 0 0 1 8.5,6 " fill="#EEEEEE" style="stroke:#000000;stroke-width:1.5;"/><line style="stroke:#000000;stroke-width:1.5;" x1="6" x2="225" y1="29.6094" y2="29.6094"/><text fill="#000000" font-family="sans-serif" font-size="14" font-weight="bold" lengthAdjust="spacing" textLength="206" x="10" y="22.5332">TID.1500.measurement.report</text></g><path d="M50,42.5 L280,42.5 A3.75,3.75 0 0 1 282.5,45 L289.5,66.1094 L294,66.1094 A2.5,2.5 0 0 1 296.5,68.6094 L296.5,95.2188 A2.5,2.5 0 0 1 294,97.7188 L50,97.7188 A2.5,2.5 0 0 1 47.5,95.2188 L47.5,45 A2.5,2.5 0 0 1 50,42.5 " fill="#F1F1F1" style="stroke:#181818;stroke-width:0.5;"/><line style="stroke:#181818;stroke-width:0.5;" x1="47.5" x2="289.5" y1="66.1094" y2="66.1094"/><text fill="#000000" font-family="sans-serif" font-size="14" lengthAdjust="spacing" textLength="229" x="51.5" y="59.0332">CONTAINER.imaging.measurements</text><path d="M24.5,132.5 L305.5,132.5 A3.75,3.75 0 0 1 308,135 L315,156.1094 L319.5,156.1094 A2.5,2.5 0 0 1 322,158.6094 L322,185.2188 A2.5,2.5 0 0 1 319.5,187.7188 L24.5,187.7188 A2.5,2.5 0 0 1 22,185.2188 L22,135 A2.5,2.5 0 0 1 24.5,132.5 " fill="#F1F1F1" style="stroke:#181818;stroke-width:0.5;"/><line style="stroke:#181818;stroke-width:0.5;" x1="22" x2="315" y1="156.1094" y2="156.1094"/><text fill="#000000" font-family="sans-serif" font-size="14" lengthAdjust="spacing" textLength="280" x="26" y="149.0332">CONTAINER.derived.imaging.measurements</text><path d="M53,222.5 L277,222.5 A3.75,3.75 0 0 1 279.5,225 L286.5,246.1094 L291,246.1094 A2.5,2.5 0 0 1 293.5,248.6094 L293.5,275.2188 A2.5,2.5 0 0 1 291,277.7188 L53,277.7188 A2.5,2.5 0 0 1 50.5,275.2188 L50.5,225 A2.5,2.5 0 0 1 53,222.5 " fill="#F1F1F1" style="stroke:#181818;stroke-width:0.5;"/><line style="stroke:#181818;stroke-width:0.5;" x1="50.5" x2="286.5" y1="246.1094" y2="246.1094"/><text fill="#000000" font-family="sans-serif" font-size="14" lengthAdjust="spacing" textLength="223" x="54.5" y="239.0332">CONTAINER.qualitative.evaluations</text><!--MD5=[3d7640cd87099f783353155cb7e37f56]
class ImagingMeasurementGroup--><g id="elem_ImagingMeasurementGroup"><rect codeLine="3" fill="#D5E8D4" height="58.7031" id="ImagingMeasurementGroup" rx="2.5" ry="2.5" style="stroke:#008000;stroke-width:0.5;" width="215" x="847" y="104.5"/><ellipse cx="862" cy="125.8516" fill="#ADD1B2" rx="11" ry="11" style="stroke:#181818;stroke-width:1.0;"/><path d="M864,122.3516 Q864.2031,121.8516 864.4375,121.6016 Q864.6719,121.3516 864.9375,121.3516 Q865.4063,121.3516 865.7031,121.6328 Q866,121.9141 866,122.5703 L866,124.1328 Q866,124.7891 865.7188,125.0703 Q865.4375,125.3516 865,125.3516 Q864.6094,125.3516 864.3594,125.1797 Q864.1094,125.0078 864,124.5547 Q863.9531,124.2422 863.7813,124.0703 Q863.4688,123.7422 862.9063,123.5547 Q862.3438,123.3516 861.7813,123.3516 Q861.0781,123.3516 860.4844,123.6328 Q859.9063,123.9141 859.4531,124.5391 Q859,125.1641 859,126.0234 L859,126.9453 Q859,127.9766 859.8438,128.6641 Q860.6875,129.3516 862.1875,129.3516 Q863.0781,129.3516 863.7031,129.1484 Q864.0625,129.0391 864.4688,128.6797 Q864.7344,128.4766 864.875,128.4141 Q865.0156,128.3516 865.1875,128.3516 Q865.5156,128.3516 865.75,128.6172 Q866,128.8672 866,129.2266 Q866,129.5703 865.6563,129.9766 Q865.1563,130.5703 864.3594,130.8984 Q863.3125,131.3516 862.0313,131.3516 Q860.5313,131.3516 859.3281,130.7578 Q858.3594,130.2891 857.6719,129.2734 Q857,128.2578 857,127.0547 L857,125.9609 Q857,124.7109 857.5938,123.6172 Q858.2031,122.5234 859.25,121.9453 Q860.3125,121.3516 861.5,121.3516 Q862.2188,121.3516 862.8438,121.6016 Q863.4688,121.8516 864,122.3516 Z " fill="#000000"/><text fill="#000000" font-family="sans-serif" font-size="12" font-style="italic" lengthAdjust="spacing" textLength="81" x="927" y="121.957">«Observation»</text><text fill="#000000" font-family="sans-serif" font-size="14" lengthAdjust="spacing" textLength="183" x="876" y="139.127">Imaging Measurement Group</text><line style="stroke:#008000;stroke-width:0.5;" x1="848" x2="1061" y1="147.2031" y2="147.2031"/><line style="stroke:#008000;stroke-width:0.5;" x1="848" x2="1061" y1="155.2031" y2="155.2031"/></g><!--MD5=[bb88d34a80cd9044150c6a92244c01f2]
class ImagingMeasurement--><g id="elem_ImagingMeasurement"><rect codeLine="4" fill="#D5E8D4" height="58.7031" id="ImagingMeasurement" rx="2.5" ry="2.5" style="stroke:#008000;stroke-width:0.5;" width="171" x="1226.5" y="110.5"/><ellipse cx="1241.5" cy="131.8516" fill="#ADD1B2" rx="11" ry="11" style="stroke:#181818;stroke-width:1.0;"/><path d="M1243.5,128.3516 Q1243.7031,127.8516 1243.9375,127.6016 Q1244.1719,127.3516 1244.4375,127.3516 Q1244.9063,127.3516 1245.2031,127.6328 Q1245.5,127.9141 1245.5,128.5703 L1245.5,130.1328 Q1245.5,130.7891 1245.2188,131.0703 Q1244.9375,131.3516 1244.5,131.3516 Q1244.1094,131.3516 1243.8594,131.1797 Q1243.6094,131.0078 1243.5,130.5547 Q1243.4531,130.2422 1243.2813,130.0703 Q1242.9688,129.7422 1242.4063,129.5547 Q1241.8438,129.3516 1241.2813,129.3516 Q1240.5781,129.3516 1239.9844,129.6328 Q1239.4063,129.9141 1238.9531,130.5391 Q1238.5,131.1641 1238.5,132.0234 L1238.5,132.9453 Q1238.5,133.9766 1239.3438,134.6641 Q1240.1875,135.3516 1241.6875,135.3516 Q1242.5781,135.3516 1243.2031,135.1484 Q1243.5625,135.0391 1243.9688,134.6797 Q1244.2344,134.4766 1244.375,134.4141 Q1244.5156,134.3516 1244.6875,134.3516 Q1245.0156,134.3516 1245.25,134.6172 Q1245.5,134.8672 1245.5,135.2266 Q1245.5,135.5703 1245.1563,135.9766 Q1244.6563,136.5703 1243.8594,136.8984 Q1242.8125,137.3516 1241.5313,137.3516 Q1240.0313,137.3516 1238.8281,136.7578 Q1237.8594,136.2891 1237.1719,135.2734 Q1236.5,134.2578 1236.5,133.0547 L1236.5,131.9609 Q1236.5,130.7109 1237.0938,129.6172 Q1237.7031,128.5234 1238.75,127.9453 Q1239.8125,127.3516 1241,127.3516 Q1241.7188,127.3516 1242.3438,127.6016 Q1242.9688,127.8516 1243.5,128.3516 Z " fill="#000000"/><text fill="#000000" font-family="sans-serif" font-size="12" font-style="italic" lengthAdjust="spacing" textLength="81" x="1284.5" y="127.957">«Observation»</text><text fill="#000000" font-family="sans-serif" font-size="14" lengthAdjust="spacing" textLength="139" x="1255.5" y="145.127">Imaging Measurement</text><line style="stroke:#008000;stroke-width:0.5;" x1="1227.5" x2="1396.5" y1="153.2031" y2="153.2031"/><line style="stroke:#008000;stroke-width:0.5;" x1="1227.5" x2="1396.5" y1="161.2031" y2="161.2031"/></g><!--MD5=[b7f5dc4932397432e03a5730cc1c43ee]
class DerivedImagingMeasurement--><g id="elem_DerivedImagingMeasurement"><rect codeLine="5" fill="#D5E8D4" height="58.7031" id="DerivedImagingMeasurement" rx="2.5" ry="2.5" style="stroke:#008000;stroke-width:0.5;" width="224" x="463" y="134.5"/><ellipse cx="478" cy="155.8516" fill="#ADD1B2" rx="11" ry="11" style="stroke:#181818;stroke-width:1.0;"/><path d="M480,152.3516 Q480.2031,151.8516 480.4375,151.6016 Q480.6719,151.3516 480.9375,151.3516 Q481.4063,151.3516 481.7031,151.6328 Q482,151.9141 482,152.5703 L482,154.1328 Q482,154.7891 481.7188,155.0703 Q481.4375,155.3516 481,155.3516 Q480.6094,155.3516 480.3594,155.1797 Q480.1094,155.0078 480,154.5547 Q479.9531,154.2422 479.7813,154.0703 Q479.4688,153.7422 478.9063,153.5547 Q478.3438,153.3516 477.7813,153.3516 Q477.0781,153.3516 476.4844,153.6328 Q475.9063,153.9141 475.4531,154.5391 Q475,155.1641 475,156.0234 L475,156.9453 Q475,157.9766 475.8438,158.6641 Q476.6875,159.3516 478.1875,159.3516 Q479.0781,159.3516 479.7031,159.1484 Q480.0625,159.0391 480.4688,158.6797 Q480.7344,158.4766 480.875,158.4141 Q481.0156,158.3516 481.1875,158.3516 Q481.5156,158.3516 481.75,158.6172 Q482,158.8672 482,159.2266 Q482,159.5703 481.6563,159.9766 Q481.1563,160.5703 480.3594,160.8984 Q479.3125,161.3516 478.0313,161.3516 Q476.5313,161.3516 475.3281,160.7578 Q474.3594,160.2891 473.6719,159.2734 Q473,158.2578 473,157.0547 L473,155.9609 Q473,154.7109 473.5938,153.6172 Q474.2031,152.5234 475.25,151.9453 Q476.3125,151.3516 477.5,151.3516 Q478.2188,151.3516 478.8438,151.6016 Q479.4688,151.8516 480,152.3516 Z " fill="#000000"/><text fill="#000000" font-family="sans-serif" font-size="12" font-style="italic" lengthAdjust="spacing" textLength="81" x="547.5" y="151.957">«Observation»</text><text fill="#000000" font-family="sans-serif" font-size="14" lengthAdjust="spacing" textLength="192" x="492" y="169.127">Derived Imaging Measurement</text><line style="stroke:#008000;stroke-width:0.5;" x1="464" x2="686" y1="177.2031" y2="177.2031"/><line style="stroke:#008000;stroke-width:0.5;" x1="464" x2="686" y1="185.2031" y2="185.2031"/></g><!--MD5=[57f4290ba0ded235bd39bc1042cc846f]
class ImagingQualitativeEvaluation--><g id="elem_ImagingQualitativeEvaluation"><rect codeLine="6" fill="#D5E8D4" height="58.7031" id="ImagingQualitativeEvaluation" rx="2.5" ry="2.5" style="stroke:#008000;stroke-width:0.5;" width="222" x="1201" y="209.5"/><ellipse cx="1216" cy="230.8516" fill="#ADD1B2" rx="11" ry="11" style="stroke:#181818;stroke-width:1.0;"/><path d="M1218,227.3516 Q1218.2031,226.8516 1218.4375,226.6016 Q1218.6719,226.3516 1218.9375,226.3516 Q1219.4063,226.3516 1219.7031,226.6328 Q1220,226.9141 1220,227.5703 L1220,229.1328 Q1220,229.7891 1219.7188,230.0703 Q1219.4375,230.3516 1219,230.3516 Q1218.6094,230.3516 1218.3594,230.1797 Q1218.1094,230.0078 1218,229.5547 Q1217.9531,229.2422 1217.7813,229.0703 Q1217.4688,228.7422 1216.9063,228.5547 Q1216.3438,228.3516 1215.7813,228.3516 Q1215.0781,228.3516 1214.4844,228.6328 Q1213.9063,228.9141 1213.4531,229.5391 Q1213,230.1641 1213,231.0234 L1213,231.9453 Q1213,232.9766 1213.8438,233.6641 Q1214.6875,234.3516 1216.1875,234.3516 Q1217.0781,234.3516 1217.7031,234.1484 Q1218.0625,234.0391 1218.4688,233.6797 Q1218.7344,233.4766 1218.875,233.4141 Q1219.0156,233.3516 1219.1875,233.3516 Q1219.5156,233.3516 1219.75,233.6172 Q1220,233.8672 1220,234.2266 Q1220,234.5703 1219.6563,234.9766 Q1219.1563,235.5703 1218.3594,235.8984 Q1217.3125,236.3516 1216.0313,236.3516 Q1214.5313,236.3516 1213.3281,235.7578 Q1212.3594,235.2891 1211.6719,234.2734 Q1211,233.2578 1211,232.0547 L1211,230.9609 Q1211,229.7109 1211.5938,228.6172 Q1212.2031,227.5234 1213.25,226.9453 Q1214.3125,226.3516 1215.5,226.3516 Q1216.2188,226.3516 1216.8438,226.6016 Q1217.4688,226.8516 1218,227.3516 Z " fill="#000000"/><text fill="#000000" font-family="sans-serif" font-size="12" font-style="italic" lengthAdjust="spacing" textLength="81" x="1284.5" y="226.957">«Observation»</text><text fill="#000000" font-family="sans-serif" font-size="14" lengthAdjust="spacing" textLength="190" x="1230" y="244.127">Imaging Qualitative Evaluation</text><line style="stroke:#008000;stroke-width:0.5;" x1="1202" x2="1422" y1="252.2031" y2="252.2031"/><line style="stroke:#008000;stroke-width:0.5;" x1="1202" x2="1422" y1="260.2031" y2="260.2031"/></g><!--MD5=[bf552869d53a7887ddf5513b39525e88]
class ImagingSelection--><g id="elem_ImagingSelection"><rect codeLine="8" fill="#A3E7FF" height="48" id="ImagingSelection" rx="2.5" ry="2.5" style="stroke:#34B1EB;stroke-width:0.5;" width="139" x="1544" y="66"/><ellipse cx="1559" cy="82" fill="#ADD1B2" rx="11" ry="11" style="stroke:#181818;stroke-width:1.0;"/><path d="M1561,78.5 Q1561.2031,78 1561.4375,77.75 Q1561.6719,77.5 1561.9375,77.5 Q1562.4063,77.5 1562.7031,77.7813 Q1563,78.0625 1563,78.7188 L1563,80.2813 Q1563,80.9375 1562.7188,81.2188 Q1562.4375,81.5 1562,81.5 Q1561.6094,81.5 1561.3594,81.3281 Q1561.1094,81.1563 1561,80.7031 Q1560.9531,80.3906 1560.7813,80.2188 Q1560.4688,79.8906 1559.9063,79.7031 Q1559.3438,79.5 1558.7813,79.5 Q1558.0781,79.5 1557.4844,79.7813 Q1556.9063,80.0625 1556.4531,80.6875 Q1556,81.3125 1556,82.1719 L1556,83.0938 Q1556,84.125 1556.8438,84.8125 Q1557.6875,85.5 1559.1875,85.5 Q1560.0781,85.5 1560.7031,85.2969 Q1561.0625,85.1875 1561.4688,84.8281 Q1561.7344,84.625 1561.875,84.5625 Q1562.0156,84.5 1562.1875,84.5 Q1562.5156,84.5 1562.75,84.7656 Q1563,85.0156 1563,85.375 Q1563,85.7188 1562.6563,86.125 Q1562.1563,86.7188 1561.3594,87.0469 Q1560.3125,87.5 1559.0313,87.5 Q1557.5313,87.5 1556.3281,86.9063 Q1555.3594,86.4375 1554.6719,85.4219 Q1554,84.4063 1554,83.2031 L1554,82.1094 Q1554,80.8594 1554.5938,79.7656 Q1555.2031,78.6719 1556.25,78.0938 Q1557.3125,77.5 1558.5,77.5 Q1559.2188,77.5 1559.8438,77.75 Q1560.4688,78 1561,78.5 Z " fill="#000000"/><text fill="#000000" font-family="sans-serif" font-size="14" lengthAdjust="spacing" textLength="107" x="1573" y="87.7285">ImagingSelection</text><line style="stroke:#34B1EB;stroke-width:0.5;" x1="1545" x2="1682" y1="98" y2="98"/><line style="stroke:#34B1EB;stroke-width:0.5;" x1="1545" x2="1682" y1="106" y2="106"/></g><!--MD5=[358a5e4a5453c2da20320eff1a589528]
link CONTAINER.imaging.measurements to ImagingMeasurementGroup--><g id="link_CONTAINER.imaging.measurements_ImagingMeasurementGroup"><path codeLine="20" d="M296.53,78.68 C426.23,88.01 636.06,103.7 817,120 C825.06,120.73 833.38,121.51 841.75,122.31 " fill="none" id="CONTAINER.imaging.measurements-to-ImagingMeasurementGroup" style="stroke:#181818;stroke-width:1.0;"/><polygon fill="#181818" points="846.97,122.82,838.4003,117.9662,841.9936,122.3352,837.6246,125.9285,846.97,122.82" style="stroke:#181818;stroke-width:1.0;"/><text fill="#000000" font-family="sans-serif" font-size="13" lengthAdjust="spacing" textLength="77" x="536.5" y="88.4951">contains[0..*]</text></g><!--MD5=[7581e3f725727202a4ec57922c409b7f]
link CONTAINER.derived.imaging.measurements to DerivedImagingMeasurement--><g id="link_CONTAINER.derived.imaging.measurements_DerivedImagingMeasurement"><path codeLine="21" d="M322.03,161.49 C366.88,161.93 415.42,162.42 457.81,162.84 " fill="none" id="CONTAINER.derived.imaging.measurements-to-DerivedImagingMeasurement" style="stroke:#181818;stroke-width:1.0;"/><polygon fill="#181818" points="462.94,162.89,453.9746,158.813,457.9402,162.8471,453.906,166.8127,462.94,162.89" style="stroke:#181818;stroke-width:1.0;"/><text fill="#000000" font-family="sans-serif" font-size="13" lengthAdjust="spacing" textLength="77" x="355" y="158.4951">contains[0..*]</text></g><!--MD5=[6e5918a2413ce01f9ec27cf331e0b876]
link CONTAINER.qualitative.evaluations to ImagingQualitativeEvaluation--><g id="link_CONTAINER.qualitative.evaluations_ImagingQualitativeEvaluation"><path codeLine="22" d="M293.71,248.83 C514.21,246.7 979.3,242.21 1195.71,240.11 " fill="none" id="CONTAINER.qualitative.evaluations-to-ImagingQualitativeEvaluation" style="stroke:#181818;stroke-width:1.0;"/><polygon fill="#181818" points="1200.78,240.07,1191.7349,236.1731,1195.7803,240.1271,1191.8263,244.1726,1200.78,240.07" style="stroke:#181818;stroke-width:1.0;"/><text fill="#000000" font-family="sans-serif" font-size="13" lengthAdjust="spacing" textLength="77" x="728.5" y="239.4951">contains[0..*]</text></g><!--MD5=[a64112a2c3201709622cfcb5af043e04]
link ImagingMeasurementGroup to ImagingMeasurement--><g id="link_ImagingMeasurementGroup_ImagingMeasurement"><path codeLine="24" d="M1062.16,135.8 C1112.88,136.66 1172.83,137.67 1221.19,138.48 " fill="none" id="ImagingMeasurementGroup-to-ImagingMeasurement" style="stroke:#181818;stroke-width:1.0;"/><polygon fill="#181818" points="1226.42,138.57,1217.4781,134.4418,1221.4205,138.4986,1217.3638,142.441,1226.42,138.57" style="stroke:#181818;stroke-width:1.0;"/><text fill="#000000" font-family="sans-serif" font-size="13" lengthAdjust="spacing" textLength="77" x="1093" y="133.4951">contains[0..*]</text></g><!--MD5=[b39ee382287a633ec7edf15e3d3826dd]
link ImagingMeasurementGroup to ImagingQualitativeEvaluation--><g id="link_ImagingMeasurementGroup_ImagingQualitativeEvaluation"><path codeLine="25" d="M1055.47,163.53 C1102.43,177.4 1158.41,193.93 1205.98,207.98 " fill="none" id="ImagingMeasurementGroup-to-ImagingQualitativeEvaluation" style="stroke:#181818;stroke-width:1.0;"/><polygon fill="#181818" points="1210.85,209.42,1203.3526,203.0333,1206.055,208.003,1201.0854,210.7053,1210.85,209.42" style="stroke:#181818;stroke-width:1.0;"/><text fill="#000000" font-family="sans-serif" font-size="13" lengthAdjust="spacing" textLength="77" x="1093" y="174.4951">contains[0..*]</text></g><!--MD5=[e2781c8c73ac98bea8e9301cb9eebdf3]
link DerivedImagingMeasurement to ImagingMeasurementGroup--><g id="link_DerivedImagingMeasurement_ImagingMeasurementGroup"><path codeLine="26" d="M687.22,155.16 C736,151.28 793.15,146.74 841.96,142.86 " fill="none" id="DerivedImagingMeasurement-to-ImagingMeasurementGroup" style="stroke:#181818;stroke-width:1.0;"/><polygon fill="#181818" points="846.96,142.47,837.6689,139.2026,841.976,142.8699,838.3087,147.1769,846.96,142.47" style="stroke:#181818;stroke-width:1.0;"/><text fill="#000000" font-family="sans-serif" font-size="13" lengthAdjust="spacing" textLength="98" x="718" y="142.4951">derivedFrom[0..*]</text></g><!--MD5=[54cb7ae6fc8ea62639f517fee20b3166]
link ImagingMeasurement to ImagingSelection--><g id="link_ImagingMeasurement_ImagingSelection"><path codeLine="28" d="M1397.62,125.87 C1442.01,118.46 1495.86,109.47 1538.56,102.34 " fill="none" id="ImagingMeasurement-to-ImagingSelection" style="stroke:#181818;stroke-width:1.0;"/><polygon fill="#181818" points="1543.71,101.48,1534.1714,99.0275,1538.7792,102.3089,1535.4977,106.9167,1543.71,101.48" style="stroke:#181818;stroke-width:1.0;"/><text fill="#000000" font-family="sans-serif" font-size="13" lengthAdjust="spacing" textLength="59" x="1454" y="104.4951">focus[0..*]</text></g><!--MD5=[3592e4ec9ccb1b5e73ea9fc123162322]
link ImagingMeasurementGroup to ImagingSelection--><g id="link_ImagingMeasurementGroup_ImagingSelection"><path codeLine="29" d="M1062.05,116.01 C1072.17,114.31 1082.28,112.62 1092,111 C1140.43,102.92 1152.16,98.08 1201,93 C1339.45,78.6 1374.92,76.36 1514,82 C1522.02,82.33 1530.4,82.8 1538.74,83.36 " fill="none" id="ImagingMeasurementGroup-to-ImagingSelection" style="stroke:#181818;stroke-width:1.0;"/><polygon fill="#181818" points="1543.92,83.71,1535.2156,79.102,1538.9318,83.367,1534.6668,87.0831,1543.92,83.71" style="stroke:#181818;stroke-width:1.0;"/><text fill="#000000" font-family="sans-serif" font-size="13" lengthAdjust="spacing" textLength="59" x="1282.5" y="76.4951">focus[0..*]</text></g><!--MD5=[e9ac297db8ca3d991943ebcad24e4385]
@startuml tid_1500_measurement_report
left to right direction

class "Imaging Measurement Group" as ImagingMeasurementGroup <<Observation>> #d5e8d4 ##green
class "Imaging Measurement" as ImagingMeasurement <<Observation>> #d5e8d4 ##green
class "Derived Imaging Measurement" as DerivedImagingMeasurement <<Observation>> #d5e8d4 ##green
class "Imaging Qualitative Evaluation" as ImagingQualitativeEvaluation <<Observation>> #d5e8d4 ##green

class ImagingSelection #a3e7ff ##34b1eb


package TID.1500.measurement.report #EEEEEE {
    package CONTAINER.imaging.measurements {
    }
    package CONTAINER.derived.imaging.measurements {
    }
    package CONTAINER.qualitative.evaluations {
    }
}

CONTAINER.imaging.measurements - -> ImagingMeasurementGroup : contains[0..*]
CONTAINER.derived.imaging.measurements - -> DerivedImagingMeasurement : contains[0..*]
CONTAINER.qualitative.evaluations - -> ImagingQualitativeEvaluation : contains[0..*]

ImagingMeasurementGroup - -> ImagingMeasurement : contains[0..*]
ImagingMeasurementGroup - -> ImagingQualitativeEvaluation : contains[0..*]
DerivedImagingMeasurement - -> ImagingMeasurementGroup : derivedFrom[0..*]

ImagingMeasurement - -> ImagingSelection: focus[0..*]
ImagingMeasurementGroup - -> ImagingSelection: focus[0..*]
@enduml

PlantUML version 1.2022.5(Sat Apr 30 06:55:52 EDT 2022)
(GPL source distribution)
Java Runtime: OpenJDK Runtime Environment
JVM: OpenJDK 64-Bit Server VM
Default Encoding: Cp1252
Language: en
Country: US
--></g></svg>