<?xml version="1.0" encoding="UTF-8" standalone="no"?><svg xmlns="http://www.w3.org/2000/svg" xmlns:xlink="http://www.w3.org/1999/xlink" contentStyleType="text/css" height="301px" preserveAspectRatio="none" style="width:1709px;height:301px;background:#FFFFFF;" version="1.1" viewBox="0 0 1709 301" width="1709px" zoomAndPan="magnify"><defs/><g><!--MD5=[e0204f941a3444903cfced0c56fac560]
cluster TID.1500.measurement.report--><g id="cluster_TID.1500.measurement.report"><path d="M8.5,6 L215.5,6 A3.75,3.75 0 0 1 218,8.5 L225,29.6094 L335.5,29.6094 A2.5,2.5 0 0 1 338,32.1094 L338,291.5 A2.5,2.5 0 0 1 335.5,294 L8.5,294 A2.5,2.5 0 0 1 6,291.5 L6,8.5 A2.5,2.5 0 0 1 8.5,6 " fill="#EEEEEE" style="stroke:#000000;stroke-width:1.5;"/><line style="stroke:#000000;stroke-width:1.5;" x1="6" x2="225" y1="29.6094" y2="29.6094"/><text fill="#000000" font-family="sans-serif" font-size="14" font-weight="bold" lengthAdjust="spacing" textLength="206" x="10" y="22.5332">TID.1500.measurement.report</text></g><path d="M50,42.5 L280,42.5 A3.75,3.75 0 0 1 282.5,45 L289.5,66.1094 L294,66.1094 A2.5,2.5 0 0 1 296.5,68.6094 L296.5,95.2188 A2.5,2.5 0 0 1 294,97.7188 L50,97.7188 A2.5,2.5 0 0 1 47.5,95.2188 L47.5,45 A2.5,2.5 0 0 1 50,42.5 " fill="#F1F1F1" style="stroke:#181818;stroke-width:0.5;"/><line style="stroke:#181818;stroke-width:0.5;" x1="47.5" x2="289.5" y1="66.1094" y2="66.1094"/><text fill="#000000" font-family="sans-serif" font-size="14" lengthAdjust="spacing" textLength="229" x="51.5" y="59.0332">CONTAINER.imaging.measurements</text><path d="M24.5,132.5 L305.5,132.5 A3.75,3.75 0 0 1 308,135 L315,156.1094 L319.5,156.1094 A2.5,2.5 0 0 1 322,158.6094 L322,185.2188 A2.5,2.5 0 0 1 319.5,187.7188 L24.5,187.7188 A2.5,2.5 0 0 1 22,185.2188 L22,135 A2.5,2.5 0 0 1 24.5,132.5 " fill="#F1F1F1" style="stroke:#181818;stroke-width:0.5;"/><line style="stroke:#181818;stroke-width:0.5;" x1="22" x2="315" y1="156.1094" y2="156.1094"/><text fill="#000000" font-family="sans-serif" font-size="14" lengthAdjust="spacing" textLength="280" x="26" y="149.0332">CONTAINER.derived.imaging.measurements</text><path d="M53,222.5 L277,222.5 A3.75,3.75 0 0 1 279.5,225 L286.5,246.1094 L291,246.1094 A2.5,2.5 0 0 1 293.5,248.6094 L293.5,275.2188 A2.5,2.5 0 0 1 291,277.7188 L53,277.7188 A2.5,2.5 0 0 1 50.5,275.2188 L50.5,225 A2.5,2.5 0 0 1 53,222.5 " fill="#F1F1F1" style="stroke:#181818;stroke-width:0.5;"/><line style="stroke:#181818;stroke-width:0.5;" x1="50.5" x2="286.5" y1="246.1094" y2="246.1094"/><text fill="#000000" font-family="sans-serif" font-size="14" lengthAdjust="spacing" textLength="223" x="54.5" y="239.0332">CONTAINER.qualitative.evaluations</text><!--MD5=[3d7640cd87099f783353155cb7e37f56]
class ImagingMeasurementGroup--><g id="elem_ImagingMeasurementGroup"><rect codeLine="3" fill="#D5E8D4" height="58.7031" id="ImagingMeasurementGroup" rx="2.5" ry="2.5" style="stroke:#008000;stroke-width:0.5;" width="215" x="847" y="104.5"/><ellipse cx="862" cy="125.8516" fill="#ADD1B2" rx="11" ry="11" style="stroke:#181818;stroke-width:1.0;"/><path d="M864,122.3516 Q864.2031,121.8516 864.4375,121.6016 Q864.6719,121.3516 864.9375,121.3516 Q865.4063,121.3516 865.7031,121.6328 Q866,121.9141 866,122.5703 L866,124.1328 Q866,124.7891 865.7188,125.0703 Q865.4375,125.3516 865,125.3516 Q864.6094,125.3516 864.3594,125.1797 Q864.1094,125.0078 864,124.5547 Q863.9531,124.2422 863.7813,124.0703 Q863.4688,123.7422 862.9063,123.5547 Q862.3438,123.3516 861.7813,123.3516 Q861.0781,123.3516 860.4844,123.6328 Q859.9063,123.9141 859.4531,124.5391 Q859,125.1641 859,126.0234 L859,126.9453 Q859,127.9766 859.8438,128.6641 Q860.6875,129.3516 862.1875,129.3516 Q863.0781,129.3516 863.7031,129.1484 Q864.0625,129.0391 864.4688,128.6797 Q864.7344,128.4766 864.875,128.4141 Q865.0156,128.3516 865.1875,128.3516 Q865.5156,128.3516 865.75,128.6172 Q866,128.8672 866,129.2266 Q866,129.5703 865.6563,129.9766 Q865.1563,130.5703 864.3594,130.8984 Q863.3125,131.3516 862.0313,131.3516 Q860.5313,131.3516 859.3281,130.7578 Q858.3594,130.2891 857.6719,129.2734 Q857,128.2578 857,127.0547 L857,125.9609 Q857,124.7109 857.5938,123.6172 Q858.2031,122.5234 859.25,121.9453 Q860.3125,121.3516 861.5,121.3516 Q862.2188,121.3516 862.8438,121.6016 Q863.4688,121.8516 864,122.3516 Z " fill="#000000"/><text fill="#000000" font-family="sans-serif" font-size="12" font-style="italic" lengthAdjust="spacing" textLength="81" x="927" y="121.957">«Observation»</text><text fill="#000000" font-family="sans-serif" font-size="14" lengthAdjust="spacing" textLength="183" x="876" y="139.127">Imaging Measurement Group</text><line style="stroke:#008000;stroke-width:0.5;" x1="848" x2="1061" y1="147.2031" y2="147.2031"/><line style="stroke:#008000;stroke-width:0.5;" x1="848" x2="1061" y1="155.2031" y2="155.2031"/></g><!--MD5=[bb88d34a80cd9044150c6a92244c01f2]
class ImagingMeasurement--><g id="elem_ImagingMeasurement"><rect codeLine="4" fill="#D5E8D4" height="58.7031" id="ImagingMeasurement" rx="2.5" ry="2.5" style="stroke:#008000;stroke-width:0.5;" width="171" x="1245.5" y="115.5"/><ellipse cx="1260.5" cy="136.8516" fill="#ADD1B2" rx="11" ry="11" style="stroke:#181818;stroke-width:1.0;"/><path d="M1262.5,133.3516 Q1262.7031,132.8516 1262.9375,132.6016 Q1263.1719,132.3516 1263.4375,132.3516 Q1263.9063,132.3516 1264.2031,132.6328 Q1264.5,132.9141 1264.5,133.5703 L1264.5,135.1328 Q1264.5,135.7891 1264.2188,136.0703 Q1263.9375,136.3516 1263.5,136.3516 Q1263.1094,136.3516 1262.8594,136.1797 Q1262.6094,136.0078 1262.5,135.5547 Q1262.4531,135.2422 1262.2813,135.0703 Q1261.9688,134.7422 1261.4063,134.5547 Q1260.8438,134.3516 1260.2813,134.3516 Q1259.5781,134.3516 1258.9844,134.6328 Q1258.4063,134.9141 1257.9531,135.5391 Q1257.5,136.1641 1257.5,137.0234 L1257.5,137.9453 Q1257.5,138.9766 1258.3438,139.6641 Q1259.1875,140.3516 1260.6875,140.3516 Q1261.5781,140.3516 1262.2031,140.1484 Q1262.5625,140.0391 1262.9688,139.6797 Q1263.2344,139.4766 1263.375,139.4141 Q1263.5156,139.3516 1263.6875,139.3516 Q1264.0156,139.3516 1264.25,139.6172 Q1264.5,139.8672 1264.5,140.2266 Q1264.5,140.5703 1264.1563,140.9766 Q1263.6563,141.5703 1262.8594,141.8984 Q1261.8125,142.3516 1260.5313,142.3516 Q1259.0313,142.3516 1257.8281,141.7578 Q1256.8594,141.2891 1256.1719,140.2734 Q1255.5,139.2578 1255.5,138.0547 L1255.5,136.9609 Q1255.5,135.7109 1256.0938,134.6172 Q1256.7031,133.5234 1257.75,132.9453 Q1258.8125,132.3516 1260,132.3516 Q1260.7188,132.3516 1261.3438,132.6016 Q1261.9688,132.8516 1262.5,133.3516 Z " fill="#000000"/><text fill="#000000" font-family="sans-serif" font-size="12" font-style="italic" lengthAdjust="spacing" textLength="81" x="1303.5" y="132.957">«Observation»</text><text fill="#000000" font-family="sans-serif" font-size="14" lengthAdjust="spacing" textLength="139" x="1274.5" y="150.127">Imaging Measurement</text><line style="stroke:#008000;stroke-width:0.5;" x1="1246.5" x2="1415.5" y1="158.2031" y2="158.2031"/><line style="stroke:#008000;stroke-width:0.5;" x1="1246.5" x2="1415.5" y1="166.2031" y2="166.2031"/></g><!--MD5=[b7f5dc4932397432e03a5730cc1c43ee]
class DerivedImagingMeasurement--><g id="elem_DerivedImagingMeasurement"><rect codeLine="5" fill="#D5E8D4" height="58.7031" id="DerivedImagingMeasurement" rx="2.5" ry="2.5" style="stroke:#008000;stroke-width:0.5;" width="224" x="463" y="134.5"/><ellipse cx="478" cy="155.8516" fill="#ADD1B2" rx="11" ry="11" style="stroke:#181818;stroke-width:1.0;"/><path d="M480,152.3516 Q480.2031,151.8516 480.4375,151.6016 Q480.6719,151.3516 480.9375,151.3516 Q481.4063,151.3516 481.7031,151.6328 Q482,151.9141 482,152.5703 L482,154.1328 Q482,154.7891 481.7188,155.0703 Q481.4375,155.3516 481,155.3516 Q480.6094,155.3516 480.3594,155.1797 Q480.1094,155.0078 480,154.5547 Q479.9531,154.2422 479.7813,154.0703 Q479.4688,153.7422 478.9063,153.5547 Q478.3438,153.3516 477.7813,153.3516 Q477.0781,153.3516 476.4844,153.6328 Q475.9063,153.9141 475.4531,154.5391 Q475,155.1641 475,156.0234 L475,156.9453 Q475,157.9766 475.8438,158.6641 Q476.6875,159.3516 478.1875,159.3516 Q479.0781,159.3516 479.7031,159.1484 Q480.0625,159.0391 480.4688,158.6797 Q480.7344,158.4766 480.875,158.4141 Q481.0156,158.3516 481.1875,158.3516 Q481.5156,158.3516 481.75,158.6172 Q482,158.8672 482,159.2266 Q482,159.5703 481.6563,159.9766 Q481.1563,160.5703 480.3594,160.8984 Q479.3125,161.3516 478.0313,161.3516 Q476.5313,161.3516 475.3281,160.7578 Q474.3594,160.2891 473.6719,159.2734 Q473,158.2578 473,157.0547 L473,155.9609 Q473,154.7109 473.5938,153.6172 Q474.2031,152.5234 475.25,151.9453 Q476.3125,151.3516 477.5,151.3516 Q478.2188,151.3516 478.8438,151.6016 Q479.4688,151.8516 480,152.3516 Z " fill="#000000"/><text fill="#000000" font-family="sans-serif" font-size="12" font-style="italic" lengthAdjust="spacing" textLength="81" x="547.5" y="151.957">«Observation»</text><text fill="#000000" font-family="sans-serif" font-size="14" lengthAdjust="spacing" textLength="192" x="492" y="169.127">Derived Imaging Measurement</text><line style="stroke:#008000;stroke-width:0.5;" x1="464" x2="686" y1="177.2031" y2="177.2031"/><line style="stroke:#008000;stroke-width:0.5;" x1="464" x2="686" y1="185.2031" y2="185.2031"/></g><!--MD5=[57f4290ba0ded235bd39bc1042cc846f]
class ImagingQualitativeEvaluation--><g id="elem_ImagingQualitativeEvaluation"><rect codeLine="6" fill="#D5E8D4" height="58.7031" id="ImagingQualitativeEvaluation" rx="2.5" ry="2.5" style="stroke:#008000;stroke-width:0.5;" width="222" x="1220" y="209.5"/><ellipse cx="1235" cy="230.8516" fill="#ADD1B2" rx="11" ry="11" style="stroke:#181818;stroke-width:1.0;"/><path d="M1237,227.3516 Q1237.2031,226.8516 1237.4375,226.6016 Q1237.6719,226.3516 1237.9375,226.3516 Q1238.4063,226.3516 1238.7031,226.6328 Q1239,226.9141 1239,227.5703 L1239,229.1328 Q1239,229.7891 1238.7188,230.0703 Q1238.4375,230.3516 1238,230.3516 Q1237.6094,230.3516 1237.3594,230.1797 Q1237.1094,230.0078 1237,229.5547 Q1236.9531,229.2422 1236.7813,229.0703 Q1236.4688,228.7422 1235.9063,228.5547 Q1235.3438,228.3516 1234.7813,228.3516 Q1234.0781,228.3516 1233.4844,228.6328 Q1232.9063,228.9141 1232.4531,229.5391 Q1232,230.1641 1232,231.0234 L1232,231.9453 Q1232,232.9766 1232.8438,233.6641 Q1233.6875,234.3516 1235.1875,234.3516 Q1236.0781,234.3516 1236.7031,234.1484 Q1237.0625,234.0391 1237.4688,233.6797 Q1237.7344,233.4766 1237.875,233.4141 Q1238.0156,233.3516 1238.1875,233.3516 Q1238.5156,233.3516 1238.75,233.6172 Q1239,233.8672 1239,234.2266 Q1239,234.5703 1238.6563,234.9766 Q1238.1563,235.5703 1237.3594,235.8984 Q1236.3125,236.3516 1235.0313,236.3516 Q1233.5313,236.3516 1232.3281,235.7578 Q1231.3594,235.2891 1230.6719,234.2734 Q1230,233.2578 1230,232.0547 L1230,230.9609 Q1230,229.7109 1230.5938,228.6172 Q1231.2031,227.5234 1232.25,226.9453 Q1233.3125,226.3516 1234.5,226.3516 Q1235.2188,226.3516 1235.8438,226.6016 Q1236.4688,226.8516 1237,227.3516 Z " fill="#000000"/><text fill="#000000" font-family="sans-serif" font-size="12" font-style="italic" lengthAdjust="spacing" textLength="81" x="1303.5" y="226.957">«Observation»</text><text fill="#000000" font-family="sans-serif" font-size="14" lengthAdjust="spacing" textLength="190" x="1249" y="244.127">Imaging Qualitative Evaluation</text><line style="stroke:#008000;stroke-width:0.5;" x1="1221" x2="1441" y1="252.2031" y2="252.2031"/><line style="stroke:#008000;stroke-width:0.5;" x1="1221" x2="1441" y1="260.2031" y2="260.2031"/></g><!--MD5=[bf552869d53a7887ddf5513b39525e88]
class ImagingSelection--><g id="elem_ImagingSelection"><rect codeLine="8" fill="#A3E7FF" height="48" id="ImagingSelection" rx="2.5" ry="2.5" style="stroke:#34B1EB;stroke-width:0.5;" width="139" x="1563" y="121"/><ellipse cx="1578" cy="137" fill="#ADD1B2" rx="11" ry="11" style="stroke:#181818;stroke-width:1.0;"/><path d="M1580,133.5 Q1580.2031,133 1580.4375,132.75 Q1580.6719,132.5 1580.9375,132.5 Q1581.4063,132.5 1581.7031,132.7813 Q1582,133.0625 1582,133.7188 L1582,135.2813 Q1582,135.9375 1581.7188,136.2188 Q1581.4375,136.5 1581,136.5 Q1580.6094,136.5 1580.3594,136.3281 Q1580.1094,136.1563 1580,135.7031 Q1579.9531,135.3906 1579.7813,135.2188 Q1579.4688,134.8906 1578.9063,134.7031 Q1578.3438,134.5 1577.7813,134.5 Q1577.0781,134.5 1576.4844,134.7813 Q1575.9063,135.0625 1575.4531,135.6875 Q1575,136.3125 1575,137.1719 L1575,138.0938 Q1575,139.125 1575.8438,139.8125 Q1576.6875,140.5 1578.1875,140.5 Q1579.0781,140.5 1579.7031,140.2969 Q1580.0625,140.1875 1580.4688,139.8281 Q1580.7344,139.625 1580.875,139.5625 Q1581.0156,139.5 1581.1875,139.5 Q1581.5156,139.5 1581.75,139.7656 Q1582,140.0156 1582,140.375 Q1582,140.7188 1581.6563,141.125 Q1581.1563,141.7188 1580.3594,142.0469 Q1579.3125,142.5 1578.0313,142.5 Q1576.5313,142.5 1575.3281,141.9063 Q1574.3594,141.4375 1573.6719,140.4219 Q1573,139.4063 1573,138.2031 L1573,137.1094 Q1573,135.8594 1573.5938,134.7656 Q1574.2031,133.6719 1575.25,133.0938 Q1576.3125,132.5 1577.5,132.5 Q1578.2188,132.5 1578.8438,132.75 Q1579.4688,133 1580,133.5 Z " fill="#000000"/><text fill="#000000" font-family="sans-serif" font-size="14" lengthAdjust="spacing" textLength="107" x="1592" y="142.7285">ImagingSelection</text><line style="stroke:#34B1EB;stroke-width:0.5;" x1="1564" x2="1701" y1="153" y2="153"/><line style="stroke:#34B1EB;stroke-width:0.5;" x1="1564" x2="1701" y1="161" y2="161"/></g><!--MD5=[358a5e4a5453c2da20320eff1a589528]
link CONTAINER.imaging.measurements to ImagingMeasurementGroup--><g id="link_CONTAINER.imaging.measurements_ImagingMeasurementGroup"><path codeLine="20" d="M296.53,78.68 C426.23,88.01 636.06,103.7 817,120 C825.06,120.73 833.38,121.51 841.75,122.31 " fill="none" id="CONTAINER.imaging.measurements-to-ImagingMeasurementGroup" style="stroke:#181818;stroke-width:1.0;"/><polygon fill="#181818" points="846.97,122.82,838.4003,117.9662,841.9936,122.3352,837.6246,125.9285,846.97,122.82" style="stroke:#181818;stroke-width:1.0;"/><text fill="#000000" font-family="sans-serif" font-size="13" lengthAdjust="spacing" textLength="77" x="536.5" y="88.4951">contains[0..*]</text></g><!--MD5=[7581e3f725727202a4ec57922c409b7f]
link CONTAINER.derived.imaging.measurements to DerivedImagingMeasurement--><g id="link_CONTAINER.derived.imaging.measurements_DerivedImagingMeasurement"><path codeLine="21" d="M322.03,161.49 C366.88,161.93 415.42,162.42 457.81,162.84 " fill="none" id="CONTAINER.derived.imaging.measurements-to-DerivedImagingMeasurement" style="stroke:#181818;stroke-width:1.0;"/><polygon fill="#181818" points="462.94,162.89,453.9746,158.813,457.9402,162.8471,453.906,166.8127,462.94,162.89" style="stroke:#181818;stroke-width:1.0;"/><text fill="#000000" font-family="sans-serif" font-size="13" lengthAdjust="spacing" textLength="77" x="355" y="158.4951">contains[0..*]</text></g><!--MD5=[6e5918a2413ce01f9ec27cf331e0b876]
link CONTAINER.qualitative.evaluations to ImagingQualitativeEvaluation--><g id="link_CONTAINER.qualitative.evaluations_ImagingQualitativeEvaluation"><path codeLine="22" d="M293.55,248.85 C517.51,246.72 994.95,242.19 1214.8,240.1 " fill="none" id="CONTAINER.qualitative.evaluations-to-ImagingQualitativeEvaluation" style="stroke:#181818;stroke-width:1.0;"/><polygon fill="#181818" points="1219.95,240.05,1210.9049,236.1531,1214.9503,240.1071,1210.9963,244.1526,1219.95,240.05" style="stroke:#181818;stroke-width:1.0;"/><text fill="#000000" font-family="sans-serif" font-size="13" lengthAdjust="spacing" textLength="77" x="728.5" y="239.4951">contains[0..*]</text></g><!--MD5=[a64112a2c3201709622cfcb5af043e04]
link ImagingMeasurementGroup to ImagingMeasurement--><g id="link_ImagingMeasurementGroup_ImagingMeasurement"><path codeLine="24" d="M1062.07,137.13 C1118.31,138.78 1186.56,140.79 1240.1,142.36 " fill="none" id="ImagingMeasurementGroup-to-ImagingMeasurement" style="stroke:#181818;stroke-width:1.0;"/><polygon fill="#181818" points="1245.23,142.51,1236.3479,138.2546,1240.232,142.3672,1236.1194,146.2513,1245.23,142.51" style="stroke:#181818;stroke-width:1.0;"/><text fill="#000000" font-family="sans-serif" font-size="13" lengthAdjust="spacing" textLength="96" x="1093" y="135.4951">hasMember[0..*]</text></g><!--MD5=[b39ee382287a633ec7edf15e3d3826dd]
link ImagingMeasurementGroup to ImagingQualitativeEvaluation--><g id="link_ImagingMeasurementGroup_ImagingQualitativeEvaluation"><path codeLine="25" d="M1060.82,163.53 C1110.38,177.42 1169.49,194 1219.67,208.07 " fill="none" id="ImagingMeasurementGroup-to-ImagingQualitativeEvaluation" style="stroke:#181818;stroke-width:1.0;"/><polygon fill="#181818" points="1224.5,209.42,1216.9056,203.149,1219.6838,208.0766,1214.7562,210.8548,1224.5,209.42" style="stroke:#181818;stroke-width:1.0;"/><text fill="#000000" font-family="sans-serif" font-size="13" lengthAdjust="spacing" textLength="96" x="1093" y="171.4951">hasMember[0..*]</text></g><!--MD5=[e2781c8c73ac98bea8e9301cb9eebdf3]
link DerivedImagingMeasurement to ImagingMeasurementGroup--><g id="link_DerivedImagingMeasurement_ImagingMeasurementGroup"><path codeLine="26" d="M687.22,155.16 C736,151.28 793.15,146.74 841.96,142.86 " fill="none" id="DerivedImagingMeasurement-to-ImagingMeasurementGroup" style="stroke:#181818;stroke-width:1.0;"/><polygon fill="#181818" points="846.96,142.47,837.6689,139.2026,841.976,142.8699,838.3087,147.1769,846.96,142.47" style="stroke:#181818;stroke-width:1.0;"/><text fill="#000000" font-family="sans-serif" font-size="13" lengthAdjust="spacing" textLength="98" x="718" y="142.4951">derivedFrom[0..*]</text></g><!--MD5=[54cb7ae6fc8ea62639f517fee20b3166]
link ImagingMeasurement to ImagingSelection--><g id="link_ImagingMeasurement_ImagingSelection"><path codeLine="28" d="M1416.62,145 C1461.01,145 1514.86,145 1557.56,145 " fill="none" id="ImagingMeasurement-to-ImagingSelection" style="stroke:#181818;stroke-width:1.0;"/><polygon fill="#181818" points="1562.71,145,1553.71,141,1557.71,145,1553.71,149,1562.71,145" style="stroke:#181818;stroke-width:1.0;"/><text fill="#000000" font-family="sans-serif" font-size="13" lengthAdjust="spacing" textLength="59" x="1473" y="141.4951">focus[0..*]</text></g><!--MD5=[3592e4ec9ccb1b5e73ea9fc123162322]
link ImagingMeasurementGroup to ImagingSelection--><g id="link_ImagingMeasurementGroup_ImagingSelection"><path codeLine="29" d="M1062.02,114.67 C1160.73,99.48 1311.57,83.15 1442,98 C1480.84,102.42 1523.14,112.4 1557.91,122.03 " fill="none" id="ImagingMeasurementGroup-to-ImagingSelection" style="stroke:#181818;stroke-width:1.0;"/><polygon fill="#181818" points="1562.98,123.45,1555.3856,117.179,1558.1638,122.1066,1553.2362,124.8848,1562.98,123.45" style="stroke:#181818;stroke-width:1.0;"/><text fill="#000000" font-family="sans-serif" font-size="13" lengthAdjust="spacing" textLength="59" x="1301.5" y="89.4951">focus[0..*]</text></g><!--MD5=[a4bfc312f82173f94e4e09b3bcdd7758]
link ImagingQualitativeEvaluation to ImagingSelection--><g id="link_ImagingQualitativeEvaluation_ImagingSelection"><path codeLine="30" d="M1426.35,209.39 C1468.86,196.04 1518.3,180.53 1558,168.07 " fill="none" id="ImagingQualitativeEvaluation-to-ImagingSelection" style="stroke:#181818;stroke-width:1.0;"/><polygon fill="#181818" points="1562.79,166.57,1553.0077,165.4265,1558.0161,168.0565,1555.3861,173.0648,1562.79,166.57" style="stroke:#181818;stroke-width:1.0;"/><text fill="#000000" font-family="sans-serif" font-size="13" lengthAdjust="spacing" textLength="59" x="1473" y="175.4951">focus[0..*]</text></g><!--MD5=[88bf7bbd1a99d71e779f4cd9ab6eca60]
@startuml tid_1500_measurement_report
left to right direction

class "Imaging Measurement Group" as ImagingMeasurementGroup <<Observation>> #d5e8d4 ##green
class "Imaging Measurement" as ImagingMeasurement <<Observation>> #d5e8d4 ##green
class "Derived Imaging Measurement" as DerivedImagingMeasurement <<Observation>> #d5e8d4 ##green
class "Imaging Qualitative Evaluation" as ImagingQualitativeEvaluation <<Observation>> #d5e8d4 ##green

class ImagingSelection #a3e7ff ##34b1eb


package TID.1500.measurement.report #EEEEEE {
    package CONTAINER.imaging.measurements {
    }
    package CONTAINER.derived.imaging.measurements {
    }
    package CONTAINER.qualitative.evaluations {
    }
}

CONTAINER.imaging.measurements - -> ImagingMeasurementGroup : contains[0..*]
CONTAINER.derived.imaging.measurements - -> DerivedImagingMeasurement : contains[0..*]
CONTAINER.qualitative.evaluations - -> ImagingQualitativeEvaluation : contains[0..*]

ImagingMeasurementGroup - -> ImagingMeasurement : hasMember[0..*]
ImagingMeasurementGroup - -> ImagingQualitativeEvaluation : hasMember[0..*]
DerivedImagingMeasurement - -> ImagingMeasurementGroup : derivedFrom[0..*]

ImagingMeasurement - -> ImagingSelection: focus[0..*]
ImagingMeasurementGroup - -> ImagingSelection: focus[0..*]
ImagingQualitativeEvaluation - -> ImagingSelection: focus[0..*]
@enduml

PlantUML version 1.2022.5(Sat Apr 30 06:55:52 EDT 2022)
(GPL source distribution)
Java Runtime: OpenJDK Runtime Environment
JVM: OpenJDK 64-Bit Server VM
Default Encoding: Cp1252
Language: en
Country: US
--></g></svg>