<?xml version="1.0" encoding="UTF-8" standalone="no"?><svg xmlns="http://www.w3.org/2000/svg" xmlns:xlink="http://www.w3.org/1999/xlink" contentStyleType="text/css" height="591px" preserveAspectRatio="none" style="width:1530px;height:591px;background:#FFFFFF;" version="1.1" viewBox="0 0 1530 591" width="1530px" zoomAndPan="magnify"><defs/><g><!--MD5=[e0204f941a3444903cfced0c56fac560]
cluster TID.1500.measurement.report--><g id="cluster_TID.1500.measurement.report"><path d="M8.5,6 L215.5,6 A3.75,3.75 0 0 1 218,8.5 L225,29.6094 L446.5,29.6094 A2.5,2.5 0 0 1 449,32.1094 L449,581.5 A2.5,2.5 0 0 1 446.5,584 L8.5,584 A2.5,2.5 0 0 1 6,581.5 L6,8.5 A2.5,2.5 0 0 1 8.5,6 " fill="#EEEEEE" style="stroke:#000000;stroke-width:1.5;"/><line style="stroke:#000000;stroke-width:1.5;" x1="6" x2="225" y1="29.6094" y2="29.6094"/><text fill="#000000" font-family="sans-serif" font-size="14" font-weight="bold" lengthAdjust="spacing" textLength="206" x="10" y="22.5332">TID.1500.measurement.report</text></g><!--MD5=[5f6923eedeb01734c40a826d2e9be5f8]
cluster CONTAINER.imaging.measurements--><g id="cluster_CONTAINER.imaging.measurements"><path d="M32.5,50 L281.5,50 A3.75,3.75 0 0 1 284,52.5 L291,73.6094 L422.5,73.6094 A2.5,2.5 0 0 1 425,76.1094 L425,329.5 A2.5,2.5 0 0 1 422.5,332 L32.5,332 A2.5,2.5 0 0 1 30,329.5 L30,52.5 A2.5,2.5 0 0 1 32.5,50 " fill="none" style="stroke:#000000;stroke-width:1.5;"/><line style="stroke:#000000;stroke-width:1.5;" x1="30" x2="291" y1="73.6094" y2="73.6094"/><text fill="#000000" font-family="sans-serif" font-size="14" font-weight="bold" lengthAdjust="spacing" textLength="248" x="34" y="66.5332">CONTAINER.imaging.measurements</text></g><!--MD5=[ffaea171d990c4d55aebe993500dd3d0]
cluster 0..n.CONTAINER.imaging.measurement.group--><g id="cluster_0..n.CONTAINER.imaging.measurement.group"><path d="M64.5,102 L380.5,102 A3.75,3.75 0 0 1 383,104.5 L390,125.6094 L390.5,125.6094 A2.5,2.5 0 0 1 393,128.1094 L393,297.5 A2.5,2.5 0 0 1 390.5,300 L64.5,300 A2.5,2.5 0 0 1 62,297.5 L62,104.5 A2.5,2.5 0 0 1 64.5,102 " fill="none" style="stroke:#000000;stroke-width:1.5;"/><line style="stroke:#000000;stroke-width:1.5;" x1="62" x2="390" y1="125.6094" y2="125.6094"/><text fill="#000000" font-family="sans-serif" font-size="14" font-weight="bold" lengthAdjust="spacing" textLength="315" x="66" y="118.5332">0..n.CONTAINER.imaging.measurement.group</text></g><!--MD5=[73a9a0ba3f6a647f3ba4f22276bf18b3]
cluster CONTAINER.derived.imaging.measurements--><g id="cluster_CONTAINER.derived.imaging.measurements"><path d="M68.5,356 L376.5,356 A3.75,3.75 0 0 1 379,358.5 L386,379.6094 L386.5,379.6094 A2.5,2.5 0 0 1 389,382.1094 L389,443.5 A2.5,2.5 0 0 1 386.5,446 L68.5,446 A2.5,2.5 0 0 1 66,443.5 L66,358.5 A2.5,2.5 0 0 1 68.5,356 " fill="none" style="stroke:#000000;stroke-width:1.5;"/><line style="stroke:#000000;stroke-width:1.5;" x1="66" x2="386" y1="379.6094" y2="379.6094"/><text fill="#000000" font-family="sans-serif" font-size="14" font-weight="bold" lengthAdjust="spacing" textLength="307" x="70" y="372.5332">CONTAINER.derived.imaging.measurements</text></g><!--MD5=[ec19ba83de06623e9bbe12325e2c634c]
cluster CONTAINER.qualitative.evaluations--><g id="cluster_CONTAINER.qualitative.evaluations"><path d="M99,470 L345,470 A3.75,3.75 0 0 1 347.5,472.5 L354.5,493.6094 L355,493.6094 A2.5,2.5 0 0 1 357.5,496.1094 L357.5,557.5 A2.5,2.5 0 0 1 355,560 L99,560 A2.5,2.5 0 0 1 96.5,557.5 L96.5,472.5 A2.5,2.5 0 0 1 99,470 " fill="none" style="stroke:#000000;stroke-width:1.5;"/><line style="stroke:#000000;stroke-width:1.5;" x1="96.5" x2="354.5" y1="493.6094" y2="493.6094"/><text fill="#000000" font-family="sans-serif" font-size="14" font-weight="bold" lengthAdjust="spacing" textLength="245" x="100.5" y="486.5332">CONTAINER.qualitative.evaluations</text></g><g id="elem_0..n.imaging.measurement"><rect fill="#F1F1F1" height="37.6094" style="stroke:#181818;stroke-width:0.5;" width="181" x="136.5" y="146"/><text fill="#000000" font-family="sans-serif" font-size="14" lengthAdjust="spacing" textLength="167" x="143.5" y="162.5332">0..n.imaging.measurement</text><line style="stroke:#181818;stroke-width:0.5;" x1="137.5" x2="316.5" y1="167.6094" y2="167.6094"/></g><g id="elem_0..n.imaging.qualitative.evaluation"><rect fill="#F1F1F1" height="37.6094" style="stroke:#181818;stroke-width:0.5;" width="228" x="113" y="219"/><text fill="#000000" font-family="sans-serif" font-size="14" lengthAdjust="spacing" textLength="214" x="120" y="235.5332">0..n.imaging.qualitative.evaluation</text><line style="stroke:#181818;stroke-width:0.5;" x1="114" x2="340" y1="240.6094" y2="240.6094"/></g><g id="elem_0..n.derived.imaging.measurement"><rect fill="#F1F1F1" height="37.6094" style="stroke:#181818;stroke-width:0.5;" width="232" x="111" y="392"/><text fill="#000000" font-family="sans-serif" font-size="14" lengthAdjust="spacing" textLength="218" x="118" y="408.5332">0..n.derived.imaging.measurement</text><line style="stroke:#181818;stroke-width:0.5;" x1="112" x2="342" y1="413.6094" y2="413.6094"/></g><g id="elem_0..n.qualitative.evaluation"><rect fill="#F1F1F1" height="37.6094" style="stroke:#181818;stroke-width:0.5;" width="175" x="139.5" y="506"/><text fill="#000000" font-family="sans-serif" font-size="14" lengthAdjust="spacing" textLength="161" x="146.5" y="522.5332">0..n.qualitative.evaluation</text><line style="stroke:#181818;stroke-width:0.5;" x1="140.5" x2="313.5" y1="527.6094" y2="527.6094"/></g><!--MD5=[3d7640cd87099f783353155cb7e37f56]
class ImagingMeasurementGroup--><g id="elem_ImagingMeasurementGroup"><rect codeLine="3" fill="#D5E8D4" height="58.7031" id="ImagingMeasurementGroup" rx="2.5" ry="2.5" style="stroke:#008000;stroke-width:0.5;" width="215" x="928" y="380.5"/><ellipse cx="943" cy="401.8516" fill="#ADD1B2" rx="11" ry="11" style="stroke:#181818;stroke-width:1.0;"/><path d="M945.7656,397.7266 Q945.9219,397.5078 946.1094,397.3984 Q946.2969,397.2891 946.5156,397.2891 Q946.8906,397.2891 947.125,397.5469 Q947.3594,397.8047 947.3594,398.4141 L947.3594,399.8672 Q947.3594,400.4766 947.125,400.7422 Q946.8906,401.0078 946.5156,401.0078 Q946.1719,401.0078 945.9688,400.8047 Q945.7656,400.6172 945.6563,400.1016 Q945.6094,399.7422 945.4219,399.5547 Q945.0938,399.1797 944.4844,398.9609 Q943.875,398.7422 943.25,398.7422 Q942.4844,398.7422 941.8516,399.0703 Q941.2188,399.3984 940.7266,400.1484 Q940.2344,400.8984 940.2344,401.9297 L940.2344,403.0234 Q940.2344,404.2578 941.125,405.0781 Q942.0156,405.8984 943.6094,405.8984 Q944.5469,405.8984 945.2031,405.6484 Q945.5938,405.4922 946.0156,405.0547 Q946.2813,404.7891 946.4297,404.7109 Q946.5781,404.6328 946.7813,404.6328 Q947.1094,404.6328 947.3672,404.8906 Q947.625,405.1484 947.625,405.4922 Q947.625,405.8359 947.2813,406.2422 Q946.7813,406.8203 945.9844,407.1484 Q944.9063,407.6016 943.6094,407.6016 Q942.0938,407.6016 940.8906,406.9766 Q939.9063,406.4766 939.2188,405.4063 Q938.5313,404.3359 938.5313,403.0547 L938.5313,401.8984 Q938.5313,400.5703 939.1484,399.4219 Q939.7656,398.2734 940.8594,397.6563 Q941.9531,397.0391 943.1875,397.0391 Q943.9219,397.0391 944.5703,397.2031 Q945.2188,397.3672 945.7656,397.7266 Z " fill="#000000"/><text fill="#000000" font-family="sans-serif" font-size="12" font-style="italic" lengthAdjust="spacing" textLength="81" x="1008" y="397.957">«Observation»</text><text fill="#000000" font-family="sans-serif" font-size="14" lengthAdjust="spacing" textLength="183" x="957" y="415.127">Imaging Measurement Group</text><line style="stroke:#008000;stroke-width:0.5;" x1="929" x2="1142" y1="423.2031" y2="423.2031"/><line style="stroke:#008000;stroke-width:0.5;" x1="929" x2="1142" y1="431.2031" y2="431.2031"/></g><!--MD5=[bb88d34a80cd9044150c6a92244c01f2]
class ImagingMeasurement--><g id="elem_ImagingMeasurement"><rect codeLine="4" fill="#D5E8D4" height="58.7031" id="ImagingMeasurement" rx="2.5" ry="2.5" style="stroke:#008000;stroke-width:0.5;" width="171" x="1326.5" y="379.5"/><ellipse cx="1341.5" cy="400.8516" fill="#ADD1B2" rx="11" ry="11" style="stroke:#181818;stroke-width:1.0;"/><path d="M1344.2656,396.7266 Q1344.4219,396.5078 1344.6094,396.3984 Q1344.7969,396.2891 1345.0156,396.2891 Q1345.3906,396.2891 1345.625,396.5469 Q1345.8594,396.8047 1345.8594,397.4141 L1345.8594,398.8672 Q1345.8594,399.4766 1345.625,399.7422 Q1345.3906,400.0078 1345.0156,400.0078 Q1344.6719,400.0078 1344.4688,399.8047 Q1344.2656,399.6172 1344.1563,399.1016 Q1344.1094,398.7422 1343.9219,398.5547 Q1343.5938,398.1797 1342.9844,397.9609 Q1342.375,397.7422 1341.75,397.7422 Q1340.9844,397.7422 1340.3516,398.0703 Q1339.7188,398.3984 1339.2266,399.1484 Q1338.7344,399.8984 1338.7344,400.9297 L1338.7344,402.0234 Q1338.7344,403.2578 1339.625,404.0781 Q1340.5156,404.8984 1342.1094,404.8984 Q1343.0469,404.8984 1343.7031,404.6484 Q1344.0938,404.4922 1344.5156,404.0547 Q1344.7813,403.7891 1344.9297,403.7109 Q1345.0781,403.6328 1345.2813,403.6328 Q1345.6094,403.6328 1345.8672,403.8906 Q1346.125,404.1484 1346.125,404.4922 Q1346.125,404.8359 1345.7813,405.2422 Q1345.2813,405.8203 1344.4844,406.1484 Q1343.4063,406.6016 1342.1094,406.6016 Q1340.5938,406.6016 1339.3906,405.9766 Q1338.4063,405.4766 1337.7188,404.4063 Q1337.0313,403.3359 1337.0313,402.0547 L1337.0313,400.8984 Q1337.0313,399.5703 1337.6484,398.4219 Q1338.2656,397.2734 1339.3594,396.6563 Q1340.4531,396.0391 1341.6875,396.0391 Q1342.4219,396.0391 1343.0703,396.2031 Q1343.7188,396.3672 1344.2656,396.7266 Z " fill="#000000"/><text fill="#000000" font-family="sans-serif" font-size="12" font-style="italic" lengthAdjust="spacing" textLength="81" x="1384.5" y="396.957">«Observation»</text><text fill="#000000" font-family="sans-serif" font-size="14" lengthAdjust="spacing" textLength="139" x="1355.5" y="414.127">Imaging Measurement</text><line style="stroke:#008000;stroke-width:0.5;" x1="1327.5" x2="1496.5" y1="422.2031" y2="422.2031"/><line style="stroke:#008000;stroke-width:0.5;" x1="1327.5" x2="1496.5" y1="430.2031" y2="430.2031"/></g><!--MD5=[b7f5dc4932397432e03a5730cc1c43ee]
class DerivedImagingMeasurement--><g id="elem_DerivedImagingMeasurement"><rect codeLine="5" fill="#D5E8D4" height="58.7031" id="DerivedImagingMeasurement" rx="2.5" ry="2.5" style="stroke:#008000;stroke-width:0.5;" width="224" x="544" y="380.5"/><ellipse cx="559" cy="401.8516" fill="#ADD1B2" rx="11" ry="11" style="stroke:#181818;stroke-width:1.0;"/><path d="M561.7656,397.7266 Q561.9219,397.5078 562.1094,397.3984 Q562.2969,397.2891 562.5156,397.2891 Q562.8906,397.2891 563.125,397.5469 Q563.3594,397.8047 563.3594,398.4141 L563.3594,399.8672 Q563.3594,400.4766 563.125,400.7422 Q562.8906,401.0078 562.5156,401.0078 Q562.1719,401.0078 561.9688,400.8047 Q561.7656,400.6172 561.6563,400.1016 Q561.6094,399.7422 561.4219,399.5547 Q561.0938,399.1797 560.4844,398.9609 Q559.875,398.7422 559.25,398.7422 Q558.4844,398.7422 557.8516,399.0703 Q557.2188,399.3984 556.7266,400.1484 Q556.2344,400.8984 556.2344,401.9297 L556.2344,403.0234 Q556.2344,404.2578 557.125,405.0781 Q558.0156,405.8984 559.6094,405.8984 Q560.5469,405.8984 561.2031,405.6484 Q561.5938,405.4922 562.0156,405.0547 Q562.2813,404.7891 562.4297,404.7109 Q562.5781,404.6328 562.7813,404.6328 Q563.1094,404.6328 563.3672,404.8906 Q563.625,405.1484 563.625,405.4922 Q563.625,405.8359 563.2813,406.2422 Q562.7813,406.8203 561.9844,407.1484 Q560.9063,407.6016 559.6094,407.6016 Q558.0938,407.6016 556.8906,406.9766 Q555.9063,406.4766 555.2188,405.4063 Q554.5313,404.3359 554.5313,403.0547 L554.5313,401.8984 Q554.5313,400.5703 555.1484,399.4219 Q555.7656,398.2734 556.8594,397.6563 Q557.9531,397.0391 559.1875,397.0391 Q559.9219,397.0391 560.5703,397.2031 Q561.2188,397.3672 561.7656,397.7266 Z " fill="#000000"/><text fill="#000000" font-family="sans-serif" font-size="12" font-style="italic" lengthAdjust="spacing" textLength="81" x="628.5" y="397.957">«Observation»</text><text fill="#000000" font-family="sans-serif" font-size="14" lengthAdjust="spacing" textLength="192" x="573" y="415.127">Derived Imaging Measurement</text><line style="stroke:#008000;stroke-width:0.5;" x1="545" x2="767" y1="423.2031" y2="423.2031"/><line style="stroke:#008000;stroke-width:0.5;" x1="545" x2="767" y1="431.2031" y2="431.2031"/></g><!--MD5=[57f4290ba0ded235bd39bc1042cc846f]
class ImagingQualitativeEvaluation--><g id="elem_ImagingQualitativeEvaluation"><rect codeLine="6" fill="#D5E8D4" height="58.7031" id="ImagingQualitativeEvaluation" rx="2.5" ry="2.5" style="stroke:#008000;stroke-width:0.5;" width="222" x="1301" y="484.5"/><ellipse cx="1316" cy="505.8516" fill="#ADD1B2" rx="11" ry="11" style="stroke:#181818;stroke-width:1.0;"/><path d="M1318.7656,501.7266 Q1318.9219,501.5078 1319.1094,501.3984 Q1319.2969,501.2891 1319.5156,501.2891 Q1319.8906,501.2891 1320.125,501.5469 Q1320.3594,501.8047 1320.3594,502.4141 L1320.3594,503.8672 Q1320.3594,504.4766 1320.125,504.7422 Q1319.8906,505.0078 1319.5156,505.0078 Q1319.1719,505.0078 1318.9688,504.8047 Q1318.7656,504.6172 1318.6563,504.1016 Q1318.6094,503.7422 1318.4219,503.5547 Q1318.0938,503.1797 1317.4844,502.9609 Q1316.875,502.7422 1316.25,502.7422 Q1315.4844,502.7422 1314.8516,503.0703 Q1314.2188,503.3984 1313.7266,504.1484 Q1313.2344,504.8984 1313.2344,505.9297 L1313.2344,507.0234 Q1313.2344,508.2578 1314.125,509.0781 Q1315.0156,509.8984 1316.6094,509.8984 Q1317.5469,509.8984 1318.2031,509.6484 Q1318.5938,509.4922 1319.0156,509.0547 Q1319.2813,508.7891 1319.4297,508.7109 Q1319.5781,508.6328 1319.7813,508.6328 Q1320.1094,508.6328 1320.3672,508.8906 Q1320.625,509.1484 1320.625,509.4922 Q1320.625,509.8359 1320.2813,510.2422 Q1319.7813,510.8203 1318.9844,511.1484 Q1317.9063,511.6016 1316.6094,511.6016 Q1315.0938,511.6016 1313.8906,510.9766 Q1312.9063,510.4766 1312.2188,509.4063 Q1311.5313,508.3359 1311.5313,507.0547 L1311.5313,505.8984 Q1311.5313,504.5703 1312.1484,503.4219 Q1312.7656,502.2734 1313.8594,501.6563 Q1314.9531,501.0391 1316.1875,501.0391 Q1316.9219,501.0391 1317.5703,501.2031 Q1318.2188,501.3672 1318.7656,501.7266 Z " fill="#000000"/><text fill="#000000" font-family="sans-serif" font-size="12" font-style="italic" lengthAdjust="spacing" textLength="81" x="1384.5" y="501.957">«Observation»</text><text fill="#000000" font-family="sans-serif" font-size="14" lengthAdjust="spacing" textLength="190" x="1330" y="519.127">Imaging Qualitative Evaluation</text><line style="stroke:#008000;stroke-width:0.5;" x1="1302" x2="1522" y1="527.2031" y2="527.2031"/><line style="stroke:#008000;stroke-width:0.5;" x1="1302" x2="1522" y1="535.2031" y2="535.2031"/></g><!--MD5=[1ef022c70c95868235f264049675f83b]
link 0..n.CONTAINER.imaging.measurement.group to ImagingMeasurementGroup--><g id="link_0..n.CONTAINER.imaging.measurement.group_ImagingMeasurementGroup"><path codeLine="23" d="M299.6252,300.0356 C300.2753,300.1106 300.9292,300.1862 301.5868,300.2622 C304.2175,300.5663 306.9085,300.8782 309.6583,301.1978 C315.1578,301.837 320.8923,302.5069 326.8481,303.2067 C338.7599,304.6063 351.5573,306.1255 365.1326,307.7577 C392.2833,311.0221 422.5456,314.7384 455.0575,318.8538 C585.105,335.315 751.145,358.16 898,384 C906.07,385.42 914.4,386.92 922.77,388.45 " fill="none" id="0..n.CONTAINER.imaging.measurement.group-to-ImagingMeasurementGroup" style="stroke:#181818;stroke-width:1.0;"/><polygon fill="#181818" points="927.99,389.41,919.8578,383.8541,923.0718,388.5093,918.4167,391.7233,927.99,389.41" style="stroke:#181818;stroke-width:1.0;"/><text fill="#000000" font-family="sans-serif" font-size="13" lengthAdjust="spacing" textLength="47" x="632.5" y="328.4951">maps to</text></g><!--MD5=[4ef0afb91a32da355ddcf974875af496]
link 0..n.derived.imaging.measurement to DerivedImagingMeasurement--><g id="link_0..n.derived.imaging.measurement_DerivedImagingMeasurement"><path codeLine="24" d="M343.27,410.73 C403.81,410.59 477.83,410.41 538.55,410.27 " fill="none" id="0..n.derived.imaging.measurement-to-DerivedImagingMeasurement" style="stroke:#181818;stroke-width:1.0;"/><polygon fill="#181818" points="543.64,410.26,534.6286,406.2857,538.64,410.2743,534.6515,414.2857,543.64,410.26" style="stroke:#181818;stroke-width:1.0;"/><text fill="#000000" font-family="sans-serif" font-size="13" lengthAdjust="spacing" textLength="47" x="466" y="407.4951">maps to</text></g><!--MD5=[987602799e87fd57b70e1865d379e752]
link 0..n.qualitative.evaluation to ImagingQualitativeEvaluation--><g id="link_0..n.qualitative.evaluation_ImagingQualitativeEvaluation"><path codeLine="25" d="M314.51,524.2 C524.02,522.25 1058.79,517.28 1295.39,515.07 " fill="none" id="0..n.qualitative.evaluation-to-ImagingQualitativeEvaluation" style="stroke:#181818;stroke-width:1.0;"/><polygon fill="#181818" points="1300.58,515.03,1291.546,511.1073,1295.5802,515.0729,1291.6146,519.107,1300.58,515.03" style="stroke:#181818;stroke-width:1.0;"/><text fill="#000000" font-family="sans-serif" font-size="13" lengthAdjust="spacing" textLength="47" x="824.5" y="514.4951">maps to</text></g><!--MD5=[a64112a2c3201709622cfcb5af043e04]
link ImagingMeasurementGroup to ImagingMeasurement--><g id="link_ImagingMeasurementGroup_ImagingMeasurement"><path codeLine="27" d="M1143.07,409.72 C1199.31,409.57 1267.56,409.38 1321.1,409.24 " fill="none" id="ImagingMeasurementGroup-to-ImagingMeasurement" style="stroke:#181818;stroke-width:1.0;"/><polygon fill="#181818" points="1326.23,409.23,1317.23,405.23,1321.23,409.23,1317.23,413.23,1326.23,409.23" style="stroke:#181818;stroke-width:1.0;"/><text fill="#000000" font-family="sans-serif" font-size="13" lengthAdjust="spacing" textLength="96" x="1174" y="406.4951">hasMember[0..*]</text></g><!--MD5=[b39ee382287a633ec7edf15e3d3826dd]
link ImagingMeasurementGroup to ImagingQualitativeEvaluation--><g id="link_ImagingMeasurementGroup_ImagingQualitativeEvaluation"><path codeLine="28" d="M1142.81,439.52 C1191.84,453.14 1250.03,469.3 1299.66,483.08 " fill="none" id="ImagingMeasurementGroup-to-ImagingQualitativeEvaluation" style="stroke:#181818;stroke-width:1.0;"/><polygon fill="#181818" points="1304.74,484.49,1297.1284,478.2399,1299.9202,483.1599,1295.0002,485.9517,1304.74,484.49" style="stroke:#181818;stroke-width:1.0;"/><text fill="#000000" font-family="sans-serif" font-size="13" lengthAdjust="spacing" textLength="96" x="1174" y="446.4951">hasMember[0..*]</text></g><!--MD5=[e2781c8c73ac98bea8e9301cb9eebdf3]
link DerivedImagingMeasurement to ImagingMeasurementGroup--><g id="link_DerivedImagingMeasurement_ImagingMeasurementGroup"><path codeLine="29" d="M768.22,410 C816.9,410 873.92,410 922.67,410 " fill="none" id="DerivedImagingMeasurement-to-ImagingMeasurementGroup" style="stroke:#181818;stroke-width:1.0;"/><polygon fill="#181818" points="927.96,410,918.96,406,922.96,410,918.96,414,927.96,410" style="stroke:#181818;stroke-width:1.0;"/><text fill="#000000" font-family="sans-serif" font-size="13" lengthAdjust="spacing" textLength="98" x="799" y="406.4951">derivedFrom[0..*]</text></g><!--MD5=[2711458182a55fe291337ff5625d7b19]
@startuml tid_1500_measurement_report
left to right direction

class "Imaging Measurement Group" as ImagingMeasurementGroup <<Observation>> #d5e8d4 ##green
class "Imaging Measurement" as ImagingMeasurement <<Observation>> #d5e8d4 ##green
class "Derived Imaging Measurement" as DerivedImagingMeasurement <<Observation>> #d5e8d4 ##green
class "Imaging Qualitative Evaluation" as ImagingQualitativeEvaluation <<Observation>> #d5e8d4 ##green

package TID.1500.measurement.report #EEEEEE {
    package CONTAINER.imaging.measurements {
        package 0..n.CONTAINER.imaging.measurement.group {
            Object 0..n.imaging.measurement
            Object 0..n.imaging.qualitative.evaluation
        }
    }
    package CONTAINER.derived.imaging.measurements {
        Object 0..n.derived.imaging.measurement
    }
    package CONTAINER.qualitative.evaluations {
        Object 0..n.qualitative.evaluation
    }
}

"0..n.CONTAINER.imaging.measurement.group" -> ImagingMeasurementGroup : maps to
"0..n.derived.imaging.measurement" - -> DerivedImagingMeasurement : maps to
"0..n.qualitative.evaluation" - -> ImagingQualitativeEvaluation : maps to

ImagingMeasurementGroup - -> ImagingMeasurement : hasMember[0..*]
ImagingMeasurementGroup - -> ImagingQualitativeEvaluation : hasMember[0..*]
DerivedImagingMeasurement - -> ImagingMeasurementGroup : derivedFrom[0..*]
@enduml

PlantUML version 1.2022.7(Mon Aug 22 13:01:30 EDT 2022)
(GPL source distribution)
Java Runtime: Java(TM) SE Runtime Environment
JVM: Java HotSpot(TM) 64-Bit Server VM
Default Encoding: Cp1252
Language: en
Country: US
--></g></svg>